<svg width="43" height="44" viewBox="0 0 43 44" fill="none" xmlns="http://www.w3.org/2000/svg">
<rect width="43" height="43" transform="translate(0 0.195312)" fill="white"/>
<rect x="0.488636" y="0.681996" width="42.0227" height="42.0227" rx="3.48733" stroke="#E7E7E7" stroke-width="0.977273"/>
<path d="M13.2081 19.5534C13.4858 19.1022 13.885 18.7377 14.4057 18.46C14.9264 18.1823 15.5223 18.0434 16.1934 18.0434C16.9918 18.0434 17.715 18.2459 18.363 18.6509C19.011 19.0559 19.5201 19.6344 19.8904 20.3866C20.2722 21.1387 20.4631 22.0123 20.4631 23.0074C20.4631 24.0025 20.2722 24.8819 19.8904 25.6456C19.5201 26.3977 19.011 26.982 18.363 27.3986C17.715 27.8035 16.9918 28.006 16.1934 28.006C15.5107 28.006 14.9148 27.873 14.4057 27.6068C13.8966 27.3291 13.4974 26.9647 13.2081 26.5134V27.8672H10.2402V15.0234H13.2081V19.5534ZM17.4431 23.0074C17.4431 22.2668 17.2348 21.6883 16.8183 21.2717C16.4133 20.8436 15.9099 20.6295 15.3082 20.6295C14.7181 20.6295 14.2148 20.8436 13.7982 21.2717C13.3933 21.6999 13.1908 22.2842 13.1908 23.0247C13.1908 23.7653 13.3933 24.3496 13.7982 24.7777C14.2148 25.2059 14.7181 25.4199 15.3082 25.4199C15.8984 25.4199 16.4017 25.2059 16.8183 24.7777C17.2348 24.338 17.4431 23.7479 17.4431 23.0074ZM31.5836 18.1823V27.8672H28.6156V26.5481C28.3148 26.9762 27.904 27.3234 27.3833 27.5895C26.8742 27.844 26.3072 27.9713 25.6824 27.9713C24.9418 27.9713 24.2881 27.8093 23.7211 27.4853C23.1541 27.1498 22.7144 26.6696 22.402 26.0448C22.0896 25.4199 21.9334 24.6852 21.9334 23.8405V18.1823H24.884V23.4413C24.884 24.0893 25.0518 24.5926 25.3873 24.9513C25.7229 25.31 26.1742 25.4894 26.7411 25.4894C27.3197 25.4894 27.7767 25.31 28.1123 24.9513C28.4479 24.5926 28.6156 24.0893 28.6156 23.4413V18.1823H31.5836Z" fill="#03A800"/>
</svg>
