<svg width="20" height="20" viewBox="0 0 20 20" fill="none" xmlns="http://www.w3.org/2000/svg">
<g id="alert">
<g id="g">
<path id="Vector" d="M9.51187 4.13477C6.01431 4.13477 3.16797 6.98111 3.16797 10.4787C3.16797 13.9763 6.01431 16.8299 9.51187 16.8299C13.0094 16.8299 15.8558 13.9836 15.8558 10.486C15.8558 6.98843 13.0094 4.13477 9.51187 4.13477Z" fill="#926CFF"/>
<path id="right" d="M16.2443 6.52386L13.1869 3.60171C12.9753 3.39948 12.9678 3.06843 13.17 2.85685C13.3722 2.64526 13.7083 2.63248 13.9199 2.83471L16.9773 5.75686C17.1889 5.95909 17.1964 6.29014 16.9942 6.50172C16.792 6.71331 16.4558 6.72609 16.2443 6.52386Z" fill="#926CFF"/>
<path id="left" d="M5.75745 3.59833L2.69983 6.52026C2.48823 6.72247 2.15718 6.71496 1.95497 6.50336C1.75276 6.29176 1.75522 5.95542 1.96682 5.75321L5.02444 2.83128C5.23604 2.62907 5.56709 2.63658 5.7693 2.84818C5.97151 3.05978 5.96905 3.39612 5.75745 3.59833Z" fill="#926CFF"/>
<path id="bijli" d="M9.49237 7.07422H11.6875L9.85823 9.92788H11.7106L7.68617 14.5377L9.00324 11.3181H7.32031L9.49237 7.07422Z" fill="white"/>
</g>
</g>
</svg>
