<svg  viewBox="0 0 38 32" fill="none" xmlns="http://www.w3.org/2000/svg">
<path d="M18.8534 12.2086L18.8529 11.4724C18.3188 11.376 17.9132 10.9073 17.9132 10.3457V7.30663C17.9132 6.67476 18.4266 6.16125 19.0585 6.16125H36.1262C36.7582 6.16125 37.2716 6.67478 37.2716 7.30663V10.3457C37.2716 10.9073 36.8659 11.376 36.3319 11.4724L36.3313 12.2086C36.8659 12.306 37.2716 12.7752 37.2716 13.3366V16.3757C37.2716 16.9368 36.8663 17.405 36.3313 17.5025L36.3319 18.2387C36.8659 18.3351 37.2716 18.8039 37.2716 19.3654V22.4045C37.2716 22.966 36.8659 23.4348 36.3319 23.5312L36.3313 24.2674C36.8663 24.3649 37.2716 24.8331 37.2716 25.3942V28.4333C37.2716 29.0651 36.7582 29.5787 36.1262 29.5787H19.0585C18.4266 29.5787 17.9132 29.0651 17.9132 28.4333V25.3942C17.9132 24.8331 18.3185 24.3649 18.8534 24.2674L18.8529 23.5312C18.3188 23.4348 17.9132 22.966 17.9132 22.4045V19.3654C17.9132 18.8038 18.3188 18.3351 18.8529 18.2387L18.8534 17.5025C18.3185 17.405 17.9132 16.9368 17.9132 16.3757V13.3366C17.9132 12.7752 18.3188 12.306 18.8534 12.2086Z" fill="#BDA6FF" stroke="black" stroke-width="0.748274"/>
<path d="M37.0506 11.024C36.9005 11.228 36.6845 11.3806 36.4343 11.45H36.0771V11.8241V11.8312H36.3377L36.3371 11.8511H36.0771V16.6775V17.0516H36.4512H37.0515C36.9021 17.2552 36.6872 17.4077 36.4384 17.4776H35.2304H34.8563V17.8518V22.7063V23.0804H35.2304H37.0517C36.9031 23.283 36.6896 23.4355 36.4422 23.5064H33.3764H33.0022V23.8806V29.5787H32.5762V23.8806V23.5064H32.2021H31.0908H30.7167V23.8806V29.5787H30.2907V23.8806V23.5064H29.9166H22.1176H21.7435V23.8806V29.5787H21.3175V23.8806V23.5064H20.9433H18.7451C18.4977 23.4356 18.2841 23.2831 18.1355 23.0804H24.949H25.3231V22.7063V17.8518V17.4776H24.949H18.7489C18.5 17.4078 18.285 17.2553 18.1356 17.0516H19.2621H19.6362V16.6775V11.8241V11.45H19.2621H18.753C18.5032 11.3807 18.2871 11.228 18.137 11.024H22.5026H22.8767V10.6498V6.16125H23.3027V10.6498V11.024H23.6768H30.0591H30.4332V10.6498V6.16125H30.8593V10.6498V11.024H31.2334H32.4439H32.818V10.6498V6.16125H33.244V10.6498V11.024H33.6181H37.0506ZM26.1232 17.4776H25.7491V17.8518V22.7063V23.0804H26.1232H27.0109H27.385V22.7063V17.8518V17.4776H27.0109H26.1232ZM28.1852 17.4776H27.811V17.8518V22.7063V23.0804H28.1852H34.0562H34.4303V22.7063V17.8518V17.4776H34.0562H28.1852ZM20.4364 11.45H20.0623V11.8241V16.6775V17.0516H20.4364H29.1913H29.5654V16.6775V11.8241V11.45H29.1913H20.4364ZM30.3656 11.45H29.9915V11.8241V16.6775V17.0516H30.3656H35.2769H35.6511V16.6775V11.8241V11.45H35.2769H30.3656Z" fill="#8D65FF" stroke="black" stroke-width="0.748274"/>
<g filter="url(#filter0_d_3359_13193)">
<path d="M30.0433 14.9941C30.0433 23.0669 23.4065 29.62 15.2087 29.62C7.0109 29.62 0.374137 23.0669 0.374137 14.9941C0.374137 6.92136 7.0109 0.368277 15.2087 0.368277C23.4065 0.368277 30.0433 6.92136 30.0433 14.9941Z" fill="#BDA6FF" stroke="black" stroke-width="0.748274"/>
<path d="M27.5443 14.8996C27.5443 21.63 22.0109 27.0949 15.1741 27.0949C8.33728 27.0949 2.80382 21.63 2.80382 14.8996C2.80382 8.16913 8.33728 2.70421 15.1741 2.70421C22.0109 2.70421 27.5443 8.16913 27.5443 14.8996Z" fill="#8D65FF" stroke="black" stroke-width="0.748274"/>
</g>
<path d="M13.3928 12.7585L14.3873 12.6084V12.1911C14.3873 12.0424 14.5078 11.9219 14.6565 11.9219H15.5046C15.6533 11.9219 15.7739 12.0424 15.7739 12.1911V12.6084L16.7684 12.7585C16.8917 12.7771 16.9861 12.8779 16.9965 13.0022L17.1562 14.9082C17.1694 15.0652 17.0455 15.1999 16.8879 15.1999H13.2732C13.1157 15.1999 12.9918 15.0652 13.0049 14.9082L13.1646 13.0022C13.175 12.8779 13.2695 12.7771 13.3928 12.7585Z" stroke="#BDA6FF" stroke-width="0.0134622"/>
<path d="M15.4266 12.6156H14.7266V12.4406C14.7266 12.344 14.8049 12.2656 14.9016 12.2656H15.2516C15.3482 12.2656 15.4266 12.344 15.4266 12.4406V12.6156Z" stroke="#BDA6FF" stroke-width="0.0134622"/>
<g filter="url(#filter1_d_3359_13193)">
<path d="M7.94922 11.2544V8.77125C7.94922 8.6689 8.03218 8.58594 8.13453 8.58594H22.0326C22.1349 8.58594 22.2179 8.6689 22.2179 8.77124V11.2544C22.2179 11.3567 22.1349 11.4397 22.0326 11.4397H20.791V14.9976C20.791 17.1058 19.082 18.8149 16.9737 18.8149H13.1934V22.8546C11.0852 22.8546 9.37609 21.1455 9.37609 19.0373V11.4397H8.13453C8.03218 11.4397 7.94922 11.3567 7.94922 11.2544Z" fill="#BDA6FF"/>
<path d="M7.94922 11.2544V8.77125C7.94922 8.6689 8.03218 8.58594 8.13453 8.58594H22.0326C22.1349 8.58594 22.2179 8.6689 22.2179 8.77124V11.2544C22.2179 11.3567 22.1349 11.4397 22.0326 11.4397H20.791V14.9976C20.791 17.1058 19.082 18.8149 16.9737 18.8149H13.1934V22.8546C11.0852 22.8546 9.37609 21.1455 9.37609 19.0373V11.4397H8.13453C8.03218 11.4397 7.94922 11.3567 7.94922 11.2544Z" stroke="black" stroke-width="0.463269"/>
</g>
<path d="M12.759 12.3586L14.1279 12.1521V11.5776C14.1279 11.373 14.2938 11.207 14.4985 11.207H15.6659C15.8706 11.207 16.0365 11.373 16.0365 11.5776V12.1521L17.4055 12.3586C17.5752 12.3842 17.7052 12.523 17.7195 12.6941L17.9394 15.3177C17.9575 15.5338 17.7869 15.7193 17.57 15.7193H12.5944C12.3775 15.7193 12.2069 15.5338 12.2251 15.3177L12.4449 12.6941C12.4592 12.523 12.5892 12.3842 12.759 12.3586Z" fill="white" stroke="black" stroke-width="0.463269"/>
<path d="M15.5652 12.2175H14.6016V11.7265C14.6016 11.6855 14.6347 11.6523 14.6757 11.6523H15.491C15.532 11.6523 15.5652 11.6855 15.5652 11.7265V12.2175Z" fill="#28273C" stroke="#BDA6FF" stroke-width="0.0185308"/>
<path d="M17.4727 15.4863C17.5455 15.3892 17.5915 15.2746 17.6061 15.1541L17.658 14.7266L17.7142 15.3858C17.7189 15.4399 17.6762 15.4863 17.6219 15.4863H17.4727V15.4863Z" fill="white"/>
<path d="M12.6692 13.0019C12.7245 12.8083 12.856 12.6455 13.0337 12.5508V12.5508L12.7828 12.5904C12.7235 12.5998 12.6783 12.6487 12.6737 12.7086L12.6445 13.0882L12.6692 13.0019Z" fill="white"/>
<path d="M10.0664 10.7031H11.2376L10.4097 11.0801L10.0664 11.2214V10.7031Z" fill="#BDA6FF"/>
<path d="M16.3398 17.8038C17.6344 17.6234 18.663 16.6254 18.8822 15.3368L19.0592 14.2969L19.0959 14.9991C19.1775 16.5614 17.9033 17.8581 16.3398 17.8038V17.8038V17.8038Z" fill="#BDA6FF"/>
<defs>
<filter id="filter0_d_3359_13193" x="0" y="-0.00585938" width="31.5404" height="31.1224" filterUnits="userSpaceOnUse" color-interpolation-filters="sRGB">
<feFlood flood-opacity="0" result="BackgroundImageFix"/>
<feColorMatrix in="SourceAlpha" type="matrix" values="0 0 0 0 0 0 0 0 0 0 0 0 0 0 0 0 0 0 127 0" result="hardAlpha"/>
<feOffset dx="1.12241" dy="1.12241"/>
<feComposite in2="hardAlpha" operator="out"/>
<feColorMatrix type="matrix" values="0 0 0 0 0 0 0 0 0 0 0 0 0 0 0 0 0 0 1 0"/>
<feBlend mode="normal" in2="BackgroundImageFix" result="effect1_dropShadow_3359_13193"/>
<feBlend mode="normal" in="SourceGraphic" in2="effect1_dropShadow_3359_13193" result="shape"/>
</filter>
<filter id="filter1_d_3359_13193" x="7.71875" y="8.35352" width="15.1752" height="15.1772" filterUnits="userSpaceOnUse" color-interpolation-filters="sRGB">
<feFlood flood-opacity="0" result="BackgroundImageFix"/>
<feColorMatrix in="SourceAlpha" type="matrix" values="0 0 0 0 0 0 0 0 0 0 0 0 0 0 0 0 0 0 127 0" result="hardAlpha"/>
<feOffset dx="0.444738" dy="0.444738"/>
<feComposite in2="hardAlpha" operator="out"/>
<feColorMatrix type="matrix" values="0 0 0 0 0.156863 0 0 0 0 0.152941 0 0 0 0 0.235294 0 0 0 1 0"/>
<feBlend mode="normal" in2="BackgroundImageFix" result="effect1_dropShadow_3359_13193"/>
<feBlend mode="normal" in="SourceGraphic" in2="effect1_dropShadow_3359_13193" result="shape"/>
</filter>
</defs>
</svg>
