<svg width="21" height="20" viewBox="0 0 21 20" fill="none" xmlns="http://www.w3.org/2000/svg">
<g id="Discover">
<g id="vuesax/bulk/discover">
<g id="discover">
<path id="kajukatli" opacity="0.4" d="M17.8375 2.51932C17.1125 1.79432 16.0875 1.51098 15.0959 1.76098L6.92921 3.80265C5.55421 4.14432 4.49588 5.21098 4.15421 6.57765L2.11255 14.7527C1.86255 15.7443 2.14588 16.7693 2.87088 17.4943C3.42088 18.036 4.14588 18.336 4.89588 18.336C5.12921 18.336 5.37088 18.311 5.60421 18.2443L13.7792 16.2027C15.1459 15.861 16.2125 14.8027 16.5542 13.4277L18.5959 5.25265C18.8459 4.26098 18.5625 3.23598 17.8375 2.51932Z" fill="#8D65FF"/>
<path id="Vector" d="M10.3544 13.2323C12.1401 13.2323 13.5878 11.7847 13.5878 9.99896C13.5878 8.21324 12.1401 6.76562 10.3544 6.76562C8.56871 6.76562 7.12109 8.21324 7.12109 9.99896C7.12109 11.7847 8.56871 13.2323 10.3544 13.2323Z" fill="#8D65FF"/>
</g>
</g>
</g>
</svg>
