<svg width="100%" height="100%" viewBox="0 0 1280 526" fill="none" xmlns="http://www.w3.org/2000/svg">
<g clip-path="url(#clip0_3584_11886)">
    
<path d="M630.568 934C556.378 934 461.149 904.274 347.524 845.645C209.938 774.653 50.2555 737.122 -114.256 737.122H-292.895V732.738H-114.256C-32.1751 732.738 49.3635 742.138 128.085 760.666C206.579 779.142 281.084 806.422 349.527 841.743C462.522 900.047 557.078 929.616 630.568 929.616C704.05 929.616 798.605 900.047 911.609 841.743C980.061 806.422 1054.57 779.142 1133.05 760.666C1211.78 742.129 1293.31 732.738 1375.39 732.738H1554.03V737.122H1375.39C1210.88 737.122 1051.2 774.644 913.612 845.645C799.987 904.274 704.758 934 630.568 934Z" fill="#DCCFFF"/>
<path d="M630.568 863.525C558.783 863.525 466.643 835.219 356.683 779.405C223.489 711.789 68.8972 676.047 -90.3655 676.047H-263.275V672.101H-90.3655C-10.9354 672.101 67.9698 681.045 144.154 698.697C220.112 716.287 292.22 742.261 358.458 775.889C467.859 831.422 559.405 859.588 630.559 859.588C701.714 859.588 793.269 831.431 902.66 775.889C968.898 742.261 1041 716.296 1116.96 698.697C1193.15 681.054 1272.05 672.101 1351.48 672.101H1524.39V676.047H1351.48C1192.22 676.047 1037.63 711.789 904.436 779.405C794.493 835.219 702.344 863.525 630.568 863.525Z" fill="#DCCFFF"/>
<path d="M630.568 793.05C561.198 793.05 472.128 766.173 365.842 713.165C237.039 648.925 87.5474 614.972 -66.4667 614.972H-233.646V611.464H-66.4667C88.081 611.464 238.115 645.549 367.399 710.026C473.195 762.788 561.74 789.542 630.559 789.542C699.387 789.542 787.924 762.788 893.72 710.026C1023 645.549 1173.04 611.464 1327.59 611.464H1494.76V614.972H1327.59C1173.57 614.972 1024.08 648.925 895.277 713.165C789.008 766.173 699.938 793.05 630.568 793.05Z" fill="#DCCFFF"/>
<path d="M630.568 722.566C563.603 722.566 477.621 697.119 375.001 646.917C250.581 586.061 106.189 553.888 -42.5674 553.888H-204.017V550.819H-42.5674C106.653 550.819 251.517 583.097 376.348 644.155C478.54 694.146 564.076 719.488 630.568 719.488C697.06 719.488 782.597 694.137 884.788 644.155C1009.62 583.089 1154.47 550.819 1303.7 550.819H1465.14V553.888H1303.7C1154.94 553.888 1010.55 586.052 886.135 646.917C783.515 697.119 697.532 722.566 630.568 722.566Z" fill="#DCCFFF"/>
<path d="M630.568 652.091C566.009 652.091 483.106 628.064 384.16 580.677C264.14 523.197 124.839 492.813 -18.6685 492.813H-174.38V490.183H-18.6685C125.233 490.183 264.918 520.654 385.288 578.301C483.876 625.512 566.403 649.46 630.568 649.46C694.733 649.46 777.26 625.521 875.848 578.301C996.227 520.654 1135.91 490.183 1279.8 490.183H1435.52V492.813H1279.8C1136.3 492.813 996.997 523.197 876.977 580.677C778.03 628.064 695.127 652.091 630.568 652.091Z" fill="#DCCFFF"/>
<path d="M630.568 581.615C568.415 581.615 488.591 559.009 393.31 514.437C277.681 460.342 143.481 431.747 5.2304 431.747H-144.76V429.555H5.22185C143.796 429.555 278.311 458.22 394.228 512.456C489.221 556.896 568.73 579.432 630.568 579.432C692.397 579.432 771.915 556.896 866.899 512.456C982.816 458.22 1117.33 429.555 1255.91 429.555H1405.89V431.747H1255.91C1117.65 431.747 983.455 460.342 867.817 514.437C772.545 559.009 692.721 581.615 630.568 581.615Z" fill="#DCCFFF"/>
<path d="M630.568 511.14C570.82 511.14 494.067 489.963 402.46 448.189C291.223 397.47 162.122 370.663 29.1207 370.663H-115.131V368.91H29.1207C162.367 368.91 291.713 395.769 403.177 446.593C494.566 488.254 571.066 509.386 630.559 509.386C690.053 509.386 766.561 488.262 857.941 446.593C969.406 395.777 1098.75 368.91 1232 368.91H1376.25V370.663H1232C1099 370.663 969.896 397.47 858.659 448.189C767.06 489.955 690.316 511.14 630.568 511.14Z" fill="#DCCFFF"/>
<path d="M630.568 440.656C573.217 440.656 499.552 420.9 411.601 381.94C304.756 334.606 180.764 309.588 53.02 309.588H-85.5017V308.273H53.02C180.948 308.273 305.123 333.334 412.135 380.739C499.911 419.629 573.41 439.341 630.568 439.341C687.726 439.341 761.225 419.62 849.001 380.739C956.013 333.334 1080.19 308.273 1208.12 308.273H1346.64V309.588H1208.12C1080.37 309.588 956.372 334.606 849.526 381.94C761.584 420.9 687.91 440.656 630.568 440.656Z" fill="#DCCFFF"/>
<path d="M630.568 370.181C575.623 370.181 505.028 351.845 420.743 315.691C318.297 271.742 199.397 248.513 76.9104 248.513H-55.8817V247.637H76.9104C199.511 247.637 318.525 270.891 421.084 314.885C505.256 350.995 575.737 369.304 630.559 369.304C685.382 369.304 755.863 350.995 840.035 314.885C942.594 270.891 1061.61 247.637 1184.21 247.637H1317V248.513H1184.21C1061.72 248.513 942.83 271.742 840.376 315.691C756.108 351.845 685.513 370.181 630.568 370.181Z" fill="#DCCFFF"/>
<path d="M630.568 299.706C578.02 299.706 510.504 282.8 429.885 249.443C331.83 208.878 218.039 187.438 100.809 187.438H-26.2442V187H100.809C218.091 187 331.944 208.449 430.051 249.04C510.618 282.37 578.081 299.267 630.568 299.267C683.055 299.267 750.518 282.37 831.086 249.04C929.192 208.457 1043.04 187 1160.33 187H1287.38V187.438H1160.33C1043.1 187.438 929.306 208.878 831.252 249.443C750.632 282.791 683.116 299.706 630.568 299.706Z" fill="#DCCFFF"/>
<path d="M630.568 299.487L632.755 931.808H628.381L630.568 299.487Z" fill="#DCCFFF"/>
<path d="M596.924 297.417L585.036 928.16L581.108 928.081L596.924 297.417Z" fill="#DCCFFF"/>
<path d="M563.28 291.998L537.343 918.549L533.852 918.391L563.28 291.998Z" fill="#DCCFFF"/>
<path d="M529.636 284.141L489.973 904.502L486.912 904.291L529.636 284.141Z" fill="#DCCFFF"/>
<path d="M479.799 268.638L419.492 877.117L416.877 876.853L479.799 268.638Z" fill="#DCCFFF"/>
<path d="M429.963 249.241L349.606 843.848L347.445 843.549L429.963 249.241Z" fill="#DCCFFF"/>
<path d="M350.559 221.567L238.675 795.68L236.96 795.338L350.559 221.567Z" fill="#DCCFFF"/>
<path d="M269.476 202.495L124.857 762.192L123.58 761.859L269.476 202.495Z" fill="#DCCFFF"/>
<path d="M186.363 191.095L7.54891 741.989L6.7177 741.717L186.363 191.095Z" fill="#DCCFFF"/>
<path d="M100.809 187.219L-114.055 735.009L-114.466 734.851L100.809 187.219Z" fill="#DCCFFF"/>
<path d="M-293 734.886L-26.2442 187.219L-292.799 734.982L-293 734.886Z" fill="#DCCFFF"/>
<path d="M630.568 299.487L632.755 931.808H628.381L630.568 299.487Z" fill="#DCCFFF"/>
<path d="M664.212 297.417L680.028 928.081L676.092 928.16L664.212 297.417Z" fill="#DCCFFF"/>
<path d="M697.856 291.998L727.284 918.391L723.785 918.549L697.856 291.998Z" fill="#DCCFFF"/>
<path d="M731.501 284.141L774.216 904.291L771.163 904.502L731.501 284.141Z" fill="#DCCFFF"/>
<path d="M781.337 268.638L844.251 876.853L841.644 877.117L781.337 268.638Z" fill="#DCCFFF"/>
<path d="M831.164 249.241L913.691 843.549L911.521 843.848L831.164 249.241Z" fill="#DCCFFF"/>
<path d="M910.568 221.567L1024.18 795.338L1022.46 795.68L910.568 221.567Z" fill="#DCCFFF"/>
<path d="M991.66 202.495L1137.55 761.859L1136.28 762.192L991.66 202.495Z" fill="#DCCFFF"/>
<path d="M1074.76 191.095L1254.41 741.717L1253.58 741.989L1074.76 191.095Z" fill="#DCCFFF"/>
<path d="M1160.33 187.219L1375.59 734.851L1375.19 735.009L1160.33 187.219Z" fill="#DCCFFF"/>
<path d="M1553.93 734.982L1287.38 187.219L1554.13 734.886L1553.93 734.982Z" fill="#DCCFFF"/>
</g>
<defs>
<clipPath id="clip0_3584_11886">
<rect width="1280" height="526" fill="white"/>
</clipPath>
</defs>
</svg>
