<svg width="17" height="13" viewBox="0 0 17 13" fill="none" xmlns="http://www.w3.org/2000/svg">
<path d="M3.20456 4.33981L6.21356 3.88594V2.62324C6.21356 2.17332 6.57829 1.80859 7.02821 1.80859H9.59434C10.0443 1.80859 10.409 2.17332 10.409 2.62324V3.88594L13.418 4.33981C13.7911 4.3961 14.0768 4.70128 14.1083 5.07732L14.5915 10.8442C14.6314 11.3193 14.2565 11.7269 13.7797 11.7269H2.8428C2.36605 11.7269 1.99119 11.3193 2.031 10.8442L2.51426 5.07732C2.54577 4.70128 2.83141 4.3961 3.20456 4.33981Z" fill="white" stroke="#28293D" stroke-width="1.01831"/>
<path d="M9.36808 4.0314H7.25V2.95199C7.25 2.86201 7.32295 2.78906 7.41293 2.78906H9.20515C9.29514 2.78906 9.36808 2.86201 9.36808 2.95199V4.0314Z" fill="#28293D" stroke="#28293D" stroke-width="0.0407323"/>
</svg>
