<svg width="16" height="16" viewBox="0 0 16 16" fill="none" xmlns="http://www.w3.org/2000/svg">
<path d="M2.41574 5.6587C3.72908 -0.114634 12.2824 -0.107967 13.5891 5.66537C14.3557 9.05203 12.2491 11.9187 10.4024 13.692C9.06241 14.9854 6.94241 14.9854 5.59574 13.692C3.75574 11.9187 1.64908 9.04537 2.41574 5.6587Z" fill="white" stroke="#28293D"/>
<path d="M6.9302 7.30619C7.00835 6.99359 7.21919 6.73075 7.50739 6.58665C7.81813 6.43128 8.18389 6.43128 8.49463 6.58665C8.78283 6.73075 8.99367 6.99359 9.07182 7.30619L9.08781 7.37015C9.15139 7.62448 9.13321 7.89238 9.03585 8.13579L8.89577 8.486C8.77437 8.78949 8.5926 9.06515 8.36147 9.29628L8.27003 9.38772C8.12146 9.53629 7.88057 9.53629 7.73199 9.38772L7.64056 9.29628C7.40943 9.06515 7.22765 8.78949 7.10626 8.486L6.96617 8.13579C6.86881 7.89238 6.85063 7.62448 6.91421 7.37015L6.9302 7.30619Z" fill="#28293D"/>
</svg>
