<svg width="37" height="36" viewBox="0 0 37 36" fill="none" xmlns="http://www.w3.org/2000/svg">
<path d="M18.4991 6.97559C11.3291 6.97559 5.49414 12.8106 5.49414 19.9806C5.49414 27.1506 11.3291 33.0006 18.4991 33.0006C25.6691 33.0006 31.5041 27.1656 31.5041 19.9956C31.5041 12.8256 25.6691 6.97559 18.4991 6.97559Z" fill="#28293D"/>
<path d="M32.2976 11.8685L26.0299 5.87812C25.5962 5.46356 25.5808 4.78492 25.9954 4.35117C26.4099 3.91741 27.099 3.89122 27.5327 4.30578L33.8004 10.2962C34.2341 10.7107 34.2495 11.3894 33.8349 11.8231C33.4204 12.2569 32.7314 12.2831 32.2976 11.8685Z" fill="#28293D"/>
<path d="M10.7996 5.87834L4.53152 11.8683C4.09774 12.2828 3.41909 12.2674 3.00456 11.8336C2.59003 11.3999 2.59507 10.7104 3.02885 10.2958L9.29698 4.30589C9.73076 3.89136 10.4094 3.90676 10.8239 4.34054C11.2385 4.77432 11.2334 5.46381 10.7996 5.87834Z" fill="#28293D"/>
<path d="M18.4527 11.999H22.9527L19.2027 17.849H23L14.75 27.299L17.45 20.699H14L18.4527 11.999Z" fill="white"/>
</svg>
