<svg width="37" height="36" viewBox="0 0 37 36" fill="none" xmlns="http://www.w3.org/2000/svg">
<path d="M31.7459 12.015L21.9209 4.15503C20.0009 2.62503 17.0009 2.61003 15.0959 4.14003L5.27092 12.015C3.86092 13.14 3.00592 15.39 3.30592 17.16L5.19592 28.47C5.63092 31.005 7.98592 33 10.5509 33H26.4509C28.9859 33 31.3859 30.96 31.8209 28.455L33.7109 17.145C33.9809 15.39 33.1259 13.14 31.7459 12.015Z" fill="#28293D"/>
<path d="M18.5 28.125C17.885 28.125 17.375 27.615 17.375 27V22.5C17.375 21.885 17.885 21.375 18.5 21.375C19.115 21.375 19.625 21.885 19.625 22.5V27C19.625 27.615 19.115 28.125 18.5 28.125Z" fill="white"/>
</svg>
