<svg width="37" height="36" viewBox="0 0 37 36" fill="none" xmlns="http://www.w3.org/2000/svg">
<path d="M18.5 3C14.57 3 11.375 6.195 11.375 10.125C11.375 13.98 14.39 17.1 18.32 17.235C18.44 17.22 18.56 17.22 18.65 17.235C18.68 17.235 18.695 17.235 18.725 17.235C18.74 17.235 18.74 17.235 18.755 17.235C22.595 17.1 25.61 13.98 25.625 10.125C25.625 6.195 22.43 3 18.5 3Z" fill="#28293D"/>
<path d="M26.1214 21.2251C21.9364 18.4351 15.1114 18.4351 10.8964 21.2251C8.99141 22.5001 7.94141 24.2251 7.94141 26.0701C7.94141 27.9151 8.99141 29.6251 10.8814 30.8851C12.9814 32.2951 15.7414 33.0001 18.5014 33.0001C21.2614 33.0001 24.0214 32.2951 26.1214 30.8851C28.0114 29.6101 29.0614 27.9001 29.0614 26.0401C29.0464 24.1951 28.0114 22.4851 26.1214 21.2251Z" fill="#28293D"/>
</svg>
