<svg width="24" height="24" viewBox="0 0 24 24" fill="none" xmlns="http://www.w3.org/2000/svg">
<path d="M9.74633 8.50375L11.0754 8.30328V7.74556C11.0754 7.54684 11.2365 7.38574 11.4352 7.38574H12.5686C12.7673 7.38574 12.9284 7.54684 12.9284 7.74556V8.30328L14.2575 8.50375C14.4223 8.52861 14.5485 8.66341 14.5624 8.8295L14.7758 11.3767C14.7934 11.5865 14.6278 11.7666 14.4173 11.7666H9.58655C9.37597 11.7666 9.2104 11.5865 9.22798 11.3767L9.44143 8.8295C9.45535 8.66341 9.58152 8.52861 9.74633 8.50375Z" stroke="#C7C4FF" stroke-width="0.017991"/>
<path d="M12.4648 8.30956H11.5293V8.07568C11.5293 7.94651 11.634 7.8418 11.7632 7.8418H12.2309C12.3601 7.8418 12.4648 7.94651 12.4648 8.07568V8.30956Z" stroke="#C7C4FF" stroke-width="0.017991"/>
<g filter="url(#filter0_d_3972_13342)">
<path d="M2.4668 6.49775V3.17929C2.4668 3.04252 2.57767 2.93164 2.71444 2.93164H21.288C21.4247 2.93164 21.5356 3.04252 21.5356 3.17929V6.49775C21.5356 6.63453 21.4247 6.7454 21.288 6.7454H19.6287V11.5002C19.6287 14.3177 17.3447 16.6017 14.5272 16.6017H9.4752V22.0004C6.65771 22.0004 4.37368 19.7164 4.37368 16.8989V6.7454H2.71444C2.57767 6.7454 2.4668 6.63453 2.4668 6.49775Z" fill="#C7C4FF"/>
</g>
<path d="M8.89715 7.96473L10.7266 7.68878V6.92107C10.7266 6.64753 10.9483 6.42578 11.2219 6.42578H12.782C13.0556 6.42578 13.2773 6.64753 13.2773 6.92107V7.68878L15.1068 7.96473C15.3336 7.99895 15.5073 8.18449 15.5265 8.41312L15.8203 11.9193C15.8445 12.2082 15.6166 12.456 15.3267 12.456H8.67721C8.38735 12.456 8.15944 12.2082 8.18364 11.9193L8.47746 8.41312C8.49662 8.18449 8.67029 7.99895 8.89715 7.96473Z" fill="#3D4754"/>
<path d="M12.6471 7.77681H11.3594V7.12054C11.3594 7.06583 11.4037 7.02148 11.4584 7.02148H12.5481C12.6028 7.02148 12.6471 7.06583 12.6471 7.12054V7.77681Z" fill="#C7C4FF" stroke="#C7C4FF" stroke-width="0.0247647"/>
<path d="M15.1953 12.1482C15.2927 12.0184 15.3542 11.8653 15.3737 11.7042L15.443 11.1328L15.5182 12.0138C15.5243 12.0861 15.4673 12.1482 15.3948 12.1482H15.1953V12.1482Z" fill="#3D4754"/>
<path d="M8.77902 8.82265C8.85294 8.56394 9.02875 8.34634 9.26615 8.21973V8.21973L8.93092 8.27266C8.85161 8.28518 8.79128 8.35053 8.78512 8.43059L8.74609 8.9379L8.77902 8.82265Z" fill="#3D4754"/>
<path d="M5.29688 5.75781H6.86209L5.75565 6.26156L5.29688 6.45047V5.75781Z" fill="#C7C4FF"/>
<path d="M13.6836 15.2492C15.4136 15.0081 16.7882 13.6743 17.0813 11.9523L17.3178 10.5625L17.3668 11.501C17.4759 13.5888 15.773 15.3217 13.6836 15.2492V15.2492V15.2492Z" fill="#C7C4FF"/>
<defs>
<filter id="filter0_d_3972_13342" x="2.4668" y="2.93164" width="19.6627" height="19.6627" filterUnits="userSpaceOnUse" color-interpolation-filters="sRGB">
<feFlood flood-opacity="0" result="BackgroundImageFix"/>
<feColorMatrix in="SourceAlpha" type="matrix" values="0 0 0 0 0 0 0 0 0 0 0 0 0 0 0 0 0 0 127 0" result="hardAlpha"/>
<feOffset dx="0.594352" dy="0.594352"/>
<feComposite in2="hardAlpha" operator="out"/>
<feColorMatrix type="matrix" values="0 0 0 0 0.156863 0 0 0 0 0.152941 0 0 0 0 0.235294 0 0 0 1 0"/>
<feBlend mode="normal" in2="BackgroundImageFix" result="effect1_dropShadow_3972_13342"/>
<feBlend mode="normal" in="SourceGraphic" in2="effect1_dropShadow_3972_13342" result="shape"/>
</filter>
</defs>
</svg>
