<svg width="24" height="24" viewBox="0 0 24 24" fill="none" xmlns="http://www.w3.org/2000/svg">
<path d="M16.8203 2H7.18031C5.05031 2 3.32031 3.74 3.32031 5.86V19.95C3.32031 21.75 4.61031 22.51 6.19031 21.64L11.0703 18.93C11.5903 18.64 12.4303 18.64 12.9403 18.93L17.8203 21.64C19.4003 22.52 20.6903 21.76 20.6903 19.95V5.86C20.6803 3.74 18.9503 2 16.8203 2Z" fill="#C7C4FF"/>
<path d="M11.1537 12.935C10.9637 12.935 10.7737 12.865 10.6237 12.715L9.12375 11.215C8.83375 10.925 8.83375 10.445 9.12375 10.155C9.41375 9.865 9.89375 9.865 10.1837 10.155L11.1537 11.125L14.6238 7.655C14.9138 7.365 15.3937 7.365 15.6837 7.655C15.9737 7.945 15.9737 8.425 15.6837 8.715L11.6837 12.715C11.5337 12.865 11.3437 12.935 11.1537 12.935Z" fill="#817AFF"/>
</svg>
