<svg width="24" height="24" viewBox="0 0 24 24" fill="none" xmlns="http://www.w3.org/2000/svg">
<path d="M11.9981 4.65039C7.21812 4.65039 3.32812 8.54039 3.32812 13.3204C3.32812 18.1004 7.21812 22.0004 11.9981 22.0004C16.7781 22.0004 20.6681 18.1104 20.6681 13.3304C20.6681 8.55039 16.7781 4.65039 11.9981 4.65039Z" fill="#9C97FF"/>
<path d="M21.1971 7.91235L17.0186 3.91875C16.7295 3.64238 16.7192 3.18994 16.9956 2.90078C17.272 2.61161 17.7313 2.59415 18.0205 2.87052L22.199 6.86412C22.4881 7.14049 22.4984 7.59293 22.222 7.88209C21.9456 8.17126 21.4863 8.18872 21.1971 7.91235Z" fill="#9C97FF"/>
<path d="M6.86513 3.91889L2.68638 7.9122C2.39719 8.18855 1.94476 8.17828 1.66841 7.88909C1.39205 7.59991 1.39541 7.14025 1.6846 6.86389L5.86335 2.87059C6.15254 2.59424 6.60497 2.60451 6.88132 2.89369C7.15767 3.18288 7.15432 3.64254 6.86513 3.91889Z" fill="#9C97FF"/>
<path d="M11.9685 8H14.9685L12.4685 11.9H15L9.5 18.2L11.3 13.8H9L11.9685 8Z" fill="white"/>
</svg>
