<svg width="248" height="29" viewBox="0 0 248 29" fill="none" xmlns="http://www.w3.org/2000/svg">
<g clip-path="url(#clip0_429_4830)">
<g clip-path="url(#clip1_429_4830)">
<mask id="mask0_429_4830" style="mask-type:luminance" maskUnits="userSpaceOnUse" x="0" y="4" width="87" height="21">
<path d="M87 4.48999H0V24.49H87V4.48999Z" fill="white"/>
</mask>
<g mask="url(#mask0_429_4830)">
<path d="M0.515625 11.8747L8.35613 11.8762L13.1236 11.877V7.15601L0.515625 11.8747Z" fill="#201C2D"/>
<path d="M13.125 7.15603V23.8237L19.0796 4.92676L13.125 7.15603Z" fill="#201C2D"/>
<path d="M13.123 11.877L8.35547 11.8762L13.123 23.8237V11.877Z" fill="#201C2D"/>
<path d="M0.515625 11.8748L9.57871 14.9419L8.35613 11.8763L0.515625 11.8748Z" fill="#201C2D"/>
<path d="M29.3971 19.4361C29.3279 19.5052 29.2128 19.5914 29.0517 19.6949C28.8903 19.7986 28.6804 19.9021 28.4214 20.0058C28.1623 20.1092 27.8455 20.1983 27.4715 20.2733C27.0972 20.348 26.6685 20.3855 26.185 20.3855C25.2523 20.3855 24.4464 20.2358 23.7672 19.9367C23.0877 19.6377 22.5265 19.2202 22.0834 18.6853C21.6401 18.1501 21.315 17.5173 21.1077 16.7864C20.9005 16.0557 20.7969 15.2531 20.7969 14.3784C20.7969 13.504 20.9091 12.6954 21.1337 11.9531C21.3581 11.2108 21.6949 10.5695 22.1438 10.0284C22.5929 9.4877 23.1541 9.06472 23.8277 8.75966C24.5012 8.45495 25.2926 8.30225 26.2022 8.30225C26.6512 8.30225 27.0571 8.34265 27.4197 8.42306C27.7824 8.50365 28.0989 8.59867 28.3696 8.70789C28.64 8.8174 28.8645 8.93225 29.0431 9.05312C29.2215 9.17394 29.3567 9.27487 29.449 9.35517C29.5526 9.44746 29.6417 9.55668 29.7167 9.68313C29.7914 9.80991 29.8289 9.94801 29.8289 10.0975C29.8289 10.3278 29.7425 10.5578 29.5699 10.7879C29.3972 11.0183 29.2072 11.2311 28.9999 11.4266C28.8617 11.2885 28.7064 11.1478 28.5337 11.0038C28.361 10.8599 28.1681 10.7335 27.9551 10.624C27.742 10.5148 27.5002 10.4228 27.2298 10.3478C26.9592 10.2731 26.657 10.2356 26.3232 10.2356C25.736 10.2356 25.2439 10.3537 24.8466 10.5894C24.4495 10.8254 24.1299 11.1332 23.8882 11.5129C23.6464 11.8927 23.4737 12.3272 23.3701 12.8162C23.2665 13.3054 23.2147 13.8031 23.2147 14.3094C23.2147 14.8504 23.2665 15.3682 23.3701 15.8629C23.4737 16.3577 23.652 16.7951 23.9055 17.1748C24.1585 17.5545 24.4896 17.8595 24.8984 18.0896C25.3069 18.32 25.8164 18.4349 26.4268 18.4349C26.7489 18.4349 27.0455 18.3947 27.3162 18.3141C27.5865 18.2336 27.8256 18.1357 28.0328 18.0205C28.24 17.9057 28.4214 17.7849 28.5768 17.6582C28.7322 17.5316 28.8617 17.4224 28.9654 17.3301C29.0345 17.4108 29.1149 17.5087 29.2071 17.6236C29.2999 17.7398 29.3864 17.8608 29.4662 17.9862C29.5466 18.1129 29.6157 18.2394 29.6734 18.3658C29.7309 18.4926 29.7597 18.6075 29.7597 18.7109C29.7597 18.8607 29.7309 18.9872 29.6734 19.0908C29.6156 19.1944 29.5236 19.3096 29.3971 19.4361ZM38.2968 18.1122C38.2968 19.0268 38.4298 19.6926 38.6963 20.1093C38.4879 20.1902 38.2938 20.2482 38.1143 20.2829C37.9346 20.3177 37.7465 20.335 37.5497 20.335C37.1328 20.335 36.817 20.2539 36.6029 20.0919C36.3885 19.93 36.2524 19.6984 36.1946 19.3972C35.9397 19.6638 35.6038 19.8894 35.1869 20.0747C34.77 20.2596 34.2602 20.3525 33.6581 20.3525C33.3453 20.3525 33.0326 20.3091 32.7199 20.2228C32.4071 20.1359 32.1233 19.9948 31.8685 19.7988C31.6136 19.6025 31.4052 19.3399 31.2431 19.011C31.0808 18.682 30.9999 18.2811 30.9999 17.808C30.9999 17.2194 31.1416 16.7404 31.4255 16.3712C31.7093 16.0018 32.0654 15.7104 32.4941 15.4969C32.9224 15.2835 33.3858 15.1367 33.884 15.0557C34.3818 14.9748 34.8395 14.923 35.2564 14.8997C35.3955 14.8883 35.5315 14.8823 35.6647 14.8823H36.0383V14.5662C36.0383 14.1212 35.9194 13.8051 35.6821 13.6179C35.4445 13.4306 35.0593 13.3367 34.5267 13.3367C34.0286 13.3367 33.5856 13.4179 33.1977 13.5798C32.8095 13.7421 32.4302 13.9272 32.0597 14.1356C31.8973 13.9388 31.767 13.7218 31.6688 13.4844C31.5703 13.2472 31.5211 13.0706 31.5211 12.9547C31.5211 12.7927 31.6107 12.6364 31.7904 12.4858C31.9698 12.3355 32.2161 12.1993 32.5288 12.0777C32.8416 11.9562 33.2004 11.858 33.606 11.7825C34.0113 11.7073 34.4399 11.6697 34.8917 11.6697C35.5171 11.6697 36.047 11.7334 36.4813 11.8607C36.9156 11.9882 37.2688 12.1849 37.5411 12.4511C37.8131 12.7176 38.0072 13.0502 38.1231 13.4496C38.2387 13.8491 38.2968 14.3152 38.2968 14.8476V18.1122ZM36.0729 16.0978H35.8297C35.7485 16.0978 35.6673 16.1039 35.5865 16.1153C35.2968 16.1386 35.0101 16.1733 34.7265 16.2193C34.4426 16.2658 34.1906 16.3468 33.9708 16.4625C33.7506 16.5784 33.5712 16.729 33.4322 16.914C33.2932 17.0993 33.2237 17.3368 33.2237 17.6261C33.2237 17.9503 33.3163 18.2251 33.5016 18.4509C33.6868 18.6767 33.9995 18.7896 34.4398 18.7896C34.6597 18.7896 34.8683 18.7608 35.0653 18.7026C35.2621 18.645 35.4358 18.5697 35.5865 18.477C35.7369 18.3844 35.8558 18.2832 35.9427 18.173C36.0295 18.0631 36.0729 17.9619 36.0729 17.8692V16.0978ZM42.6225 12.6768C42.8071 12.457 43.096 12.234 43.4885 12.0082C43.881 11.7824 44.3775 11.6695 44.978 11.6695C45.4053 11.6695 45.8122 11.7419 46.1992 11.8866C46.5857 12.0315 46.9293 12.266 47.2295 12.5899C47.5298 12.9142 47.7693 13.3426 47.9484 13.875C48.1274 14.4077 48.2169 15.0619 48.2169 15.8373C48.2169 16.7403 48.1129 17.4843 47.9051 18.0688C47.6971 18.6537 47.4289 19.1168 47.1 19.4582C46.7709 19.7997 46.4041 20.0399 46.0002 20.1788C45.596 20.3177 45.1918 20.3873 44.7878 20.3873C44.4529 20.3873 44.1612 20.3496 43.9132 20.2744C43.6648 20.199 43.4541 20.1153 43.2809 20.0225C43.1078 19.93 42.9751 19.8375 42.8828 19.7447C42.7904 19.6521 42.7326 19.5883 42.7096 19.5535V23.8224H40.3467V11.9126C40.4048 11.9013 40.4749 11.8896 40.5568 11.878C40.6269 11.8666 40.7086 11.8578 40.802 11.8519C40.8953 11.8462 41.0062 11.8432 41.1345 11.8432C41.5194 11.8432 41.8463 11.907 42.1147 12.0343C42.3831 12.1618 42.5525 12.3758 42.6225 12.6768ZM45.7498 15.8894C45.7498 15.5421 45.721 15.2181 45.6635 14.917C45.6059 14.6161 45.5109 14.3555 45.3785 14.1355C45.246 13.9157 45.0673 13.7448 44.8428 13.6231C44.618 13.5016 44.3447 13.4409 44.0224 13.4409C43.5388 13.4409 43.2019 13.5337 43.0118 13.7187C42.8218 13.904 42.7268 14.1068 42.7268 14.3266V18.0081C42.8188 18.1009 42.9827 18.2107 43.2189 18.3381C43.4551 18.4655 43.7284 18.529 44.0395 18.529C44.627 18.529 45.0588 18.2976 45.3353 17.8344C45.6117 17.3715 45.7498 16.723 45.7498 15.8894ZM50.0406 18.8764C49.9594 18.645 49.9073 18.4017 49.8842 18.147C49.8609 17.8924 49.8494 17.6378 49.8494 17.3828V9.32514C49.9304 9.31377 50.0172 9.30212 50.11 9.29041C50.1908 9.27905 50.2778 9.27041 50.3706 9.26438C50.4632 9.2587 50.5558 9.25574 50.6485 9.25574C50.8337 9.25574 51.0192 9.27313 51.2046 9.3078C51.3896 9.34259 51.5577 9.41204 51.7085 9.51616C51.8589 9.62034 51.9804 9.76232 52.0732 9.94163C52.1659 10.1212 52.2122 10.3557 52.2122 10.6449V11.8778H54.6446V13.6319H52.2122V17.3351C52.2122 18.1427 52.5423 18.5464 53.2025 18.5464C53.3647 18.5464 53.518 18.5204 53.663 18.4682C53.8077 18.4161 53.9379 18.3583 54.0539 18.2946C54.1696 18.231 54.271 18.1644 54.3579 18.0949C54.4448 18.0254 54.5056 17.9734 54.5403 17.9387C54.714 18.1935 54.847 18.4141 54.9399 18.6003C55.0324 18.7867 55.0788 18.9616 55.0788 19.125C55.0788 19.2771 55.0182 19.4262 54.8964 19.5721C54.7747 19.7181 54.6038 19.8527 54.3838 19.9754C54.1638 20.098 53.8975 20.1973 53.5847 20.2733C53.272 20.3493 52.9302 20.3873 52.5597 20.3873C51.8413 20.3873 51.2826 20.2483 50.8831 19.9705C50.4835 19.6926 50.2025 19.3278 50.0406 18.8764ZM60.6288 18.6506C60.9193 18.6506 61.175 18.6189 61.396 18.555C61.6167 18.4916 61.8143 18.4134 61.9887 18.3208C62.1629 18.2283 62.3142 18.1269 62.4421 18.0169C62.5698 17.907 62.686 17.8057 62.7909 17.7129C62.9301 17.8864 63.0754 18.1095 63.2266 18.3814C63.3776 18.6537 63.4532 18.8764 63.4532 19.05C63.4532 19.3048 63.3083 19.5363 63.019 19.7447C62.7757 19.93 62.4309 20.0892 61.9853 20.2221C61.5392 20.3552 61.015 20.4219 60.4129 20.4219C59.8683 20.4219 59.3327 20.3525 58.8059 20.2135C58.2788 20.0747 57.8095 19.8315 57.3986 19.4841C56.9873 19.1369 56.6542 18.671 56.3995 18.0863C56.1447 17.5017 56.0173 16.7638 56.0173 15.8721C56.0173 15.1427 56.1303 14.5149 56.356 13.9879C56.582 13.4612 56.883 13.0242 57.2597 12.6768C57.6358 12.3295 58.0615 12.075 58.5365 11.9127C59.0113 11.7508 59.4979 11.6696 59.996 11.6696C60.6445 11.6696 61.1947 11.7711 61.6464 11.9735C62.0982 12.1762 62.4657 12.4483 62.7496 12.7897C63.0333 13.1312 63.2388 13.522 63.3664 13.9619C63.4936 14.402 63.5575 14.8649 63.5575 15.3511V15.5942C63.5575 15.6871 63.5545 15.7852 63.5488 15.8894C63.5428 15.9937 63.5372 16.0952 63.5315 16.1933C63.5254 16.2919 63.5167 16.37 63.5055 16.4278H58.3801C58.4266 17.0646 58.6242 17.5942 58.9728 18.0169C59.3212 18.4396 59.8733 18.6506 60.6288 18.6506ZM61.4205 15.1253C61.4205 14.5696 61.3126 14.1181 61.0972 13.7708C60.8816 13.4235 60.4941 13.2498 59.9353 13.2498C59.4574 13.2498 59.076 13.4148 58.7907 13.7448C58.5051 14.0748 58.3627 14.5349 58.3627 15.1253H61.4205ZM67.6693 12.7207C67.7387 12.6174 67.8313 12.5026 67.9472 12.3761C68.0629 12.2497 68.2049 12.1348 68.3729 12.0315C68.5407 11.9282 68.7261 11.8418 68.9289 11.773C69.1313 11.704 69.3486 11.6696 69.5805 11.6696C69.7194 11.6696 69.8671 11.6812 70.0234 11.704C70.1798 11.7271 70.3244 11.7702 70.4577 11.8332C70.5908 11.8964 70.6981 11.9824 70.7792 12.0915C70.8601 12.2006 70.9008 12.3355 70.9008 12.4961C70.9008 12.7487 70.8369 13.0388 70.7097 13.3663C70.5821 13.6941 70.4549 13.9736 70.3275 14.205C70.1304 14.043 69.9335 13.9185 69.7367 13.8317C69.5397 13.7449 69.308 13.7014 69.0418 13.7014C68.6827 13.7014 68.3816 13.8059 68.1385 14.0148C67.895 14.2238 67.7735 14.4734 67.7735 14.7637V20.3853H65.4108V11.9126C65.4686 11.9013 65.538 11.8896 65.6192 11.878C65.6887 11.8666 65.7697 11.8578 65.8624 11.8519C65.9551 11.8462 66.065 11.8432 66.1925 11.8432C66.5631 11.8432 66.8845 11.9151 67.1568 12.0584C67.4287 12.2016 67.5998 12.4225 67.6693 12.7207ZM74.387 12.7207C74.4565 12.6174 74.5491 12.5026 74.665 12.3761C74.7807 12.2497 74.9227 12.1348 75.0907 12.0315C75.2585 11.9282 75.4438 11.8418 75.6466 11.773C75.8492 11.704 76.0663 11.6696 76.2981 11.6696C76.4371 11.6696 76.5847 11.6812 76.7411 11.704C76.8974 11.7271 77.0422 11.7702 77.1755 11.8332C77.3086 11.8964 77.4156 11.9824 77.497 12.0915C77.5779 12.2006 77.6186 12.3355 77.6186 12.4961C77.6186 12.7487 77.5547 13.0388 77.4275 13.3663C77.2997 13.6941 77.1725 13.9736 77.0452 14.205C76.8482 14.043 76.6512 13.9185 76.4545 13.8317C76.2575 13.7449 76.0258 13.7014 75.7596 13.7014C75.4005 13.7014 75.0993 13.8059 74.8562 14.0148C74.6129 14.2238 74.4913 14.4734 74.4913 14.7637V20.3853H72.1285V11.9126C72.1864 11.9013 72.2558 11.8896 72.337 11.878C72.4065 11.8666 72.4875 11.8578 72.5802 11.8519C72.6728 11.8462 72.7827 11.8432 72.9102 11.8432C73.2809 11.8432 73.6023 11.9151 73.8744 12.0584C74.1465 12.2016 74.3174 12.4225 74.387 12.7207ZM85.6626 18.1122C85.6626 19.0268 85.7957 19.6926 86.0622 20.1093C85.8537 20.1902 85.6596 20.2482 85.4802 20.2829C85.3006 20.3177 85.1124 20.335 84.9156 20.335C84.4985 20.335 84.1829 20.2539 83.9688 20.0919C83.7542 19.93 83.6183 19.6984 83.5604 19.3972C83.3056 19.6638 82.9697 19.8894 82.5527 20.0747C82.1358 20.2596 81.626 20.3525 81.0239 20.3525C80.7111 20.3525 80.3985 20.3091 80.0857 20.2228C79.773 20.1359 79.489 19.9948 79.2344 19.7988C78.9795 19.6025 78.771 19.3399 78.6089 19.011C78.4466 18.682 78.3658 18.2811 78.3658 17.808C78.3658 17.2194 78.5074 16.7404 78.7914 16.3712C79.0751 16.0018 79.4313 15.7104 79.8599 15.4969C80.2883 15.2835 80.7516 15.1367 81.2498 15.0557C81.7476 14.9748 82.2053 14.923 82.6223 14.8997C82.7613 14.8883 82.8973 14.8823 83.0307 14.8823H83.4041V14.5662C83.4041 14.1212 83.2852 13.8051 83.0479 13.6179C82.8103 13.4306 82.4252 13.3367 81.8925 13.3367C81.3945 13.3367 80.9515 13.4179 80.5635 13.5798C80.1753 13.7421 79.7961 13.9272 79.4255 14.1356C79.2633 13.9388 79.1328 13.7218 79.0346 13.4844C78.9362 13.2472 78.887 13.0706 78.887 12.9547C78.887 12.7927 78.9765 12.6364 79.1563 12.4858C79.3357 12.3355 79.5819 12.1993 79.8946 12.0777C80.2074 11.9562 80.5663 11.858 80.9717 11.7825C81.3771 11.7073 81.8057 11.6697 82.2574 11.6697C82.8828 11.6697 83.4128 11.7334 83.8471 11.8607C84.2814 11.9882 84.6346 12.1849 84.9069 12.4511C85.1789 12.7176 85.3729 13.0502 85.4889 13.4496C85.6045 13.8491 85.6626 14.3152 85.6626 14.8476V18.1122ZM83.4388 16.0978H83.1956C83.1144 16.0978 83.0332 16.1039 82.9524 16.1153C82.6628 16.1386 82.376 16.1733 82.0923 16.2193C81.8084 16.2658 81.5565 16.3468 81.3366 16.4625C81.1165 16.5784 80.937 16.729 80.798 16.914C80.6591 17.0993 80.5895 17.3368 80.5895 17.6261C80.5895 17.9503 80.6821 18.2251 80.8675 18.4509C81.0526 18.6767 81.3655 18.7896 81.8057 18.7896C82.0256 18.7896 82.2342 18.7608 82.4312 18.7026C82.628 18.645 82.8017 18.5697 82.9524 18.477C83.1026 18.3844 83.2217 18.2832 83.3085 18.173C83.3954 18.0631 83.4388 17.9619 83.4388 17.8692V16.0978Z" fill="#201C2D"/>
</g>
</g>
</g>
<g clip-path="url(#clip2_429_4830)">
<g clip-path="url(#clip3_429_4830)">
<g clip-path="url(#clip4_429_4830)">
<mask id="mask1_429_4830" style="mask-type:luminance" maskUnits="userSpaceOnUse" x="103" y="-1" width="28" height="30">
<path d="M131 -0.0100098H103V28.99H131V-0.0100098Z" fill="white"/>
</mask>
<g mask="url(#mask1_429_4830)">
<path d="M117.507 28.808C111.178 28.7908 105.664 24.7616 103.865 18.7518C102.363 13.716 103.337 9.11318 106.716 5.0907C108.793 2.6188 111.472 1.10366 114.621 0.45528C116.383 0.0931812 118.197 0.0782206 119.964 0.411225C120.162 0.447619 120.164 0.501252 120.087 0.662151C119.218 2.48567 118.353 4.31175 117.492 6.14038C117.47 6.19756 117.431 6.24598 117.379 6.27805C117.328 6.31012 117.267 6.32401 117.207 6.31756C115.396 6.36422 113.653 7.01988 112.254 8.18021C110.856 9.34055 109.883 10.9389 109.49 12.721C108.622 16.6161 110.713 20.6452 114.401 22.0732C117.329 23.2062 120.054 22.7551 122.532 20.8186C122.658 20.7228 122.71 20.7037 122.801 20.8617C123.751 22.5377 124.709 24.2106 125.676 25.8802C125.761 26.0267 125.73 26.0928 125.605 26.1809C123.738 27.512 121.579 28.3665 119.312 28.671C118.713 28.7489 118.111 28.7946 117.507 28.808Z" fill="#201C2D"/>
<path d="M127.339 24.6608C127.262 24.6187 127.24 24.5325 127.2 24.4626C126.119 22.5791 125.042 20.6936 123.969 18.8062C123.932 18.7289 123.873 18.665 123.799 18.6234C123.724 18.5819 123.639 18.5648 123.555 18.5745C121.409 18.5812 119.264 18.5745 117.119 18.5745H116.852C116.85 18.4914 116.88 18.4108 116.935 18.3494C118.025 16.4416 119.115 14.5338 120.206 12.626C120.235 12.5629 120.283 12.5105 120.343 12.4761C120.403 12.4418 120.472 12.4272 120.54 12.4344C122.737 12.4402 124.932 12.4402 127.128 12.4344C127.196 12.4272 127.265 12.4419 127.324 12.4763C127.384 12.5106 127.431 12.563 127.459 12.626C128.554 14.5497 129.655 16.471 130.76 18.3896C130.797 18.4388 130.818 18.4983 130.82 18.56C130.821 18.6216 130.804 18.6823 130.77 18.7334C129.659 20.6661 128.553 22.5969 127.451 24.5258C127.421 24.5746 127.408 24.6417 127.339 24.6608Z" fill="#201C2D"/>
<path d="M122.713 4.40114C122.32 4.00464 121.953 3.62538 121.573 3.25187C121.455 3.13694 121.538 3.0517 121.588 2.96455C122.023 2.20121 122.731 1.63446 123.567 1.38046C124.074 1.21191 124.61 1.15211 125.141 1.20489C125.672 1.25767 126.186 1.42187 126.651 1.68693C128.361 2.6188 128.208 4.78041 127.221 5.75729C126.847 6.12057 126.423 6.42793 125.962 6.67001C125.487 6.92477 125.012 7.16516 124.546 7.4362C124.159 7.65935 123.858 7.96774 123.718 8.41404C123.661 8.59409 123.696 8.64102 123.887 8.63911C125.143 8.63145 126.4 8.63911 127.657 8.63145C127.847 8.63145 127.918 8.66784 127.911 8.87663C127.894 9.32389 127.9 9.77211 127.911 10.2175C127.911 10.3592 127.872 10.409 127.727 10.409C125.707 10.4052 123.688 10.4052 121.669 10.409C121.574 10.409 121.485 10.409 121.484 10.2701C121.484 8.86034 121.743 7.54729 122.837 6.54168C123.359 6.07628 123.944 5.68919 124.575 5.3924C124.921 5.22192 125.271 5.05911 125.573 4.81201C125.837 4.59556 126.02 4.33315 126.039 3.97878C126.067 3.42426 125.632 3.01243 124.975 2.96933C124.029 2.90134 123.347 3.3304 122.87 4.12723C122.822 4.20577 122.779 4.28622 122.713 4.40114Z" fill="#201C2D"/>
<path d="M127.531 26.6683V26.2076H127.367V26.1118H127.805V26.2076H127.64V26.6683H127.531ZM127.876 26.6683V26.1137H128.042L128.137 26.492L128.232 26.1137H128.399V26.6683H128.305V26.2315L128.196 26.6683H128.088L127.98 26.2315V26.6683H127.876Z" fill="#201C2D"/>
</g>
</g>
</g>
</g>
<g clip-path="url(#clip5_429_4830)">
<g clip-path="url(#clip6_429_4830)">
<g clip-path="url(#clip7_429_4830)">
<mask id="mask2_429_4830" style="mask-type:luminance" maskUnits="userSpaceOnUse" x="147" y="2" width="100" height="25">
<path d="M247 2.48999H147V26.49H247V2.48999Z" fill="white"/>
</mask>
<g mask="url(#mask2_429_4830)">
<path d="M170.392 14.3842C170.392 20.9529 165.155 26.2785 158.696 26.2785C152.236 26.2785 147 20.9529 147 14.3842C147 7.81474 152.236 2.48999 158.696 2.48999C165.155 2.48999 170.392 7.81514 170.392 14.3842Z" fill="#201C2D"/>
<path d="M160.254 14.3841H156.941V10.8159H160.254C160.485 10.8159 160.713 10.862 160.926 10.9517C161.139 11.0413 161.332 11.1728 161.495 11.3384C161.658 11.5041 161.787 11.7008 161.875 11.9172C161.963 12.1337 162.009 12.3657 162.009 12.6C162.009 12.8343 161.963 13.0663 161.875 13.2828C161.787 13.4992 161.658 13.6959 161.495 13.8616C161.332 14.0273 161.139 14.1587 160.926 14.2483C160.713 14.338 160.485 14.3841 160.254 14.3841ZM160.254 8.43701H154.602V20.3313H156.941V16.763H160.254C162.515 16.763 164.348 14.8991 164.348 12.6C164.348 10.3009 162.515 8.43701 160.254 8.43701Z" fill="#FEFDE6"/>
<path d="M182.679 12.9305C182.679 12.276 182.185 11.8794 181.542 11.8794H179.82V13.9694H181.543C182.185 13.9694 182.679 13.5728 182.679 12.9305ZM178.189 18.3488V10.4194H181.771C183.437 10.4194 184.343 11.5641 184.343 12.9305C184.343 14.2851 183.425 15.4293 181.771 15.4293H179.82V18.3488H178.189ZM185.336 18.3488V12.5681H186.793V13.3271C187.195 12.8365 187.873 12.4281 188.563 12.4281V13.8758C188.459 13.8527 188.333 13.8413 188.161 13.8413C187.678 13.8413 187.035 14.1211 186.793 14.484V18.3488H185.336ZM193.468 15.3826C193.468 14.5068 192.962 13.7477 192.043 13.7477C191.136 13.7477 190.631 14.5068 190.631 15.383C190.631 16.2702 191.136 17.0292 192.043 17.0292C192.962 17.0292 193.468 16.2702 193.468 15.3826ZM189.115 15.3826C189.115 13.7831 190.217 12.4281 192.043 12.4281C193.881 12.4281 194.983 13.7827 194.983 15.3826C194.983 16.9824 193.881 18.3488 192.043 18.3488C190.217 18.3488 189.115 16.9824 189.115 15.3826ZM199.891 16.3869V14.39C199.649 14.0158 199.121 13.7477 198.639 13.7477C197.801 13.7477 197.227 14.4132 197.227 15.383C197.227 16.3633 197.801 17.0292 198.639 17.0292C199.121 17.0292 199.649 16.7611 199.891 16.3869ZM199.891 18.3488V17.4848C199.454 18.0449 198.857 18.3488 198.179 18.3488C196.79 18.3488 195.722 17.2749 195.722 15.3826C195.722 13.5496 196.767 12.4281 198.179 12.4281C198.834 12.4281 199.454 12.7088 199.891 13.2921V10.4194H201.36V18.3488H199.891ZM206.555 18.3488V17.4962C206.176 17.9168 205.51 18.3488 204.603 18.3488C203.386 18.3488 202.812 17.6715 202.812 16.5736V12.5681H204.269V15.9899C204.269 16.7725 204.671 17.0292 205.291 17.0292C205.854 17.0292 206.302 16.714 206.555 16.3865V12.5681H208.013V18.3488H206.555ZM209.108 15.3826C209.108 13.6546 210.348 12.4281 212.048 12.4281C213.185 12.4281 213.874 12.9305 214.241 13.4443L213.288 14.3546C213.024 13.9576 212.622 13.7477 212.117 13.7477C211.233 13.7477 210.613 14.4018 210.613 15.383C210.613 16.3633 211.233 17.0292 212.117 17.0292C212.622 17.0292 213.024 16.7957 213.288 16.4101L214.241 17.3213C213.874 17.835 213.185 18.3488 212.048 18.3488C210.348 18.3488 209.108 17.1228 209.108 15.3826ZM215.495 16.7957V13.8645H214.577V12.5681H215.495V11.0264H216.954V12.5681H218.079V13.8645H216.954V16.3987C216.954 16.7607 217.137 17.0292 217.459 17.0292C217.677 17.0292 217.885 16.9474 217.964 16.8543L218.275 17.9864C218.057 18.1857 217.666 18.3488 217.057 18.3488C216.035 18.3488 215.495 17.8118 215.495 16.7957ZM227.42 18.3488V14.927H223.803V18.3488H222.173V10.4194H223.803V13.4788H227.42V10.4198H229.062V18.3488H227.42ZM234.281 18.3488V17.4962C233.902 17.9168 233.236 18.3488 232.329 18.3488C231.112 18.3488 230.538 17.6715 230.538 16.5736V12.5681H231.995V15.9899C231.995 16.7725 232.397 17.0292 233.018 17.0292C233.58 17.0292 234.029 16.714 234.281 16.3865V12.5681H235.739V18.3488H234.281ZM240.932 18.3488V14.7992C240.932 14.0166 240.531 13.7481 239.911 13.7481C239.337 13.7481 238.901 14.0752 238.647 14.4022V18.3492H237.19V12.5681H238.647V13.2921C239.004 12.8719 239.693 12.4281 240.588 12.4281C241.817 12.4281 242.403 13.1286 242.403 14.2261V18.3488H240.932ZM244.14 16.7957V13.8645H243.223V12.5681H244.141V11.0264H245.599V12.5681H246.724V13.8645H245.599V16.3987C245.599 16.7607 245.783 17.0292 246.104 17.0292C246.322 17.0292 246.53 16.9474 246.61 16.8543L246.919 17.9864C246.702 18.1857 246.311 18.3488 245.702 18.3488C244.68 18.3488 244.14 17.8118 244.14 16.7957Z" fill="#201C2D"/>
</g>
</g>
</g>
</g>
<defs>
<clipPath id="clip0_429_4830">
<rect width="87" height="21" fill="white" transform="translate(0 3.98999)"/>
</clipPath>
<clipPath id="clip1_429_4830">
<rect width="87" height="21" fill="white" transform="translate(0 3.98999)"/>
</clipPath>
<clipPath id="clip2_429_4830">
<rect width="28" height="29" fill="white" transform="translate(103 -0.0100098)"/>
</clipPath>
<clipPath id="clip3_429_4830">
<rect width="28" height="29" fill="white" transform="translate(103 -0.0100098)"/>
</clipPath>
<clipPath id="clip4_429_4830">
<rect width="28" height="29" fill="white" transform="translate(103 -0.0100098)"/>
</clipPath>
<clipPath id="clip5_429_4830">
<rect width="100" height="25" fill="white" transform="translate(147 1.98999)"/>
</clipPath>
<clipPath id="clip6_429_4830">
<rect width="100" height="25" fill="white" transform="translate(147 1.98999)"/>
</clipPath>
<clipPath id="clip7_429_4830">
<rect width="100" height="25" fill="white" transform="translate(147 1.98999)"/>
</clipPath>
</defs>
</svg>
