<svg width="663" height="337" viewBox="0 0 663 337" fill="none" xmlns="http://www.w3.org/2000/svg">
<g filter="url(#filter0_d_437_10452)">
<rect x="97.5664" y="38" width="507" height="294" rx="16" fill="white"/>
<rect x="99.5664" y="40" width="503" height="290" rx="14" stroke="black" stroke-width="4"/>
</g>
<g clip-path="url(#clip0_437_10452)">
<g filter="url(#filter1_d_437_10452)">
<rect x="121.566" y="16" width="97" height="44" rx="16" fill="#C5C2F2" shape-rendering="crispEdges"/>
<rect x="122.566" y="17" width="95" height="42" rx="15" stroke="black" stroke-width="2" shape-rendering="crispEdges"/>
<path d="M153.345 43.2222L148.9 38.7778L150.456 37.2222L153.345 40.1111L160.678 32.7778L162.234 34.3333L153.345 43.2222Z" fill="#28273C"/>
<path d="M177.75 43.5H176.272L180.545 31.8636H182L186.272 43.5H184.795L181.318 33.7045H181.227L177.75 43.5ZM178.295 38.9545H184.25V40.2045H178.295V38.9545ZM189.244 31.8636V43.5H187.903V31.8636H189.244ZM193.041 31.8636V43.5H191.7V31.8636H193.041Z" fill="black"/>
</g>
<g filter="url(#filter2_d_437_10452)">
<path d="M234.566 32C234.566 23.1634 241.73 16 250.566 16H329.566C338.403 16 345.566 23.1634 345.566 32V44C345.566 52.8366 338.403 60 329.566 60H250.566C241.73 60 234.566 52.8366 234.566 44V32Z" fill="white" shape-rendering="crispEdges"/>
<path d="M250.566 17H329.566C337.851 17 344.566 23.7157 344.566 32V44C344.566 52.2843 337.851 59 329.566 59H250.566C242.282 59 235.566 52.2843 235.566 44V32C235.566 23.7157 242.282 17 250.566 17Z" stroke="black" stroke-width="2" shape-rendering="crispEdges"/>
<path d="M260.077 43.5V31.8636H264.009C264.918 31.8636 265.664 32.0189 266.248 32.3295C266.831 32.6364 267.263 33.0587 267.543 33.5966C267.823 34.1345 267.963 34.7462 267.963 35.4318C267.963 36.1174 267.823 36.7254 267.543 37.2557C267.263 37.786 266.833 38.2027 266.253 38.5057C265.674 38.8049 264.933 38.9545 264.032 38.9545H260.85V37.6818H263.986C264.607 37.6818 265.107 37.5909 265.486 37.4091C265.869 37.2273 266.145 36.9697 266.316 36.6364C266.49 36.2992 266.577 35.8977 266.577 35.4318C266.577 34.9659 266.49 34.5587 266.316 34.2102C266.141 33.8617 265.863 33.5928 265.48 33.4034C265.098 33.2102 264.592 33.1136 263.963 33.1136H261.486V43.5H260.077ZM265.554 38.2727L268.418 43.5H266.782L263.963 38.2727H265.554ZM273.581 43.6818C272.793 43.6818 272.102 43.4943 271.507 43.1193C270.917 42.7443 270.454 42.2197 270.121 41.5455C269.792 40.8712 269.627 40.0833 269.627 39.1818C269.627 38.2727 269.792 37.4792 270.121 36.8011C270.454 36.1231 270.917 35.5966 271.507 35.2216C272.102 34.8466 272.793 34.6591 273.581 34.6591C274.369 34.6591 275.059 34.8466 275.65 35.2216C276.244 35.5966 276.706 36.1231 277.036 36.8011C277.369 37.4792 277.536 38.2727 277.536 39.1818C277.536 40.0833 277.369 40.8712 277.036 41.5455C276.706 42.2197 276.244 42.7443 275.65 43.1193C275.059 43.4943 274.369 43.6818 273.581 43.6818ZM273.581 42.4773C274.18 42.4773 274.672 42.3239 275.059 42.017C275.445 41.7102 275.731 41.3068 275.917 40.8068C276.102 40.3068 276.195 39.7652 276.195 39.1818C276.195 38.5985 276.102 38.0549 275.917 37.5511C275.731 37.0473 275.445 36.6402 275.059 36.3295C274.672 36.0189 274.18 35.8636 273.581 35.8636C272.983 35.8636 272.49 36.0189 272.104 36.3295C271.718 36.6402 271.432 37.0473 271.246 37.5511C271.06 38.0549 270.968 38.5985 270.968 39.1818C270.968 39.7652 271.06 40.3068 271.246 40.8068C271.432 41.3068 271.718 41.7102 272.104 42.017C272.49 42.3239 272.983 42.4773 273.581 42.4773ZM280.924 31.8636V43.5H279.583V31.8636H280.924ZM287.039 43.6818C286.198 43.6818 285.472 43.4962 284.863 43.125C284.257 42.75 283.789 42.2273 283.459 41.5568C283.133 40.8826 282.971 40.0985 282.971 39.2045C282.971 38.3106 283.133 37.5227 283.459 36.8409C283.789 36.1553 284.247 35.6212 284.834 35.2386C285.425 34.8523 286.114 34.6591 286.902 34.6591C287.357 34.6591 287.806 34.7348 288.249 34.8864C288.692 35.0379 289.096 35.2841 289.459 35.625C289.823 35.9621 290.113 36.4091 290.328 36.9659C290.544 37.5227 290.652 38.2083 290.652 39.0227V39.5909H283.925V38.4318H289.289C289.289 37.9394 289.19 37.5 288.993 37.1136C288.8 36.7273 288.524 36.4223 288.164 36.1989C287.808 35.9754 287.387 35.8636 286.902 35.8636C286.368 35.8636 285.906 35.9962 285.516 36.2614C285.13 36.5227 284.832 36.8636 284.624 37.2841C284.416 37.7045 284.311 38.1553 284.311 38.6364V39.4091C284.311 40.0682 284.425 40.6269 284.652 41.0852C284.883 41.5398 285.203 41.8864 285.613 42.125C286.022 42.3598 286.497 42.4773 287.039 42.4773C287.391 42.4773 287.709 42.428 287.993 42.3295C288.281 42.2273 288.529 42.0758 288.738 41.875C288.946 41.6705 289.107 41.4167 289.221 41.1136L290.516 41.4773C290.38 41.9167 290.15 42.303 289.828 42.6364C289.507 42.9659 289.109 43.2235 288.635 43.4091C288.162 43.5909 287.63 43.6818 287.039 43.6818Z" fill="black"/>
<path d="M316.5 34.8167H311.308H306.633C305.833 34.8167 305.433 35.7833 306 36.35L310.317 40.6667C311.008 41.3583 312.133 41.3583 312.825 40.6667L314.467 39.025L317.142 36.35C317.7 35.7833 317.3 34.8167 316.5 34.8167Z" fill="#3D4754"/>
</g>
<g filter="url(#filter3_d_437_10452)">
<path d="M361.566 32C361.566 23.1634 368.73 16 377.566 16H513.566C522.403 16 529.566 23.1634 529.566 32V44C529.566 52.8366 522.403 60 513.566 60H377.566C368.73 60 361.566 52.8366 361.566 44V32Z" fill="white" shape-rendering="crispEdges"/>
<path d="M377.566 17H513.566C521.851 17 528.566 23.7157 528.566 32V44C528.566 52.2843 521.851 59 513.566 59H377.566C369.282 59 362.566 52.2843 362.566 44V32C362.566 23.7157 369.282 17 377.566 17Z" stroke="black" stroke-width="2" shape-rendering="crispEdges"/>
<path d="M390.762 43.5H387.171V31.8636H390.921C392.05 31.8636 393.016 32.0966 393.819 32.5625C394.622 33.0246 395.237 33.6894 395.665 34.5568C396.093 35.4205 396.307 36.4545 396.307 37.6591C396.307 38.8712 396.091 39.9148 395.659 40.7898C395.228 41.661 394.599 42.3314 393.773 42.8011C392.947 43.267 391.944 43.5 390.762 43.5ZM388.58 42.25H390.671C391.633 42.25 392.43 42.0644 393.063 41.6932C393.695 41.322 394.167 40.7936 394.478 40.108C394.788 39.4223 394.944 38.6061 394.944 37.6591C394.944 36.7197 394.79 35.911 394.483 35.233C394.176 34.5511 393.718 34.0284 393.108 33.6648C392.498 33.2973 391.739 33.1136 390.83 33.1136H388.58V42.25ZM402.148 43.6818C401.307 43.6818 400.582 43.4962 399.972 43.125C399.366 42.75 398.898 42.2273 398.569 41.5568C398.243 40.8826 398.08 40.0985 398.08 39.2045C398.08 38.3106 398.243 37.5227 398.569 36.8409C398.898 36.1553 399.356 35.6212 399.944 35.2386C400.534 34.8523 401.224 34.6591 402.012 34.6591C402.466 34.6591 402.915 34.7348 403.358 34.8864C403.801 35.0379 404.205 35.2841 404.569 35.625C404.932 35.9621 405.222 36.4091 405.438 36.9659C405.654 37.5227 405.762 38.2083 405.762 39.0227V39.5909H399.034V38.4318H404.398C404.398 37.9394 404.3 37.5 404.103 37.1136C403.909 36.7273 403.633 36.4223 403.273 36.1989C402.917 35.9754 402.497 35.8636 402.012 35.8636C401.478 35.8636 401.016 35.9962 400.625 36.2614C400.239 36.5227 399.942 36.8636 399.733 37.2841C399.525 37.7045 399.421 38.1553 399.421 38.6364V39.4091C399.421 40.0682 399.534 40.6269 399.762 41.0852C399.993 41.5398 400.313 41.8864 400.722 42.125C401.131 42.3598 401.606 42.4773 402.148 42.4773C402.5 42.4773 402.819 42.428 403.103 42.3295C403.391 42.2273 403.639 42.0758 403.847 41.875C404.055 41.6705 404.216 41.4167 404.33 41.1136L405.625 41.4773C405.489 41.9167 405.26 42.303 404.938 42.6364C404.616 42.9659 404.218 43.2235 403.745 43.4091C403.271 43.5909 402.739 43.6818 402.148 43.6818ZM413.983 36.7273L412.779 37.0682C412.703 36.8674 412.591 36.6723 412.444 36.483C412.3 36.2898 412.103 36.1307 411.853 36.0057C411.603 35.8807 411.283 35.8182 410.892 35.8182C410.358 35.8182 409.913 35.9413 409.557 36.1875C409.205 36.4299 409.029 36.7386 409.029 37.1136C409.029 37.447 409.15 37.7102 409.392 37.9034C409.635 38.0966 410.014 38.2576 410.529 38.3864L411.824 38.7045C412.605 38.8939 413.186 39.1837 413.569 39.5739C413.951 39.9602 414.142 40.4583 414.142 41.0682C414.142 41.5682 413.998 42.0152 413.711 42.4091C413.426 42.803 413.029 43.1136 412.517 43.3409C412.006 43.5682 411.411 43.6818 410.733 43.6818C409.843 43.6818 409.106 43.4886 408.523 43.1023C407.94 42.7159 407.57 42.1515 407.415 41.4091L408.688 41.0909C408.809 41.5606 409.038 41.9129 409.375 42.1477C409.716 42.3826 410.161 42.5 410.711 42.5C411.336 42.5 411.832 42.3674 412.199 42.1023C412.57 41.8333 412.756 41.5114 412.756 41.1364C412.756 40.8333 412.65 40.5795 412.438 40.375C412.226 40.1667 411.9 40.0114 411.461 39.9091L410.006 39.5682C409.207 39.3788 408.62 39.0852 408.245 38.6875C407.873 38.286 407.688 37.7841 407.688 37.1818C407.688 36.6894 407.826 36.2538 408.103 35.875C408.383 35.4962 408.764 35.1989 409.245 34.983C409.73 34.767 410.279 34.6591 410.892 34.6591C411.756 34.6591 412.434 34.8485 412.926 35.2273C413.423 35.6061 413.775 36.1061 413.983 36.7273ZM416.161 43.5V34.7727H417.502V43.5H416.161ZM416.843 33.3182C416.581 33.3182 416.356 33.2292 416.167 33.0511C415.981 32.8731 415.888 32.6591 415.888 32.4091C415.888 32.1591 415.981 31.9451 416.167 31.767C416.356 31.589 416.581 31.5 416.843 31.5C417.104 31.5 417.328 31.589 417.513 31.767C417.703 31.9451 417.797 32.1591 417.797 32.4091C417.797 32.6591 417.703 32.8731 417.513 33.0511C417.328 33.2292 417.104 33.3182 416.843 33.3182ZM423.48 46.9545C422.833 46.9545 422.276 46.8712 421.81 46.7045C421.344 46.5417 420.956 46.3258 420.645 46.0568C420.338 45.7917 420.094 45.5076 419.912 45.2045L420.98 44.4545C421.102 44.6136 421.255 44.7955 421.441 45C421.626 45.2083 421.88 45.3883 422.202 45.5398C422.528 45.6951 422.954 45.7727 423.48 45.7727C424.185 45.7727 424.766 45.6023 425.225 45.2614C425.683 44.9205 425.912 44.3864 425.912 43.6591V41.8864H425.799C425.7 42.0455 425.56 42.2424 425.378 42.4773C425.2 42.7083 424.943 42.9148 424.605 43.0966C424.272 43.2746 423.821 43.3636 423.253 43.3636C422.549 43.3636 421.916 43.197 421.355 42.8636C420.799 42.5303 420.357 42.0455 420.032 41.4091C419.71 40.7727 419.549 40 419.549 39.0909C419.549 38.197 419.706 37.4186 420.02 36.7557C420.335 36.089 420.772 35.5739 421.333 35.2102C421.893 34.8428 422.541 34.6591 423.276 34.6591C423.844 34.6591 424.295 34.7538 424.628 34.9432C424.965 35.1288 425.223 35.3409 425.401 35.5795C425.583 35.8144 425.723 36.0076 425.821 36.1591H425.958V34.7727H427.253V43.75C427.253 44.5 427.083 45.1098 426.742 45.5795C426.405 46.053 425.95 46.3996 425.378 46.6193C424.81 46.8428 424.177 46.9545 423.48 46.9545ZM423.435 42.1591C423.973 42.1591 424.427 42.036 424.799 41.7898C425.17 41.5436 425.452 41.1894 425.645 40.7273C425.838 40.2652 425.935 39.7121 425.935 39.0682C425.935 38.4394 425.84 37.8845 425.651 37.4034C425.462 36.9223 425.181 36.5455 424.81 36.2727C424.439 36 423.98 35.8636 423.435 35.8636C422.867 35.8636 422.393 36.0076 422.015 36.2955C421.64 36.5833 421.357 36.9697 421.168 37.4545C420.982 37.9394 420.89 38.4773 420.89 39.0682C420.89 39.6742 420.984 40.2102 421.174 40.6761C421.367 41.1383 421.651 41.5019 422.026 41.767C422.405 42.0284 422.874 42.1591 423.435 42.1591ZM431.049 38.25V43.5H429.708V34.7727H431.003V36.1364H431.117C431.321 35.6932 431.632 35.3371 432.049 35.0682C432.465 34.7955 433.003 34.6591 433.662 34.6591C434.253 34.6591 434.77 34.7803 435.213 35.0227C435.657 35.2614 436.001 35.625 436.248 36.1136C436.494 36.5985 436.617 37.2121 436.617 37.9545V43.5H435.276V38.0455C435.276 37.3598 435.098 36.8258 434.742 36.4432C434.386 36.0568 433.897 35.8636 433.276 35.8636C432.848 35.8636 432.465 35.9564 432.128 36.142C431.795 36.3277 431.532 36.5985 431.338 36.9545C431.145 37.3106 431.049 37.7424 431.049 38.25ZM441.635 43.7045C441.082 43.7045 440.58 43.6004 440.13 43.392C439.679 43.1799 439.321 42.875 439.056 42.4773C438.791 42.0758 438.658 41.5909 438.658 41.0227C438.658 40.5227 438.757 40.1174 438.953 39.8068C439.15 39.4924 439.414 39.2462 439.743 39.0682C440.073 38.8902 440.436 38.7576 440.834 38.6705C441.236 38.5795 441.639 38.5076 442.044 38.4545C442.575 38.3864 443.005 38.3352 443.334 38.3011C443.667 38.2633 443.91 38.2008 444.061 38.1136C444.217 38.0265 444.294 37.875 444.294 37.6591V37.6136C444.294 37.053 444.141 36.6174 443.834 36.3068C443.531 35.9962 443.071 35.8409 442.453 35.8409C441.813 35.8409 441.311 35.9811 440.948 36.2614C440.584 36.5417 440.328 36.8409 440.181 37.1591L438.908 36.7045C439.135 36.1742 439.438 35.7614 439.817 35.4659C440.2 35.1667 440.616 34.9583 441.067 34.8409C441.522 34.7197 441.969 34.6591 442.408 34.6591C442.688 34.6591 443.01 34.6932 443.374 34.7614C443.741 34.8258 444.096 34.9602 444.436 35.1648C444.781 35.3693 445.067 35.678 445.294 36.0909C445.522 36.5038 445.635 37.0568 445.635 37.75V43.5H444.294V42.3182H444.226C444.135 42.5076 443.984 42.7102 443.772 42.9261C443.56 43.142 443.277 43.3258 442.925 43.4773C442.573 43.6288 442.143 43.7045 441.635 43.7045ZM441.84 42.5C442.37 42.5 442.817 42.3958 443.181 42.1875C443.548 41.9792 443.825 41.7102 444.01 41.3807C444.2 41.0511 444.294 40.7045 444.294 40.3409V39.1136C444.238 39.1818 444.113 39.2443 443.919 39.3011C443.73 39.3542 443.51 39.4015 443.26 39.4432C443.014 39.4811 442.774 39.5152 442.539 39.5455C442.308 39.572 442.12 39.5947 441.976 39.6136C441.628 39.6591 441.302 39.733 440.999 39.8352C440.7 39.9337 440.457 40.0833 440.272 40.2841C440.09 40.4811 439.999 40.75 439.999 41.0909C439.999 41.5568 440.171 41.9091 440.516 42.1477C440.864 42.3826 441.306 42.5 441.84 42.5ZM451.878 34.7727V35.9091H447.355V34.7727H451.878ZM448.674 32.6818H450.015V41C450.015 41.3788 450.069 41.6629 450.179 41.8523C450.293 42.0379 450.437 42.1629 450.611 42.2273C450.789 42.2879 450.977 42.3182 451.174 42.3182C451.321 42.3182 451.443 42.3106 451.537 42.2955C451.632 42.2765 451.708 42.2614 451.765 42.25L452.037 43.4545C451.946 43.4886 451.819 43.5227 451.657 43.5568C451.494 43.5947 451.287 43.6136 451.037 43.6136C450.658 43.6136 450.287 43.5322 449.924 43.3693C449.564 43.2064 449.265 42.9583 449.026 42.625C448.791 42.2917 448.674 41.8712 448.674 41.3636V32.6818ZM453.895 43.5V34.7727H455.236V43.5H453.895ZM454.577 33.3182C454.316 33.3182 454.09 33.2292 453.901 33.0511C453.715 32.8731 453.623 32.6591 453.623 32.4091C453.623 32.1591 453.715 31.9451 453.901 31.767C454.09 31.589 454.316 31.5 454.577 31.5C454.838 31.5 455.062 31.589 455.248 31.767C455.437 31.9451 455.532 32.1591 455.532 32.4091C455.532 32.6591 455.437 32.8731 455.248 33.0511C455.062 33.2292 454.838 33.3182 454.577 33.3182ZM461.238 43.6818C460.45 43.6818 459.758 43.4943 459.164 43.1193C458.573 42.7443 458.111 42.2197 457.777 41.5455C457.448 40.8712 457.283 40.0833 457.283 39.1818C457.283 38.2727 457.448 37.4792 457.777 36.8011C458.111 36.1231 458.573 35.5966 459.164 35.2216C459.758 34.8466 460.45 34.6591 461.238 34.6591C462.025 34.6591 462.715 34.8466 463.306 35.2216C463.9 35.5966 464.363 36.1231 464.692 36.8011C465.025 37.4792 465.192 38.2727 465.192 39.1818C465.192 40.0833 465.025 40.8712 464.692 41.5455C464.363 42.2197 463.9 42.7443 463.306 43.1193C462.715 43.4943 462.025 43.6818 461.238 43.6818ZM461.238 42.4773C461.836 42.4773 462.328 42.3239 462.715 42.017C463.101 41.7102 463.387 41.3068 463.573 40.8068C463.758 40.3068 463.851 39.7652 463.851 39.1818C463.851 38.5985 463.758 38.0549 463.573 37.5511C463.387 37.0473 463.101 36.6402 462.715 36.3295C462.328 36.0189 461.836 35.8636 461.238 35.8636C460.639 35.8636 460.147 36.0189 459.76 36.3295C459.374 36.6402 459.088 37.0473 458.902 37.5511C458.717 38.0549 458.624 38.5985 458.624 39.1818C458.624 39.7652 458.717 40.3068 458.902 40.8068C459.088 41.3068 459.374 41.7102 459.76 42.017C460.147 42.3239 460.639 42.4773 461.238 42.4773ZM468.58 38.25V43.5H467.239V34.7727H468.534V36.1364H468.648C468.853 35.6932 469.163 35.3371 469.58 35.0682C469.997 34.7955 470.534 34.6591 471.194 34.6591C471.784 34.6591 472.301 34.7803 472.745 35.0227C473.188 35.2614 473.533 35.625 473.779 36.1136C474.025 36.5985 474.148 37.2121 474.148 37.9545V43.5H472.807V38.0455C472.807 37.3598 472.629 36.8258 472.273 36.4432C471.917 36.0568 471.428 35.8636 470.807 35.8636C470.379 35.8636 469.997 35.9564 469.659 36.142C469.326 36.3277 469.063 36.5985 468.87 36.9545C468.676 37.3106 468.58 37.7424 468.58 38.25Z" fill="black"/>
<path d="M500.5 34.8167H495.308H490.633C489.833 34.8167 489.433 35.7833 490 36.35L494.317 40.6667C495.008 41.3583 496.133 41.3583 496.825 40.6667L498.467 39.025L501.142 36.35C501.7 35.7833 501.3 34.8167 500.5 34.8167Z" fill="#3D4754"/>
</g>
</g>
<g clip-path="url(#clip1_437_10452)">
<path d="M137.542 123.024H131.254L130.246 126H125.95L132.046 109.152H136.798L142.894 126H138.55L137.542 123.024ZM136.486 119.856L134.398 113.688L132.334 119.856H136.486ZM148.854 108.24V126H144.75V108.24H148.854ZM164.452 119.088C164.452 119.472 164.428 119.872 164.38 120.288H155.092C155.156 121.12 155.42 121.76 155.884 122.208C156.364 122.64 156.948 122.856 157.636 122.856C158.66 122.856 159.372 122.424 159.772 121.56H164.14C163.916 122.44 163.508 123.232 162.916 123.936C162.34 124.64 161.612 125.192 160.732 125.592C159.852 125.992 158.868 126.192 157.78 126.192C156.468 126.192 155.3 125.912 154.276 125.352C153.252 124.792 152.452 123.992 151.876 122.952C151.3 121.912 151.012 120.696 151.012 119.304C151.012 117.912 151.292 116.696 151.852 115.656C152.428 114.616 153.228 113.816 154.252 113.256C155.276 112.696 156.452 112.416 157.78 112.416C159.076 112.416 160.228 112.688 161.236 113.232C162.244 113.776 163.028 114.552 163.588 115.56C164.164 116.568 164.452 117.744 164.452 119.088ZM160.252 118.008C160.252 117.304 160.012 116.744 159.532 116.328C159.052 115.912 158.452 115.704 157.732 115.704C157.044 115.704 156.46 115.904 155.98 116.304C155.516 116.704 155.228 117.272 155.116 118.008H160.252ZM170.721 114.84C171.201 114.104 171.801 113.528 172.521 113.112C173.241 112.68 174.041 112.464 174.921 112.464V116.808H173.793C172.769 116.808 172.001 117.032 171.489 117.48C170.977 117.912 170.721 118.68 170.721 119.784V126H166.617V112.608H170.721V114.84ZM184.347 122.52V126H182.259C180.771 126 179.611 125.64 178.779 124.92C177.947 124.184 177.531 122.992 177.531 121.344V116.016H175.899V112.608H177.531V109.344H181.635V112.608H184.323V116.016H181.635V121.392C181.635 121.792 181.731 122.08 181.923 122.256C182.115 122.432 182.435 122.52 182.883 122.52H184.347ZM192.081 126.192C190.913 126.192 189.873 125.992 188.961 125.592C188.049 125.192 187.329 124.648 186.801 123.96C186.273 123.256 185.977 122.472 185.913 121.608H189.969C190.017 122.072 190.233 122.448 190.617 122.736C191.001 123.024 191.473 123.168 192.033 123.168C192.545 123.168 192.937 123.072 193.209 122.88C193.497 122.672 193.641 122.408 193.641 122.088C193.641 121.704 193.441 121.424 193.041 121.248C192.641 121.056 191.993 120.848 191.097 120.624C190.137 120.4 189.337 120.168 188.697 119.928C188.057 119.672 187.505 119.28 187.041 118.752C186.577 118.208 186.345 117.48 186.345 116.568C186.345 115.8 186.553 115.104 186.969 114.48C187.401 113.84 188.025 113.336 188.841 112.968C189.673 112.6 190.657 112.416 191.793 112.416C193.473 112.416 194.793 112.832 195.753 113.664C196.729 114.496 197.289 115.6 197.433 116.976H193.641C193.577 116.512 193.369 116.144 193.017 115.872C192.681 115.6 192.233 115.464 191.673 115.464C191.193 115.464 190.825 115.56 190.569 115.752C190.313 115.928 190.185 116.176 190.185 116.496C190.185 116.88 190.385 117.168 190.785 117.36C191.201 117.552 191.841 117.744 192.705 117.936C193.697 118.192 194.505 118.448 195.129 118.704C195.753 118.944 196.297 119.344 196.761 119.904C197.241 120.448 197.489 121.184 197.505 122.112C197.505 122.896 197.281 123.6 196.833 124.224C196.401 124.832 195.769 125.312 194.937 125.664C194.121 126.016 193.169 126.192 192.081 126.192ZM208.57 129.348C207.394 128.22 206.488 126.786 205.852 125.046C205.228 123.306 204.916 121.44 204.916 119.448C204.916 117.408 205.252 115.482 205.924 113.67C206.608 111.858 207.61 110.364 208.93 109.188H211.054V109.386C209.674 110.658 208.636 112.182 207.94 113.958C207.244 115.734 206.896 117.564 206.896 119.448C206.896 121.26 207.22 123.012 207.868 124.704C208.516 126.396 209.458 127.878 210.694 129.15V129.348H208.57ZM212.353 114.75V112.878H216.097V126H214.027V114.75H212.353ZM220.05 123.21C221.202 122.214 222.108 121.398 222.768 120.762C223.44 120.114 223.998 119.442 224.442 118.746C224.886 118.05 225.108 117.354 225.108 116.658C225.108 115.938 224.934 115.374 224.586 114.966C224.25 114.558 223.716 114.354 222.984 114.354C222.276 114.354 221.724 114.582 221.328 115.038C220.944 115.482 220.74 116.082 220.716 116.838H218.736C218.772 115.47 219.18 114.426 219.96 113.706C220.752 112.974 221.754 112.608 222.966 112.608C224.274 112.608 225.294 112.968 226.026 113.688C226.77 114.408 227.142 115.368 227.142 116.568C227.142 117.432 226.92 118.266 226.476 119.07C226.044 119.862 225.522 120.576 224.91 121.212C224.31 121.836 223.542 122.562 222.606 123.39L221.796 124.11H227.502V125.82H218.754V124.326L220.05 123.21ZM229.269 116.118C229.341 115.002 229.767 114.132 230.547 113.508C231.339 112.884 232.347 112.572 233.571 112.572C234.411 112.572 235.137 112.722 235.749 113.022C236.361 113.322 236.823 113.73 237.135 114.246C237.447 114.762 237.603 115.344 237.603 115.992C237.603 116.736 237.405 117.372 237.009 117.9C236.613 118.428 236.139 118.782 235.587 118.962V119.034C236.295 119.25 236.847 119.646 237.243 120.222C237.639 120.786 237.837 121.512 237.837 122.4C237.837 123.108 237.675 123.738 237.351 124.29C237.027 124.842 236.547 125.28 235.911 125.604C235.275 125.916 234.513 126.072 233.625 126.072C232.329 126.072 231.261 125.742 230.421 125.082C229.593 124.41 229.149 123.45 229.089 122.202H231.069C231.117 122.838 231.363 123.36 231.807 123.768C232.251 124.164 232.851 124.362 233.607 124.362C234.339 124.362 234.903 124.164 235.299 123.768C235.695 123.36 235.893 122.838 235.893 122.202C235.893 121.362 235.623 120.768 235.083 120.42C234.555 120.06 233.739 119.88 232.635 119.88H232.167V118.188H232.653C233.625 118.176 234.363 118.014 234.867 117.702C235.383 117.39 235.641 116.898 235.641 116.226C235.641 115.65 235.455 115.194 235.083 114.858C234.711 114.51 234.183 114.336 233.499 114.336C232.827 114.336 232.305 114.51 231.933 114.858C231.561 115.194 231.339 115.614 231.267 116.118H229.269ZM239.758 129.348V129.15C240.994 127.878 241.936 126.396 242.584 124.704C243.232 123.012 243.556 121.26 243.556 119.448C243.556 117.564 243.208 115.734 242.512 113.958C241.816 112.182 240.778 110.658 239.398 109.386V109.188H241.522C242.842 110.364 243.838 111.858 244.51 113.67C245.194 115.482 245.536 117.408 245.536 119.448C245.536 121.44 245.218 123.306 244.582 125.046C243.958 126.786 243.058 128.22 241.882 129.348H239.758Z" fill="#28293D"/>
<path d="M129.566 160.748H573.566C575.362 160.748 576.818 162.204 576.818 164V256.707C576.818 258.503 575.362 259.959 573.566 259.959H129.566C127.771 259.959 126.315 258.503 126.315 256.707V164C126.315 162.204 127.771 160.748 129.566 160.748Z" fill="white"/>
<path d="M129.566 160.748H573.566C575.362 160.748 576.818 162.204 576.818 164V256.707C576.818 258.503 575.362 259.959 573.566 259.959H129.566C127.771 259.959 126.315 258.503 126.315 256.707V164C126.315 162.204 127.771 160.748 129.566 160.748Z" stroke="#E8E8E8" stroke-width="1.49698"/>
<rect x="147.149" y="175.825" width="40.5689" height="40.5689" rx="3.36668" stroke="#3A2A2A" stroke-width="0.943463"/>
<path d="M164.421 186.078H155.852V206.488L164.421 186.078Z" fill="#FF0000"/>
<path d="M170.449 186.078H179.007V206.488L170.449 186.078Z" fill="#FF0000"/>
<path d="M167.435 193.6L172.889 206.488H169.311L167.681 202.385H163.689L167.435 193.6Z" fill="#FF0000"/>
<path d="M212.421 194.354V180.354H217.421C218.181 180.354 218.867 180.544 219.481 180.924C220.101 181.304 220.591 181.814 220.951 182.454C221.311 183.094 221.491 183.797 221.491 184.564C221.491 185.35 221.304 186.064 220.931 186.704C220.564 187.337 220.071 187.844 219.451 188.224C218.831 188.597 218.154 188.784 217.421 188.784H214.861V194.354H212.421ZM214.861 186.344H217.161C217.507 186.344 217.824 186.257 218.111 186.084C218.397 185.91 218.624 185.677 218.791 185.384C218.964 185.09 219.051 184.764 219.051 184.404C219.051 184.037 218.964 183.707 218.791 183.414C218.624 183.12 218.397 182.887 218.111 182.714C217.824 182.54 217.507 182.454 217.161 182.454H214.861V186.344ZM223.339 194.354L223.329 184.354H225.769L225.779 185.244C226.119 184.884 226.525 184.6 226.999 184.394C227.472 184.18 227.982 184.074 228.529 184.074C228.895 184.074 229.262 184.127 229.629 184.234L228.669 186.694C228.415 186.594 228.162 186.544 227.909 186.544C227.515 186.544 227.155 186.64 226.829 186.834C226.509 187.02 226.252 187.277 226.059 187.604C225.872 187.924 225.779 188.28 225.779 188.674V194.354H223.339ZM234.965 194.614C234.045 194.614 233.205 194.377 232.445 193.904C231.692 193.43 231.088 192.797 230.635 192.004C230.188 191.204 229.965 190.32 229.965 189.354C229.965 188.62 230.095 187.937 230.355 187.304C230.615 186.664 230.972 186.104 231.425 185.624C231.885 185.137 232.418 184.757 233.025 184.484C233.632 184.21 234.278 184.074 234.965 184.074C235.885 184.074 236.722 184.31 237.475 184.784C238.235 185.257 238.838 185.894 239.285 186.694C239.738 187.494 239.965 188.38 239.965 189.354C239.965 190.08 239.835 190.76 239.575 191.394C239.315 192.027 238.955 192.587 238.495 193.074C238.042 193.554 237.512 193.93 236.905 194.204C236.305 194.477 235.658 194.614 234.965 194.614ZM234.965 192.174C235.452 192.174 235.888 192.044 236.275 191.784C236.662 191.524 236.965 191.18 237.185 190.754C237.412 190.327 237.525 189.86 237.525 189.354C237.525 188.834 237.408 188.36 237.175 187.934C236.948 187.5 236.638 187.157 236.245 186.904C235.858 186.644 235.432 186.514 234.965 186.514C234.485 186.514 234.052 186.644 233.665 186.904C233.278 187.164 232.972 187.51 232.745 187.944C232.518 188.377 232.405 188.847 232.405 189.354C232.405 189.88 232.522 190.357 232.755 190.784C232.988 191.21 233.298 191.55 233.685 191.804C234.078 192.05 234.505 192.174 234.965 192.174ZM249.404 179.354H251.844V194.354H249.404V193.104C249.084 193.55 248.681 193.914 248.194 194.194C247.707 194.474 247.144 194.614 246.504 194.614C245.777 194.614 245.097 194.477 244.464 194.204C243.831 193.93 243.271 193.554 242.784 193.074C242.304 192.587 241.927 192.027 241.654 191.394C241.381 190.76 241.244 190.08 241.244 189.354C241.244 188.627 241.381 187.947 241.654 187.314C241.927 186.68 242.304 186.124 242.784 185.644C243.271 185.157 243.831 184.777 244.464 184.504C245.097 184.23 245.777 184.094 246.504 184.094C247.144 184.094 247.707 184.234 248.194 184.514C248.681 184.787 249.084 185.15 249.404 185.604V179.354ZM246.534 192.264C247.054 192.264 247.514 192.134 247.914 191.874C248.314 191.614 248.627 191.264 248.854 190.824C249.081 190.377 249.194 189.887 249.194 189.354C249.194 188.814 249.081 188.324 248.854 187.884C248.627 187.437 248.311 187.084 247.904 186.824C247.504 186.564 247.047 186.434 246.534 186.434C246.021 186.434 245.551 186.567 245.124 186.834C244.704 187.094 244.367 187.444 244.114 187.884C243.867 188.324 243.744 188.814 243.744 189.354C243.744 189.894 243.871 190.384 244.124 190.824C244.377 191.264 244.714 191.614 245.134 191.874C245.561 192.134 246.027 192.264 246.534 192.264ZM254.129 190.654V184.354H256.569V190.014C256.569 190.407 256.666 190.767 256.859 191.094C257.053 191.414 257.309 191.67 257.629 191.864C257.956 192.05 258.313 192.144 258.699 192.144C259.099 192.144 259.459 192.05 259.779 191.864C260.099 191.67 260.356 191.414 260.549 191.094C260.743 190.767 260.839 190.407 260.839 190.014V184.354H263.279L263.289 194.354H260.849L260.839 193.444C260.493 193.804 260.083 194.09 259.609 194.304C259.136 194.51 258.629 194.614 258.089 194.614C257.363 194.614 256.699 194.437 256.099 194.084C255.499 193.724 255.019 193.247 254.659 192.654C254.306 192.054 254.129 191.387 254.129 190.654ZM271.618 191.344L273.818 192.534C273.358 193.16 272.781 193.664 272.088 194.044C271.395 194.424 270.638 194.614 269.818 194.614C268.898 194.614 268.058 194.377 267.298 193.904C266.545 193.43 265.941 192.797 265.488 192.004C265.041 191.204 264.818 190.32 264.818 189.354C264.818 188.62 264.948 187.937 265.208 187.304C265.468 186.664 265.825 186.104 266.278 185.624C266.738 185.137 267.271 184.757 267.878 184.484C268.485 184.21 269.131 184.074 269.818 184.074C270.638 184.074 271.395 184.264 272.088 184.644C272.781 185.024 273.358 185.534 273.818 186.174L271.618 187.354C271.385 187.087 271.108 186.88 270.788 186.734C270.475 186.587 270.151 186.514 269.818 186.514C269.338 186.514 268.905 186.647 268.518 186.914C268.131 187.174 267.825 187.52 267.598 187.954C267.371 188.38 267.258 188.847 267.258 189.354C267.258 189.854 267.371 190.32 267.598 190.754C267.825 191.18 268.131 191.524 268.518 191.784C268.905 192.044 269.338 192.174 269.818 192.174C270.165 192.174 270.495 192.1 270.808 191.954C271.121 191.8 271.391 191.597 271.618 191.344ZM281.256 186.794H279.316V194.354H276.876V186.794H275.396V184.354H276.876V181.214H279.316V184.354H281.256V186.794ZM288.435 194.354L291.155 180.354H293.175L296.585 189.324L299.995 180.354H302.015L304.735 194.354H302.245L300.565 185.694L297.415 194.034H295.745L292.595 185.694L290.925 194.354H288.435ZM313.895 184.354H316.335V194.354H313.895L313.785 193.114C313.511 193.56 313.148 193.924 312.695 194.204C312.248 194.477 311.718 194.614 311.105 194.614C310.365 194.614 309.671 194.474 309.025 194.194C308.378 193.914 307.808 193.527 307.315 193.034C306.828 192.54 306.445 191.97 306.165 191.324C305.891 190.677 305.755 189.984 305.755 189.244C305.755 188.53 305.885 187.86 306.145 187.234C306.411 186.607 306.781 186.057 307.255 185.584C307.728 185.11 308.275 184.74 308.895 184.474C309.515 184.207 310.181 184.074 310.895 184.074C311.555 184.074 312.145 184.22 312.665 184.514C313.191 184.807 313.638 185.18 314.005 185.634L313.895 184.354ZM311.045 192.264C311.565 192.264 312.025 192.134 312.425 191.874C312.825 191.614 313.138 191.264 313.365 190.824C313.591 190.377 313.705 189.887 313.705 189.354C313.705 188.814 313.591 188.324 313.365 187.884C313.138 187.437 312.821 187.084 312.415 186.824C312.015 186.564 311.558 186.434 311.045 186.434C310.531 186.434 310.061 186.567 309.635 186.834C309.215 187.094 308.878 187.444 308.625 187.884C308.378 188.324 308.255 188.814 308.255 189.354C308.255 189.894 308.381 190.384 308.635 190.824C308.888 191.264 309.225 191.614 309.645 191.874C310.071 192.134 310.538 192.264 311.045 192.264ZM327.77 188.034V194.354H325.33V188.674C325.33 188.28 325.234 187.924 325.04 187.604C324.847 187.277 324.587 187.02 324.26 186.834C323.94 186.64 323.584 186.544 323.19 186.544C322.797 186.544 322.437 186.64 322.11 186.834C321.79 187.02 321.534 187.277 321.34 187.604C321.154 187.924 321.06 188.28 321.06 188.674V194.354H318.62L318.61 184.354H321.05L321.06 185.244C321.4 184.884 321.807 184.6 322.28 184.394C322.754 184.18 323.264 184.074 323.81 184.074C324.537 184.074 325.2 184.254 325.8 184.614C326.4 184.967 326.877 185.444 327.23 186.044C327.59 186.637 327.77 187.3 327.77 188.034ZM337.391 184.354H339.831V194.354H337.391L337.281 193.114C337.007 193.56 336.644 193.924 336.191 194.204C335.744 194.477 335.214 194.614 334.601 194.614C333.861 194.614 333.167 194.474 332.521 194.194C331.874 193.914 331.304 193.527 330.811 193.034C330.324 192.54 329.941 191.97 329.661 191.324C329.387 190.677 329.251 189.984 329.251 189.244C329.251 188.53 329.381 187.86 329.641 187.234C329.907 186.607 330.277 186.057 330.751 185.584C331.224 185.11 331.771 184.74 332.391 184.474C333.011 184.207 333.677 184.074 334.391 184.074C335.051 184.074 335.641 184.22 336.161 184.514C336.687 184.807 337.134 185.18 337.501 185.634L337.391 184.354ZM334.541 192.264C335.061 192.264 335.521 192.134 335.921 191.874C336.321 191.614 336.634 191.264 336.861 190.824C337.087 190.377 337.201 189.887 337.201 189.354C337.201 188.814 337.087 188.324 336.861 187.884C336.634 187.437 336.317 187.084 335.911 186.824C335.511 186.564 335.054 186.434 334.541 186.434C334.027 186.434 333.557 186.567 333.131 186.834C332.711 187.094 332.374 187.444 332.121 187.884C331.874 188.324 331.751 188.814 331.751 189.354C331.751 189.894 331.877 190.384 332.131 190.824C332.384 191.264 332.721 191.614 333.141 191.874C333.567 192.134 334.034 192.264 334.541 192.264ZM349.331 184.354H351.771V194.544C351.771 195.264 351.624 195.917 351.331 196.504C351.038 197.097 350.638 197.604 350.131 198.024C349.624 198.45 349.044 198.777 348.391 199.004C347.738 199.237 347.051 199.354 346.331 199.354C345.631 199.354 344.958 199.21 344.311 198.924C343.664 198.637 343.091 198.244 342.591 197.744C342.098 197.25 341.721 196.687 341.461 196.054L343.691 195.044C343.824 195.41 344.024 195.73 344.291 196.004C344.564 196.284 344.878 196.5 345.231 196.654C345.584 196.814 345.951 196.894 346.331 196.894C346.718 196.894 347.088 196.84 347.441 196.734C347.801 196.627 348.124 196.47 348.411 196.264C348.698 196.064 348.921 195.817 349.081 195.524C349.248 195.237 349.331 194.91 349.331 194.544V193.134C349.018 193.574 348.624 193.93 348.151 194.204C347.678 194.477 347.131 194.614 346.511 194.614C345.791 194.614 345.118 194.477 344.491 194.204C343.864 193.93 343.311 193.554 342.831 193.074C342.358 192.587 341.984 192.027 341.711 191.394C341.444 190.76 341.311 190.08 341.311 189.354C341.311 188.627 341.444 187.947 341.711 187.314C341.984 186.68 342.358 186.124 342.831 185.644C343.311 185.157 343.864 184.777 344.491 184.504C345.118 184.23 345.791 184.094 346.511 184.094C347.131 184.094 347.678 184.23 348.151 184.504C348.624 184.77 349.018 185.124 349.331 185.564V184.354ZM346.541 192.264C347.054 192.264 347.508 192.134 347.901 191.874C348.301 191.607 348.614 191.254 348.841 190.814C349.068 190.367 349.181 189.88 349.181 189.354C349.181 188.82 349.064 188.334 348.831 187.894C348.604 187.454 348.291 187.1 347.891 186.834C347.498 186.567 347.048 186.434 346.541 186.434C346.041 186.434 345.584 186.567 345.171 186.834C344.758 187.094 344.428 187.444 344.181 187.884C343.934 188.324 343.811 188.814 343.811 189.354C343.811 189.894 343.934 190.384 344.181 190.824C344.428 191.264 344.758 191.614 345.171 191.874C345.584 192.134 346.041 192.264 346.541 192.264ZM358.625 194.614C357.705 194.614 356.865 194.377 356.105 193.904C355.352 193.43 354.749 192.794 354.295 191.994C353.849 191.194 353.625 190.31 353.625 189.344C353.625 188.617 353.755 187.937 354.015 187.304C354.275 186.664 354.632 186.104 355.085 185.624C355.545 185.137 356.079 184.757 356.685 184.484C357.292 184.21 357.939 184.074 358.625 184.074C359.405 184.074 360.119 184.24 360.765 184.574C361.419 184.9 361.972 185.35 362.425 185.924C362.879 186.497 363.209 187.15 363.415 187.884C363.622 188.617 363.669 189.384 363.555 190.184H356.245C356.339 190.557 356.492 190.894 356.705 191.194C356.919 191.487 357.189 191.724 357.515 191.904C357.842 192.077 358.212 192.167 358.625 192.174C359.052 192.18 359.439 192.08 359.785 191.874C360.139 191.66 360.432 191.374 360.665 191.014L363.155 191.594C362.749 192.48 362.142 193.207 361.335 193.774C360.529 194.334 359.625 194.614 358.625 194.614ZM356.165 188.354H361.085C361.012 187.954 360.855 187.594 360.615 187.274C360.382 186.947 360.092 186.687 359.745 186.494C359.399 186.3 359.025 186.204 358.625 186.204C358.225 186.204 357.855 186.3 357.515 186.494C357.175 186.68 356.885 186.937 356.645 187.264C356.412 187.584 356.252 187.947 356.165 188.354ZM365.475 194.354L365.465 184.354H367.905L367.915 185.244C368.255 184.884 368.662 184.6 369.135 184.394C369.609 184.18 370.119 184.074 370.665 184.074C371.032 184.074 371.399 184.127 371.765 184.234L370.805 186.694C370.552 186.594 370.299 186.544 370.045 186.544C369.652 186.544 369.292 186.64 368.965 186.834C368.645 187.02 368.389 187.277 368.195 187.604C368.009 187.924 367.915 188.28 367.915 188.674V194.354H365.475Z" fill="#3A2A2A"/>
<path d="M215.17 210.626H217.058L220.477 220.03H218.737L218.133 218.365H214.102L213.498 220.03H211.758L215.17 210.626ZM214.7 216.726H217.528L216.111 212.85L214.7 216.726ZM226.506 209.955H228.145V220.03H226.506V219.191C226.291 219.491 226.02 219.735 225.693 219.923C225.366 220.111 224.988 220.205 224.558 220.205C224.07 220.205 223.613 220.113 223.188 219.93C222.762 219.746 222.386 219.493 222.059 219.171C221.737 218.844 221.484 218.468 221.3 218.042C221.117 217.617 221.025 217.16 221.025 216.672C221.025 216.184 221.117 215.727 221.3 215.302C221.484 214.876 221.737 214.502 222.059 214.18C222.386 213.853 222.762 213.598 223.188 213.414C223.613 213.23 224.07 213.139 224.558 213.139C224.988 213.139 225.366 213.233 225.693 213.421C226.02 213.604 226.291 213.848 226.506 214.153V209.955ZM224.578 218.627C224.928 218.627 225.237 218.539 225.505 218.365C225.774 218.19 225.984 217.955 226.137 217.659C226.289 217.359 226.365 217.03 226.365 216.672C226.365 216.309 226.289 215.98 226.137 215.684C225.984 215.384 225.772 215.147 225.499 214.972C225.23 214.798 224.923 214.71 224.578 214.71C224.233 214.71 223.918 214.8 223.631 214.979C223.349 215.154 223.123 215.389 222.953 215.684C222.787 215.98 222.704 216.309 222.704 216.672C222.704 217.035 222.789 217.364 222.959 217.659C223.13 217.955 223.356 218.19 223.638 218.365C223.924 218.539 224.238 218.627 224.578 218.627ZM232.892 220.205C232.275 220.205 231.71 220.046 231.2 219.728C230.694 219.41 230.288 218.985 229.984 218.452C229.684 217.915 229.534 217.321 229.534 216.672C229.534 216.179 229.621 215.72 229.796 215.295C229.971 214.865 230.21 214.489 230.515 214.166C230.824 213.839 231.182 213.584 231.589 213.401C231.997 213.217 232.431 213.125 232.892 213.125C233.51 213.125 234.072 213.284 234.579 213.602C235.089 213.92 235.494 214.348 235.794 214.885C236.099 215.422 236.251 216.018 236.251 216.672C236.251 217.16 236.164 217.617 235.989 218.042C235.814 218.468 235.573 218.844 235.264 219.171C234.959 219.493 234.603 219.746 234.196 219.93C233.793 220.113 233.358 220.205 232.892 220.205ZM232.892 218.566C233.219 218.566 233.513 218.479 233.772 218.304C234.032 218.129 234.236 217.899 234.384 217.612C234.536 217.326 234.612 217.012 234.612 216.672C234.612 216.323 234.534 216.005 234.377 215.718C234.225 215.427 234.017 215.196 233.752 215.026C233.493 214.851 233.206 214.764 232.892 214.764C232.57 214.764 232.279 214.851 232.019 215.026C231.76 215.201 231.554 215.434 231.401 215.725C231.249 216.016 231.173 216.332 231.173 216.672C231.173 217.026 231.251 217.346 231.408 217.632C231.565 217.919 231.773 218.147 232.033 218.318C232.297 218.483 232.583 218.566 232.892 218.566ZM241.049 213.125C241.702 213.125 242.298 213.284 242.835 213.602C243.373 213.92 243.8 214.348 244.118 214.885C244.436 215.418 244.595 216.009 244.595 216.658C244.595 217.147 244.504 217.606 244.32 218.035C244.136 218.465 243.881 218.844 243.554 219.171C243.232 219.493 242.856 219.746 242.426 219.93C242 220.113 241.541 220.205 241.049 220.205C240.628 220.205 240.254 220.111 239.927 219.923C239.604 219.73 239.334 219.482 239.114 219.177V220.03H237.475V209.955H239.114V214.153C239.334 213.848 239.604 213.602 239.927 213.414C240.254 213.221 240.628 213.125 241.049 213.125ZM241.028 218.62C241.378 218.62 241.693 218.533 241.976 218.358C242.262 218.179 242.491 217.941 242.661 217.646C242.831 217.35 242.916 217.021 242.916 216.658C242.916 216.3 242.831 215.973 242.661 215.678C242.491 215.378 242.262 215.14 241.976 214.966C241.689 214.791 241.373 214.704 241.028 214.704C240.688 214.704 240.384 214.793 240.115 214.972C239.846 215.147 239.636 215.384 239.484 215.684C239.331 215.98 239.255 216.305 239.255 216.658C239.255 217.021 239.331 217.353 239.484 217.653C239.636 217.948 239.846 218.183 240.115 218.358C240.384 218.533 240.688 218.62 241.028 218.62ZM248.913 220.205C248.295 220.205 247.731 220.046 247.221 219.728C246.715 219.41 246.309 218.983 246.005 218.445C245.705 217.908 245.555 217.314 245.555 216.665C245.555 216.177 245.642 215.72 245.817 215.295C245.991 214.865 246.231 214.489 246.536 214.166C246.845 213.839 247.203 213.584 247.61 213.401C248.018 213.217 248.452 213.125 248.913 213.125C249.437 213.125 249.917 213.237 250.351 213.461C250.79 213.68 251.161 213.983 251.466 214.368C251.77 214.753 251.992 215.192 252.131 215.684C252.27 216.177 252.301 216.692 252.225 217.229H247.315C247.377 217.48 247.48 217.706 247.624 217.908C247.767 218.105 247.948 218.264 248.168 218.385C248.387 218.501 248.636 218.562 248.913 218.566C249.2 218.571 249.46 218.503 249.693 218.365C249.93 218.221 250.127 218.029 250.284 217.787L251.956 218.177C251.683 218.772 251.276 219.26 250.734 219.641C250.192 220.017 249.585 220.205 248.913 220.205ZM247.261 216H250.566C250.517 215.731 250.411 215.49 250.25 215.275C250.093 215.055 249.899 214.881 249.666 214.751C249.433 214.621 249.182 214.556 248.913 214.556C248.645 214.556 248.396 214.621 248.168 214.751C247.939 214.876 247.745 215.049 247.583 215.268C247.427 215.483 247.319 215.727 247.261 216Z" fill="#28293D"/>
<path d="M212.142 240.869V230.121H215.581C216.154 230.121 216.671 230.262 217.132 230.544C217.592 230.82 217.958 231.196 218.23 231.672C218.506 232.143 218.644 232.673 218.644 233.261C218.644 233.855 218.503 234.39 218.222 234.866C217.946 235.342 217.575 235.718 217.109 235.994C216.648 236.27 216.139 236.409 215.581 236.409H213.217V240.869H212.142ZM213.217 235.334H215.497C215.875 235.334 216.221 235.242 216.533 235.058C216.85 234.868 217.101 234.615 217.285 234.298C217.475 233.975 217.569 233.612 217.569 233.207C217.569 232.803 217.475 232.442 217.285 232.125C217.101 231.803 216.85 231.549 216.533 231.365C216.221 231.176 215.875 231.081 215.497 231.081H213.217V235.334ZM219.75 237.929V233.192H220.824V237.714C220.824 238.133 220.927 238.515 221.132 238.858C221.336 239.2 221.61 239.474 221.953 239.679C222.301 239.884 222.682 239.986 223.097 239.986C223.516 239.986 223.895 239.884 224.233 239.679C224.576 239.474 224.85 239.2 225.054 238.858C225.259 238.515 225.361 238.133 225.361 237.714V233.192H226.436L226.444 240.869H225.369L225.361 239.794C225.09 240.183 224.737 240.493 224.302 240.723C223.872 240.953 223.401 241.068 222.89 241.068C222.311 241.068 221.784 240.928 221.308 240.646C220.832 240.365 220.453 239.986 220.172 239.51C219.89 239.034 219.75 238.507 219.75 237.929ZM234.951 236.117V240.869H233.876V236.332C233.876 235.912 233.774 235.531 233.569 235.188C233.364 234.845 233.09 234.571 232.748 234.367C232.405 234.162 232.023 234.06 231.604 234.06C231.189 234.06 230.808 234.162 230.46 234.367C230.117 234.571 229.843 234.845 229.638 235.188C229.434 235.531 229.331 235.912 229.331 236.332V240.869H228.257V233.192H229.331V234.251C229.603 233.863 229.956 233.553 230.391 233.323C230.826 233.092 231.299 232.977 231.811 232.977C232.389 232.977 232.916 233.118 233.392 233.399C233.868 233.681 234.247 234.06 234.529 234.536C234.81 235.011 234.951 235.539 234.951 236.117ZM239.999 241.068C239.293 241.068 238.648 240.887 238.064 240.523C237.486 240.16 237.023 239.674 236.675 239.065C236.332 238.451 236.161 237.773 236.161 237.03C236.161 236.468 236.26 235.943 236.46 235.457C236.66 234.965 236.933 234.536 237.281 234.167C237.635 233.793 238.044 233.502 238.51 233.292C238.975 233.082 239.472 232.977 239.999 232.977C240.567 232.977 241.089 233.09 241.565 233.315C242.046 233.54 242.458 233.855 242.801 234.259C243.149 234.663 243.41 235.137 243.584 235.679C243.763 236.222 243.837 236.808 243.807 237.437H237.297C237.358 237.924 237.512 238.359 237.757 238.742C238.008 239.126 238.326 239.431 238.709 239.656C239.098 239.876 239.528 239.989 239.999 239.994C240.511 239.994 240.971 239.861 241.381 239.595C241.795 239.328 242.128 238.962 242.379 238.497L243.469 238.75C243.162 239.431 242.699 239.989 242.079 240.424C241.46 240.854 240.767 241.068 239.999 241.068ZM237.266 236.57H242.724C242.689 236.094 242.543 235.659 242.287 235.265C242.036 234.866 241.711 234.548 241.312 234.313C240.913 234.072 240.475 233.952 239.999 233.952C239.523 233.952 239.088 234.07 238.694 234.305C238.3 234.536 237.977 234.85 237.727 235.249C237.476 235.644 237.322 236.084 237.266 236.57ZM245.024 241.729L245.5 239.134H246.574L245.738 241.729H245.024ZM252.674 240.869L254.754 230.121H255.538L258.547 238.028L261.541 230.121H262.324L264.412 240.869H263.314L261.725 232.647L258.885 240.163H258.194L255.353 232.647L253.764 240.869H252.674ZM272.237 233.192H273.312V240.869H272.237L272.199 239.441C271.948 239.927 271.597 240.321 271.147 240.623C270.697 240.92 270.159 241.068 269.535 241.068C268.972 241.068 268.445 240.964 267.953 240.754C267.462 240.539 267.03 240.245 266.656 239.871C266.282 239.497 265.991 239.065 265.781 238.574C265.571 238.082 265.466 237.555 265.466 236.992C265.466 236.439 265.568 235.92 265.773 235.434C265.983 234.948 266.27 234.52 266.633 234.152C267.002 233.783 267.426 233.497 267.907 233.292C268.394 233.082 268.913 232.977 269.466 232.977C270.105 232.977 270.663 233.131 271.139 233.438C271.615 233.74 271.994 234.136 272.275 234.628L272.237 233.192ZM269.512 240.024C270.059 240.024 270.53 239.891 270.924 239.625C271.318 239.354 271.62 238.991 271.83 238.535C272.045 238.08 272.153 237.578 272.153 237.03C272.153 236.468 272.045 235.961 271.83 235.51C271.615 235.055 271.311 234.694 270.917 234.428C270.523 234.162 270.054 234.029 269.512 234.029C268.969 234.029 268.473 234.164 268.023 234.436C267.577 234.702 267.222 235.063 266.955 235.518C266.694 235.974 266.564 236.478 266.564 237.03C266.564 237.588 266.7 238.095 266.971 238.55C267.242 239.001 267.6 239.359 268.046 239.625C268.496 239.891 268.985 240.024 269.512 240.024ZM281.93 236.117V240.869H280.855V236.332C280.855 235.912 280.753 235.531 280.548 235.188C280.344 234.845 280.07 234.571 279.727 234.367C279.384 234.162 279.003 234.06 278.583 234.06C278.169 234.06 277.787 234.162 277.439 234.367C277.096 234.571 276.823 234.845 276.618 235.188C276.413 235.531 276.311 235.912 276.311 236.332V240.869H275.236V229.354H276.311V234.251C276.582 233.863 276.935 233.553 277.37 233.323C277.805 233.092 278.279 232.977 278.79 232.977C279.369 232.977 279.896 233.118 280.372 233.399C280.848 233.681 281.227 234.06 281.508 234.536C281.789 235.011 281.93 235.539 281.93 236.117ZM289.911 233.192H290.986V240.869H289.911L289.873 239.441C289.622 239.927 289.271 240.321 288.821 240.623C288.371 240.92 287.833 241.068 287.209 241.068C286.646 241.068 286.119 240.964 285.627 240.754C285.136 240.539 284.704 240.245 284.33 239.871C283.956 239.497 283.665 239.065 283.455 238.574C283.245 238.082 283.14 237.555 283.14 236.992C283.14 236.439 283.242 235.92 283.447 235.434C283.657 234.948 283.944 234.52 284.307 234.152C284.676 233.783 285.1 233.497 285.581 233.292C286.068 233.082 286.587 232.977 287.14 232.977C287.779 232.977 288.337 233.131 288.813 233.438C289.289 233.74 289.668 234.136 289.949 234.628L289.911 233.192ZM287.186 240.024C287.733 240.024 288.204 239.891 288.598 239.625C288.992 239.354 289.294 238.991 289.504 238.535C289.719 238.08 289.827 237.578 289.827 237.03C289.827 236.468 289.719 235.961 289.504 235.51C289.289 235.055 288.985 234.694 288.591 234.428C288.197 234.162 287.728 234.029 287.186 234.029C286.643 234.029 286.147 234.164 285.697 234.436C285.251 234.702 284.896 235.063 284.629 235.518C284.368 235.974 284.238 236.478 284.238 237.03C284.238 237.588 284.374 238.095 284.645 238.55C284.916 239.001 285.274 239.359 285.72 239.625C286.17 239.891 286.659 240.024 287.186 240.024ZM292.805 240.869V233.192H293.88V234.251C294.151 233.863 294.504 233.553 294.939 233.323C295.374 233.092 295.848 232.977 296.359 232.977C296.656 232.977 296.943 233.016 297.219 233.092L296.782 234.159C296.567 234.093 296.357 234.06 296.152 234.06C295.738 234.06 295.356 234.162 295.008 234.367C294.665 234.571 294.392 234.845 294.187 235.188C293.982 235.531 293.88 235.912 293.88 236.332V240.869H292.805ZM304.376 233.192H305.451V240.869H304.376L304.338 239.441C304.087 239.927 303.737 240.321 303.286 240.623C302.836 240.92 302.299 241.068 301.674 241.068C301.111 241.068 300.584 240.964 300.093 240.754C299.601 240.539 299.169 240.245 298.795 239.871C298.422 239.497 298.13 239.065 297.92 238.574C297.71 238.082 297.605 237.555 297.605 236.992C297.605 236.439 297.708 235.92 297.913 235.434C298.122 234.948 298.409 234.52 298.772 234.152C299.141 233.783 299.566 233.497 300.047 233.292C300.533 233.082 301.052 232.977 301.605 232.977C302.245 232.977 302.803 233.131 303.279 233.438C303.755 233.74 304.133 234.136 304.415 234.628L304.376 233.192ZM301.651 240.024C302.199 240.024 302.67 239.891 303.064 239.625C303.458 239.354 303.76 238.991 303.97 238.535C304.184 238.08 304.292 237.578 304.292 237.03C304.292 236.468 304.184 235.961 303.97 235.51C303.755 235.055 303.45 234.694 303.056 234.428C302.662 234.162 302.194 234.029 301.651 234.029C301.109 234.029 300.612 234.164 300.162 234.436C299.717 234.702 299.361 235.063 299.095 235.518C298.834 235.974 298.703 236.478 298.703 237.03C298.703 237.588 298.839 238.095 299.11 238.55C299.381 239.001 299.74 239.359 300.185 239.625C300.635 239.891 301.124 240.024 301.651 240.024ZM309.643 241.015C309.223 241.005 308.813 240.928 308.414 240.784C308.015 240.641 307.667 240.447 307.37 240.201C307.073 239.955 306.861 239.676 306.733 239.364L307.662 238.965C307.744 239.165 307.895 239.349 308.115 239.518C308.34 239.682 308.596 239.815 308.883 239.917C309.169 240.014 309.453 240.063 309.735 240.063C310.047 240.063 310.339 240.012 310.61 239.909C310.881 239.807 311.101 239.661 311.27 239.472C311.444 239.277 311.531 239.049 311.531 238.788C311.531 238.507 311.439 238.287 311.255 238.128C311.07 237.964 310.838 237.837 310.556 237.744C310.275 237.647 309.985 237.555 309.689 237.468C309.146 237.32 308.668 237.156 308.253 236.977C307.839 236.798 307.514 236.57 307.278 236.294C307.048 236.012 306.933 235.651 306.933 235.211C306.933 234.745 307.063 234.344 307.324 234.006C307.59 233.663 307.936 233.399 308.361 233.215C308.79 233.026 309.248 232.931 309.735 232.931C310.359 232.931 310.927 233.067 311.439 233.338C311.956 233.609 312.329 233.97 312.56 234.42L311.692 234.935C311.6 234.725 311.454 234.543 311.255 234.39C311.055 234.236 310.827 234.116 310.571 234.029C310.321 233.942 310.065 233.896 309.804 233.891C309.476 233.886 309.172 233.934 308.89 234.037C308.609 234.134 308.381 234.28 308.207 234.474C308.038 234.669 307.954 234.907 307.954 235.188C307.954 235.47 308.038 235.684 308.207 235.833C308.376 235.976 308.604 236.094 308.89 236.186C309.182 236.273 309.509 236.375 309.873 236.493C310.339 236.642 310.776 236.81 311.186 237C311.595 237.189 311.925 237.425 312.176 237.706C312.427 237.988 312.55 238.343 312.544 238.773C312.544 239.234 312.406 239.635 312.13 239.978C311.853 240.321 311.495 240.585 311.055 240.769C310.615 240.948 310.144 241.03 309.643 241.015ZM320.845 236.117V240.869H319.77V236.332C319.77 235.912 319.668 235.531 319.463 235.188C319.258 234.845 318.985 234.571 318.642 234.367C318.299 234.162 317.917 234.06 317.498 234.06C317.083 234.06 316.702 234.162 316.354 234.367C316.011 234.571 315.737 234.845 315.533 235.188C315.328 235.531 315.225 235.912 315.225 236.332V240.869H314.151V229.354H315.225V234.251C315.497 233.863 315.85 233.553 316.285 233.323C316.72 233.092 317.193 232.977 317.705 232.977C318.283 232.977 318.811 233.118 319.287 233.399C319.762 233.681 320.141 234.06 320.423 234.536C320.704 235.011 320.845 235.539 320.845 236.117ZM326.588 234.267H324.753L324.746 240.869H323.671L323.679 234.267H322.289V233.192H323.679L323.671 230.782H324.746L324.753 233.192H326.588V234.267ZM328.241 240.869V233.192H329.316V234.251C329.587 233.863 329.94 233.553 330.375 233.323C330.81 233.092 331.284 232.977 331.796 232.977C332.092 232.977 332.379 233.016 332.655 233.092L332.218 234.159C332.003 234.093 331.793 234.06 331.588 234.06C331.174 234.06 330.792 234.162 330.444 234.367C330.102 234.571 329.828 234.845 329.623 235.188C329.418 235.531 329.316 235.912 329.316 236.332V240.869H328.241ZM339.813 233.192H340.887V240.869H339.813L339.774 239.441C339.523 239.927 339.173 240.321 338.722 240.623C338.272 240.92 337.735 241.068 337.11 241.068C336.547 241.068 336.02 240.964 335.529 240.754C335.038 240.539 334.605 240.245 334.231 239.871C333.858 239.497 333.566 239.065 333.356 238.574C333.146 238.082 333.042 237.555 333.042 236.992C333.042 236.439 333.144 235.92 333.349 235.434C333.558 234.948 333.845 234.52 334.208 234.152C334.577 233.783 335.002 233.497 335.483 233.292C335.969 233.082 336.488 232.977 337.041 232.977C337.681 232.977 338.239 233.131 338.715 233.438C339.191 233.74 339.569 234.136 339.851 234.628L339.813 233.192ZM337.087 240.024C337.635 240.024 338.106 239.891 338.5 239.625C338.894 239.354 339.196 238.991 339.406 238.535C339.621 238.08 339.728 237.578 339.728 237.03C339.728 236.468 339.621 235.961 339.406 235.51C339.191 235.055 338.886 234.694 338.492 234.428C338.098 234.162 337.63 234.029 337.087 234.029C336.545 234.029 336.048 234.164 335.598 234.436C335.153 234.702 334.797 235.063 334.531 235.518C334.27 235.974 334.139 236.478 334.139 237.03C334.139 237.588 334.275 238.095 334.546 238.55C334.817 239.001 335.176 239.359 335.621 239.625C336.071 239.891 336.56 240.024 337.087 240.024ZM342.399 241.729L342.875 239.134H343.95L343.113 241.729H342.399ZM350.28 240.869V230.121H351.355V240.869H350.28ZM360.401 236.117V240.869H359.326V236.332C359.326 235.912 359.224 235.531 359.019 235.188C358.814 234.845 358.54 234.571 358.197 234.367C357.854 234.162 357.473 234.06 357.054 234.06C356.639 234.06 356.258 234.162 355.91 234.367C355.567 234.571 355.293 234.845 355.088 235.188C354.884 235.531 354.781 235.912 354.781 236.332V240.869H353.706V233.192H354.781V234.251C355.052 233.863 355.406 233.553 355.841 233.323C356.276 233.092 356.749 232.977 357.261 232.977C357.839 232.977 358.366 233.118 358.842 233.399C359.318 233.681 359.697 234.06 359.978 234.536C360.26 235.011 360.401 235.539 360.401 236.117ZM368.389 229.354H369.464V240.869H368.389V239.433C368.123 239.925 367.757 240.321 367.291 240.623C366.831 240.92 366.283 241.068 365.649 241.068C365.091 241.068 364.569 240.964 364.082 240.754C363.596 240.544 363.166 240.255 362.793 239.886C362.424 239.513 362.135 239.083 361.925 238.597C361.715 238.11 361.611 237.588 361.611 237.03C361.611 236.473 361.715 235.951 361.925 235.464C362.135 234.973 362.424 234.543 362.793 234.175C363.166 233.801 363.596 233.509 364.082 233.3C364.569 233.09 365.091 232.985 365.649 232.985C366.283 232.985 366.831 233.136 367.291 233.438C367.757 233.735 368.123 234.126 368.389 234.612V229.354ZM365.656 240.024C366.204 240.024 366.675 239.891 367.069 239.625C367.463 239.354 367.765 238.991 367.975 238.535C368.19 238.08 368.297 237.578 368.297 237.03C368.297 236.468 368.19 235.961 367.975 235.51C367.76 235.055 367.455 234.694 367.061 234.428C366.667 234.162 366.199 234.029 365.656 234.029C365.114 234.029 364.62 234.164 364.175 234.436C363.729 234.702 363.374 235.063 363.108 235.518C362.841 235.974 362.708 236.478 362.708 237.03C362.708 237.588 362.844 238.095 363.115 238.55C363.386 239.001 363.745 239.359 364.19 239.625C364.64 239.891 365.129 240.024 365.656 240.024ZM371.59 233.192H372.665V240.869H371.59V233.192ZM372.135 231.849C371.961 231.849 371.813 231.792 371.69 231.68C371.572 231.562 371.514 231.416 371.514 231.242C371.514 231.068 371.572 230.925 371.69 230.812C371.813 230.695 371.961 230.636 372.135 230.636C372.304 230.636 372.448 230.695 372.565 230.812C372.688 230.925 372.75 231.068 372.75 231.242C372.75 231.416 372.691 231.562 372.573 231.68C372.455 231.792 372.309 231.849 372.135 231.849ZM381.033 233.192H382.107V240.869H381.033L380.994 239.441C380.743 239.927 380.393 240.321 379.942 240.623C379.492 240.92 378.955 241.068 378.33 241.068C377.767 241.068 377.24 240.964 376.749 240.754C376.258 240.539 375.825 240.245 375.451 239.871C375.078 239.497 374.786 239.065 374.576 238.574C374.367 238.082 374.262 237.555 374.262 236.992C374.262 236.439 374.364 235.92 374.569 235.434C374.778 234.948 375.065 234.52 375.428 234.152C375.797 233.783 376.222 233.497 376.703 233.292C377.189 233.082 377.708 232.977 378.261 232.977C378.901 232.977 379.459 233.131 379.935 233.438C380.411 233.74 380.789 234.136 381.071 234.628L381.033 233.192ZM378.307 240.024C378.855 240.024 379.326 239.891 379.72 239.625C380.114 239.354 380.416 238.991 380.626 238.535C380.841 238.08 380.948 237.578 380.948 237.03C380.948 236.468 380.841 235.961 380.626 235.51C380.411 235.055 380.106 234.694 379.712 234.428C379.318 234.162 378.85 234.029 378.307 234.029C377.765 234.029 377.268 234.164 376.818 234.436C376.373 234.702 376.017 235.063 375.751 235.518C375.49 235.974 375.359 236.478 375.359 237.03C375.359 237.588 375.495 238.095 375.766 238.55C376.037 239.001 376.396 239.359 376.841 239.625C377.291 239.891 377.78 240.024 378.307 240.024ZM384.226 241.068C384.057 241.068 383.914 241.007 383.796 240.884C383.678 240.767 383.619 240.621 383.619 240.447C383.619 240.283 383.678 240.142 383.796 240.024C383.914 239.902 384.057 239.84 384.226 239.84C384.4 239.84 384.546 239.902 384.664 240.024C384.786 240.142 384.848 240.283 384.848 240.447C384.848 240.621 384.786 240.767 384.664 240.884C384.546 241.007 384.4 241.068 384.226 241.068Z" fill="#555770"/>
<g filter="url(#filter4_d_437_10452)">
<path d="M547.354 177.354H537.714C535.584 177.354 533.854 179.094 533.854 181.214V195.304C533.854 197.104 535.144 197.864 536.724 196.994L541.604 194.284C542.124 193.994 542.964 193.994 543.474 194.284L548.354 196.994C549.934 197.874 551.224 197.114 551.224 195.304V181.214C551.214 179.094 549.484 177.354 547.354 177.354Z" fill="#C7C4FF" stroke="#3D4754" stroke-width="1.5" stroke-linecap="round" stroke-linejoin="round"/>
<path d="M541.687 188.289C541.497 188.289 541.307 188.219 541.157 188.069L539.657 186.569C539.367 186.279 539.367 185.799 539.657 185.509C539.947 185.219 540.427 185.219 540.717 185.509L541.687 186.479L545.157 183.009C545.447 182.719 545.927 182.719 546.217 183.009C546.507 183.299 546.507 183.779 546.217 184.069L542.217 188.069C542.067 188.219 541.877 188.289 541.687 188.289Z" fill="#3D4754"/>
</g>
<path d="M533.809 241.354V238.751H529.233V236.87L533.371 230.606H535.682V236.878H536.588V238.751H535.682V241.354H533.809ZM531.406 236.87L533.809 236.878L533.801 233.162L531.406 236.87ZM545.747 236.502V241.354H543.874V236.993C543.874 236.691 543.799 236.417 543.651 236.172C543.502 235.921 543.303 235.724 543.052 235.581C542.806 235.432 542.533 235.358 542.231 235.358C541.929 235.358 541.652 235.432 541.402 235.581C541.156 235.724 540.959 235.921 540.81 236.172C540.667 236.417 540.596 236.691 540.596 236.993V241.354H538.722L538.715 229.838H540.588L540.596 234.36C540.857 234.084 541.169 233.866 541.532 233.708C541.895 233.544 542.287 233.462 542.707 233.462C543.265 233.462 543.774 233.6 544.234 233.876C544.695 234.148 545.061 234.514 545.332 234.974C545.609 235.43 545.747 235.939 545.747 236.502ZM547.567 241.354L547.559 233.677H549.432L549.44 234.36C549.701 234.084 550.013 233.866 550.377 233.708C550.74 233.544 551.131 233.462 551.551 233.462C551.833 233.462 552.114 233.503 552.396 233.585L551.659 235.473C551.464 235.396 551.27 235.358 551.075 235.358C550.773 235.358 550.497 235.432 550.246 235.581C550 235.724 549.803 235.921 549.655 236.172C549.512 236.417 549.44 236.691 549.44 236.993V241.354H547.567Z" fill="#06C270"/>
<path d="M129.566 285.456H573.566C575.362 285.456 576.818 286.912 576.818 288.707V381.415C576.818 383.21 575.362 384.666 573.566 384.666H129.566C127.771 384.666 126.315 383.21 126.315 381.415V288.707C126.315 286.912 127.771 285.456 129.566 285.456Z" fill="white"/>
<path d="M129.566 285.456H573.566C575.362 285.456 576.818 286.912 576.818 288.707V381.415C576.818 383.21 575.362 384.666 573.566 384.666H129.566C127.771 384.666 126.315 383.21 126.315 381.415V288.707C126.315 286.912 127.771 285.456 129.566 285.456Z" stroke="#E8E8E8" stroke-width="1.49698"/>
<rect x="147.149" y="300.533" width="40.5689" height="40.5689" rx="3.36668" stroke="#3A2A2A" stroke-width="0.943463"/>
<path d="M164.421 310.785H155.852V331.195L164.421 310.785Z" fill="#FF0000"/>
<path d="M170.449 310.785H179.007V331.195L170.449 310.785Z" fill="#FF0000"/>
<path d="M167.435 318.307L172.889 331.195H169.311L167.681 327.092H163.689L167.435 318.307Z" fill="#FF0000"/>
<path d="M217.461 319.321C216.687 319.321 215.944 319.201 215.231 318.961C214.524 318.714 213.904 318.364 213.371 317.911C212.837 317.451 212.454 316.901 212.221 316.261L214.511 315.421C214.604 315.688 214.794 315.931 215.081 316.151C215.367 316.371 215.717 316.548 216.131 316.681C216.544 316.814 216.987 316.881 217.461 316.881C217.947 316.881 218.401 316.808 218.821 316.661C219.247 316.508 219.591 316.298 219.851 316.031C220.111 315.758 220.241 315.441 220.241 315.081C220.241 314.714 220.104 314.414 219.831 314.181C219.557 313.941 219.207 313.751 218.781 313.611C218.354 313.471 217.914 313.364 217.461 313.291C216.467 313.138 215.577 312.901 214.791 312.581C214.004 312.261 213.381 311.818 212.921 311.251C212.467 310.684 212.241 309.951 212.241 309.051C212.241 308.204 212.484 307.464 212.971 306.831C213.457 306.198 214.097 305.704 214.891 305.351C215.684 304.998 216.541 304.821 217.461 304.821C218.227 304.821 218.967 304.941 219.681 305.181C220.394 305.421 221.017 305.771 221.551 306.231C222.091 306.691 222.477 307.244 222.711 307.891L220.411 308.721C220.317 308.454 220.127 308.211 219.841 307.991C219.554 307.771 219.204 307.598 218.791 307.471C218.377 307.338 217.934 307.271 217.461 307.271C216.987 307.264 216.537 307.341 216.111 307.501C215.691 307.654 215.347 307.864 215.081 308.131C214.814 308.398 214.681 308.704 214.681 309.051C214.681 309.498 214.804 309.834 215.051 310.061C215.304 310.288 215.641 310.454 216.061 310.561C216.481 310.661 216.947 310.754 217.461 310.841C218.394 310.988 219.257 311.234 220.051 311.581C220.844 311.928 221.481 312.391 221.961 312.971C222.441 313.544 222.681 314.248 222.681 315.081C222.681 315.928 222.441 316.671 221.961 317.311C221.481 317.944 220.844 318.438 220.051 318.791C219.257 319.144 218.394 319.321 217.461 319.321ZM225.243 319.061V305.061H229.883C230.849 305.061 231.753 305.244 232.593 305.611C233.439 305.971 234.183 306.474 234.823 307.121C235.469 307.761 235.973 308.504 236.333 309.351C236.699 310.191 236.883 311.094 236.883 312.061C236.883 313.028 236.699 313.934 236.333 314.781C235.973 315.621 235.469 316.364 234.823 317.011C234.183 317.651 233.439 318.154 232.593 318.521C231.753 318.881 230.849 319.061 229.883 319.061H225.243ZM227.683 316.621H229.883C230.503 316.621 231.086 316.504 231.633 316.271C232.186 316.031 232.673 315.704 233.093 315.291C233.513 314.871 233.843 314.388 234.083 313.841C234.323 313.288 234.443 312.694 234.443 312.061C234.443 311.428 234.323 310.838 234.083 310.291C233.843 309.744 233.513 309.261 233.093 308.841C232.673 308.421 232.189 308.094 231.643 307.861C231.096 307.621 230.509 307.501 229.883 307.501H227.683V316.621ZM238.788 319.061V305.061H247.568V307.501H241.228V310.341H246.258V312.781H241.228V316.621H247.568V319.061H238.788ZM255.435 319.061V305.061H257.875V319.061H255.435ZM261.167 319.061V305.061H263.607V319.061H261.167Z" fill="#3A2A2A"/>
<g filter="url(#filter5_d_437_10452)">
<path d="M549.354 302.061H539.714C537.584 302.061 535.854 303.801 535.854 305.921V320.011C535.854 321.811 537.144 322.571 538.724 321.701L543.604 318.991C544.124 318.701 544.964 318.701 545.474 318.991L550.354 321.701C551.934 322.581 553.224 321.821 553.224 320.011V305.921C553.214 303.801 551.484 302.061 549.354 302.061Z" fill="#C7C4FF" stroke="#3D4754" stroke-width="1.5" stroke-linecap="round" stroke-linejoin="round"/>
<path d="M543.687 312.996C543.497 312.996 543.307 312.926 543.157 312.776L541.657 311.276C541.367 310.986 541.367 310.506 541.657 310.216C541.947 309.926 542.427 309.926 542.717 310.216L543.687 311.186L547.157 307.716C547.447 307.426 547.927 307.426 548.217 307.716C548.507 308.006 548.507 308.486 548.217 308.776L544.217 312.776C544.067 312.926 543.877 312.996 543.687 312.996Z" fill="#3D4754"/>
</g>
</g>
<path d="M590.446 334.95L572.041 234.001L580.084 231.56L601.693 334.95H590.446Z" fill="white" stroke="#10380B" stroke-width="2.34096" stroke-miterlimit="10"/>
<path d="M581.405 282.281L542.975 272.124L533.025 256.809L548.588 247.947L576.646 256.416" fill="#BDA6FF"/>
<path d="M581.405 282.281L542.975 272.124L533.025 256.809L548.588 247.947L576.646 256.415" stroke="#10380B" stroke-width="2.34096" stroke-miterlimit="10"/>
<path d="M593.798 293.98L638.899 278.522L649.404 261.876L630.695 255.613L589.021 270.423" fill="#BDA6FF"/>
<path d="M593.798 293.98L638.899 278.522L649.404 261.876L630.695 255.613L589.021 270.423" stroke="#10380B" stroke-width="2.34096" stroke-miterlimit="10"/>
<path d="M649.403 261.931L644.217 260.644L634.184 275.039L592.795 289.022L594.884 292.723L639.092 278.56L649.403 261.931Z" fill="#10380B"/>
<path d="M607.335 288.687L593.182 268.635L589.188 270.863L593.655 293.589L607.335 288.687Z" fill="#10380B"/>
<path d="M574.037 255.323L573.286 274.978L543.17 271.204L581.538 282.107L576.589 254.189L574.037 255.323Z" fill="#10380B"/>
<path d="M578.959 232.341L588.197 279.241L597.531 334.742L602.86 334.863L581.016 231.95L578.959 232.341Z" fill="#10380B"/>
<path d="M533.805 334.95H609.105C610.169 334.95 611.36 334.485 612.245 333.252C613.761 331.14 615.682 330.772 617.355 332.27L618.678 333.455C619.889 334.543 621.251 334.659 622.503 333.789L628.405 329.675C629.838 328.678 631.404 328.982 632.725 330.516C636.331 334.702 640.779 334.95 644.903 334.95H662.167" stroke="#10380B" stroke-width="2.34096" stroke-miterlimit="10"/>
<path d="M583.999 328.717L579.4 334.234L572.678 324.799" stroke="#10380B" stroke-width="2.34096" stroke-miterlimit="10"/>
<path d="M90.1255 335.249C90.1255 335.249 79.1997 325.359 75.6523 290.6" stroke="#10380B" stroke-width="2.47266" stroke-miterlimit="10"/>
<path d="M68.8418 295.404C68.8418 295.404 73.0984 302.045 77.497 304.447" stroke="#10380B" stroke-width="2.47266" stroke-miterlimit="10"/>
<path d="M91.5444 286.22C91.5444 286.22 90.693 316.74 93.2473 335.108" stroke="#10380B" stroke-width="2.47266" stroke-miterlimit="10"/>
<path d="M84.0234 287.209C84.0234 287.209 85.7263 296.675 91.1175 302.044" stroke="#10380B" stroke-width="2.47266" stroke-miterlimit="10"/>
<path d="M98.3543 303.882L91.8281 314.479" stroke="#10380B" stroke-width="2.47266" stroke-miterlimit="10"/>
<path d="M84.4492 314.902L91.9002 321.249" stroke="#10380B" stroke-width="2.47266" stroke-miterlimit="10"/>
<path d="M62.6406 304.353C62.6406 304.353 68.3616 323.247 84.0703 335.261" stroke="#10380B" stroke-width="2.47266" stroke-miterlimit="10"/>
<path d="M74.5176 318.859L83.6584 324.546" stroke="#10380B" stroke-width="2.47266" stroke-miterlimit="10"/>
<path d="M61.8906 322.109L73.3833 324.369" stroke="#10380B" stroke-width="2.47266" stroke-miterlimit="10"/>
<path d="M104.883 287.633C104.883 287.633 99.6328 316.598 97.7891 334.402" stroke="#10380B" stroke-width="2.47266" stroke-miterlimit="10"/>
<path d="M112.685 292.153L102.469 300.914" stroke="#10380B" stroke-width="2.47266" stroke-miterlimit="10"/>
<path d="M99.6309 286.361L103.462 296.392" stroke="#10380B" stroke-width="2.47266" stroke-miterlimit="10"/>
<path d="M107.72 313.913L99.7734 319.282" stroke="#10380B" stroke-width="2.47266" stroke-miterlimit="10"/>
<path d="M120.205 297.523C120.205 297.523 109.989 326.347 99.3477 335.107" stroke="#10380B" stroke-width="2.47266" stroke-miterlimit="10"/>
<path d="M109.99 305.577L111.55 318.011" stroke="#10380B" stroke-width="2.47266" stroke-miterlimit="10"/>
<path d="M122.903 304.73L115.666 308.403" stroke="#10380B" stroke-width="2.47266" stroke-miterlimit="10"/>
<path d="M105.5 335.261C105.5 335.261 121.341 325.743 133.523 308.474" stroke="#10380B" stroke-width="2.47266" stroke-miterlimit="10"/>
<path d="M115.24 320.978L114.154 329.491" stroke="#10380B" stroke-width="2.47266" stroke-miterlimit="10"/>
<path d="M125.029 308.827L124.887 318.294L137.232 310.946" stroke="#10380B" stroke-width="2.47266" stroke-miterlimit="10"/>
<path d="M117.863 335.261C117.863 335.261 127.787 331.725 134.348 324.958" stroke="#10380B" stroke-width="2.47266" stroke-miterlimit="10"/>
<path d="M127.301 322.25L127.443 329.88L136.381 330.303" stroke="#10380B" stroke-width="2.47266" stroke-miterlimit="10"/>
<path d="M53.5742 324.134C53.5742 324.134 66.5512 333.792 75.8281 335.261" stroke="#10380B" stroke-width="2.47266" stroke-miterlimit="10"/>
<path d="M53.5742 329.491L63.0527 330.315" stroke="#10380B" stroke-width="2.47266" stroke-miterlimit="10"/>
<path d="M0 335.261H172.262" stroke="#10380B" stroke-width="2.47266"/>
<defs>
<filter id="filter0_d_437_10452" x="97.5664" y="38" width="511" height="298" filterUnits="userSpaceOnUse" color-interpolation-filters="sRGB">
<feFlood flood-opacity="0" result="BackgroundImageFix"/>
<feColorMatrix in="SourceAlpha" type="matrix" values="0 0 0 0 0 0 0 0 0 0 0 0 0 0 0 0 0 0 127 0" result="hardAlpha"/>
<feOffset dx="4" dy="4"/>
<feComposite in2="hardAlpha" operator="out"/>
<feColorMatrix type="matrix" values="0 0 0 0 0 0 0 0 0 0 0 0 0 0 0 0 0 0 1 0"/>
<feBlend mode="normal" in2="BackgroundImageFix" result="effect1_dropShadow_437_10452"/>
<feBlend mode="normal" in="SourceGraphic" in2="effect1_dropShadow_437_10452" result="shape"/>
</filter>
<filter id="filter1_d_437_10452" x="121.566" y="16" width="100.106" height="47.1057" filterUnits="userSpaceOnUse" color-interpolation-filters="sRGB">
<feFlood flood-opacity="0" result="BackgroundImageFix"/>
<feColorMatrix in="SourceAlpha" type="matrix" values="0 0 0 0 0 0 0 0 0 0 0 0 0 0 0 0 0 0 127 0" result="hardAlpha"/>
<feOffset dx="3.10569" dy="3.10569"/>
<feComposite in2="hardAlpha" operator="out"/>
<feColorMatrix type="matrix" values="0 0 0 0 0 0 0 0 0 0 0 0 0 0 0 0 0 0 1 0"/>
<feBlend mode="normal" in2="BackgroundImageFix" result="effect1_dropShadow_437_10452"/>
<feBlend mode="normal" in="SourceGraphic" in2="effect1_dropShadow_437_10452" result="shape"/>
</filter>
<filter id="filter2_d_437_10452" x="234.566" y="16" width="114.106" height="47.1057" filterUnits="userSpaceOnUse" color-interpolation-filters="sRGB">
<feFlood flood-opacity="0" result="BackgroundImageFix"/>
<feColorMatrix in="SourceAlpha" type="matrix" values="0 0 0 0 0 0 0 0 0 0 0 0 0 0 0 0 0 0 127 0" result="hardAlpha"/>
<feOffset dx="3.10569" dy="3.10569"/>
<feComposite in2="hardAlpha" operator="out"/>
<feColorMatrix type="matrix" values="0 0 0 0 0 0 0 0 0 0 0 0 0 0 0 0 0 0 1 0"/>
<feBlend mode="normal" in2="BackgroundImageFix" result="effect1_dropShadow_437_10452"/>
<feBlend mode="normal" in="SourceGraphic" in2="effect1_dropShadow_437_10452" result="shape"/>
</filter>
<filter id="filter3_d_437_10452" x="361.566" y="16" width="171.106" height="47.1057" filterUnits="userSpaceOnUse" color-interpolation-filters="sRGB">
<feFlood flood-opacity="0" result="BackgroundImageFix"/>
<feColorMatrix in="SourceAlpha" type="matrix" values="0 0 0 0 0 0 0 0 0 0 0 0 0 0 0 0 0 0 127 0" result="hardAlpha"/>
<feOffset dx="3.10569" dy="3.10569"/>
<feComposite in2="hardAlpha" operator="out"/>
<feColorMatrix type="matrix" values="0 0 0 0 0 0 0 0 0 0 0 0 0 0 0 0 0 0 1 0"/>
<feBlend mode="normal" in2="BackgroundImageFix" result="effect1_dropShadow_437_10452"/>
<feBlend mode="normal" in="SourceGraphic" in2="effect1_dropShadow_437_10452" result="shape"/>
</filter>
<filter id="filter4_d_437_10452" x="533.104" y="176.604" width="21.9748" height="24.6126" filterUnits="userSpaceOnUse" color-interpolation-filters="sRGB">
<feFlood flood-opacity="0" result="BackgroundImageFix"/>
<feColorMatrix in="SourceAlpha" type="matrix" values="0 0 0 0 0 0 0 0 0 0 0 0 0 0 0 0 0 0 127 0" result="hardAlpha"/>
<feOffset dx="3.10569" dy="3.10569"/>
<feComposite in2="hardAlpha" operator="out"/>
<feColorMatrix type="matrix" values="0 0 0 0 0 0 0 0 0 0 0 0 0 0 0 0 0 0 1 0"/>
<feBlend mode="normal" in2="BackgroundImageFix" result="effect1_dropShadow_437_10452"/>
<feBlend mode="normal" in="SourceGraphic" in2="effect1_dropShadow_437_10452" result="shape"/>
</filter>
<filter id="filter5_d_437_10452" x="535.104" y="301.311" width="21.9748" height="24.6126" filterUnits="userSpaceOnUse" color-interpolation-filters="sRGB">
<feFlood flood-opacity="0" result="BackgroundImageFix"/>
<feColorMatrix in="SourceAlpha" type="matrix" values="0 0 0 0 0 0 0 0 0 0 0 0 0 0 0 0 0 0 127 0" result="hardAlpha"/>
<feOffset dx="3.10569" dy="3.10569"/>
<feComposite in2="hardAlpha" operator="out"/>
<feColorMatrix type="matrix" values="0 0 0 0 0 0 0 0 0 0 0 0 0 0 0 0 0 0 1 0"/>
<feBlend mode="normal" in2="BackgroundImageFix" result="effect1_dropShadow_437_10452"/>
<feBlend mode="normal" in="SourceGraphic" in2="effect1_dropShadow_437_10452" result="shape"/>
</filter>
<clipPath id="clip0_437_10452">
<rect width="443" height="76" fill="white" transform="translate(97.5664)"/>
</clipPath>
<clipPath id="clip1_437_10452">
<rect width="500" height="255" fill="white" transform="translate(101.566 76)"/>
</clipPath>
</defs>
</svg>
