<svg width="723" height="365" viewBox="0 0 723 365" fill="none" xmlns="http://www.w3.org/2000/svg">
<g filter="url(#filter0_d_301_6434)">
<rect x="114" y="32.9922" width="507" height="326.942" rx="16" fill="white" shape-rendering="crispEdges"/>
<rect x="116" y="34.9922" width="503" height="322.942" rx="14" stroke="black" stroke-width="4" shape-rendering="crispEdges"/>
<g clip-path="url(#clip0_301_6434)">
<path d="M144.427 82.3438V85.1951H149.025V87.8455H144.427V90.9377H149.627V93.6886H140.993V79.593H149.627V82.3438H144.427ZM150.692 88.0664C150.692 86.9152 150.906 85.9046 151.334 85.0345C151.776 84.1644 152.371 83.4951 153.121 83.0265C153.871 82.558 154.707 82.3238 155.631 82.3238C156.421 82.3238 157.11 82.4844 157.699 82.8057C158.302 83.1269 158.763 83.5486 159.085 84.0707V82.4844H162.518V93.6886H159.085V92.1023C158.75 92.6244 158.281 93.0461 157.679 93.3673C157.09 93.6886 156.401 93.8492 155.611 93.8492C154.701 93.8492 153.871 93.615 153.121 93.1465C152.371 92.6646 151.776 91.9886 151.334 91.1185C150.906 90.235 150.692 89.2176 150.692 88.0664ZM159.085 88.0865C159.085 87.2298 158.844 86.5538 158.362 86.0585C157.893 85.5632 157.318 85.3156 156.635 85.3156C155.952 85.3156 155.37 85.5632 154.888 86.0585C154.42 86.5404 154.185 87.2097 154.185 88.0664C154.185 88.9231 154.42 89.6058 154.888 90.1145C155.37 90.6098 155.952 90.8574 156.635 90.8574C157.318 90.8574 157.893 90.6098 158.362 90.1145C158.844 89.6192 159.085 88.9432 159.085 88.0865ZM167.954 84.3518C168.355 83.736 168.857 83.2541 169.46 82.9061C170.062 82.5446 170.731 82.3639 171.468 82.3639V85.9983H170.524C169.667 85.9983 169.025 86.1857 168.596 86.5605C168.168 86.9219 167.954 87.5644 167.954 88.4881V93.6886H164.52V82.4844H167.954V84.3518ZM179.454 82.3639C180.766 82.3639 181.81 82.7923 182.586 83.649C183.376 84.4923 183.771 85.6569 183.771 87.1428V93.6886H180.357V87.6046C180.357 86.855 180.163 86.2727 179.775 85.8577C179.387 85.4427 178.865 85.2353 178.209 85.2353C177.553 85.2353 177.031 85.4427 176.643 85.8577C176.255 86.2727 176.061 86.855 176.061 87.6046V93.6886H172.627V82.4844H176.061V83.9703C176.409 83.475 176.877 83.0868 177.466 82.8057C178.055 82.5112 178.718 82.3639 179.454 82.3639ZM205.411 79.593V93.6886H201.978V85.2353L198.825 93.6886H196.054L192.882 85.2152V93.6886H189.448V79.593H193.504L197.46 89.3515L201.375 79.593H205.411ZM212.498 93.8492C211.401 93.8492 210.41 93.615 209.527 93.1465C208.657 92.6779 207.967 92.0086 207.459 91.1385C206.963 90.2684 206.716 89.2511 206.716 88.0865C206.716 86.9353 206.97 85.9246 207.479 85.0545C207.987 84.1711 208.683 83.4951 209.567 83.0265C210.45 82.558 211.441 82.3238 212.539 82.3238C213.636 82.3238 214.627 82.558 215.51 83.0265C216.394 83.4951 217.09 84.1711 217.599 85.0545C218.107 85.9246 218.362 86.9353 218.362 88.0865C218.362 89.2377 218.101 90.2551 217.579 91.1385C217.07 92.0086 216.367 92.6779 215.47 93.1465C214.587 93.615 213.596 93.8492 212.498 93.8492ZM212.498 90.8775C213.154 90.8775 213.71 90.6366 214.165 90.1547C214.634 89.6728 214.868 88.9834 214.868 88.0865C214.868 87.1896 214.64 86.5002 214.185 86.0183C213.743 85.5364 213.195 85.2955 212.539 85.2955C211.869 85.2955 211.314 85.5364 210.872 86.0183C210.43 86.4869 210.209 87.1762 210.209 88.0865C210.209 88.9834 210.424 89.6728 210.852 90.1547C211.294 90.6366 211.843 90.8775 212.498 90.8775ZM223.135 84.3518C223.536 83.736 224.038 83.2541 224.641 82.9061C225.243 82.5446 225.912 82.3639 226.649 82.3639V85.9983H225.705C224.848 85.9983 224.206 86.1857 223.777 86.5605C223.349 86.9219 223.135 87.5644 223.135 88.4881V93.6886H219.701V82.4844H223.135V84.3518ZM238.37 87.9058C238.37 88.2271 238.35 88.5617 238.309 88.9097H230.539C230.592 89.6058 230.813 90.1413 231.201 90.5161C231.603 90.8775 232.091 91.0582 232.667 91.0582C233.524 91.0582 234.119 90.6968 234.454 89.9739H238.109C237.921 90.7102 237.58 91.3728 237.085 91.9618C236.603 92.5508 235.994 93.0126 235.257 93.3473C234.521 93.6819 233.698 93.8492 232.788 93.8492C231.69 93.8492 230.713 93.615 229.856 93.1465C228.999 92.6779 228.33 92.0086 227.848 91.1385C227.366 90.2684 227.125 89.2511 227.125 88.0865C227.125 86.9219 227.359 85.9046 227.828 85.0345C228.31 84.1644 228.979 83.4951 229.836 83.0265C230.693 82.558 231.677 82.3238 232.788 82.3238C233.872 82.3238 234.836 82.5513 235.679 83.0065C236.522 83.4616 237.178 84.1108 237.647 84.9541C238.129 85.7975 238.37 86.7814 238.37 87.9058ZM234.856 87.0022C234.856 86.4132 234.655 85.9447 234.253 85.5967C233.852 85.2486 233.35 85.0746 232.747 85.0746C232.172 85.0746 231.683 85.2419 231.282 85.5766C230.893 85.9113 230.652 86.3865 230.559 87.0022H234.856ZM242.89 86.6207C242.89 85.2286 243.191 83.9903 243.793 82.9061C244.396 81.8084 245.232 80.9584 246.303 80.356C247.388 79.7402 248.612 79.4324 249.978 79.4324C251.651 79.4324 253.083 79.8741 254.275 80.7576C255.466 81.6411 256.263 82.8458 256.664 84.3718H252.889C252.608 83.7829 252.207 83.3344 251.685 83.0265C251.176 82.7187 250.594 82.5647 249.938 82.5647C248.88 82.5647 248.024 82.9328 247.368 83.6691C246.712 84.4053 246.384 85.3892 246.384 86.6207C246.384 87.8522 246.712 88.8361 247.368 89.5724C248.024 90.3086 248.88 90.6767 249.938 90.6767C250.594 90.6767 251.176 90.5228 251.685 90.2149C252.207 89.907 252.608 89.4586 252.889 88.8696H256.664C256.263 90.3956 255.466 91.6004 254.275 92.4838C253.083 93.3539 251.651 93.789 249.978 93.789C248.612 93.789 247.388 93.4878 246.303 92.8854C245.232 92.2697 244.396 91.4196 243.793 90.3354C243.191 89.2511 242.89 88.0129 242.89 86.6207ZM263.385 93.8492C262.287 93.8492 261.297 93.615 260.413 93.1465C259.543 92.6779 258.854 92.0086 258.345 91.1385C257.85 90.2684 257.602 89.2511 257.602 88.0865C257.602 86.9353 257.857 85.9246 258.365 85.0545C258.874 84.1711 259.57 83.4951 260.454 83.0265C261.337 82.558 262.328 82.3238 263.425 82.3238C264.523 82.3238 265.514 82.558 266.397 83.0265C267.281 83.4951 267.977 84.1711 268.485 85.0545C268.994 85.9246 269.248 86.9353 269.248 88.0865C269.248 89.2377 268.987 90.2551 268.465 91.1385C267.957 92.0086 267.254 92.6779 266.357 93.1465C265.473 93.615 264.483 93.8492 263.385 93.8492ZM263.385 90.8775C264.041 90.8775 264.597 90.6366 265.052 90.1547C265.52 89.6728 265.754 88.9834 265.754 88.0865C265.754 87.1896 265.527 86.5002 265.072 86.0183C264.63 85.5364 264.081 85.2955 263.425 85.2955C262.756 85.2955 262.2 85.5364 261.759 86.0183C261.317 86.4869 261.096 87.1762 261.096 88.0865C261.096 88.9834 261.31 89.6728 261.739 90.1547C262.18 90.6366 262.729 90.8775 263.385 90.8775ZM272.315 81.3198C271.712 81.3198 271.217 81.1458 270.829 80.7977C270.454 80.4363 270.267 79.9946 270.267 79.4725C270.267 78.9371 270.454 78.4953 270.829 78.1473C271.217 77.7859 271.712 77.6052 272.315 77.6052C272.904 77.6052 273.386 77.7859 273.76 78.1473C274.149 78.4953 274.343 78.9371 274.343 79.4725C274.343 79.9946 274.149 80.4363 273.76 80.7977C273.386 81.1458 272.904 81.3198 272.315 81.3198ZM274.021 82.4844V93.6886H270.588V82.4844H274.021ZM282.855 82.3639C284.167 82.3639 285.211 82.7923 285.987 83.649C286.777 84.4923 287.172 85.6569 287.172 87.1428V93.6886H283.758V87.6046C283.758 86.855 283.564 86.2727 283.176 85.8577C282.788 85.4427 282.266 85.2353 281.61 85.2353C280.954 85.2353 280.432 85.4427 280.044 85.8577C279.655 86.2727 279.461 86.855 279.461 87.6046V93.6886H276.028V82.4844H279.461V83.9703C279.809 83.475 280.278 83.0868 280.867 82.8057C281.456 82.5112 282.119 82.3639 282.855 82.3639ZM293.634 93.8492C292.657 93.8492 291.787 93.6819 291.024 93.3473C290.261 93.0126 289.658 92.5575 289.216 91.9819C288.775 91.3929 288.527 90.737 288.473 90.0141H291.867C291.907 90.4023 292.088 90.7169 292.409 90.9578C292.73 91.1988 293.125 91.3193 293.594 91.3193C294.022 91.3193 294.35 91.2389 294.578 91.0783C294.819 90.9043 294.939 90.6834 294.939 90.4157C294.939 90.0944 294.772 89.8602 294.437 89.7129C294.102 89.5523 293.56 89.3783 292.811 89.1909C292.007 89.0034 291.338 88.8094 290.803 88.6086C290.267 88.3944 289.805 88.0664 289.417 87.6247C289.029 87.1695 288.835 86.5605 288.835 85.7975C288.835 85.1549 289.009 84.5726 289.357 84.0506C289.718 83.5151 290.24 83.0935 290.923 82.7856C291.619 82.4777 292.442 82.3238 293.393 82.3238C294.798 82.3238 295.903 82.6718 296.706 83.3679C297.523 84.064 297.991 84.9876 298.112 86.1388H294.939C294.885 85.7506 294.711 85.4427 294.417 85.2152C294.136 84.9876 293.761 84.8738 293.292 84.8738C292.891 84.8738 292.583 84.9541 292.369 85.1148C292.155 85.262 292.048 85.4695 292.048 85.7372C292.048 86.0585 292.215 86.2994 292.55 86.4601C292.898 86.6207 293.433 86.7814 294.156 86.942C294.986 87.1562 295.662 87.3703 296.184 87.5845C296.706 87.7853 297.161 88.12 297.549 88.5885C297.951 89.0436 298.158 89.6594 298.172 90.4358C298.172 91.0917 297.984 91.6807 297.61 92.2027C297.248 92.7114 296.719 93.113 296.023 93.4075C295.341 93.702 294.544 93.8492 293.634 93.8492Z" fill="#344055"/>
</g>
<rect x="541.895" y="61.3385" width="52.855" height="51.7001" rx="25.8501" fill="white"/>
<rect x="541.895" y="61.3385" width="52.855" height="51.7001" rx="25.8501" stroke="#E2E8F0" stroke-width="1.00396"/>
<path opacity="0.4" d="M566.98 76.943C567.731 76.31 568.943 76.31 569.672 76.943L571.368 78.3913C571.689 78.6595 572.301 78.8848 572.73 78.8848H574.554C575.691 78.8848 576.624 79.8182 576.624 80.9554V82.7792C576.624 83.2084 576.85 83.8092 577.118 84.131L578.566 85.8261C579.199 86.5771 579.199 87.7894 578.566 88.5189L577.118 90.214C576.85 90.5358 576.624 91.1366 576.624 91.5658V93.3896C576.624 94.5268 575.691 95.4602 574.554 95.4602H572.73C572.301 95.4602 571.7 95.6855 571.378 95.9537L569.683 97.402C568.932 98.035 567.72 98.035 566.99 97.402L565.295 95.9537C564.973 95.6855 564.362 95.4602 563.943 95.4602H562.066C560.929 95.4602 559.995 94.5268 559.995 93.3896V91.555C559.995 91.1366 559.781 90.5251 559.513 90.214L558.064 88.5082C557.442 87.7679 557.442 86.5663 558.064 85.8261L559.513 84.1203C559.781 83.7984 559.995 83.1976 559.995 82.7792V80.9661C559.995 79.8289 560.929 78.8956 562.066 78.8956H563.922C564.351 78.8956 564.952 78.6703 565.274 78.4021L566.98 76.943Z" fill="#30283D"/>
<path d="M568.244 82.2326C568.834 82.2326 569.316 82.7154 569.316 83.3055C569.316 83.8955 568.844 84.3783 568.244 84.3783C567.654 84.3783 567.171 83.8955 567.171 83.3055C567.171 82.7154 567.643 82.2326 568.244 82.2326Z" fill="#30283D"/>
<path d="M568.354 85.6117C568.793 85.6117 569.158 85.9764 569.158 86.4163V91.6088C569.158 92.0487 568.793 92.4135 568.354 92.4135C567.914 92.4135 567.549 92.0487 567.549 91.6088V86.427C567.549 85.9764 567.903 85.6117 568.354 85.6117Z" fill="#30283D"/>
<g clip-path="url(#clip1_301_6434)">
<path d="M185.041 150.294H165.533C165.085 150.294 164.655 150.472 164.339 150.789C164.022 151.106 163.844 151.535 163.844 151.983V171.492C163.844 171.94 164.022 172.369 164.339 172.686C164.655 173.003 165.085 173.181 165.533 173.181H185.041C185.49 173.181 185.919 173.003 186.236 172.686C186.553 172.369 186.731 171.94 186.731 171.492V151.983C186.731 151.535 186.553 151.106 186.236 150.789C185.919 150.472 185.49 150.294 185.041 150.294ZM170.665 169.791H167.224V158.861H170.665V169.791ZM168.943 157.346C168.552 157.344 168.171 157.226 167.848 157.008C167.524 156.789 167.273 156.48 167.125 156.118C166.977 155.757 166.94 155.36 167.017 154.978C167.095 154.595 167.284 154.244 167.561 153.969C167.838 153.694 168.19 153.507 168.573 153.432C168.956 153.357 169.353 153.397 169.713 153.547C170.074 153.697 170.381 153.95 170.598 154.275C170.814 154.6 170.93 154.982 170.929 155.372C170.933 155.633 170.884 155.893 170.785 156.135C170.687 156.377 170.54 156.596 170.355 156.781C170.169 156.965 169.949 157.11 169.706 157.207C169.464 157.304 169.204 157.351 168.943 157.346ZM183.349 169.801H179.909V163.829C179.909 162.068 179.161 161.525 178.194 161.525C177.174 161.525 176.173 162.294 176.173 163.874V169.801H172.732V158.869H176.041V160.383H176.085C176.417 159.711 177.581 158.562 179.356 158.562C181.276 158.562 183.35 159.702 183.35 163.039L183.349 169.801Z" fill="#0072DC"/>
</g>
<mask id="path-9-outside-1_301_6434" maskUnits="userSpaceOnUse" x="199.781" y="125.142" width="372" height="75" fill="black">
<rect fill="white" x="199.781" y="125.142" width="372" height="75"/>
<path d="M199.781 125.142H571.156V198.333H199.781V125.142Z"/>
</mask>
<path d="M571.156 197.329H199.781V199.337H571.156V197.329Z" fill="#E2E8F0" mask="url(#path-9-outside-1_301_6434)"/>
<path d="M207.765 165.101H203.299L202.56 167.238H200.199L204.231 156.009H206.849L210.881 167.238H208.504L207.765 165.101ZM207.154 163.302L205.532 158.612L203.91 163.302H207.154ZM211.649 162.756C211.649 161.856 211.826 161.059 212.179 160.362C212.543 159.666 213.036 159.131 213.657 158.756C214.278 158.381 214.969 158.194 215.729 158.194C216.308 158.194 216.859 158.322 217.384 158.579C217.909 158.826 218.326 159.158 218.637 159.575V155.351H220.918V167.238H218.637V165.92C218.358 166.359 217.967 166.713 217.464 166.981C216.961 167.248 216.377 167.382 215.713 167.382C214.964 167.382 214.278 167.189 213.657 166.804C213.036 166.418 212.543 165.878 212.179 165.181C211.826 164.475 211.649 163.666 211.649 162.756ZM218.653 162.788C218.653 162.242 218.546 161.776 218.332 161.39C218.117 160.994 217.828 160.694 217.464 160.491C217.1 160.277 216.709 160.17 216.292 160.17C215.874 160.17 215.488 160.271 215.135 160.475C214.782 160.678 214.492 160.978 214.268 161.374C214.053 161.76 213.946 162.22 213.946 162.756C213.946 163.291 214.053 163.763 214.268 164.169C214.492 164.566 214.782 164.871 215.135 165.085C215.499 165.299 215.885 165.406 216.292 165.406C216.709 165.406 217.1 165.305 217.464 165.101C217.828 164.887 218.117 164.587 218.332 164.202C218.546 163.805 218.653 163.334 218.653 162.788ZM222.375 162.756C222.375 161.856 222.552 161.059 222.905 160.362C223.269 159.666 223.762 159.131 224.383 158.756C225.004 158.381 225.695 158.194 226.455 158.194C227.034 158.194 227.585 158.322 228.11 158.579C228.635 158.826 229.052 159.158 229.363 159.575V155.351H231.644V167.238H229.363V165.92C229.084 166.359 228.694 166.713 228.19 166.981C227.687 167.248 227.103 167.382 226.439 167.382C225.69 167.382 225.004 167.189 224.383 166.804C223.762 166.418 223.269 165.878 222.905 165.181C222.552 164.475 222.375 163.666 222.375 162.756ZM229.379 162.788C229.379 162.242 229.272 161.776 229.058 161.39C228.843 160.994 228.554 160.694 228.19 160.491C227.826 160.277 227.435 160.17 227.018 160.17C226.6 160.17 226.214 160.271 225.861 160.475C225.508 160.678 225.218 160.978 224.994 161.374C224.779 161.76 224.672 162.22 224.672 162.756C224.672 163.291 224.779 163.763 224.994 164.169C225.218 164.566 225.508 164.871 225.861 165.085C226.225 165.299 226.611 165.406 227.018 165.406C227.435 165.406 227.826 165.305 228.19 165.101C228.554 164.887 228.843 164.587 229.058 164.202C229.272 163.805 229.379 163.334 229.379 162.788ZM239.595 159.624C239.885 159.217 240.281 158.879 240.784 158.612C241.298 158.333 241.882 158.194 242.535 158.194C243.295 158.194 243.981 158.381 244.591 158.756C245.212 159.131 245.7 159.666 246.053 160.362C246.417 161.048 246.599 161.846 246.599 162.756C246.599 163.666 246.417 164.475 246.053 165.181C245.7 165.878 245.212 166.418 244.591 166.804C243.981 167.189 243.295 167.382 242.535 167.382C241.882 167.382 241.304 167.248 240.8 166.981C240.308 166.713 239.906 166.375 239.595 165.969V171.478H237.347V158.338H239.595V159.624ZM244.302 162.756C244.302 162.22 244.19 161.76 243.965 161.374C243.75 160.978 243.461 160.678 243.097 160.475C242.744 160.271 242.358 160.17 241.941 160.17C241.534 160.17 241.148 160.277 240.784 160.491C240.431 160.694 240.142 160.994 239.917 161.39C239.703 161.787 239.595 162.253 239.595 162.788C239.595 163.323 239.703 163.789 239.917 164.186C240.142 164.582 240.431 164.887 240.784 165.101C241.148 165.305 241.534 165.406 241.941 165.406C242.358 165.406 242.744 165.299 243.097 165.085C243.461 164.871 243.75 164.566 243.965 164.169C244.19 163.773 244.302 163.302 244.302 162.756ZM252.024 167.382C251.167 167.382 250.396 167.195 249.711 166.82C249.026 166.434 248.485 165.894 248.089 165.198C247.703 164.501 247.51 163.698 247.51 162.788C247.51 161.878 247.709 161.075 248.105 160.378C248.512 159.682 249.063 159.147 249.759 158.772C250.455 158.387 251.232 158.194 252.088 158.194C252.945 158.194 253.722 158.387 254.418 158.772C255.114 159.147 255.66 159.682 256.056 160.378C256.463 161.075 256.667 161.878 256.667 162.788C256.667 163.698 256.458 164.501 256.04 165.198C255.633 165.894 255.076 166.434 254.369 166.82C253.673 167.195 252.892 167.382 252.024 167.382ZM252.024 165.422C252.431 165.422 252.811 165.326 253.165 165.133C253.529 164.93 253.818 164.63 254.032 164.234C254.246 163.837 254.353 163.356 254.353 162.788C254.353 161.942 254.129 161.294 253.679 160.844C253.24 160.384 252.699 160.154 252.056 160.154C251.414 160.154 250.873 160.384 250.434 160.844C250.006 161.294 249.791 161.942 249.791 162.788C249.791 163.634 250 164.287 250.418 164.748C250.846 165.198 251.382 165.422 252.024 165.422ZM261.561 167.382C260.833 167.382 260.18 167.254 259.601 166.997C259.023 166.729 258.562 166.37 258.22 165.92C257.888 165.471 257.706 164.973 257.674 164.426H259.939C259.981 164.769 260.147 165.053 260.437 165.278C260.736 165.503 261.106 165.615 261.545 165.615C261.973 165.615 262.305 165.529 262.541 165.358C262.787 165.187 262.91 164.967 262.91 164.7C262.91 164.41 262.76 164.196 262.461 164.057C262.171 163.907 261.706 163.746 261.063 163.575C260.399 163.414 259.853 163.248 259.425 163.077C259.007 162.906 258.643 162.643 258.332 162.29C258.032 161.937 257.882 161.46 257.882 160.86C257.882 160.368 258.022 159.918 258.3 159.511C258.589 159.104 258.996 158.783 259.521 158.547C260.056 158.312 260.683 158.194 261.4 158.194C262.461 158.194 263.307 158.462 263.938 158.997C264.57 159.522 264.918 160.234 264.982 161.133H262.83C262.798 160.78 262.648 160.502 262.38 160.298C262.123 160.084 261.775 159.977 261.336 159.977C260.929 159.977 260.613 160.052 260.388 160.202C260.174 160.352 260.067 160.561 260.067 160.828C260.067 161.128 260.217 161.358 260.517 161.519C260.817 161.669 261.283 161.824 261.914 161.985C262.557 162.145 263.087 162.311 263.505 162.483C263.922 162.654 264.281 162.922 264.581 163.286C264.891 163.639 265.052 164.111 265.063 164.7C265.063 165.214 264.918 165.674 264.629 166.081C264.351 166.488 263.944 166.809 263.408 167.045C262.884 167.27 262.268 167.382 261.561 167.382ZM269.366 160.186V164.491C269.366 164.791 269.436 165.01 269.575 165.149C269.725 165.278 269.972 165.342 270.314 165.342H271.358V167.238H269.945C268.049 167.238 267.102 166.317 267.102 164.475V160.186H266.041V158.338H267.102V156.138H269.366V158.338H271.358V160.186H269.366ZM280.434 167.382C279.577 167.382 278.806 167.195 278.121 166.82C277.435 166.434 276.894 165.894 276.498 165.198C276.113 164.501 275.92 163.698 275.92 162.788C275.92 161.878 276.118 161.075 276.514 160.378C276.921 159.682 277.473 159.147 278.169 158.772C278.865 158.387 279.641 158.194 280.498 158.194C281.355 158.194 282.131 158.387 282.827 158.772C283.523 159.147 284.069 159.682 284.466 160.378C284.873 161.075 285.076 161.878 285.076 162.788C285.076 163.698 284.867 164.501 284.45 165.198C284.043 165.894 283.486 166.434 282.779 166.82C282.083 167.195 281.301 167.382 280.434 167.382ZM280.434 165.422C280.841 165.422 281.221 165.326 281.574 165.133C281.938 164.93 282.228 164.63 282.442 164.234C282.656 163.837 282.763 163.356 282.763 162.788C282.763 161.942 282.538 161.294 282.088 160.844C281.649 160.384 281.108 160.154 280.466 160.154C279.823 160.154 279.283 160.384 278.844 160.844C278.415 161.294 278.201 161.942 278.201 162.788C278.201 163.634 278.41 164.287 278.827 164.748C279.256 165.198 279.791 165.422 280.434 165.422ZM291.497 158.21C292.557 158.21 293.413 158.547 294.067 159.222C294.72 159.886 295.047 160.818 295.047 162.017V167.238H292.798V162.322C292.798 161.615 292.621 161.075 292.268 160.7C291.914 160.314 291.432 160.121 290.822 160.121C290.201 160.121 289.708 160.314 289.344 160.7C288.991 161.075 288.814 161.615 288.814 162.322V167.238H286.565V158.338H288.814V159.447C289.114 159.061 289.494 158.761 289.954 158.547C290.426 158.322 290.94 158.21 291.497 158.21ZM302.94 155.351V167.238H300.691V155.351H302.94ZM306.142 157.278C305.746 157.278 305.414 157.155 305.146 156.909C304.889 156.652 304.761 156.336 304.761 155.961C304.761 155.586 304.889 155.276 305.146 155.029C305.414 154.772 305.746 154.644 306.142 154.644C306.538 154.644 306.865 154.772 307.122 155.029C307.39 155.276 307.524 155.586 307.524 155.961C307.524 156.336 307.39 156.652 307.122 156.909C306.865 157.155 306.538 157.278 306.142 157.278ZM307.25 158.338V167.238H305.002V158.338H307.25ZM314.243 158.21C315.303 158.21 316.16 158.547 316.813 159.222C317.467 159.886 317.793 160.818 317.793 162.017V167.238H315.544V162.322C315.544 161.615 315.368 161.075 315.014 160.7C314.661 160.314 314.179 160.121 313.568 160.121C312.947 160.121 312.455 160.314 312.091 160.7C311.737 161.075 311.561 161.615 311.561 162.322V167.238H309.312V158.338H311.561V159.447C311.86 159.061 312.241 158.761 312.701 158.547C313.172 158.322 313.686 158.21 314.243 158.21ZM325.04 167.238L322.02 163.447V167.238H319.771V155.351H322.02V162.113L325.008 158.338H327.931L324.012 162.804L327.963 167.238H325.04ZM337.264 162.595C337.264 162.917 337.242 163.206 337.2 163.463H330.694C330.747 164.105 330.972 164.609 331.369 164.973C331.765 165.337 332.252 165.519 332.83 165.519C333.666 165.519 334.26 165.16 334.613 164.443H337.039C336.782 165.299 336.289 166.006 335.561 166.563C334.833 167.109 333.939 167.382 332.879 167.382C332.022 167.382 331.251 167.195 330.565 166.82C329.891 166.434 329.361 165.894 328.975 165.198C328.6 164.501 328.413 163.698 328.413 162.788C328.413 161.867 328.6 161.059 328.975 160.362C329.35 159.666 329.875 159.131 330.549 158.756C331.224 158.381 332 158.194 332.879 158.194C333.725 158.194 334.48 158.376 335.143 158.74C335.818 159.104 336.338 159.624 336.702 160.298C337.076 160.962 337.264 161.728 337.264 162.595ZM334.935 161.953C334.924 161.374 334.715 160.914 334.308 160.571C333.901 160.218 333.403 160.041 332.814 160.041C332.257 160.041 331.786 160.213 331.401 160.555C331.026 160.887 330.796 161.353 330.71 161.953H334.935ZM338.166 162.756C338.166 161.856 338.343 161.059 338.696 160.362C339.061 159.666 339.553 159.131 340.174 158.756C340.795 158.381 341.486 158.194 342.246 158.194C342.825 158.194 343.376 158.322 343.901 158.579C344.426 158.826 344.843 159.158 345.154 159.575V155.351H347.435V167.238H345.154V165.92C344.876 166.359 344.485 166.713 343.981 166.981C343.478 167.248 342.894 167.382 342.23 167.382C341.481 167.382 340.795 167.189 340.174 166.804C339.553 166.418 339.061 165.878 338.696 165.181C338.343 164.475 338.166 163.666 338.166 162.756ZM345.17 162.788C345.17 162.242 345.063 161.776 344.849 161.39C344.635 160.994 344.345 160.694 343.981 160.491C343.617 160.277 343.226 160.17 342.809 160.17C342.391 160.17 342.006 160.271 341.652 160.475C341.299 160.678 341.01 160.978 340.785 161.374C340.571 161.76 340.463 162.22 340.463 162.756C340.463 163.291 340.571 163.763 340.785 164.169C341.01 164.566 341.299 164.871 341.652 165.085C342.016 165.299 342.402 165.406 342.809 165.406C343.226 165.406 343.617 165.305 343.981 165.101C344.345 164.887 344.635 164.587 344.849 164.202C345.063 163.805 345.17 163.334 345.17 162.788ZM351.72 156.025V167.238H349.471V156.025H351.72ZM358.712 158.21C359.772 158.21 360.629 158.547 361.282 159.222C361.936 159.886 362.262 160.818 362.262 162.017V167.238H360.013V162.322C360.013 161.615 359.837 161.075 359.483 160.7C359.13 160.314 358.648 160.121 358.038 160.121C357.417 160.121 356.924 160.314 356.56 160.7C356.206 161.075 356.03 161.615 356.03 162.322V167.238H353.781V158.338H356.03V159.447C356.33 159.061 356.71 158.761 357.17 158.547C357.641 158.322 358.155 158.21 358.712 158.21ZM365.236 167.35C364.829 167.35 364.492 167.227 364.224 166.981C363.967 166.724 363.839 166.408 363.839 166.033C363.839 165.658 363.967 165.347 364.224 165.101C364.492 164.844 364.829 164.716 365.236 164.716C365.632 164.716 365.959 164.844 366.216 165.101C366.473 165.347 366.602 165.658 366.602 166.033C366.602 166.408 366.473 166.724 366.216 166.981C365.959 167.227 365.632 167.35 365.236 167.35Z" fill="#344055"/>
<path fill-rule="evenodd" clip-rule="evenodd" d="M555.847 167.408C555.377 166.938 555.377 166.175 555.847 165.705L559.814 161.738L555.847 157.77C555.377 157.3 555.377 156.537 555.847 156.067C556.317 155.596 557.08 155.596 557.551 156.067L562.37 160.886C562.84 161.356 562.84 162.119 562.37 162.589L557.551 167.408C557.08 167.879 556.317 167.879 555.847 167.408Z" fill="#64748B"/>
<path d="M139.748 137.19H143.764V185.38H139.748V137.19Z" fill="#0072DC"/>
<path fill-rule="evenodd" clip-rule="evenodd" d="M179.137 234.211C179.625 234.483 180.178 234.636 180.775 234.636C182.647 234.636 184.166 233.116 184.166 231.244C184.166 229.382 182.647 227.861 180.775 227.861C180.404 227.861 180.051 227.925 179.716 228.033C180.204 228.821 180.485 229.752 180.485 230.738C180.485 232.077 179.987 233.289 179.137 234.211Z" fill="#8D65FF"/>
<path fill-rule="evenodd" clip-rule="evenodd" d="M169.794 234.636C170.391 234.636 170.943 234.482 171.432 234.21C170.581 233.288 170.083 232.076 170.083 230.737C170.083 229.752 170.364 228.821 170.853 228.034C170.518 227.925 170.165 227.861 169.794 227.861C167.922 227.861 166.402 229.381 166.402 231.244C166.402 233.117 167.922 234.636 169.794 234.636Z" fill="#8D65FF"/>
<path fill-rule="evenodd" clip-rule="evenodd" d="M175.284 235.041C177.655 235.041 179.583 233.112 179.583 230.742C179.583 228.372 177.655 226.444 175.284 226.444C172.913 226.444 170.985 228.372 170.985 230.742C170.985 233.112 172.913 235.041 175.284 235.041Z" fill="#8D65FF"/>
<g opacity="0.4">
<path fill-rule="evenodd" clip-rule="evenodd" d="M185.867 239.285C185.171 237.105 183.326 235.858 180.794 235.858H180.775C179.744 235.848 178.821 236.056 178.043 236.454C180.215 237.151 181.824 238.697 182.565 240.886C183.741 240.723 184.764 240.362 185.668 239.809L185.966 239.62L185.867 239.285Z" fill="#8D65FF"/>
<path fill-rule="evenodd" clip-rule="evenodd" d="M172.481 236.436C171.721 236.056 170.826 235.857 169.813 235.857H169.777C167.245 235.857 165.4 237.105 164.712 239.285L164.604 239.619L164.902 239.809C165.761 240.334 166.775 240.686 167.905 240.868C168.656 238.67 170.293 237.114 172.481 236.436Z" fill="#8D65FF"/>
<path fill-rule="evenodd" clip-rule="evenodd" d="M175.252 236.934C175.237 236.934 175.223 236.934 175.209 236.934C171.953 236.934 169.579 238.534 168.696 241.327L168.589 241.665L168.892 241.85C170.616 242.901 172.676 243.412 175.189 243.412H175.27C177.784 243.412 179.845 242.901 181.569 241.85L181.873 241.665L181.766 241.327C180.882 238.534 178.509 236.934 175.252 236.934Z" fill="#8D65FF"/>
</g>
<mask id="path-16-outside-2_301_6434" maskUnits="userSpaceOnUse" x="199.781" y="198.333" width="372" height="75" fill="black">
<rect fill="white" x="199.781" y="198.333" width="372" height="75"/>
<path d="M199.781 198.333H571.156V271.523H199.781V198.333Z"/>
</mask>
<path d="M571.156 270.519H199.781V272.527H571.156V270.519Z" fill="#E2E8F0" mask="url(#path-16-outside-2_301_6434)"/>
<path d="M206.672 240.428L204.199 236.058H203.138V240.428H200.89V229.215H205.098C205.966 229.215 206.705 229.371 207.315 229.681C207.925 229.981 208.381 230.393 208.68 230.918C208.991 231.432 209.146 232.01 209.146 232.653C209.146 233.392 208.932 234.061 208.504 234.661C208.075 235.25 207.438 235.657 206.592 235.882L209.275 240.428H206.672ZM203.138 234.372H205.018C205.628 234.372 206.083 234.227 206.383 233.938C206.683 233.638 206.833 233.226 206.833 232.701C206.833 232.187 206.683 231.791 206.383 231.512C206.083 231.223 205.628 231.079 205.018 231.079H203.138V234.372ZM219.292 235.785C219.292 236.107 219.271 236.396 219.228 236.653H212.722C212.776 237.295 213.001 237.799 213.397 238.163C213.793 238.527 214.28 238.709 214.859 238.709C215.694 238.709 216.288 238.35 216.642 237.633H219.067C218.81 238.489 218.318 239.196 217.589 239.753C216.861 240.299 215.967 240.572 214.907 240.572C214.05 240.572 213.279 240.385 212.594 240.01C211.919 239.624 211.389 239.084 211.004 238.388C210.629 237.691 210.441 236.888 210.441 235.978C210.441 235.057 210.629 234.249 211.004 233.552C211.378 232.856 211.903 232.321 212.578 231.946C213.252 231.571 214.029 231.384 214.907 231.384C215.753 231.384 216.508 231.566 217.172 231.93C217.847 232.294 218.366 232.814 218.73 233.488C219.105 234.152 219.292 234.918 219.292 235.785ZM216.963 235.143C216.952 234.564 216.743 234.104 216.337 233.761C215.93 233.408 215.432 233.231 214.843 233.231C214.286 233.231 213.815 233.403 213.429 233.745C213.054 234.077 212.824 234.543 212.738 235.143H216.963ZM224.853 233.376H223.295V240.428H221.014V233.376H220.002V231.529H221.014V231.079C221.014 229.986 221.325 229.183 221.946 228.669C222.567 228.155 223.504 227.914 224.757 227.946V229.842C224.211 229.831 223.83 229.922 223.616 230.115C223.402 230.308 223.295 230.656 223.295 231.159V231.529H224.853V233.376ZM234.423 235.785C234.423 236.107 234.401 236.396 234.358 236.653H227.853C227.906 237.295 228.131 237.799 228.527 238.163C228.924 238.527 229.411 238.709 229.989 238.709C230.824 238.709 231.419 238.35 231.772 237.633H234.198C233.941 238.489 233.448 239.196 232.72 239.753C231.992 240.299 231.097 240.572 230.037 240.572C229.181 240.572 228.409 240.385 227.724 240.01C227.049 239.624 226.519 239.084 226.134 238.388C225.759 237.691 225.572 236.888 225.572 235.978C225.572 235.057 225.759 234.249 226.134 233.552C226.509 232.856 227.033 232.321 227.708 231.946C228.383 231.571 229.159 231.384 230.037 231.384C230.883 231.384 231.638 231.566 232.302 231.93C232.977 232.294 233.496 232.814 233.86 233.488C234.235 234.152 234.423 234.918 234.423 235.785ZM232.093 235.143C232.083 234.564 231.874 234.104 231.467 233.761C231.06 233.408 230.562 233.231 229.973 233.231C229.416 233.231 228.945 233.403 228.559 233.745C228.185 234.077 227.954 234.543 227.869 235.143H232.093ZM238.152 232.91C238.441 232.439 238.816 232.069 239.277 231.802C239.748 231.534 240.283 231.4 240.883 231.4V233.761H240.289C239.582 233.761 239.046 233.927 238.682 234.259C238.329 234.591 238.152 235.17 238.152 235.994V240.428H235.903V231.529H238.152V232.91ZM245.326 235.946C245.326 235.046 245.502 234.249 245.856 233.552C246.22 232.856 246.707 232.321 247.318 231.946C247.939 231.571 248.629 231.384 249.39 231.384C250.054 231.384 250.632 231.518 251.125 231.786C251.628 232.053 252.03 232.391 252.329 232.798V231.529H254.594V240.428H252.329V239.126C252.04 239.544 251.639 239.892 251.125 240.171C250.621 240.438 250.038 240.572 249.374 240.572C248.624 240.572 247.939 240.379 247.318 239.994C246.707 239.608 246.22 239.068 245.856 238.372C245.502 237.665 245.326 236.856 245.326 235.946ZM252.329 235.978C252.329 235.432 252.222 234.966 252.008 234.581C251.794 234.184 251.505 233.884 251.141 233.681C250.777 233.467 250.386 233.36 249.968 233.36C249.55 233.36 249.165 233.461 248.812 233.665C248.458 233.868 248.169 234.168 247.944 234.564C247.73 234.95 247.623 235.41 247.623 235.946C247.623 236.481 247.73 236.953 247.944 237.36C248.169 237.756 248.458 238.061 248.812 238.275C249.176 238.489 249.561 238.596 249.968 238.596C250.386 238.596 250.777 238.495 251.141 238.291C251.505 238.077 251.794 237.777 252.008 237.392C252.222 236.995 252.329 236.524 252.329 235.978ZM264.377 233.376H262.819V240.428H260.538V233.376H259.526V231.529H260.538V231.079C260.538 229.986 260.849 229.183 261.47 228.669C262.091 228.155 263.028 227.914 264.281 227.946V229.842C263.735 229.831 263.354 229.922 263.14 230.115C262.926 230.308 262.819 230.656 262.819 231.159V231.529H264.377V233.376ZM267.923 232.91C268.212 232.439 268.587 232.069 269.047 231.802C269.518 231.534 270.054 231.4 270.654 231.4V233.761H270.059C269.352 233.761 268.817 233.927 268.453 234.259C268.1 234.591 267.923 235.17 267.923 235.994V240.428H265.674V231.529H267.923V232.91ZM273.148 230.468C272.752 230.468 272.42 230.345 272.152 230.099C271.895 229.842 271.767 229.526 271.767 229.151C271.767 228.776 271.895 228.466 272.152 228.219C272.42 227.962 272.752 227.834 273.148 227.834C273.544 227.834 273.871 227.962 274.128 228.219C274.396 228.466 274.53 228.776 274.53 229.151C274.53 229.526 274.396 229.842 274.128 230.099C273.871 230.345 273.544 230.468 273.148 230.468ZM274.257 231.529V240.428H272.008V231.529H274.257ZM284.59 235.785C284.59 236.107 284.569 236.396 284.526 236.653H278.021C278.074 237.295 278.299 237.799 278.695 238.163C279.091 238.527 279.579 238.709 280.157 238.709C280.992 238.709 281.587 238.35 281.94 237.633H284.366C284.109 238.489 283.616 239.196 282.888 239.753C282.16 240.299 281.265 240.572 280.205 240.572C279.348 240.572 278.577 240.385 277.892 240.01C277.217 239.624 276.687 239.084 276.302 238.388C275.927 237.691 275.74 236.888 275.74 235.978C275.74 235.057 275.927 234.249 276.302 233.552C276.677 232.856 277.201 232.321 277.876 231.946C278.551 231.571 279.327 231.384 280.205 231.384C281.051 231.384 281.806 231.566 282.47 231.93C283.145 232.294 283.664 232.814 284.028 233.488C284.403 234.152 284.59 234.918 284.59 235.785ZM282.261 235.143C282.251 234.564 282.042 234.104 281.635 233.761C281.228 233.408 280.73 233.231 280.141 233.231C279.584 233.231 279.113 233.403 278.727 233.745C278.352 234.077 278.122 234.543 278.037 235.143H282.261ZM291.003 231.4C292.063 231.4 292.92 231.737 293.573 232.412C294.226 233.076 294.553 234.008 294.553 235.207V240.428H292.304V235.512C292.304 234.805 292.127 234.265 291.774 233.89C291.42 233.504 290.938 233.312 290.328 233.312C289.707 233.312 289.214 233.504 288.85 233.89C288.497 234.265 288.32 234.805 288.32 235.512V240.428H286.071V231.529H288.32V232.637C288.62 232.251 289 231.952 289.461 231.737C289.932 231.512 290.446 231.4 291.003 231.4ZM295.952 235.946C295.952 235.046 296.129 234.249 296.482 233.552C296.847 232.856 297.339 232.321 297.96 231.946C298.581 231.571 299.272 231.384 300.032 231.384C300.611 231.384 301.162 231.512 301.687 231.769C302.212 232.016 302.629 232.348 302.94 232.765V228.541H305.221V240.428H302.94V239.11C302.662 239.549 302.271 239.903 301.767 240.171C301.264 240.438 300.68 240.572 300.016 240.572C299.267 240.572 298.581 240.379 297.96 239.994C297.339 239.608 296.847 239.068 296.482 238.372C296.129 237.665 295.952 236.856 295.952 235.946ZM302.956 235.978C302.956 235.432 302.849 234.966 302.635 234.581C302.421 234.184 302.131 233.884 301.767 233.681C301.403 233.467 301.012 233.36 300.595 233.36C300.177 233.36 299.792 233.461 299.438 233.665C299.085 233.868 298.796 234.168 298.571 234.564C298.357 234.95 298.249 235.41 298.249 235.946C298.249 236.481 298.357 236.953 298.571 237.36C298.796 237.756 299.085 238.061 299.438 238.275C299.802 238.489 300.188 238.596 300.595 238.596C301.012 238.596 301.403 238.495 301.767 238.291C302.131 238.077 302.421 237.777 302.635 237.392C302.849 236.995 302.956 236.524 302.956 235.978ZM308.253 240.54C307.846 240.54 307.508 240.417 307.241 240.171C306.984 239.914 306.855 239.598 306.855 239.223C306.855 238.848 306.984 238.537 307.241 238.291C307.508 238.034 307.846 237.906 308.253 237.906C308.649 237.906 308.975 238.034 309.233 238.291C309.49 238.537 309.618 238.848 309.618 239.223C309.618 239.598 309.49 239.914 309.233 240.171C308.975 240.417 308.649 240.54 308.253 240.54Z" fill="#344055"/>
<path fill-rule="evenodd" clip-rule="evenodd" d="M555.847 240.598C555.377 240.128 555.377 239.365 555.847 238.895L559.814 234.928L555.847 230.96C555.377 230.49 555.377 229.727 555.847 229.257C556.317 228.786 557.08 228.786 557.551 229.257L562.37 234.076C562.84 234.546 562.84 235.309 562.37 235.779L557.551 240.598C557.08 241.069 556.317 241.069 555.847 240.598Z" fill="#64748B"/>
<path d="M139.748 210.38H143.764V258.57H139.748V210.38Z" fill="#8D65FF"/>
<path opacity="0.4" d="M162.726 298.627C163.477 297.994 164.689 297.994 165.419 298.627L167.114 300.075C167.435 300.344 168.047 300.569 168.476 300.569H170.3C171.437 300.569 172.371 301.502 172.371 302.639V304.463C172.371 304.892 172.596 305.493 172.864 305.815L174.312 307.51C174.945 308.261 174.945 309.473 174.312 310.203L172.864 311.898C172.596 312.22 172.371 312.821 172.371 313.25V315.074C172.371 316.211 171.437 317.144 170.3 317.144H168.476C168.047 317.144 167.446 317.37 167.124 317.638L165.429 319.086C164.678 319.719 163.466 319.719 162.736 319.086L161.041 317.638C160.72 317.37 160.108 317.144 159.69 317.144H157.812C156.675 317.144 155.742 316.211 155.742 315.074V313.239C155.742 312.821 155.527 312.209 155.259 311.898L153.81 310.192C153.188 309.452 153.188 308.25 153.81 307.51L155.259 305.804C155.527 305.483 155.742 304.882 155.742 304.463V302.65C155.742 301.513 156.675 300.58 157.812 300.58H159.668C160.097 300.58 160.698 300.354 161.02 300.086L162.726 298.627Z" fill="#FFA800"/>
<path d="M163.988 303.916C164.578 303.916 165.061 304.399 165.061 304.989C165.061 305.579 164.588 306.062 163.988 306.062C163.398 306.062 162.915 305.579 162.915 304.989C162.915 304.399 163.387 303.916 163.988 303.916Z" fill="#FFA800"/>
<path d="M164.098 307.295C164.538 307.295 164.902 307.66 164.902 308.1V313.292C164.902 313.732 164.538 314.097 164.098 314.097C163.658 314.097 163.293 313.732 163.293 313.292V308.111C163.293 307.66 163.647 307.295 164.098 307.295Z" fill="#FFA800"/>
<path d="M190.294 302.639C190.294 303.454 190.013 304.133 189.451 304.677C188.898 305.211 188.05 305.478 186.907 305.478H185.023V309.568H183.744V299.771H186.907C188.013 299.771 188.851 300.039 189.423 300.573C190.004 301.107 190.294 301.795 190.294 302.639ZM186.907 304.424C187.619 304.424 188.144 304.269 188.481 303.96C188.818 303.651 188.987 303.21 188.987 302.639C188.987 301.43 188.294 300.826 186.907 300.826H185.023V304.424H186.907ZM191.406 305.689C191.406 304.902 191.565 304.213 191.884 303.623C192.202 303.023 192.638 302.559 193.191 302.231C193.753 301.903 194.376 301.739 195.06 301.739C195.735 301.739 196.321 301.884 196.817 302.175C197.314 302.465 197.684 302.831 197.928 303.271V301.866H199.221V309.568H197.928V308.134C197.675 308.584 197.295 308.959 196.789 309.259C196.293 309.549 195.712 309.695 195.046 309.695C194.362 309.695 193.744 309.526 193.191 309.189C192.638 308.851 192.202 308.378 191.884 307.769C191.565 307.16 191.406 306.467 191.406 305.689ZM197.928 305.703C197.928 305.122 197.811 304.616 197.576 304.185C197.342 303.754 197.024 303.426 196.621 303.201C196.227 302.967 195.791 302.85 195.313 302.85C194.836 302.85 194.4 302.962 194.006 303.187C193.613 303.412 193.299 303.74 193.065 304.171C192.83 304.602 192.713 305.108 192.713 305.689C192.713 306.279 192.83 306.795 193.065 307.235C193.299 307.666 193.613 307.999 194.006 308.233C194.4 308.458 194.836 308.57 195.313 308.57C195.791 308.57 196.227 308.458 196.621 308.233C197.024 307.999 197.342 307.666 197.576 307.235C197.811 306.795 197.928 306.284 197.928 305.703ZM204.559 301.739C205.224 301.739 205.805 301.884 206.302 302.175C206.808 302.465 207.183 302.831 207.426 303.271V301.866H208.719V309.737C208.719 310.44 208.569 311.063 208.269 311.606C207.97 312.159 207.539 312.59 206.976 312.899C206.424 313.208 205.777 313.363 205.037 313.363C204.025 313.363 203.181 313.124 202.507 312.646C201.832 312.168 201.434 311.517 201.312 310.693H202.577C202.718 311.161 203.008 311.536 203.448 311.817C203.889 312.107 204.418 312.253 205.037 312.253C205.74 312.253 206.311 312.033 206.751 311.592C207.201 311.152 207.426 310.533 207.426 309.737V308.12C207.173 308.57 206.798 308.945 206.302 309.245C205.805 309.545 205.224 309.695 204.559 309.695C203.875 309.695 203.252 309.526 202.689 309.189C202.137 308.851 201.701 308.378 201.382 307.769C201.064 307.16 200.904 306.467 200.904 305.689C200.904 304.902 201.064 304.213 201.382 303.623C201.701 303.023 202.137 302.559 202.689 302.231C203.252 301.903 203.875 301.739 204.559 301.739ZM207.426 305.703C207.426 305.122 207.309 304.616 207.075 304.185C206.841 303.754 206.522 303.426 206.119 303.201C205.725 302.967 205.29 302.85 204.812 302.85C204.334 302.85 203.898 302.962 203.505 303.187C203.111 303.412 202.797 303.74 202.563 304.171C202.329 304.602 202.212 305.108 202.212 305.689C202.212 306.279 202.329 306.795 202.563 307.235C202.797 307.666 203.111 307.999 203.505 308.233C203.898 308.458 204.334 308.57 204.812 308.57C205.29 308.57 205.725 308.458 206.119 308.233C206.522 307.999 206.841 307.666 207.075 307.235C207.309 306.795 207.426 306.284 207.426 305.703ZM210.403 305.689C210.403 304.902 210.562 304.213 210.881 303.623C211.199 303.023 211.635 302.559 212.188 302.231C212.75 301.903 213.373 301.739 214.057 301.739C214.732 301.739 215.318 301.884 215.814 302.175C216.311 302.465 216.681 302.831 216.925 303.271V301.866H218.218V309.568H216.925V308.134C216.672 308.584 216.292 308.959 215.786 309.259C215.289 309.549 214.708 309.695 214.043 309.695C213.359 309.695 212.741 309.526 212.188 309.189C211.635 308.851 211.199 308.378 210.881 307.769C210.562 307.16 210.403 306.467 210.403 305.689ZM216.925 305.703C216.925 305.122 216.807 304.616 216.573 304.185C216.339 303.754 216.02 303.426 215.617 303.201C215.224 302.967 214.788 302.85 214.31 302.85C213.832 302.85 213.397 302.962 213.003 303.187C212.61 303.412 212.296 303.74 212.061 304.171C211.827 304.602 211.71 305.108 211.71 305.689C211.71 306.279 211.827 306.795 212.061 307.235C212.296 307.666 212.61 307.999 213.003 308.233C213.397 308.458 213.832 308.57 214.31 308.57C214.788 308.57 215.224 308.458 215.617 308.233C216.02 307.999 216.339 307.666 216.573 307.235C216.807 306.795 216.925 306.284 216.925 305.703ZM219.901 305.689C219.901 304.902 220.061 304.213 220.379 303.623C220.698 303.023 221.133 302.559 221.686 302.231C222.249 301.903 222.872 301.739 223.556 301.739C224.23 301.739 224.816 301.884 225.313 302.175C225.809 302.465 226.179 302.831 226.423 303.271V301.866H227.716V309.568H226.423V308.134C226.17 308.584 225.79 308.959 225.284 309.259C224.788 309.549 224.207 309.695 223.542 309.695C222.858 309.695 222.239 309.526 221.686 309.189C221.133 308.851 220.698 308.378 220.379 307.769C220.061 307.16 219.901 306.467 219.901 305.689ZM226.423 305.703C226.423 305.122 226.306 304.616 226.072 304.185C225.837 303.754 225.519 303.426 225.116 303.201C224.722 302.967 224.287 302.85 223.809 302.85C223.331 302.85 222.895 302.962 222.502 303.187C222.108 303.412 221.794 303.74 221.56 304.171C221.326 304.602 221.208 305.108 221.208 305.689C221.208 306.279 221.326 306.795 221.56 307.235C221.794 307.666 222.108 307.999 222.502 308.233C222.895 308.458 223.331 308.57 223.809 308.57C224.287 308.57 224.722 308.458 225.116 308.233C225.519 307.999 225.837 307.666 226.072 307.235C226.306 306.795 226.423 306.284 226.423 305.703ZM231.157 303.117C231.381 302.676 231.7 302.334 232.112 302.091C232.534 301.847 233.045 301.725 233.644 301.725V303.046H233.307C231.873 303.046 231.157 303.824 231.157 305.38V309.568H229.878V301.866H231.157V303.117ZM240.147 303.285C240.4 302.845 240.775 302.479 241.272 302.189C241.778 301.889 242.363 301.739 243.028 301.739C243.713 301.739 244.331 301.903 244.884 302.231C245.446 302.559 245.886 303.023 246.205 303.623C246.524 304.213 246.683 304.902 246.683 305.689C246.683 306.467 246.524 307.16 246.205 307.769C245.886 308.378 245.446 308.851 244.884 309.189C244.331 309.526 243.713 309.695 243.028 309.695C242.373 309.695 241.792 309.549 241.286 309.259C240.789 308.959 240.409 308.589 240.147 308.149V313.223H238.868V301.866H240.147V303.285ZM245.376 305.689C245.376 305.108 245.259 304.602 245.024 304.171C244.79 303.74 244.472 303.412 244.069 303.187C243.675 302.962 243.239 302.85 242.761 302.85C242.293 302.85 241.857 302.967 241.454 303.201C241.061 303.426 240.742 303.759 240.499 304.199C240.264 304.63 240.147 305.131 240.147 305.703C240.147 306.284 240.264 306.795 240.499 307.235C240.742 307.666 241.061 307.999 241.454 308.233C241.857 308.458 242.293 308.57 242.761 308.57C243.239 308.57 243.675 308.458 244.069 308.233C244.472 307.999 244.79 307.666 245.024 307.235C245.259 306.795 245.376 306.279 245.376 305.689ZM249.646 303.117C249.87 302.676 250.189 302.334 250.601 302.091C251.023 301.847 251.534 301.725 252.133 301.725V303.046H251.796C250.362 303.046 249.646 303.824 249.646 305.38V309.568H248.366V301.866H249.646V303.117ZM256.969 309.695C256.248 309.695 255.592 309.531 255.001 309.203C254.42 308.875 253.961 308.411 253.624 307.811C253.296 307.202 253.132 306.499 253.132 305.703C253.132 304.916 253.301 304.222 253.638 303.623C253.985 303.014 254.453 302.55 255.043 302.231C255.634 301.903 256.294 301.739 257.025 301.739C257.756 301.739 258.417 301.903 259.007 302.231C259.597 302.55 260.061 303.009 260.399 303.609C260.745 304.208 260.919 304.906 260.919 305.703C260.919 306.499 260.741 307.202 260.385 307.811C260.038 308.411 259.565 308.875 258.965 309.203C258.365 309.531 257.7 309.695 256.969 309.695ZM256.969 308.57C257.428 308.57 257.859 308.462 258.262 308.247C258.665 308.031 258.988 307.708 259.232 307.277C259.485 306.846 259.612 306.321 259.612 305.703C259.612 305.084 259.49 304.56 259.246 304.129C259.002 303.698 258.684 303.379 258.29 303.173C257.897 302.957 257.47 302.85 257.011 302.85C256.543 302.85 256.112 302.957 255.718 303.173C255.334 303.379 255.025 303.698 254.79 304.129C254.556 304.56 254.439 305.084 254.439 305.703C254.439 306.331 254.552 306.86 254.776 307.291C255.011 307.722 255.32 308.045 255.704 308.261C256.088 308.467 256.51 308.57 256.969 308.57ZM265.468 308.387L267.857 301.866H269.22L266.199 309.568H264.709L261.687 301.866H263.064L265.468 308.387ZM271.14 300.615C270.896 300.615 270.69 300.53 270.521 300.362C270.353 300.193 270.268 299.987 270.268 299.743C270.268 299.5 270.353 299.294 270.521 299.125C270.69 298.956 270.896 298.872 271.14 298.872C271.374 298.872 271.571 298.956 271.73 299.125C271.899 299.294 271.983 299.5 271.983 299.743C271.983 299.987 271.899 300.193 271.73 300.362C271.571 300.53 271.374 300.615 271.14 300.615ZM271.758 301.866V309.568H270.479V301.866H271.758ZM273.46 305.689C273.46 304.902 273.619 304.213 273.938 303.623C274.257 303.023 274.692 302.559 275.245 302.231C275.807 301.903 276.435 301.739 277.129 301.739C277.728 301.739 278.286 301.88 278.801 302.161C279.317 302.433 279.71 302.793 279.982 303.243V299.167H281.275V309.568H279.982V308.12C279.729 308.58 279.354 308.959 278.857 309.259C278.361 309.549 277.78 309.695 277.115 309.695C276.431 309.695 275.807 309.526 275.245 309.189C274.692 308.851 274.257 308.378 273.938 307.769C273.619 307.16 273.46 306.467 273.46 305.689ZM279.982 305.703C279.982 305.122 279.865 304.616 279.631 304.185C279.396 303.754 279.078 303.426 278.675 303.201C278.281 302.967 277.845 302.85 277.368 302.85C276.89 302.85 276.454 302.962 276.06 303.187C275.667 303.412 275.353 303.74 275.119 304.171C274.884 304.602 274.767 305.108 274.767 305.689C274.767 306.279 274.884 306.795 275.119 307.235C275.353 307.666 275.667 307.999 276.06 308.233C276.454 308.458 276.89 308.57 277.368 308.57C277.845 308.57 278.281 308.458 278.675 308.233C279.078 307.999 279.396 307.666 279.631 307.235C279.865 306.795 279.982 306.284 279.982 305.703ZM290.464 305.422C290.464 305.665 290.45 305.923 290.422 306.195H284.266C284.313 306.954 284.57 307.549 285.039 307.98C285.517 308.402 286.093 308.612 286.768 308.612C287.32 308.612 287.78 308.486 288.145 308.233C288.52 307.97 288.782 307.624 288.932 307.193H290.31C290.103 307.933 289.691 308.537 289.073 309.006C288.454 309.465 287.686 309.695 286.768 309.695C286.037 309.695 285.381 309.531 284.8 309.203C284.228 308.875 283.778 308.411 283.451 307.811C283.123 307.202 282.959 306.499 282.959 305.703C282.959 304.906 283.118 304.208 283.436 303.609C283.755 303.009 284.2 302.55 284.772 302.231C285.353 301.903 286.018 301.739 286.768 301.739C287.498 301.739 288.145 301.899 288.707 302.217C289.269 302.536 289.701 302.976 290 303.538C290.31 304.091 290.464 304.719 290.464 305.422ZM289.143 305.155C289.143 304.667 289.035 304.25 288.82 303.904C288.604 303.548 288.309 303.281 287.934 303.103C287.569 302.915 287.161 302.822 286.711 302.822C286.065 302.822 285.512 303.028 285.053 303.44C284.603 303.852 284.345 304.424 284.28 305.155H289.143ZM294.879 309.695C294.289 309.695 293.759 309.596 293.291 309.399C292.822 309.193 292.452 308.912 292.181 308.556C291.909 308.191 291.759 307.774 291.731 307.305H293.052C293.09 307.689 293.268 308.003 293.586 308.247C293.914 308.491 294.34 308.612 294.865 308.612C295.352 308.612 295.737 308.505 296.018 308.289C296.299 308.074 296.439 307.802 296.439 307.474C296.439 307.137 296.289 306.888 295.99 306.729C295.69 306.56 295.226 306.396 294.598 306.237C294.027 306.087 293.558 305.937 293.193 305.787C292.837 305.628 292.527 305.398 292.265 305.098C292.012 304.789 291.885 304.386 291.885 303.89C291.885 303.496 292.003 303.135 292.237 302.807C292.471 302.479 292.804 302.222 293.235 302.034C293.666 301.838 294.158 301.739 294.711 301.739C295.563 301.739 296.252 301.955 296.777 302.386C297.301 302.817 297.583 303.407 297.62 304.157H296.341C296.313 303.754 296.149 303.431 295.849 303.187C295.559 302.943 295.165 302.822 294.668 302.822C294.209 302.822 293.844 302.92 293.572 303.117C293.3 303.313 293.164 303.571 293.164 303.89C293.164 304.143 293.244 304.354 293.403 304.522C293.572 304.682 293.778 304.813 294.022 304.916C294.275 305.009 294.622 305.117 295.062 305.239C295.615 305.389 296.065 305.539 296.411 305.689C296.758 305.829 297.053 306.045 297.297 306.335C297.55 306.626 297.681 307.005 297.69 307.474C297.69 307.896 297.573 308.275 297.339 308.612C297.105 308.95 296.772 309.217 296.341 309.414C295.919 309.601 295.432 309.695 294.879 309.695ZM309.877 301.866L305.239 313.194H303.918L305.436 309.484L302.33 301.866H303.749L306.167 308.106L308.556 301.866H309.877ZM314.522 309.695C313.801 309.695 313.145 309.531 312.555 309.203C311.974 308.875 311.514 308.411 311.177 307.811C310.849 307.202 310.685 306.499 310.685 305.703C310.685 304.916 310.854 304.222 311.191 303.623C311.538 303.014 312.006 302.55 312.597 302.231C313.187 301.903 313.848 301.739 314.578 301.739C315.309 301.739 315.97 301.903 316.56 302.231C317.151 302.55 317.614 303.009 317.952 303.609C318.299 304.208 318.472 304.906 318.472 305.703C318.472 306.499 318.294 307.202 317.938 307.811C317.591 308.411 317.118 308.875 316.518 309.203C315.918 309.531 315.253 309.695 314.522 309.695ZM314.522 308.57C314.981 308.57 315.412 308.462 315.815 308.247C316.218 308.031 316.542 307.708 316.785 307.277C317.038 306.846 317.165 306.321 317.165 305.703C317.165 305.084 317.043 304.56 316.799 304.129C316.556 303.698 316.237 303.379 315.843 303.173C315.45 302.957 315.024 302.85 314.564 302.85C314.096 302.85 313.665 302.957 313.271 303.173C312.887 303.379 312.578 303.698 312.344 304.129C312.109 304.56 311.992 305.084 311.992 305.703C311.992 306.331 312.105 306.86 312.33 307.291C312.564 307.722 312.873 308.045 313.257 308.261C313.641 308.467 314.063 308.57 314.522 308.57ZM326.985 301.866V309.568H325.705V308.43C325.462 308.823 325.12 309.132 324.679 309.357C324.248 309.573 323.771 309.681 323.246 309.681C322.646 309.681 322.107 309.559 321.629 309.315C321.152 309.062 320.772 308.687 320.491 308.191C320.219 307.694 320.083 307.09 320.083 306.378V301.866H321.348V306.209C321.348 306.968 321.54 307.554 321.925 307.966C322.309 308.369 322.833 308.57 323.499 308.57C324.183 308.57 324.722 308.359 325.115 307.938C325.509 307.516 325.705 306.902 325.705 306.096V301.866H326.985ZM343.152 301.866L340.748 309.568H339.427L337.572 303.454L335.716 309.568H334.395L331.978 301.866H333.285L335.056 308.331L336.967 301.866H338.275L340.144 308.345L341.887 301.866H343.152ZM345.082 300.615C344.838 300.615 344.632 300.53 344.463 300.362C344.295 300.193 344.21 299.987 344.21 299.743C344.21 299.5 344.295 299.294 344.463 299.125C344.632 298.956 344.838 298.872 345.082 298.872C345.316 298.872 345.513 298.956 345.672 299.125C345.841 299.294 345.925 299.5 345.925 299.743C345.925 299.987 345.841 300.193 345.672 300.362C345.513 300.53 345.316 300.615 345.082 300.615ZM345.7 301.866V309.568H344.421V301.866H345.7ZM349.44 302.92V307.46C349.44 307.835 349.52 308.102 349.679 308.261C349.839 308.411 350.115 308.486 350.509 308.486H351.45V309.568H350.298C349.586 309.568 349.051 309.404 348.695 309.076C348.339 308.748 348.161 308.209 348.161 307.46V302.92H347.163V301.866H348.161V299.926H349.44V301.866H351.45V302.92H349.44ZM356.823 301.725C357.404 301.725 357.929 301.852 358.397 302.105C358.866 302.348 359.231 302.718 359.494 303.215C359.765 303.712 359.901 304.316 359.901 305.028V309.568H358.636V305.211C358.636 304.443 358.444 303.857 358.06 303.454C357.676 303.042 357.151 302.836 356.486 302.836C355.811 302.836 355.272 303.046 354.869 303.468C354.476 303.89 354.279 304.503 354.279 305.309V309.568H353V299.167H354.279V302.962C354.532 302.569 354.879 302.264 355.319 302.048C355.769 301.833 356.27 301.725 356.823 301.725ZM432.858 305.422C432.858 305.665 432.844 305.923 432.816 306.195H426.659C426.706 306.954 426.964 307.549 427.433 307.98C427.91 308.402 428.487 308.612 429.161 308.612C429.714 308.612 430.173 308.486 430.539 308.233C430.914 307.97 431.176 307.624 431.326 307.193H432.703C432.497 307.933 432.085 308.537 431.466 309.006C430.848 309.465 430.08 309.695 429.161 309.695C428.43 309.695 427.775 309.531 427.194 309.203C426.622 308.875 426.172 308.411 425.844 307.811C425.516 307.202 425.352 306.499 425.352 305.703C425.352 304.906 425.512 304.208 425.83 303.609C426.149 303.009 426.594 302.55 427.165 302.231C427.746 301.903 428.412 301.739 429.161 301.739C429.892 301.739 430.539 301.899 431.101 302.217C431.663 302.536 432.094 302.976 432.394 303.538C432.703 304.091 432.858 304.719 432.858 305.422ZM431.537 305.155C431.537 304.667 431.429 304.25 431.213 303.904C430.998 303.548 430.703 303.281 430.328 303.103C429.962 302.915 429.555 302.822 429.105 302.822C428.459 302.822 427.906 303.028 427.447 303.44C426.997 303.852 426.739 304.424 426.674 305.155H431.537ZM437.414 308.387L439.803 301.866H441.166L438.144 309.568H436.655L433.633 301.866H435.01L437.414 308.387ZM449.453 305.422C449.453 305.665 449.439 305.923 449.411 306.195H443.254C443.301 306.954 443.559 307.549 444.027 307.98C444.505 308.402 445.081 308.612 445.756 308.612C446.309 308.612 446.768 308.486 447.134 308.233C447.508 307.97 447.771 307.624 447.921 307.193H449.298C449.092 307.933 448.68 308.537 448.061 309.006C447.443 309.465 446.674 309.695 445.756 309.695C445.025 309.695 444.369 309.531 443.788 309.203C443.217 308.875 442.767 308.411 442.439 307.811C442.111 307.202 441.947 306.499 441.947 305.703C441.947 304.906 442.106 304.208 442.425 303.609C442.744 303.009 443.189 302.55 443.76 302.231C444.341 301.903 445.006 301.739 445.756 301.739C446.487 301.739 447.134 301.899 447.696 302.217C448.258 302.536 448.689 302.976 448.989 303.538C449.298 304.091 449.453 304.719 449.453 305.422ZM448.131 305.155C448.131 304.667 448.024 304.25 447.808 303.904C447.593 303.548 447.298 303.281 446.923 303.103C446.557 302.915 446.15 302.822 445.7 302.822C445.053 302.822 444.5 303.028 444.041 303.44C443.592 303.852 443.334 304.424 443.268 305.155H448.131ZM452.42 303.117C452.645 302.676 452.964 302.334 453.376 302.091C453.797 301.847 454.308 301.725 454.908 301.725V303.046H454.571C453.137 303.046 452.42 303.824 452.42 305.38V309.568H451.141V301.866H452.42V303.117ZM463.019 301.866L458.38 313.194H457.059L458.577 309.484L455.471 301.866H456.89L459.308 308.106L461.697 301.866H463.019ZM477.314 301.725C477.914 301.725 478.448 301.852 478.916 302.105C479.385 302.348 479.755 302.718 480.027 303.215C480.298 303.712 480.434 304.316 480.434 305.028V309.568H479.169V305.211C479.169 304.443 478.977 303.857 478.593 303.454C478.218 303.042 477.708 302.836 477.061 302.836C476.396 302.836 475.866 303.051 475.473 303.482C475.079 303.904 474.882 304.518 474.882 305.323V309.568H473.617V305.211C473.617 304.443 473.425 303.857 473.041 303.454C472.666 303.042 472.156 302.836 471.509 302.836C470.844 302.836 470.314 303.051 469.921 303.482C469.527 303.904 469.33 304.518 469.33 305.323V309.568H468.051V301.866H469.33V302.976C469.583 302.573 469.921 302.264 470.342 302.048C470.774 301.833 471.247 301.725 471.762 301.725C472.409 301.725 472.98 301.87 473.477 302.161C473.973 302.451 474.344 302.878 474.587 303.44C474.803 302.896 475.159 302.475 475.655 302.175C476.152 301.875 476.705 301.725 477.314 301.725ZM485.892 309.695C485.17 309.695 484.514 309.531 483.924 309.203C483.343 308.875 482.884 308.411 482.546 307.811C482.218 307.202 482.055 306.499 482.055 305.703C482.055 304.916 482.223 304.222 482.561 303.623C482.907 303.014 483.376 302.55 483.966 302.231C484.556 301.903 485.217 301.739 485.948 301.739C486.679 301.739 487.339 301.903 487.93 302.231C488.52 302.55 488.984 303.009 489.321 303.609C489.668 304.208 489.841 304.906 489.841 305.703C489.841 306.499 489.663 307.202 489.307 307.811C488.96 308.411 488.487 308.875 487.888 309.203C487.288 309.531 486.623 309.695 485.892 309.695ZM485.892 308.57C486.351 308.57 486.782 308.462 487.185 308.247C487.588 308.031 487.911 307.708 488.155 307.277C488.408 306.846 488.534 306.321 488.534 305.703C488.534 305.084 488.412 304.56 488.169 304.129C487.925 303.698 487.606 303.379 487.213 303.173C486.819 302.957 486.393 302.85 485.934 302.85C485.465 302.85 485.034 302.957 484.641 303.173C484.257 303.379 483.947 303.698 483.713 304.129C483.479 304.56 483.362 305.084 483.362 305.703C483.362 306.331 483.474 306.86 483.699 307.291C483.933 307.722 484.242 308.045 484.627 308.261C485.011 308.467 485.433 308.57 485.892 308.57ZM495.276 301.725C496.213 301.725 496.972 302.011 497.553 302.583C498.134 303.145 498.424 303.96 498.424 305.028V309.568H497.159V305.211C497.159 304.443 496.967 303.857 496.583 303.454C496.199 303.042 495.674 302.836 495.009 302.836C494.334 302.836 493.795 303.046 493.392 303.468C492.999 303.89 492.802 304.503 492.802 305.309V309.568H491.523V301.866H492.802V302.962C493.055 302.569 493.397 302.264 493.828 302.048C494.268 301.833 494.751 301.725 495.276 301.725ZM502.074 302.92V307.46C502.074 307.835 502.153 308.102 502.313 308.261C502.472 308.411 502.748 308.486 503.142 308.486H504.084V309.568H502.931C502.219 309.568 501.685 309.404 501.329 309.076C500.973 308.748 500.795 308.209 500.795 307.46V302.92H499.797V301.866H500.795V299.926H502.074V301.866H504.084V302.92H502.074ZM509.456 301.725C510.037 301.725 510.562 301.852 511.031 302.105C511.499 302.348 511.865 302.718 512.127 303.215C512.399 303.712 512.535 304.316 512.535 305.028V309.568H511.27V305.211C511.27 304.443 511.077 303.857 510.693 303.454C510.309 303.042 509.784 302.836 509.119 302.836C508.444 302.836 507.906 303.046 507.503 303.468C507.109 303.89 506.912 304.503 506.912 305.309V309.568H505.633V299.167H506.912V302.962C507.165 302.569 507.512 302.264 507.952 302.048C508.402 301.833 508.904 301.725 509.456 301.725ZM519.931 302.92V307.46C519.931 307.835 520.011 308.102 520.17 308.261C520.329 308.411 520.606 308.486 520.999 308.486H521.941V309.568H520.789C520.076 309.568 519.542 309.404 519.186 309.076C518.83 308.748 518.652 308.209 518.652 307.46V302.92H517.654V301.866H518.652V299.926H519.931V301.866H521.941V302.92H519.931ZM526.85 309.695C526.129 309.695 525.473 309.531 524.882 309.203C524.301 308.875 523.842 308.411 523.505 307.811C523.177 307.202 523.013 306.499 523.013 305.703C523.013 304.916 523.182 304.222 523.519 303.623C523.866 303.014 524.334 302.55 524.924 302.231C525.515 301.903 526.175 301.739 526.906 301.739C527.637 301.739 528.298 301.903 528.888 302.231C529.478 302.55 529.942 303.009 530.28 303.609C530.626 304.208 530.8 304.906 530.8 305.703C530.8 306.499 530.622 307.202 530.266 307.811C529.919 308.411 529.446 308.875 528.846 309.203C528.246 309.531 527.581 309.695 526.85 309.695ZM526.85 308.57C527.309 308.57 527.74 308.462 528.143 308.247C528.546 308.031 528.869 307.708 529.113 307.277C529.366 306.846 529.493 306.321 529.493 305.703C529.493 305.084 529.371 304.56 529.127 304.129C528.883 303.698 528.565 303.379 528.171 303.173C527.778 302.957 527.351 302.85 526.892 302.85C526.424 302.85 525.993 302.957 525.599 303.173C525.215 303.379 524.906 303.698 524.671 304.129C524.437 304.56 524.32 305.084 524.32 305.703C524.32 306.331 524.433 306.86 524.657 307.291C524.892 307.722 525.201 308.045 525.585 308.261C525.969 308.467 526.391 308.57 526.85 308.57ZM183.266 325.703C183.266 324.906 183.426 324.213 183.744 323.623C184.063 323.023 184.503 322.559 185.066 322.231C185.637 321.903 186.288 321.739 187.019 321.739C187.966 321.739 188.743 321.969 189.353 322.428C189.971 322.887 190.379 323.524 190.575 324.339H189.198C189.067 323.871 188.809 323.501 188.425 323.229C188.05 322.957 187.582 322.822 187.019 322.822C186.288 322.822 185.698 323.074 185.248 323.58C184.799 324.077 184.574 324.785 184.574 325.703C184.574 326.631 184.799 327.347 185.248 327.853C185.698 328.359 186.288 328.612 187.019 328.612C187.582 328.612 188.05 328.481 188.425 328.219C188.8 327.956 189.057 327.582 189.198 327.094H190.575C190.369 327.881 189.957 328.514 189.338 328.992C188.72 329.46 187.947 329.695 187.019 329.695C186.288 329.695 185.637 329.531 185.066 329.203C184.503 328.875 184.063 328.411 183.744 327.811C183.426 327.211 183.266 326.509 183.266 325.703ZM195.641 329.695C194.92 329.695 194.264 329.531 193.673 329.203C193.092 328.875 192.633 328.411 192.296 327.811C191.968 327.202 191.804 326.499 191.804 325.703C191.804 324.916 191.973 324.222 192.31 323.623C192.657 323.014 193.125 322.55 193.716 322.231C194.306 321.903 194.967 321.739 195.697 321.739C196.428 321.739 197.089 321.903 197.679 322.231C198.27 322.55 198.733 323.009 199.071 323.609C199.417 324.208 199.591 324.906 199.591 325.703C199.591 326.499 199.413 327.202 199.057 327.811C198.71 328.411 198.237 328.875 197.637 329.203C197.037 329.531 196.372 329.695 195.641 329.695ZM195.641 328.57C196.1 328.57 196.531 328.462 196.934 328.247C197.337 328.031 197.661 327.708 197.904 327.277C198.157 326.846 198.284 326.321 198.284 325.703C198.284 325.084 198.162 324.56 197.918 324.129C197.675 323.698 197.356 323.379 196.962 323.173C196.569 322.957 196.143 322.85 195.683 322.85C195.215 322.85 194.784 322.957 194.39 323.173C194.006 323.379 193.697 323.698 193.463 324.129C193.228 324.56 193.111 325.084 193.111 325.703C193.111 326.331 193.224 326.86 193.449 327.291C193.683 327.722 193.992 328.045 194.376 328.261C194.76 328.467 195.182 328.57 195.641 328.57ZM205.025 321.725C205.962 321.725 206.721 322.011 207.302 322.583C207.883 323.145 208.174 323.96 208.174 325.028V329.568H206.909V325.211C206.909 324.443 206.717 323.857 206.332 323.454C205.948 323.042 205.424 322.836 204.758 322.836C204.084 322.836 203.545 323.046 203.142 323.468C202.748 323.89 202.552 324.503 202.552 325.309V329.568H201.273V321.866H202.552V322.962C202.805 322.569 203.147 322.264 203.578 322.048C204.018 321.833 204.501 321.725 205.025 321.725ZM211.823 322.92V327.46C211.823 327.835 211.903 328.102 212.062 328.261C212.221 328.411 212.498 328.486 212.891 328.486H213.833V329.568H212.681C211.968 329.568 211.434 329.404 211.078 329.076C210.722 328.748 210.544 328.209 210.544 327.46V322.92H209.546V321.866H210.544V319.926H211.823V321.866H213.833V322.92H211.823ZM216.043 320.615C215.8 320.615 215.594 320.53 215.425 320.362C215.256 320.193 215.172 319.987 215.172 319.743C215.172 319.5 215.256 319.294 215.425 319.125C215.594 318.956 215.8 318.872 216.043 318.872C216.278 318.872 216.474 318.956 216.634 319.125C216.802 319.294 216.887 319.5 216.887 319.743C216.887 319.987 216.802 320.193 216.634 320.362C216.474 320.53 216.278 320.615 216.043 320.615ZM216.662 321.866V329.568H215.383V321.866H216.662ZM222.595 321.725C223.532 321.725 224.291 322.011 224.872 322.583C225.453 323.145 225.743 323.96 225.743 325.028V329.568H224.478V325.211C224.478 324.443 224.286 323.857 223.902 323.454C223.518 323.042 222.993 322.836 222.328 322.836C221.653 322.836 221.114 323.046 220.711 323.468C220.318 323.89 220.121 324.503 220.121 325.309V329.568H218.842V321.866H220.121V322.962C220.374 322.569 220.716 322.264 221.147 322.048C221.587 321.833 222.07 321.725 222.595 321.725ZM234.663 321.866V329.568H233.384V328.43C233.141 328.823 232.799 329.132 232.358 329.357C231.927 329.573 231.449 329.681 230.925 329.681C230.325 329.681 229.786 329.559 229.308 329.315C228.83 329.062 228.451 328.687 228.17 328.191C227.898 327.694 227.762 327.09 227.762 326.378V321.866H229.027V326.209C229.027 326.968 229.219 327.554 229.603 327.966C229.988 328.369 230.512 328.57 231.178 328.57C231.862 328.57 232.4 328.359 232.794 327.938C233.187 327.516 233.384 326.902 233.384 326.096V321.866H234.663ZM243.851 325.422C243.851 325.665 243.837 325.923 243.808 326.195H237.652C237.699 326.954 237.957 327.549 238.425 327.98C238.903 328.402 239.479 328.612 240.154 328.612C240.707 328.612 241.166 328.486 241.531 328.233C241.906 327.97 242.169 327.624 242.319 327.193H243.696C243.49 327.933 243.078 328.537 242.459 329.006C241.841 329.465 241.072 329.695 240.154 329.695C239.423 329.695 238.767 329.531 238.186 329.203C237.615 328.875 237.165 328.411 236.837 327.811C236.509 327.202 236.345 326.499 236.345 325.703C236.345 324.906 236.504 324.208 236.823 323.609C237.141 323.009 237.587 322.55 238.158 322.231C238.739 321.903 239.404 321.739 240.154 321.739C240.885 321.739 241.531 321.899 242.094 322.217C242.656 322.536 243.087 322.976 243.387 323.538C243.696 324.091 243.851 324.719 243.851 325.422ZM242.529 325.155C242.529 324.667 242.422 324.25 242.206 323.904C241.991 323.548 241.695 323.281 241.321 323.103C240.955 322.915 240.548 322.822 240.098 322.822C239.451 322.822 238.898 323.028 238.439 323.44C237.99 323.852 237.732 324.424 237.666 325.155H242.529ZM255.92 321.866L251.282 333.194H249.961L251.479 329.484L248.373 321.866H249.792L252.21 328.106L254.599 321.866H255.92ZM260.565 329.695C259.844 329.695 259.188 329.531 258.598 329.203C258.017 328.875 257.557 328.411 257.22 327.811C256.892 327.202 256.728 326.499 256.728 325.703C256.728 324.916 256.897 324.222 257.234 323.623C257.581 323.014 258.049 322.55 258.64 322.231C259.23 321.903 259.891 321.739 260.622 321.739C261.352 321.739 262.013 321.903 262.603 322.231C263.194 322.55 263.657 323.009 263.995 323.609C264.342 324.208 264.515 324.906 264.515 325.703C264.515 326.499 264.337 327.202 263.981 327.811C263.634 328.411 263.161 328.875 262.561 329.203C261.961 329.531 261.296 329.695 260.565 329.695ZM260.565 328.57C261.024 328.57 261.455 328.462 261.858 328.247C262.261 328.031 262.585 327.708 262.828 327.277C263.081 326.846 263.208 326.321 263.208 325.703C263.208 325.084 263.086 324.56 262.842 324.129C262.599 323.698 262.28 323.379 261.887 323.173C261.493 322.957 261.067 322.85 260.607 322.85C260.139 322.85 259.708 322.957 259.314 323.173C258.93 323.379 258.621 323.698 258.387 324.129C258.152 324.56 258.035 325.084 258.035 325.703C258.035 326.331 258.148 326.86 258.373 327.291C258.607 327.722 258.916 328.045 259.3 328.261C259.684 328.467 260.106 328.57 260.565 328.57ZM273.028 321.866V329.568H271.748V328.43C271.505 328.823 271.163 329.132 270.722 329.357C270.291 329.573 269.814 329.681 269.289 329.681C268.689 329.681 268.15 329.559 267.672 329.315C267.195 329.062 266.815 328.687 266.534 328.191C266.262 327.694 266.126 327.09 266.126 326.378V321.866H267.391V326.209C267.391 326.968 267.583 327.554 267.968 327.966C268.352 328.369 268.876 328.57 269.542 328.57C270.226 328.57 270.765 328.359 271.158 327.938C271.552 327.516 271.748 326.902 271.748 326.096V321.866H273.028ZM276.466 323.117C276.691 322.676 277.01 322.334 277.422 322.091C277.844 321.847 278.354 321.725 278.954 321.725V323.046H278.617C277.183 323.046 276.466 323.824 276.466 325.38V329.568H275.187V321.866H276.466V323.117ZM284.866 320.615C284.623 320.615 284.417 320.53 284.248 320.362C284.089 320.193 284.009 319.987 284.009 319.743C284.009 319.5 284.089 319.294 284.248 319.125C284.417 318.956 284.623 318.872 284.866 318.872C285.11 318.872 285.311 318.956 285.471 319.125C285.639 319.294 285.724 319.5 285.724 319.743C285.724 319.987 285.639 320.193 285.471 320.362C285.311 320.53 285.11 320.615 284.866 320.615ZM285.499 331.241C285.499 331.925 285.326 332.426 284.979 332.745C284.632 333.063 284.126 333.223 283.461 333.223H282.716V332.14H283.25C283.606 332.14 283.854 332.07 283.995 331.929C284.145 331.789 284.22 331.55 284.22 331.213V321.866H285.499V331.241ZM291.023 329.695C290.302 329.695 289.646 329.531 289.056 329.203C288.475 328.875 288.015 328.411 287.678 327.811C287.35 327.202 287.186 326.499 287.186 325.703C287.186 324.916 287.355 324.222 287.692 323.623C288.039 323.014 288.507 322.55 289.098 322.231C289.688 321.903 290.349 321.739 291.08 321.739C291.81 321.739 292.471 321.903 293.061 322.231C293.652 322.55 294.116 323.009 294.453 323.609C294.8 324.208 294.973 324.906 294.973 325.703C294.973 326.499 294.795 327.202 294.439 327.811C294.092 328.411 293.619 328.875 293.019 329.203C292.42 329.531 291.754 329.695 291.023 329.695ZM291.023 328.57C291.482 328.57 291.914 328.462 292.316 328.247C292.719 328.031 293.043 327.708 293.286 327.277C293.539 326.846 293.666 326.321 293.666 325.703C293.666 325.084 293.544 324.56 293.3 324.129C293.057 323.698 292.738 323.379 292.345 323.173C291.951 322.957 291.525 322.85 291.065 322.85C290.597 322.85 290.166 322.957 289.772 323.173C289.388 323.379 289.079 323.698 288.845 324.129C288.61 324.56 288.493 325.084 288.493 325.703C288.493 326.331 288.606 326.86 288.831 327.291C289.065 327.722 289.374 328.045 289.758 328.261C290.143 328.467 290.564 328.57 291.023 328.57ZM297.934 323.299C298.196 322.84 298.58 322.465 299.086 322.175C299.592 321.884 300.168 321.739 300.815 321.739C301.508 321.739 302.132 321.903 302.684 322.231C303.237 322.559 303.673 323.023 303.992 323.623C304.31 324.213 304.469 324.902 304.469 325.689C304.469 326.467 304.31 327.16 303.992 327.769C303.673 328.378 303.233 328.851 302.67 329.189C302.118 329.526 301.499 329.695 300.815 329.695C300.15 329.695 299.564 329.549 299.058 329.259C298.561 328.968 298.187 328.598 297.934 328.149V329.568H296.655V319.167H297.934V323.299ZM303.162 325.689C303.162 325.108 303.045 324.602 302.811 324.171C302.577 323.74 302.258 323.412 301.855 323.187C301.462 322.962 301.026 322.85 300.548 322.85C300.079 322.85 299.644 322.967 299.241 323.201C298.847 323.426 298.529 323.759 298.285 324.199C298.051 324.63 297.934 325.131 297.934 325.703C297.934 326.284 298.051 326.795 298.285 327.235C298.529 327.666 298.847 327.999 299.241 328.233C299.644 328.458 300.079 328.57 300.548 328.57C301.026 328.57 301.462 328.458 301.855 328.233C302.258 327.999 302.577 327.666 302.811 327.235C303.045 326.795 303.162 326.279 303.162 325.689ZM313.723 321.725C314.304 321.725 314.829 321.852 315.298 322.105C315.766 322.348 316.131 322.718 316.394 323.215C316.666 323.712 316.801 324.316 316.801 325.028V329.568H315.536V325.211C315.536 324.443 315.344 323.857 314.96 323.454C314.576 323.042 314.051 322.836 313.386 322.836C312.711 322.836 312.173 323.046 311.77 323.468C311.376 323.89 311.179 324.503 311.179 325.309V329.568H309.9V319.167H311.179V322.962C311.432 322.569 311.779 322.264 312.219 322.048C312.669 321.833 313.17 321.725 313.723 321.725ZM325.722 321.866V329.568H324.443V328.43C324.199 328.823 323.857 329.132 323.417 329.357C322.986 329.573 322.508 329.681 321.983 329.681C321.383 329.681 320.844 329.559 320.367 329.315C319.889 329.062 319.509 328.687 319.228 328.191C318.956 327.694 318.82 327.09 318.82 326.378V321.866H320.085V326.209C320.085 326.968 320.278 327.554 320.662 327.966C321.046 328.369 321.571 328.57 322.236 328.57C322.92 328.57 323.459 328.359 323.852 327.938C324.246 327.516 324.443 326.902 324.443 326.096V321.866H325.722ZM331.634 321.725C332.571 321.725 333.33 322.011 333.911 322.583C334.492 323.145 334.783 323.96 334.783 325.028V329.568H333.518V325.211C333.518 324.443 333.325 323.857 332.941 323.454C332.557 323.042 332.032 322.836 331.367 322.836C330.692 322.836 330.154 323.046 329.751 323.468C329.357 323.89 329.16 324.503 329.16 325.309V329.568H327.881V321.866H329.16V322.962C329.413 322.569 329.755 322.264 330.186 322.048C330.627 321.833 331.109 321.725 331.634 321.725ZM338.432 322.92V327.46C338.432 327.835 338.512 328.102 338.671 328.261C338.83 328.411 339.107 328.486 339.5 328.486H340.442V329.568H339.289C338.577 329.568 338.043 329.404 337.687 329.076C337.331 328.748 337.153 328.209 337.153 327.46V322.92H336.155V321.866H337.153V319.926H338.432V321.866H340.442V322.92H338.432ZM342.399 329.652C342.156 329.652 341.949 329.568 341.781 329.399C341.612 329.231 341.528 329.025 341.528 328.781C341.528 328.537 341.612 328.331 341.781 328.163C341.949 327.994 342.156 327.91 342.399 327.91C342.634 327.91 342.83 327.994 342.99 328.163C343.158 328.331 343.243 328.537 343.243 328.781C343.243 329.025 343.158 329.231 342.99 329.399C342.83 329.568 342.634 329.652 342.399 329.652Z" fill="#636363"/>
<path d="M365.035 301.542V299.308H368.928V309.568H366.426V301.542H365.035ZM370.572 304.297C370.572 302.686 370.882 301.416 371.5 300.488C372.128 299.561 373.135 299.097 374.522 299.097C375.909 299.097 376.911 299.561 377.53 300.488C378.158 301.416 378.472 302.686 378.472 304.297C378.472 305.928 378.158 307.207 377.53 308.134C376.911 309.062 375.909 309.526 374.522 309.526C373.135 309.526 372.128 309.062 371.5 308.134C370.882 307.207 370.572 305.928 370.572 304.297ZM376.11 304.297C376.11 303.351 376.007 302.625 375.801 302.119C375.595 301.603 375.169 301.346 374.522 301.346C373.875 301.346 373.449 301.603 373.243 302.119C373.037 302.625 372.934 303.351 372.934 304.297C372.934 304.935 372.971 305.464 373.046 305.886C373.121 306.298 373.271 306.635 373.496 306.898C373.73 307.151 374.072 307.277 374.522 307.277C374.972 307.277 375.309 307.151 375.534 306.898C375.768 306.635 375.923 306.298 375.998 305.886C376.073 305.464 376.11 304.935 376.11 304.297ZM382.481 305.647C382.481 304.831 382.645 304.119 382.973 303.51C383.31 302.901 383.774 302.433 384.364 302.105C384.964 301.777 385.648 301.613 386.417 301.613C387.4 301.613 388.22 301.87 388.876 302.386C389.542 302.901 389.977 303.627 390.183 304.564H387.625C387.41 303.965 386.993 303.665 386.374 303.665C385.934 303.665 385.583 303.838 385.32 304.185C385.058 304.522 384.927 305.009 384.927 305.647C384.927 306.284 385.058 306.776 385.32 307.122C385.583 307.46 385.934 307.628 386.374 307.628C386.993 307.628 387.41 307.329 387.625 306.729H390.183C389.977 307.647 389.542 308.369 388.876 308.893C388.211 309.418 387.391 309.681 386.417 309.681C385.648 309.681 384.964 309.517 384.364 309.189C383.774 308.861 383.31 308.392 382.973 307.783C382.645 307.174 382.481 306.462 382.481 305.647ZM395.039 309.681C394.271 309.681 393.577 309.517 392.959 309.189C392.35 308.861 391.867 308.392 391.511 307.783C391.164 307.174 390.991 306.462 390.991 305.647C390.991 304.841 391.169 304.133 391.525 303.524C391.881 302.906 392.369 302.433 392.987 302.105C393.605 301.777 394.299 301.613 395.067 301.613C395.836 301.613 396.529 301.777 397.147 302.105C397.766 302.433 398.253 302.906 398.609 303.524C398.965 304.133 399.143 304.841 399.143 305.647C399.143 306.452 398.961 307.165 398.595 307.783C398.239 308.392 397.747 308.861 397.119 309.189C396.501 309.517 395.807 309.681 395.039 309.681ZM395.039 307.6C395.498 307.6 395.887 307.432 396.206 307.094C396.534 306.757 396.698 306.274 396.698 305.647C396.698 305.019 396.538 304.536 396.22 304.199C395.911 303.862 395.526 303.693 395.067 303.693C394.599 303.693 394.21 303.862 393.901 304.199C393.591 304.527 393.437 305.009 393.437 305.647C393.437 306.274 393.587 306.757 393.887 307.094C394.196 307.432 394.58 307.6 395.039 307.6ZM401.627 300.91C401.205 300.91 400.859 300.788 400.587 300.545C400.325 300.292 400.194 299.982 400.194 299.617C400.194 299.242 400.325 298.933 400.587 298.689C400.859 298.436 401.205 298.31 401.627 298.31C402.039 298.31 402.377 298.436 402.639 298.689C402.911 298.933 403.047 299.242 403.047 299.617C403.047 299.982 402.911 300.292 402.639 300.545C402.377 300.788 402.039 300.91 401.627 300.91ZM402.822 301.725V309.568H400.418V301.725H402.822ZM409.343 301.641C410.261 301.641 410.992 301.941 411.535 302.54C412.088 303.131 412.364 303.946 412.364 304.986V309.568H409.975V305.309C409.975 304.785 409.839 304.377 409.567 304.086C409.296 303.796 408.93 303.651 408.471 303.651C408.012 303.651 407.646 303.796 407.375 304.086C407.103 304.377 406.967 304.785 406.967 305.309V309.568H404.564V301.725H406.967V302.765C407.211 302.419 407.539 302.147 407.951 301.95C408.363 301.744 408.827 301.641 409.343 301.641ZM417.225 309.681C416.541 309.681 415.932 309.563 415.398 309.329C414.864 309.095 414.442 308.776 414.133 308.373C413.824 307.961 413.65 307.502 413.613 306.996H415.988C416.016 307.268 416.143 307.488 416.368 307.657C416.593 307.825 416.869 307.91 417.197 307.91C417.497 307.91 417.727 307.853 417.886 307.741C418.054 307.619 418.139 307.464 418.139 307.277C418.139 307.052 418.022 306.888 417.787 306.785C417.553 306.673 417.174 306.551 416.649 306.42C416.087 306.289 415.618 306.153 415.243 306.012C414.869 305.862 414.545 305.633 414.274 305.323C414.002 305.005 413.866 304.578 413.866 304.044C413.866 303.595 413.988 303.187 414.231 302.822C414.484 302.447 414.85 302.152 415.328 301.936C415.815 301.72 416.391 301.613 417.057 301.613C418.04 301.613 418.813 301.856 419.376 302.344C419.947 302.831 420.275 303.477 420.36 304.283H418.139C418.101 304.012 417.98 303.796 417.773 303.637C417.577 303.477 417.314 303.398 416.986 303.398C416.705 303.398 416.49 303.454 416.34 303.566C416.19 303.67 416.115 303.815 416.115 304.002C416.115 304.227 416.232 304.396 416.466 304.508C416.71 304.621 417.085 304.733 417.591 304.845C418.172 304.995 418.645 305.145 419.01 305.295C419.376 305.436 419.694 305.67 419.966 305.998C420.247 306.317 420.392 306.748 420.402 307.291C420.402 307.75 420.271 308.163 420.008 308.528C419.755 308.884 419.385 309.165 418.898 309.371C418.42 309.577 417.862 309.681 417.225 309.681Z" fill="#926CFF"/>
</g>
<path d="M36.3432 362.529H143.676L91.3581 178.733L36.3432 362.529Z" fill="#BDA6FF" stroke="#10380B" stroke-width="2"/>
<path d="M58.6878 284.387L90.1349 329.247V363.529H92.6299V276.233L115.035 258.264L114.297 255.659L92.6299 273.035V179.547L91.3824 175.165L90.1349 179.332V216.393L81.6568 207.65L80.8385 210.39L90.1349 219.981V324.891L59.601 281.343L58.6878 284.387Z" fill="#59221D"/>
<path d="M168.945 318.398L168.945 318.398C163.836 319.165 160.023 318.103 156.831 316.039C153.838 314.104 151.418 311.299 149.009 308.507C148.898 308.378 148.787 308.249 148.675 308.12C146.121 305.163 143.513 302.215 140.09 299.973C136.695 297.749 132.463 296.199 126.65 296.138L126.65 296.138C119.976 296.065 113.329 300.068 107.036 306.4C100.765 312.71 94.9925 321.184 90.0745 329.719C85.1613 338.246 81.1254 346.789 78.3167 353.204C76.9129 356.41 75.8169 359.082 75.0723 360.951C74.8261 361.569 74.6184 362.099 74.4507 362.532L242.421 362.471C242.461 361.913 242.497 361.115 242.48 360.16C242.446 358.228 242.199 355.688 241.364 353.189C240.53 350.694 239.125 348.283 236.801 346.534C234.486 344.792 231.164 343.635 226.358 343.806C222.014 343.961 218.883 343.99 216.538 343.76C214.18 343.529 212.509 343.026 211.153 342.037C209.818 341.063 208.894 339.69 207.889 337.981C207.601 337.492 207.304 336.972 206.987 336.415C206.174 334.988 205.224 333.32 203.93 331.32C200.379 325.83 196.318 321.937 190.87 319.735C185.403 317.526 178.421 316.973 168.945 318.398Z" fill="#C7C4FF" stroke="#10380B" stroke-width="2"/>
<path d="M502.644 362.78C504.629 357.175 507.715 352.016 511.729 347.61C516.2 342.701 521.709 338.851 527.855 336.339C534.001 333.827 540.63 332.716 547.259 333.088C553.888 333.46 560.352 335.304 566.178 338.487L569.002 340.03L568.368 336.875C565.785 324.022 568.308 310.667 575.403 299.642C582.498 288.617 593.607 280.788 606.377 277.814C619.146 274.841 632.571 276.957 643.807 283.713C655.043 290.469 663.206 301.335 666.567 314.008L666.929 315.374L668.314 315.094C670.193 314.714 672.107 314.524 674.025 314.525H674.026C688.764 314.525 700.493 325.449 700.493 338.654C700.493 351.859 688.771 362.78 674.026 362.78H502.644Z" fill="#BDA6FF" stroke="#10380B" stroke-width="3"/>
<path d="M614.932 364.035V308.476" stroke="#10380B" stroke-width="1.60843" stroke-miterlimit="10" stroke-linecap="round"/>
<path d="M626.84 322.528L614.932 341.359" stroke="#10380B" stroke-width="1.60843" stroke-miterlimit="10" stroke-linecap="round"/>
<path d="M598.643 344.862L614.933 357.125" stroke="#10380B" stroke-width="1.60843" stroke-miterlimit="10" stroke-linecap="round"/>
<path d="M550.434 363.261H699.5L705 359L711 363.261H722.695" stroke="#10380B" stroke-width="2.47266"/>
<path d="M3 363H20.3266L29.7118 361L37.6532 363H46.3165H250" stroke="#10380B" stroke-width="2.47266"/>
<g filter="url(#filter1_d_301_6434)">
<path d="M247 16C247 7.16345 254.163 0 263 0H456.949C465.786 0 472.949 7.16344 472.949 16V47.8356C472.949 56.6721 465.786 63.8356 456.949 63.8356H263C254.163 63.8356 247 56.6722 247 47.8356V16Z" fill="white" shape-rendering="crispEdges"/>
<path d="M263 1H456.949C465.233 1 471.949 7.71573 471.949 16V47.8356C471.949 56.1199 465.233 62.8356 456.949 62.8356H263C254.716 62.8356 248 56.1199 248 47.8356V16C248 7.71573 254.716 1 263 1Z" stroke="black" stroke-width="2" shape-rendering="crispEdges"/>
<path d="M276.836 25.3895V26.999H273.635V37.4178H271.662V26.999H268.443V25.3895H276.836ZM282.971 37.5735C282.071 37.5735 281.258 37.3716 280.531 36.9678C279.804 36.5524 279.233 35.9755 278.817 35.2371C278.402 34.4871 278.194 33.6218 278.194 32.6411C278.194 31.6719 278.408 30.8123 278.835 30.0623C279.261 29.3124 279.844 28.7355 280.583 28.3316C281.321 27.9278 282.146 27.7259 283.057 27.7259C283.969 27.7259 284.794 27.9278 285.532 28.3316C286.271 28.7355 286.853 29.3124 287.28 30.0623C287.707 30.8123 287.921 31.6719 287.921 32.6411C287.921 33.6103 287.701 34.4698 287.263 35.2198C286.825 35.9698 286.225 36.5524 285.463 36.9678C284.713 37.3716 283.882 37.5735 282.971 37.5735ZM282.971 35.8602C283.479 35.8602 283.952 35.739 284.39 35.4967C284.84 35.2544 285.204 34.891 285.48 34.4064C285.757 33.9218 285.896 33.3333 285.896 32.6411C285.896 31.9488 285.763 31.3661 285.498 30.8931C285.232 30.4085 284.88 30.045 284.442 29.8027C284.004 29.5604 283.53 29.4393 283.023 29.4393C282.515 29.4393 282.042 29.5604 281.604 29.8027C281.177 30.045 280.836 30.4085 280.583 30.8931C280.329 31.3661 280.202 31.9488 280.202 32.6411C280.202 33.668 280.461 34.4641 280.981 35.0294C281.511 35.5833 282.175 35.8602 282.971 35.8602ZM292.173 29.4912V34.7698C292.173 35.1275 292.254 35.3871 292.415 35.5486C292.588 35.6986 292.877 35.7736 293.281 35.7736H294.492V37.4178H292.934C292.046 37.4178 291.365 37.2101 290.892 36.7947C290.419 36.3794 290.183 35.7044 290.183 34.7698V29.4912H289.058V27.8817H290.183V25.5106H292.173V27.8817H294.492V29.4912H292.173ZM295.653 32.6065C295.653 31.6488 295.849 30.8008 296.241 30.0623C296.645 29.3239 297.187 28.7528 297.868 28.349C298.56 27.9336 299.322 27.7259 300.153 27.7259C300.903 27.7259 301.554 27.8759 302.108 28.1759C302.674 28.4643 303.124 28.8278 303.458 29.2662V27.8817H305.449V37.4178H303.458V35.9986C303.124 36.4486 302.668 36.8236 302.091 37.1236C301.514 37.4236 300.856 37.5735 300.118 37.5735C299.299 37.5735 298.549 37.3659 297.868 36.9505C297.187 36.5236 296.645 35.9352 296.241 35.1852C295.849 34.4237 295.653 33.5641 295.653 32.6065ZM303.458 32.6411C303.458 31.9834 303.32 31.4123 303.043 30.9277C302.778 30.4431 302.426 30.0739 301.987 29.82C301.549 29.5662 301.076 29.4393 300.568 29.4393C300.06 29.4393 299.587 29.5662 299.149 29.82C298.71 30.0623 298.353 30.4258 298.076 30.9104C297.81 31.3834 297.678 31.9488 297.678 32.6065C297.678 33.2641 297.81 33.841 298.076 34.3372C298.353 34.8333 298.71 35.214 299.149 35.4794C299.599 35.7332 300.072 35.8602 300.568 35.8602C301.076 35.8602 301.549 35.7332 301.987 35.4794C302.426 35.2256 302.778 34.8564 303.043 34.3718C303.32 33.8756 303.458 33.2987 303.458 32.6411ZM310.013 24.6107V37.4178H308.04V24.6107H310.013Z" fill="#30283D"/>
<path d="M320.248 27.559V24.2569H326.001V39.4177H322.304V27.559H320.248ZM328.43 31.6296C328.43 29.2482 328.887 27.3721 329.801 26.0014C330.729 24.6307 332.217 23.9453 334.266 23.9453C336.316 23.9453 337.797 24.6307 338.711 26.0014C339.638 27.3721 340.102 29.2482 340.102 31.6296C340.102 34.0387 339.638 35.9286 338.711 37.2994C337.797 38.6701 336.316 39.3554 334.266 39.3554C332.217 39.3554 330.729 38.6701 329.801 37.2994C328.887 35.9286 328.43 34.0387 328.43 31.6296ZM336.613 31.6296C336.613 30.2312 336.461 29.1582 336.156 28.4105C335.852 27.649 335.222 27.2683 334.266 27.2683C333.311 27.2683 332.681 27.649 332.376 28.4105C332.072 29.1582 331.92 30.2312 331.92 31.6296C331.92 32.5711 331.975 33.3534 332.086 33.9764C332.196 34.5856 332.418 35.0841 332.75 35.4717C333.096 35.8456 333.602 36.0325 334.266 36.0325C334.931 36.0325 335.429 35.8456 335.762 35.4717C336.108 35.0841 336.336 34.5856 336.447 33.9764C336.558 33.3534 336.613 32.5711 336.613 31.6296ZM341.979 31.6296C341.979 29.2482 342.435 27.3721 343.349 26.0014C344.277 24.6307 345.765 23.9453 347.814 23.9453C349.864 23.9453 351.345 24.6307 352.259 26.0014C353.187 27.3721 353.65 29.2482 353.65 31.6296C353.65 34.0387 353.187 35.9286 352.259 37.2994C351.345 38.6701 349.864 39.3554 347.814 39.3554C345.765 39.3554 344.277 38.6701 343.349 37.2994C342.435 35.9286 341.979 34.0387 341.979 31.6296ZM350.161 31.6296C350.161 30.2312 350.009 29.1582 349.704 28.4105C349.4 27.649 348.77 27.2683 347.814 27.2683C346.859 27.2683 346.229 27.649 345.925 28.4105C345.62 29.1582 345.468 30.2312 345.468 31.6296C345.468 32.5711 345.523 33.3534 345.634 33.9764C345.745 34.5856 345.966 35.0841 346.298 35.4717C346.645 35.8456 347.15 36.0325 347.814 36.0325C348.479 36.0325 348.977 35.8456 349.31 35.4717C349.656 35.0841 349.884 34.5856 349.995 33.9764C350.106 33.3534 350.161 32.5711 350.161 31.6296ZM359.886 32.1696C359.886 30.7573 360.205 29.4905 360.842 28.369C361.478 27.2336 362.344 26.3475 363.438 25.7106C364.545 25.0737 365.771 24.7553 367.114 24.7553C368.692 24.7553 370.07 25.136 371.246 25.8976C372.423 26.6591 373.282 27.739 373.822 29.1374H371.558C371.156 28.2651 370.575 27.5936 369.813 27.1229C369.066 26.6521 368.166 26.4168 367.114 26.4168C366.103 26.4168 365.196 26.6521 364.393 27.1229C363.59 27.5936 362.96 28.2651 362.503 29.1374C362.046 29.9958 361.818 31.0066 361.818 32.1696C361.818 33.3188 362.046 34.3295 362.503 35.2018C362.96 36.0602 363.59 36.7248 364.393 37.1955C365.196 37.6663 366.103 37.9016 367.114 37.9016C368.166 37.9016 369.066 37.6732 369.813 37.2163C370.575 36.7455 371.156 36.074 371.558 35.2018H373.822C373.282 36.5863 372.423 37.6593 371.246 38.4208C370.07 39.1685 368.692 39.5423 367.114 39.5423C365.771 39.5423 364.545 39.2308 363.438 38.6078C362.344 37.9709 361.478 37.0917 360.842 35.9702C360.205 34.8487 359.886 33.5818 359.886 32.1696ZM381.599 39.6046C380.533 39.6046 379.563 39.3623 378.691 38.8777C377.833 38.3932 377.154 37.7078 376.656 36.8217C376.171 35.9217 375.929 34.8833 375.929 33.7064C375.929 32.5434 376.178 31.5188 376.677 30.6327C377.189 29.7328 377.881 29.0474 378.753 28.5767C379.626 28.0921 380.602 27.8498 381.682 27.8498C382.762 27.8498 383.738 28.0921 384.61 28.5767C385.482 29.0474 386.168 29.7258 386.666 30.612C387.178 31.4981 387.435 32.5296 387.435 33.7064C387.435 34.8833 387.171 35.9217 386.645 36.8217C386.133 37.7078 385.434 38.3932 384.548 38.8777C383.662 39.3623 382.679 39.6046 381.599 39.6046ZM381.599 37.9432C382.277 37.9432 382.914 37.784 383.509 37.4655C384.105 37.1471 384.582 36.6694 384.942 36.0325C385.316 35.3956 385.503 34.6202 385.503 33.7064C385.503 32.7926 385.323 32.0173 384.963 31.3804C384.603 30.7435 384.132 30.2727 383.551 29.9681C382.969 29.6497 382.339 29.4905 381.661 29.4905C380.969 29.4905 380.332 29.6497 379.75 29.9681C379.183 30.2727 378.726 30.7435 378.38 31.3804C378.033 32.0173 377.86 32.7926 377.86 33.7064C377.86 34.6341 378.027 35.4164 378.359 36.0533C378.705 36.6902 379.162 37.1678 379.73 37.4863C380.297 37.7909 380.92 37.9432 381.599 37.9432ZM390.896 26.1883C390.536 26.1883 390.231 26.0637 389.982 25.8145C389.733 25.5653 389.608 25.2607 389.608 24.9007C389.608 24.5407 389.733 24.2361 389.982 23.9869C390.231 23.7376 390.536 23.613 390.896 23.613C391.242 23.613 391.532 23.7376 391.768 23.9869C392.017 24.2361 392.142 24.5407 392.142 24.9007C392.142 25.2607 392.017 25.5653 391.768 25.8145C391.532 26.0637 391.242 26.1883 390.896 26.1883ZM391.809 28.0367V39.4177H389.919V28.0367H391.809ZM400.576 27.829C401.96 27.829 403.082 28.2513 403.94 29.0959C404.798 29.9266 405.228 31.1312 405.228 32.7096V39.4177H403.359V32.9795C403.359 31.8442 403.075 30.9789 402.507 30.3835C401.939 29.7743 401.164 29.4697 400.181 29.4697C399.184 29.4697 398.388 29.7812 397.793 30.4043C397.211 31.0273 396.92 31.9342 396.92 33.1249V39.4177H395.03V28.0367H396.92V29.6566C397.294 29.0751 397.8 28.6251 398.436 28.3067C399.087 27.9882 399.8 27.829 400.576 27.829ZM412.344 39.6046C411.472 39.6046 410.689 39.4593 409.997 39.1685C409.305 38.8639 408.758 38.4485 408.356 37.9224C407.955 37.3824 407.733 36.7663 407.692 36.074H409.644C409.699 36.6417 409.962 37.1055 410.433 37.4655C410.918 37.8255 411.548 38.0055 412.323 38.0055C413.043 38.0055 413.611 37.8463 414.026 37.5278C414.441 37.2094 414.649 36.8078 414.649 36.3232C414.649 35.8248 414.428 35.4579 413.985 35.2225C413.542 34.9733 412.856 34.731 411.929 34.4956C411.084 34.2741 410.392 34.0526 409.852 33.831C409.326 33.5957 408.869 33.2565 408.481 32.8134C408.107 32.3565 407.92 31.7611 407.92 31.0273C407.92 30.4458 408.093 29.9128 408.439 29.4282C408.786 28.9436 409.277 28.5628 409.914 28.2859C410.551 27.9952 411.278 27.8498 412.095 27.8498C413.355 27.8498 414.372 28.1682 415.148 28.8051C415.923 29.442 416.338 30.3143 416.394 31.4219H414.504C414.462 30.8266 414.22 30.3489 413.777 29.9889C413.348 29.6289 412.766 29.4489 412.032 29.4489C411.354 29.4489 410.814 29.5943 410.412 29.8851C410.011 30.1758 409.81 30.5566 409.81 31.0273C409.81 31.4012 409.928 31.7127 410.163 31.9619C410.412 32.1973 410.717 32.3911 411.077 32.5434C411.451 32.6819 411.963 32.8411 412.614 33.0211C413.431 33.2426 414.095 33.4641 414.608 33.6857C415.12 33.8934 415.556 34.2118 415.916 34.641C416.29 35.0702 416.484 35.631 416.498 36.3232C416.498 36.9463 416.324 37.507 415.978 38.0055C415.632 38.5039 415.141 38.8985 414.504 39.1893C413.881 39.4662 413.161 39.6046 412.344 39.6046Z" fill="#30283D"/>
<path d="M438.038 29.82L438.037 29.2659C437.636 29.1934 437.33 28.8407 437.33 28.4181V26.1313C437.33 25.6559 437.717 25.2694 438.192 25.2694H451.035C451.511 25.2694 451.897 25.6559 451.897 26.1313V28.4181C451.897 28.8407 451.592 29.1934 451.19 29.2659L451.19 29.82C451.592 29.8932 451.897 30.2463 451.897 30.6687V32.9556C451.897 33.3778 451.592 33.7301 451.19 33.8034L451.19 34.3575C451.592 34.43 451.897 34.7827 451.897 35.2053V37.4921C451.897 37.9146 451.592 38.2673 451.19 38.3399L451.19 38.8939C451.592 38.9672 451.897 39.3196 451.897 39.7418V42.0286C451.897 42.504 451.511 42.8905 451.035 42.8905H438.192C437.717 42.8905 437.33 42.5041 437.33 42.0286V39.7418C437.33 39.3196 437.635 38.9672 438.038 38.8939L438.037 38.3399C437.636 38.2673 437.33 37.9146 437.33 37.4921V35.2053C437.33 34.7827 437.636 34.43 438.037 34.3575L438.038 33.8034C437.635 33.7301 437.33 33.3778 437.33 32.9556V30.6687C437.33 30.2463 437.636 29.8932 438.038 29.82Z" fill="#BDA6FF" stroke="black" stroke-width="0.563057"/>
<path d="M451.735 28.9284C451.622 29.0819 451.459 29.1968 451.271 29.249H451.002V29.5305V29.5358H451.198L451.198 29.5508H451.002V33.1825V33.464H451.284H451.735C451.623 33.6173 451.461 33.732 451.274 33.7846H450.365H450.083V34.0661V37.719V38.0006H450.365H451.735C451.624 38.153 451.463 38.2678 451.277 38.3211H448.97H448.688V38.6027V42.8904H448.368V38.6027V38.3211H448.086H447.25H446.969V38.6027V42.8904H446.648V38.6027V38.3211H446.366H440.498H440.216V38.6027V42.8904H439.896V38.6027V38.3211H439.614H437.96C437.774 38.2678 437.613 38.1531 437.501 38.0006H442.628H442.91V37.719V34.0661V33.7846H442.628H437.963C437.776 33.7321 437.614 33.6173 437.502 33.464H438.349H438.631V33.1825V29.5305V29.249H438.349H437.966C437.778 29.1969 437.616 29.0819 437.503 28.9284H440.788H441.069V28.6469V25.2693H441.39V28.6469V28.9284H441.671H446.474H446.755V28.6469V25.2693H447.076V28.6469V28.9284H447.357H448.268H448.55V28.6469V25.2693H448.87V28.6469V28.9284H449.152H451.735ZM443.512 33.7846H443.231V34.0661V37.719V38.0006H443.512H444.18H444.462V37.719V34.0661V33.7846H444.18H443.512ZM445.064 33.7846H444.782V34.0661V37.719V38.0006H445.064H449.481H449.763V37.719V34.0661V33.7846H449.481H445.064ZM439.233 29.249H438.951V29.5305V33.1825V33.464H439.233H445.821H446.102V33.1825V29.5305V29.249H445.821H439.233ZM446.704 29.249H446.423V29.5305V33.1825V33.464H446.704H450.4H450.682V33.1825V29.5305V29.249H450.4H446.704Z" fill="#8D65FF" stroke="black" stroke-width="0.563057"/>
<g filter="url(#filter2_d_301_6434)">
<path d="M446.458 31.9146C446.458 37.9891 441.464 42.9202 435.296 42.9202C429.127 42.9202 424.133 37.9891 424.133 31.9146C424.133 25.84 429.127 20.909 435.296 20.909C441.464 20.909 446.458 25.84 446.458 31.9146Z" fill="#BDA6FF" stroke="black" stroke-width="0.563057"/>
<path d="M444.576 31.8436C444.576 36.9081 440.412 41.0203 435.268 41.0203C430.123 41.0203 425.959 36.9081 425.959 31.8436C425.959 26.7791 430.123 22.6669 435.268 22.6669C440.412 22.6669 444.576 26.7791 444.576 31.8436Z" fill="#8D65FF" stroke="black" stroke-width="0.563057"/>
</g>
<path d="M433.939 30.2284L434.687 30.1155V29.8015C434.687 29.6896 434.778 29.5989 434.89 29.5989H435.528C435.64 29.5989 435.731 29.6896 435.731 29.8015V30.1155L436.479 30.2284C436.572 30.2424 436.643 30.3183 436.651 30.4118L436.771 31.846C436.781 31.9642 436.688 32.0655 436.569 32.0655H433.849C433.731 32.0655 433.637 31.9642 433.647 31.846L433.767 30.4118C433.775 30.3183 433.846 30.2424 433.939 30.2284Z" stroke="#BDA6FF" stroke-width="0.01013"/>
<path d="M435.466 30.1225H434.939V29.9908C434.939 29.9181 434.998 29.8591 435.071 29.8591H435.335C435.407 29.8591 435.466 29.9181 435.466 29.9908V30.1225Z" stroke="#BDA6FF" stroke-width="0.01013"/>
<g filter="url(#filter3_d_301_6434)">
<path d="M429.842 29.0986V27.2301C429.842 27.1531 429.904 27.0907 429.981 27.0907H440.439C440.516 27.0907 440.579 27.1531 440.579 27.2301V29.0986C440.579 29.1756 440.516 29.2381 440.439 29.2381H439.505V31.9153C439.505 33.5017 438.219 34.7877 436.632 34.7877H433.788V37.8275C432.202 37.8275 430.915 36.5415 430.915 34.9551V29.2381H429.981C429.904 29.2381 429.842 29.1756 429.842 29.0986Z" fill="#BDA6FF"/>
<path d="M429.842 29.0986V27.2301C429.842 27.1531 429.904 27.0907 429.981 27.0907H440.439C440.516 27.0907 440.579 27.1531 440.579 27.2301V29.0986C440.579 29.1756 440.516 29.2381 440.439 29.2381H439.505V31.9153C439.505 33.5017 438.219 34.7877 436.632 34.7877H433.788V37.8275C432.202 37.8275 430.915 36.5415 430.915 34.9551V29.2381H429.981C429.904 29.2381 429.842 29.1756 429.842 29.0986Z" stroke="black" stroke-width="0.348598"/>
</g>
<path d="M433.46 29.9279L434.49 29.7725V29.3403C434.49 29.1863 434.615 29.0614 434.769 29.0614H435.648C435.802 29.0614 435.927 29.1863 435.927 29.3403V29.7725L436.957 29.9279C437.084 29.9472 437.182 30.0517 437.193 30.1804L437.358 32.1546C437.372 32.3172 437.244 32.4567 437.08 32.4567H433.336C433.173 32.4567 433.045 32.3172 433.059 32.1546L433.224 30.1804C433.235 30.0517 433.333 29.9472 433.46 29.9279Z" fill="white" stroke="black" stroke-width="0.348598"/>
<path d="M435.571 29.8212H434.846V29.4517C434.846 29.4209 434.871 29.3959 434.901 29.3959H435.515C435.546 29.3959 435.571 29.4209 435.571 29.4517V29.8212Z" fill="#28273C" stroke="#BDA6FF" stroke-width="0.0139439"/>
<path d="M437.008 32.2797C437.063 32.2066 437.097 32.1204 437.108 32.0297L437.147 31.708L437.19 32.2041C437.193 32.2448 437.161 32.2797 437.12 32.2797H437.008V32.2797Z" fill="white"/>
<path d="M433.39 30.4114C433.431 30.2658 433.53 30.1433 433.664 30.072V30.072L433.475 30.1018C433.431 30.1088 433.397 30.1456 433.393 30.1907L433.371 30.4763L433.39 30.4114Z" fill="white"/>
<path d="M431.432 28.6829H432.313L431.69 28.9665L431.432 29.0729V28.6829Z" fill="#BDA6FF"/>
<path d="M436.156 34.0259C437.13 33.8902 437.904 33.1391 438.069 32.1696L438.203 31.387L438.23 31.9154C438.292 33.091 437.333 34.0667 436.156 34.0259V34.0259V34.0259Z" fill="#BDA6FF"/>
</g>
<defs>
<filter id="filter0_d_301_6434" x="114" y="32.9922" width="511" height="330.942" filterUnits="userSpaceOnUse" color-interpolation-filters="sRGB">
<feFlood flood-opacity="0" result="BackgroundImageFix"/>
<feColorMatrix in="SourceAlpha" type="matrix" values="0 0 0 0 0 0 0 0 0 0 0 0 0 0 0 0 0 0 127 0" result="hardAlpha"/>
<feOffset dx="4" dy="4"/>
<feComposite in2="hardAlpha" operator="out"/>
<feColorMatrix type="matrix" values="0 0 0 0 0 0 0 0 0 0 0 0 0 0 0 0 0 0 1 0"/>
<feBlend mode="normal" in2="BackgroundImageFix" result="effect1_dropShadow_301_6434"/>
<feBlend mode="normal" in="SourceGraphic" in2="effect1_dropShadow_301_6434" result="shape"/>
</filter>
<filter id="filter1_d_301_6434" x="247" y="0" width="229.055" height="66.9413" filterUnits="userSpaceOnUse" color-interpolation-filters="sRGB">
<feFlood flood-opacity="0" result="BackgroundImageFix"/>
<feColorMatrix in="SourceAlpha" type="matrix" values="0 0 0 0 0 0 0 0 0 0 0 0 0 0 0 0 0 0 127 0" result="hardAlpha"/>
<feOffset dx="3.10569" dy="3.10569"/>
<feComposite in2="hardAlpha" operator="out"/>
<feColorMatrix type="matrix" values="0 0 0 0 0 0 0 0 0 0 0 0 0 0 0 0 0 0 1 0"/>
<feBlend mode="normal" in2="BackgroundImageFix" result="effect1_dropShadow_301_6434"/>
<feBlend mode="normal" in="SourceGraphic" in2="effect1_dropShadow_301_6434" result="shape"/>
</filter>
<filter id="filter2_d_301_6434" x="423.852" y="20.6274" width="23.7333" height="23.4189" filterUnits="userSpaceOnUse" color-interpolation-filters="sRGB">
<feFlood flood-opacity="0" result="BackgroundImageFix"/>
<feColorMatrix in="SourceAlpha" type="matrix" values="0 0 0 0 0 0 0 0 0 0 0 0 0 0 0 0 0 0 127 0" result="hardAlpha"/>
<feOffset dx="0.844586" dy="0.844586"/>
<feComposite in2="hardAlpha" operator="out"/>
<feColorMatrix type="matrix" values="0 0 0 0 0 0 0 0 0 0 0 0 0 0 0 0 0 0 1 0"/>
<feBlend mode="normal" in2="BackgroundImageFix" result="effect1_dropShadow_301_6434"/>
<feBlend mode="normal" in="SourceGraphic" in2="effect1_dropShadow_301_6434" result="shape"/>
</filter>
<filter id="filter3_d_301_6434" x="429.668" y="26.9164" width="11.4186" height="11.4201" filterUnits="userSpaceOnUse" color-interpolation-filters="sRGB">
<feFlood flood-opacity="0" result="BackgroundImageFix"/>
<feColorMatrix in="SourceAlpha" type="matrix" values="0 0 0 0 0 0 0 0 0 0 0 0 0 0 0 0 0 0 127 0" result="hardAlpha"/>
<feOffset dx="0.334655" dy="0.334655"/>
<feComposite in2="hardAlpha" operator="out"/>
<feColorMatrix type="matrix" values="0 0 0 0 0.156863 0 0 0 0 0.152941 0 0 0 0 0.235294 0 0 0 1 0"/>
<feBlend mode="normal" in2="BackgroundImageFix" result="effect1_dropShadow_301_6434"/>
<feBlend mode="normal" in="SourceGraphic" in2="effect1_dropShadow_301_6434" result="shape"/>
</filter>
<clipPath id="clip0_301_6434">
<rect width="385.581" height="31" fill="white" transform="translate(139.748 71.6886)"/>
</clipPath>
<clipPath id="clip1_301_6434">
<rect width="22.8872" height="22.8872" fill="white" transform="translate(163.844 150.294)"/>
</clipPath>
</defs>
</svg>
