<svg width="154" height="154" viewBox="0 0 154 154" fill="none" xmlns="http://www.w3.org/2000/svg">
<g opacity="0.05">
<circle cx="5" cy="5" r="5" fill="#0F001A"/>
<circle cx="5" cy="33.6875" r="5" fill="#0F001A"/>
<circle cx="5" cy="62.375" r="5" fill="#0F001A"/>
<circle cx="5" cy="91.0625" r="5" fill="#0F001A"/>
<circle cx="5" cy="119.75" r="5" fill="#0F001A"/>
<circle cx="5" cy="148.438" r="5" fill="#0F001A"/>
<circle cx="33.6875" cy="5" r="5" fill="#0F001A"/>
<circle cx="33.6875" cy="33.6875" r="5" fill="#0F001A"/>
<circle cx="33.6875" cy="62.375" r="5" fill="#0F001A"/>
<circle cx="33.6875" cy="91.0625" r="5" fill="#0F001A"/>
<circle cx="33.6875" cy="119.75" r="5" fill="#0F001A"/>
<circle cx="33.6875" cy="148.438" r="5" fill="#0F001A"/>
<circle cx="62.375" cy="5" r="5" fill="#0F001A"/>
<circle cx="62.375" cy="33.6875" r="5" fill="#0F001A"/>
<circle cx="62.375" cy="62.375" r="5" fill="#0F001A"/>
<circle cx="62.375" cy="91.0625" r="5" fill="#0F001A"/>
<circle cx="62.375" cy="119.75" r="5" fill="#0F001A"/>
<circle cx="62.375" cy="148.438" r="5" fill="#0F001A"/>
<circle cx="91.0625" cy="5" r="5" fill="#0F001A"/>
<circle cx="119.75" cy="5" r="5" fill="#0F001A"/>
<circle cx="148.438" cy="5" r="5" fill="#0F001A"/>
<circle cx="91.0625" cy="33.6875" r="5" fill="#0F001A"/>
<circle cx="119.75" cy="33.6875" r="5" fill="#0F001A"/>
<circle cx="148.438" cy="33.6875" r="5" fill="#0F001A"/>
<circle cx="91.0625" cy="62.375" r="5" fill="#0F001A"/>
<circle cx="119.75" cy="62.375" r="5" fill="#0F001A"/>
<circle cx="148.438" cy="62.375" r="5" fill="#0F001A"/>
<g filter="url(#filter0_d_450_11035)">
<circle cx="91.0625" cy="91.0625" r="5" fill="#0F001A"/>
<circle cx="91.0625" cy="91.0625" r="4.5" stroke="black"/>
</g>
<circle cx="91.0625" cy="119.75" r="5" fill="#0F001A"/>
<circle cx="91.0625" cy="148.438" r="5" fill="#0F001A"/>
<circle cx="119.75" cy="91.0625" r="5" fill="#0F001A"/>
<circle cx="119.75" cy="119.75" r="5" fill="#0F001A"/>
<circle cx="119.75" cy="148.438" r="5" fill="#0F001A"/>
<circle cx="148.438" cy="91.0625" r="5" fill="#0F001A"/>
<circle cx="148.438" cy="119.75" r="5" fill="#0F001A"/>
<circle cx="148.438" cy="148.438" r="5" fill="#0F001A"/>
</g>
<defs>
<filter id="filter0_d_450_11035" x="86.0625" y="86.0625" width="18" height="18" filterUnits="userSpaceOnUse" color-interpolation-filters="sRGB">
<feFlood flood-opacity="0" result="BackgroundImageFix"/>
<feColorMatrix in="SourceAlpha" type="matrix" values="0 0 0 0 0 0 0 0 0 0 0 0 0 0 0 0 0 0 127 0" result="hardAlpha"/>
<feOffset dx="4" dy="4"/>
<feGaussianBlur stdDeviation="2"/>
<feComposite in2="hardAlpha" operator="out"/>
<feColorMatrix type="matrix" values="0 0 0 0 0 0 0 0 0 0 0 0 0 0 0 0 0 0 0.25 0"/>
<feBlend mode="normal" in2="BackgroundImageFix" result="effect1_dropShadow_450_11035"/>
<feBlend mode="normal" in="SourceGraphic" in2="effect1_dropShadow_450_11035" result="shape"/>
</filter>
</defs>
</svg>
