<svg width="881" height="647" viewBox="0 0 881 647" fill="none" xmlns="http://www.w3.org/2000/svg">
<path d="M280.784 426.935V349.078H155.605V497.193V498.193L154.605 498.193L54.854 498.202V645.317H357.768V441.073C357.768 437.589 356.384 434.248 353.92 431.784C351.457 429.32 348.115 427.935 344.631 427.935C344.631 427.935 344.631 427.935 344.631 427.935H281.784H280.784V426.935Z" fill="#C7C4FF" stroke="#926CFF" stroke-width="2"/>
<path d="M324.635 477.335H330.258V482.957H324.635V477.335Z" fill="white"/>
<path d="M316.332 477.335H321.955V482.957H316.332V477.335Z" fill="white"/>
<path d="M324.635 485.332H330.258V490.955H324.635V485.332Z" fill="white"/>
<path d="M316.332 485.332H321.955V490.955H316.332V485.332Z" fill="white"/>
<path d="M294.303 477.335H299.926V482.957H294.303V477.335Z" fill="#FFC200"/>
<path d="M285.996 477.335H291.619V482.957H285.996V477.335Z" fill="#FFC200"/>
<path d="M294.303 485.332H299.926V490.955H294.303V485.332Z" fill="#FFC200"/>
<path d="M285.996 485.332H291.619V490.955H285.996V485.332Z" fill="#FFC200"/>
<path d="M294.303 505.352H299.926V510.975H294.303V505.352Z" fill="white"/>
<path d="M285.996 505.352H291.619V510.975H285.996V505.352Z" fill="white"/>
<path d="M294.303 513.35H299.926V518.972H294.303V513.35Z" fill="white"/>
<path d="M285.996 513.35H291.619V518.972H285.996V513.35Z" fill="white"/>
<path d="M324.635 446.536H330.258V452.159H324.635V446.536Z" fill="white"/>
<path d="M316.332 446.536H321.955V452.159H316.332V446.536Z" fill="white"/>
<path d="M324.635 454.534H330.258V460.157H324.635V454.534Z" fill="white"/>
<path d="M316.332 454.534H321.955V460.157H316.332V454.534Z" fill="white"/>
<path d="M117.533 348.078H154.604V497.202H117.533V348.078Z" fill="#BDA6FF"/>
<path d="M154.604 490.022H53.8529" stroke="#C7C4FF" stroke-width="1.27449" stroke-miterlimit="10"/>
<path d="M106.599 527.97C105.805 527.97 105.161 527.326 105.161 526.532C105.161 525.738 105.805 525.094 106.599 525.094C107.393 525.094 108.037 525.738 108.037 526.532C108.037 527.326 107.393 527.97 106.599 527.97Z" fill="white"/>
<path d="M116.105 527.97C115.311 527.97 114.667 527.326 114.667 526.532C114.667 525.738 115.311 525.094 116.105 525.094C116.899 525.094 117.543 525.738 117.543 526.532C117.543 527.326 116.899 527.97 116.105 527.97Z" fill="white"/>
<path d="M97.0893 527.97C96.2951 527.97 95.6512 527.326 95.6512 526.532C95.6512 525.738 96.2951 525.094 97.0893 525.094C97.8835 525.094 98.5273 525.738 98.5273 526.532C98.5273 527.326 97.8835 527.97 97.0893 527.97Z" fill="white"/>
<path d="M87.5815 527.97C86.7873 527.97 86.1434 527.326 86.1434 526.532C86.1434 525.738 86.7873 525.094 87.5815 525.094C88.3757 525.094 89.0195 525.738 89.0195 526.532C89.0195 527.326 88.3757 527.97 87.5815 527.97Z" fill="white"/>
<path d="M78.0737 527.97C77.2794 527.97 76.6356 527.326 76.6356 526.532C76.6356 525.738 77.2794 525.094 78.0737 525.094C78.8679 525.094 79.5117 525.738 79.5117 526.532C79.5117 527.326 78.8679 527.97 78.0737 527.97Z" fill="white"/>
<path d="M68.5678 527.97C67.7736 527.97 67.1297 527.326 67.1297 526.532C67.1297 525.738 67.7736 525.094 68.5678 525.094C69.362 525.094 70.0059 525.738 70.0059 526.532C70.0059 527.326 69.362 527.97 68.5678 527.97Z" fill="white"/>
<path d="M106.599 519.539C105.805 519.539 105.161 518.896 105.161 518.101C105.161 517.307 105.805 516.663 106.599 516.663C107.393 516.663 108.037 517.307 108.037 518.101C108.037 518.896 107.393 519.539 106.599 519.539Z" fill="white"/>
<path d="M116.105 519.539C115.311 519.539 114.667 518.896 114.667 518.101C114.667 517.307 115.311 516.663 116.105 516.663C116.899 516.663 117.543 517.307 117.543 518.101C117.543 518.896 116.899 519.539 116.105 519.539Z" fill="white"/>
<path d="M97.0893 519.539C96.2951 519.539 95.6512 518.896 95.6512 518.101C95.6512 517.307 96.2951 516.663 97.0893 516.663C97.8835 516.663 98.5273 517.307 98.5273 518.101C98.5273 518.896 97.8835 519.539 97.0893 519.539Z" fill="white"/>
<path d="M87.5815 519.539C86.7873 519.539 86.1434 518.896 86.1434 518.101C86.1434 517.307 86.7873 516.663 87.5815 516.663C88.3757 516.663 89.0195 517.307 89.0195 518.101C89.0195 518.896 88.3757 519.539 87.5815 519.539Z" fill="white"/>
<path d="M78.0737 519.539C77.2794 519.539 76.6356 518.896 76.6356 518.101C76.6356 517.307 77.2794 516.663 78.0737 516.663C78.8679 516.663 79.5117 517.307 79.5117 518.101C79.5117 518.896 78.8679 519.539 78.0737 519.539Z" fill="white"/>
<path d="M68.5678 519.539C67.7736 519.539 67.1297 518.896 67.1297 518.101C67.1297 517.307 67.7736 516.663 68.5678 516.663C69.362 516.663 70.0059 517.307 70.0059 518.101C70.0059 518.896 69.362 519.539 68.5678 519.539Z" fill="white"/>
<path d="M106.599 536.401C105.805 536.401 105.161 535.757 105.161 534.963C105.161 534.169 105.805 533.525 106.599 533.525C107.393 533.525 108.037 534.169 108.037 534.963C108.037 535.757 107.393 536.401 106.599 536.401Z" fill="white"/>
<path d="M116.105 536.401C115.311 536.401 114.667 535.757 114.667 534.963C114.667 534.169 115.311 533.525 116.105 533.525C116.899 533.525 117.543 534.169 117.543 534.963C117.543 535.757 116.899 536.401 116.105 536.401Z" fill="white"/>
<path d="M97.0893 536.401C96.2951 536.401 95.6512 535.757 95.6512 534.963C95.6512 534.169 96.2951 533.525 97.0893 533.525C97.8835 533.525 98.5273 534.169 98.5273 534.963C98.5273 535.757 97.8835 536.401 97.0893 536.401Z" fill="white"/>
<path d="M87.5815 536.401C86.7873 536.401 86.1434 535.757 86.1434 534.963C86.1434 534.169 86.7873 533.525 87.5815 533.525C88.3757 533.525 89.0195 534.169 89.0195 534.963C89.0195 535.757 88.3757 536.401 87.5815 536.401Z" fill="white"/>
<path d="M78.0737 536.401C77.2794 536.401 76.6356 535.757 76.6356 534.963C76.6356 534.169 77.2794 533.525 78.0737 533.525C78.8679 533.525 79.5117 534.169 79.5117 534.963C79.5117 535.757 78.8679 536.401 78.0737 536.401Z" fill="white"/>
<path d="M68.5678 536.401C67.7736 536.401 67.1297 535.757 67.1297 534.963C67.1297 534.169 67.7736 533.525 68.5678 533.525C69.362 533.525 70.0059 534.169 70.0059 534.963C70.0059 535.757 69.362 536.401 68.5678 536.401Z" fill="white"/>
<path d="M116.105 544.834C115.311 544.834 114.667 544.19 114.667 543.396C114.667 542.602 115.311 541.958 116.105 541.958C116.899 541.958 117.543 542.602 117.543 543.396C117.543 544.19 116.899 544.834 116.105 544.834Z" fill="white"/>
<path d="M106.599 544.834C105.805 544.834 105.161 544.19 105.161 543.396C105.161 542.602 105.805 541.958 106.599 541.958C107.393 541.958 108.037 542.602 108.037 543.396C108.037 544.19 107.393 544.834 106.599 544.834Z" fill="white"/>
<path d="M97.0893 544.834C96.2951 544.834 95.6512 544.19 95.6512 543.396C95.6512 542.602 96.2951 541.958 97.0893 541.958C97.8835 541.958 98.5273 542.602 98.5273 543.396C98.5273 544.19 97.8835 544.834 97.0893 544.834Z" fill="white"/>
<path d="M87.5815 544.834C86.7873 544.834 86.1434 544.19 86.1434 543.396C86.1434 542.602 86.7873 541.958 87.5815 541.958C88.3757 541.958 89.0195 542.602 89.0195 543.396C89.0195 544.19 88.3757 544.834 87.5815 544.834Z" fill="white"/>
<path d="M78.0737 544.834C77.2794 544.834 76.6356 544.19 76.6356 543.396C76.6356 542.602 77.2794 541.958 78.0737 541.958C78.8679 541.958 79.5117 542.602 79.5117 543.396C79.5117 544.19 78.8679 544.834 78.0737 544.834Z" fill="white"/>
<path d="M68.5678 544.834C67.7736 544.834 67.1297 544.19 67.1297 543.396C67.1297 542.602 67.7736 541.958 68.5678 541.958C69.362 541.958 70.0059 542.602 70.0059 543.396C70.0059 544.19 69.362 544.834 68.5678 544.834Z" fill="white"/>
<path d="M106.599 553.403C105.805 553.403 105.161 552.759 105.161 551.965C105.161 551.17 105.805 550.526 106.599 550.526C107.393 550.526 108.037 551.17 108.037 551.965C108.037 552.759 107.393 553.403 106.599 553.403Z" fill="white"/>
<path d="M116.105 553.403C115.311 553.403 114.667 552.759 114.667 551.965C114.667 551.17 115.311 550.526 116.105 550.526C116.899 550.526 117.543 551.17 117.543 551.965C117.543 552.759 116.899 553.403 116.105 553.403Z" fill="white"/>
<path d="M97.0893 553.403C96.2951 553.403 95.6512 552.759 95.6512 551.965C95.6512 551.17 96.2951 550.526 97.0893 550.526C97.8835 550.526 98.5273 551.17 98.5273 551.965C98.5273 552.759 97.8835 553.403 97.0893 553.403Z" fill="white"/>
<path d="M87.5815 553.403C86.7873 553.403 86.1434 552.759 86.1434 551.965C86.1434 551.17 86.7873 550.526 87.5815 550.526C88.3757 550.526 89.0195 551.17 89.0195 551.965C89.0195 552.759 88.3757 553.403 87.5815 553.403Z" fill="white"/>
<path d="M78.0737 553.403C77.2794 553.403 76.6356 552.759 76.6356 551.965C76.6356 551.17 77.2794 550.526 78.0737 550.526C78.8679 550.526 79.5117 551.17 79.5117 551.965C79.5117 552.759 78.8679 553.403 78.0737 553.403Z" fill="white"/>
<path d="M68.5678 553.403C67.7736 553.403 67.1297 552.759 67.1297 551.965C67.1297 551.17 67.7736 550.526 68.5678 550.526C69.362 550.526 70.0059 551.17 70.0059 551.965C70.0059 552.759 69.362 553.403 68.5678 553.403Z" fill="white"/>
<path d="M106.599 561.835C105.805 561.835 105.161 561.192 105.161 560.397C105.161 559.603 105.805 558.959 106.599 558.959C107.393 558.959 108.037 559.603 108.037 560.397C108.037 561.192 107.393 561.835 106.599 561.835Z" fill="white"/>
<path d="M116.105 561.835C115.311 561.835 114.667 561.192 114.667 560.397C114.667 559.603 115.311 558.959 116.105 558.959C116.899 558.959 117.543 559.603 117.543 560.397C117.543 561.192 116.899 561.835 116.105 561.835Z" fill="white"/>
<path d="M97.0893 561.835C96.2951 561.835 95.6512 561.192 95.6512 560.397C95.6512 559.603 96.2951 558.959 97.0893 558.959C97.8835 558.959 98.5273 559.603 98.5273 560.397C98.5273 561.192 97.8835 561.835 97.0893 561.835Z" fill="white"/>
<path d="M87.5815 561.835C86.7873 561.835 86.1434 561.192 86.1434 560.397C86.1434 559.603 86.7873 558.959 87.5815 558.959C88.3757 558.959 89.0195 559.603 89.0195 560.397C89.0195 561.192 88.3757 561.835 87.5815 561.835Z" fill="white"/>
<path d="M78.0737 561.835C77.2794 561.835 76.6356 561.192 76.6356 560.397C76.6356 559.603 77.2794 558.959 78.0737 558.959C78.8679 558.959 79.5117 559.603 79.5117 560.397C79.5117 561.192 78.8679 561.835 78.0737 561.835Z" fill="white"/>
<path d="M68.5678 561.835C67.7736 561.835 67.1297 561.192 67.1297 560.397C67.1297 559.603 67.7736 558.959 68.5678 558.959C69.362 558.959 70.0059 559.603 70.0059 560.397C70.0059 561.192 69.362 561.835 68.5678 561.835Z" fill="white"/>
<path d="M116.105 570.266C115.311 570.266 114.667 569.622 114.667 568.828C114.667 568.034 115.311 567.39 116.105 567.39C116.899 567.39 117.543 568.034 117.543 568.828C117.543 569.622 116.899 570.266 116.105 570.266Z" fill="white"/>
<path d="M106.599 570.266C105.805 570.266 105.161 569.622 105.161 568.828C105.161 568.034 105.805 567.39 106.599 567.39C107.393 567.39 108.037 568.034 108.037 568.828C108.037 569.622 107.393 570.266 106.599 570.266Z" fill="white"/>
<path d="M97.0893 570.266C96.2951 570.266 95.6512 569.622 95.6512 568.828C95.6512 568.034 96.2951 567.39 97.0893 567.39C97.8835 567.39 98.5273 568.034 98.5273 568.828C98.5273 569.622 97.8835 570.266 97.0893 570.266Z" fill="white"/>
<path d="M87.5815 570.266C86.7873 570.266 86.1434 569.622 86.1434 568.828C86.1434 568.034 86.7873 567.39 87.5815 567.39C88.3757 567.39 89.0195 568.034 89.0195 568.828C89.0195 569.622 88.3757 570.266 87.5815 570.266Z" fill="white"/>
<path d="M78.0737 570.266C77.2794 570.266 76.6356 569.622 76.6356 568.828C76.6356 568.034 77.2794 567.39 78.0737 567.39C78.8679 567.39 79.5117 568.034 79.5117 568.828C79.5117 569.622 78.8679 570.266 78.0737 570.266Z" fill="white"/>
<path d="M68.5678 570.266C67.7736 570.266 67.1297 569.622 67.1297 568.828C67.1297 568.034 67.7736 567.39 68.5678 567.39C69.362 567.39 70.0059 568.034 70.0059 568.828C70.0059 569.622 69.362 570.266 68.5678 570.266Z" fill="white"/>
<path d="M144.56 527.97C143.766 527.97 143.122 527.326 143.122 526.532C143.122 525.738 143.766 525.094 144.56 525.094C145.354 525.094 145.998 525.738 145.998 526.532C145.998 527.326 145.354 527.97 144.56 527.97Z" fill="white"/>
<path d="M135.054 527.97C134.26 527.97 133.616 527.326 133.616 526.532C133.616 525.738 134.26 525.094 135.054 525.094C135.848 525.094 136.492 525.738 136.492 526.532C136.492 527.326 135.848 527.97 135.054 527.97Z" fill="white"/>
<path d="M125.542 527.97C124.748 527.97 124.104 527.326 124.104 526.532C124.104 525.738 124.748 525.094 125.542 525.094C126.337 525.094 126.98 525.738 126.98 526.532C126.98 527.326 126.337 527.97 125.542 527.97Z" fill="white"/>
<path d="M144.56 519.539C143.766 519.539 143.122 518.896 143.122 518.101C143.122 517.307 143.766 516.663 144.56 516.663C145.354 516.663 145.998 517.307 145.998 518.101C145.998 518.896 145.354 519.539 144.56 519.539Z" fill="white"/>
<path d="M135.054 519.539C134.26 519.539 133.616 518.896 133.616 518.101C133.616 517.307 134.26 516.663 135.054 516.663C135.848 516.663 136.492 517.307 136.492 518.101C136.492 518.896 135.848 519.539 135.054 519.539Z" fill="white"/>
<path d="M125.542 519.539C124.748 519.539 124.104 518.896 124.104 518.101C124.104 517.307 124.748 516.663 125.542 516.663C126.337 516.663 126.98 517.307 126.98 518.101C126.98 518.896 126.337 519.539 125.542 519.539Z" fill="white"/>
<path d="M144.56 536.401C143.766 536.401 143.122 535.757 143.122 534.963C143.122 534.169 143.766 533.525 144.56 533.525C145.354 533.525 145.998 534.169 145.998 534.963C145.998 535.757 145.354 536.401 144.56 536.401Z" fill="white"/>
<path d="M135.054 536.401C134.26 536.401 133.616 535.757 133.616 534.963C133.616 534.169 134.26 533.525 135.054 533.525C135.848 533.525 136.492 534.169 136.492 534.963C136.492 535.757 135.848 536.401 135.054 536.401Z" fill="white"/>
<path d="M125.542 536.401C124.748 536.401 124.104 535.757 124.104 534.963C124.104 534.169 124.748 533.525 125.542 533.525C126.337 533.525 126.98 534.169 126.98 534.963C126.98 535.757 126.337 536.401 125.542 536.401Z" fill="white"/>
<path d="M144.56 544.834C143.766 544.834 143.122 544.19 143.122 543.396C143.122 542.602 143.766 541.958 144.56 541.958C145.354 541.958 145.998 542.602 145.998 543.396C145.998 544.19 145.354 544.834 144.56 544.834Z" fill="white"/>
<path d="M135.054 544.834C134.26 544.834 133.616 544.19 133.616 543.396C133.616 542.602 134.26 541.958 135.054 541.958C135.848 541.958 136.492 542.602 136.492 543.396C136.492 544.19 135.848 544.834 135.054 544.834Z" fill="white"/>
<path d="M125.542 544.834C124.748 544.834 124.104 544.19 124.104 543.396C124.104 542.602 124.748 541.958 125.542 541.958C126.337 541.958 126.98 542.602 126.98 543.396C126.98 544.19 126.337 544.834 125.542 544.834Z" fill="white"/>
<path d="M144.56 553.403C143.766 553.403 143.122 552.759 143.122 551.965C143.122 551.17 143.766 550.526 144.56 550.526C145.354 550.526 145.998 551.17 145.998 551.965C145.998 552.759 145.354 553.403 144.56 553.403Z" fill="white"/>
<path d="M135.054 553.403C134.26 553.403 133.616 552.759 133.616 551.965C133.616 551.17 134.26 550.526 135.054 550.526C135.848 550.526 136.492 551.17 136.492 551.965C136.492 552.759 135.848 553.403 135.054 553.403Z" fill="white"/>
<path d="M125.542 553.403C124.748 553.403 124.104 552.759 124.104 551.965C124.104 551.17 124.748 550.526 125.542 550.526C126.337 550.526 126.98 551.17 126.98 551.965C126.98 552.759 126.337 553.403 125.542 553.403Z" fill="white"/>
<path d="M144.56 561.835C143.766 561.835 143.122 561.192 143.122 560.397C143.122 559.603 143.766 558.959 144.56 558.959C145.354 558.959 145.998 559.603 145.998 560.397C145.998 561.192 145.354 561.835 144.56 561.835Z" fill="white"/>
<path d="M135.054 561.835C134.26 561.835 133.616 561.192 133.616 560.397C133.616 559.603 134.26 558.959 135.054 558.959C135.848 558.959 136.492 559.603 136.492 560.397C136.492 561.192 135.848 561.835 135.054 561.835Z" fill="white"/>
<path d="M125.542 561.835C124.748 561.835 124.104 561.192 124.104 560.397C124.104 559.603 124.748 558.959 125.542 558.959C126.337 558.959 126.98 559.603 126.98 560.397C126.98 561.192 126.337 561.835 125.542 561.835Z" fill="white"/>
<path d="M144.56 570.266C143.766 570.266 143.122 569.622 143.122 568.828C143.122 568.034 143.766 567.39 144.56 567.39C145.354 567.39 145.998 568.034 145.998 568.828C145.998 569.622 145.354 570.266 144.56 570.266Z" fill="white"/>
<path d="M135.054 570.266C134.26 570.266 133.616 569.622 133.616 568.828C133.616 568.034 134.26 567.39 135.054 567.39C135.848 567.39 136.492 568.034 136.492 568.828C136.492 569.622 135.848 570.266 135.054 570.266Z" fill="white"/>
<path d="M125.542 570.266C124.748 570.266 124.104 569.622 124.104 568.828C124.104 568.034 124.748 567.39 125.542 567.39C126.337 567.39 126.98 568.034 126.98 568.828C126.98 569.622 126.337 570.266 125.542 570.266Z" fill="white"/>
<path d="M729.542 494.88L815.236 541.193" stroke="#C7C4FF" stroke-width="1.27449" stroke-miterlimit="10"/>
<path d="M557.875 424.454V383.321H485.378V645.39H752.791V532.069L667.621 486.046L667.096 485.763V485.167V436.447C667.096 435.003 666.812 433.574 666.26 432.24C665.707 430.906 664.897 429.695 663.877 428.674C662.856 427.653 661.644 426.843 660.31 426.291C658.976 425.738 657.547 425.454 656.103 425.454H558.875H557.875V424.454Z" fill="#C7C4FF" stroke="#926CFF" stroke-width="2"/>
<path d="M597.331 425.104C596.537 425.104 595.893 424.46 595.893 423.666C595.893 422.872 596.537 422.228 597.331 422.228C598.126 422.228 598.77 422.872 598.77 423.666C598.77 424.46 598.126 425.104 597.331 425.104Z" fill="white"/>
<path d="M606.839 425.104C606.045 425.104 605.401 424.46 605.401 423.666C605.401 422.872 606.045 422.228 606.839 422.228C607.634 422.228 608.277 422.872 608.277 423.666C608.277 424.46 607.634 425.104 606.839 425.104Z" fill="white"/>
<path d="M587.824 425.104C587.029 425.104 586.386 424.46 586.386 423.666C586.386 422.872 587.029 422.228 587.824 422.228C588.618 422.228 589.262 422.872 589.262 423.666C589.262 424.46 588.618 425.104 587.824 425.104Z" fill="white"/>
<path d="M578.318 425.104C577.524 425.104 576.88 424.46 576.88 423.666C576.88 422.872 577.524 422.228 578.318 422.228C579.112 422.228 579.756 422.872 579.756 423.666C579.756 424.46 579.112 425.104 578.318 425.104Z" fill="white"/>
<path d="M568.81 425.104C568.016 425.104 567.372 424.46 567.372 423.666C567.372 422.872 568.016 422.228 568.81 422.228C569.604 422.228 570.248 422.872 570.248 423.666C570.248 424.46 569.604 425.104 568.81 425.104Z" fill="white"/>
<path d="M559.3 425.104C558.506 425.104 557.862 424.46 557.862 423.666C557.862 422.872 558.506 422.228 559.3 422.228C560.094 422.228 560.738 422.872 560.738 423.666C560.738 424.46 560.094 425.104 559.3 425.104Z" fill="white"/>
<path d="M597.331 416.673C596.537 416.673 595.893 416.029 595.893 415.235C595.893 414.441 596.537 413.797 597.331 413.797C598.126 413.797 598.77 414.441 598.77 415.235C598.77 416.029 598.126 416.673 597.331 416.673Z" fill="white"/>
<path d="M606.839 416.673C606.045 416.673 605.401 416.029 605.401 415.235C605.401 414.441 606.045 413.797 606.839 413.797C607.634 413.797 608.277 414.441 608.277 415.235C608.277 416.029 607.634 416.673 606.839 416.673Z" fill="white"/>
<path d="M587.824 416.673C587.029 416.673 586.386 416.029 586.386 415.235C586.386 414.441 587.029 413.797 587.824 413.797C588.618 413.797 589.262 414.441 589.262 415.235C589.262 416.029 588.618 416.673 587.824 416.673Z" fill="white"/>
<path d="M578.318 416.673C577.524 416.673 576.88 416.029 576.88 415.235C576.88 414.441 577.524 413.797 578.318 413.797C579.112 413.797 579.756 414.441 579.756 415.235C579.756 416.029 579.112 416.673 578.318 416.673Z" fill="white"/>
<path d="M568.81 416.673C568.016 416.673 567.372 416.029 567.372 415.235C567.372 414.441 568.016 413.797 568.81 413.797C569.604 413.797 570.248 414.441 570.248 415.235C570.248 416.029 569.604 416.673 568.81 416.673Z" fill="white"/>
<path d="M559.3 416.673C558.506 416.673 557.862 416.029 557.862 415.235C557.862 414.441 558.506 413.797 559.3 413.797C560.094 413.797 560.738 414.441 560.738 415.235C560.738 416.029 560.094 416.673 559.3 416.673Z" fill="white"/>
<path d="M597.331 433.537C596.537 433.537 595.893 432.893 595.893 432.099C595.893 431.304 596.537 430.661 597.331 430.661C598.126 430.661 598.77 431.304 598.77 432.099C598.77 432.893 598.126 433.537 597.331 433.537Z" fill="white"/>
<path d="M606.839 433.537C606.045 433.537 605.401 432.893 605.401 432.099C605.401 431.304 606.045 430.661 606.839 430.661C607.634 430.661 608.277 431.304 608.277 432.099C608.277 432.893 607.634 433.537 606.839 433.537Z" fill="white"/>
<path d="M587.824 433.537C587.029 433.537 586.386 432.893 586.386 432.099C586.386 431.304 587.029 430.661 587.824 430.661C588.618 430.661 589.262 431.304 589.262 432.099C589.262 432.893 588.618 433.537 587.824 433.537Z" fill="white"/>
<path d="M578.318 433.537C577.524 433.537 576.88 432.893 576.88 432.099C576.88 431.304 577.524 430.661 578.318 430.661C579.112 430.661 579.756 431.304 579.756 432.099C579.756 432.893 579.112 433.537 578.318 433.537Z" fill="white"/>
<path d="M568.81 433.537C568.016 433.537 567.372 432.893 567.372 432.099C567.372 431.304 568.016 430.661 568.81 430.661C569.604 430.661 570.248 431.304 570.248 432.099C570.248 432.893 569.604 433.537 568.81 433.537Z" fill="white"/>
<path d="M559.3 433.537C558.506 433.537 557.862 432.893 557.862 432.099C557.862 431.304 558.506 430.661 559.3 430.661C560.094 430.661 560.738 431.304 560.738 432.099C560.738 432.893 560.094 433.537 559.3 433.537Z" fill="white"/>
<path d="M606.839 441.968C606.045 441.968 605.401 441.324 605.401 440.529C605.401 439.735 606.045 439.091 606.839 439.091C607.634 439.091 608.277 439.735 608.277 440.529C608.277 441.324 607.634 441.968 606.839 441.968Z" fill="white"/>
<path d="M597.331 441.968C596.537 441.968 595.893 441.324 595.893 440.529C595.893 439.735 596.537 439.091 597.331 439.091C598.126 439.091 598.77 439.735 598.77 440.529C598.77 441.324 598.126 441.968 597.331 441.968Z" fill="white"/>
<path d="M587.824 441.968C587.029 441.968 586.386 441.324 586.386 440.529C586.386 439.735 587.029 439.091 587.824 439.091C588.618 439.091 589.262 439.735 589.262 440.529C589.262 441.324 588.618 441.968 587.824 441.968Z" fill="white"/>
<path d="M578.318 441.968C577.524 441.968 576.88 441.324 576.88 440.529C576.88 439.735 577.524 439.091 578.318 439.091C579.112 439.091 579.756 439.735 579.756 440.529C579.756 441.324 579.112 441.968 578.318 441.968Z" fill="white"/>
<path d="M568.81 441.968C568.016 441.968 567.372 441.324 567.372 440.529C567.372 439.735 568.016 439.091 568.81 439.091C569.604 439.091 570.248 439.735 570.248 440.529C570.248 441.324 569.604 441.968 568.81 441.968Z" fill="white"/>
<path d="M559.3 441.968C558.506 441.968 557.862 441.324 557.862 440.529C557.862 439.735 558.506 439.091 559.3 439.091C560.094 439.091 560.738 439.735 560.738 440.529C560.738 441.324 560.094 441.968 559.3 441.968Z" fill="white"/>
<path d="M621.062 394.641H545.823" stroke="#C7C4FF" stroke-width="1.27449" stroke-miterlimit="10"/>
<path d="M775.655 547.61H781.277V553.233H775.655V547.61Z" fill="white"/>
<path d="M767.35 547.61H772.973V553.233H767.35V547.61Z" fill="white"/>
<path d="M775.655 555.608H781.277V561.23H775.655V555.608Z" fill="white"/>
<path d="M767.35 555.608H772.973V561.23H767.35V555.608Z" fill="white"/>
<path d="M775.655 576.67H781.277V582.293H775.655V576.67Z" fill="white"/>
<path d="M767.35 576.671H772.973V582.293H767.35V576.671Z" fill="white"/>
<path d="M775.655 584.668H781.277V590.291H775.655V584.668Z" fill="white"/>
<path d="M767.35 584.668H772.973V590.291H767.35V584.668Z" fill="white"/>
<path d="M733.28 547.61H738.902V553.233H733.28V547.61Z" fill="#FFC200"/>
<path d="M724.975 547.61H730.598V553.233H724.975V547.61Z" fill="#FFC200"/>
<path d="M733.28 555.608H738.902V561.23H733.28V555.608Z" fill="#FFC200"/>
<path d="M724.975 555.608H730.598V561.23H724.975V555.608Z" fill="#FFC200"/>
<path d="M-0.000282519 635.21C-0.00228828 638.489 0.439329 641.753 1.31248 644.914H76.1697C77.0429 641.753 77.4844 638.489 77.4824 635.21C77.4824 614.525 60.1366 597.76 38.7379 597.76C17.3392 597.76 -0.000282519 614.53 -0.000282519 635.21Z" fill="#FFC200"/>
<path d="M77.4434 615.459L61.748 629.663" stroke="white" stroke-width="1.06208" stroke-miterlimit="10" stroke-linecap="round"/>
<path d="M0.0169256 618.452L15.7845 613.02L38.2091 619.051V629.321H39.2712V606.667L56.1094 586.124C55.7823 585.966 55.4516 585.81 55.1174 585.659L39.2712 604.989V582.16H38.2091V595.005L25.4642 584.414C25.0776 584.556 24.6946 584.697 24.3151 584.839L38.2071 596.384V617.94L1.83946 608.158C1.72688 608.494 1.62705 608.833 1.52084 609.173L14.0363 612.54L0.0678513 617.311C0.0466098 617.693 0.0275464 618.071 0.0169256 618.452Z" fill="white"/>
<path d="M19.3501 645.028L258.914 644.191C258.914 644.191 241.169 595.355 151.417 592.167C117.271 590.954 134.507 619.662 125.796 615.547C107.056 606.698 93.672 601.989 85.1563 606.577C71.3259 614.026 87.1912 629.15 78.7392 628.545C70.2872 627.94 57.6719 620.048 48.1515 626.117C38.631 632.186 52.8033 638.254 48.1515 638.862C43.4996 639.469 19.7558 627.757 19.3501 645.028Z" fill="#BDA6FF"/>
<path d="M711.676 645.556H880.916C880.916 637.849 871.67 629.009 856.276 631.417C856.58 630.17 856.733 628.891 856.733 627.607C856.733 617.693 847.713 609.658 836.589 609.658C835.137 609.658 833.687 609.8 832.262 610.082C831.59 607.627 830.658 605.25 829.482 602.992C820.174 585.06 797.683 577.861 779.246 586.914C763.873 594.459 756.171 610.917 759.431 626.568C754.682 624.047 749.402 622.689 744.026 622.604C738.649 622.518 733.329 623.709 728.502 626.077C720.065 630.226 714.223 637.395 711.676 645.556Z" fill="#BDA6FF"/>
<g clip-path="url(#clip0_446_10782)">
<path d="M476.346 393.251C476.346 393.251 483.039 375.409 470.029 364.257C457.02 353.105 441.778 340.096 435.088 333.964C428.399 327.832 415.947 313.52 412.602 294.745C409.257 275.971 416.874 269.282 420.591 267.982C424.309 266.682 429.514 265.194 433.416 266.867C433.788 266.682 438.063 265.937 441.231 272.077C444.399 278.217 451.651 289.918 454.425 291.591C459.027 294.497 463.323 297.86 467.25 301.628C472.384 305.39 477.72 308.868 483.234 312.048C488.444 314.653 499.031 316.695 507.395 327.102C513.529 334.408 519.179 342.107 524.31 350.149C530.822 360.569 533.427 363.346 542.896 374.867C549.896 384.239 555.76 394.408 560.365 405.161C566.655 419.354 571.151 434.276 573.747 449.581C575.05 457.944 580.624 473.547 581.562 480.06C582.5 486.572 589.377 509.054 588.812 517.416C588.247 525.778 588.254 530.983 590.854 537.675C593.454 544.367 615.388 593.245 620.405 602.909C625.423 612.574 646.052 646.96 646.052 646.96C646.052 646.96 623.748 651.792 608.881 648.632C594.014 645.472 580.815 651.419 560.001 649.19C539.187 646.96 510.375 649.747 498.666 649.562C486.956 649.377 479.152 648.82 479.152 648.82C479.152 648.82 467.07 613.691 463.355 603.469C461.812 602.565 460.546 601.256 459.694 599.684C458.842 598.111 458.436 596.336 458.52 594.55C458.52 594.55 433.801 584.13 426.927 582.468C420.052 580.806 404.623 569.643 400.533 567.598C396.443 565.553 376.187 556.631 370.797 548.454L476.346 393.251Z" fill="#D6AD9E"/>
<path d="M504.539 471.573C507.144 487.369 502.26 492.332 471.573 506.719C448.206 517.676 412.614 531.751 373.552 545.693C362.431 549.663 354.637 552.726 345.793 547.886C338.898 544.117 335.657 536 333.599 531.449C332.189 529.027 331.444 526.277 331.439 523.475C332.253 520.722 333.411 518.084 334.888 515.623C350.881 549.556 346.22 553.338 447.901 508.798C459.598 503.674 474.451 498.404 485.153 492.559C495.463 486.921 500.72 482.722 500.741 474.566C500.754 469.913 495.599 457.404 489.487 440.815C475.855 403.824 454.841 355.509 454.63 352.959C461.171 357.239 459.423 355.736 461.687 360.837C467.196 373.257 489.378 429.184 493.405 439.81C497.706 451.175 502.958 462.023 504.539 471.573Z" fill="white"/>
<path d="M484.074 432.416C504.439 490.724 515.089 477.06 429.676 513.796C398.452 527.228 378.519 535.311 366.291 538.096C351.406 541.482 347.811 536.952 339.689 519.806C336.644 513.379 336.367 512.653 336.836 511.483C345.016 491.075 336.151 476.261 326.252 472.825C320.388 470.79 319.927 476.032 322.173 470.183C324.556 463.97 330.298 452.248 327.904 440.299C326.915 436.123 324.601 432.38 321.308 429.628C318.015 426.877 313.92 425.265 309.635 425.033C308.239 424.699 306.895 424.181 305.636 423.491C307.632 406.699 309.351 387.326 287.571 387.326C269.114 340.775 249.694 297.013 231.365 247.438C226.918 235.415 226.179 231.448 227.773 226.754C232.381 213.184 256.339 205.33 273.566 196.606C282.342 192.157 342.231 168.597 358.645 164.502C360.319 163.878 362.105 163.608 363.889 163.71C365.673 163.812 367.416 164.283 369.008 165.094C376.378 169.783 381.181 181.833 383.518 186.9C386.644 193.699 390.942 203.486 394.719 212.145C407.148 240.646 408.542 247.961 417.594 268.496C413.548 272.528 411.144 277.919 410.85 283.624C390.132 266.655 356.27 256.594 320.787 279.312C315.457 282.637 310.76 286.882 306.915 291.85C251.369 355.574 320.117 442.187 390.796 412.329C393.375 411.24 408.159 403.909 411.787 400.085C416.552 395.066 432.416 383.695 436.35 355.279C437.129 349.71 437.486 344.09 437.418 338.467C439.955 340.757 442.615 342.908 445.387 344.909C451.058 349.007 449.872 347.12 475.409 409.773C476.532 412.537 482.388 427.579 484.074 432.416ZM358.559 184.339C364.152 181.948 367.255 181.706 366.291 178.551C365.445 175.623 364.261 172.802 362.764 170.147C361.42 167.847 360.451 168.063 357.913 169.03C352.056 171.129 346.342 173.606 340.806 176.446C338.259 177.829 337.605 179.033 338.626 181.237C343.424 191.586 340.499 192.058 358.559 184.339ZM306.631 192.959C308.658 191.917 308.02 190.675 307.934 190.289C307.645 189.015 306.892 188.32 305.834 188.549C302.992 189.405 300.225 190.495 297.563 191.808C289.873 195.314 285.554 196.783 284.166 198.172C283.353 198.987 283.931 199.75 284.403 200.933C285.343 203.278 286.62 201.902 298.027 196.765C303.576 194.272 305.725 193.42 306.631 192.959Z" fill="#BDA6FF"/>
<path d="M450.643 289.927C451.93 291.977 451.877 291.75 449.96 293.074C444.292 296.945 442.95 302.076 440.6 299.464C437.305 296.013 434.538 292.093 432.389 287.832C427.812 276.904 427.633 275.328 430.699 271.025C437.209 261.853 441.984 276.12 450.643 289.927Z" fill="#E2BFB5"/>
<path d="M427.308 327.81C431.562 352.237 420.928 381.783 403.751 394.198C386.498 406.665 368.117 410.464 354.517 408.695C351.13 408.255 352.128 406.66 356.499 386.292C357.486 381.689 356.59 381.603 358.963 382.501C365.421 384.981 363.538 365.592 386.118 365.447C391.703 365.41 392.985 369.523 395.259 352.763C395.663 349.788 396.246 348.407 391.526 347.769C381.911 346.337 372.109 348.553 364.046 353.982C365.989 342.822 366.52 342.371 367.724 341.999C376.38 339.382 385.501 338.678 394.456 339.936C396.522 340.035 397.306 340.027 397.668 338.373C400.122 327.106 401.125 325.561 397.473 324.566C388.833 322.189 379.779 321.723 370.941 323.199C373.546 311.896 372.804 312.57 376.344 312.625C389.022 312.82 392.12 312.518 399.349 314.162C403.019 314.996 402.66 312.237 405.173 301.03C405.629 299.001 405.905 297.123 403.918 296.531C395.512 293.72 386.7 292.312 377.837 292.363C381.288 279.883 380.702 278.937 383.179 279.755C394.158 283.352 404.078 289.605 412.058 297.959C414.888 308.908 420.095 319.1 427.308 327.81ZM395.811 386.594C396.116 379.3 391.924 373.78 383.885 373.663C367.797 373.426 366.487 396.79 380.637 398.47C390.682 399.663 395.551 393.208 395.811 386.594Z" fill="#FFCCCE"/>
<path d="M418.641 256.445C423.455 267.784 423.33 265.112 419.683 267.068C409.003 243.165 405.924 231.567 391.289 199.567C385.193 186.248 379.504 168.643 369.501 163.149C365.476 160.94 360.662 162.037 356.916 163.149C322.841 173.879 289.512 186.845 257.144 201.964C245.734 207.414 229.042 213.864 224.965 227.066C222.829 233.985 228.523 246.983 229.281 248.856C240.183 275.826 233.71 265.299 285.466 387.81C279.375 390.058 279.071 391.691 278.271 389.373C271.985 371.138 235.468 290.32 220.528 245.736C218.567 239.88 216.824 233.599 218.236 228.47C220.294 220.988 227.481 213.306 236.492 208.093C266.061 190.984 333.291 166.45 355.981 159.937C360.829 158.546 364.9 156.949 370.006 158.895C378.912 162.282 383.416 171.472 387.545 181.056C407.164 226.579 416.985 252.537 418.641 256.445Z" fill="white"/>
<path d="M402.486 301.129C400.605 308.858 401.004 311.885 398.464 311.369C390.295 310.11 382.02 309.69 373.766 310.113C374.427 306.831 376.467 297.8 376.746 296.445C376.967 295.382 376.759 295.064 380.174 295.088C385.628 295.132 391.055 295.866 396.325 297.273C400.761 298.451 403.226 298.081 402.486 301.129Z" fill="white"/>
<path d="M395.448 326.784C397.553 327.29 397.108 326.977 395.276 336.108C395.191 336.537 395.201 337.441 393.677 337.288C384.878 336.194 375.95 336.855 367.408 339.231C369.953 327.248 369.599 326.071 372.595 325.599C380.214 324.429 387.991 324.832 395.448 326.784Z" fill="white"/>
<path d="M391.917 350.597C393.157 350.732 392.834 352.261 392.581 353.658C391.341 360.548 391.8 363.429 388.736 363.184C385.931 362.946 383.108 363.029 380.322 363.432C365.919 365.586 362.949 376.717 360.165 379.702C359.618 380.289 358.862 379.481 357.984 379.155C358.946 375.063 361.892 361.296 362.233 360.316C362.667 359.302 363.279 358.375 364.041 357.578C369.032 352.384 375.764 350.805 382.213 350.201C385.453 350.037 388.701 350.169 391.917 350.597Z" fill="white"/>
<path d="M390.118 378.314C394.943 381.846 393.382 389.406 390.983 392.48C385.966 398.906 372.936 396.624 373.183 387.111C373.478 375.672 384.531 374.221 390.118 378.314Z" fill="white"/>
<path d="M358.491 330.692C353.932 351.902 355.75 345.408 352.304 349.255C347.173 354.721 343.031 361.037 340.06 367.92C339.886 368.293 339.828 369.405 338.628 368.613C336.333 367.102 333.785 366.05 331.073 363.963C329.51 362.765 329.971 362.288 330.461 361.121C333.425 354.098 347.492 335.144 358.491 330.692Z" fill="white"/>
<path d="M333.604 483.136C338.892 491.021 337.124 498.419 336.173 503.637C334.563 512.46 329.163 517.115 328.509 523.555C328.737 526.941 329.797 530.219 331.596 533.097C313.306 538.14 297.317 516.355 299.752 505.599C301.133 506.789 302.357 508.019 303.738 509.009C306.39 510.892 308.7 509.728 308.948 506.484C310.373 488.51 317.888 478.022 320.96 476.037C325.216 473.286 330.608 478.668 333.604 483.136Z" fill="#D6AD9E"/>
<path d="M312.061 427.785C322.872 432.068 328.582 436.952 324.219 456.552C322.717 462.044 320.621 467.356 317.967 472.393C317.102 474.217 310.321 471.041 300.961 487.692C298.131 485.762 295.433 483.644 292.886 481.352C289.207 477.52 279.6 471.427 281.314 457.209C282.212 458.596 283.458 459.723 284.927 460.478C286.397 461.232 288.039 461.588 289.689 461.51C295.709 461.543 286.417 459.772 301.852 432.839C303.47 429.989 307.781 426.092 312.061 427.785Z" fill="#D6AD9E"/>
<path d="M305.939 483.882C310.917 475.882 315.577 475.869 317.018 475.484C313.436 481.379 311.214 484.106 309.435 490.374C307.773 495.854 306.707 501.498 306.257 507.208C304.752 506.827 303.378 506.044 302.284 504.942C301.19 503.841 300.415 502.463 300.044 500.956C299.226 493.789 304.85 485.649 305.939 483.882Z" fill="#E2BFB5"/>
<path d="M290.598 433.79C297.53 424.982 302.427 426.433 303.99 426.384C296.532 432.206 289.23 451.78 289.592 457.383C289.817 460.814 272.47 456.823 290.598 433.79Z" fill="#E2BFB5"/>
<path d="M299.76 394.444C306.126 400.175 304.248 413.02 302.797 422.351C302.79 422.699 302.646 423.031 302.397 423.274C302.149 423.518 301.814 423.654 301.466 423.654C290.645 425.368 283.479 440.008 282.189 440.506C280.465 441.172 271.248 438.609 268.93 430.26C270.179 430.545 271.444 430.76 272.717 430.904C277.854 431.211 271.808 417.576 278.448 396.069C279.608 392.31 286.198 388.059 295.396 391.268C297.039 392.041 298.52 393.119 299.76 394.444Z" fill="#D6AD9E"/>
<path d="M276.099 393.918C269.73 419.582 273.791 413.901 272.33 428.163C264.291 428.062 265.346 419.093 266.461 411.129C267.234 405.604 270.944 395.207 276.099 393.918Z" fill="#E2BFB5"/>
<path d="M603.532 563.972C641.419 642.864 650.127 647.488 646.975 649.155C645.498 649.937 644.631 648.006 643.909 646.722C614.684 595.326 624.867 614.04 615.324 594.56C564.834 491.469 602.737 563.612 576.862 465.563C575.674 461.064 574.064 456.672 572.897 452.165C572.897 452.108 567.755 413.689 548.079 384.576C537.774 369.329 529.907 365.299 517.658 343.07C500.704 312.329 484.642 318.101 468.567 304.467C455.039 292.992 455.802 293.943 452.937 294.94C446.586 297.155 444.551 307.379 438.685 301.513C433.152 295.661 429.029 288.622 426.631 280.933C425.752 278.615 425.626 276.079 426.272 273.685C426.918 271.291 428.303 269.162 430.229 267.601C426.321 266.473 421.359 269.148 418.639 271.438C416.425 273.88 414.788 276.79 413.851 279.95C412.914 283.111 412.7 286.442 413.226 289.697C414.872 302.836 420.318 315.208 428.895 325.297C449.475 351.279 486.067 359.498 478.018 391.797C477.533 393.74 480.346 400.748 481.99 404.942C500.509 452.199 511.669 472.229 505.982 485.957C503.21 492.655 496.206 497.062 484.1 503.781C512.031 554.972 547.813 559.647 565.858 545.51C567.58 544.161 568.88 546.104 567.231 547.519C552.627 560.041 533.473 552.947 525.181 551.041C525.743 557.199 524.678 563.397 522.094 569.015C517.007 581.845 511.197 584.385 499.475 589.873C497.743 590.686 497.774 590.303 496.51 589.793C498.396 585.234 512.745 584.267 518.335 570.568C522.717 559.825 522.592 558.566 522.276 550.319C522.196 548.235 518.947 549.373 506.498 538.107C494.976 527.687 488.638 516.139 482.232 506.216C481.821 505.576 481.938 505.023 480.182 505.818C478.802 506.443 475.493 508.196 469.872 510.608C406.831 537.604 376.563 547.263 372.473 549.282C381.151 557.97 387.322 558.921 402.931 567.04C412.692 572.118 421.262 580.732 435.822 584.429C442.991 586.252 453.145 593.387 465.467 593.421C481.646 593.468 479.317 594.088 486.492 592.403C488.935 591.827 490.1 594.208 487.247 595.161C478.343 598.139 463.604 595.505 460.319 596.203C460.645 598.707 461.721 599.59 464.946 600.038C472.383 601.054 476.126 602.255 496.388 600.71C498.003 600.585 499.587 600.025 501.21 599.892C501.812 599.843 502.46 600.452 503.093 600.757C502.729 601.299 502.465 602.198 501.989 602.32C485.494 606.748 464.281 602.476 464.216 602.471C467.17 610.026 464.821 603.732 469.254 618.145C472.323 628.128 473.597 629.178 475.569 634.786C477.139 639.675 478.687 644.571 480.214 649.473C480.302 649.731 480.297 650.012 480.198 650.266C480.099 650.52 479.914 650.731 479.674 650.861C479.435 650.992 479.157 651.033 478.89 650.978C478.623 650.924 478.384 650.776 478.215 650.562C476.793 648.71 476.882 647.696 472.31 633.96C470.187 629.818 468.443 625.491 467.1 621.034C464.894 614.392 467.36 618.789 461.369 603.06C460.864 601.734 457.021 600.262 457.628 595.417C452.85 594.244 448.194 592.617 443.725 590.558C432.74 585.432 429.179 587.039 418.277 579.959C392.204 563.026 380.765 562.07 370.845 551.004C367.386 547.149 347.523 565.642 332.58 535.59C316.937 542.46 292.542 520.849 297.413 502.697C297.642 499.329 298.09 495.98 298.754 492.67C300.357 486.726 283.833 483.087 279.621 467.759C278.321 463.862 278.154 459.676 279.139 455.687C280.079 453.491 278.654 455.817 281.361 443.24C278.326 442.506 271.584 441.912 268.216 434.811C267.481 433.263 267.039 431.573 266.393 429.976C264.934 427.127 263.909 424.075 263.352 420.923C262.88 414.643 263.768 408.334 265.957 402.428C271.899 387.027 278.047 395.527 274.437 386.17C270.863 376.904 257.463 348.119 225.437 265.423C218.25 246.865 212.052 234.773 217.504 223.988C223.587 211.966 234.958 204.972 263.761 192.655C291.38 180.766 319.468 169.999 347.958 160.382C360.832 156.029 368.245 153.2 377.022 160.608C386.434 168.556 388.33 178.497 417.381 247.326C423.422 261.654 423.755 264.801 425.79 264.519C431.187 263.777 431.998 265.611 433.05 265.494C443.991 264.264 446.557 286.779 457.349 292.223C462.07 294.607 472.508 306.29 485.674 311.024C512.406 320.628 519.085 340.671 527.012 352.646C540.082 372.39 563.18 385.946 574.439 446.129C574.947 448.846 589.751 498.12 589.871 517.209C589.97 532.954 588.186 532.021 603.532 563.972ZM504.542 471.567C502.96 462.02 497.709 451.178 493.397 439.804C489.37 429.179 467.189 373.252 461.679 360.831C459.415 355.731 461.158 357.234 454.622 352.954C454.828 355.504 475.848 403.819 489.48 440.81C495.591 457.399 500.746 469.908 500.733 474.56C500.715 482.717 495.455 486.916 485.145 492.553C474.464 498.399 459.6 503.669 447.893 508.793C346.184 553.338 350.86 549.522 334.881 515.618C333.404 518.079 332.245 520.717 331.432 523.469C331.436 526.271 332.181 529.022 333.591 531.443C335.649 535.994 338.89 544.111 345.785 547.881C354.629 552.713 362.423 549.657 373.544 545.687C412.619 531.745 448.198 517.67 471.565 506.714C479.312 503.312 486.808 499.362 493.994 494.895C503.659 488.239 506.55 483.722 504.539 471.572L504.542 471.567ZM475.738 389.437C476.67 385.306 476.622 381.013 475.597 376.904C473.104 370.408 469.109 364.594 463.94 359.935C467.949 369.146 471.878 379.897 475.751 389.437H475.738ZM449.949 293.052C451.866 291.749 451.918 291.955 450.631 289.905C441.972 276.098 437.197 261.844 430.687 271.003C427.621 275.314 427.801 276.883 432.378 287.811C434.526 292.071 437.293 295.991 440.589 299.442C442.946 302.065 444.288 296.936 449.959 293.052H449.949ZM419.679 267.075C423.326 265.118 423.456 267.794 418.637 256.452C416.977 252.544 407.159 226.585 387.541 181.047C383.412 171.463 378.908 162.26 370.001 158.887C364.895 156.951 360.824 158.548 355.976 159.929C333.292 166.449 266.062 190.983 236.49 208.095C227.479 213.305 220.292 220.99 218.234 228.471C216.822 233.601 218.565 239.881 220.526 245.737C235.466 290.322 271.983 371.139 278.269 389.374C279.068 391.698 279.405 390.052 285.464 387.811C233.7 265.303 240.181 275.83 229.279 248.861C228.521 246.988 222.827 233.989 224.963 227.07C229.039 213.868 245.732 207.418 257.142 201.968C289.509 186.849 322.839 173.883 356.914 163.154C360.66 162.041 365.474 160.944 369.498 163.154C379.512 168.647 385.201 186.244 391.297 199.571C405.919 231.574 409.003 243.163 419.679 267.067V267.075ZM336.178 503.635C337.129 498.425 338.898 491.021 333.609 483.133C330.616 478.666 325.226 473.284 320.975 476.035C317.904 478.02 310.388 488.521 308.963 506.482C308.703 509.725 306.395 510.89 303.753 509.006C302.362 508.016 301.148 506.787 299.768 505.596C297.332 516.352 313.314 538.138 331.611 533.095C329.812 530.217 328.752 526.939 328.524 523.553C329.163 517.113 334.563 512.458 336.173 503.635H336.178ZM324.224 456.552C328.587 436.952 322.877 432.065 312.066 427.785C307.786 426.089 303.47 429.989 301.841 432.839C286.402 459.772 295.694 461.543 289.673 461.509C288.023 461.588 286.381 461.232 284.911 460.477C283.442 459.723 282.196 458.596 281.298 457.208C279.595 471.427 289.191 477.528 292.87 481.352C295.417 483.643 298.115 485.762 300.945 487.692C310.305 471.041 317.096 474.209 317.951 472.393C320.61 467.357 322.712 462.045 324.218 456.552H324.224ZM317.034 475.483C315.593 475.868 310.933 475.881 305.955 483.881C304.855 485.647 299.231 493.78 300.06 500.962C300.431 502.47 301.205 503.848 302.3 504.949C303.394 506.05 304.767 506.833 306.272 507.214C306.723 501.505 307.788 495.861 309.451 490.381C311.222 484.105 313.447 481.378 317.029 475.483H317.034ZM303.996 426.384C302.433 426.433 297.535 424.982 290.603 433.79C272.475 456.823 289.822 460.822 289.598 457.386C289.231 451.78 296.532 432.206 303.99 426.384H303.996ZM302.803 422.351C304.254 413.02 306.132 400.169 299.765 394.444C298.525 393.123 297.045 392.05 295.404 391.281C286.206 388.069 279.616 392.323 278.456 396.082C271.819 417.589 277.865 431.224 272.725 430.916C271.452 430.772 270.187 430.557 268.938 430.273C271.248 438.609 280.473 441.185 282.197 440.518C283.481 440.021 290.648 425.381 301.474 423.667C301.823 423.664 302.157 423.526 302.405 423.279C302.652 423.033 302.793 422.7 302.797 422.351H302.803ZM272.324 428.163C273.786 413.9 269.719 419.582 276.094 393.917C270.938 395.22 267.237 405.603 266.455 411.129C265.345 419.092 264.29 428.061 272.335 428.163H272.324Z" fill="#000001"/>
<path d="M383.893 373.662C391.932 373.779 396.137 379.304 395.819 386.593C395.543 393.207 390.682 399.662 380.645 398.469C366.495 396.789 367.805 373.425 383.893 373.662ZM390.982 392.478C393.381 389.404 394.941 381.844 390.117 378.312C384.529 374.219 373.476 375.67 373.184 387.109C372.934 396.622 385.964 398.904 390.982 392.478Z" fill="#000001"/>
<path d="M366.296 178.553C367.26 181.707 364.157 181.939 358.564 184.341C340.499 192.06 343.424 191.588 338.631 181.238C337.61 179.035 337.849 177.703 340.387 176.32C346.092 173.568 351.945 171.133 357.918 169.026C360.456 168.062 361.425 167.843 362.769 170.144C364.266 172.801 365.45 175.623 366.296 178.553ZM359.948 182.049C365.517 179.983 364.79 179.444 364.165 177.784C361.758 171.381 360.878 169.873 359.395 170.454C358.661 170.743 353.498 172.501 347.991 174.762C345.547 175.763 343.109 176.99 340.869 178.118C339.441 178.837 339.566 179.235 343.104 186.73C343.207 186.968 343.357 187.184 343.544 187.364C343.731 187.545 343.952 187.687 344.194 187.782C344.435 187.878 344.694 187.924 344.954 187.92C345.214 187.915 345.47 187.86 345.709 187.756C347.819 187.167 350.124 185.693 359.948 182.049Z" fill="#000001"/>
<path d="M307.933 190.294C308.022 190.679 308.66 191.929 306.631 192.964C305.724 193.425 303.575 194.266 298.034 196.775C286.627 201.907 285.35 203.287 284.41 200.943C283.938 199.76 283.368 198.997 284.173 198.181C285.561 196.793 289.88 195.316 297.57 191.817C300.232 190.504 302.999 189.414 305.841 188.559C306.902 188.332 307.644 189.02 307.933 190.294Z" fill="#000001"/>
<path d="M359.949 182.051C365.519 179.985 364.792 179.446 364.167 177.787C361.76 171.383 360.879 169.875 359.397 170.456C358.663 170.745 353.5 172.504 347.993 174.765C345.549 175.765 343.111 176.992 340.87 178.12C339.443 178.839 339.568 179.238 343.106 186.732C343.209 186.971 343.359 187.186 343.546 187.367C343.733 187.547 343.954 187.689 344.195 187.785C344.437 187.88 344.696 187.927 344.956 187.922C345.216 187.918 345.472 187.862 345.711 187.758C347.821 187.17 350.126 185.695 359.949 182.051Z" fill="white"/>
<path d="M357.642 178.728C357.764 179.035 357.763 179.377 357.637 179.682C357.512 179.987 357.272 180.231 356.969 180.362C355.242 181.107 352.486 182.185 346.318 184.806C345.195 185.285 344.755 185.207 344.34 184.475C343.669 183.289 343.131 182.031 342.736 180.726C342.361 179.536 342.806 179.578 354.719 174.631C355.779 174.188 356.756 176.522 357.642 178.728Z" fill="#000001"/>
<g filter="url(#filter0_d_446_10782)">
<circle cx="406.553" cy="458.552" r="29.5517" transform="rotate(-22.2917 406.553 458.552)" fill="white"/>
<circle cx="406.553" cy="458.552" r="28.9607" transform="rotate(-22.2917 406.553 458.552)" stroke="black" stroke-width="1.18207"/>
<circle cx="406.553" cy="458.552" r="28.9607" transform="rotate(-22.2917 406.553 458.552)" stroke="black" stroke-opacity="0.2" stroke-width="1.18207"/>
</g>
<circle cx="406.552" cy="458.553" r="53.0587" transform="rotate(-22.2917 406.552 458.553)" fill="white"/>
<circle cx="406.552" cy="458.553" r="52.4677" transform="rotate(-22.2917 406.552 458.553)" stroke="#DDD4F3" stroke-opacity="0.5" stroke-width="1.18207"/>
<g filter="url(#filter1_d_446_10782)">
<circle cx="406.553" cy="458.553" r="29.5517" transform="rotate(-22.2917 406.553 458.553)" fill="white"/>
<circle cx="406.553" cy="458.553" r="28.9607" transform="rotate(-22.2917 406.553 458.553)" stroke="black" stroke-width="1.18207"/>
<circle cx="406.553" cy="458.553" r="28.9607" transform="rotate(-22.2917 406.553 458.553)" stroke="black" stroke-opacity="0.2" stroke-width="1.18207"/>
</g>
<g filter="url(#filter2_d_446_10782)">
<path d="M388.851 456.738L386.807 451.751C386.723 451.546 386.821 451.311 387.026 451.227L414.937 439.785C415.142 439.7 415.377 439.799 415.461 440.004L417.506 444.991C417.59 445.196 417.492 445.431 417.286 445.515L414.793 446.538L417.722 453.683C419.458 457.917 417.433 462.756 413.199 464.492L405.607 467.604L408.933 475.716C404.699 477.452 399.86 475.427 398.124 471.193L391.869 455.935L389.376 456.958C389.17 457.042 388.935 456.944 388.851 456.738Z" fill="#BDA6FF"/>
<path d="M388.851 456.738L386.807 451.751C386.723 451.546 386.821 451.311 387.026 451.227L414.937 439.785C415.142 439.7 415.377 439.799 415.461 440.004L417.506 444.991C417.59 445.196 417.492 445.431 417.286 445.515L414.793 446.538L417.722 453.683C419.458 457.917 417.433 462.756 413.199 464.492L405.607 467.604L408.933 475.716C404.699 477.452 399.86 475.427 398.124 471.193L391.869 455.935L389.376 456.958C389.17 457.042 388.935 456.944 388.851 456.738Z" stroke="black" stroke-width="1.00549"/>
</g>
<g filter="url(#filter3_d_446_10782)">
<path d="M399.416 454.976L401.995 453.434L401.522 452.281C401.354 451.87 401.55 451.4 401.961 451.231L404.306 450.27C404.717 450.102 405.187 450.298 405.355 450.709L405.828 451.863L408.747 451.15C409.109 451.062 409.484 451.234 409.654 451.566L412.256 456.653C412.47 457.073 412.28 457.585 411.844 457.764L401.852 461.86C401.417 462.039 400.922 461.807 400.78 461.358L399.062 455.908C398.949 455.553 399.096 455.167 399.416 454.976Z" fill="white"/>
<path d="M399.416 454.976L401.995 453.434L401.522 452.281C401.354 451.87 401.55 451.4 401.961 451.231L404.306 450.27C404.717 450.102 405.187 450.298 405.355 450.709L405.828 451.863L408.747 451.15C409.109 451.062 409.484 451.234 409.654 451.566L412.256 456.653C412.47 457.073 412.28 457.585 411.844 457.764L401.852 461.86C401.417 462.039 400.922 461.807 400.78 461.358L399.062 455.908C398.949 455.553 399.096 455.167 399.416 454.976Z" stroke="black" stroke-width="1.00549"/>
</g>
<path d="M404.936 452.383L403 453.177L402.596 452.19C402.562 452.108 402.602 452.014 402.684 451.981L404.321 451.309C404.404 451.276 404.498 451.315 404.531 451.397L404.936 452.383Z" fill="#28273C" stroke="black" stroke-width="0.0402196"/>
<path d="M411.461 457.379C411.528 457.124 411.526 456.856 411.456 456.602L411.208 455.7L411.864 456.978C411.918 457.083 411.87 457.211 411.761 457.256L411.461 457.379V457.379Z" fill="#BDA6FF"/>
<path d="M399.767 456.344C399.718 455.91 399.848 455.475 400.127 455.138V455.138L399.656 455.424C399.545 455.492 399.494 455.627 399.534 455.752L399.788 456.538L399.767 456.344Z" fill="#BDA6FF"/>
<path d="M387.305 451.635L390.542 450.308L388.681 452.288L387.892 453.068L387.305 451.635Z" fill="#3100BE"/>
<path d="M412.693 464.155C416.067 462.189 417.779 458.265 416.925 454.454L416.236 451.379L417.133 453.279C419.129 457.505 417.076 462.533 412.693 464.155V464.155V464.155Z" fill="#3100BE"/>
<path d="M351.815 164.692L351.815 164.692L351.822 164.69L354.978 163.462C363.463 160.163 373.103 163.124 378.271 170.619C378.892 171.52 379.438 172.472 379.901 173.464L389.682 194.424L418.912 265.884C416.016 268.853 413.847 272.454 412.577 276.406L412.253 277.412C410.764 282.046 410.379 286.965 411.131 291.774L411.659 295.155C412.228 298.796 413.236 302.355 414.661 305.754L415.791 308.447C417.964 313.63 420.756 318.53 424.107 323.041L425.966 325.542C430.064 331.059 434.79 336.079 440.05 340.502L454.081 352.301L499.714 467.712C500.648 470.073 501.032 472.616 500.837 475.148C500.414 480.641 497.315 485.574 492.549 488.339L475.418 498.274L376.327 539.245C373.144 540.561 369.773 541.366 366.339 541.63L360.889 542.049C355.416 542.47 350.011 540.623 345.94 536.94C343.404 534.645 341.499 531.739 340.407 528.498L336.024 515.49L338.138 508.358C339.372 504.191 339.804 499.827 339.411 495.498L339.38 495.163C339.123 492.325 338.485 489.536 337.485 486.868L337.24 486.216C336.38 483.923 335.21 481.758 333.761 479.783C331.506 476.708 328.62 474.15 325.296 472.28L322.589 470.758L325.449 460.748C326.143 458.321 326.658 455.846 326.992 453.344L328.049 445.416C328.353 443.137 328.155 440.819 327.469 438.625C326.468 435.422 324.472 432.621 321.77 430.63L318.628 428.315C317.05 427.152 315.352 426.16 313.564 425.356L306.5 422.177L306.5 412.5L306.5 412.476L306.498 412.452L305.468 401.813C305.152 398.551 303.773 395.483 301.543 393.081C299.406 390.78 296.599 389.21 293.52 388.594L285.847 387.059L279.459 373.301L226.106 240.542C222.885 232.043 225.347 222.436 232.26 216.535L238.925 210.845C240.241 209.722 241.714 208.797 243.297 208.099L287.329 188.687L351.815 164.692Z" fill="white" stroke="black"/>
</g>
<g filter="url(#filter4_d_446_10782)">
<rect width="5.65989" height="5.65989" rx="2.82994" transform="matrix(0.438371 0.898794 0.898794 -0.438371 312.982 196.902)" fill="white"/>
<rect x="0.630683" y="0.217162" width="4.71657" height="4.71657" rx="2.35829" transform="matrix(0.438371 0.898794 0.898794 -0.438371 313.141 196.648)" stroke="black" stroke-width="0.943314"/>
</g>
<g filter="url(#filter5_d_446_10782)">
<rect width="5.65989" height="5.65989" rx="2.82994" transform="matrix(0.438371 0.898794 0.898794 -0.438371 274.5 206.226)" fill="white"/>
<rect x="0.630683" y="0.217162" width="4.71657" height="4.71657" rx="2.35829" transform="matrix(0.438371 0.898794 0.898794 -0.438371 274.659 205.972)" stroke="black" stroke-width="0.943314"/>
</g>
<path d="M378.304 384.624L224.5 69.4999L452.068 22.0133L392.365 158.655C373.767 201.221 366.17 247.781 370.273 294.052L378.304 384.624Z" fill="url(#paint0_linear_446_10782)"/>
<path d="M378.763 385.878L226 71.9999L47.6084 220.759L192.04 257.838C237.033 269.389 278.4 292.067 312.336 323.788L378.763 385.878Z" fill="url(#paint1_linear_446_10782)"/>
<path d="M222.626 136.631L213.914 163.256M213.914 163.256L189.213 152.928M213.914 163.256L199.044 178.645M213.914 163.256L240.191 179.596L180.232 206.806M180.232 206.806L149.227 172.43L162.827 175.29M180.232 206.806L173.217 227.179M162.827 175.29L168.304 172.618M162.827 175.29L169.867 179.993M173.217 227.179L161.274 222.155M173.217 227.179L167.192 230.118M173.217 227.179L180.846 227.527" stroke="white" stroke-width="1.21887"/>
<path d="M340.394 79.1918L331.682 105.817M331.682 105.817L306.981 95.4885M331.682 105.817L316.812 121.206M331.682 105.817L357.959 122.157L298 149.367M298 149.367L266.994 114.991L280.594 117.851M298 149.367L290.985 169.74M280.594 117.851L286.072 115.179M280.594 117.851L287.634 122.554M290.985 169.74L279.042 164.716M290.985 169.74L284.96 172.679M290.985 169.74L298.613 170.088" stroke="white" stroke-width="1.21887"/>
<path d="M335.545 139.255L342.668 166.348M342.668 166.348L316.314 171.069M342.668 166.348L338.523 187.343M342.668 166.348L373.607 165.823L337.994 221.204M337.994 221.204L293.3 209.143L306.276 204.168M337.994 221.204L343.151 242.125M306.276 204.168L309.429 198.953M306.276 204.168L314.742 204.301M343.151 242.125L339.683 247.862M343.151 242.125L349.748 238.279M343.151 242.125L330.392 244.382L328.623 284.307L336.481 300.165" stroke="white" stroke-width="1.21887"/>
<path d="M312.417 222.487L286.861 233.963M286.861 233.963L277.875 208.743M286.861 233.963L265.471 233.323M286.861 233.963L290.136 263.94M329.463 284.265L290.136 263.94M231.982 238.364L236.538 192.296L243.577 204.279M231.982 238.364L212.193 246.888M231.982 238.364L290.136 263.94M243.577 204.279L249.239 206.532M243.577 204.279L244.837 212.651M212.193 246.888L207.871 234.673M212.193 246.888L205.964 244.409M212.193 246.888L217.07 252.764" stroke="white" stroke-width="1.21887"/>
<g filter="url(#filter6_d_446_10782)">
<rect width="7.31321" height="7.31321" rx="3.65661" transform="matrix(0.438371 0.898794 0.898794 -0.438371 208.211 161.292)" fill="white"/>
<rect x="0.814914" y="0.280598" width="6.09434" height="6.09434" rx="3.04717" transform="matrix(0.438371 0.898794 0.898794 -0.438371 208.416 160.963)" stroke="black" stroke-width="1.21887"/>
</g>
<g filter="url(#filter7_d_446_10782)">
<rect width="7.31321" height="7.31321" rx="3.65661" transform="matrix(0.438371 0.898794 0.898794 -0.438371 336.553 240.228)" fill="white"/>
<rect x="0.814914" y="0.280598" width="6.09434" height="6.09434" rx="3.04717" transform="matrix(0.438371 0.898794 0.898794 -0.438371 336.758 239.899)" stroke="black" stroke-width="1.21887"/>
</g>
<g filter="url(#filter8_d_446_10782)">
<rect width="7.31321" height="7.31321" rx="3.65661" transform="matrix(0.438371 0.898794 0.898794 -0.438371 323.967 282.551)" fill="white"/>
<rect x="0.814914" y="0.280598" width="6.09434" height="6.09434" rx="3.04717" transform="matrix(0.438371 0.898794 0.898794 -0.438371 324.172 282.222)" stroke="black" stroke-width="1.21887"/>
</g>
<g filter="url(#filter9_d_446_10782)">
<rect width="7.31321" height="7.31321" rx="3.65661" transform="matrix(0.438371 0.898794 0.898794 -0.438371 336.275 165.281)" fill="white"/>
<rect x="0.814914" y="0.280598" width="6.09434" height="6.09434" rx="3.04717" transform="matrix(0.438371 0.898794 0.898794 -0.438371 336.481 164.952)" stroke="black" stroke-width="1.21887"/>
</g>
<g filter="url(#filter10_d_446_10782)">
<rect width="7.31321" height="7.31321" rx="3.65661" transform="matrix(0.438371 0.898794 0.898794 -0.438371 325.43 104.12)" fill="white"/>
<rect x="0.814914" y="0.280598" width="6.09434" height="6.09434" rx="3.04717" transform="matrix(0.438371 0.898794 0.898794 -0.438371 325.635 103.791)" stroke="black" stroke-width="1.21887"/>
</g>
<g filter="url(#filter11_d_446_10782)">
<rect width="7.31321" height="7.31321" rx="3.65661" transform="matrix(0.438371 0.898794 0.898794 -0.438371 291.201 147.937)" fill="white"/>
<rect x="0.814914" y="0.280598" width="6.09434" height="6.09434" rx="3.04717" transform="matrix(0.438371 0.898794 0.898794 -0.438371 291.407 147.608)" stroke="black" stroke-width="1.21887"/>
</g>
<g filter="url(#filter12_d_446_10782)">
<rect width="7.31321" height="7.31321" rx="3.65661" transform="matrix(0.438371 0.898794 0.898794 -0.438371 285.717 261.813)" fill="white"/>
<rect x="0.814914" y="0.280598" width="6.09434" height="6.09434" rx="3.04717" transform="matrix(0.438371 0.898794 0.898794 -0.438371 285.922 261.484)" stroke="black" stroke-width="1.21887"/>
</g>
<g filter="url(#filter13_d_446_10782)">
<rect width="7.31321" height="7.31321" rx="3.65661" transform="matrix(0.438371 0.898794 0.898794 -0.438371 227.098 236.16)" fill="white"/>
<rect x="0.814914" y="0.280598" width="6.09434" height="6.09434" rx="3.04717" transform="matrix(0.438371 0.898794 0.898794 -0.438371 227.303 235.831)" stroke="black" stroke-width="1.21887"/>
</g>
<g filter="url(#filter14_d_446_10782)">
<rect width="26.8151" height="26.8151" rx="13.4076" transform="matrix(0.438371 0.898794 0.898794 -0.438371 223.359 172.889)" fill="white"/>
<rect x="2.98802" y="1.02886" width="22.3459" height="22.3459" rx="11.173" transform="matrix(0.438371 0.898794 0.898794 -0.438371 224.113 171.683)" stroke="black" stroke-width="4.46918"/>
</g>
<g filter="url(#filter15_d_446_10782)">
<rect width="26.8151" height="26.8151" rx="13.4076" transform="matrix(0.438371 0.898794 0.898794 -0.438371 338.416 114.06)" fill="white"/>
<rect x="2.98802" y="1.02886" width="22.3459" height="22.3459" rx="11.173" transform="matrix(0.438371 0.898794 0.898794 -0.438371 339.169 112.854)" stroke="black" stroke-width="4.46918"/>
</g>
<g filter="url(#filter16_d_446_10782)">
<rect width="26.8151" height="26.8151" rx="13.4076" transform="matrix(0.438371 0.898794 0.898794 -0.438371 316.18 213.053)" fill="white"/>
<rect x="2.98802" y="1.02886" width="22.3459" height="22.3459" rx="11.173" transform="matrix(0.438371 0.898794 0.898794 -0.438371 316.933 211.847)" stroke="black" stroke-width="4.46918"/>
</g>
<g filter="url(#filter17_d_446_10782)">
<rect width="26.8151" height="26.8151" rx="13.4076" transform="matrix(0.438371 0.898794 0.898794 -0.438371 267.523 227.291)" fill="white"/>
<rect x="2.98802" y="1.02886" width="22.3459" height="22.3459" rx="11.173" transform="matrix(0.438371 0.898794 0.898794 -0.438371 268.277 226.085)" stroke="black" stroke-width="4.46918"/>
</g>
<g filter="url(#filter18_d_446_10782)">
<rect width="26.8151" height="26.8151" rx="13.4076" transform="matrix(0.438371 0.898794 0.898794 -0.438371 151.994 168.369)" fill="white"/>
<rect x="2.98802" y="1.02886" width="22.3459" height="22.3459" rx="11.173" transform="matrix(0.438371 0.898794 0.898794 -0.438371 152.748 167.163)" stroke="black" stroke-width="4.46918"/>
</g>
<g filter="url(#filter19_d_446_10782)">
<rect width="7.31321" height="7.31321" rx="3.65661" transform="matrix(0.438371 0.898794 0.898794 -0.438371 175.076 204.574)" fill="white"/>
<rect x="0.814914" y="0.280598" width="6.09434" height="6.09434" rx="3.04717" transform="matrix(0.438371 0.898794 0.898794 -0.438371 175.282 204.245)" stroke="black" stroke-width="1.21887"/>
</g>
<path d="M448.828 26.456C360.937 223.132 364.752 222.625 372.905 348.774" stroke="#EDEDED" stroke-width="1.21887"/>
<path d="M51.3594 220.314C237.652 263.324 258.219 269.661 352.092 358.924" stroke="#EDEDED" stroke-width="1.21887"/>
<path d="M240.342 182.766C239.89 182.747 239.482 182.598 239.118 182.319C238.749 182.056 238.445 181.679 238.206 181.188C237.792 180.34 237.742 179.523 238.055 178.737C238.357 177.957 238.974 177.339 239.904 176.886C240.896 176.402 241.803 176.289 242.625 176.546C243.441 176.819 244.079 177.425 244.538 178.366C244.852 179.01 244.952 179.632 244.84 180.231C244.732 180.841 244.421 181.397 243.907 181.901L242.284 178.573L240.352 179.515L243.134 185.221L245.573 184.031C246.133 183.518 246.579 182.889 246.912 182.144C247.25 181.41 247.418 180.6 247.417 179.715C247.415 178.829 247.195 177.937 246.756 177.037C246.238 175.974 245.544 175.135 244.675 174.521C243.8 173.922 242.834 173.59 241.777 173.523C240.724 173.467 239.666 173.698 238.603 174.217C237.539 174.736 236.706 175.427 236.102 176.291C235.493 177.17 235.16 178.136 235.104 179.189C235.038 180.246 235.264 181.307 235.783 182.37C236.411 183.659 237.251 184.59 238.304 185.166C239.362 185.751 240.512 185.917 241.756 185.665L240.342 182.766Z" fill="#FF6161"/>
<path d="M358.589 113.714L351.147 122.09L358.495 123.253L355.824 117.775" stroke="#4967D0" stroke-width="2.43774"/>
<path d="M339.128 222.142L336.466 217.371C335.256 215.203 332.128 215.23 330.955 217.417V217.417C330.454 218.351 330.457 219.475 330.965 220.405L333.293 224.678" stroke="#B549D0" stroke-width="2.43774"/>
<path d="M175.169 175.144L172.507 170.373C171.297 168.205 168.169 168.231 166.996 170.419V170.419C166.495 171.353 166.499 172.476 167.006 173.407L169.334 177.679" stroke="#95D049" stroke-width="2.43774"/>
<path d="M334.365 212.379L336.486 217.414C337.449 219.702 335.503 222.151 333.056 221.729V221.729C332.012 221.549 331.129 220.854 330.708 219.882L328.775 215.417" stroke="#B549D0" stroke-width="2.43774"/>
<path d="M169.774 171.535L172.406 176.323C173.602 178.498 171.92 181.136 169.443 180.97V180.97C168.386 180.899 167.436 180.3 166.916 179.377L164.529 175.137" stroke="#95D049" stroke-width="2.43774"/>
<path d="M281.936 229.992C281.75 230.285 281.65 230.625 281.636 231.011C281.622 231.398 281.711 231.789 281.904 232.184C282.134 232.655 282.461 233.022 282.885 233.288C283.31 233.553 283.797 233.687 284.347 233.689C284.9 233.698 285.469 233.559 286.055 233.273C286.642 232.987 287.105 232.622 287.445 232.178C287.782 231.744 287.98 231.276 288.039 230.774C288.091 230.276 288.003 229.792 287.773 229.322C287.577 228.92 287.327 228.607 287.024 228.383C286.715 228.163 286.385 228.033 286.036 227.992L286.834 227.603L285.981 225.855L278.415 229.545L279.267 231.293L281.936 229.992ZM285.188 231.494C284.751 231.707 284.351 231.75 283.986 231.625C283.617 231.509 283.346 231.274 283.173 230.92C283.004 230.572 282.985 230.214 283.118 229.846C283.254 229.484 283.54 229.197 283.976 228.984C284.412 228.771 284.815 228.723 285.183 228.838C285.555 228.961 285.826 229.196 285.995 229.543C286.165 229.891 286.183 230.249 286.051 230.617C285.912 230.989 285.624 231.281 285.188 231.494ZM286.408 241.211L292.113 238.428L291.261 236.68L290.484 237.059C290.649 236.758 290.736 236.417 290.743 236.033C290.747 235.66 290.659 235.29 290.479 234.922C290.266 234.485 289.983 234.147 289.629 233.906C289.269 233.668 288.86 233.547 288.402 233.543C287.944 233.538 287.466 233.657 286.969 233.9L283.635 235.526L284.483 237.264L287.581 235.753C287.963 235.567 288.308 235.521 288.615 235.616C288.923 235.71 289.158 235.925 289.321 236.259C289.488 236.599 289.513 236.92 289.398 237.221C289.283 237.522 289.035 237.765 288.653 237.951L285.555 239.462L286.408 241.211Z" fill="#03A800"/>
<g filter="url(#filter20_d_446_10782)">
<circle cx="381.551" cy="396.552" r="29.5517" transform="rotate(-25 381.551 396.552)" fill="white"/>
<circle cx="381.551" cy="396.552" r="28.9607" transform="rotate(-25 381.551 396.552)" stroke="black" stroke-width="1.18207"/>
<circle cx="381.551" cy="396.552" r="28.9607" transform="rotate(-25 381.551 396.552)" stroke="black" stroke-opacity="0.2" stroke-width="1.18207"/>
</g>
<circle cx="381.554" cy="396.553" r="53.0587" transform="rotate(-25 381.554 396.553)" fill="white"/>
<circle cx="381.554" cy="396.553" r="52.4677" transform="rotate(-25 381.554 396.553)" stroke="#DDD4F3" stroke-opacity="0.5" stroke-width="1.18207"/>
<g filter="url(#filter21_d_446_10782)">
<circle cx="381.553" cy="396.553" r="29.5517" transform="rotate(-25 381.553 396.553)" fill="white"/>
<circle cx="381.553" cy="396.553" r="28.9607" transform="rotate(-25 381.553 396.553)" stroke="black" stroke-width="1.18207"/>
<circle cx="381.553" cy="396.553" r="28.9607" transform="rotate(-25 381.553 396.553)" stroke="black" stroke-opacity="0.2" stroke-width="1.18207"/>
</g>
<g filter="url(#filter22_d_446_10782)">
<path d="M363.786 395.577L361.508 390.692C361.414 390.491 361.501 390.251 361.702 390.158L389.041 377.409C389.242 377.316 389.482 377.403 389.575 377.604L391.853 382.488C391.947 382.69 391.86 382.929 391.659 383.023L389.216 384.162L392.48 391.16C394.414 395.308 392.619 400.237 388.472 402.171L381.036 405.638L384.742 413.585C380.595 415.519 375.665 413.724 373.731 409.577L366.762 394.632L364.32 395.771C364.119 395.865 363.879 395.778 363.786 395.577Z" fill="#BDA6FF"/>
<path d="M363.786 395.577L361.508 390.692C361.414 390.491 361.501 390.251 361.702 390.158L389.041 377.409C389.242 377.316 389.482 377.403 389.575 377.604L391.853 382.488C391.947 382.69 391.86 382.929 391.659 383.023L389.216 384.162L392.48 391.16C394.414 395.308 392.619 400.237 388.472 402.171L381.036 405.638L384.742 413.585C380.595 415.519 375.665 413.724 373.731 409.577L366.762 394.632L364.32 395.771C364.119 395.865 363.879 395.778 363.786 395.577Z" stroke="black" stroke-width="1.00549"/>
</g>
<g filter="url(#filter23_d_446_10782)">
<path d="M374.257 393.317L376.76 391.655L376.233 390.525C376.045 390.123 376.22 389.644 376.622 389.456L378.919 388.386C379.321 388.198 379.8 388.372 379.988 388.775L380.515 389.905L383.397 389.055C383.754 388.95 384.137 389.104 384.322 389.427L387.161 394.386C387.395 394.795 387.23 395.316 386.803 395.515L377.016 400.079C376.589 400.278 376.083 400.07 375.921 399.628L373.947 394.265C373.818 393.916 373.946 393.523 374.257 393.317Z" fill="white"/>
<path d="M374.257 393.317L376.76 391.655L376.233 390.525C376.045 390.123 376.22 389.644 376.622 389.456L378.919 388.386C379.321 388.198 379.8 388.372 379.988 388.775L380.515 389.905L383.397 389.055C383.754 388.95 384.137 389.104 384.322 389.427L387.161 394.386C387.395 394.795 387.23 395.316 386.803 395.515L377.016 400.079C376.589 400.278 376.083 400.07 375.921 399.628L373.947 394.265C373.818 393.916 373.946 393.523 374.257 393.317Z" stroke="black" stroke-width="1.00549"/>
</g>
<path d="M379.648 390.467L377.753 391.351L377.302 390.385C377.265 390.304 377.3 390.208 377.38 390.171L378.984 389.423C379.065 389.385 379.16 389.42 379.198 389.501L379.648 390.467Z" fill="#28273C" stroke="black" stroke-width="0.0402196"/>
<path d="M386.402 395.148C386.456 394.89 386.442 394.623 386.36 394.372L386.07 393.484L386.785 394.729C386.844 394.831 386.802 394.961 386.696 395.011L386.402 395.148V395.148Z" fill="#BDA6FF"/>
<path d="M374.671 394.668C374.603 394.236 374.712 393.795 374.974 393.446V393.446L374.517 393.754C374.409 393.827 374.365 393.964 374.411 394.086L374.702 394.86L374.671 394.668Z" fill="#BDA6FF"/>
<path d="M361.998 390.552L365.169 389.074L363.403 391.14L362.652 391.956L361.998 390.552Z" fill="#3100BE"/>
<path d="M387.949 401.859C391.227 399.736 392.752 395.735 391.719 391.969L390.885 388.93L391.871 390.785C394.064 394.912 392.251 400.032 387.949 401.859V401.859V401.859Z" fill="#3100BE"/>
<defs>
<filter id="filter0_d_446_10782" x="376.994" y="428.992" width="62.7883" height="62.7901" filterUnits="userSpaceOnUse" color-interpolation-filters="sRGB">
<feFlood flood-opacity="0" result="BackgroundImageFix"/>
<feColorMatrix in="SourceAlpha" type="matrix" values="0 0 0 0 0 0 0 0 0 0 0 0 0 0 0 0 0 0 127 0" result="hardAlpha"/>
<feOffset dx="3.67114" dy="3.67114"/>
<feComposite in2="hardAlpha" operator="out"/>
<feColorMatrix type="matrix" values="0 0 0 0 0 0 0 0 0 0 0 0 0 0 0 0 0 0 1 0"/>
<feBlend mode="normal" in2="BackgroundImageFix" result="effect1_dropShadow_446_10782"/>
<feBlend mode="normal" in="SourceGraphic" in2="effect1_dropShadow_446_10782" result="shape"/>
</filter>
<filter id="filter1_d_446_10782" x="376.994" y="428.993" width="62.7883" height="62.7901" filterUnits="userSpaceOnUse" color-interpolation-filters="sRGB">
<feFlood flood-opacity="0" result="BackgroundImageFix"/>
<feColorMatrix in="SourceAlpha" type="matrix" values="0 0 0 0 0 0 0 0 0 0 0 0 0 0 0 0 0 0 127 0" result="hardAlpha"/>
<feOffset dx="3.67114" dy="3.67114"/>
<feComposite in2="hardAlpha" operator="out"/>
<feColorMatrix type="matrix" values="0 0 0 0 0 0 0 0 0 0 0 0 0 0 0 0 0 0 1 0"/>
<feBlend mode="normal" in2="BackgroundImageFix" result="effect1_dropShadow_446_10782"/>
<feBlend mode="normal" in="SourceGraphic" in2="effect1_dropShadow_446_10782" result="shape"/>
</filter>
<filter id="filter2_d_446_10782" x="386.273" y="439.252" width="33.5375" height="38.5544" filterUnits="userSpaceOnUse" color-interpolation-filters="sRGB">
<feFlood flood-opacity="0" result="BackgroundImageFix"/>
<feColorMatrix in="SourceAlpha" type="matrix" values="0 0 0 0 0 0 0 0 0 0 0 0 0 0 0 0 0 0 127 0" result="hardAlpha"/>
<feOffset dx="0.965271" dy="0.965271"/>
<feComposite in2="hardAlpha" operator="out"/>
<feColorMatrix type="matrix" values="0 0 0 0 0.156863 0 0 0 0 0.152941 0 0 0 0 0.235294 0 0 0 1 0"/>
<feBlend mode="normal" in2="BackgroundImageFix" result="effect1_dropShadow_446_10782"/>
<feBlend mode="normal" in="SourceGraphic" in2="effect1_dropShadow_446_10782" result="shape"/>
</filter>
<filter id="filter3_d_446_10782" x="398.521" y="449.707" width="15.2914" height="13.6822" filterUnits="userSpaceOnUse" color-interpolation-filters="sRGB">
<feFlood flood-opacity="0" result="BackgroundImageFix"/>
<feColorMatrix in="SourceAlpha" type="matrix" values="0 0 0 0 0 0 0 0 0 0 0 0 0 0 0 0 0 0 127 0" result="hardAlpha"/>
<feOffset dx="0.965271" dy="0.965271"/>
<feComposite in2="hardAlpha" operator="out"/>
<feColorMatrix type="matrix" values="0 0 0 0 0.156863 0 0 0 0 0.152941 0 0 0 0 0.235294 0 0 0 1 0"/>
<feBlend mode="normal" in2="BackgroundImageFix" result="effect1_dropShadow_446_10782"/>
<feBlend mode="normal" in="SourceGraphic" in2="effect1_dropShadow_446_10782" result="shape"/>
</filter>
<filter id="filter4_d_446_10782" x="313.936" y="195.375" width="6.60542" height="6.60445" filterUnits="userSpaceOnUse" color-interpolation-filters="sRGB">
<feFlood flood-opacity="0" result="BackgroundImageFix"/>
<feColorMatrix in="SourceAlpha" type="matrix" values="0 0 0 0 0 0 0 0 0 0 0 0 0 0 0 0 0 0 127 0" result="hardAlpha"/>
<feOffset dx="0.943314" dy="0.943314"/>
<feComposite in2="hardAlpha" operator="out"/>
<feColorMatrix type="matrix" values="0 0 0 0 0 0 0 0 0 0 0 0 0 0 0 0 0 0 1 0"/>
<feBlend mode="normal" in2="BackgroundImageFix" result="effect1_dropShadow_446_10782"/>
<feBlend mode="normal" in="SourceGraphic" in2="effect1_dropShadow_446_10782" result="shape"/>
</filter>
<filter id="filter5_d_446_10782" x="275.453" y="204.698" width="6.60542" height="6.60445" filterUnits="userSpaceOnUse" color-interpolation-filters="sRGB">
<feFlood flood-opacity="0" result="BackgroundImageFix"/>
<feColorMatrix in="SourceAlpha" type="matrix" values="0 0 0 0 0 0 0 0 0 0 0 0 0 0 0 0 0 0 127 0" result="hardAlpha"/>
<feOffset dx="0.943314" dy="0.943314"/>
<feComposite in2="hardAlpha" operator="out"/>
<feColorMatrix type="matrix" values="0 0 0 0 0 0 0 0 0 0 0 0 0 0 0 0 0 0 1 0"/>
<feBlend mode="normal" in2="BackgroundImageFix" result="effect1_dropShadow_446_10782"/>
<feBlend mode="normal" in="SourceGraphic" in2="effect1_dropShadow_446_10782" result="shape"/>
</filter>
<filter id="filter6_d_446_10782" x="209.443" y="159.318" width="8.53332" height="8.53375" filterUnits="userSpaceOnUse" color-interpolation-filters="sRGB">
<feFlood flood-opacity="0" result="BackgroundImageFix"/>
<feColorMatrix in="SourceAlpha" type="matrix" values="0 0 0 0 0 0 0 0 0 0 0 0 0 0 0 0 0 0 127 0" result="hardAlpha"/>
<feOffset dx="1.21887" dy="1.21887"/>
<feComposite in2="hardAlpha" operator="out"/>
<feColorMatrix type="matrix" values="0 0 0 0 0 0 0 0 0 0 0 0 0 0 0 0 0 0 1 0"/>
<feBlend mode="normal" in2="BackgroundImageFix" result="effect1_dropShadow_446_10782"/>
<feBlend mode="normal" in="SourceGraphic" in2="effect1_dropShadow_446_10782" result="shape"/>
</filter>
<filter id="filter7_d_446_10782" x="337.785" y="238.254" width="8.53332" height="8.53375" filterUnits="userSpaceOnUse" color-interpolation-filters="sRGB">
<feFlood flood-opacity="0" result="BackgroundImageFix"/>
<feColorMatrix in="SourceAlpha" type="matrix" values="0 0 0 0 0 0 0 0 0 0 0 0 0 0 0 0 0 0 127 0" result="hardAlpha"/>
<feOffset dx="1.21887" dy="1.21887"/>
<feComposite in2="hardAlpha" operator="out"/>
<feColorMatrix type="matrix" values="0 0 0 0 0 0 0 0 0 0 0 0 0 0 0 0 0 0 1 0"/>
<feBlend mode="normal" in2="BackgroundImageFix" result="effect1_dropShadow_446_10782"/>
<feBlend mode="normal" in="SourceGraphic" in2="effect1_dropShadow_446_10782" result="shape"/>
</filter>
<filter id="filter8_d_446_10782" x="325.199" y="280.577" width="8.53332" height="8.53375" filterUnits="userSpaceOnUse" color-interpolation-filters="sRGB">
<feFlood flood-opacity="0" result="BackgroundImageFix"/>
<feColorMatrix in="SourceAlpha" type="matrix" values="0 0 0 0 0 0 0 0 0 0 0 0 0 0 0 0 0 0 127 0" result="hardAlpha"/>
<feOffset dx="1.21887" dy="1.21887"/>
<feComposite in2="hardAlpha" operator="out"/>
<feColorMatrix type="matrix" values="0 0 0 0 0 0 0 0 0 0 0 0 0 0 0 0 0 0 1 0"/>
<feBlend mode="normal" in2="BackgroundImageFix" result="effect1_dropShadow_446_10782"/>
<feBlend mode="normal" in="SourceGraphic" in2="effect1_dropShadow_446_10782" result="shape"/>
</filter>
<filter id="filter9_d_446_10782" x="337.508" y="163.307" width="8.53332" height="8.53375" filterUnits="userSpaceOnUse" color-interpolation-filters="sRGB">
<feFlood flood-opacity="0" result="BackgroundImageFix"/>
<feColorMatrix in="SourceAlpha" type="matrix" values="0 0 0 0 0 0 0 0 0 0 0 0 0 0 0 0 0 0 127 0" result="hardAlpha"/>
<feOffset dx="1.21887" dy="1.21887"/>
<feComposite in2="hardAlpha" operator="out"/>
<feColorMatrix type="matrix" values="0 0 0 0 0 0 0 0 0 0 0 0 0 0 0 0 0 0 1 0"/>
<feBlend mode="normal" in2="BackgroundImageFix" result="effect1_dropShadow_446_10782"/>
<feBlend mode="normal" in="SourceGraphic" in2="effect1_dropShadow_446_10782" result="shape"/>
</filter>
<filter id="filter10_d_446_10782" x="326.662" y="102.146" width="8.53332" height="8.53375" filterUnits="userSpaceOnUse" color-interpolation-filters="sRGB">
<feFlood flood-opacity="0" result="BackgroundImageFix"/>
<feColorMatrix in="SourceAlpha" type="matrix" values="0 0 0 0 0 0 0 0 0 0 0 0 0 0 0 0 0 0 127 0" result="hardAlpha"/>
<feOffset dx="1.21887" dy="1.21887"/>
<feComposite in2="hardAlpha" operator="out"/>
<feColorMatrix type="matrix" values="0 0 0 0 0 0 0 0 0 0 0 0 0 0 0 0 0 0 1 0"/>
<feBlend mode="normal" in2="BackgroundImageFix" result="effect1_dropShadow_446_10782"/>
<feBlend mode="normal" in="SourceGraphic" in2="effect1_dropShadow_446_10782" result="shape"/>
</filter>
<filter id="filter11_d_446_10782" x="292.434" y="145.963" width="8.53332" height="8.53375" filterUnits="userSpaceOnUse" color-interpolation-filters="sRGB">
<feFlood flood-opacity="0" result="BackgroundImageFix"/>
<feColorMatrix in="SourceAlpha" type="matrix" values="0 0 0 0 0 0 0 0 0 0 0 0 0 0 0 0 0 0 127 0" result="hardAlpha"/>
<feOffset dx="1.21887" dy="1.21887"/>
<feComposite in2="hardAlpha" operator="out"/>
<feColorMatrix type="matrix" values="0 0 0 0 0 0 0 0 0 0 0 0 0 0 0 0 0 0 1 0"/>
<feBlend mode="normal" in2="BackgroundImageFix" result="effect1_dropShadow_446_10782"/>
<feBlend mode="normal" in="SourceGraphic" in2="effect1_dropShadow_446_10782" result="shape"/>
</filter>
<filter id="filter12_d_446_10782" x="286.949" y="259.839" width="8.53332" height="8.53375" filterUnits="userSpaceOnUse" color-interpolation-filters="sRGB">
<feFlood flood-opacity="0" result="BackgroundImageFix"/>
<feColorMatrix in="SourceAlpha" type="matrix" values="0 0 0 0 0 0 0 0 0 0 0 0 0 0 0 0 0 0 127 0" result="hardAlpha"/>
<feOffset dx="1.21887" dy="1.21887"/>
<feComposite in2="hardAlpha" operator="out"/>
<feColorMatrix type="matrix" values="0 0 0 0 0 0 0 0 0 0 0 0 0 0 0 0 0 0 1 0"/>
<feBlend mode="normal" in2="BackgroundImageFix" result="effect1_dropShadow_446_10782"/>
<feBlend mode="normal" in="SourceGraphic" in2="effect1_dropShadow_446_10782" result="shape"/>
</filter>
<filter id="filter13_d_446_10782" x="228.33" y="234.186" width="8.53332" height="8.53375" filterUnits="userSpaceOnUse" color-interpolation-filters="sRGB">
<feFlood flood-opacity="0" result="BackgroundImageFix"/>
<feColorMatrix in="SourceAlpha" type="matrix" values="0 0 0 0 0 0 0 0 0 0 0 0 0 0 0 0 0 0 127 0" result="hardAlpha"/>
<feOffset dx="1.21887" dy="1.21887"/>
<feComposite in2="hardAlpha" operator="out"/>
<feColorMatrix type="matrix" values="0 0 0 0 0 0 0 0 0 0 0 0 0 0 0 0 0 0 1 0"/>
<feBlend mode="normal" in2="BackgroundImageFix" result="effect1_dropShadow_446_10782"/>
<feBlend mode="normal" in="SourceGraphic" in2="effect1_dropShadow_446_10782" result="shape"/>
</filter>
<filter id="filter14_d_446_10782" x="227.877" y="165.651" width="31.2895" height="31.2904" filterUnits="userSpaceOnUse" color-interpolation-filters="sRGB">
<feFlood flood-opacity="0" result="BackgroundImageFix"/>
<feColorMatrix in="SourceAlpha" type="matrix" values="0 0 0 0 0 0 0 0 0 0 0 0 0 0 0 0 0 0 127 0" result="hardAlpha"/>
<feOffset dx="4.46918" dy="4.46918"/>
<feComposite in2="hardAlpha" operator="out"/>
<feColorMatrix type="matrix" values="0 0 0 0 0 0 0 0 0 0 0 0 0 0 0 0 0 0 1 0"/>
<feBlend mode="normal" in2="BackgroundImageFix" result="effect1_dropShadow_446_10782"/>
<feBlend mode="normal" in="SourceGraphic" in2="effect1_dropShadow_446_10782" result="shape"/>
</filter>
<filter id="filter15_d_446_10782" x="342.934" y="106.823" width="31.2895" height="31.2904" filterUnits="userSpaceOnUse" color-interpolation-filters="sRGB">
<feFlood flood-opacity="0" result="BackgroundImageFix"/>
<feColorMatrix in="SourceAlpha" type="matrix" values="0 0 0 0 0 0 0 0 0 0 0 0 0 0 0 0 0 0 127 0" result="hardAlpha"/>
<feOffset dx="4.46918" dy="4.46918"/>
<feComposite in2="hardAlpha" operator="out"/>
<feColorMatrix type="matrix" values="0 0 0 0 0 0 0 0 0 0 0 0 0 0 0 0 0 0 1 0"/>
<feBlend mode="normal" in2="BackgroundImageFix" result="effect1_dropShadow_446_10782"/>
<feBlend mode="normal" in="SourceGraphic" in2="effect1_dropShadow_446_10782" result="shape"/>
</filter>
<filter id="filter16_d_446_10782" x="320.697" y="205.815" width="31.2895" height="31.2904" filterUnits="userSpaceOnUse" color-interpolation-filters="sRGB">
<feFlood flood-opacity="0" result="BackgroundImageFix"/>
<feColorMatrix in="SourceAlpha" type="matrix" values="0 0 0 0 0 0 0 0 0 0 0 0 0 0 0 0 0 0 127 0" result="hardAlpha"/>
<feOffset dx="4.46918" dy="4.46918"/>
<feComposite in2="hardAlpha" operator="out"/>
<feColorMatrix type="matrix" values="0 0 0 0 0 0 0 0 0 0 0 0 0 0 0 0 0 0 1 0"/>
<feBlend mode="normal" in2="BackgroundImageFix" result="effect1_dropShadow_446_10782"/>
<feBlend mode="normal" in="SourceGraphic" in2="effect1_dropShadow_446_10782" result="shape"/>
</filter>
<filter id="filter17_d_446_10782" x="272.041" y="220.054" width="31.2895" height="31.2904" filterUnits="userSpaceOnUse" color-interpolation-filters="sRGB">
<feFlood flood-opacity="0" result="BackgroundImageFix"/>
<feColorMatrix in="SourceAlpha" type="matrix" values="0 0 0 0 0 0 0 0 0 0 0 0 0 0 0 0 0 0 127 0" result="hardAlpha"/>
<feOffset dx="4.46918" dy="4.46918"/>
<feComposite in2="hardAlpha" operator="out"/>
<feColorMatrix type="matrix" values="0 0 0 0 0 0 0 0 0 0 0 0 0 0 0 0 0 0 1 0"/>
<feBlend mode="normal" in2="BackgroundImageFix" result="effect1_dropShadow_446_10782"/>
<feBlend mode="normal" in="SourceGraphic" in2="effect1_dropShadow_446_10782" result="shape"/>
</filter>
<filter id="filter18_d_446_10782" x="156.512" y="161.132" width="31.2895" height="31.2904" filterUnits="userSpaceOnUse" color-interpolation-filters="sRGB">
<feFlood flood-opacity="0" result="BackgroundImageFix"/>
<feColorMatrix in="SourceAlpha" type="matrix" values="0 0 0 0 0 0 0 0 0 0 0 0 0 0 0 0 0 0 127 0" result="hardAlpha"/>
<feOffset dx="4.46918" dy="4.46918"/>
<feComposite in2="hardAlpha" operator="out"/>
<feColorMatrix type="matrix" values="0 0 0 0 0 0 0 0 0 0 0 0 0 0 0 0 0 0 1 0"/>
<feBlend mode="normal" in2="BackgroundImageFix" result="effect1_dropShadow_446_10782"/>
<feBlend mode="normal" in="SourceGraphic" in2="effect1_dropShadow_446_10782" result="shape"/>
</filter>
<filter id="filter19_d_446_10782" x="176.309" y="202.6" width="8.53332" height="8.53375" filterUnits="userSpaceOnUse" color-interpolation-filters="sRGB">
<feFlood flood-opacity="0" result="BackgroundImageFix"/>
<feColorMatrix in="SourceAlpha" type="matrix" values="0 0 0 0 0 0 0 0 0 0 0 0 0 0 0 0 0 0 127 0" result="hardAlpha"/>
<feOffset dx="1.21887" dy="1.21887"/>
<feComposite in2="hardAlpha" operator="out"/>
<feColorMatrix type="matrix" values="0 0 0 0 0 0 0 0 0 0 0 0 0 0 0 0 0 0 1 0"/>
<feBlend mode="normal" in2="BackgroundImageFix" result="effect1_dropShadow_446_10782"/>
<feBlend mode="normal" in="SourceGraphic" in2="effect1_dropShadow_446_10782" result="shape"/>
</filter>
<filter id="filter20_d_446_10782" x="351.992" y="366.993" width="62.7883" height="62.7886" filterUnits="userSpaceOnUse" color-interpolation-filters="sRGB">
<feFlood flood-opacity="0" result="BackgroundImageFix"/>
<feColorMatrix in="SourceAlpha" type="matrix" values="0 0 0 0 0 0 0 0 0 0 0 0 0 0 0 0 0 0 127 0" result="hardAlpha"/>
<feOffset dx="3.67114" dy="3.67114"/>
<feComposite in2="hardAlpha" operator="out"/>
<feColorMatrix type="matrix" values="0 0 0 0 0 0 0 0 0 0 0 0 0 0 0 0 0 0 1 0"/>
<feBlend mode="normal" in2="BackgroundImageFix" result="effect1_dropShadow_446_10782"/>
<feBlend mode="normal" in="SourceGraphic" in2="effect1_dropShadow_446_10782" result="shape"/>
</filter>
<filter id="filter21_d_446_10782" x="351.994" y="366.994" width="62.7883" height="62.7886" filterUnits="userSpaceOnUse" color-interpolation-filters="sRGB">
<feFlood flood-opacity="0" result="BackgroundImageFix"/>
<feColorMatrix in="SourceAlpha" type="matrix" values="0 0 0 0 0 0 0 0 0 0 0 0 0 0 0 0 0 0 127 0" result="hardAlpha"/>
<feOffset dx="3.67114" dy="3.67114"/>
<feComposite in2="hardAlpha" operator="out"/>
<feColorMatrix type="matrix" values="0 0 0 0 0 0 0 0 0 0 0 0 0 0 0 0 0 0 1 0"/>
<feBlend mode="normal" in2="BackgroundImageFix" result="effect1_dropShadow_446_10782"/>
<feBlend mode="normal" in="SourceGraphic" in2="effect1_dropShadow_446_10782" result="shape"/>
</filter>
<filter id="filter22_d_446_10782" x="360.967" y="376.869" width="33.7602" height="38.9624" filterUnits="userSpaceOnUse" color-interpolation-filters="sRGB">
<feFlood flood-opacity="0" result="BackgroundImageFix"/>
<feColorMatrix in="SourceAlpha" type="matrix" values="0 0 0 0 0 0 0 0 0 0 0 0 0 0 0 0 0 0 127 0" result="hardAlpha"/>
<feOffset dx="0.965271" dy="0.965271"/>
<feComposite in2="hardAlpha" operator="out"/>
<feColorMatrix type="matrix" values="0 0 0 0 0.156863 0 0 0 0 0.152941 0 0 0 0 0.235294 0 0 0 1 0"/>
<feBlend mode="normal" in2="BackgroundImageFix" result="effect1_dropShadow_446_10782"/>
<feBlend mode="normal" in="SourceGraphic" in2="effect1_dropShadow_446_10782" result="shape"/>
</filter>
<filter id="filter23_d_446_10782" x="373.395" y="387.807" width="15.3422" height="13.8156" filterUnits="userSpaceOnUse" color-interpolation-filters="sRGB">
<feFlood flood-opacity="0" result="BackgroundImageFix"/>
<feColorMatrix in="SourceAlpha" type="matrix" values="0 0 0 0 0 0 0 0 0 0 0 0 0 0 0 0 0 0 127 0" result="hardAlpha"/>
<feOffset dx="0.965271" dy="0.965271"/>
<feComposite in2="hardAlpha" operator="out"/>
<feColorMatrix type="matrix" values="0 0 0 0 0.156863 0 0 0 0 0.152941 0 0 0 0 0.235294 0 0 0 1 0"/>
<feBlend mode="normal" in2="BackgroundImageFix" result="effect1_dropShadow_446_10782"/>
<feBlend mode="normal" in="SourceGraphic" in2="effect1_dropShadow_446_10782" result="shape"/>
</filter>
<linearGradient id="paint0_linear_446_10782" x1="370" y1="346.5" x2="282.918" y2="63.7825" gradientUnits="userSpaceOnUse">
<stop stop-color="#BDA6FF" stop-opacity="0"/>
<stop offset="0.359672" stop-color="#BDA6FF" stop-opacity="0.470993"/>
<stop offset="1" stop-color="white" stop-opacity="0.84"/>
</linearGradient>
<linearGradient id="paint1_linear_446_10782" x1="353.833" y1="355.863" x2="194.51" y2="107.523" gradientUnits="userSpaceOnUse">
<stop stop-color="#BDA6FF" stop-opacity="0"/>
<stop offset="0.359672" stop-color="#BDA6FF" stop-opacity="0.470993"/>
<stop offset="1" stop-color="white" stop-opacity="0.84"/>
</linearGradient>
<clipPath id="clip0_446_10782">
<rect width="521" height="502" fill="white" transform="translate(171 143)"/>
</clipPath>
</defs>
</svg>
