<svg width="66" height="67" viewBox="0 0 66 67" fill="none" xmlns="http://www.w3.org/2000/svg">
<g clip-path="url(#clip0_450_11247)">
<rect y="0.511719" width="65.9375" height="65.9375" rx="32.9688" fill="#FCE519"/>
<rect opacity="0.1" y="0.511719" width="65.9375" height="65.9375" fill="#10380B"/>
<g clip-path="url(#clip1_450_11247)">
<g clip-path="url(#clip2_450_11247)">
<g clip-path="url(#clip3_450_11247)">
<path d="M65.9375 33.4805C65.9375 15.2723 51.1769 0.511719 32.9688 0.511719C14.7606 0.511719 0 15.2723 0 33.4805C0 51.6886 14.7606 66.4492 32.9688 66.4492C51.1769 66.4492 65.9375 51.6886 65.9375 33.4805Z" fill="#C7C4FF"/>
<path d="M39.7296 45.6815C38.1099 47.4585 36.8275 48.1249 34.4385 49.0617C29.6681 50.9323 24.5437 50.3833 20.4223 48.0035C17.363 46.2302 14.8574 43.4506 13.4667 39.9033C10.2037 31.5816 14.3068 22.1929 22.6251 18.9315C30.9469 15.6685 40.3379 19.7664 43.6009 28.0881C44.5604 30.5349 44.8825 33.0741 44.6478 35.5242" stroke="#10380B" stroke-width="2.47266" stroke-miterlimit="10"/>
<path d="M27.904 35.8634C31.155 35.3415 33.3674 32.2829 32.8454 29.0318C32.3235 25.7808 29.2649 23.5684 26.0139 24.0903C22.7628 24.6123 20.5505 27.6709 21.0723 30.9219C21.5943 34.173 24.6529 36.3853 27.904 35.8634Z" fill="#10380B"/>
<path d="M39.7296 45.6816C38.2467 47.1035 36.4692 48.266 34.4388 49.0601C29.6706 50.9342 24.5455 50.3847 20.4229 48.0008C20.4039 47.8156 20.3954 47.6285 20.3966 47.4347C20.3939 43.4961 24.5997 39.2584 29.7934 37.2192C32.1626 36.29 34.6941 35.8352 36.9954 35.8908L39.7296 45.6816Z" fill="#10380B"/>
<path d="M42.0895 54.1223L47.3366 44.6355L57.3974 40.3157L35.8945 31.9492L42.0895 54.1223Z" fill="#C5C2F2" stroke="#10380B" stroke-width="2.47266" stroke-miterlimit="10"/>
<path d="M38.6016 15.4667L41.8744 9.58698" stroke="#10380B" stroke-width="2.47266" stroke-miterlimit="10"/>
<path d="M43.7129 20.42L49.487 16.9643" stroke="#10380B" stroke-width="2.47266" stroke-miterlimit="10"/>
</g>
</g>
</g>
</g>
<defs>
<clipPath id="clip0_450_11247">
<rect y="0.511719" width="65.9375" height="65.9375" rx="32.9688" fill="white"/>
</clipPath>
<clipPath id="clip1_450_11247">
<rect width="65.9375" height="65.9375" fill="white" transform="translate(0 0.511719)"/>
</clipPath>
<clipPath id="clip2_450_11247">
<rect width="65.9375" height="65.9375" fill="white" transform="translate(0 0.511719)"/>
</clipPath>
<clipPath id="clip3_450_11247">
<rect width="65.9375" height="65.9375" fill="white" transform="translate(0 0.511719)"/>
</clipPath>
</defs>
</svg>
