<svg width="66" height="66" viewBox="0 0 66 66" fill="none" xmlns="http://www.w3.org/2000/svg">
<g clip-path="url(#clip0_450_11259)">
<g clip-path="url(#clip1_450_11259)">
<g clip-path="url(#clip2_450_11259)">
<path d="M65.9375 32.9688C65.9375 14.7606 51.1769 0 32.9688 0C14.7606 0 0 14.7606 0 32.9688C0 51.1769 14.7606 65.9375 32.9688 65.9375C51.1769 65.9375 65.9375 51.1769 65.9375 32.9688Z" fill="#C7C4FF"/>
<path d="M38.7838 53.2698C44.1987 48.0944 43.3116 38.3778 36.8023 31.5672C30.293 24.7566 20.6265 23.4309 15.2114 28.6063C9.79648 33.7817 10.6836 43.4983 17.1929 50.309C23.7022 57.1196 33.3687 58.4452 38.7838 53.2698Z" fill="#C5C2F2" stroke="#10380B" stroke-width="2.47266" stroke-miterlimit="10"/>
<path d="M33.661 49.9628C37.1708 46.6083 36.5957 40.3104 32.3765 35.8958C28.1573 31.4813 21.8917 30.622 18.3819 33.9765C14.8722 37.3309 15.4473 43.629 19.6665 48.0435C23.8856 52.458 30.1513 53.3173 33.661 49.9628Z" stroke="#10380B" stroke-width="2.47266" stroke-miterlimit="10"/>
<path d="M28.5379 46.6559C30.1427 45.1221 29.8799 42.2426 27.951 40.2244C26.0221 38.2062 23.1575 37.8135 21.5527 39.3473C19.948 40.881 20.2107 43.7604 22.1397 45.7787C24.0686 47.7968 26.9331 48.1896 28.5379 46.6559Z" stroke="#10380B" stroke-width="2.47266" stroke-miterlimit="10"/>
<path d="M28.5379 46.6559C30.1427 45.1221 29.8799 42.2426 27.951 40.2244C26.0221 38.2062 23.1575 37.8135 21.5527 39.3473C19.948 40.881 20.2107 43.7604 22.1397 45.7787C24.0686 47.7968 26.9331 48.1896 28.5379 46.6559Z" fill="#10380B"/>
<path d="M28.5379 46.6559C30.1427 45.1221 29.8799 42.2426 27.951 40.2244C26.0221 38.2062 23.1575 37.8135 21.5527 39.3473C19.948 40.881 20.2107 43.7604 22.1397 45.7787C24.0686 47.7968 26.9331 48.1896 28.5379 46.6559Z" fill="#10380B"/>
<path d="M43.3567 23.1558L26.3984 41.9366" stroke="#10380B" stroke-width="2.47266" stroke-miterlimit="10"/>
<path d="M38.4844 20.9486L39.4339 27.5752L46.0849 27.7563L53.7744 19.1705L47.1239 18.9899L46.1744 12.3633L38.4844 20.9486Z" stroke="#10380B" stroke-width="2.47266" stroke-miterlimit="10"/>
<path d="M47.6836 33.2167L53.679 35.149" stroke="#10380B" stroke-width="2.47266" stroke-miterlimit="10"/>
<path d="M46.2754 38.2111L50.5012 42.8824" stroke="#10380B" stroke-width="2.47266" stroke-miterlimit="10"/>
<path d="M33.661 22.1289L30.8418 16.496" stroke="#10380B" stroke-width="2.47266" stroke-miterlimit="10"/>
</g>
</g>
</g>
<defs>
<clipPath id="clip0_450_11259">
<rect width="65.9375" height="65.9375" fill="white"/>
</clipPath>
<clipPath id="clip1_450_11259">
<rect width="65.9375" height="65.9375" fill="white"/>
</clipPath>
<clipPath id="clip2_450_11259">
<rect width="65.9375" height="65.9375" fill="white"/>
</clipPath>
</defs>
</svg>
