<svg width="125" height="49" viewBox="0 0 125 49" fill="none" xmlns="http://www.w3.org/2000/svg">
<rect x="0.5" width="124" height="49" rx="22.5371" fill="white"/>
<path d="M1.60396 2.33449C1.60396 1.49309 2.28606 0.810993 3.12746 0.810993H48.6416V47.8486H3.12746C2.28606 47.8486 1.60396 47.1665 1.60396 46.3251V2.33449Z" fill="#BDA6FF" stroke="black" stroke-width="1.62199"/>
<path d="M20.5469 17.2433L23.2415 16.8369V15.7061C23.2415 15.3032 23.5681 14.9766 23.971 14.9766H26.269C26.6719 14.9766 26.9986 15.3032 26.9986 15.7061V16.8369L29.6932 17.2433C30.0273 17.2937 30.2831 17.567 30.3113 17.9038L30.7441 23.0681C30.7798 23.4936 30.4441 23.8586 30.0171 23.8586H20.2229C19.796 23.8586 19.4603 23.4936 19.4959 23.0681L19.9287 17.9038C19.9569 17.567 20.2127 17.2937 20.5469 17.2433Z" stroke="black" stroke-width="0.0364764"/>
<path d="M26.0726 16.8546H24.1758V16.3804C24.1758 16.1186 24.3881 15.9062 24.65 15.9062H25.5984C25.8603 15.9062 26.0726 16.1186 26.0726 16.3804V16.8546Z" stroke="black" stroke-width="0.0364764"/>
<g filter="url(#filter0_d_204_1757)">
<path d="M11.0781 16.487V11.5991C11.0781 11.3977 11.2414 11.2344 11.4429 11.2344H38.8002C39.0017 11.2344 39.165 11.3977 39.165 11.5991V16.487C39.165 16.6884 39.0017 16.8517 38.8002 16.8517H36.3563V23.8552C36.3563 28.0052 32.9921 31.3694 28.8422 31.3694H21.401V39.3212C17.251 39.3212 13.8868 35.957 13.8868 31.8071V16.8517H11.4429C11.2414 16.8517 11.0781 16.6884 11.0781 16.487Z" fill="white"/>
<path d="M11.0781 16.487V11.5991C11.0781 11.3977 11.2414 11.2344 11.4429 11.2344H38.8002C39.0017 11.2344 39.165 11.3977 39.165 11.5991V16.487C39.165 16.6884 39.0017 16.8517 38.8002 16.8517H36.3563V23.8552C36.3563 28.0052 32.9921 31.3694 28.8422 31.3694H21.401V39.3212C17.251 39.3212 13.8868 35.957 13.8868 31.8071V16.8517H11.4429C11.2414 16.8517 11.0781 16.6884 11.0781 16.487Z" stroke="black" stroke-width="0.911911"/>
</g>
<g filter="url(#filter1_d_204_1757)">
<path d="M20.5469 18.6457L23.2415 18.2392V17.1084C23.2415 16.7055 23.5681 16.3789 23.971 16.3789H26.269C26.6719 16.3789 26.9986 16.7055 26.9986 17.1084V18.2392L29.6932 18.6457C30.0273 18.6961 30.2831 18.9694 30.3113 19.3061L30.7441 24.4705C30.7798 24.8959 30.4441 25.2609 30.0171 25.2609H20.2229C19.796 25.2609 19.4603 24.8959 19.4959 24.4705L19.9287 19.3061C19.9569 18.9694 20.2127 18.6961 20.5469 18.6457Z" fill="#BDA6FF"/>
<path d="M20.5469 18.6457L23.2415 18.2392V17.1084C23.2415 16.7055 23.5681 16.3789 23.971 16.3789H26.269C26.6719 16.3789 26.9986 16.7055 26.9986 17.1084V18.2392L29.6932 18.6457C30.0273 18.6961 30.2831 18.9694 30.3113 19.3061L30.7441 24.4705C30.7798 24.8959 30.4441 25.2609 30.0171 25.2609H20.2229C19.796 25.2609 19.4603 24.8959 19.4959 24.4705L19.9287 19.3061C19.9569 18.9694 20.2127 18.6961 20.5469 18.6457Z" stroke="black" stroke-width="0.911911"/>
</g>
<path d="M26.0687 18.3664H24.1719V17.3998C24.1719 17.3192 24.2372 17.2539 24.3178 17.2539H25.9227C26.0033 17.2539 26.0687 17.3192 26.0687 17.3998V18.3664Z" fill="#28273C" stroke="black" stroke-width="0.0364764"/>
<path d="M29.8281 24.8041C29.9715 24.613 30.0621 24.3874 30.0909 24.1502L30.1929 23.3086L30.3037 24.6062C30.3128 24.7127 30.2288 24.8041 30.1219 24.8041H29.8281Z" fill="#BDA6FF"/>
<path d="M20.3688 19.9154C20.4777 19.5343 20.7366 19.2138 21.0863 19.0273L20.5926 19.1053C20.4757 19.1238 20.3869 19.22 20.3778 19.3379L20.3203 20.0852L20.3688 19.9154Z" fill="#BDA6FF"/>
<path d="M11.5352 11.6758H14.7086L12.4653 12.6971L11.5352 13.0801V11.6758Z" fill="#BDA6FF"/>
<path d="M28.5312 30.9162C32.0389 30.4275 34.8259 27.7232 35.42 24.2319L35.8995 21.4141L35.9989 23.3168C36.22 27.5498 32.7674 31.0633 28.5312 30.9162Z" fill="#BDA6FF"/>
<mask id="path-12-inside-1_204_1757" fill="white">
<path d="M41.7695 0H122.013C123.302 0 124.347 1.04515 124.347 2.33442V46.3242C124.347 47.6135 123.302 48.6586 122.013 48.6586H41.7695V0Z"/>
</mask>
<path d="M41.7695 0H122.013C123.302 0 124.347 1.04515 124.347 2.33442V46.3242C124.347 47.6135 123.302 48.6586 122.013 48.6586H41.7695V0Z" fill="#BDA6FF"/>
<path d="M41.7695 -1.62199H122.013C124.198 -1.62199 125.969 0.149356 125.969 2.33442H122.725C122.725 1.94095 122.406 1.62199 122.013 1.62199H41.7695V-1.62199ZM125.969 46.3242C125.969 48.5093 124.198 50.2806 122.013 50.2806H41.7695V47.0366H122.013C122.406 47.0366 122.725 46.7177 122.725 46.3242H125.969ZM41.7695 48.6586V0V48.6586ZM122.013 -1.62199C124.198 -1.62199 125.969 0.149356 125.969 2.33442V46.3242C125.969 48.5093 124.198 50.2806 122.013 50.2806V47.0366C122.406 47.0366 122.725 46.7177 122.725 46.3242V2.33442C122.725 1.94095 122.406 1.62199 122.013 1.62199V-1.62199Z" fill="black" mask="url(#path-12-inside-1_204_1757)"/>
<g filter="url(#filter2_d_204_1757)">
<mask id="path-14-outside-2_204_1757" maskUnits="userSpaceOnUse" x="35.0508" y="17.6445" width="78" height="24" fill="black">
<rect fill="white" x="35.0508" y="17.6445" width="78" height="24"/>
<path d="M42.5271 33.8936C39.1395 33.8936 36.7482 31.2533 36.7482 27.492C36.7482 23.7307 39.1395 21.0904 42.5271 21.0904C44.1213 21.0904 45.4166 21.6384 46.4628 22.7593L46.7119 21.3394H50.6475V33.6445H46.7119L46.4628 32.1998C45.4166 33.3207 44.0964 33.8936 42.5271 33.8936ZM41.2319 27.492C41.2319 29.0862 42.2282 30.1573 43.6979 30.1573C45.1675 30.1573 46.1639 29.0862 46.1639 27.492C46.1639 25.8978 45.1675 24.8267 43.6979 24.8267C42.2282 24.8267 41.2319 25.8978 41.2319 27.492ZM59.4815 40.5443C55.0975 40.5443 52.4073 38.1033 52.8556 34.5163H57.1649C57.1151 36.0607 57.8873 36.8578 59.4815 36.8578C60.8266 36.8578 61.7482 36.1354 61.7482 35.0893C61.7482 34.0182 60.976 33.4453 59.5313 33.4453C55.3715 33.4453 52.6813 30.9793 52.6813 27.1682C52.6813 23.5314 55.496 20.9658 59.5313 20.9658C60.3533 20.9658 61.2002 21.1153 62.0471 21.464L63.3922 19.7204L66.7051 22.0867L65.1109 23.9798C65.8582 24.8018 66.2567 25.8729 66.2567 27.1682C66.2567 28.8371 65.4098 30.3565 64.0149 31.3778C65.5593 32.1998 66.4311 33.5698 66.4311 35.3134C66.4311 38.5018 63.716 40.5443 59.4815 40.5443ZM57.14 27.1682C57.14 28.6627 58.0866 29.6591 59.5064 29.6591C60.9262 29.6591 61.8727 28.6627 61.8727 27.1682C61.8727 25.6736 60.9262 24.6773 59.5064 24.6773C58.0866 24.6773 57.14 25.6736 57.14 27.1682ZM73.7851 33.8936C70.3975 33.8936 68.0062 31.2533 68.0062 27.492C68.0062 23.7307 70.3975 21.0904 73.7851 21.0904C75.3793 21.0904 76.6746 21.6384 77.7207 22.7593L77.9698 21.3394H81.9055V33.6445H77.9698L77.7207 32.1998C76.6746 33.3207 75.3544 33.8936 73.7851 33.8936ZM72.4898 27.492C72.4898 29.0862 73.4862 30.1573 74.9558 30.1573C76.4255 30.1573 77.4218 29.0862 77.4218 27.492C77.4218 25.8978 76.4255 24.8267 74.9558 24.8267C73.4862 24.8267 72.4898 25.8978 72.4898 27.492ZM89.7182 33.8936C86.3305 33.8936 83.9392 31.2533 83.9392 27.492C83.9392 23.7307 86.3305 21.0904 89.7182 21.0904C91.3123 21.0904 92.6076 21.6384 93.6538 22.7593L93.9029 21.3394H97.8385V33.6445H93.9029L93.6538 32.1998C92.6076 33.3207 91.2874 33.8936 89.7182 33.8936ZM88.4229 27.492C88.4229 29.0862 89.4192 30.1573 90.8889 30.1573C92.3585 30.1573 93.3549 29.0862 93.3549 27.492C93.3549 25.8978 92.3585 24.8267 90.8889 24.8267C89.4192 24.8267 88.4229 25.8978 88.4229 27.492ZM100.52 33.6445V21.3394H104.505L104.804 22.8091C105.601 21.5387 106.772 21.0655 107.943 21.0655C108.964 21.0655 110.21 21.4391 111.106 22.3607L109.263 25.5491C108.566 25.1007 108.067 24.9513 107.42 24.9513C106.025 24.9513 105.053 25.7484 105.053 27.6664V33.6445H100.52Z"/>
</mask>
<path d="M42.5271 33.8936C39.1395 33.8936 36.7482 31.2533 36.7482 27.492C36.7482 23.7307 39.1395 21.0904 42.5271 21.0904C44.1213 21.0904 45.4166 21.6384 46.4628 22.7593L46.7119 21.3394H50.6475V33.6445H46.7119L46.4628 32.1998C45.4166 33.3207 44.0964 33.8936 42.5271 33.8936ZM41.2319 27.492C41.2319 29.0862 42.2282 30.1573 43.6979 30.1573C45.1675 30.1573 46.1639 29.0862 46.1639 27.492C46.1639 25.8978 45.1675 24.8267 43.6979 24.8267C42.2282 24.8267 41.2319 25.8978 41.2319 27.492ZM59.4815 40.5443C55.0975 40.5443 52.4073 38.1033 52.8556 34.5163H57.1649C57.1151 36.0607 57.8873 36.8578 59.4815 36.8578C60.8266 36.8578 61.7482 36.1354 61.7482 35.0893C61.7482 34.0182 60.976 33.4453 59.5313 33.4453C55.3715 33.4453 52.6813 30.9793 52.6813 27.1682C52.6813 23.5314 55.496 20.9658 59.5313 20.9658C60.3533 20.9658 61.2002 21.1153 62.0471 21.464L63.3922 19.7204L66.7051 22.0867L65.1109 23.9798C65.8582 24.8018 66.2567 25.8729 66.2567 27.1682C66.2567 28.8371 65.4098 30.3565 64.0149 31.3778C65.5593 32.1998 66.4311 33.5698 66.4311 35.3134C66.4311 38.5018 63.716 40.5443 59.4815 40.5443ZM57.14 27.1682C57.14 28.6627 58.0866 29.6591 59.5064 29.6591C60.9262 29.6591 61.8727 28.6627 61.8727 27.1682C61.8727 25.6736 60.9262 24.6773 59.5064 24.6773C58.0866 24.6773 57.14 25.6736 57.14 27.1682ZM73.7851 33.8936C70.3975 33.8936 68.0062 31.2533 68.0062 27.492C68.0062 23.7307 70.3975 21.0904 73.7851 21.0904C75.3793 21.0904 76.6746 21.6384 77.7207 22.7593L77.9698 21.3394H81.9055V33.6445H77.9698L77.7207 32.1998C76.6746 33.3207 75.3544 33.8936 73.7851 33.8936ZM72.4898 27.492C72.4898 29.0862 73.4862 30.1573 74.9558 30.1573C76.4255 30.1573 77.4218 29.0862 77.4218 27.492C77.4218 25.8978 76.4255 24.8267 74.9558 24.8267C73.4862 24.8267 72.4898 25.8978 72.4898 27.492ZM89.7182 33.8936C86.3305 33.8936 83.9392 31.2533 83.9392 27.492C83.9392 23.7307 86.3305 21.0904 89.7182 21.0904C91.3123 21.0904 92.6076 21.6384 93.6538 22.7593L93.9029 21.3394H97.8385V33.6445H93.9029L93.6538 32.1998C92.6076 33.3207 91.2874 33.8936 89.7182 33.8936ZM88.4229 27.492C88.4229 29.0862 89.4192 30.1573 90.8889 30.1573C92.3585 30.1573 93.3549 29.0862 93.3549 27.492C93.3549 25.8978 92.3585 24.8267 90.8889 24.8267C89.4192 24.8267 88.4229 25.8978 88.4229 27.492ZM100.52 33.6445V21.3394H104.505L104.804 22.8091C105.601 21.5387 106.772 21.0655 107.943 21.0655C108.964 21.0655 110.21 21.4391 111.106 22.3607L109.263 25.5491C108.566 25.1007 108.067 24.9513 107.42 24.9513C106.025 24.9513 105.053 25.7484 105.053 27.6664V33.6445H100.52Z" fill="white"/>
<path d="M46.4628 22.7593L45.8699 23.3126L46.9803 24.5024L47.2616 22.8994L46.4628 22.7593ZM46.7119 21.3394V20.5285H46.0308L45.9131 21.1993L46.7119 21.3394ZM50.6475 21.3394H51.4585V20.5285H50.6475V21.3394ZM50.6475 33.6445V34.4555H51.4585V33.6445H50.6475ZM46.7119 33.6445L45.9127 33.7823L46.0287 34.4555H46.7119V33.6445ZM46.4628 32.1998L47.262 32.062L46.9844 30.4523L45.8699 31.6465L46.4628 32.1998ZM42.5271 33.0826C41.0557 33.0826 39.832 32.5146 38.9691 31.5596C38.101 30.5988 37.5592 29.2011 37.5592 27.492H35.9372C35.9372 29.5441 36.5911 31.3472 37.7656 32.647C38.9452 33.9525 40.6109 34.7046 42.5271 34.7046V33.0826ZM37.5592 27.492C37.5592 25.7829 38.101 24.3851 38.9691 23.4244C39.832 22.4694 41.0557 21.9014 42.5271 21.9014V20.2794C40.6109 20.2794 38.9452 21.0315 37.7656 22.337C36.5911 23.6368 35.9372 25.4399 35.9372 27.492H37.5592ZM42.5271 21.9014C43.9073 21.9014 44.9843 22.3638 45.8699 23.3126L47.0557 22.2059C45.8489 20.9129 44.3353 20.2794 42.5271 20.2794V21.9014ZM47.2616 22.8994L47.5107 21.4796L45.9131 21.1993L45.664 22.6191L47.2616 22.8994ZM46.7119 22.1504H50.6475V20.5285H46.7119V22.1504ZM49.8365 21.3394V33.6445H51.4585V21.3394H49.8365ZM50.6475 32.8335H46.7119V34.4555H50.6475V32.8335ZM47.5111 33.5067L47.262 32.062L45.6636 32.3376L45.9127 33.7823L47.5111 33.5067ZM45.8699 31.6465C44.9793 32.6007 43.8749 33.0826 42.5271 33.0826V34.7046C44.3179 34.7046 45.8539 34.0408 47.0557 32.7532L45.8699 31.6465ZM40.4209 27.492C40.4209 28.458 40.7248 29.3326 41.3189 29.9737C41.9178 30.62 42.7566 30.9683 43.6979 30.9683V29.3463C43.1695 29.3463 42.7753 29.159 42.5086 28.8712C42.2371 28.5782 42.0429 28.1201 42.0429 27.492H40.4209ZM43.6979 30.9683C44.6391 30.9683 45.4779 30.62 46.0768 29.9737C46.6709 29.3326 46.9749 28.458 46.9749 27.492H45.3529C45.3529 28.1201 45.1586 28.5782 44.8871 28.8712C44.6205 29.159 44.2262 29.3463 43.6979 29.3463V30.9683ZM46.9749 27.492C46.9749 26.526 46.6709 25.6514 46.0768 25.0103C45.4779 24.364 44.6391 24.0157 43.6979 24.0157V25.6377C44.2262 25.6377 44.6205 25.825 44.8871 26.1128C45.1586 26.4057 45.3529 26.8638 45.3529 27.492H46.9749ZM43.6979 24.0157C42.7566 24.0157 41.9178 24.364 41.3189 25.0103C40.7248 25.6514 40.4209 26.526 40.4209 27.492H42.0429C42.0429 26.8638 42.2371 26.4057 42.5086 26.1128C42.7753 25.825 43.1695 25.6377 43.6979 25.6377V24.0157ZM52.8556 34.5163V33.7054H52.1397L52.0509 34.4158L52.8556 34.5163ZM57.1649 34.5163L57.9755 34.5425L58.0025 33.7054H57.1649V34.5163ZM62.0471 21.464L61.7383 22.2139L62.311 22.4497L62.6892 21.9594L62.0471 21.464ZM63.3922 19.7204L63.8636 19.0604L63.2275 18.6061L62.7501 19.225L63.3922 19.7204ZM66.7051 22.0867L67.3254 22.6091L67.8912 21.9373L67.1765 21.4268L66.7051 22.0867ZM65.1109 23.9798L64.4906 23.4574L64.0335 24.0002L64.5108 24.5253L65.1109 23.9798ZM64.0149 31.3778L63.5358 30.7234L62.4934 31.4867L63.6339 32.0937L64.0149 31.3778ZM59.4815 39.7334C57.43 39.7334 55.8774 39.1621 54.902 38.2754C53.9472 37.4074 53.4664 36.1687 53.6604 34.6169L52.0509 34.4158C51.7965 36.4509 52.4366 38.2262 53.8109 39.4755C55.1645 40.7061 57.1489 41.3553 59.4815 41.3553V39.7334ZM52.8556 35.3273H57.1649V33.7054H52.8556V35.3273ZM56.3543 34.4902C56.3253 35.3917 56.5321 36.2289 57.1287 36.8351C57.7227 37.4387 58.5616 37.6688 59.4815 37.6688V36.0468C58.8072 36.0468 58.4628 35.8783 58.2847 35.6974C58.109 35.5189 57.9548 35.1854 57.9755 34.5425L56.3543 34.4902ZM59.4815 37.6688C60.2923 37.6688 61.0471 37.4514 61.6185 37.0049C62.2044 36.5472 62.5592 35.8737 62.5592 35.0893H60.9372C60.9372 35.351 60.8312 35.5617 60.6199 35.7268C60.3943 35.903 60.0157 36.0468 59.4815 36.0468V37.6688ZM62.5592 35.0893C62.5592 34.3359 62.274 33.6661 61.6646 33.2142C61.0949 32.7917 60.3412 32.6343 59.5313 32.6343V34.2563C60.1661 34.2563 60.5208 34.3853 60.6984 34.517C60.8363 34.6193 60.9372 34.7715 60.9372 35.0893H62.5592ZM59.5313 32.6343C57.6097 32.6343 56.1074 32.0664 55.0943 31.138C54.0884 30.2161 53.4923 28.8735 53.4923 27.1682H51.8703C51.8703 29.2739 52.6193 31.0698 53.9984 32.3338C55.3704 33.5911 57.293 34.2563 59.5313 34.2563V32.6343ZM53.4923 27.1682C53.4923 25.5704 54.1053 24.2407 55.138 23.3039C56.1762 22.362 57.6853 21.7768 59.5313 21.7768V20.1548C57.342 20.1548 55.4261 20.8525 54.0481 22.1026C52.6646 23.3577 51.8703 25.1292 51.8703 27.1682H53.4923ZM59.5313 21.7768C60.253 21.7768 60.9944 21.9076 61.7383 22.2139L62.3559 20.7141C61.4059 20.3229 60.4536 20.1548 59.5313 20.1548V21.7768ZM62.6892 21.9594L64.0343 20.2157L62.7501 19.225L61.405 20.9686L62.6892 21.9594ZM62.9208 20.3803L66.2337 22.7467L67.1765 21.4268L63.8636 19.0604L62.9208 20.3803ZM66.0848 21.5643L64.4906 23.4574L65.7312 24.5022L67.3254 22.6091L66.0848 21.5643ZM64.5108 24.5253C65.1064 25.1805 65.4457 26.0496 65.4457 27.1682H67.0677C67.0677 25.6963 66.61 24.4231 65.711 23.4343L64.5108 24.5253ZM65.4457 27.1682C65.4457 28.5489 64.7472 29.8365 63.5358 30.7234L64.494 32.0322C66.0724 30.8765 67.0677 29.1253 67.0677 27.1682H65.4457ZM63.6339 32.0937C64.9293 32.7832 65.6201 33.887 65.6201 35.3134H67.2421C67.2421 33.2527 66.1892 31.6164 64.396 30.6619L63.6339 32.0937ZM65.6201 35.3134C65.6201 36.6507 65.0628 37.7193 64.0566 38.4765C63.028 39.2506 61.4788 39.7334 59.4815 39.7334V41.3553C61.7187 41.3553 63.6442 40.8168 65.0319 39.7725C66.4418 38.7114 67.2421 37.1646 67.2421 35.3134H65.6201ZM56.329 27.1682C56.329 28.0876 56.6227 28.922 57.2028 29.5327C57.7865 30.1471 58.5993 30.4701 59.5064 30.4701V28.8481C58.9937 28.8481 58.6233 28.6729 58.3787 28.4155C58.1306 28.1544 57.951 27.7432 57.951 27.1682H56.329ZM59.5064 30.4701C60.4135 30.4701 61.2263 30.1471 61.81 29.5327C62.3901 28.922 62.6837 28.0876 62.6837 27.1682H61.0617C61.0617 27.7432 60.8821 28.1544 60.634 28.4155C60.3895 28.6729 60.0191 28.8481 59.5064 28.8481V30.4701ZM62.6837 27.1682C62.6837 26.2487 62.3901 25.4144 61.81 24.8037C61.2263 24.1893 60.4135 23.8663 59.5064 23.8663V25.4883C60.0191 25.4883 60.3895 25.6634 60.634 25.9208C60.8821 26.182 61.0617 26.5931 61.0617 27.1682H62.6837ZM59.5064 23.8663C58.5993 23.8663 57.7865 24.1893 57.2028 24.8037C56.6227 25.4144 56.329 26.2487 56.329 27.1682H57.951C57.951 26.5931 58.1306 26.182 58.3787 25.9208C58.6233 25.6634 58.9937 25.4883 59.5064 25.4883V23.8663ZM77.7207 22.7593L77.1279 23.3126L78.2383 24.5024L78.5195 22.8994L77.7207 22.7593ZM77.9698 21.3394V20.5285H77.2887L77.171 21.1993L77.9698 21.3394ZM81.9055 21.3394H82.7165V20.5285H81.9055V21.3394ZM81.9055 33.6445V34.4555H82.7165V33.6445H81.9055ZM77.9698 33.6445L77.1706 33.7823L77.2867 34.4555H77.9698V33.6445ZM77.7207 32.1998L78.5199 32.062L78.2424 30.4523L77.1279 31.6465L77.7207 32.1998ZM73.7851 33.0826C72.3137 33.0826 71.0899 32.5146 70.227 31.5596C69.3589 30.5988 68.8172 29.2011 68.8172 27.492H67.1952C67.1952 29.5441 67.8491 31.3472 69.0236 32.647C70.2032 33.9525 71.8689 34.7046 73.7851 34.7046V33.0826ZM68.8172 27.492C68.8172 25.7829 69.3589 24.3851 70.227 23.4244C71.0899 22.4694 72.3137 21.9014 73.7851 21.9014V20.2794C71.8689 20.2794 70.2032 21.0315 69.0236 22.337C67.8491 23.6368 67.1952 25.4399 67.1952 27.492H68.8172ZM73.7851 21.9014C75.1653 21.9014 76.2423 22.3638 77.1279 23.3126L78.3136 22.2059C77.1068 20.9129 75.5933 20.2794 73.7851 20.2794V21.9014ZM78.5195 22.8994L78.7686 21.4796L77.171 21.1993L76.9219 22.6191L78.5195 22.8994ZM77.9698 22.1504H81.9055V20.5285H77.9698V22.1504ZM81.0945 21.3394V33.6445H82.7165V21.3394H81.0945ZM81.9055 32.8335H77.9698V34.4555H81.9055V32.8335ZM78.769 33.5067L78.5199 32.062L76.9215 32.3376L77.1706 33.7823L78.769 33.5067ZM77.1279 31.6465C76.2373 32.6007 75.1328 33.0826 73.7851 33.0826V34.7046C75.5759 34.7046 77.1118 34.0408 78.3136 32.7532L77.1279 31.6465ZM71.6788 27.492C71.6788 28.458 71.9828 29.3326 72.5769 29.9737C73.1758 30.62 74.0146 30.9683 74.9558 30.9683V29.3463C74.4275 29.3463 74.0332 29.159 73.7666 28.8712C73.4951 28.5782 73.3008 28.1201 73.3008 27.492H71.6788ZM74.9558 30.9683C75.8971 30.9683 76.7359 30.62 77.3348 29.9737C77.9289 29.3326 78.2328 28.458 78.2328 27.492H76.6108C76.6108 28.1201 76.4166 28.5782 76.1451 28.8712C75.8784 29.159 75.4842 29.3463 74.9558 29.3463V30.9683ZM78.2328 27.492C78.2328 26.526 77.9289 25.6514 77.3348 25.0103C76.7359 24.364 75.8971 24.0157 74.9558 24.0157V25.6377C75.4842 25.6377 75.8784 25.825 76.1451 26.1128C76.4166 26.4057 76.6108 26.8638 76.6108 27.492H78.2328ZM74.9558 24.0157C74.0146 24.0157 73.1758 24.364 72.5769 25.0103C71.9828 25.6514 71.6788 26.526 71.6788 27.492H73.3008C73.3008 26.8638 73.4951 26.4057 73.7666 26.1128C74.0332 25.825 74.4275 25.6377 74.9558 25.6377V24.0157ZM93.6538 22.7593L93.0609 23.3126L94.1714 24.5024L94.4526 22.8994L93.6538 22.7593ZM93.9029 21.3394V20.5285H93.2218L93.1041 21.1993L93.9029 21.3394ZM97.8385 21.3394H98.6495V20.5285H97.8385V21.3394ZM97.8385 33.6445V34.4555H98.6495V33.6445H97.8385ZM93.9029 33.6445L93.1037 33.7823L93.2197 34.4555H93.9029V33.6445ZM93.6538 32.1998L94.453 32.062L94.1754 30.4523L93.0609 31.6465L93.6538 32.1998ZM89.7182 33.0826C88.2467 33.0826 87.023 32.5146 86.1601 31.5596C85.292 30.5988 84.7502 29.2011 84.7502 27.492H83.1283C83.1283 29.5441 83.7822 31.3472 84.9566 32.647C86.1362 33.9525 87.8019 34.7046 89.7182 34.7046V33.0826ZM84.7502 27.492C84.7502 25.7829 85.292 24.3851 86.1601 23.4244C87.023 22.4694 88.2467 21.9014 89.7182 21.9014V20.2794C87.8019 20.2794 86.1362 21.0315 84.9566 22.337C83.7822 23.6368 83.1283 25.4399 83.1283 27.492H84.7502ZM89.7182 21.9014C91.0983 21.9014 92.1753 22.3638 93.0609 23.3126L94.2467 22.2059C93.0399 20.9129 91.5263 20.2794 89.7182 20.2794V21.9014ZM94.4526 22.8994L94.7017 21.4796L93.1041 21.1993L92.855 22.6191L94.4526 22.8994ZM93.9029 22.1504H97.8385V20.5285H93.9029V22.1504ZM97.0275 21.3394V33.6445H98.6495V21.3394H97.0275ZM97.8385 32.8335H93.9029V34.4555H97.8385V32.8335ZM94.7021 33.5067L94.453 32.062L92.8546 32.3376L93.1037 33.7823L94.7021 33.5067ZM93.0609 31.6465C92.1703 32.6007 91.0659 33.0826 89.7182 33.0826V34.7046C91.509 34.7046 93.0449 34.0408 94.2467 32.7532L93.0609 31.6465ZM87.6119 27.492C87.6119 28.458 87.9158 29.3326 88.5099 29.9737C89.1089 30.62 89.9476 30.9683 90.8889 30.9683V29.3463C90.3605 29.3463 89.9663 29.159 89.6996 28.8712C89.4281 28.5782 89.2339 28.1201 89.2339 27.492H87.6119ZM90.8889 30.9683C91.8302 30.9683 92.6689 30.62 93.2678 29.9737C93.8619 29.3326 94.1659 28.458 94.1659 27.492H92.5439C92.5439 28.1201 92.3496 28.5782 92.0781 28.8712C91.8115 29.159 91.4172 29.3463 90.8889 29.3463V30.9683ZM94.1659 27.492C94.1659 26.526 93.8619 25.6514 93.2678 25.0103C92.6689 24.364 91.8302 24.0157 90.8889 24.0157V25.6377C91.4172 25.6377 91.8115 25.825 92.0781 26.1128C92.3496 26.4057 92.5439 26.8638 92.5439 27.492H94.1659ZM90.8889 24.0157C89.9476 24.0157 89.1089 24.364 88.5099 25.0103C87.9158 25.6514 87.6119 26.526 87.6119 27.492H89.2339C89.2339 26.8638 89.4281 26.4057 89.6996 26.1128C89.9663 25.825 90.3605 25.6377 90.8889 25.6377V24.0157ZM100.52 33.6445H99.7089V34.4555H100.52V33.6445ZM100.52 21.3394V20.5285H99.7089V21.3394H100.52ZM104.505 21.3394L105.3 21.1778L105.168 20.5285H104.505V21.3394ZM104.804 22.8091L104.01 22.9707L104.414 24.9575L105.491 23.2401L104.804 22.8091ZM111.106 22.3607L111.808 22.7666L112.116 22.2352L111.688 21.7952L111.106 22.3607ZM109.263 25.5491L108.824 26.2313L109.54 26.691L109.965 25.955L109.263 25.5491ZM105.053 33.6445V34.4555H105.864V33.6445H105.053ZM101.331 33.6445V21.3394H99.7089V33.6445H101.331ZM100.52 22.1504H104.505V20.5285H100.52V22.1504ZM103.711 21.5011L104.01 22.9707L105.599 22.6474L105.3 21.1778L103.711 21.5011ZM105.491 23.2401C106.121 22.2368 107.013 21.8764 107.943 21.8764V20.2545C106.531 20.2545 105.082 20.8406 104.117 22.378L105.491 23.2401ZM107.943 21.8764C108.791 21.8764 109.81 22.1918 110.525 22.9263L111.688 21.7952C110.609 20.6863 109.137 20.2545 107.943 20.2545V21.8764ZM110.404 21.9548L108.561 25.1432L109.965 25.955L111.808 22.7666L110.404 21.9548ZM109.702 24.8669C108.896 24.3492 108.248 24.1403 107.42 24.1403V25.7623C107.887 25.7623 108.235 25.8523 108.824 26.2313L109.702 24.8669ZM107.42 24.1403C106.57 24.1403 105.738 24.3862 105.126 25.0309C104.518 25.6698 104.242 26.5789 104.242 27.6664H105.864C105.864 26.8358 106.074 26.3874 106.301 26.1482C106.523 25.9149 106.875 25.7623 107.42 25.7623V24.1403ZM104.242 27.6664V33.6445H105.864V27.6664H104.242ZM105.053 32.8335H100.52V34.4555H105.053V32.8335Z" fill="black" mask="url(#path-14-outside-2_204_1757)"/>
</g>
<defs>
<filter id="filter0_d_204_1757" x="10.623" y="10.7784" width="29.8735" height="29.8742" filterUnits="userSpaceOnUse" color-interpolation-filters="sRGB">
<feFlood flood-opacity="0" result="BackgroundImageFix"/>
<feColorMatrix in="SourceAlpha" type="matrix" values="0 0 0 0 0 0 0 0 0 0 0 0 0 0 0 0 0 0 127 0" result="hardAlpha"/>
<feOffset dx="0.875435" dy="0.875435"/>
<feComposite in2="hardAlpha" operator="out"/>
<feColorMatrix type="matrix" values="0 0 0 0 0.156863 0 0 0 0 0.152941 0 0 0 0 0.235294 0 0 0 1 0"/>
<feBlend mode="normal" in2="BackgroundImageFix" result="effect1_dropShadow_204_1757"/>
<feBlend mode="normal" in="SourceGraphic" in2="effect1_dropShadow_204_1757" result="shape"/>
</filter>
<filter id="filter1_d_204_1757" x="19.0371" y="15.923" width="13.0415" height="10.6693" filterUnits="userSpaceOnUse" color-interpolation-filters="sRGB">
<feFlood flood-opacity="0" result="BackgroundImageFix"/>
<feColorMatrix in="SourceAlpha" type="matrix" values="0 0 0 0 0 0 0 0 0 0 0 0 0 0 0 0 0 0 127 0" result="hardAlpha"/>
<feOffset dx="0.875435" dy="0.875435"/>
<feComposite in2="hardAlpha" operator="out"/>
<feColorMatrix type="matrix" values="0 0 0 0 0.156863 0 0 0 0 0.152941 0 0 0 0 0.235294 0 0 0 1 0"/>
<feBlend mode="normal" in2="BackgroundImageFix" result="effect1_dropShadow_204_1757"/>
<feBlend mode="normal" in="SourceGraphic" in2="effect1_dropShadow_204_1757" result="shape"/>
</filter>
<filter id="filter2_d_204_1757" x="36.748" y="19.7203" width="75.9794" height="22.446" filterUnits="userSpaceOnUse" color-interpolation-filters="sRGB">
<feFlood flood-opacity="0" result="BackgroundImageFix"/>
<feColorMatrix in="SourceAlpha" type="matrix" values="0 0 0 0 0 0 0 0 0 0 0 0 0 0 0 0 0 0 127 0" result="hardAlpha"/>
<feOffset dx="1.62199" dy="1.62199"/>
<feComposite in2="hardAlpha" operator="out"/>
<feColorMatrix type="matrix" values="0 0 0 0 0.156863 0 0 0 0 0.152941 0 0 0 0 0.235294 0 0 0 1 0"/>
<feBlend mode="normal" in2="BackgroundImageFix" result="effect1_dropShadow_204_1757"/>
<feBlend mode="normal" in="SourceGraphic" in2="effect1_dropShadow_204_1757" result="shape"/>
</filter>
</defs>
</svg>
