<svg width="749" height="618" viewBox="0 0 749 618" fill="none" xmlns="http://www.w3.org/2000/svg">
<g clip-path="url(#clip0_429_4612)">
<path d="M280.784 398.935V321.078H155.605V469.193V470.193L154.605 470.193L54.854 470.202V617.317H357.768V413.073C357.768 409.589 356.384 406.248 353.92 403.784C351.457 401.32 348.115 399.935 344.631 399.935C344.631 399.935 344.631 399.935 344.631 399.935H281.784H280.784V398.935Z" fill="#C7C4FF" stroke="#926CFF" stroke-width="2"/>
<path d="M324.635 449.335H330.258V454.957H324.635V449.335Z" fill="white"/>
<path d="M316.332 449.335H321.955V454.957H316.332V449.335Z" fill="white"/>
<path d="M324.635 457.332H330.258V462.955H324.635V457.332Z" fill="white"/>
<path d="M316.332 457.332H321.955V462.955H316.332V457.332Z" fill="white"/>
<path d="M294.303 449.335H299.926V454.957H294.303V449.335Z" fill="#FFC200"/>
<path d="M285.996 449.335H291.619V454.957H285.996V449.335Z" fill="#FFC200"/>
<path d="M294.303 457.332H299.926V462.955H294.303V457.332Z" fill="#FFC200"/>
<path d="M285.996 457.332H291.619V462.955H285.996V457.332Z" fill="#FFC200"/>
<path d="M294.303 477.352H299.926V482.975H294.303V477.352Z" fill="white"/>
<path d="M285.996 477.352H291.619V482.975H285.996V477.352Z" fill="white"/>
<path d="M294.303 485.35H299.926V490.972H294.303V485.35Z" fill="white"/>
<path d="M285.996 485.35H291.619V490.972H285.996V485.35Z" fill="white"/>
<path d="M324.635 418.536H330.258V424.159H324.635V418.536Z" fill="white"/>
<path d="M316.332 418.536H321.955V424.159H316.332V418.536Z" fill="white"/>
<path d="M324.635 426.534H330.258V432.157H324.635V426.534Z" fill="white"/>
<path d="M316.332 426.534H321.955V432.157H316.332V426.534Z" fill="white"/>
<path d="M117.533 320.078H154.604V469.202H117.533V320.078Z" fill="#BDA6FF"/>
<path d="M154.604 462.022H53.8529" stroke="#C7C4FF" stroke-width="1.27449" stroke-miterlimit="10"/>
<path d="M106.599 499.97C105.805 499.97 105.161 499.326 105.161 498.532C105.161 497.738 105.805 497.094 106.599 497.094C107.393 497.094 108.037 497.738 108.037 498.532C108.037 499.326 107.393 499.97 106.599 499.97Z" fill="white"/>
<path d="M116.105 499.97C115.311 499.97 114.667 499.326 114.667 498.532C114.667 497.738 115.311 497.094 116.105 497.094C116.899 497.094 117.543 497.738 117.543 498.532C117.543 499.326 116.899 499.97 116.105 499.97Z" fill="white"/>
<path d="M97.0893 499.97C96.2951 499.97 95.6512 499.326 95.6512 498.532C95.6512 497.738 96.2951 497.094 97.0893 497.094C97.8835 497.094 98.5273 497.738 98.5273 498.532C98.5273 499.326 97.8835 499.97 97.0893 499.97Z" fill="white"/>
<path d="M87.5815 499.97C86.7873 499.97 86.1434 499.326 86.1434 498.532C86.1434 497.738 86.7873 497.094 87.5815 497.094C88.3757 497.094 89.0195 497.738 89.0195 498.532C89.0195 499.326 88.3757 499.97 87.5815 499.97Z" fill="white"/>
<path d="M78.0737 499.97C77.2794 499.97 76.6356 499.326 76.6356 498.532C76.6356 497.738 77.2794 497.094 78.0737 497.094C78.8679 497.094 79.5117 497.738 79.5117 498.532C79.5117 499.326 78.8679 499.97 78.0737 499.97Z" fill="white"/>
<path d="M68.5678 499.97C67.7736 499.97 67.1297 499.326 67.1297 498.532C67.1297 497.738 67.7736 497.094 68.5678 497.094C69.362 497.094 70.0059 497.738 70.0059 498.532C70.0059 499.326 69.362 499.97 68.5678 499.97Z" fill="white"/>
<path d="M106.599 491.539C105.805 491.539 105.161 490.896 105.161 490.101C105.161 489.307 105.805 488.663 106.599 488.663C107.393 488.663 108.037 489.307 108.037 490.101C108.037 490.896 107.393 491.539 106.599 491.539Z" fill="white"/>
<path d="M116.105 491.539C115.311 491.539 114.667 490.896 114.667 490.101C114.667 489.307 115.311 488.663 116.105 488.663C116.899 488.663 117.543 489.307 117.543 490.101C117.543 490.896 116.899 491.539 116.105 491.539Z" fill="white"/>
<path d="M97.0893 491.539C96.2951 491.539 95.6512 490.896 95.6512 490.101C95.6512 489.307 96.2951 488.663 97.0893 488.663C97.8835 488.663 98.5273 489.307 98.5273 490.101C98.5273 490.896 97.8835 491.539 97.0893 491.539Z" fill="white"/>
<path d="M87.5815 491.539C86.7873 491.539 86.1434 490.896 86.1434 490.101C86.1434 489.307 86.7873 488.663 87.5815 488.663C88.3757 488.663 89.0195 489.307 89.0195 490.101C89.0195 490.896 88.3757 491.539 87.5815 491.539Z" fill="white"/>
<path d="M78.0737 491.539C77.2794 491.539 76.6356 490.896 76.6356 490.101C76.6356 489.307 77.2794 488.663 78.0737 488.663C78.8679 488.663 79.5117 489.307 79.5117 490.101C79.5117 490.896 78.8679 491.539 78.0737 491.539Z" fill="white"/>
<path d="M68.5678 491.539C67.7736 491.539 67.1297 490.896 67.1297 490.101C67.1297 489.307 67.7736 488.663 68.5678 488.663C69.362 488.663 70.0059 489.307 70.0059 490.101C70.0059 490.896 69.362 491.539 68.5678 491.539Z" fill="white"/>
<path d="M106.599 508.401C105.805 508.401 105.161 507.757 105.161 506.963C105.161 506.169 105.805 505.525 106.599 505.525C107.393 505.525 108.037 506.169 108.037 506.963C108.037 507.757 107.393 508.401 106.599 508.401Z" fill="white"/>
<path d="M116.105 508.401C115.311 508.401 114.667 507.757 114.667 506.963C114.667 506.169 115.311 505.525 116.105 505.525C116.899 505.525 117.543 506.169 117.543 506.963C117.543 507.757 116.899 508.401 116.105 508.401Z" fill="white"/>
<path d="M97.0893 508.401C96.2951 508.401 95.6512 507.757 95.6512 506.963C95.6512 506.169 96.2951 505.525 97.0893 505.525C97.8835 505.525 98.5273 506.169 98.5273 506.963C98.5273 507.757 97.8835 508.401 97.0893 508.401Z" fill="white"/>
<path d="M87.5815 508.401C86.7873 508.401 86.1434 507.757 86.1434 506.963C86.1434 506.169 86.7873 505.525 87.5815 505.525C88.3757 505.525 89.0195 506.169 89.0195 506.963C89.0195 507.757 88.3757 508.401 87.5815 508.401Z" fill="white"/>
<path d="M78.0737 508.401C77.2794 508.401 76.6356 507.757 76.6356 506.963C76.6356 506.169 77.2794 505.525 78.0737 505.525C78.8679 505.525 79.5117 506.169 79.5117 506.963C79.5117 507.757 78.8679 508.401 78.0737 508.401Z" fill="white"/>
<path d="M68.5678 508.401C67.7736 508.401 67.1297 507.757 67.1297 506.963C67.1297 506.169 67.7736 505.525 68.5678 505.525C69.362 505.525 70.0059 506.169 70.0059 506.963C70.0059 507.757 69.362 508.401 68.5678 508.401Z" fill="white"/>
<path d="M116.105 516.834C115.311 516.834 114.667 516.19 114.667 515.396C114.667 514.602 115.311 513.958 116.105 513.958C116.899 513.958 117.543 514.602 117.543 515.396C117.543 516.19 116.899 516.834 116.105 516.834Z" fill="white"/>
<path d="M106.599 516.834C105.805 516.834 105.161 516.19 105.161 515.396C105.161 514.602 105.805 513.958 106.599 513.958C107.393 513.958 108.037 514.602 108.037 515.396C108.037 516.19 107.393 516.834 106.599 516.834Z" fill="white"/>
<path d="M97.0893 516.834C96.2951 516.834 95.6512 516.19 95.6512 515.396C95.6512 514.602 96.2951 513.958 97.0893 513.958C97.8835 513.958 98.5273 514.602 98.5273 515.396C98.5273 516.19 97.8835 516.834 97.0893 516.834Z" fill="white"/>
<path d="M87.5815 516.834C86.7873 516.834 86.1434 516.19 86.1434 515.396C86.1434 514.602 86.7873 513.958 87.5815 513.958C88.3757 513.958 89.0195 514.602 89.0195 515.396C89.0195 516.19 88.3757 516.834 87.5815 516.834Z" fill="white"/>
<path d="M78.0737 516.834C77.2794 516.834 76.6356 516.19 76.6356 515.396C76.6356 514.602 77.2794 513.958 78.0737 513.958C78.8679 513.958 79.5117 514.602 79.5117 515.396C79.5117 516.19 78.8679 516.834 78.0737 516.834Z" fill="white"/>
<path d="M68.5678 516.834C67.7736 516.834 67.1297 516.19 67.1297 515.396C67.1297 514.602 67.7736 513.958 68.5678 513.958C69.362 513.958 70.0059 514.602 70.0059 515.396C70.0059 516.19 69.362 516.834 68.5678 516.834Z" fill="white"/>
<path d="M106.599 525.403C105.805 525.403 105.161 524.759 105.161 523.965C105.161 523.17 105.805 522.526 106.599 522.526C107.393 522.526 108.037 523.17 108.037 523.965C108.037 524.759 107.393 525.403 106.599 525.403Z" fill="white"/>
<path d="M116.105 525.403C115.311 525.403 114.667 524.759 114.667 523.965C114.667 523.17 115.311 522.526 116.105 522.526C116.899 522.526 117.543 523.17 117.543 523.965C117.543 524.759 116.899 525.403 116.105 525.403Z" fill="white"/>
<path d="M97.0893 525.403C96.2951 525.403 95.6512 524.759 95.6512 523.965C95.6512 523.17 96.2951 522.526 97.0893 522.526C97.8835 522.526 98.5273 523.17 98.5273 523.965C98.5273 524.759 97.8835 525.403 97.0893 525.403Z" fill="white"/>
<path d="M87.5815 525.403C86.7873 525.403 86.1434 524.759 86.1434 523.965C86.1434 523.17 86.7873 522.526 87.5815 522.526C88.3757 522.526 89.0195 523.17 89.0195 523.965C89.0195 524.759 88.3757 525.403 87.5815 525.403Z" fill="white"/>
<path d="M78.0737 525.403C77.2794 525.403 76.6356 524.759 76.6356 523.965C76.6356 523.17 77.2794 522.526 78.0737 522.526C78.8679 522.526 79.5117 523.17 79.5117 523.965C79.5117 524.759 78.8679 525.403 78.0737 525.403Z" fill="white"/>
<path d="M68.5678 525.403C67.7736 525.403 67.1297 524.759 67.1297 523.965C67.1297 523.17 67.7736 522.526 68.5678 522.526C69.362 522.526 70.0059 523.17 70.0059 523.965C70.0059 524.759 69.362 525.403 68.5678 525.403Z" fill="white"/>
<path d="M106.599 533.836C105.805 533.836 105.161 533.192 105.161 532.397C105.161 531.603 105.805 530.959 106.599 530.959C107.393 530.959 108.037 531.603 108.037 532.397C108.037 533.192 107.393 533.836 106.599 533.836Z" fill="white"/>
<path d="M116.105 533.836C115.311 533.836 114.667 533.192 114.667 532.397C114.667 531.603 115.311 530.959 116.105 530.959C116.899 530.959 117.543 531.603 117.543 532.397C117.543 533.192 116.899 533.836 116.105 533.836Z" fill="white"/>
<path d="M97.0893 533.836C96.2951 533.836 95.6512 533.192 95.6512 532.397C95.6512 531.603 96.2951 530.959 97.0893 530.959C97.8835 530.959 98.5273 531.603 98.5273 532.397C98.5273 533.192 97.8835 533.836 97.0893 533.836Z" fill="white"/>
<path d="M87.5815 533.836C86.7873 533.836 86.1434 533.192 86.1434 532.397C86.1434 531.603 86.7873 530.959 87.5815 530.959C88.3757 530.959 89.0195 531.603 89.0195 532.397C89.0195 533.192 88.3757 533.836 87.5815 533.836Z" fill="white"/>
<path d="M78.0737 533.836C77.2794 533.836 76.6356 533.192 76.6356 532.397C76.6356 531.603 77.2794 530.959 78.0737 530.959C78.8679 530.959 79.5117 531.603 79.5117 532.397C79.5117 533.192 78.8679 533.836 78.0737 533.836Z" fill="white"/>
<path d="M68.5678 533.836C67.7736 533.836 67.1297 533.192 67.1297 532.397C67.1297 531.603 67.7736 530.959 68.5678 530.959C69.362 530.959 70.0059 531.603 70.0059 532.397C70.0059 533.192 69.362 533.836 68.5678 533.836Z" fill="white"/>
<path d="M116.105 542.266C115.311 542.266 114.667 541.623 114.667 540.828C114.667 540.034 115.311 539.39 116.105 539.39C116.899 539.39 117.543 540.034 117.543 540.828C117.543 541.623 116.899 542.266 116.105 542.266Z" fill="white"/>
<path d="M106.599 542.266C105.805 542.266 105.161 541.623 105.161 540.828C105.161 540.034 105.805 539.39 106.599 539.39C107.393 539.39 108.037 540.034 108.037 540.828C108.037 541.623 107.393 542.266 106.599 542.266Z" fill="white"/>
<path d="M97.0893 542.266C96.2951 542.266 95.6512 541.623 95.6512 540.828C95.6512 540.034 96.2951 539.39 97.0893 539.39C97.8835 539.39 98.5273 540.034 98.5273 540.828C98.5273 541.623 97.8835 542.266 97.0893 542.266Z" fill="white"/>
<path d="M87.5815 542.266C86.7873 542.266 86.1434 541.623 86.1434 540.828C86.1434 540.034 86.7873 539.39 87.5815 539.39C88.3757 539.39 89.0195 540.034 89.0195 540.828C89.0195 541.623 88.3757 542.266 87.5815 542.266Z" fill="white"/>
<path d="M78.0737 542.266C77.2794 542.266 76.6356 541.623 76.6356 540.828C76.6356 540.034 77.2794 539.39 78.0737 539.39C78.8679 539.39 79.5117 540.034 79.5117 540.828C79.5117 541.623 78.8679 542.266 78.0737 542.266Z" fill="white"/>
<path d="M68.5678 542.266C67.7736 542.266 67.1297 541.623 67.1297 540.828C67.1297 540.034 67.7736 539.39 68.5678 539.39C69.362 539.39 70.0059 540.034 70.0059 540.828C70.0059 541.623 69.362 542.266 68.5678 542.266Z" fill="white"/>
<path d="M144.56 499.97C143.766 499.97 143.122 499.326 143.122 498.532C143.122 497.738 143.766 497.094 144.56 497.094C145.354 497.094 145.998 497.738 145.998 498.532C145.998 499.326 145.354 499.97 144.56 499.97Z" fill="white"/>
<path d="M135.054 499.97C134.26 499.97 133.616 499.326 133.616 498.532C133.616 497.738 134.26 497.094 135.054 497.094C135.848 497.094 136.492 497.738 136.492 498.532C136.492 499.326 135.848 499.97 135.054 499.97Z" fill="white"/>
<path d="M125.542 499.97C124.748 499.97 124.104 499.326 124.104 498.532C124.104 497.738 124.748 497.094 125.542 497.094C126.337 497.094 126.98 497.738 126.98 498.532C126.98 499.326 126.337 499.97 125.542 499.97Z" fill="white"/>
<path d="M144.56 491.539C143.766 491.539 143.122 490.896 143.122 490.101C143.122 489.307 143.766 488.663 144.56 488.663C145.354 488.663 145.998 489.307 145.998 490.101C145.998 490.896 145.354 491.539 144.56 491.539Z" fill="white"/>
<path d="M135.054 491.539C134.26 491.539 133.616 490.896 133.616 490.101C133.616 489.307 134.26 488.663 135.054 488.663C135.848 488.663 136.492 489.307 136.492 490.101C136.492 490.896 135.848 491.539 135.054 491.539Z" fill="white"/>
<path d="M125.542 491.539C124.748 491.539 124.104 490.896 124.104 490.101C124.104 489.307 124.748 488.663 125.542 488.663C126.337 488.663 126.98 489.307 126.98 490.101C126.98 490.896 126.337 491.539 125.542 491.539Z" fill="white"/>
<path d="M144.56 508.401C143.766 508.401 143.122 507.757 143.122 506.963C143.122 506.169 143.766 505.525 144.56 505.525C145.354 505.525 145.998 506.169 145.998 506.963C145.998 507.757 145.354 508.401 144.56 508.401Z" fill="white"/>
<path d="M135.054 508.401C134.26 508.401 133.616 507.757 133.616 506.963C133.616 506.169 134.26 505.525 135.054 505.525C135.848 505.525 136.492 506.169 136.492 506.963C136.492 507.757 135.848 508.401 135.054 508.401Z" fill="white"/>
<path d="M125.542 508.401C124.748 508.401 124.104 507.757 124.104 506.963C124.104 506.169 124.748 505.525 125.542 505.525C126.337 505.525 126.98 506.169 126.98 506.963C126.98 507.757 126.337 508.401 125.542 508.401Z" fill="white"/>
<path d="M144.56 516.834C143.766 516.834 143.122 516.19 143.122 515.396C143.122 514.602 143.766 513.958 144.56 513.958C145.354 513.958 145.998 514.602 145.998 515.396C145.998 516.19 145.354 516.834 144.56 516.834Z" fill="white"/>
<path d="M135.054 516.834C134.26 516.834 133.616 516.19 133.616 515.396C133.616 514.602 134.26 513.958 135.054 513.958C135.848 513.958 136.492 514.602 136.492 515.396C136.492 516.19 135.848 516.834 135.054 516.834Z" fill="white"/>
<path d="M125.542 516.834C124.748 516.834 124.104 516.19 124.104 515.396C124.104 514.602 124.748 513.958 125.542 513.958C126.337 513.958 126.98 514.602 126.98 515.396C126.98 516.19 126.337 516.834 125.542 516.834Z" fill="white"/>
<path d="M144.56 525.403C143.766 525.403 143.122 524.759 143.122 523.965C143.122 523.17 143.766 522.526 144.56 522.526C145.354 522.526 145.998 523.17 145.998 523.965C145.998 524.759 145.354 525.403 144.56 525.403Z" fill="white"/>
<path d="M135.054 525.403C134.26 525.403 133.616 524.759 133.616 523.965C133.616 523.17 134.26 522.526 135.054 522.526C135.848 522.526 136.492 523.17 136.492 523.965C136.492 524.759 135.848 525.403 135.054 525.403Z" fill="white"/>
<path d="M125.542 525.403C124.748 525.403 124.104 524.759 124.104 523.965C124.104 523.17 124.748 522.526 125.542 522.526C126.337 522.526 126.98 523.17 126.98 523.965C126.98 524.759 126.337 525.403 125.542 525.403Z" fill="white"/>
<path d="M144.56 533.836C143.766 533.836 143.122 533.192 143.122 532.397C143.122 531.603 143.766 530.959 144.56 530.959C145.354 530.959 145.998 531.603 145.998 532.397C145.998 533.192 145.354 533.836 144.56 533.836Z" fill="white"/>
<path d="M135.054 533.836C134.26 533.836 133.616 533.192 133.616 532.397C133.616 531.603 134.26 530.959 135.054 530.959C135.848 530.959 136.492 531.603 136.492 532.397C136.492 533.192 135.848 533.836 135.054 533.836Z" fill="white"/>
<path d="M125.542 533.836C124.748 533.836 124.104 533.192 124.104 532.397C124.104 531.603 124.748 530.959 125.542 530.959C126.337 530.959 126.98 531.603 126.98 532.397C126.98 533.192 126.337 533.836 125.542 533.836Z" fill="white"/>
<path d="M144.56 542.266C143.766 542.266 143.122 541.623 143.122 540.828C143.122 540.034 143.766 539.39 144.56 539.39C145.354 539.39 145.998 540.034 145.998 540.828C145.998 541.623 145.354 542.266 144.56 542.266Z" fill="white"/>
<path d="M135.054 542.266C134.26 542.266 133.616 541.623 133.616 540.828C133.616 540.034 134.26 539.39 135.054 539.39C135.848 539.39 136.492 540.034 136.492 540.828C136.492 541.623 135.848 542.266 135.054 542.266Z" fill="white"/>
<path d="M125.542 542.266C124.748 542.266 124.104 541.623 124.104 540.828C124.104 540.034 124.748 539.39 125.542 539.39C126.337 539.39 126.98 540.034 126.98 540.828C126.98 541.623 126.337 542.266 125.542 542.266Z" fill="white"/>
<path d="M729.542 466.88L815.236 513.193" stroke="#C7C4FF" stroke-width="1.27449" stroke-miterlimit="10"/>
<path d="M557.875 396.454V355.321H485.378V617.39H752.791V504.069L667.621 458.046L667.096 457.763V457.167V408.447C667.096 407.003 666.812 405.574 666.26 404.24C665.707 402.906 664.897 401.695 663.877 400.674C662.856 399.653 661.644 398.843 660.31 398.291C658.976 397.738 657.547 397.454 656.103 397.454H558.875H557.875V396.454Z" fill="#C7C4FF" stroke="#926CFF" stroke-width="2"/>
<path d="M597.331 397.104C596.537 397.104 595.893 396.46 595.893 395.666C595.893 394.872 596.537 394.228 597.331 394.228C598.126 394.228 598.77 394.872 598.77 395.666C598.77 396.46 598.126 397.104 597.331 397.104Z" fill="white"/>
<path d="M606.839 397.104C606.045 397.104 605.401 396.46 605.401 395.666C605.401 394.872 606.045 394.228 606.839 394.228C607.634 394.228 608.277 394.872 608.277 395.666C608.277 396.46 607.634 397.104 606.839 397.104Z" fill="white"/>
<path d="M587.824 397.104C587.029 397.104 586.386 396.46 586.386 395.666C586.386 394.872 587.029 394.228 587.824 394.228C588.618 394.228 589.262 394.872 589.262 395.666C589.262 396.46 588.618 397.104 587.824 397.104Z" fill="white"/>
<path d="M578.318 397.104C577.524 397.104 576.88 396.46 576.88 395.666C576.88 394.872 577.524 394.228 578.318 394.228C579.112 394.228 579.756 394.872 579.756 395.666C579.756 396.46 579.112 397.104 578.318 397.104Z" fill="white"/>
<path d="M568.81 397.104C568.016 397.104 567.372 396.46 567.372 395.666C567.372 394.872 568.016 394.228 568.81 394.228C569.604 394.228 570.248 394.872 570.248 395.666C570.248 396.46 569.604 397.104 568.81 397.104Z" fill="white"/>
<path d="M559.3 397.104C558.506 397.104 557.862 396.46 557.862 395.666C557.862 394.872 558.506 394.228 559.3 394.228C560.094 394.228 560.738 394.872 560.738 395.666C560.738 396.46 560.094 397.104 559.3 397.104Z" fill="white"/>
<path d="M597.331 388.673C596.537 388.673 595.893 388.029 595.893 387.235C595.893 386.441 596.537 385.797 597.331 385.797C598.126 385.797 598.77 386.441 598.77 387.235C598.77 388.029 598.126 388.673 597.331 388.673Z" fill="white"/>
<path d="M606.839 388.673C606.045 388.673 605.401 388.029 605.401 387.235C605.401 386.441 606.045 385.797 606.839 385.797C607.634 385.797 608.277 386.441 608.277 387.235C608.277 388.029 607.634 388.673 606.839 388.673Z" fill="white"/>
<path d="M587.824 388.673C587.029 388.673 586.386 388.029 586.386 387.235C586.386 386.441 587.029 385.797 587.824 385.797C588.618 385.797 589.262 386.441 589.262 387.235C589.262 388.029 588.618 388.673 587.824 388.673Z" fill="white"/>
<path d="M578.318 388.673C577.524 388.673 576.88 388.029 576.88 387.235C576.88 386.441 577.524 385.797 578.318 385.797C579.112 385.797 579.756 386.441 579.756 387.235C579.756 388.029 579.112 388.673 578.318 388.673Z" fill="white"/>
<path d="M568.81 388.673C568.016 388.673 567.372 388.029 567.372 387.235C567.372 386.441 568.016 385.797 568.81 385.797C569.604 385.797 570.248 386.441 570.248 387.235C570.248 388.029 569.604 388.673 568.81 388.673Z" fill="white"/>
<path d="M559.3 388.673C558.506 388.673 557.862 388.029 557.862 387.235C557.862 386.441 558.506 385.797 559.3 385.797C560.094 385.797 560.738 386.441 560.738 387.235C560.738 388.029 560.094 388.673 559.3 388.673Z" fill="white"/>
<path d="M597.331 405.537C596.537 405.537 595.893 404.893 595.893 404.099C595.893 403.305 596.537 402.661 597.331 402.661C598.126 402.661 598.77 403.305 598.77 404.099C598.77 404.893 598.126 405.537 597.331 405.537Z" fill="white"/>
<path d="M606.839 405.537C606.045 405.537 605.401 404.893 605.401 404.099C605.401 403.305 606.045 402.661 606.839 402.661C607.634 402.661 608.277 403.305 608.277 404.099C608.277 404.893 607.634 405.537 606.839 405.537Z" fill="white"/>
<path d="M587.824 405.537C587.029 405.537 586.386 404.893 586.386 404.099C586.386 403.305 587.029 402.661 587.824 402.661C588.618 402.661 589.262 403.305 589.262 404.099C589.262 404.893 588.618 405.537 587.824 405.537Z" fill="white"/>
<path d="M578.318 405.537C577.524 405.537 576.88 404.893 576.88 404.099C576.88 403.305 577.524 402.661 578.318 402.661C579.112 402.661 579.756 403.305 579.756 404.099C579.756 404.893 579.112 405.537 578.318 405.537Z" fill="white"/>
<path d="M568.81 405.537C568.016 405.537 567.372 404.893 567.372 404.099C567.372 403.305 568.016 402.661 568.81 402.661C569.604 402.661 570.248 403.305 570.248 404.099C570.248 404.893 569.604 405.537 568.81 405.537Z" fill="white"/>
<path d="M559.3 405.537C558.506 405.537 557.862 404.893 557.862 404.099C557.862 403.305 558.506 402.661 559.3 402.661C560.094 402.661 560.738 403.305 560.738 404.099C560.738 404.893 560.094 405.537 559.3 405.537Z" fill="white"/>
<path d="M606.839 413.968C606.045 413.968 605.401 413.324 605.401 412.529C605.401 411.735 606.045 411.091 606.839 411.091C607.634 411.091 608.277 411.735 608.277 412.529C608.277 413.324 607.634 413.968 606.839 413.968Z" fill="white"/>
<path d="M597.331 413.968C596.537 413.968 595.893 413.324 595.893 412.529C595.893 411.735 596.537 411.091 597.331 411.091C598.126 411.091 598.77 411.735 598.77 412.529C598.77 413.324 598.126 413.968 597.331 413.968Z" fill="white"/>
<path d="M587.824 413.968C587.029 413.968 586.386 413.324 586.386 412.529C586.386 411.735 587.029 411.091 587.824 411.091C588.618 411.091 589.262 411.735 589.262 412.529C589.262 413.324 588.618 413.968 587.824 413.968Z" fill="white"/>
<path d="M578.318 413.968C577.524 413.968 576.88 413.324 576.88 412.529C576.88 411.735 577.524 411.091 578.318 411.091C579.112 411.091 579.756 411.735 579.756 412.529C579.756 413.324 579.112 413.968 578.318 413.968Z" fill="white"/>
<path d="M568.81 413.968C568.016 413.968 567.372 413.324 567.372 412.529C567.372 411.735 568.016 411.091 568.81 411.091C569.604 411.091 570.248 411.735 570.248 412.529C570.248 413.324 569.604 413.968 568.81 413.968Z" fill="white"/>
<path d="M559.3 413.968C558.506 413.968 557.862 413.324 557.862 412.529C557.862 411.735 558.506 411.091 559.3 411.091C560.094 411.091 560.738 411.735 560.738 412.529C560.738 413.324 560.094 413.968 559.3 413.968Z" fill="white"/>
<path d="M621.062 366.641H545.823" stroke="#C7C4FF" stroke-width="1.27449" stroke-miterlimit="10"/>
<path d="M733.28 519.61H738.902V525.233H733.28V519.61Z" fill="#FFC200"/>
<path d="M724.975 519.61H730.598V525.233H724.975V519.61Z" fill="#FFC200"/>
<path d="M733.28 527.608H738.902V533.23H733.28V527.608Z" fill="#FFC200"/>
<path d="M724.975 527.608H730.598V533.23H724.975V527.608Z" fill="#FFC200"/>
<path d="M-0.000282519 607.21C-0.00228828 610.489 0.439329 613.753 1.31248 616.914H76.1697C77.0429 613.753 77.4844 610.489 77.4824 607.21C77.4824 586.525 60.1366 569.76 38.7379 569.76C17.3392 569.76 -0.000282519 586.53 -0.000282519 607.21Z" fill="#FFC200"/>
<path d="M77.4434 587.459L61.748 601.663" stroke="white" stroke-width="1.06208" stroke-miterlimit="10" stroke-linecap="round"/>
<path d="M0.0169256 590.452L15.7845 585.02L38.2091 591.051V601.321H39.2712V578.667L56.1094 558.124C55.7823 557.966 55.4516 557.81 55.1174 557.659L39.2712 576.989V554.16H38.2091V567.005L25.4642 556.414C25.0776 556.556 24.6946 556.697 24.3151 556.839L38.2071 568.384V589.94L1.83946 580.158C1.72688 580.494 1.62705 580.833 1.52084 581.173L14.0363 584.54L0.0678513 589.311C0.0466098 589.693 0.0275464 590.071 0.0169256 590.452Z" fill="white"/>
<path d="M19.3501 617.028L258.914 616.191C258.914 616.191 241.169 567.355 151.417 564.167C117.271 562.954 134.507 591.662 125.796 587.547C107.056 578.698 93.672 573.989 85.1563 578.577C71.3259 586.026 87.1912 601.15 78.7392 600.545C70.2872 599.94 57.6719 592.048 48.1515 598.117C38.631 604.186 52.8033 610.254 48.1515 610.862C43.4996 611.469 19.7558 599.757 19.3501 617.028Z" fill="#BDA6FF"/>
<path d="M711.676 617.556H880.916C880.916 609.849 871.67 601.009 856.276 603.417C856.58 602.17 856.733 600.891 856.733 599.607C856.733 589.693 847.713 581.657 836.589 581.657C835.137 581.658 833.687 581.8 832.262 582.082C831.59 579.627 830.658 577.25 829.482 574.992C820.174 557.06 797.683 549.861 779.246 558.914C763.873 566.459 756.171 582.917 759.431 598.568C754.682 596.047 749.402 594.689 744.026 594.604C738.649 594.518 733.329 595.709 728.502 598.077C720.065 602.226 714.223 609.395 711.676 617.556Z" fill="#BDA6FF"/>
<g clip-path="url(#clip1_429_4612)">
<path d="M476.346 365.251C476.346 365.251 483.039 347.409 470.029 336.257C457.02 325.105 441.778 312.096 435.088 305.964C428.399 299.832 415.947 285.52 412.602 266.745C409.257 247.971 416.874 241.282 420.591 239.982C424.309 238.682 429.514 237.194 433.416 238.867C433.788 238.682 438.063 237.937 441.231 244.077C444.399 250.217 451.651 261.918 454.425 263.591C459.027 266.497 463.323 269.86 467.25 273.628C472.384 277.39 477.72 280.868 483.234 284.048C488.444 286.653 499.031 288.695 507.395 299.102C513.529 306.408 519.179 314.107 524.31 322.149C530.822 332.569 533.427 335.346 542.896 346.867C549.896 356.239 555.76 366.408 560.365 377.161C566.655 391.354 571.151 406.276 573.747 421.581C575.05 429.944 580.624 445.547 581.562 452.06C582.5 458.572 589.377 481.054 588.812 489.416C588.247 497.778 588.254 502.983 590.854 509.675C593.454 516.367 615.388 565.245 620.405 574.909C625.423 584.574 646.052 618.96 646.052 618.96C646.052 618.96 623.748 623.792 608.881 620.632C594.014 617.472 580.815 623.419 560.001 621.19C539.187 618.96 510.375 621.747 498.666 621.562C486.956 621.377 479.152 620.82 479.152 620.82C479.152 620.82 467.07 585.691 463.355 575.469C461.812 574.565 460.546 573.256 459.694 571.684C458.842 570.111 458.436 568.336 458.52 566.55C458.52 566.55 433.801 556.13 426.927 554.468C420.052 552.806 404.623 541.643 400.533 539.598C396.443 537.553 376.187 528.631 370.797 520.454L476.346 365.251Z" fill="#D6AD9E"/>
<path d="M504.539 443.573C507.144 459.369 502.26 464.332 471.573 478.719C448.206 489.676 412.614 503.751 373.552 517.693C362.431 521.663 354.637 524.726 345.793 519.886C338.898 516.117 335.657 508 333.599 503.449C332.189 501.027 331.444 498.277 331.439 495.475C332.253 492.722 333.411 490.084 334.888 487.623C350.881 521.556 346.22 525.338 447.901 480.798C459.598 475.674 474.451 470.404 485.153 464.559C495.463 458.921 500.72 454.722 500.741 446.566C500.754 441.913 495.599 429.404 489.487 412.815C475.855 375.824 454.841 327.509 454.63 324.959C461.171 329.239 459.423 327.736 461.687 332.837C467.196 345.257 489.378 401.184 493.405 411.81C497.706 423.175 502.958 434.023 504.539 443.573Z" fill="white"/>
<path d="M484.074 404.416C504.439 462.724 515.089 449.06 429.676 485.796C398.452 499.228 378.519 507.311 366.291 510.096C351.406 513.482 347.811 508.952 339.689 491.806C336.644 485.379 336.367 484.653 336.836 483.483C345.016 463.075 336.151 448.261 326.252 444.825C320.388 442.79 319.927 448.032 322.173 442.183C324.556 435.97 330.298 424.248 327.904 412.299C326.915 408.123 324.601 404.38 321.308 401.628C318.015 398.877 313.92 397.265 309.635 397.033C308.239 396.699 306.895 396.181 305.636 395.491C307.632 378.699 309.351 359.326 287.571 359.326C269.114 312.775 249.694 269.013 231.365 219.438C226.918 207.415 226.179 203.448 227.773 198.754C232.381 185.184 256.339 177.33 273.566 168.606C282.342 164.157 342.231 140.597 358.645 136.502C360.319 135.878 362.105 135.608 363.889 135.71C365.673 135.812 367.416 136.283 369.008 137.094C376.378 141.783 381.181 153.833 383.518 158.9C386.644 165.699 390.942 175.486 394.719 184.145C407.148 212.646 408.542 219.961 417.594 240.496C413.548 244.528 411.144 249.919 410.85 255.624C390.132 238.655 356.27 228.594 320.787 251.312C315.457 254.637 310.76 258.882 306.915 263.85C251.369 327.574 320.117 414.187 390.796 384.329C393.375 383.24 408.159 375.909 411.787 372.085C416.552 367.066 432.416 355.695 436.35 327.279C437.129 321.71 437.486 316.09 437.418 310.467C439.955 312.757 442.615 314.908 445.387 316.909C451.058 321.007 449.872 319.12 475.409 381.773C476.532 384.537 482.388 399.579 484.074 404.416ZM358.559 156.339C364.152 153.948 367.255 153.706 366.291 150.551C365.445 147.623 364.261 144.802 362.764 142.147C361.42 139.847 360.451 140.063 357.913 141.03C352.056 143.129 346.342 145.606 340.806 148.446C338.259 149.829 337.605 151.033 338.626 153.237C343.424 163.586 340.499 164.058 358.559 156.339ZM306.631 164.959C308.658 163.917 308.02 162.675 307.934 162.289C307.645 161.015 306.892 160.32 305.834 160.549C302.992 161.405 300.225 162.495 297.563 163.808C289.873 167.314 285.554 168.783 284.166 170.172C283.353 170.987 283.931 171.75 284.403 172.933C285.343 175.278 286.62 173.902 298.027 168.765C303.576 166.272 305.725 165.42 306.631 164.959Z" fill="#BDA6FF"/>
<path d="M450.643 261.927C451.93 263.977 451.877 263.75 449.96 265.074C444.292 268.945 442.95 274.076 440.6 271.464C437.305 268.013 434.538 264.093 432.389 259.832C427.812 248.904 427.633 247.328 430.699 243.025C437.209 233.853 441.984 248.12 450.643 261.927Z" fill="#E2BFB5"/>
<path d="M427.308 299.81C431.562 324.237 420.928 353.783 403.751 366.198C386.498 378.665 368.117 382.464 354.517 380.695C351.13 380.255 352.128 378.66 356.499 358.292C357.486 353.689 356.59 353.603 358.963 354.501C365.421 356.981 363.538 337.592 386.118 337.447C391.703 337.41 392.985 341.523 395.259 324.763C395.663 321.788 396.246 320.407 391.526 319.769C381.911 318.337 372.109 320.553 364.046 325.982C365.989 314.822 366.52 314.371 367.724 313.999C376.38 311.382 385.501 310.678 394.456 311.936C396.522 312.035 397.306 312.027 397.668 310.373C400.122 299.106 401.125 297.561 397.473 296.566C388.833 294.189 379.779 293.723 370.941 295.199C373.546 283.896 372.804 284.57 376.344 284.625C389.022 284.82 392.12 284.518 399.349 286.162C403.019 286.996 402.66 284.237 405.173 273.03C405.629 271.001 405.905 269.123 403.918 268.531C395.512 265.72 386.7 264.312 377.837 264.363C381.288 251.883 380.702 250.937 383.179 251.755C394.158 255.352 404.078 261.605 412.058 269.959C414.888 280.908 420.095 291.1 427.308 299.81ZM395.811 358.594C396.116 351.3 391.924 345.78 383.885 345.663C367.797 345.426 366.487 368.79 380.637 370.47C390.682 371.663 395.551 365.208 395.811 358.594Z" fill="#FFCCCE"/>
<path d="M418.641 228.445C423.455 239.784 423.33 237.112 419.683 239.068C409.003 215.165 405.924 203.567 391.289 171.567C385.193 158.248 379.504 140.643 369.501 135.149C365.476 132.94 360.662 134.037 356.916 135.149C322.841 145.879 289.512 158.845 257.144 173.964C245.734 179.414 229.042 185.864 224.965 199.066C222.829 205.985 228.523 218.983 229.281 220.856C240.183 247.826 233.71 237.299 285.466 359.81C279.375 362.058 279.071 363.691 278.271 361.373C271.985 343.138 235.468 262.32 220.528 217.736C218.567 211.88 216.824 205.599 218.236 200.47C220.294 192.988 227.481 185.306 236.492 180.093C266.061 162.984 333.291 138.45 355.981 131.937C360.829 130.546 364.9 128.949 370.006 130.895C378.912 134.282 383.416 143.472 387.545 153.056C407.164 198.579 416.985 224.537 418.641 228.445Z" fill="white"/>
<path d="M402.486 273.129C400.605 280.858 401.004 283.885 398.464 283.369C390.295 282.11 382.02 281.69 373.766 282.113C374.427 278.831 376.467 269.8 376.746 268.445C376.967 267.382 376.759 267.064 380.174 267.088C385.628 267.132 391.055 267.866 396.325 269.273C400.761 270.451 403.226 270.081 402.486 273.129Z" fill="white"/>
<path d="M395.448 298.784C397.553 299.29 397.108 298.977 395.276 308.108C395.191 308.537 395.201 309.441 393.677 309.288C384.878 308.194 375.95 308.855 367.408 311.231C369.953 299.248 369.599 298.071 372.595 297.599C380.214 296.429 387.991 296.832 395.448 298.784Z" fill="white"/>
<path d="M391.917 322.597C393.157 322.732 392.834 324.261 392.581 325.658C391.341 332.548 391.8 335.429 388.736 335.184C385.931 334.946 383.108 335.029 380.322 335.432C365.919 337.586 362.949 348.717 360.165 351.702C359.618 352.289 358.862 351.481 357.984 351.155C358.946 347.063 361.892 333.296 362.233 332.316C362.667 331.303 363.279 330.375 364.041 329.578C369.032 324.384 375.764 322.805 382.213 322.201C385.453 322.037 388.701 322.169 391.917 322.597Z" fill="white"/>
<path d="M390.118 350.314C394.943 353.846 393.382 361.406 390.983 364.48C385.966 370.906 372.936 368.624 373.183 359.111C373.478 347.672 384.531 346.221 390.118 350.314Z" fill="white"/>
<path d="M358.491 302.692C353.932 323.902 355.75 317.408 352.304 321.255C347.173 326.721 343.031 333.037 340.06 339.92C339.886 340.293 339.828 341.405 338.628 340.613C336.333 339.102 333.785 338.05 331.073 335.963C329.51 334.765 329.971 334.288 330.461 333.121C333.425 326.098 347.492 307.144 358.491 302.692Z" fill="white"/>
<path d="M333.604 455.136C338.892 463.021 337.124 470.419 336.173 475.637C334.563 484.46 329.163 489.115 328.509 495.555C328.737 498.941 329.797 502.219 331.596 505.097C313.306 510.14 297.317 488.355 299.752 477.599C301.133 478.789 302.357 480.019 303.738 481.009C306.39 482.892 308.7 481.728 308.948 478.484C310.373 460.51 317.888 450.022 320.96 448.037C325.216 445.286 330.608 450.668 333.604 455.136Z" fill="#D6AD9E"/>
<path d="M312.061 399.785C322.872 404.068 328.582 408.952 324.219 428.552C322.717 434.044 320.621 439.356 317.967 444.393C317.102 446.217 310.321 443.041 300.961 459.692C298.131 457.762 295.433 455.644 292.886 453.352C289.207 449.52 279.6 443.427 281.314 429.209C282.212 430.596 283.458 431.723 284.927 432.478C286.397 433.232 288.039 433.588 289.689 433.51C295.709 433.543 286.417 431.772 301.852 404.839C303.47 401.989 307.781 398.092 312.061 399.785Z" fill="#D6AD9E"/>
<path d="M305.939 455.882C310.917 447.882 315.577 447.869 317.018 447.484C313.436 453.379 311.214 456.106 309.435 462.374C307.773 467.854 306.707 473.498 306.257 479.208C304.752 478.827 303.378 478.044 302.284 476.942C301.19 475.841 300.415 474.463 300.044 472.956C299.226 465.789 304.85 457.649 305.939 455.882Z" fill="#E2BFB5"/>
<path d="M290.598 405.79C297.53 396.982 302.427 398.433 303.99 398.384C296.532 404.206 289.23 423.78 289.592 429.383C289.817 432.814 272.47 428.823 290.598 405.79Z" fill="#E2BFB5"/>
<path d="M299.76 366.444C306.126 372.175 304.248 385.02 302.797 394.351C302.79 394.699 302.646 395.031 302.397 395.274C302.149 395.518 301.814 395.654 301.466 395.654C290.645 397.368 283.479 412.008 282.189 412.506C280.465 413.172 271.248 410.609 268.93 402.26C270.179 402.545 271.444 402.76 272.717 402.904C277.854 403.211 271.808 389.576 278.448 368.069C279.608 364.31 286.198 360.059 295.396 363.268C297.039 364.041 298.52 365.119 299.76 366.444Z" fill="#D6AD9E"/>
<path d="M276.099 365.918C269.73 391.582 273.791 385.901 272.33 400.163C264.291 400.062 265.346 391.093 266.461 383.129C267.234 377.604 270.944 367.207 276.099 365.918Z" fill="#E2BFB5"/>
<path d="M603.532 535.972C641.419 614.864 650.127 619.488 646.975 621.155C645.498 621.937 644.631 620.006 643.909 618.722C614.684 567.326 624.867 586.04 615.324 566.56C564.834 463.469 602.737 535.612 576.862 437.563C575.674 433.064 574.064 428.672 572.897 424.165C572.897 424.108 567.755 385.689 548.079 356.576C537.774 341.329 529.907 337.299 517.658 315.07C500.704 284.329 484.642 290.101 468.567 276.467C455.039 264.992 455.802 265.943 452.937 266.94C446.586 269.155 444.551 279.379 438.685 273.513C433.152 267.661 429.029 260.622 426.631 252.933C425.752 250.615 425.626 248.079 426.272 245.685C426.918 243.291 428.303 241.162 430.229 239.601C426.321 238.473 421.359 241.148 418.639 243.438C416.425 245.88 414.788 248.79 413.851 251.95C412.914 255.111 412.7 258.442 413.226 261.697C414.872 274.836 420.318 287.208 428.895 297.297C449.475 323.279 486.067 331.498 478.018 363.797C477.533 365.74 480.346 372.748 481.99 376.942C500.509 424.199 511.669 444.229 505.982 457.957C503.21 464.655 496.206 469.062 484.1 475.781C512.031 526.972 547.813 531.647 565.858 517.51C567.58 516.161 568.88 518.104 567.231 519.519C552.627 532.041 533.473 524.947 525.181 523.041C525.743 529.199 524.678 535.397 522.094 541.015C517.007 553.845 511.197 556.385 499.475 561.873C497.743 562.686 497.774 562.303 496.51 561.793C498.396 557.234 512.745 556.267 518.335 542.568C522.717 531.825 522.592 530.566 522.276 522.319C522.196 520.235 518.947 521.373 506.498 510.107C494.976 499.687 488.638 488.139 482.232 478.216C481.821 477.576 481.938 477.023 480.182 477.818C478.802 478.443 475.493 480.196 469.872 482.608C406.831 509.604 376.563 519.263 372.473 521.282C381.151 529.97 387.322 530.921 402.931 539.04C412.692 544.118 421.262 552.732 435.822 556.429C442.991 558.252 453.145 565.387 465.467 565.421C481.646 565.468 479.317 566.088 486.492 564.403C488.935 563.827 490.1 566.208 487.247 567.161C478.343 570.139 463.604 567.505 460.319 568.203C460.645 570.707 461.721 571.59 464.946 572.038C472.383 573.054 476.126 574.255 496.388 572.71C498.003 572.585 499.587 572.025 501.21 571.892C501.812 571.843 502.46 572.452 503.093 572.757C502.729 573.299 502.465 574.198 501.989 574.32C485.494 578.748 464.281 574.476 464.216 574.471C467.17 582.026 464.821 575.732 469.254 590.145C472.323 600.128 473.597 601.178 475.569 606.786C477.139 611.675 478.687 616.571 480.214 621.473C480.302 621.731 480.297 622.012 480.198 622.266C480.099 622.52 479.914 622.731 479.674 622.861C479.435 622.992 479.157 623.033 478.89 622.978C478.623 622.924 478.384 622.776 478.215 622.562C476.793 620.71 476.882 619.696 472.31 605.96C470.187 601.818 468.443 597.491 467.1 593.034C464.894 586.392 467.36 590.789 461.369 575.06C460.864 573.734 457.021 572.262 457.628 567.417C452.85 566.244 448.194 564.617 443.725 562.558C432.74 557.432 429.179 559.039 418.277 551.959C392.204 535.026 380.765 534.07 370.845 523.004C367.386 519.149 347.523 537.642 332.58 507.59C316.937 514.46 292.542 492.849 297.413 474.697C297.642 471.329 298.09 467.98 298.754 464.67C300.357 458.726 283.833 455.087 279.621 439.759C278.321 435.862 278.154 431.676 279.139 427.687C280.079 425.491 278.654 427.817 281.361 415.24C278.326 414.506 271.584 413.912 268.216 406.811C267.481 405.263 267.039 403.573 266.393 401.976C264.934 399.127 263.909 396.075 263.352 392.923C262.88 386.643 263.768 380.334 265.957 374.428C271.899 359.027 278.047 367.527 274.437 358.17C270.863 348.904 257.463 320.119 225.437 237.423C218.25 218.865 212.052 206.773 217.504 195.988C223.587 183.966 234.958 176.972 263.761 164.655C291.38 152.766 319.468 141.999 347.958 132.382C360.832 128.029 368.245 125.2 377.022 132.608C386.434 140.556 388.33 150.497 417.381 219.326C423.422 233.654 423.755 236.801 425.79 236.519C431.187 235.777 431.998 237.611 433.05 237.494C443.991 236.264 446.557 258.779 457.349 264.223C462.07 266.607 472.508 278.29 485.674 283.024C512.406 292.628 519.085 312.671 527.012 324.646C540.082 344.39 563.18 357.946 574.439 418.129C574.947 420.846 589.751 470.12 589.871 489.209C589.97 504.954 588.186 504.021 603.532 535.972ZM504.542 443.567C502.96 434.02 497.709 423.178 493.397 411.804C489.37 401.179 467.189 345.252 461.679 332.831C459.415 327.731 461.158 329.234 454.622 324.954C454.828 327.504 475.848 375.819 489.48 412.81C495.591 429.399 500.746 441.908 500.733 446.56C500.715 454.717 495.455 458.916 485.145 464.553C474.464 470.399 459.6 475.669 447.893 480.793C346.184 525.338 350.86 521.522 334.881 487.618C333.404 490.079 332.245 492.717 331.432 495.469C331.436 498.271 332.181 501.022 333.591 503.443C335.649 507.994 338.89 516.111 345.785 519.881C354.629 524.713 362.423 521.657 373.544 517.687C412.619 503.745 448.198 489.67 471.565 478.714C479.312 475.312 486.808 471.362 493.994 466.895C503.659 460.239 506.55 455.722 504.539 443.572L504.542 443.567ZM475.738 361.437C476.67 357.306 476.622 353.013 475.597 348.904C473.104 342.408 469.109 336.594 463.94 331.935C467.949 341.146 471.878 351.897 475.751 361.437H475.738ZM449.949 265.052C451.866 263.749 451.918 263.955 450.631 261.905C441.972 248.098 437.197 233.844 430.687 243.003C427.621 247.314 427.801 248.883 432.378 259.811C434.526 264.071 437.293 267.991 440.589 271.442C442.946 274.065 444.288 268.936 449.959 265.052H449.949ZM419.679 239.075C423.326 237.118 423.456 239.794 418.637 228.452C416.977 224.544 407.159 198.585 387.541 153.047C383.412 143.463 378.908 134.26 370.001 130.887C364.895 128.951 360.824 130.548 355.976 131.929C333.292 138.449 266.062 162.983 236.49 180.095C227.479 185.305 220.292 192.99 218.234 200.471C216.822 205.601 218.565 211.881 220.526 217.737C235.466 262.322 271.983 343.139 278.269 361.374C279.068 363.698 279.405 362.052 285.464 359.811C233.7 237.303 240.181 247.83 229.279 220.861C228.521 218.988 222.827 205.989 224.963 199.07C229.039 185.868 245.732 179.418 257.142 173.968C289.509 158.849 322.839 145.883 356.914 135.154C360.66 134.041 365.474 132.944 369.498 135.154C379.512 140.647 385.201 158.244 391.297 171.571C405.919 203.574 409.003 215.163 419.679 239.067V239.075ZM336.178 475.635C337.129 470.425 338.898 463.021 333.609 455.133C330.616 450.666 325.226 445.284 320.975 448.035C317.904 450.02 310.388 460.521 308.963 478.482C308.703 481.725 306.395 482.89 303.753 481.006C302.362 480.016 301.148 478.787 299.768 477.596C297.332 488.352 313.314 510.138 331.611 505.095C329.812 502.217 328.752 498.939 328.524 495.553C329.163 489.113 334.563 484.458 336.173 475.635H336.178ZM324.224 428.552C328.587 408.952 322.877 404.065 312.066 399.785C307.786 398.089 303.47 401.989 301.841 404.839C286.402 431.772 295.694 433.543 289.673 433.509C288.023 433.588 286.381 433.232 284.911 432.477C283.442 431.723 282.196 430.596 281.298 429.208C279.595 443.427 289.191 449.528 292.87 453.352C295.417 455.643 298.115 457.762 300.945 459.692C310.305 443.041 317.096 446.209 317.951 444.393C320.61 439.357 322.712 434.045 324.218 428.552H324.224ZM317.034 447.483C315.593 447.868 310.933 447.881 305.955 455.881C304.855 457.647 299.231 465.78 300.06 472.962C300.431 474.47 301.205 475.848 302.3 476.949C303.394 478.05 304.767 478.833 306.272 479.214C306.723 473.505 307.788 467.861 309.451 462.381C311.222 456.105 313.447 453.378 317.029 447.483H317.034ZM303.996 398.384C302.433 398.433 297.535 396.982 290.603 405.79C272.475 428.823 289.822 432.822 289.598 429.386C289.231 423.78 296.532 404.206 303.99 398.384H303.996ZM302.803 394.351C304.254 385.02 306.132 372.169 299.765 366.444C298.525 365.123 297.045 364.05 295.404 363.281C286.206 360.069 279.616 364.323 278.456 368.082C271.819 389.589 277.865 403.224 272.725 402.916C271.452 402.772 270.187 402.557 268.938 402.273C271.248 410.609 280.473 413.185 282.197 412.518C283.481 412.021 290.648 397.381 301.474 395.667C301.823 395.664 302.157 395.526 302.405 395.279C302.652 395.033 302.793 394.7 302.797 394.351H302.803ZM272.324 400.163C273.786 385.9 269.719 391.582 276.094 365.917C270.938 367.22 267.237 377.603 266.455 383.129C265.345 391.092 264.29 400.061 272.335 400.163H272.324Z" fill="#000001"/>
<path d="M383.893 345.662C391.932 345.779 396.137 351.304 395.819 358.593C395.543 365.207 390.682 371.662 380.645 370.469C366.495 368.789 367.805 345.425 383.893 345.662ZM390.982 364.478C393.381 361.404 394.941 353.844 390.117 350.312C384.529 346.219 373.476 347.67 373.184 359.109C372.934 368.622 385.964 370.904 390.982 364.478Z" fill="#000001"/>
<path d="M366.296 150.553C367.26 153.707 364.157 153.939 358.564 156.341C340.499 164.06 343.424 163.588 338.631 153.238C337.61 151.035 337.849 149.703 340.387 148.32C346.092 145.568 351.945 143.133 357.918 141.026C360.456 140.062 361.425 139.843 362.769 142.144C364.266 144.801 365.45 147.623 366.296 150.553ZM359.948 154.049C365.517 151.983 364.79 151.444 364.165 149.784C361.758 143.381 360.878 141.873 359.395 142.454C358.661 142.743 353.498 144.501 347.991 146.762C345.547 147.763 343.109 148.99 340.869 150.118C339.441 150.837 339.566 151.235 343.104 158.73C343.207 158.968 343.357 159.184 343.544 159.364C343.731 159.545 343.952 159.687 344.194 159.782C344.435 159.878 344.694 159.924 344.954 159.92C345.214 159.915 345.47 159.86 345.709 159.756C347.819 159.167 350.124 157.693 359.948 154.049Z" fill="#000001"/>
<path d="M307.933 162.294C308.022 162.679 308.66 163.929 306.631 164.964C305.724 165.425 303.575 166.266 298.034 168.775C286.627 173.907 285.35 175.287 284.41 172.943C283.938 171.76 283.368 170.997 284.173 170.181C285.561 168.793 289.88 167.316 297.57 163.817C300.232 162.504 302.999 161.414 305.841 160.559C306.902 160.332 307.644 161.02 307.933 162.294Z" fill="#000001"/>
<path d="M359.949 154.051C365.519 151.985 364.792 151.446 364.167 149.787C361.76 143.383 360.879 141.875 359.397 142.456C358.663 142.745 353.5 144.504 347.993 146.765C345.549 147.765 343.111 148.992 340.87 150.12C339.443 150.839 339.568 151.238 343.106 158.732C343.209 158.971 343.359 159.186 343.546 159.367C343.733 159.547 343.954 159.689 344.195 159.785C344.437 159.88 344.696 159.927 344.956 159.922C345.216 159.918 345.472 159.862 345.711 159.758C347.821 159.17 350.126 157.695 359.949 154.051Z" fill="white"/>
<path d="M357.642 150.728C357.764 151.035 357.763 151.377 357.637 151.682C357.512 151.987 357.272 152.231 356.969 152.362C355.242 153.107 352.486 154.185 346.318 156.806C345.195 157.285 344.755 157.207 344.34 156.475C343.669 155.289 343.131 154.031 342.736 152.726C342.361 151.536 342.806 151.578 354.719 146.631C355.779 146.188 356.756 148.522 357.642 150.728Z" fill="#000001"/>
<g filter="url(#filter0_d_429_4612)">
<circle cx="406.553" cy="430.552" r="29.5517" transform="rotate(-22.2917 406.553 430.552)" fill="white"/>
<circle cx="406.553" cy="430.552" r="28.9607" transform="rotate(-22.2917 406.553 430.552)" stroke="black" stroke-width="1.18207"/>
<circle cx="406.553" cy="430.552" r="28.9607" transform="rotate(-22.2917 406.553 430.552)" stroke="black" stroke-opacity="0.2" stroke-width="1.18207"/>
</g>
<circle cx="406.552" cy="430.553" r="53.0587" transform="rotate(-22.2917 406.552 430.553)" fill="white"/>
<circle cx="406.552" cy="430.553" r="52.4677" transform="rotate(-22.2917 406.552 430.553)" stroke="#DDD4F3" stroke-opacity="0.5" stroke-width="1.18207"/>
<g filter="url(#filter1_d_429_4612)">
<circle cx="406.553" cy="430.553" r="29.5517" transform="rotate(-22.2917 406.553 430.553)" fill="white"/>
<circle cx="406.553" cy="430.553" r="28.9607" transform="rotate(-22.2917 406.553 430.553)" stroke="black" stroke-width="1.18207"/>
<circle cx="406.553" cy="430.553" r="28.9607" transform="rotate(-22.2917 406.553 430.553)" stroke="black" stroke-opacity="0.2" stroke-width="1.18207"/>
</g>
<g filter="url(#filter2_d_429_4612)">
<path d="M388.851 428.738L386.807 423.751C386.723 423.546 386.821 423.311 387.026 423.227L414.937 411.785C415.142 411.7 415.377 411.799 415.461 412.004L417.506 416.991C417.59 417.196 417.492 417.431 417.286 417.515L414.793 418.538L417.722 425.683C419.458 429.917 417.433 434.756 413.199 436.492L405.607 439.604L408.933 447.716C404.699 449.452 399.86 447.427 398.124 443.193L391.869 427.935L389.376 428.958C389.17 429.042 388.935 428.944 388.851 428.738Z" fill="#BDA6FF"/>
<path d="M388.851 428.738L386.807 423.751C386.723 423.546 386.821 423.311 387.026 423.227L414.937 411.785C415.142 411.7 415.377 411.799 415.461 412.004L417.506 416.991C417.59 417.196 417.492 417.431 417.286 417.515L414.793 418.538L417.722 425.683C419.458 429.917 417.433 434.756 413.199 436.492L405.607 439.604L408.933 447.716C404.699 449.452 399.86 447.427 398.124 443.193L391.869 427.935L389.376 428.958C389.17 429.042 388.935 428.944 388.851 428.738Z" stroke="black" stroke-width="1.00549"/>
</g>
<g filter="url(#filter3_d_429_4612)">
<path d="M399.416 426.976L401.995 425.434L401.522 424.281C401.354 423.87 401.55 423.4 401.961 423.231L404.306 422.27C404.717 422.102 405.187 422.298 405.355 422.709L405.828 423.863L408.747 423.15C409.109 423.062 409.484 423.234 409.654 423.566L412.256 428.653C412.47 429.073 412.28 429.585 411.844 429.764L401.852 433.86C401.417 434.039 400.922 433.807 400.78 433.358L399.062 427.908C398.949 427.553 399.096 427.167 399.416 426.976Z" fill="white"/>
<path d="M399.416 426.976L401.995 425.434L401.522 424.281C401.354 423.87 401.55 423.4 401.961 423.231L404.306 422.27C404.717 422.102 405.187 422.298 405.355 422.709L405.828 423.863L408.747 423.15C409.109 423.062 409.484 423.234 409.654 423.566L412.256 428.653C412.47 429.073 412.28 429.585 411.844 429.764L401.852 433.86C401.417 434.039 400.922 433.807 400.78 433.358L399.062 427.908C398.949 427.553 399.096 427.167 399.416 426.976Z" stroke="black" stroke-width="1.00549"/>
</g>
<path d="M404.936 424.383L403 425.177L402.596 424.19C402.562 424.108 402.602 424.014 402.684 423.981L404.321 423.309C404.404 423.276 404.498 423.315 404.531 423.397L404.936 424.383Z" fill="#28273C" stroke="black" stroke-width="0.0402196"/>
<path d="M411.461 429.379C411.528 429.124 411.526 428.856 411.456 428.602L411.208 427.7L411.864 428.978C411.918 429.083 411.87 429.211 411.761 429.256L411.461 429.379V429.379Z" fill="#BDA6FF"/>
<path d="M399.767 428.344C399.718 427.91 399.848 427.475 400.127 427.138V427.138L399.656 427.424C399.545 427.492 399.494 427.627 399.534 427.752L399.788 428.538L399.767 428.344Z" fill="#BDA6FF"/>
<path d="M387.305 423.635L390.542 422.308L388.681 424.288L387.892 425.068L387.305 423.635Z" fill="#3100BE"/>
<path d="M412.693 436.155C416.067 434.189 417.779 430.265 416.925 426.454L416.236 423.379L417.133 425.279C419.129 429.505 417.076 434.533 412.693 436.155V436.155V436.155Z" fill="#3100BE"/>
<path d="M351.815 136.692L351.815 136.692L351.822 136.69L354.978 135.462C363.463 132.163 373.103 135.124 378.271 142.619C378.892 143.52 379.438 144.472 379.901 145.464L389.682 166.424L418.912 237.884C416.016 240.853 413.847 244.454 412.577 248.406L412.253 249.412C410.764 254.046 410.379 258.965 411.131 263.774L411.659 267.155C412.228 270.796 413.236 274.355 414.661 277.754L415.791 280.447C417.964 285.63 420.756 290.53 424.107 295.041L425.966 297.542C430.064 303.059 434.79 308.079 440.05 312.502L454.081 324.301L499.714 439.712C500.648 442.073 501.032 444.616 500.837 447.148C500.414 452.641 497.315 457.574 492.549 460.339L475.418 470.274L376.327 511.245C373.144 512.561 369.773 513.366 366.339 513.63L360.889 514.049C355.416 514.47 350.011 512.623 345.94 508.94C343.404 506.645 341.499 503.739 340.407 500.498L336.024 487.49L338.138 480.358C339.372 476.191 339.804 471.827 339.411 467.498L339.38 467.163C339.123 464.325 338.485 461.536 337.485 458.868L337.24 458.216C336.38 455.923 335.21 453.758 333.761 451.783C331.506 448.708 328.62 446.15 325.296 444.28L322.589 442.758L325.449 432.748C326.143 430.321 326.658 427.846 326.992 425.344L328.049 417.416C328.353 415.137 328.155 412.819 327.469 410.625C326.468 407.422 324.472 404.621 321.77 402.63L318.628 400.315C317.05 399.152 315.352 398.16 313.564 397.356L306.5 394.177L306.5 384.5L306.5 384.476L306.498 384.452L305.468 373.813C305.152 370.551 303.773 367.483 301.543 365.081C299.406 362.78 296.599 361.21 293.52 360.594L285.847 359.059L279.459 345.301L226.106 212.542C222.885 204.043 225.347 194.436 232.26 188.535L238.925 182.845C240.241 181.722 241.714 180.797 243.297 180.099L287.329 160.687L351.815 136.692Z" fill="white" stroke="black"/>
</g>
<g filter="url(#filter4_d_429_4612)">
<rect width="5.65989" height="5.65989" rx="2.82994" transform="matrix(0.438371 0.898794 0.898794 -0.438371 312.982 168.902)" fill="white"/>
<rect x="0.630683" y="0.217162" width="4.71657" height="4.71657" rx="2.35829" transform="matrix(0.438371 0.898794 0.898794 -0.438371 313.141 168.648)" stroke="black" stroke-width="0.943314"/>
</g>
<g filter="url(#filter5_d_429_4612)">
<rect width="5.65989" height="5.65989" rx="2.82994" transform="matrix(0.438371 0.898794 0.898794 -0.438371 274.5 178.226)" fill="white"/>
<rect x="0.630683" y="0.217162" width="4.71657" height="4.71657" rx="2.35829" transform="matrix(0.438371 0.898794 0.898794 -0.438371 274.659 177.972)" stroke="black" stroke-width="0.943314"/>
</g>
<path d="M378.304 356.624L224.5 41.4999L452.068 -5.98672L392.365 130.655C373.767 173.221 366.17 219.781 370.273 266.052L378.304 356.624Z" fill="url(#paint0_linear_429_4612)"/>
<path d="M378.763 357.878L226 43.9999L47.6084 192.759L192.04 229.838C237.033 241.389 278.4 264.067 312.336 295.788L378.763 357.878Z" fill="url(#paint1_linear_429_4612)"/>
<path d="M222.626 108.631L213.914 135.256M213.914 135.256L189.213 124.928M213.914 135.256L199.044 150.645M213.914 135.256L240.191 151.596L180.232 178.806M180.232 178.806L149.227 144.43L162.827 147.29M180.232 178.806L173.217 199.179M162.827 147.29L168.304 144.618M162.827 147.29L169.867 151.993M173.217 199.179L161.274 194.155M173.217 199.179L167.192 202.118M173.217 199.179L180.846 199.527" stroke="white" stroke-width="1.21887"/>
<path d="M340.394 51.1918L331.682 77.8169M331.682 77.8169L306.981 67.4885M331.682 77.8169L316.812 93.2062M331.682 77.8169L357.959 94.1571L298 121.367M298 121.367L266.994 86.9911L280.594 89.8508M298 121.367L290.985 141.74M280.594 89.8508L286.072 87.1792M280.594 89.8508L287.634 94.5538M290.985 141.74L279.042 136.716M290.985 141.74L284.96 144.679M290.985 141.74L298.613 142.088" stroke="white" stroke-width="1.21887"/>
<path d="M335.545 111.255L342.668 138.348M342.668 138.348L316.314 143.069M342.668 138.348L338.523 159.343M342.668 138.348L373.607 137.823L337.994 193.204M337.994 193.204L293.3 181.143L306.276 176.168M337.994 193.204L343.151 214.125M306.276 176.168L309.429 170.953M306.276 176.168L314.742 176.301M343.151 214.125L339.683 219.862M343.151 214.125L349.748 210.279M343.151 214.125L330.392 216.382L328.623 256.307L336.481 272.165" stroke="white" stroke-width="1.21887"/>
<path d="M312.417 194.487L286.861 205.963M286.861 205.963L277.875 180.743M286.861 205.963L265.471 205.323M286.861 205.963L290.136 235.94M329.463 256.265L290.136 235.94M231.982 210.364L236.538 164.296L243.577 176.279M231.982 210.364L212.193 218.888M231.982 210.364L290.136 235.94M243.577 176.279L249.239 178.532M243.577 176.279L244.837 184.651M212.193 218.888L207.871 206.673M212.193 218.888L205.964 216.409M212.193 218.888L217.07 224.764" stroke="white" stroke-width="1.21887"/>
<g filter="url(#filter6_d_429_4612)">
<rect width="7.31321" height="7.31321" rx="3.65661" transform="matrix(0.438371 0.898794 0.898794 -0.438371 208.211 133.292)" fill="white"/>
<rect x="0.814914" y="0.280598" width="6.09434" height="6.09434" rx="3.04717" transform="matrix(0.438371 0.898794 0.898794 -0.438371 208.416 132.963)" stroke="black" stroke-width="1.21887"/>
</g>
<g filter="url(#filter7_d_429_4612)">
<rect width="7.31321" height="7.31321" rx="3.65661" transform="matrix(0.438371 0.898794 0.898794 -0.438371 336.553 212.228)" fill="white"/>
<rect x="0.814914" y="0.280598" width="6.09434" height="6.09434" rx="3.04717" transform="matrix(0.438371 0.898794 0.898794 -0.438371 336.758 211.899)" stroke="black" stroke-width="1.21887"/>
</g>
<g filter="url(#filter8_d_429_4612)">
<rect width="7.31321" height="7.31321" rx="3.65661" transform="matrix(0.438371 0.898794 0.898794 -0.438371 323.967 254.551)" fill="white"/>
<rect x="0.814914" y="0.280598" width="6.09434" height="6.09434" rx="3.04717" transform="matrix(0.438371 0.898794 0.898794 -0.438371 324.172 254.222)" stroke="black" stroke-width="1.21887"/>
</g>
<g filter="url(#filter9_d_429_4612)">
<rect width="7.31321" height="7.31321" rx="3.65661" transform="matrix(0.438371 0.898794 0.898794 -0.438371 336.275 137.281)" fill="white"/>
<rect x="0.814914" y="0.280598" width="6.09434" height="6.09434" rx="3.04717" transform="matrix(0.438371 0.898794 0.898794 -0.438371 336.481 136.952)" stroke="black" stroke-width="1.21887"/>
</g>
<g filter="url(#filter10_d_429_4612)">
<rect width="7.31321" height="7.31321" rx="3.65661" transform="matrix(0.438371 0.898794 0.898794 -0.438371 325.43 76.1197)" fill="white"/>
<rect x="0.814914" y="0.280598" width="6.09434" height="6.09434" rx="3.04717" transform="matrix(0.438371 0.898794 0.898794 -0.438371 325.635 75.7909)" stroke="black" stroke-width="1.21887"/>
</g>
<g filter="url(#filter11_d_429_4612)">
<rect width="7.31321" height="7.31321" rx="3.65661" transform="matrix(0.438371 0.898794 0.898794 -0.438371 291.201 119.937)" fill="white"/>
<rect x="0.814914" y="0.280598" width="6.09434" height="6.09434" rx="3.04717" transform="matrix(0.438371 0.898794 0.898794 -0.438371 291.407 119.608)" stroke="black" stroke-width="1.21887"/>
</g>
<g filter="url(#filter12_d_429_4612)">
<rect width="7.31321" height="7.31321" rx="3.65661" transform="matrix(0.438371 0.898794 0.898794 -0.438371 285.717 233.813)" fill="white"/>
<rect x="0.814914" y="0.280598" width="6.09434" height="6.09434" rx="3.04717" transform="matrix(0.438371 0.898794 0.898794 -0.438371 285.922 233.484)" stroke="black" stroke-width="1.21887"/>
</g>
<g filter="url(#filter13_d_429_4612)">
<rect width="7.31321" height="7.31321" rx="3.65661" transform="matrix(0.438371 0.898794 0.898794 -0.438371 227.098 208.16)" fill="white"/>
<rect x="0.814914" y="0.280598" width="6.09434" height="6.09434" rx="3.04717" transform="matrix(0.438371 0.898794 0.898794 -0.438371 227.303 207.831)" stroke="black" stroke-width="1.21887"/>
</g>
<g filter="url(#filter14_d_429_4612)">
<rect width="26.8151" height="26.8151" rx="13.4076" transform="matrix(0.438371 0.898794 0.898794 -0.438371 223.359 144.889)" fill="white"/>
<rect x="2.98802" y="1.02886" width="22.3459" height="22.3459" rx="11.173" transform="matrix(0.438371 0.898794 0.898794 -0.438371 224.113 143.683)" stroke="black" stroke-width="4.46918"/>
</g>
<g filter="url(#filter15_d_429_4612)">
<rect width="26.8151" height="26.8151" rx="13.4076" transform="matrix(0.438371 0.898794 0.898794 -0.438371 338.416 86.0601)" fill="white"/>
<rect x="2.98802" y="1.02886" width="22.3459" height="22.3459" rx="11.173" transform="matrix(0.438371 0.898794 0.898794 -0.438371 339.169 84.8544)" stroke="black" stroke-width="4.46918"/>
</g>
<g filter="url(#filter16_d_429_4612)">
<rect width="26.8151" height="26.8151" rx="13.4076" transform="matrix(0.438371 0.898794 0.898794 -0.438371 316.18 185.053)" fill="white"/>
<rect x="2.98802" y="1.02886" width="22.3459" height="22.3459" rx="11.173" transform="matrix(0.438371 0.898794 0.898794 -0.438371 316.933 183.847)" stroke="black" stroke-width="4.46918"/>
</g>
<g filter="url(#filter17_d_429_4612)">
<rect width="26.8151" height="26.8151" rx="13.4076" transform="matrix(0.438371 0.898794 0.898794 -0.438371 267.523 199.291)" fill="white"/>
<rect x="2.98802" y="1.02886" width="22.3459" height="22.3459" rx="11.173" transform="matrix(0.438371 0.898794 0.898794 -0.438371 268.277 198.085)" stroke="black" stroke-width="4.46918"/>
</g>
<g filter="url(#filter18_d_429_4612)">
<rect width="26.8151" height="26.8151" rx="13.4076" transform="matrix(0.438371 0.898794 0.898794 -0.438371 151.994 140.369)" fill="white"/>
<rect x="2.98802" y="1.02886" width="22.3459" height="22.3459" rx="11.173" transform="matrix(0.438371 0.898794 0.898794 -0.438371 152.748 139.163)" stroke="black" stroke-width="4.46918"/>
</g>
<g filter="url(#filter19_d_429_4612)">
<rect width="7.31321" height="7.31321" rx="3.65661" transform="matrix(0.438371 0.898794 0.898794 -0.438371 175.076 176.574)" fill="white"/>
<rect x="0.814914" y="0.280598" width="6.09434" height="6.09434" rx="3.04717" transform="matrix(0.438371 0.898794 0.898794 -0.438371 175.282 176.245)" stroke="black" stroke-width="1.21887"/>
</g>
<path d="M448.828 -1.54401C360.937 195.132 364.752 194.625 372.905 320.774" stroke="#EDEDED" stroke-width="1.21887"/>
<path d="M51.3594 192.314C237.652 235.324 258.219 241.661 352.092 330.924" stroke="#EDEDED" stroke-width="1.21887"/>
<path d="M240.342 154.766C239.89 154.747 239.482 154.598 239.118 154.319C238.749 154.056 238.445 153.679 238.206 153.188C237.792 152.34 237.742 151.523 238.055 150.737C238.357 149.957 238.974 149.339 239.904 148.886C240.896 148.402 241.803 148.289 242.625 148.546C243.441 148.819 244.079 149.425 244.538 150.366C244.852 151.01 244.952 151.632 244.84 152.231C244.732 152.841 244.421 153.397 243.907 153.901L242.284 150.573L240.352 151.515L243.134 157.221L245.573 156.031C246.133 155.518 246.579 154.889 246.912 154.144C247.25 153.41 247.418 152.6 247.417 151.715C247.415 150.829 247.195 149.937 246.756 149.037C246.238 147.974 245.544 147.135 244.675 146.521C243.8 145.922 242.834 145.59 241.777 145.523C240.724 145.467 239.666 145.698 238.603 146.217C237.539 146.736 236.706 147.427 236.102 148.291C235.493 149.17 235.16 150.136 235.104 151.189C235.038 152.246 235.264 153.307 235.783 154.37C236.411 155.659 237.251 156.59 238.304 157.166C239.362 157.751 240.512 157.917 241.756 157.665L240.342 154.766Z" fill="#FF6161"/>
<path d="M358.589 85.714L351.147 94.09L358.495 95.2527L355.824 89.7752" stroke="#4967D0" stroke-width="2.43774"/>
<path d="M339.128 194.142L336.466 189.371C335.256 187.203 332.128 187.23 330.955 189.417V189.417C330.454 190.351 330.457 191.475 330.965 192.405L333.293 196.678" stroke="#B549D0" stroke-width="2.43774"/>
<path d="M175.169 147.144L172.507 142.373C171.297 140.205 168.169 140.231 166.996 142.419V142.419C166.495 143.353 166.499 144.476 167.006 145.407L169.334 149.679" stroke="#95D049" stroke-width="2.43774"/>
<path d="M334.365 184.379L336.486 189.414C337.449 191.702 335.503 194.151 333.056 193.729V193.729C332.012 193.549 331.129 192.854 330.708 191.882L328.775 187.417" stroke="#B549D0" stroke-width="2.43774"/>
<path d="M169.774 143.535L172.406 148.323C173.602 150.498 171.92 153.136 169.443 152.97V152.97C168.386 152.899 167.436 152.3 166.916 151.377L164.529 147.137" stroke="#95D049" stroke-width="2.43774"/>
<path d="M281.936 201.992C281.75 202.285 281.65 202.625 281.636 203.011C281.622 203.398 281.711 203.789 281.904 204.184C282.134 204.655 282.461 205.022 282.885 205.288C283.31 205.553 283.797 205.687 284.347 205.689C284.9 205.698 285.469 205.559 286.055 205.273C286.642 204.987 287.105 204.622 287.445 204.178C287.782 203.744 287.98 203.276 288.039 202.774C288.091 202.276 288.003 201.792 287.773 201.322C287.577 200.92 287.327 200.607 287.024 200.383C286.715 200.163 286.385 200.033 286.036 199.992L286.834 199.603L285.981 197.855L278.415 201.545L279.267 203.293L281.936 201.992ZM285.188 203.494C284.751 203.707 284.351 203.75 283.986 203.625C283.617 203.509 283.346 203.274 283.173 202.92C283.004 202.572 282.985 202.214 283.118 201.846C283.254 201.484 283.54 201.197 283.976 200.984C284.412 200.771 284.815 200.723 285.183 200.838C285.555 200.961 285.826 201.196 285.995 201.543C286.165 201.891 286.183 202.249 286.051 202.617C285.912 202.989 285.624 203.281 285.188 203.494ZM286.408 213.211L292.113 210.428L291.261 208.68L290.484 209.059C290.649 208.758 290.736 208.417 290.743 208.033C290.747 207.66 290.659 207.29 290.479 206.922C290.266 206.485 289.983 206.147 289.629 205.906C289.269 205.668 288.86 205.547 288.402 205.543C287.944 205.538 287.466 205.657 286.969 205.9L283.635 207.526L284.483 209.264L287.581 207.753C287.963 207.567 288.308 207.521 288.615 207.616C288.923 207.71 289.158 207.925 289.321 208.259C289.488 208.599 289.513 208.92 289.398 209.221C289.283 209.522 289.035 209.765 288.653 209.951L285.555 211.462L286.408 213.211Z" fill="#03A800"/>
<g filter="url(#filter20_d_429_4612)">
<circle cx="381.551" cy="368.552" r="29.5517" transform="rotate(-25 381.551 368.552)" fill="white"/>
<circle cx="381.551" cy="368.552" r="28.9607" transform="rotate(-25 381.551 368.552)" stroke="black" stroke-width="1.18207"/>
<circle cx="381.551" cy="368.552" r="28.9607" transform="rotate(-25 381.551 368.552)" stroke="black" stroke-opacity="0.2" stroke-width="1.18207"/>
</g>
<circle cx="381.554" cy="368.553" r="53.0587" transform="rotate(-25 381.554 368.553)" fill="white"/>
<circle cx="381.554" cy="368.553" r="52.4677" transform="rotate(-25 381.554 368.553)" stroke="#DDD4F3" stroke-opacity="0.5" stroke-width="1.18207"/>
<g filter="url(#filter21_d_429_4612)">
<circle cx="381.553" cy="368.553" r="29.5517" transform="rotate(-25 381.553 368.553)" fill="white"/>
<circle cx="381.553" cy="368.553" r="28.9607" transform="rotate(-25 381.553 368.553)" stroke="black" stroke-width="1.18207"/>
<circle cx="381.553" cy="368.553" r="28.9607" transform="rotate(-25 381.553 368.553)" stroke="black" stroke-opacity="0.2" stroke-width="1.18207"/>
</g>
<g filter="url(#filter22_d_429_4612)">
<path d="M363.786 367.577L361.508 362.692C361.414 362.491 361.501 362.251 361.702 362.158L389.041 349.409C389.242 349.316 389.482 349.403 389.575 349.604L391.853 354.488C391.947 354.69 391.86 354.929 391.659 355.023L389.216 356.162L392.48 363.16C394.414 367.308 392.619 372.237 388.472 374.171L381.036 377.638L384.742 385.585C380.595 387.519 375.665 385.724 373.731 381.577L366.762 366.632L364.32 367.771C364.119 367.865 363.879 367.778 363.786 367.577Z" fill="#BDA6FF"/>
<path d="M363.786 367.577L361.508 362.692C361.414 362.491 361.501 362.251 361.702 362.158L389.041 349.409C389.242 349.316 389.482 349.403 389.575 349.604L391.853 354.488C391.947 354.69 391.86 354.929 391.659 355.023L389.216 356.162L392.48 363.16C394.414 367.308 392.619 372.237 388.472 374.171L381.036 377.638L384.742 385.585C380.595 387.519 375.665 385.724 373.731 381.577L366.762 366.632L364.32 367.771C364.119 367.865 363.879 367.778 363.786 367.577Z" stroke="black" stroke-width="1.00549"/>
</g>
<g filter="url(#filter23_d_429_4612)">
<path d="M374.257 365.317L376.76 363.655L376.233 362.525C376.045 362.123 376.22 361.644 376.622 361.456L378.919 360.386C379.321 360.198 379.8 360.372 379.988 360.775L380.515 361.905L383.397 361.055C383.754 360.95 384.137 361.104 384.322 361.427L387.161 366.386C387.395 366.795 387.23 367.316 386.803 367.515L377.016 372.079C376.589 372.278 376.083 372.07 375.921 371.628L373.947 366.265C373.818 365.916 373.946 365.523 374.257 365.317Z" fill="white"/>
<path d="M374.257 365.317L376.76 363.655L376.233 362.525C376.045 362.123 376.22 361.644 376.622 361.456L378.919 360.386C379.321 360.198 379.8 360.372 379.988 360.775L380.515 361.905L383.397 361.055C383.754 360.95 384.137 361.104 384.322 361.427L387.161 366.386C387.395 366.795 387.23 367.316 386.803 367.515L377.016 372.079C376.589 372.278 376.083 372.07 375.921 371.628L373.947 366.265C373.818 365.916 373.946 365.523 374.257 365.317Z" stroke="black" stroke-width="1.00549"/>
</g>
<path d="M379.648 362.467L377.753 363.351L377.302 362.385C377.265 362.304 377.3 362.208 377.38 362.171L378.984 361.423C379.065 361.385 379.16 361.42 379.198 361.501L379.648 362.467Z" fill="#28273C" stroke="black" stroke-width="0.0402196"/>
<path d="M386.402 367.148C386.456 366.89 386.442 366.623 386.36 366.372L386.07 365.484L386.785 366.729C386.844 366.831 386.802 366.961 386.696 367.011L386.402 367.148V367.148Z" fill="#BDA6FF"/>
<path d="M374.671 366.668C374.603 366.236 374.712 365.795 374.974 365.446V365.446L374.517 365.754C374.409 365.827 374.365 365.964 374.411 366.086L374.702 366.86L374.671 366.668Z" fill="#BDA6FF"/>
<path d="M361.998 362.552L365.169 361.074L363.403 363.14L362.652 363.956L361.998 362.552Z" fill="#3100BE"/>
<path d="M387.949 373.859C391.227 371.736 392.752 367.735 391.719 363.969L390.885 360.93L391.871 362.785C394.064 366.912 392.251 372.032 387.949 373.859V373.859V373.859Z" fill="#3100BE"/>
</g>
<defs>
<filter id="filter0_d_429_4612" x="376.994" y="400.992" width="62.7883" height="62.7901" filterUnits="userSpaceOnUse" color-interpolation-filters="sRGB">
<feFlood flood-opacity="0" result="BackgroundImageFix"/>
<feColorMatrix in="SourceAlpha" type="matrix" values="0 0 0 0 0 0 0 0 0 0 0 0 0 0 0 0 0 0 127 0" result="hardAlpha"/>
<feOffset dx="3.67114" dy="3.67114"/>
<feComposite in2="hardAlpha" operator="out"/>
<feColorMatrix type="matrix" values="0 0 0 0 0 0 0 0 0 0 0 0 0 0 0 0 0 0 1 0"/>
<feBlend mode="normal" in2="BackgroundImageFix" result="effect1_dropShadow_429_4612"/>
<feBlend mode="normal" in="SourceGraphic" in2="effect1_dropShadow_429_4612" result="shape"/>
</filter>
<filter id="filter1_d_429_4612" x="376.994" y="400.993" width="62.7883" height="62.7901" filterUnits="userSpaceOnUse" color-interpolation-filters="sRGB">
<feFlood flood-opacity="0" result="BackgroundImageFix"/>
<feColorMatrix in="SourceAlpha" type="matrix" values="0 0 0 0 0 0 0 0 0 0 0 0 0 0 0 0 0 0 127 0" result="hardAlpha"/>
<feOffset dx="3.67114" dy="3.67114"/>
<feComposite in2="hardAlpha" operator="out"/>
<feColorMatrix type="matrix" values="0 0 0 0 0 0 0 0 0 0 0 0 0 0 0 0 0 0 1 0"/>
<feBlend mode="normal" in2="BackgroundImageFix" result="effect1_dropShadow_429_4612"/>
<feBlend mode="normal" in="SourceGraphic" in2="effect1_dropShadow_429_4612" result="shape"/>
</filter>
<filter id="filter2_d_429_4612" x="386.273" y="411.252" width="33.5375" height="38.5544" filterUnits="userSpaceOnUse" color-interpolation-filters="sRGB">
<feFlood flood-opacity="0" result="BackgroundImageFix"/>
<feColorMatrix in="SourceAlpha" type="matrix" values="0 0 0 0 0 0 0 0 0 0 0 0 0 0 0 0 0 0 127 0" result="hardAlpha"/>
<feOffset dx="0.965271" dy="0.965271"/>
<feComposite in2="hardAlpha" operator="out"/>
<feColorMatrix type="matrix" values="0 0 0 0 0.156863 0 0 0 0 0.152941 0 0 0 0 0.235294 0 0 0 1 0"/>
<feBlend mode="normal" in2="BackgroundImageFix" result="effect1_dropShadow_429_4612"/>
<feBlend mode="normal" in="SourceGraphic" in2="effect1_dropShadow_429_4612" result="shape"/>
</filter>
<filter id="filter3_d_429_4612" x="398.521" y="421.707" width="15.2914" height="13.6822" filterUnits="userSpaceOnUse" color-interpolation-filters="sRGB">
<feFlood flood-opacity="0" result="BackgroundImageFix"/>
<feColorMatrix in="SourceAlpha" type="matrix" values="0 0 0 0 0 0 0 0 0 0 0 0 0 0 0 0 0 0 127 0" result="hardAlpha"/>
<feOffset dx="0.965271" dy="0.965271"/>
<feComposite in2="hardAlpha" operator="out"/>
<feColorMatrix type="matrix" values="0 0 0 0 0.156863 0 0 0 0 0.152941 0 0 0 0 0.235294 0 0 0 1 0"/>
<feBlend mode="normal" in2="BackgroundImageFix" result="effect1_dropShadow_429_4612"/>
<feBlend mode="normal" in="SourceGraphic" in2="effect1_dropShadow_429_4612" result="shape"/>
</filter>
<filter id="filter4_d_429_4612" x="313.936" y="167.375" width="6.60542" height="6.60445" filterUnits="userSpaceOnUse" color-interpolation-filters="sRGB">
<feFlood flood-opacity="0" result="BackgroundImageFix"/>
<feColorMatrix in="SourceAlpha" type="matrix" values="0 0 0 0 0 0 0 0 0 0 0 0 0 0 0 0 0 0 127 0" result="hardAlpha"/>
<feOffset dx="0.943314" dy="0.943314"/>
<feComposite in2="hardAlpha" operator="out"/>
<feColorMatrix type="matrix" values="0 0 0 0 0 0 0 0 0 0 0 0 0 0 0 0 0 0 1 0"/>
<feBlend mode="normal" in2="BackgroundImageFix" result="effect1_dropShadow_429_4612"/>
<feBlend mode="normal" in="SourceGraphic" in2="effect1_dropShadow_429_4612" result="shape"/>
</filter>
<filter id="filter5_d_429_4612" x="275.453" y="176.698" width="6.60542" height="6.60445" filterUnits="userSpaceOnUse" color-interpolation-filters="sRGB">
<feFlood flood-opacity="0" result="BackgroundImageFix"/>
<feColorMatrix in="SourceAlpha" type="matrix" values="0 0 0 0 0 0 0 0 0 0 0 0 0 0 0 0 0 0 127 0" result="hardAlpha"/>
<feOffset dx="0.943314" dy="0.943314"/>
<feComposite in2="hardAlpha" operator="out"/>
<feColorMatrix type="matrix" values="0 0 0 0 0 0 0 0 0 0 0 0 0 0 0 0 0 0 1 0"/>
<feBlend mode="normal" in2="BackgroundImageFix" result="effect1_dropShadow_429_4612"/>
<feBlend mode="normal" in="SourceGraphic" in2="effect1_dropShadow_429_4612" result="shape"/>
</filter>
<filter id="filter6_d_429_4612" x="209.443" y="131.318" width="8.53332" height="8.53375" filterUnits="userSpaceOnUse" color-interpolation-filters="sRGB">
<feFlood flood-opacity="0" result="BackgroundImageFix"/>
<feColorMatrix in="SourceAlpha" type="matrix" values="0 0 0 0 0 0 0 0 0 0 0 0 0 0 0 0 0 0 127 0" result="hardAlpha"/>
<feOffset dx="1.21887" dy="1.21887"/>
<feComposite in2="hardAlpha" operator="out"/>
<feColorMatrix type="matrix" values="0 0 0 0 0 0 0 0 0 0 0 0 0 0 0 0 0 0 1 0"/>
<feBlend mode="normal" in2="BackgroundImageFix" result="effect1_dropShadow_429_4612"/>
<feBlend mode="normal" in="SourceGraphic" in2="effect1_dropShadow_429_4612" result="shape"/>
</filter>
<filter id="filter7_d_429_4612" x="337.785" y="210.254" width="8.53332" height="8.53375" filterUnits="userSpaceOnUse" color-interpolation-filters="sRGB">
<feFlood flood-opacity="0" result="BackgroundImageFix"/>
<feColorMatrix in="SourceAlpha" type="matrix" values="0 0 0 0 0 0 0 0 0 0 0 0 0 0 0 0 0 0 127 0" result="hardAlpha"/>
<feOffset dx="1.21887" dy="1.21887"/>
<feComposite in2="hardAlpha" operator="out"/>
<feColorMatrix type="matrix" values="0 0 0 0 0 0 0 0 0 0 0 0 0 0 0 0 0 0 1 0"/>
<feBlend mode="normal" in2="BackgroundImageFix" result="effect1_dropShadow_429_4612"/>
<feBlend mode="normal" in="SourceGraphic" in2="effect1_dropShadow_429_4612" result="shape"/>
</filter>
<filter id="filter8_d_429_4612" x="325.199" y="252.577" width="8.53332" height="8.53375" filterUnits="userSpaceOnUse" color-interpolation-filters="sRGB">
<feFlood flood-opacity="0" result="BackgroundImageFix"/>
<feColorMatrix in="SourceAlpha" type="matrix" values="0 0 0 0 0 0 0 0 0 0 0 0 0 0 0 0 0 0 127 0" result="hardAlpha"/>
<feOffset dx="1.21887" dy="1.21887"/>
<feComposite in2="hardAlpha" operator="out"/>
<feColorMatrix type="matrix" values="0 0 0 0 0 0 0 0 0 0 0 0 0 0 0 0 0 0 1 0"/>
<feBlend mode="normal" in2="BackgroundImageFix" result="effect1_dropShadow_429_4612"/>
<feBlend mode="normal" in="SourceGraphic" in2="effect1_dropShadow_429_4612" result="shape"/>
</filter>
<filter id="filter9_d_429_4612" x="337.508" y="135.307" width="8.53332" height="8.53375" filterUnits="userSpaceOnUse" color-interpolation-filters="sRGB">
<feFlood flood-opacity="0" result="BackgroundImageFix"/>
<feColorMatrix in="SourceAlpha" type="matrix" values="0 0 0 0 0 0 0 0 0 0 0 0 0 0 0 0 0 0 127 0" result="hardAlpha"/>
<feOffset dx="1.21887" dy="1.21887"/>
<feComposite in2="hardAlpha" operator="out"/>
<feColorMatrix type="matrix" values="0 0 0 0 0 0 0 0 0 0 0 0 0 0 0 0 0 0 1 0"/>
<feBlend mode="normal" in2="BackgroundImageFix" result="effect1_dropShadow_429_4612"/>
<feBlend mode="normal" in="SourceGraphic" in2="effect1_dropShadow_429_4612" result="shape"/>
</filter>
<filter id="filter10_d_429_4612" x="326.662" y="74.1458" width="8.53332" height="8.53375" filterUnits="userSpaceOnUse" color-interpolation-filters="sRGB">
<feFlood flood-opacity="0" result="BackgroundImageFix"/>
<feColorMatrix in="SourceAlpha" type="matrix" values="0 0 0 0 0 0 0 0 0 0 0 0 0 0 0 0 0 0 127 0" result="hardAlpha"/>
<feOffset dx="1.21887" dy="1.21887"/>
<feComposite in2="hardAlpha" operator="out"/>
<feColorMatrix type="matrix" values="0 0 0 0 0 0 0 0 0 0 0 0 0 0 0 0 0 0 1 0"/>
<feBlend mode="normal" in2="BackgroundImageFix" result="effect1_dropShadow_429_4612"/>
<feBlend mode="normal" in="SourceGraphic" in2="effect1_dropShadow_429_4612" result="shape"/>
</filter>
<filter id="filter11_d_429_4612" x="292.434" y="117.963" width="8.53332" height="8.53375" filterUnits="userSpaceOnUse" color-interpolation-filters="sRGB">
<feFlood flood-opacity="0" result="BackgroundImageFix"/>
<feColorMatrix in="SourceAlpha" type="matrix" values="0 0 0 0 0 0 0 0 0 0 0 0 0 0 0 0 0 0 127 0" result="hardAlpha"/>
<feOffset dx="1.21887" dy="1.21887"/>
<feComposite in2="hardAlpha" operator="out"/>
<feColorMatrix type="matrix" values="0 0 0 0 0 0 0 0 0 0 0 0 0 0 0 0 0 0 1 0"/>
<feBlend mode="normal" in2="BackgroundImageFix" result="effect1_dropShadow_429_4612"/>
<feBlend mode="normal" in="SourceGraphic" in2="effect1_dropShadow_429_4612" result="shape"/>
</filter>
<filter id="filter12_d_429_4612" x="286.949" y="231.839" width="8.53332" height="8.53375" filterUnits="userSpaceOnUse" color-interpolation-filters="sRGB">
<feFlood flood-opacity="0" result="BackgroundImageFix"/>
<feColorMatrix in="SourceAlpha" type="matrix" values="0 0 0 0 0 0 0 0 0 0 0 0 0 0 0 0 0 0 127 0" result="hardAlpha"/>
<feOffset dx="1.21887" dy="1.21887"/>
<feComposite in2="hardAlpha" operator="out"/>
<feColorMatrix type="matrix" values="0 0 0 0 0 0 0 0 0 0 0 0 0 0 0 0 0 0 1 0"/>
<feBlend mode="normal" in2="BackgroundImageFix" result="effect1_dropShadow_429_4612"/>
<feBlend mode="normal" in="SourceGraphic" in2="effect1_dropShadow_429_4612" result="shape"/>
</filter>
<filter id="filter13_d_429_4612" x="228.33" y="206.186" width="8.53332" height="8.53375" filterUnits="userSpaceOnUse" color-interpolation-filters="sRGB">
<feFlood flood-opacity="0" result="BackgroundImageFix"/>
<feColorMatrix in="SourceAlpha" type="matrix" values="0 0 0 0 0 0 0 0 0 0 0 0 0 0 0 0 0 0 127 0" result="hardAlpha"/>
<feOffset dx="1.21887" dy="1.21887"/>
<feComposite in2="hardAlpha" operator="out"/>
<feColorMatrix type="matrix" values="0 0 0 0 0 0 0 0 0 0 0 0 0 0 0 0 0 0 1 0"/>
<feBlend mode="normal" in2="BackgroundImageFix" result="effect1_dropShadow_429_4612"/>
<feBlend mode="normal" in="SourceGraphic" in2="effect1_dropShadow_429_4612" result="shape"/>
</filter>
<filter id="filter14_d_429_4612" x="227.877" y="137.651" width="31.2895" height="31.2904" filterUnits="userSpaceOnUse" color-interpolation-filters="sRGB">
<feFlood flood-opacity="0" result="BackgroundImageFix"/>
<feColorMatrix in="SourceAlpha" type="matrix" values="0 0 0 0 0 0 0 0 0 0 0 0 0 0 0 0 0 0 127 0" result="hardAlpha"/>
<feOffset dx="4.46918" dy="4.46918"/>
<feComposite in2="hardAlpha" operator="out"/>
<feColorMatrix type="matrix" values="0 0 0 0 0 0 0 0 0 0 0 0 0 0 0 0 0 0 1 0"/>
<feBlend mode="normal" in2="BackgroundImageFix" result="effect1_dropShadow_429_4612"/>
<feBlend mode="normal" in="SourceGraphic" in2="effect1_dropShadow_429_4612" result="shape"/>
</filter>
<filter id="filter15_d_429_4612" x="342.934" y="78.8227" width="31.2895" height="31.2904" filterUnits="userSpaceOnUse" color-interpolation-filters="sRGB">
<feFlood flood-opacity="0" result="BackgroundImageFix"/>
<feColorMatrix in="SourceAlpha" type="matrix" values="0 0 0 0 0 0 0 0 0 0 0 0 0 0 0 0 0 0 127 0" result="hardAlpha"/>
<feOffset dx="4.46918" dy="4.46918"/>
<feComposite in2="hardAlpha" operator="out"/>
<feColorMatrix type="matrix" values="0 0 0 0 0 0 0 0 0 0 0 0 0 0 0 0 0 0 1 0"/>
<feBlend mode="normal" in2="BackgroundImageFix" result="effect1_dropShadow_429_4612"/>
<feBlend mode="normal" in="SourceGraphic" in2="effect1_dropShadow_429_4612" result="shape"/>
</filter>
<filter id="filter16_d_429_4612" x="320.697" y="177.815" width="31.2895" height="31.2904" filterUnits="userSpaceOnUse" color-interpolation-filters="sRGB">
<feFlood flood-opacity="0" result="BackgroundImageFix"/>
<feColorMatrix in="SourceAlpha" type="matrix" values="0 0 0 0 0 0 0 0 0 0 0 0 0 0 0 0 0 0 127 0" result="hardAlpha"/>
<feOffset dx="4.46918" dy="4.46918"/>
<feComposite in2="hardAlpha" operator="out"/>
<feColorMatrix type="matrix" values="0 0 0 0 0 0 0 0 0 0 0 0 0 0 0 0 0 0 1 0"/>
<feBlend mode="normal" in2="BackgroundImageFix" result="effect1_dropShadow_429_4612"/>
<feBlend mode="normal" in="SourceGraphic" in2="effect1_dropShadow_429_4612" result="shape"/>
</filter>
<filter id="filter17_d_429_4612" x="272.041" y="192.054" width="31.2895" height="31.2904" filterUnits="userSpaceOnUse" color-interpolation-filters="sRGB">
<feFlood flood-opacity="0" result="BackgroundImageFix"/>
<feColorMatrix in="SourceAlpha" type="matrix" values="0 0 0 0 0 0 0 0 0 0 0 0 0 0 0 0 0 0 127 0" result="hardAlpha"/>
<feOffset dx="4.46918" dy="4.46918"/>
<feComposite in2="hardAlpha" operator="out"/>
<feColorMatrix type="matrix" values="0 0 0 0 0 0 0 0 0 0 0 0 0 0 0 0 0 0 1 0"/>
<feBlend mode="normal" in2="BackgroundImageFix" result="effect1_dropShadow_429_4612"/>
<feBlend mode="normal" in="SourceGraphic" in2="effect1_dropShadow_429_4612" result="shape"/>
</filter>
<filter id="filter18_d_429_4612" x="156.512" y="133.132" width="31.2895" height="31.2904" filterUnits="userSpaceOnUse" color-interpolation-filters="sRGB">
<feFlood flood-opacity="0" result="BackgroundImageFix"/>
<feColorMatrix in="SourceAlpha" type="matrix" values="0 0 0 0 0 0 0 0 0 0 0 0 0 0 0 0 0 0 127 0" result="hardAlpha"/>
<feOffset dx="4.46918" dy="4.46918"/>
<feComposite in2="hardAlpha" operator="out"/>
<feColorMatrix type="matrix" values="0 0 0 0 0 0 0 0 0 0 0 0 0 0 0 0 0 0 1 0"/>
<feBlend mode="normal" in2="BackgroundImageFix" result="effect1_dropShadow_429_4612"/>
<feBlend mode="normal" in="SourceGraphic" in2="effect1_dropShadow_429_4612" result="shape"/>
</filter>
<filter id="filter19_d_429_4612" x="176.309" y="174.6" width="8.53332" height="8.53375" filterUnits="userSpaceOnUse" color-interpolation-filters="sRGB">
<feFlood flood-opacity="0" result="BackgroundImageFix"/>
<feColorMatrix in="SourceAlpha" type="matrix" values="0 0 0 0 0 0 0 0 0 0 0 0 0 0 0 0 0 0 127 0" result="hardAlpha"/>
<feOffset dx="1.21887" dy="1.21887"/>
<feComposite in2="hardAlpha" operator="out"/>
<feColorMatrix type="matrix" values="0 0 0 0 0 0 0 0 0 0 0 0 0 0 0 0 0 0 1 0"/>
<feBlend mode="normal" in2="BackgroundImageFix" result="effect1_dropShadow_429_4612"/>
<feBlend mode="normal" in="SourceGraphic" in2="effect1_dropShadow_429_4612" result="shape"/>
</filter>
<filter id="filter20_d_429_4612" x="351.992" y="338.993" width="62.7883" height="62.7886" filterUnits="userSpaceOnUse" color-interpolation-filters="sRGB">
<feFlood flood-opacity="0" result="BackgroundImageFix"/>
<feColorMatrix in="SourceAlpha" type="matrix" values="0 0 0 0 0 0 0 0 0 0 0 0 0 0 0 0 0 0 127 0" result="hardAlpha"/>
<feOffset dx="3.67114" dy="3.67114"/>
<feComposite in2="hardAlpha" operator="out"/>
<feColorMatrix type="matrix" values="0 0 0 0 0 0 0 0 0 0 0 0 0 0 0 0 0 0 1 0"/>
<feBlend mode="normal" in2="BackgroundImageFix" result="effect1_dropShadow_429_4612"/>
<feBlend mode="normal" in="SourceGraphic" in2="effect1_dropShadow_429_4612" result="shape"/>
</filter>
<filter id="filter21_d_429_4612" x="351.994" y="338.994" width="62.7883" height="62.7886" filterUnits="userSpaceOnUse" color-interpolation-filters="sRGB">
<feFlood flood-opacity="0" result="BackgroundImageFix"/>
<feColorMatrix in="SourceAlpha" type="matrix" values="0 0 0 0 0 0 0 0 0 0 0 0 0 0 0 0 0 0 127 0" result="hardAlpha"/>
<feOffset dx="3.67114" dy="3.67114"/>
<feComposite in2="hardAlpha" operator="out"/>
<feColorMatrix type="matrix" values="0 0 0 0 0 0 0 0 0 0 0 0 0 0 0 0 0 0 1 0"/>
<feBlend mode="normal" in2="BackgroundImageFix" result="effect1_dropShadow_429_4612"/>
<feBlend mode="normal" in="SourceGraphic" in2="effect1_dropShadow_429_4612" result="shape"/>
</filter>
<filter id="filter22_d_429_4612" x="360.967" y="348.869" width="33.7602" height="38.9624" filterUnits="userSpaceOnUse" color-interpolation-filters="sRGB">
<feFlood flood-opacity="0" result="BackgroundImageFix"/>
<feColorMatrix in="SourceAlpha" type="matrix" values="0 0 0 0 0 0 0 0 0 0 0 0 0 0 0 0 0 0 127 0" result="hardAlpha"/>
<feOffset dx="0.965271" dy="0.965271"/>
<feComposite in2="hardAlpha" operator="out"/>
<feColorMatrix type="matrix" values="0 0 0 0 0.156863 0 0 0 0 0.152941 0 0 0 0 0.235294 0 0 0 1 0"/>
<feBlend mode="normal" in2="BackgroundImageFix" result="effect1_dropShadow_429_4612"/>
<feBlend mode="normal" in="SourceGraphic" in2="effect1_dropShadow_429_4612" result="shape"/>
</filter>
<filter id="filter23_d_429_4612" x="373.395" y="359.807" width="15.3422" height="13.8156" filterUnits="userSpaceOnUse" color-interpolation-filters="sRGB">
<feFlood flood-opacity="0" result="BackgroundImageFix"/>
<feColorMatrix in="SourceAlpha" type="matrix" values="0 0 0 0 0 0 0 0 0 0 0 0 0 0 0 0 0 0 127 0" result="hardAlpha"/>
<feOffset dx="0.965271" dy="0.965271"/>
<feComposite in2="hardAlpha" operator="out"/>
<feColorMatrix type="matrix" values="0 0 0 0 0.156863 0 0 0 0 0.152941 0 0 0 0 0.235294 0 0 0 1 0"/>
<feBlend mode="normal" in2="BackgroundImageFix" result="effect1_dropShadow_429_4612"/>
<feBlend mode="normal" in="SourceGraphic" in2="effect1_dropShadow_429_4612" result="shape"/>
</filter>
<linearGradient id="paint0_linear_429_4612" x1="370" y1="318.5" x2="282.918" y2="35.7825" gradientUnits="userSpaceOnUse">
<stop stop-color="#BDA6FF" stop-opacity="0"/>
<stop offset="0.359672" stop-color="#BDA6FF" stop-opacity="0.470993"/>
<stop offset="1" stop-color="white" stop-opacity="0.84"/>
</linearGradient>
<linearGradient id="paint1_linear_429_4612" x1="353.833" y1="327.863" x2="194.51" y2="79.523" gradientUnits="userSpaceOnUse">
<stop stop-color="#BDA6FF" stop-opacity="0"/>
<stop offset="0.359672" stop-color="#BDA6FF" stop-opacity="0.470993"/>
<stop offset="1" stop-color="white" stop-opacity="0.84"/>
</linearGradient>
<clipPath id="clip0_429_4612">
<rect width="749" height="618" fill="white"/>
</clipPath>
<clipPath id="clip1_429_4612">
<rect width="521" height="502" fill="white" transform="translate(171 115)"/>
</clipPath>
</defs>
</svg>
