<svg width="322" height="348" viewBox="0 0 322 348" fill="none" xmlns="http://www.w3.org/2000/svg">
<g clip-path="url(#clip0_439_10770)">
<path d="M124.068 325.637L120.055 349.901C127.573 352.159 135.454 352.964 143.274 352.271C154.323 351.077 167.109 353.41 246.08 353.41C252.388 353.41 260.134 353.13 260.134 351.973C260.134 350.815 257.279 344.096 256.7 339.934C256.121 335.772 253.676 322.576 251.828 318.861C249.981 315.147 196.618 288.606 173.436 300.364C150.254 312.123 124.068 325.637 124.068 325.637Z" fill="#FF9C9F"/>
<path d="M206.805 248.379C206.95 249.041 207.019 249.718 207.011 250.395C207.011 250.712 206.469 251.03 206.059 251.291C204.547 252.28 169.457 276.395 169.364 276.097C168.524 272.774 166.265 276.321 188.178 260.848C199.582 252.822 204.286 249.779 205.797 248.771C206.208 248.491 206.712 248.23 206.805 248.379Z" fill="#D9D9D9"/>
<path d="M188.608 253.775C190.642 252.524 190.81 251.796 186.741 251.442C185.435 251.33 166.061 250.247 162.477 250.247C160.181 250.247 160.424 249.445 159.546 247.018C159.285 246.328 159.546 246.496 164.082 246.645C170.111 246.85 199.041 247.41 203.801 248.045C202.98 248.791 168.132 272.141 168.039 271.843C166.639 267.419 166.396 267.438 166.994 267.419C169.532 267.419 169.514 267.68 171.791 265.851C173.302 264.545 187.058 254.69 188.608 253.775Z" fill="#D9D9D9"/>
<path d="M186.464 252.82C185.475 253.977 170.282 264.766 169.535 265.213C168.285 265.941 165.802 265.96 165.448 265.064C164.18 262.109 163.132 259.065 162.312 255.956C160.893 251.551 161.024 251.737 162.853 251.737C170.86 252.129 184.243 252.428 186.464 252.82Z" fill="#D9D9D9"/>
<path d="M102.095 233.483C101.965 239.531 96.6453 242.162 92.5203 239.344C86.9209 235.611 86.9209 228.873 90.2619 225.737C93.6029 222.602 101.199 224.879 102.095 233.483Z" fill="#D9D9D9"/>
<path d="M165.558 272.232C167.312 277.234 167.312 277.029 166.267 277.085L146.519 276.973C147.291 276.139 148.184 275.428 149.17 274.863C150.178 274.322 151.14 273.698 152.044 272.997C152.331 272.728 152.538 272.386 152.643 272.007C152.748 271.629 152.748 271.229 152.641 270.85C152.436 269.805 153.108 270.011 155.217 268.984C155.581 268.81 155.891 268.541 156.113 268.204C156.335 267.868 156.462 267.478 156.479 267.075C156.497 266.672 156.404 266.272 156.211 265.918C156.018 265.564 155.733 265.269 155.385 265.064C148.442 260.958 132.521 274.303 126.511 270.664C128.19 268.984 130.412 268.48 133.977 265.064C137.436 262.026 140.662 258.732 143.626 255.209C145.493 252.746 142.544 250.935 139.595 251.719C136.778 252.518 134.256 254.12 132.334 256.329C130.748 258.625 128.284 258.924 124.215 261.014C121.023 262.675 115.704 267.061 109.563 263.422C106.726 261.723 108.742 259.11 110.758 256.479C117.832 247.146 111.952 242.984 108.406 247.725C103.497 254.276 107.137 249.237 100.175 257.318C98.4201 259.372 99.0547 260.118 96.8149 267.341C93.8472 276.935 101.164 275.031 83.0029 274.135C83.0029 274.135 69.1536 272.904 65.7006 272.456C64.5621 272.306 63.8341 271.952 61.1837 263.814C60.8291 262.731 58.384 257.057 57.2828 254.108C54.7257 247.389 48.7156 228.668 41.343 209.648C38.002 201.025 40.4098 198.898 46.7185 197.703C57.6187 195.65 107.342 197.012 118.447 197.908C149.916 200.503 137.448 192.421 165.558 272.232ZM86.2693 233.409C88.1358 244.888 103.572 246.157 104.15 233.801C103.609 218.533 83.9175 218.645 86.2693 233.409Z" fill="#D9D9D9"/>
<path d="M206.134 38.792C207.496 40.2665 209.232 39.8559 208.765 40.6585C206.003 45.754 207.925 47.9191 204.342 45.1567C202.904 44.1115 205.462 38.0454 206.134 38.792Z" fill="#FF9C9F"/>
<path d="M94.9129 277.221C95.8835 277.351 95.8835 277.351 95.8835 278.546C95.5528 280.395 95.5212 282.286 95.7901 284.145C94.7879 283.512 94.0475 282.539 93.7047 281.404C93.3619 280.27 93.4396 279.049 93.9237 277.967C94.073 277.127 94.1103 277.109 94.9129 277.221Z" fill="#FFC280"/>
<path d="M116.524 287.578C117.607 286.496 124.569 286.234 123.673 287.223C112.008 300.289 97.7289 296.164 93.8093 292.132C90.2817 288.399 88.8818 288.791 86.7727 286.178C84.2342 283.024 83.1517 282.091 82.7037 280.262C81.7518 276.529 81.1359 276.211 82.3678 276.361C93.0627 277.686 91.3642 275.838 91.0282 280.392C90.8976 282.128 92.0175 283.341 94.7612 286.589C95.9306 287.657 97.1785 288.637 98.4942 289.519C101.46 291.425 104.938 292.376 108.461 292.244C111 292.114 114.471 289.669 116.524 287.578Z" fill="#FFC280"/>
<path d="M175.002 275.203C180.229 271.862 180.061 270.723 179.65 273.243C178.287 281.586 181.516 293.775 179.389 309.658C178.692 313.041 178.54 316.513 178.941 319.943C179.538 322.985 178.717 325.934 178.381 330.507C178.381 330.955 178.25 331.235 177.839 331.328C176.984 331.573 176.085 331.624 175.208 331.478C168.837 330.221 162.339 329.732 155.852 330.022C144.168 330.022 145.064 327.875 134.369 325.673C130.095 324.796 131.681 326.214 117.739 322.948C116.19 322.593 118.709 316.826 120.874 303.984C123.226 289.892 124.439 289.93 126.25 287.503C127.22 286.215 128.602 288.436 134.537 286.309C139.035 284.703 142.918 284.591 145.157 282.576C145.941 281.866 147.36 281.418 147.416 280.224C147.416 279.813 147.584 279.664 148.312 279.608C149.04 279.552 167.574 279.739 167.984 279.608C169.664 279.291 170.728 277.928 175.002 275.203Z" fill="#FFC280"/>
<path d="M231.854 199.742C232.097 203.363 233.03 207.488 229.26 208.515C225.023 209.412 220.685 209.738 216.362 209.485C213.277 208.993 210.144 208.874 207.03 209.13C204.155 209.261 200.255 209.466 200.74 206.405C201.822 199.443 200.497 184.362 200.479 184.008C200.479 182.44 200.665 181.805 201.916 181.973C203.157 182.105 204.408 182.105 205.649 181.973C208.131 181.749 212.387 181.656 214.272 183.298C215.448 184.325 216.736 184.885 218.005 183.933C219.278 182.973 220.763 182.333 222.335 182.066C225.542 181.6 228.782 181.394 232.022 181.451C231.562 187.537 231.506 193.648 231.854 199.742ZM220.525 206.107C220.749 207.264 222.503 207.339 222.391 205.752C221.215 195.766 223.324 184.885 221.066 184.866C220.17 184.866 220.095 198.809 220.189 200.47C220.091 202.353 220.179 204.241 220.45 206.107H220.525ZM210.558 206.293C210.912 200.489 210.296 202.934 210.203 186.77C210.203 186.005 210.203 184.903 209.531 184.736C208.859 184.568 208.598 185.09 208.56 185.687C208.182 192.612 208.3 199.554 208.915 206.461C208.896 207.451 210.427 207.413 210.483 206.293H210.558Z" fill="#FFC280"/>
<path d="M233.607 170.121C233.844 172.962 233.521 175.822 232.656 178.539C231.909 180.835 228.027 178.539 222.147 179.883C220.214 180.13 218.373 180.855 216.79 181.992C215.708 182.776 216.361 180.984 211.807 180.238C206.805 179.435 203.594 180.238 201.205 179.715C197.808 178.912 198.965 174.47 199.003 174.47C198.63 166.874 197.248 168.535 217.537 167.993C232.824 167.583 233.402 167.601 233.607 170.121ZM218.134 177.363C218.34 175.217 214.644 175.179 215.017 177.68C215.074 178.081 215.285 178.444 215.603 178.694C215.922 178.943 216.325 179.06 216.728 179.019C217.131 178.978 217.502 178.782 217.764 178.474C218.026 178.165 218.159 177.767 218.134 177.363Z" fill="#FFC280"/>
<path d="M174.552 128.289C174.759 129.455 174.643 130.656 174.216 131.761C172.984 125.34 167.385 130.529 166.302 136.987C164.734 146.17 165.033 146.916 164.548 146.189C158.575 137.136 160.404 143.818 157.418 133.515C156.537 131.296 154.812 129.518 152.621 128.569C151.501 127.99 150.213 126.105 150.568 125.564C152.733 122.372 151.034 121.532 154.805 116.903C155.587 115.919 156.476 115.023 157.455 114.234C157.083 115.625 157.205 117.102 157.801 118.412C158.397 119.723 159.429 120.786 160.721 121.42C163.092 122.876 162.345 124.967 166.676 125.751C171.734 126.702 174.179 126.721 174.552 128.289ZM161.487 139.637C161.487 141.914 164.585 141.504 163.838 139.283C163.558 138.424 163.204 138.2 162.308 138.331C161.785 138.461 161.561 138.835 161.561 139.675L161.487 139.637Z" fill="#FFC280"/>
<path d="M303.49 59.8851C311.367 60.4824 317.675 62.3862 317.451 70.4494C317.302 75.8249 318.291 73.4918 312.58 72.0359C306.868 70.58 303.005 70.1694 291.806 74.481C289.025 75.5636 281.186 78.8299 277.863 82.2642C277.716 82.4099 277.611 82.5924 277.558 82.7927C277.506 82.993 277.508 83.2036 277.565 83.4028C277.565 83.7201 277.901 84.0934 278.703 83.6641C284.489 80.4911 300.802 70.1694 313.046 74.8543C323.256 78.7366 318.03 87.1544 316.462 86.0532C309.836 81.6296 291.75 84.56 283.425 85.8479C281.857 86.0905 282.492 87.2104 283.425 87.2851C290.275 87.845 317.638 82.2456 316.593 91.7273C315.118 105.091 295.688 119.893 285.404 130.606C280.626 135.571 275.231 145.93 266.067 155.916C257.351 165.416 254.682 174.021 251.434 171.389C233.553 156.924 231.164 135.198 229.521 134.451C229.39 134.385 229.242 134.357 229.096 134.371C228.949 134.385 228.809 134.44 228.692 134.529C228.575 134.619 228.486 134.74 228.435 134.878C228.383 135.016 228.372 135.165 228.401 135.31C229.913 151.268 249.567 177.474 254.01 173.927C254.053 189.406 253.124 204.872 251.229 220.235C248.802 237.238 246.226 242.633 246.656 249.016C248.671 279.365 250.893 272.384 253.002 287.092C254.961 300.718 254.737 294.558 259.721 312.252C261.587 318.897 261.214 318.3 260.542 318.748C251.751 324.552 253.58 323.507 244.435 325.038C234.523 326.718 237.696 332.056 214.757 330.133C205.145 329.331 211.864 328.267 197.959 331.123C193.983 331.944 195.085 332.037 192.229 332.018C190.194 332.018 189.747 332.186 189.411 331.104C185.118 316.751 188.907 324.646 182.747 304.824C181.459 300.718 182.747 297.544 182.262 293.326C182.169 292.561 181.702 285.674 181.665 283.844C181.31 269.435 182.318 269.846 183.886 268.726C211.883 248.755 208.561 252.992 208.467 247.915C208.467 245.6 202.868 246.795 185.659 245.526C183.942 245.395 183.792 245.731 183.68 244.76C182.915 229.175 184.184 225.536 184.091 220.272C183.979 211.985 180.489 211.052 181.179 200.133C181.963 187.515 182.262 192.797 181.273 179.34C181.123 177.324 181.105 172.863 180.955 170.642C180.4 166.763 180.052 162.856 179.91 158.939C179.91 152.015 181.777 131.67 187.208 127.209C192.64 122.748 193.013 125.585 197.828 120.882C203.428 115.282 204.38 114.498 206.862 110.317C208.001 108.451 207.049 107.742 206.004 106.585C206.778 106.176 207.634 105.95 208.509 105.924C209.384 105.897 210.253 106.07 211.05 106.43C211.848 106.79 212.552 107.328 213.111 108.001C213.669 108.675 214.066 109.467 214.272 110.317C215.112 113.323 216.139 113.64 217.501 117.13C221.346 127.545 208.841 130.662 207.049 137.232C206.318 139.547 204.969 141.618 203.148 143.224C202.476 143.989 201.281 140.555 201.132 139.491C200.749 138.172 200.058 136.963 199.116 135.963C195.085 130.923 194.263 124.521 187.357 129.953C185.491 131.371 183.139 138.445 184.819 138.856C186.499 139.267 186.685 132.603 189.131 131.39C190.605 130.662 191.296 129.188 192.546 130.55C195.122 133.313 195.813 135.664 198.146 138.539C198.762 139.267 201.207 149.103 204.025 145.445C204.772 144.474 205.705 143.578 206.489 142.701C209.662 138.8 208.355 137.288 210.987 134.88C215.485 130.942 219.181 127.564 220.32 122.692C220.562 121.907 220.619 121.077 220.488 120.266C220.245 119.202 220.17 118.119 219.928 117.037C219.685 115.954 218.49 114.704 219.685 114.741C226.796 114.928 226.815 115.637 230.025 114.032C242.456 107.854 233.758 110.112 254.196 100.966C263.921 96.6548 266.03 90.2528 268.157 90.9434C270.285 91.634 271.89 90.9434 276.557 89.5622C277.079 89.4129 277.639 89.3569 277.938 88.5543C277.983 88.4392 278.004 88.3163 278.002 88.1927C277.999 88.0691 277.971 87.9474 277.921 87.8345C277.87 87.7217 277.798 87.6199 277.708 87.5352C277.618 87.4505 277.512 87.3845 277.397 87.3411C275.866 86.7811 269.707 91.074 268.307 88.069C267.094 85.4186 266.291 84.0561 267.542 82.3389C273.757 73.9211 271.909 78.1206 278.311 70.0201C281.366 66.4092 285.257 63.5987 289.645 61.8325C294.033 60.0663 298.785 59.3978 303.49 59.8851ZM237.118 124.223C238.984 162.374 252.236 157.222 248.018 154.423C238.686 148.17 240.011 122.039 237.883 117.709C237.584 117.111 236.558 116.72 236.315 118.045C236.185 118.81 236.931 120.471 237.118 124.223ZM234.15 180.049C235.326 178.183 235.718 173.61 235.681 171.277C235.681 165.323 236.259 165.192 207.217 166.144C198.444 166.424 196.279 164.856 196.876 177.119C197.026 180.348 198.855 180.441 198.631 181.505C197.828 185.499 198.818 186.787 198.855 188.467C199.042 202.596 199.266 203.026 198.724 205.993C198.574 206.515 198.534 207.062 198.607 207.599C198.679 208.137 198.863 208.654 199.145 209.117C199.427 209.58 199.803 209.98 200.248 210.29C200.693 210.601 201.197 210.815 201.729 210.921C206.601 212.246 206.769 210.23 216.251 211.686C217.594 211.91 228.644 211.108 228.793 211.089C235.755 209.857 233.796 202.111 233.777 201.757C233.368 196.447 233.281 191.118 233.516 185.798C233.721 182.756 233.086 181.748 234.15 180.049ZM202.42 138.8C202.868 140.088 204.865 139.547 204.828 138.24C204.212 135.198 201.767 136.635 202.495 138.8H202.42ZM188.627 314.343C187.581 317.311 191.65 318.076 191.464 314.791C191.445 313.26 189.373 312.439 188.701 314.343H188.627ZM186.312 219.32C186.337 219.696 186.51 220.047 186.794 220.296C187.077 220.544 187.448 220.67 187.824 220.645C188.2 220.621 188.551 220.447 188.8 220.164C189.048 219.88 189.174 219.51 189.149 219.133C189.182 218.923 189.166 218.709 189.104 218.505C189.043 218.302 188.936 218.115 188.792 217.959C188.648 217.802 188.471 217.68 188.274 217.601C188.076 217.522 187.864 217.488 187.652 217.503C187.439 217.517 187.233 217.579 187.048 217.684C186.863 217.788 186.704 217.933 186.583 218.108C186.461 218.282 186.381 218.482 186.347 218.692C186.313 218.902 186.327 219.116 186.387 219.32H186.312ZM188.645 239.553C188.963 237.817 186.779 237.332 186.256 238.022C184.352 240.878 188.179 242.502 188.72 239.553H188.645ZM186.219 294.95C186.429 294.963 186.639 294.933 186.838 294.864C187.036 294.795 187.219 294.686 187.375 294.546C187.531 294.405 187.658 294.235 187.748 294.045C187.838 293.854 187.889 293.648 187.899 293.438C187.914 293.014 187.762 292.6 187.476 292.286C187.19 291.972 186.792 291.783 186.368 291.758C184.819 291.684 184.147 294.969 186.294 294.95H186.219ZM186.35 274.419C186.35 273.542 185.976 273.15 184.856 272.963C182.99 273.467 183.177 276.155 184.856 276.229C185.808 276.341 186.331 275.744 186.424 274.493L186.35 274.419ZM186.35 198.863C186.35 197.874 185.958 197.426 184.894 197.314C184.166 197.314 183.55 197.52 183.438 198.957C183.326 200.954 186.2 201.309 186.331 198.938L186.35 198.863ZM185.92 178.817C185.92 176.746 182.878 176.279 182.822 178.705C182.78 179.116 182.901 179.526 183.16 179.848C183.418 180.169 183.793 180.376 184.203 180.423C184.417 180.443 184.633 180.419 184.837 180.352C185.042 180.285 185.23 180.176 185.389 180.032C185.549 179.888 185.677 179.712 185.765 179.516C185.854 179.32 185.9 179.107 185.902 178.892L185.92 178.817ZM181.87 159.835C181.87 161.907 184.95 161.59 184.819 159.331C184.726 157.838 181.777 157.857 181.87 159.835Z" fill="#FFC280"/>
<path d="M181.46 241.081C181.665 246.867 183.513 245.654 170.261 245.225C158.353 244.814 159.062 245.038 158.633 243.862C146.221 208.399 146.015 200.746 139.072 198.264C132.875 196.043 127.873 196.995 127.668 195.613C126.511 182.081 129.142 180.29 127.668 171.834C127.668 171.237 126.287 170.659 126.343 172.376C126.469 176.121 126.25 179.87 125.689 183.575C124.532 192.216 126.361 196.061 124.961 196.043C120.482 196.043 107.024 194.979 90.4128 194.475C89.9275 194.475 90.0955 194.326 90.2075 194.139C92.2979 191.078 93.2125 188.782 95.415 189.771C97.3069 190.407 99.3581 190.384 101.235 189.706C103.113 189.028 104.705 187.736 105.755 186.038C105.755 185.908 107.192 182.156 107.211 182.119C107.566 181.074 107.454 182.119 114.36 182.119C118.821 182.119 123.487 174.653 122.74 169.912C122.143 165.936 123.487 163.902 119.978 160.038C113.781 153.207 108.238 157.388 107.752 164.033C107.752 164.91 106.801 164.723 106.595 164.257C106.035 162.95 105.531 161.233 103.516 161.102C102.806 161.102 102.676 160.897 104.635 157.481C106.595 154.066 108.182 152.927 110.235 152.236C113.557 151.116 113.352 148.503 115.536 147.682C127.444 143.296 123.002 138.704 146.501 129.26C148.498 128.476 148.722 127.767 149.076 128.401C150.943 131.518 154.676 130.697 155.758 136.222C156.008 138.934 157.259 141.456 159.267 143.296C162.683 146.208 163.56 152.012 165.987 149.082C168.413 146.152 166.752 133.478 171.586 131.201C172.65 134.113 171.418 142.4 176.383 145.984C179.593 148.354 177.018 152.46 178.511 169.856C181.049 199.309 176.999 200.728 179.761 210.713C184.036 225.608 180.601 217.19 181.46 241.081Z" fill="#FFC280"/>
<path d="M187.975 111.663C190.196 111.402 190.401 112.951 190.028 114.089C189.996 114.319 189.908 114.538 189.773 114.727C189.638 114.915 189.459 115.069 189.252 115.173C189.045 115.278 188.815 115.331 188.583 115.327C188.351 115.324 188.123 115.264 187.919 115.153C187.322 114.929 186.818 114.5 186.631 115.153C186.444 115.806 187.34 117.132 186.034 118.065C185.399 118.513 184.279 118.55 183.439 116.796C183.356 116.612 183.218 116.458 183.045 116.354C182.871 116.251 182.67 116.203 182.469 116.217C181.293 116.217 182.114 118.196 180.192 118.867C178.68 119.409 177.859 118.643 177.355 117.001C177.019 115.918 175.992 116.03 175.6 116.908C175.04 118.196 172.427 118.774 172.072 116.684C171.792 115.041 172.296 114.425 170.598 114.201C170.215 114.228 169.835 114.114 169.529 113.882C169.224 113.65 169.012 113.315 168.935 112.939C168.858 112.563 168.919 112.171 169.108 111.837C169.297 111.503 169.601 111.249 169.963 111.122C170.897 110.73 172.166 112.727 173.398 110.935C173.625 110.503 174.011 110.178 174.475 110.028C174.939 109.878 175.443 109.915 175.88 110.132C176.505 110.523 177.024 111.062 177.392 111.7C177.635 112.111 178.027 112.185 178.232 111.887C178.504 111.431 178.676 110.922 178.736 110.394C179.072 109.162 180.416 108.322 181.368 109.33C182.319 110.338 182.207 111.346 183.066 111.439C183.925 111.532 183.794 111.103 184.41 110.132C185.548 108.266 186.818 108.452 186.986 110.319C187.06 111.495 187.06 111.775 187.975 111.663Z" fill="#585858"/>
<path d="M211.455 22.8919C221.273 21.0254 220.582 34.2401 218.679 33.1015C218.044 32.7282 217.559 32.9895 217.521 32.1683C217.429 31.1623 217.09 30.1945 216.534 29.3509C215.978 28.5073 215.223 27.8139 214.335 27.332C213.447 26.8502 212.454 26.5949 211.444 26.5888C210.433 26.5826 209.437 26.8258 208.544 27.2968C207.106 28.1367 197.345 18.5803 187.49 14.754C182.525 12.8875 180.192 11.7489 178.848 11.2263C178.266 10.9538 177.635 10.8032 176.993 10.784C176.351 10.7647 175.712 10.8771 175.115 11.1143C173.957 11.4639 172.909 12.1069 172.072 12.9808C171.345 14.0261 169.945 12.3089 167.462 14.1007C167.014 14.418 166.044 14.8473 165.969 15.7432C165.894 16.6391 164.942 16.6205 164.252 17.0124C162.105 18.1323 158.466 20.7454 157.663 23.0785C157.197 24.4436 156.394 25.6695 155.33 26.6435C153.725 28.7899 156.842 30.3765 158.895 29.5739C160.81 28.743 162.444 27.3751 163.599 25.6356C164.327 24.721 165.11 24.777 167.742 24.7397C168.601 24.7397 168.657 24.9637 169.291 25.5236C167.126 27.3901 161.396 27.0541 158.82 31.963C157.682 34.1094 157.103 33.8295 154.975 36.9651C154.322 37.9357 154.621 39.6715 157.402 39.8769C158.284 39.9755 159.178 39.857 160.004 39.5317C160.83 39.2064 161.564 38.6842 162.143 38.0104C166.081 34.6694 164.009 34.5947 167.742 34.7254C169.959 34.6684 172.149 34.2328 174.219 33.4375C174.816 33.2695 184.111 39.8395 189.151 41.0527C192.546 41.8163 196.011 42.2291 199.491 42.2846C200.275 42.2846 202.608 43.4418 202.142 43.9458C198.968 47.5481 196.934 44.7484 194.806 44.5617C192.678 44.3751 191.988 45.663 189.524 44.5617C188.479 44.1138 189.057 41.762 187.303 43.1432C186.533 43.6533 185.609 43.8767 184.691 43.7744C183.773 43.672 182.921 43.2504 182.282 42.5833C181.648 41.874 180.416 41.5567 180.416 42.6953C180.541 43.1762 180.531 43.6823 180.388 44.1582C180.244 44.634 179.972 45.0611 179.602 45.3927C179.232 45.7243 178.778 45.9476 178.289 46.0381C177.8 46.1285 177.296 46.0827 176.832 45.9056C175.824 45.6443 175.805 44.0391 174.965 44.1884C173.622 44.5057 175.544 49.3959 170.617 47.9214C170.187 47.7585 169.795 47.5091 169.465 47.1886C169.135 46.8681 168.875 46.4834 168.7 46.0582C168.525 45.6331 168.439 45.1765 168.448 44.7169C168.457 44.2572 168.559 43.8042 168.75 43.3858C169.142 42.8072 169.329 42.0606 168.75 41.6687C167.35 40.7168 166.884 44.7111 163.879 41.9673C163.039 41.2021 162.721 41.762 162.348 42.8259C162.008 43.788 161.331 44.5942 160.442 45.0953C159.553 45.5964 158.513 45.7582 157.514 45.551C155.647 45.159 154.453 42.2846 153.333 43.0499C151.616 44.2258 157.178 49.0973 151.466 53.8008C147.416 57.1232 147.734 51.2251 147.734 51.1691C147.716 51.0322 147.661 50.903 147.573 50.7966C147.485 50.6901 147.369 50.6107 147.238 50.5677C147.107 50.5247 146.967 50.5198 146.833 50.5535C146.699 50.5873 146.578 50.6584 146.483 50.7585C145.886 51.2624 145.792 52.4943 143.833 53.4089C140.828 54.7901 137.878 49.6759 141.145 47.6041C143.422 46.1856 143.011 46.0923 141.499 45.383C141.104 45.2328 140.754 44.9842 140.482 44.6607C140.21 44.3372 140.025 43.9496 139.944 43.5346C139.864 43.1197 139.891 42.691 140.023 42.2893C140.154 41.8877 140.386 41.5263 140.697 41.2394C140.958 40.9594 141.574 40.5675 141.257 39.9329C140.94 39.2982 140.548 39.1676 139.932 39.2049C136.815 39.4102 134.332 34.4081 137.487 30.8244C137.846 30.3562 138.348 30.0175 138.917 29.8593C139.486 29.7011 140.091 29.7319 140.641 29.9472C141.518 30.0592 142.022 29.4246 141.611 28.622C138.868 23.3771 144.84 18.3003 149.077 22.5186C149.507 22.9665 149.656 23.6198 150.683 23.2652C151.709 22.9105 151.28 22.0706 150.963 21.1187C150.508 19.9537 150.514 18.6595 150.978 17.4984C151.443 16.3373 152.331 15.3963 153.464 14.866C155.442 14.2314 159.063 17.3484 157.962 13.8581C155.199 5.53356 167.294 -0.401862 170.467 7.56802C170.859 8.59459 171.569 9.13587 172.054 8.23996C173.136 6.37348 173.136 4.33901 175.675 2.99514C178.213 1.65127 179.594 0.998002 181.461 2.90182C183.327 4.80563 183.141 7.86666 184.783 6.20549C188.908 2.08056 189.561 9.15454 191.26 9.15454C192.958 9.15454 191.727 6.97075 195.273 4.84296C197.942 3.25645 200.144 2.52852 202.347 4.69364C205.594 7.90399 203.429 11.2077 204.101 12.6449C205.109 14.7913 207.069 9.39718 209.589 10.7784C210.374 11.3089 211.006 12.0364 211.422 12.888C211.838 13.7397 212.024 14.6856 211.959 15.6312C212.276 19.6815 205.52 23.9931 211.455 22.8919Z" fill="#585858"/>
<path d="M153.612 266.261C154.881 267.157 153.911 267.605 151.988 268.315C142.525 271.879 140.789 273.914 132.745 277.535C131.102 278.263 130.692 278.45 131.046 279.14C132.315 281.679 148.759 271.114 150.626 271.114C151.055 271.114 151.242 271.357 151.092 271.767C150.794 272.607 149.804 272.925 148.666 273.503C143.888 276.004 142.338 279.625 134.387 281.081C133.314 281.283 132.254 281.551 131.214 281.884C130.822 282.014 130.804 282.369 130.86 282.742C130.916 283.116 131.102 283.34 133.473 282.91C141.704 281.399 138.512 279.831 145.138 279.625C146.333 279.625 145.642 280.633 143.869 281.492C142.26 282.141 140.615 282.695 138.941 283.153C128.097 286.886 124.364 283.937 118.541 284.87C112.288 285.841 111.355 292.224 103.833 289.014C94.8738 285.281 98.6627 279.196 98.0468 275.295C97.5428 272.178 98.2894 271.077 99.6706 265.309C101.052 259.542 98.756 261.259 110.59 248.119C112.12 246.421 113.819 249.724 108.424 256.668C106.689 258.907 105.251 260.849 106.875 263.424C108.499 266 114.845 269.173 123.02 264.022C128.153 260.774 130.486 261.688 133.939 257.806C137.019 254.241 143.01 252.58 141.629 254.372C139.165 257.582 137.094 258.441 134.742 261.203C130.02 266.709 125.409 267.101 124.01 270.05C123.17 271.767 126.66 275.109 134.705 272.477C139.595 270.872 146.949 266.355 151.242 265.925C152.048 265.827 152.865 265.943 153.612 266.261Z" fill="#C49E91"/>
<path d="M287.849 52.9775C290.145 53.7428 299.645 57.1771 297.182 57.5504C278.274 60.5927 278.256 69.1039 270.248 75.6179C266.945 78.287 266.665 80.6575 265.47 80.0042C248.037 70.6718 253.543 71.7543 234.729 60.7234C206.732 44.261 208.598 45.6609 208.953 44.5037C210.67 38.2883 212.182 41.424 215.448 37.8403C219.013 33.9394 212.929 33.3421 229.596 38.8109C252.629 46.3701 272.171 47.8447 287.849 52.9775Z" fill="#C49E91"/>
<path d="M213.899 51.2799C214.384 54.9641 214.264 58.7025 213.545 62.3481C213.228 63.9533 212.612 61.4896 211.436 62.5161C211.21 62.7523 211.084 63.0666 211.084 63.3934C211.084 63.7202 211.21 64.0344 211.436 64.2706C211.828 64.7559 211.828 64.7559 211.324 65.0919C210.148 65.8571 210.67 66.2678 208.132 66.7344C203.261 67.6303 203.391 68.0036 203.186 67.2383C201.319 60.6683 181.404 60.631 178.679 68.0036C178.082 69.6461 176.383 66.9957 172.837 69.3661C171.549 70.2247 172.837 63.2067 159.771 65.2785C154.377 66.1371 155.46 69.0115 152.492 56.5061C152.175 55.1435 152.94 55.2182 153.127 54.9942C158.726 47.9576 153.5 46.3524 157.233 47.3603C158.392 47.6361 159.609 47.5351 160.706 47.0718C161.804 46.6086 162.725 45.8073 163.336 44.7845C163.579 44.3552 163.766 44.2246 164.27 44.4859C166.136 45.4378 166.939 44.0939 166.827 45.1205C166.341 49.4134 172.818 52.1945 175.431 48.3309C175.861 47.7149 175.823 47.7149 176.532 47.8456C177.457 48.065 178.425 48.0145 179.321 47.7002C180.218 47.3859 181.006 46.821 181.591 46.0724C182.244 45.2512 181.815 44.7099 182.785 45.2512C185.38 46.7443 186.518 45.2512 187.563 45.7924C188.438 46.367 189.427 46.7433 190.462 46.8949C191.497 47.0464 192.553 46.9695 193.555 46.6697C195.067 46.0164 196.429 47.7149 198.445 47.7522C202.29 47.7522 202.178 45.5498 203.298 46.595C206.713 49.6747 208.673 47.9576 209.252 47.8642C209.513 47.8642 210.614 48.3868 210.67 48.6482C210.726 48.9095 210.67 49.2454 210.876 49.7494C211.022 49.9786 211.251 50.143 211.514 50.209C211.778 50.275 212.057 50.2374 212.294 50.104C213.19 49.6934 213.694 50.048 213.899 51.2799ZM210.577 53.6317C210.557 53.7768 210.569 53.9245 210.611 54.0648C210.653 54.2051 210.725 54.3348 210.821 54.4451C210.918 54.5554 211.036 54.6438 211.17 54.7044C211.303 54.765 211.448 54.7963 211.594 54.7963C211.741 54.7963 211.886 54.765 212.019 54.7044C212.152 54.6438 212.271 54.5554 212.368 54.4451C212.464 54.3348 212.536 54.2051 212.578 54.0648C212.62 53.9245 212.631 53.7768 212.612 53.6317C212.574 52.0078 210.614 52.1571 210.577 53.6317ZM210.67 58.8578C210.675 59.107 210.778 59.3444 210.956 59.5189C211.134 59.6934 211.373 59.7911 211.622 59.7911C211.806 59.7874 211.985 59.7295 212.136 59.6248C212.287 59.52 212.403 59.373 212.471 59.2022C212.539 59.0314 212.555 58.8444 212.517 58.6646C212.479 58.4848 212.388 58.3203 212.257 58.1916C212.126 58.0629 211.959 57.9759 211.779 57.9414C211.598 57.9069 211.412 57.9264 211.242 57.9975C211.073 58.0687 210.928 58.1883 210.827 58.3413C210.725 58.4944 210.67 58.674 210.67 58.8578ZM209.943 61.6762C209.955 61.5511 209.943 61.4247 209.907 61.3042C209.871 61.1838 209.811 61.0718 209.731 60.9746C209.651 60.8774 209.553 60.797 209.442 60.738C209.331 60.679 209.209 60.6427 209.084 60.631C208.83 60.615 208.58 60.6972 208.386 60.8605C208.191 61.0238 208.067 61.2558 208.039 61.5082C208.002 61.6457 207.997 61.7895 208.022 61.9294C208.047 62.0693 208.103 62.202 208.185 62.318C208.268 62.434 208.374 62.5305 208.498 62.6006C208.622 62.6708 208.759 62.7129 208.901 62.724C209.043 62.7352 209.185 62.715 209.318 62.665C209.452 62.6149 209.572 62.5363 209.671 62.4345C209.771 62.3328 209.847 62.2105 209.893 62.0762C209.94 61.9419 209.957 61.799 209.943 61.6575V61.6762ZM207.087 50.8879C207.087 52.4558 209.289 52.3811 209.271 50.8879C209.238 50.6226 209.11 50.378 208.911 50.2C208.712 50.0219 208.454 49.9225 208.187 49.9202C207.92 49.9179 207.661 50.0129 207.458 50.1876C207.256 50.3622 207.124 50.6045 207.087 50.8693V50.8879ZM208.393 57.2713C208.538 57.291 208.686 57.2794 208.826 57.2373C208.967 57.1952 209.096 57.1236 209.207 57.0273C209.317 56.9309 209.405 56.8121 209.466 56.6787C209.527 56.5453 209.558 56.4006 209.558 56.2541C209.558 56.1076 209.527 55.9628 209.466 55.8295C209.405 55.6961 209.317 55.5773 209.207 55.4809C209.096 55.3845 208.967 55.3129 208.826 55.2708C208.686 55.2287 208.538 55.2171 208.393 55.2368C208.245 55.2081 208.092 55.2126 207.945 55.25C207.798 55.2873 207.662 55.3566 207.545 55.4529C207.428 55.5493 207.334 55.6702 207.27 55.8071C207.205 55.944 207.172 56.0934 207.172 56.2447C207.172 56.3961 207.205 56.5455 207.27 56.6824C207.334 56.8193 207.428 56.9402 207.545 57.0365C207.662 57.1329 207.798 57.2022 207.945 57.2395C208.092 57.2769 208.245 57.2814 208.393 57.2526V57.2713ZM207.591 64.8306C207.533 64.6278 207.41 64.4493 207.242 64.3223C207.074 64.1953 206.868 64.1266 206.658 64.1266C206.447 64.1266 206.241 64.1953 206.073 64.3223C205.905 64.4493 205.782 64.6278 205.724 64.8306C205.683 64.975 205.676 65.1271 205.703 65.2747C205.731 65.4224 205.792 65.5617 205.883 65.6817C205.973 65.8016 206.09 65.8989 206.225 65.9659C206.359 66.0329 206.507 66.0677 206.658 66.0677C206.808 66.0677 206.956 66.0329 207.09 65.9659C207.225 65.8989 207.342 65.8016 207.432 65.6817C207.523 65.5617 207.584 65.4224 207.612 65.2747C207.639 65.1271 207.632 64.975 207.591 64.8306ZM206.378 59.2311C206.392 59.0227 206.344 58.8145 206.24 58.6336C206.135 58.4526 205.979 58.3072 205.791 58.2161C205.603 58.1249 205.392 58.0923 205.185 58.1223C204.978 58.1523 204.785 58.2436 204.631 58.3845C204.476 58.5253 204.367 58.7093 204.319 58.9125C204.27 59.1157 204.283 59.3288 204.357 59.5245C204.43 59.7201 204.561 59.8892 204.731 60.0099C204.902 60.1306 205.105 60.1974 205.314 60.2017C205.453 60.2171 205.594 60.2039 205.728 60.1628C205.862 60.1217 205.986 60.0535 206.093 59.9626C206.199 59.8717 206.286 59.7599 206.348 59.6341C206.41 59.5083 206.445 59.3711 206.452 59.2311H206.378ZM204.324 55.0502C205.594 55.0502 205.911 52.7918 204.324 52.8104C204.177 52.8153 204.033 52.8491 203.899 52.9099C203.765 52.9708 203.644 53.0574 203.543 53.1648C203.443 53.2723 203.365 53.3985 203.313 53.5362C203.261 53.674 203.237 53.8206 203.242 53.9676C203.247 54.1147 203.281 54.2594 203.341 54.3934C203.402 54.5274 203.489 54.6481 203.596 54.7486C203.704 54.8491 203.83 54.9275 203.968 54.9792C204.105 55.031 204.252 55.0551 204.399 55.0502H204.324ZM204.156 49.6001C204.156 49.3129 204.042 49.0376 203.839 48.8346C203.636 48.6316 203.361 48.5175 203.074 48.5175C202.787 48.5175 202.511 48.6316 202.308 48.8346C202.105 49.0376 201.991 49.3129 201.991 49.6001C201.991 49.8971 202.109 50.1819 202.319 50.3919C202.529 50.602 202.814 50.7199 203.111 50.7199C203.408 50.7199 203.693 50.602 203.903 50.3919C204.113 50.1819 204.231 49.8971 204.231 49.6001H204.156ZM195.944 61.6762C196.84 61.6762 198.277 60.3697 196.578 59.4924C193.592 58.1509 190.51 57.0342 187.358 56.1514C186.096 56.0935 184.848 56.4335 183.789 57.1235C182.731 57.8134 181.916 58.8183 181.46 59.9964C181.012 61.5082 183.196 61.3589 183.588 60.2017C184.1 59.3566 184.892 58.718 185.827 58.3974C186.761 58.0767 187.779 58.0944 188.702 58.4472C192.659 59.8657 194.992 61.5829 196.019 61.6762H195.944ZM167.891 57.3646C171.306 58.6525 171.288 54.8449 166.024 54.9195C162.87 54.9195 160.425 56.4314 155.684 61.0976C155.405 61.3788 155.234 61.7485 155.199 62.1428C155.199 62.5908 155.702 62.6841 156.057 62.7588C158.222 63.2067 162.105 55.1808 167.891 57.3646Z" fill="#C49E91"/>
<path d="M194.134 20.0362C207.442 29.3687 206.788 28.5847 206.228 29.2193C205.347 30.1596 204.723 31.3123 204.419 32.565C204.115 33.8178 204.14 35.1279 204.493 36.368C204.997 37.3572 204.493 37.7305 202.85 41.2022C202.365 42.2287 202.57 40.9035 199.472 40.6236C192.659 40.0076 189.897 40.2876 184.428 37.2265C174.069 31.4405 175.096 31.3471 171.363 32.5043C167.63 33.6616 165.371 32.2804 163.579 34.3708C161.097 37.2639 160.07 38.8691 157.364 38.5144C156.244 38.3651 156.263 37.8238 156.617 37.3385C157.066 36.7231 157.545 36.1312 158.055 35.5654C161.022 32.467 159.921 32.1311 162.459 30.4139C166.678 27.5768 167.872 29.3313 170.523 26.9049C172.053 25.505 171.213 22.7053 166.584 23.0599C162.217 23.0599 164.009 24.2358 159.118 27.8008C158.148 28.5101 156.468 28.1181 156.991 27.4088C161.097 21.8094 157.663 24.1238 163.859 19.3643C164.782 18.7955 165.811 18.4207 166.883 18.2631C167.779 18.0204 167.742 18.2631 173.882 20.6895C175.749 21.4174 178.007 20.5589 172.856 18.3751C171.172 17.6322 169.438 17.0085 167.667 16.5086C167.182 16.3779 167.798 15.762 168.619 15.314C169.238 14.9891 169.951 14.8901 170.635 15.0341C171.654 15.174 172.648 15.4633 173.584 15.8926C175.45 16.6206 176.981 16.8819 179.295 17.7591C180.303 18.1324 181.031 17.1992 180.042 16.5086C178.605 15.482 176.887 15.7433 173.397 13.9888C173.987 13.3958 174.717 12.9604 175.519 12.7223C176.321 12.4843 177.17 12.4513 177.989 12.6263C180.788 13.3729 182.151 14.7168 186.574 16.3593C189.252 17.2297 191.796 18.4671 194.134 20.0362Z" fill="#C49E91"/>
<path d="M203.951 110.652C204.492 111.753 195.757 120.283 193.442 121.571C192.752 121.981 191.203 122.261 190.568 122.579C182.057 126.815 182.878 130.156 180.62 137.51C179.724 140.478 179.892 146.19 179.071 145.368C175.338 141.635 174.087 141.542 175.916 133.852C177.241 128.253 177.633 125.173 171.922 124.352C162.589 122.989 165.035 123.344 165.016 118.528C165.016 118.136 165.296 108.804 165.352 108.431C166.223 109.089 166.931 109.939 167.424 110.913C167.629 111.398 167.424 111.753 167.237 112.668C167.136 113.089 167.127 113.527 167.21 113.953C167.292 114.379 167.465 114.782 167.716 115.135C167.967 115.489 168.29 115.784 168.665 116.003C169.039 116.221 169.456 116.356 169.887 116.401C171.007 116.401 169.757 120.003 173.434 120.133C175.562 120.357 175.991 118.566 176.644 119.48C176.956 119.951 177.37 120.344 177.855 120.632C178.341 120.919 178.885 121.093 179.447 121.139C180.01 121.186 180.575 121.105 181.102 120.901C181.628 120.698 182.101 120.378 182.486 119.965C183.27 119.2 183.289 119.965 185.137 120.339C185.841 120.442 186.558 120.276 187.145 119.875C187.733 119.474 188.149 118.867 188.31 118.174C188.35 117.95 188.471 117.748 188.65 117.607C188.829 117.466 189.053 117.396 189.28 117.408C191.445 117.128 191.707 114.627 191.688 114.291C191.688 112.593 197.138 112.014 202.01 107.516C204.324 105.37 203.783 105.65 203.764 107.255C203.564 108.386 203.628 109.549 203.951 110.652Z" fill="#C49E91"/>
<path d="M218.791 73.2292C218.791 71.904 219.052 68.6377 216.588 66.6406C215.858 66.2033 215.01 66.0027 214.162 66.0662C213.313 66.1297 212.504 66.4542 211.847 66.9952C211.066 67.7657 210.45 68.6882 210.04 69.7059C209.629 70.7236 209.431 71.8148 209.458 72.9119C209.458 73.7332 208.376 74.5731 208.04 73.7332C207.704 72.8933 207.834 72.52 208.189 70.0002C208.32 69.0856 207.872 69.6643 205.557 70.4668C201.04 72.0534 207.2 80.5645 193.612 82.655C190.361 82.9937 187.076 82.6893 183.943 81.7591C177.877 79.3886 179.744 71.6614 177.112 70.9708C175.246 70.4482 173.174 71.5867 173.491 72.7253C173.951 73.8097 174.104 74.9997 173.932 76.1651C173.761 77.3305 173.273 78.4263 172.521 79.3326C170.262 81.6284 168.545 83.3642 170.262 85.9213C170.806 86.6816 171.547 87.2785 172.406 87.647C173.265 88.0156 174.208 88.1417 175.134 88.0118C178.997 88.0118 179.035 84.8948 180.733 86.332C182.432 87.7691 185.287 86.9292 184.093 84.6335C183.626 83.7375 183.159 83.5696 183.626 82.9163C184.765 81.3484 187.975 85.5854 185.399 87.9931C183.365 89.8596 181.405 88.889 179.8 88.2544C175.376 92.4167 166.902 89.673 167.612 83.6629C167.742 82.543 163.356 86.0333 157.402 84.5588C156.394 84.3162 156.301 84.3908 156.301 85.38C156.604 89.8906 157.697 94.3129 159.53 98.4454C161.863 102.962 166.996 107.031 168.358 109.346C168.956 110.447 169.515 108.804 171.569 109.794C171.961 109.98 172.353 110.279 172.558 109.999C172.763 109.719 173.006 109.028 174.088 108.655C174.557 108.493 175.061 108.456 175.548 108.548C176.036 108.639 176.491 108.856 176.869 109.178C177.28 109.458 177.448 109.308 177.971 108.748C178.303 108.311 178.747 107.971 179.256 107.764C179.765 107.557 180.32 107.491 180.864 107.573C181.834 107.741 182.282 108.636 182.73 109.271C182.88 109.532 182.936 110.018 183.402 109.271C183.73 108.672 184.198 108.159 184.765 107.778C185.421 107.472 186.17 107.431 186.855 107.666C188.18 108.207 188.106 109.532 188.348 110.148C188.348 110.354 188.796 109.924 189.636 110.148C192.343 110.802 189.636 112.668 196.71 108.711C211.903 100.144 205.8 82.0577 211.082 84.2042C211.887 84.6416 212.812 84.8053 213.717 84.6706C214.623 84.5359 215.46 84.1101 216.103 83.4576C218.324 80.9751 219.071 76.6076 218.791 73.2292ZM185.418 98.5574C172.465 97.5495 172.073 99.9573 169.926 99.7146C168.452 99.5467 169.795 97.3255 177.803 96.187C181.274 96.2803 183.402 95.851 185.866 96.9336C186.687 97.3069 186.165 98.6134 185.418 98.5574ZM187.023 101.88C186.351 101.693 185.325 101.656 185.586 100.611C185.622 100.458 185.716 100.325 185.849 100.241C185.981 100.157 186.142 100.129 186.295 100.163C189.412 100.536 189.207 95.7017 190.644 97.9975C191.167 98.8374 188.927 102.16 187.06 101.88H187.023ZM216.588 70.9708C215.674 71.3068 214.722 68.899 213.938 71.0641C213.281 72.5529 213.086 74.2043 213.378 75.805C213.789 76.7569 215.823 76.4023 216.252 78.3434C216.365 78.8579 216.298 79.3953 216.064 79.867C215.83 80.3387 215.442 80.7164 214.964 80.9378C214.292 81.2551 213.341 81.5724 213.21 80.7885C213.023 79.6873 214.908 80.0606 214.852 78.81C214.796 77.5595 209.869 79.0713 212.202 71.1948C213.938 65.2967 217.839 70.4295 216.588 70.9708Z" fill="#C49E91"/>
<path d="M319.71 76.4963C320.689 77.6808 321.324 79.1118 321.544 80.6326C321.765 82.1534 321.563 83.7056 320.961 85.1195C320.027 87.9752 317.956 87.5459 318.609 88.8524C321.446 94.9372 310.602 108.786 306.01 113.733C299.384 120.919 293.281 124.932 287.793 131.539C276.016 145.575 277.602 146.919 269.128 156.027C262.838 162.728 262.241 163.848 256.996 172.191C255.671 174.281 256.884 196.623 253.73 218.853C248.672 254.484 245.088 238.824 254.85 283.172C256.082 288.772 255.727 293.27 258.583 299.97C259.423 301.93 259.535 302.472 262.017 311.337C264.387 319.867 264.817 318.803 256.772 323.899C254.084 325.597 255.148 323.563 257.146 336.05C259.273 349.414 261.625 349.88 261.438 352.493C261.326 354.005 259.703 353.93 259.236 352.811C254.103 340.137 255.036 333.884 252.647 326.307C252.461 325.728 252.89 326.307 244.621 327.426C240.888 327.93 237.379 330.319 233.926 331.701C229.484 333.567 227.394 332.802 217.128 332.429C214.981 332.636 212.814 332.504 210.707 332.037C207.254 331.066 204.585 332.149 200.778 333.007C182.878 337.001 188.963 333.623 182.71 312.233C181.572 308.351 181.833 308.09 181.292 311.991C180.906 315.125 180.969 318.299 181.478 321.416C181.361 324.383 181.093 327.342 180.676 330.282C180.489 336.143 171.343 332.149 159.846 332.037C149.431 332.037 151.913 333.418 139.314 329.368C131.979 327.016 131.55 327.893 125.577 326.941C124.681 326.792 124.438 328.472 124.084 332.111C123.393 339.017 121.975 341.686 121.359 346.819C121.332 347.875 121.118 348.918 120.724 349.899C120.608 350.094 120.438 350.25 120.234 350.349C120.03 350.448 119.802 350.484 119.577 350.455C119.353 350.425 119.142 350.33 118.971 350.181C118.8 350.033 118.676 349.837 118.615 349.619C118.298 347.752 123.505 326.344 122.516 326.139C112.549 323.973 114.21 328.192 119.772 299.019C120.818 293.419 121.097 293.176 120.556 293.419C116.095 295.92 111.466 298.869 105.886 298.403C101.107 297.992 95.5267 297.339 92.1483 293.699C88.4154 289.667 81.7333 287.95 79.8855 276.509C79.8855 275.93 80.1282 275.762 72.1023 275.24C66.7081 274.885 63.3485 275.389 61.6686 271.003C59.2049 264.638 38.9722 211.928 37.983 205.228C36.9937 198.527 40.0174 195.895 48.7526 195.205C68.276 193.637 74.8833 194.962 73.5395 194.085C72.4794 193.297 71.3098 192.668 70.0678 192.218C68.5746 191.696 68.5186 190.837 67.6974 190.053C66.3348 188.728 66.1295 191.49 61.482 190.426C60.6482 190.126 59.9103 189.608 59.3455 188.925C58.7808 188.242 58.4099 187.42 58.2716 186.544C58.0103 183.259 57.7677 183.651 57.469 183.073C56.9651 182.139 56.1065 185.368 50.8244 183.483C47.4647 182.307 48.0246 179.564 47.6513 177.585C47.4087 176.297 44.8703 177.398 43.9184 178.462C43.4249 179.156 42.7883 179.736 42.0516 180.163C41.3149 180.59 40.4953 180.854 39.6479 180.937C38.8005 181.02 37.9452 180.92 37.1396 180.645C36.334 180.369 35.5969 179.924 34.9779 179.34C31.7862 176.391 34.586 173.348 32.1969 171.986C28.7999 170.119 28.5572 167.674 28.7252 163.53C28.9305 159.032 30.5917 158.435 32.0102 157.502C33.1468 157.354 34.3024 157.489 35.3739 157.896C36.4454 158.303 37.3995 158.969 38.1509 159.835C39.6255 161.533 35.8365 155.449 41.0067 152.873C44.5903 151.006 45.9902 151.548 47.4087 152.089C50.3017 153.19 50.2644 154.963 52.0002 159.555C53.2508 162.859 49.7231 163.176 53.8667 165.677C54.352 165.957 56.9091 166.48 58.7942 167.077C63.2365 168.477 58.5889 175.532 62.6952 175.289C64.0987 175.257 65.4777 175.66 66.6437 176.442C67.8097 177.224 68.7057 178.346 69.2092 179.657C71.0757 185.742 73.2222 186.638 72.8115 185.611C72.5418 184.169 72.6251 182.683 73.0542 181.281C74.51 178.294 70.9264 175.103 68.22 173.815C65.5136 172.527 66.2229 168.645 68.0333 167.207C68.1827 167.095 68.22 166.797 68.2573 166.573C68.2946 166.349 68.2573 166.312 68.1267 166.181C67.604 163.866 66.6708 165.136 61.37 162.989C60.6617 162.708 60.0207 162.281 59.4889 161.735C58.9571 161.19 58.5465 160.538 58.284 159.822C58.0215 159.107 57.9129 158.344 57.9655 157.584C58.018 156.824 58.2305 156.084 58.5889 155.411C59.9141 152.985 60.7354 152.742 60.1008 152.406C57.1517 150.801 59.2422 146.993 56.6478 147.871C53.1948 149.028 48.118 147.273 47.5767 144.138C47.4274 143.223 46.4755 142.421 45.5609 143.167C44.6463 143.914 44.3663 145.631 42.2385 145.762C41.5853 145.762 39.5695 147.628 37.647 146.247C29.5838 140.311 38.8789 133.181 36.7137 132.379C33.2607 131.166 34.5486 137.978 29.8824 137.642C21.9125 137.101 27.6986 131.446 22.2112 133.629C18.4782 135.16 14.5026 130.251 12.7108 126.499C12.1184 125.402 11.8102 124.175 11.8143 122.928C11.8183 121.681 12.1345 120.455 12.7339 119.362C13.3334 118.269 14.197 117.344 15.2461 116.67C16.2951 115.996 17.4961 115.596 18.7395 115.506C19.2808 115.506 19.8221 115.655 19.4674 115.114C14.036 106.491 19.6167 106.192 24.2083 104.064C26.4667 103 26.6347 101.918 26.0748 99.4167C26.0435 99.2791 25.9795 99.1511 25.8881 99.0434C24.8242 97.2889 24.7869 100.033 21.3712 100.387C18.5342 100.705 18.4782 99.5287 17.2836 97.8302C14.2413 100.425 16.4437 102.048 13.5507 106.005C12.8601 106.995 12.0948 111.082 5.69278 108.786C4.74067 108.361 3.98178 107.596 3.56499 106.64C-0.167983 99.7154 3.7143 98.0355 2.63174 95.9078C2.18379 95.0305 1.58651 93.052 1.11989 92.3241C0.344464 91.0089 -0.0425368 89.5009 0.00370915 87.9747C0.0499551 86.4486 0.527556 84.9668 1.3812 83.7009C2.37044 82.637 6.30872 79.4267 7.20463 78.7174C9.07111 77.2429 10.471 77.5789 15.5478 77.2989C16.1638 77.2989 16.4811 77.5229 16.2757 75.0218C16.0704 72.5207 18.4969 73.0433 17.3583 72.3714C12.0948 69.2357 12.7668 65.1854 15.4918 59.7726C16.0144 58.7461 16.5184 58.2794 18.8515 58.6341C20.5873 58.914 21.0353 58.2234 23.7977 56.7676C24.1896 56.5623 24.1336 56.3943 23.667 55.573C21.9685 52.456 23.499 48.1071 25.1789 47.4165C27.9039 46.166 31.4876 45.0087 34.0073 46.166C39.8121 48.891 40.1854 49.4136 41.044 51.1308C41.5479 52.176 41.4546 50.8135 44.0864 50.7015C48.006 50.5522 49.9098 59.8846 44.9263 64.6628C43.4144 66.1187 42.4625 65.6894 42.2945 67.4065C41.9959 70.6169 43.8251 71.4755 42.6865 74.8725C42.3319 75.899 42.8545 76.739 41.1186 77.9148C35.5192 81.4985 36.4338 83.2903 36.4898 86.3887C36.4898 86.7246 36.4898 87.0606 36.9937 87.0979C37.4977 87.1353 38.0203 87.0979 38.0763 86.594C38.3936 84.4475 41.9772 82.6371 43.6757 82.7117C44.497 82.7117 42.5558 78.4188 45.5422 75.8804C49.0699 72.8567 50.2458 71.9794 55.6399 73.3233C61.762 74.8538 59.8955 80.6399 60.0821 83.9622C60.0821 85.2315 61.1087 85.2875 62.2659 85.2875C63.4231 85.2875 63.4231 85.6234 66.2975 86.8366C70.2358 88.4791 70.8144 91.7455 69.6945 93.7986C67.828 97.1396 65.9615 103.616 61.1087 104.326C59.8955 104.512 60.4741 104.848 59.8768 107.088C59.3092 108.534 58.3998 109.82 57.2263 110.838C56.0528 111.855 54.6503 112.573 53.1388 112.93C49.7791 113.247 49.7605 112.501 49.5365 113.882C49.4659 115.279 49.2085 116.66 48.7712 117.988C48.1553 119.593 47.0541 119.855 48.0433 121.516C49.4805 123.793 51.7763 118.567 55.6399 119.127C62.2659 120.116 60.9034 126.723 61.5193 127.414C62.1353 128.105 64.0017 126.891 65.2523 128.833C65.9242 129.859 67.5667 130.699 66.6522 133.723C65.5696 137.269 64.4124 137.997 65.4763 140.89C66.4095 143.41 73.7075 141.973 74.8087 150.222C74.8049 150.766 74.8423 151.309 74.9207 151.846C75.8539 151.025 75.9659 148.412 82.2 149.513C82.3493 147.516 82.5733 145.78 82.7226 144.735C83.2825 141.002 90.1885 141.002 88.0794 136.858C86.4929 133.835 77.3844 131.054 85.6156 115.487C86.1009 114.591 84.3464 113.621 83.2265 109.589C81.5467 103.411 86.7169 103.598 83.3945 98.3902C81.4912 96.3835 80.4234 93.7273 80.4081 90.9616C80.0942 88.9741 80.1767 86.9442 80.6508 84.9888C81.0427 83.4023 84.6451 83.1223 85.5223 83.1223C86.0262 83.1223 86.2316 83.1223 86.3622 80.9386C86.6795 75.8617 79.0083 70.3743 85.6343 62.1431C86.9782 60.4819 89.4606 60.2766 91.551 59.9966C93.6415 59.7166 94.8174 61.0978 96.4226 62.5537C97.1878 61.2658 97.7478 59.9966 99.017 59.474C100.715 58.7834 101.425 57.4209 104.616 57.4768C108.611 57.4768 107.733 64.6255 108.032 64.9428C110.16 67.7425 114.21 61.3218 118.204 64.9428C121.209 67.6119 122.199 67.8918 122.553 71.2888C122.964 75.1525 120.519 77.0189 121.508 78.9041C122.441 81.3396 122.507 84.0223 121.695 86.5007C121.023 88.0685 120.594 88.7591 115.255 91.9508C111.522 94.2466 106.315 91.9508 105.774 93.8173C105.232 95.6838 106.614 95.9824 106.016 99.1181C105.512 101.825 103.571 101.265 103.329 103.784C103.217 105.016 105.643 105.539 107.304 105.334C110.179 104.96 111.709 104.512 112.904 106.491C119.791 118.194 100.398 119.295 103.459 122.673C104.896 124.241 107.491 126.406 107.509 130.139C107.621 131.41 107.455 132.69 107.024 133.891C104.28 139.229 103.459 139.863 101.555 140.983C100.03 141.94 98.4251 142.765 96.7585 143.447C95.7098 143.746 94.7619 144.325 94.0158 145.12C93.2696 145.915 92.7532 146.898 92.5216 147.964C92.0923 151.156 93.3055 151.865 91.887 153.115C91.1421 154.131 90.2631 155.042 89.2739 155.822C87.1461 157.427 86.5675 159.704 85.0557 160.339C80.6508 162.205 87.2955 164.072 84.5144 167.394C81.7333 170.716 79.7175 171.127 79.3629 172.284C78.8403 173.983 78.3923 174.823 79.5869 176.017C80.8529 177.321 81.6081 179.037 81.7147 180.851C82.7599 183.689 77.9817 185.835 80.2775 188.784C81.7147 190.65 80.9494 192.517 82.144 191.64C83.3385 190.762 83.1705 190.389 83.8798 188.84C86.0076 184.248 83.8798 185.275 87.6128 177.641C88.7327 175.364 91.8123 174.393 91.3457 171.295C90.7298 167.002 91.1404 163.139 95.1907 161.963C96.8519 161.421 97.9717 160.899 99.3716 161.963C100.771 163.027 100.174 161.72 101.481 159.032C103.347 155.299 105.848 150.95 110.123 150.036C111.989 149.607 112.306 147.404 114.471 146.116C120.426 142.589 115.013 147.441 126.529 137.941C136.701 129.56 143.645 128.609 147.695 126.742C148.479 126.406 148.012 125.883 148.908 124.372C151.092 120.639 149.58 120.209 153.07 115.991C156.803 111.474 157.699 111.437 162.403 110.018C163.429 109.72 163.373 110.41 163.448 108.712C163.653 104.363 159.416 105.725 155.683 94.3586C154.751 91.1028 154.342 87.7197 154.47 84.3355C154.732 83.1783 154.041 83.6263 152.044 80.7519C150.118 77.8566 149.297 74.3658 149.729 70.9155C150.289 68.6758 151.185 68.3958 153.257 67.1826C149.524 56.2263 151.241 56.6183 149.729 56.7116C146.258 56.9169 147.004 53.7812 145.511 54.7145C141.778 57.0662 137.112 54.2665 138.045 48.8724C138.418 46.7259 140.173 47.0992 139.501 46.4086C136.477 43.3289 139.688 41.3504 138.176 40.8091C132.576 38.6627 133.547 29.181 138.754 28.1917C140.434 27.8744 137.672 25.1307 140.957 21.2671C143.215 18.5793 146.388 19.1393 148.889 19.9232C149.039 17.0115 149.673 14.697 152.417 13.3718C154.713 12.2519 156.15 13.8571 156.001 12.6999C155.329 2.91952 166.136 -1.33607 171.138 5.1033C171.997 6.18587 171.493 1.91162 177.521 0.250446C182.841 -1.22408 183.905 4.31938 184.763 3.72211C185.537 3.24544 186.448 3.04159 187.352 3.14308C188.255 3.24456 189.098 3.64553 189.747 4.28205C190.997 5.71924 191.072 6.35385 191.501 5.7939C196.802 -1.03743 205.705 0.773061 205.967 8.72428C205.967 9.02292 205.967 10.0308 206.433 9.63886C210.297 6.74581 215.616 12.2333 213.227 18.9713C212.91 19.9419 211.79 20.8378 213.096 20.8378C215.1 20.8253 217.042 21.5295 218.572 22.8233C220.102 24.1171 221.119 25.9152 221.44 27.8931C222.354 32.4846 220.096 33.6418 221.253 34.0898C242.606 42.2837 262.596 44.2621 281.82 49.2083C294.382 52.4373 297.816 54.4158 299.571 55.6477C300.803 56.7503 302.397 57.3614 304.05 57.3649C312.095 58.1488 318.329 59.81 319.542 67.8732C320.531 74.4432 318.628 74.8725 319.71 76.4963ZM317.452 70.4302C317.676 62.367 311.367 60.4632 303.49 59.8659C298.771 59.3987 294.01 60.0933 289.621 61.8892C285.232 63.685 281.349 66.5276 278.311 70.1689C271.909 78.2695 273.757 74.0885 267.542 82.4877C266.291 84.2049 267.094 85.5674 268.307 88.2178C269.52 90.8682 275.474 87.3219 277.098 87.4339C277.247 87.4388 277.393 87.4793 277.523 87.5519C277.653 87.6246 277.764 87.7274 277.846 87.8516C277.928 87.9759 277.979 88.118 277.995 88.2662C278.012 88.4143 277.992 88.5641 277.938 88.7031C277.639 89.5057 277.08 89.5617 276.557 89.711C271.965 91.0736 270.043 91.7082 268.158 91.0922C266.273 90.4763 263.921 96.8037 254.196 101.115C233.665 110.205 242.456 107.947 230.026 114.181C226.815 115.786 226.796 115.077 219.685 114.89C218.491 114.89 219.685 115.935 219.928 117.186C220.17 118.436 220.245 119.351 220.488 120.415C220.619 121.226 220.562 122.056 220.32 122.841C219.256 127.713 215.56 131.091 210.987 135.029C208.262 137.437 209.662 138.949 206.489 142.85C205.705 143.802 204.772 144.716 204.025 145.594C201.207 149.327 198.743 139.416 198.146 138.688C195.738 135.813 195.048 133.461 192.547 130.699C191.296 129.336 190.68 130.811 189.131 131.539C186.686 132.771 186.555 139.434 184.819 139.005C183.083 138.576 185.547 131.539 187.358 130.102C194.264 124.67 195.104 131.072 199.117 136.112C200.058 137.112 200.749 138.321 201.132 139.639C201.338 140.629 202.476 144.063 203.148 143.372C204.986 141.737 206.336 139.624 207.049 137.269C208.916 130.699 221.346 127.582 217.501 117.167C216.214 113.677 215.112 113.434 214.272 110.354C214.067 109.504 213.669 108.712 213.111 108.038C212.553 107.364 211.848 106.827 211.05 106.467C210.253 106.107 209.384 105.934 208.509 105.961C207.635 105.987 206.778 106.213 206.004 106.621C207.049 107.76 208.001 108.488 206.862 110.354C204.38 114.535 203.465 115.394 197.829 120.919C193.013 125.622 192.509 122.785 187.208 127.246C181.908 131.707 179.985 152.089 179.91 158.976C180.052 162.893 180.401 166.799 180.956 170.679C181.105 172.9 181.124 177.361 181.273 179.377C182.262 192.834 181.964 187.552 181.18 200.17C180.489 211.089 183.979 212.022 184.091 220.309C184.091 225.572 182.915 229.212 183.681 244.797C183.681 245.768 183.942 245.432 185.659 245.562C202.849 246.832 208.412 245.562 208.468 247.952C208.468 253.047 211.921 248.791 183.886 268.763C182.318 269.883 181.31 269.472 181.665 283.881C181.665 285.748 182.169 292.598 182.262 293.363C182.766 297.581 181.46 300.829 182.747 304.861C188.907 324.683 185.118 316.787 189.411 331.141C189.747 332.223 190.195 332.037 192.229 332.055C195.085 332.055 193.984 332.055 197.959 331.159C211.902 328.266 205.183 329.293 214.758 330.17C237.697 332.037 234.524 326.754 244.435 325.075C253.581 323.544 251.751 324.589 260.543 318.785C261.214 318.337 261.569 318.934 259.721 312.289C254.738 294.52 254.962 300.754 253.002 287.129C250.893 272.421 248.672 279.402 246.656 249.053C246.227 242.725 248.802 237.275 251.229 220.272C253.124 204.909 254.053 189.443 254.01 173.964C249.568 177.51 229.913 151.305 228.402 135.347C228.372 135.202 228.383 135.053 228.435 134.915C228.486 134.777 228.576 134.656 228.692 134.566C228.809 134.477 228.949 134.422 229.096 134.408C229.242 134.394 229.39 134.422 229.522 134.488C231.164 135.235 233.553 156.886 251.434 171.426C254.682 174.057 257.351 165.453 266.067 155.953C275.232 145.967 280.626 135.608 285.404 130.643C295.688 119.929 315.118 105.128 316.593 91.7642C317.638 82.2824 290.276 87.8819 283.426 87.3219C282.455 87.3219 281.82 86.1274 283.426 85.8847C291.75 84.5969 309.836 81.6665 316.462 86.09C318.03 87.1539 323.256 78.7361 313.047 74.8911C300.803 70.2063 284.49 80.4906 278.703 83.7009C277.901 84.1302 277.658 83.7009 277.565 83.4396C277.508 83.2405 277.506 83.0298 277.559 82.8296C277.611 82.6293 277.716 82.4468 277.863 82.3011C281.186 78.8668 289.062 75.6004 291.806 74.5178C303.005 70.1129 306.738 70.5982 312.58 72.0728C318.422 73.5473 317.302 75.8244 317.452 70.4302ZM297.275 57.5515C299.664 57.1782 290.164 53.8185 287.943 52.9786C272.264 47.8271 252.703 46.3713 229.764 38.812C213.096 33.3432 219.181 33.9405 215.616 37.8414C212.35 41.4251 210.838 38.2894 209.121 44.5048C208.804 45.662 206.862 44.2621 234.897 60.7245C253.711 71.7554 248.205 70.5982 265.638 80.0053C266.833 80.6586 267.113 78.2881 270.416 75.6191C278.349 69.105 278.367 60.5939 297.275 57.5515ZM265.339 90.215C266.366 89.2631 266.478 89.8977 265.806 88.2365C264.99 86.5634 264.735 84.6719 265.078 82.8424C265.321 81.7785 263.809 82.5064 252.125 74.6298C250.258 73.342 215.467 49.8989 215.915 52.232C216.111 55.0809 215.979 57.9429 215.523 60.7619C215.075 63.7669 214.646 64.1402 215.523 64.2895C222.989 65.5961 220.749 76.6643 219.256 81.5545C219.067 82.6257 218.603 83.6294 217.91 84.4671C217.216 85.3049 216.316 85.9478 215.299 86.3327C214.073 86.6333 212.792 86.6333 211.566 86.3327C210.857 86.3327 210.558 86.9673 210.483 87.5646C208.729 100.63 203.353 104.904 207.628 104.158C208.631 103.946 209.667 103.955 210.666 104.184C211.666 104.413 212.603 104.856 213.414 105.483C216.027 107.219 216.829 112.762 218.416 112.725C223.138 112.613 226.647 113.266 228.42 112.445C237.025 108.488 238.518 106.08 242.979 103.747C255.746 97.0463 252.946 101.825 265.339 90.215ZM218.677 33.1006C220.544 34.2391 221.272 21.0617 211.454 22.8909C205.519 23.9921 212.275 19.6805 211.958 15.6863C212.022 14.7406 211.837 13.7947 211.421 12.9431C211.005 12.0914 210.373 11.364 209.587 10.8334C207.068 9.39622 205.108 14.7904 204.1 12.6999C203.428 11.2627 205.593 7.95902 202.346 4.74867C200.143 2.58355 197.941 3.31148 195.272 4.89799C191.725 6.98845 192.845 9.1909 191.315 9.20957C189.784 9.22823 188.926 2.0796 184.838 6.20453C183.195 7.8657 183.699 4.95399 181.516 2.90085C179.332 0.847721 178.081 1.7063 175.655 2.90085C173.228 4.0954 173.116 6.31652 172.127 8.239C171.642 9.13491 170.933 8.59363 170.541 7.56706C167.461 -0.402824 155.273 5.5326 158.035 13.8571C159.174 17.3474 155.515 14.2304 153.537 14.865C152.385 15.3858 151.477 16.3278 150.998 17.4975C150.519 18.6673 150.506 19.976 150.961 21.1551C151.279 22.107 151.652 23.0216 150.681 23.3015C149.711 23.5815 149.505 23.0029 149.076 22.5549C144.895 18.3367 138.922 23.4135 141.61 28.6583C142.021 29.4609 141.61 30.0955 140.64 29.9835C140.09 29.7683 139.485 29.7374 138.916 29.8956C138.347 30.0538 137.845 30.3926 137.485 30.8608C134.275 34.4444 136.813 39.4466 139.93 39.2413C140.546 39.2413 140.92 39.2413 141.256 39.9692C141.591 40.6972 140.957 40.9958 140.696 41.2758C140.385 41.5626 140.153 41.924 140.021 42.3257C139.89 42.7274 139.863 43.156 139.943 43.571C140.024 43.986 140.209 44.3736 140.481 44.6971C140.753 45.0205 141.103 45.2691 141.498 45.4194C142.991 46.1286 143.365 46.222 141.144 47.6405C137.877 49.6749 140.826 54.8264 143.831 53.4452C145.791 52.5307 145.884 51.2988 146.482 50.7948C146.577 50.6947 146.698 50.6237 146.832 50.5899C146.965 50.5561 147.106 50.5611 147.237 50.6041C147.368 50.6471 147.484 50.7265 147.572 50.833C147.659 50.9394 147.715 51.0686 147.732 51.2055C147.732 51.2055 147.452 57.1595 151.465 53.8372C157.065 49.1337 151.596 44.2621 153.332 43.0863C154.452 42.321 155.571 45.1954 157.513 45.5873C158.512 45.7946 159.552 45.6327 160.441 45.1317C161.33 44.6306 162.007 43.8244 162.347 42.8623C162.72 41.7984 163.037 41.2384 163.877 42.0037C166.845 44.7474 167.349 40.7532 168.749 41.7051C169.327 42.097 169.141 42.8436 168.749 43.4222C168.558 43.8405 168.455 44.2936 168.447 44.7532C168.438 45.2129 168.524 45.6695 168.699 46.0946C168.874 46.5198 169.134 46.9045 169.464 47.225C169.793 47.5455 170.185 47.7949 170.615 47.9578C175.543 49.4696 173.62 44.5794 174.964 44.2248C175.804 44.0382 175.823 45.6807 176.831 45.942C177.295 46.1191 177.799 46.1649 178.288 46.0744C178.777 45.984 179.231 45.7607 179.601 45.4291C179.971 45.0975 180.243 44.6704 180.386 44.1945C180.53 43.7187 180.54 43.2126 180.414 42.7316C180.265 41.5931 181.59 41.9104 182.281 42.6196C182.919 43.2868 183.772 43.7084 184.69 43.8107C185.607 43.9131 186.532 43.6897 187.302 43.1796C189.056 41.7984 188.478 44.1501 189.523 44.5981C191.987 45.6247 192.808 44.3555 194.805 44.5981C196.802 44.8407 198.967 47.5845 202.14 43.9822C202.607 43.4782 200.274 42.3583 199.49 42.321C196.01 42.2655 192.545 41.8527 189.149 41.0891C184.203 39.8759 174.908 33.3059 174.218 33.4739C172.148 34.2692 169.957 34.7048 167.741 34.7617C164.008 34.6311 166.08 34.7617 162.141 38.0467C161.563 38.7205 160.829 39.2428 160.003 39.5681C159.176 39.8934 158.283 40.0119 157.401 39.9132C154.62 39.7079 154.321 38.0467 154.974 37.0015C157.102 33.7912 157.681 34.1458 158.819 31.9993C161.395 27.0905 167.125 27.4265 169.29 25.56C168.656 25 168.6 24.7574 167.741 24.776C165.109 24.776 164.325 24.776 163.597 25.672C162.461 27.4101 160.847 28.7839 158.95 29.6289C156.897 30.3568 153.78 28.845 155.385 26.6985C156.403 25.7225 157.166 24.511 157.606 23.1709C158.409 20.8938 162.048 18.2247 164.195 17.1048C164.885 16.7128 165.837 16.6942 165.912 15.8356C165.986 14.977 166.957 14.5104 167.405 14.1931C169.887 12.3266 171.287 14.1931 172.015 13.0732C172.851 12.1992 173.9 11.5563 175.058 11.2067C175.654 10.9695 176.294 10.8571 176.936 10.8763C177.578 10.8956 178.209 11.0461 178.79 11.3187C180.134 11.8413 182.523 12.9239 187.432 14.8464C197.213 18.5793 207.086 28.2104 208.486 27.3891C209.38 26.9182 210.376 26.675 211.386 26.6811C212.397 26.6873 213.39 26.9426 214.278 27.4244C215.166 27.9062 215.921 28.5997 216.477 29.4433C217.033 30.2869 217.372 31.2546 217.464 32.2606C217.557 32.9886 218.043 32.7273 218.677 33.1006ZM216.102 83.3836C218.323 80.9759 219.069 76.6083 218.864 73.23C218.864 71.9048 219.125 68.6384 216.661 66.6413C215.931 66.204 215.084 66.0034 214.235 66.0669C213.386 66.1304 212.578 66.4549 211.921 66.9959C211.126 67.76 210.496 68.6797 210.072 69.6977C209.649 70.7157 209.439 71.8101 209.457 72.9127C209.457 73.7339 208.374 74.5738 208.038 73.7339C207.702 72.894 207.833 72.5207 208.188 70.001C208.318 69.0864 207.87 69.665 205.556 70.4676C201.039 72.0541 207.198 80.5652 193.61 82.6557C190.646 82.9218 187.659 82.7075 184.763 82.0211C177.913 80.3226 179.742 71.6621 177.111 70.9715C175.244 70.4489 173.172 71.5875 173.49 72.726C173.95 73.8104 174.102 75.0004 173.931 76.1658C173.76 77.3312 173.271 78.427 172.519 79.3334C170.261 81.6292 168.544 83.365 170.261 85.9221C170.804 86.6824 171.546 87.2792 172.404 87.6478C173.263 88.0163 174.207 88.1425 175.132 88.0125C178.996 88.0125 179.052 84.8955 180.732 86.3327C182.411 87.7699 185.286 86.93 184.091 84.6342C183.625 83.7383 183.139 83.5516 183.625 82.917C184.726 81.3305 187.992 85.5674 185.398 87.9939C183.363 89.8603 181.404 88.8898 179.798 88.2552C175.375 92.4174 166.901 89.6737 167.61 83.6636C167.741 82.5437 163.355 86.034 157.401 84.5595C156.393 84.3169 156.299 84.3915 156.299 85.3808C156.603 89.8913 157.696 94.3136 159.528 98.4462C161.861 102.963 166.994 107.032 168.357 109.346C168.954 110.448 169.514 108.805 171.567 109.794C171.959 109.981 172.351 110.28 172.556 110C172.762 109.72 173.004 109.029 174.087 108.656C174.556 108.494 175.059 108.457 175.547 108.548C176.034 108.64 176.49 108.857 176.868 109.178C177.279 109.458 177.447 109.309 177.969 108.749C178.302 108.312 178.746 107.971 179.255 107.765C179.764 107.558 180.319 107.492 180.862 107.573C181.833 107.741 182.281 108.637 182.729 109.272C182.878 109.533 182.934 110.018 183.401 109.272C183.723 108.668 184.192 108.155 184.763 107.779C185.087 107.622 185.438 107.532 185.797 107.512C186.156 107.493 186.515 107.546 186.854 107.667C188.179 108.208 188.104 109.533 188.347 110.149C188.347 110.354 188.795 109.944 189.635 110.149C192.341 110.802 189.635 112.669 196.709 108.712C211.902 100.145 205.799 82.0584 211.081 84.2049C211.893 84.6331 212.823 84.7846 213.729 84.6364C214.635 84.4882 215.468 84.0483 216.102 83.3836ZM213.544 62.3484C214.264 58.7028 214.383 54.9643 213.899 51.2801C213.694 50.0482 213.208 49.6936 212.331 50.1042C212.094 50.2376 211.815 50.2752 211.551 50.2092C211.288 50.1433 211.059 49.9788 210.913 49.7496C210.651 49.2457 210.913 49.059 210.707 48.6484C210.502 48.2377 209.55 47.8271 209.289 47.8645C208.71 47.9578 206.75 49.7309 203.335 46.5952C202.159 45.55 202.327 47.7898 198.482 47.7525C196.466 47.7525 195.104 46.0166 193.592 46.6699C192.59 46.9698 191.534 47.0466 190.499 46.8951C189.464 46.7435 188.474 46.3672 187.6 45.7927C186.592 45.214 185.417 46.7446 182.822 45.2514C181.852 44.7101 182.281 45.2514 181.628 46.0726C181.042 46.8212 180.255 47.3861 179.358 47.7004C178.462 48.0147 177.494 48.0652 176.569 47.8458C175.86 47.7151 175.897 47.7151 175.468 48.3311C172.855 52.1947 166.378 49.4136 166.864 45.1207C166.976 44.0942 166.154 45.438 164.307 44.4861C163.803 44.2248 163.616 44.3555 163.373 44.7848C162.758 45.8222 161.825 46.6333 160.712 47.0974C159.598 47.5615 158.365 47.6538 157.195 47.3605C153.462 46.3526 158.726 47.9578 153.089 54.9944C152.902 55.2184 152.137 55.1437 152.454 56.5063C155.422 69.049 154.321 66.1373 159.734 65.2788C172.799 63.207 171.474 70.2249 172.799 69.3663C176.345 66.9959 178.044 69.6463 178.641 68.0038C181.366 60.5379 201.282 60.6685 203.148 67.2386C203.353 68.0038 203.148 67.6305 208.094 66.7346C210.633 66.268 210.11 65.8574 211.286 65.0921C211.79 64.7561 211.79 64.7561 211.398 64.2709C211.172 64.0347 211.046 63.7204 211.046 63.3936C211.046 63.0668 211.172 62.7525 211.398 62.5163C212.611 61.4898 213.19 63.9535 213.544 62.3484ZM212.313 37.8788C216.4 36.2363 217.109 30.0769 212.91 28.7143C212.084 28.5042 211.222 28.4852 210.388 28.6587C209.554 28.8323 208.771 29.1938 208.097 29.7157C207.424 30.2377 206.879 30.9063 206.503 31.6708C206.128 32.4352 205.931 33.2753 205.929 34.1271C205.817 32.6153 205.612 40.5665 212.313 37.8788ZM208.766 40.7158C209.233 39.8572 207.497 40.2679 206.135 38.8493C205.463 38.1027 202.905 44.1688 204.268 45.27C207.926 48.0324 206.004 45.8113 208.766 40.7158ZM207.012 250.397C207.021 249.719 206.952 249.043 206.806 248.381C206.806 248.231 206.209 248.493 205.799 248.773C204.287 249.781 199.583 252.823 188.179 260.849C166.266 276.322 168.525 272.776 169.365 276.098C169.365 276.397 204.548 252.282 206.06 251.293C206.47 251.031 206.993 250.714 207.012 250.397ZM206.228 29.1436C206.788 28.509 207.441 29.2556 194.133 19.9605C191.758 18.3609 189.169 17.1042 186.443 16.2275C182.02 14.5477 180.657 13.2038 177.857 12.4946C177.039 12.3195 176.19 12.3526 175.388 12.5906C174.586 12.8286 173.856 13.2641 173.266 13.8571C176.756 15.6116 178.473 15.3503 179.91 16.3769C180.9 17.0675 180.172 18.0007 179.164 17.6274C176.849 16.7502 175.431 16.4889 173.452 15.7609C172.517 15.3316 171.523 15.0423 170.503 14.9023C169.819 14.7584 169.106 14.8574 168.488 15.1823C167.666 15.6303 167.05 16.2462 167.536 16.3769C169.307 16.8768 171.041 17.5005 172.724 18.2434C177.876 20.4271 175.599 21.2857 173.751 20.5578C167.61 18.15 167.648 17.8887 166.752 18.1314C165.679 18.289 164.651 18.6637 163.728 19.2326C157.531 23.9921 160.966 21.659 156.859 27.2771C156.337 27.9864 158.017 28.3784 158.987 27.6691C163.933 24.1041 162.141 22.9282 166.453 22.9282C171.082 22.5736 171.922 25.3733 170.391 26.7732C167.741 29.1996 166.546 27.4451 162.328 30.2822C159.752 31.9993 160.891 32.3353 157.923 35.4337C157.414 35.9995 156.934 36.5914 156.486 37.2068C156.131 37.6921 156.113 38.2334 157.233 38.3827C159.939 38.7373 160.966 37.1322 163.448 34.2391C165.314 32.1673 167.293 33.6045 171.231 32.3726C175.17 31.1408 174.012 31.3087 184.297 37.0948C189.765 40.1559 192.528 39.8759 199.34 40.4918C202.439 40.7718 202.234 42.097 202.719 41.0704C204.361 37.5988 204.865 37.2255 204.361 36.2363C204.036 34.9933 204.037 33.6875 204.364 32.445C204.691 31.2024 205.333 30.0653 206.228 29.1436ZM193.442 121.572C195.757 120.284 204.492 111.754 203.951 110.653C203.607 109.509 203.543 108.299 203.764 107.125C203.764 105.501 204.324 105.259 202.01 107.387C197.138 111.885 191.613 112.463 191.688 114.162C191.688 114.498 191.445 116.999 189.28 117.279C189.053 117.266 188.829 117.337 188.65 117.478C188.471 117.619 188.35 117.82 188.31 118.044C188.149 118.737 187.733 119.344 187.145 119.746C186.558 120.147 185.841 120.312 185.137 120.209C183.27 119.873 183.27 119.071 182.486 119.836C182.101 120.249 181.628 120.569 181.102 120.772C180.575 120.975 180.01 121.057 179.447 121.01C178.885 120.963 178.341 120.79 177.855 120.502C177.37 120.215 176.956 119.821 176.644 119.351C175.991 118.436 175.561 120.228 173.434 120.004C169.701 119.873 171.007 116.271 169.887 116.271C169.089 116.186 168.357 115.79 167.85 115.167C167.343 114.545 167.103 113.748 167.181 112.949C167.274 111.978 167.666 111.418 167.424 110.858C166.931 109.884 166.223 109.035 165.352 108.376C165.352 108.749 165.016 118.082 165.016 118.474C165.016 123.289 162.515 122.934 171.922 124.297C177.727 125.118 177.241 128.291 175.86 133.891C173.994 141.581 175.375 141.749 179.014 145.407C179.836 146.228 179.668 140.517 180.564 137.549C182.822 130.251 182.001 126.91 190.512 122.617C191.203 122.263 192.752 121.983 193.442 121.572ZM200.908 76.403C201.584 74.8814 201.893 73.2228 201.812 71.56C201.731 69.8973 201.262 68.2766 200.442 66.8279C198.575 64.1215 191.333 63.9535 186.424 64.9614C180.974 66.0253 177.559 68.2278 182.057 77.8215C184.073 82.1331 198.706 82.3197 200.871 76.403H200.908ZM190.064 114.087C190.437 112.949 190.232 111.4 188.011 111.661C187.134 111.773 187.134 111.418 187.022 110.429C186.854 108.563 185.566 108.451 184.446 110.242C183.83 111.213 183.811 111.624 183.102 111.549C182.393 111.474 182.318 110.392 181.404 109.44C180.489 108.488 179.108 109.272 178.772 110.504C178.712 111.032 178.54 111.541 178.268 111.997C178.063 112.295 177.671 112.221 177.428 111.81C177.06 111.172 176.541 110.633 175.916 110.242C175.479 110.025 174.975 109.988 174.511 110.138C174.047 110.288 173.661 110.613 173.434 111.045C172.202 112.911 170.933 110.84 169.999 111.232C169.637 111.359 169.333 111.613 169.144 111.947C168.955 112.281 168.894 112.673 168.971 113.049C169.049 113.425 169.26 113.76 169.566 113.992C169.871 114.224 170.251 114.338 170.634 114.311C172.332 114.535 171.829 115.151 172.108 116.794C172.482 118.81 175.076 118.306 175.636 117.018C176.028 116.14 177.055 116.028 177.391 117.111C177.895 118.716 178.716 119.481 180.228 118.978C182.094 118.306 181.329 116.364 182.505 116.327C182.706 116.313 182.907 116.361 183.081 116.464C183.254 116.568 183.392 116.722 183.475 116.906C184.315 118.66 185.342 118.623 186.07 118.175C187.376 117.242 186.48 115.954 186.667 115.263C186.854 114.573 187.358 114.965 187.955 115.263C188.166 115.368 188.399 115.419 188.634 115.412C188.869 115.406 189.099 115.342 189.303 115.226C189.508 115.11 189.681 114.945 189.807 114.747C189.933 114.548 190.008 114.322 190.027 114.087H190.064ZM186.686 251.479C190.811 251.834 190.643 252.562 188.552 253.812C187.059 254.727 173.247 264.619 171.642 265.888C169.365 267.755 169.383 267.363 166.845 267.456C166.248 267.456 166.49 267.456 167.89 271.88C167.89 272.178 202.831 248.829 203.652 248.082C198.893 247.448 170.055 246.888 163.933 246.682C159.472 246.533 159.136 246.365 159.398 247.056C160.275 249.482 160.032 250.285 162.328 250.285C166.005 250.247 185.379 251.33 186.686 251.479ZM170.261 245.226C183.475 245.656 181.628 246.869 181.46 241.083C180.638 217.192 184.054 225.61 179.948 210.734C177.185 200.748 181.236 199.33 178.697 169.877C177.204 152.481 179.78 148.375 176.569 146.004C171.605 142.271 172.836 134.133 171.773 131.222C166.864 133.499 168.488 146.154 166.173 149.103C163.859 152.052 162.869 146.228 159.454 143.316C157.445 141.477 156.194 138.955 155.945 136.242C154.862 130.643 151.036 131.539 149.263 128.422C148.908 127.787 148.684 128.422 146.687 129.28C123.113 138.725 127.63 143.316 115.722 147.703C113.538 148.524 113.744 151.137 110.421 152.257C108.349 152.947 106.856 154.011 104.822 157.502C102.787 160.992 102.955 161.085 103.702 161.123C105.718 161.253 106.222 162.989 106.782 164.277C106.987 164.744 107.883 164.93 107.939 164.053C108.424 157.408 113.968 153.227 120.164 160.059C123.673 163.922 122.329 165.957 122.927 169.933C123.673 174.711 119.007 182.046 114.546 182.139C107.64 182.289 107.752 181.169 107.397 182.139C107.397 182.139 106.016 185.872 105.942 186.059C104.892 187.756 103.299 189.049 101.422 189.726C99.5445 190.404 97.4933 190.427 95.6013 189.792C93.3989 188.784 92.4843 191.098 90.3938 194.159C90.2818 194.346 90.1139 194.477 90.5991 194.495C105.102 194.943 118.596 196.045 125.148 196.063C126.548 196.063 124.718 192.33 125.876 183.595C126.436 179.89 126.655 176.141 126.529 172.396C126.529 170.679 127.761 171.258 127.854 171.855C129.273 180.31 126.641 182.102 127.854 195.634C127.985 197.015 133.062 196.063 139.258 198.284C146.202 200.767 146.407 208.382 158.819 243.883C159.062 245.04 158.371 244.816 170.261 245.226ZM179.593 273.224C180.004 270.704 180.172 271.843 174.946 275.184C170.671 277.909 169.607 279.271 167.928 279.626C167.517 279.626 148.908 279.532 148.255 279.626C147.602 279.719 147.378 279.831 147.359 280.242C147.359 281.436 145.884 281.884 145.1 282.593C142.861 284.628 138.978 284.74 134.48 286.326C128.545 288.454 127.164 286.326 126.193 287.521C124.326 289.947 123.169 289.91 120.818 304.002C118.671 316.843 116.133 322.667 117.682 322.966C131.624 326.232 130.038 324.832 134.312 325.691C145.007 327.893 144.111 330.039 155.795 330.039C162.282 329.75 168.78 330.238 175.151 331.495C176.028 331.642 176.927 331.591 177.783 331.346C178.193 331.253 178.305 330.973 178.324 330.525C178.66 325.952 179.481 323.059 178.884 319.96C178.484 316.53 178.635 313.058 179.332 309.676C181.46 293.848 178.287 281.586 179.593 273.242V273.224ZM169.477 265.198C170.223 264.75 185.417 253.999 186.406 252.804C184.185 252.412 170.802 252.114 162.795 251.722C160.928 251.722 160.928 251.535 162.253 255.94C163.074 259.049 164.122 262.093 165.389 265.049C165.893 265.963 168.282 265.944 169.533 265.217L169.477 265.198ZM174.162 131.782C174.61 130.676 174.746 129.469 174.554 128.291C174.18 126.686 171.735 126.667 166.677 125.753C162.347 124.969 163.093 122.878 160.723 121.423C159.431 120.788 158.398 119.725 157.803 118.415C157.207 117.104 157.085 115.627 157.457 114.237C156.477 115.026 155.588 115.921 154.806 116.906C151.073 121.535 152.734 122.375 150.569 125.566C150.215 126.107 151.503 127.993 152.622 128.571C154.813 129.52 156.538 131.299 157.419 133.517C160.406 143.82 158.576 137.138 164.549 146.191C165.035 146.919 164.736 146.191 166.304 136.989C167.386 130.568 172.986 125.38 174.218 131.8L174.162 131.782ZM171.082 76.6456C172.743 66.5106 165.762 65.0174 156.038 68.0411C157.227 70.9166 157.532 74.0811 156.915 77.1309C156.691 78.6054 156.915 80.1546 156.486 81.6478C155.814 84.5595 170.037 83.3277 171.138 76.6643L171.082 76.6456ZM166.21 277.069C167.256 277.069 167.256 277.218 165.501 272.216C137.504 192.386 149.86 200.487 118.391 197.93C107.285 197.034 57.5624 195.671 46.6621 197.724C40.3534 198.919 37.9456 201.047 41.2866 209.67C48.7526 228.689 54.6693 247.41 57.2264 254.13C58.3276 257.079 60.7727 262.753 61.1274 263.835C63.8711 272.01 64.5617 272.346 65.7376 272.496C69.1906 272.944 83.0025 274.157 83.0399 274.176C101.201 275.072 93.8841 276.975 96.8519 267.382C99.0916 260.158 98.457 259.412 100.212 257.359C107.174 249.277 103.534 254.316 108.443 247.765C111.989 243.024 117.775 247.242 110.794 256.519C108.779 259.15 106.763 261.764 109.6 263.462C115.741 267.195 121.06 262.715 124.252 261.054C128.321 258.964 130.785 258.665 132.371 256.369C134.292 254.16 136.815 252.559 139.632 251.759C142.581 250.975 145.492 252.804 143.663 255.249C140.679 258.814 137.428 262.145 133.939 265.217C130.449 268.576 128.227 269.08 126.473 270.816C132.483 274.4 148.404 261.054 155.347 265.217C155.695 265.421 155.981 265.716 156.173 266.07C156.366 266.424 156.459 266.824 156.442 267.227C156.424 267.63 156.298 268.02 156.075 268.357C155.853 268.693 155.543 268.962 155.179 269.136C153.07 270.088 152.398 269.883 152.604 271.003C152.71 271.381 152.711 271.781 152.605 272.159C152.5 272.538 152.293 272.88 152.006 273.149C151.102 273.85 150.141 274.475 149.132 275.016C148.147 275.58 147.253 276.291 146.482 277.125L166.21 277.069ZM154.601 81.0879C155.721 78.7734 155.385 68.3398 153.481 69.1237C148.553 71.1582 152.79 79.856 154.657 81.1065L154.601 81.0879ZM151.988 268.278C153.854 267.568 154.881 267.12 153.612 266.224C152.86 265.925 152.042 265.828 151.241 265.944C146.948 266.374 139.594 270.891 134.704 272.496C126.66 275.128 123.169 271.787 124.009 270.069C125.465 267.12 130.019 266.728 134.741 261.222C137.093 258.46 139.165 257.601 141.629 254.391C143.01 252.524 137.019 254.26 133.939 257.825C130.561 261.708 128.153 260.793 123.02 264.041C114.845 269.192 108.517 266 106.875 263.443C105.232 260.886 106.688 258.926 108.424 256.687C113.818 249.743 112.157 246.44 110.589 248.138C98.7557 261.204 101.014 259.71 99.6702 265.328C98.3264 270.947 97.5425 272.197 98.0464 275.314C98.6623 279.215 94.8734 285.207 103.833 289.033C111.298 292.243 112.288 285.86 118.54 284.889C124.364 283.956 128.097 286.886 138.941 283.172C140.614 282.714 142.26 282.16 143.869 281.511C145.735 280.596 146.332 279.551 145.138 279.644C138.68 279.85 141.517 281.511 133.472 282.929C131.102 283.359 130.897 283.209 130.859 282.761C130.822 282.313 130.859 282.034 131.214 281.903C132.254 281.57 133.314 281.302 134.387 281.1C142.375 279.644 143.869 276.042 148.665 273.522C149.804 272.944 150.793 272.626 151.092 271.787C151.241 271.376 151.092 271.133 150.625 271.133C148.759 271.133 132.315 281.698 131.046 279.159C130.691 278.469 131.046 278.282 132.744 277.554C140.845 273.877 142.525 271.899 151.988 268.278ZM123.599 287.222C124.494 286.233 117.532 286.494 116.45 287.577C114.397 289.667 110.85 292.113 108.368 292.243C104.845 292.375 101.367 291.424 98.401 289.518C97.0853 288.636 95.8375 287.656 94.6681 286.588C91.943 283.34 90.8231 282.127 90.9351 280.391C91.2711 275.837 92.9696 277.685 82.2746 276.359C81.0427 276.21 81.6587 276.359 82.6106 280.26C83.0585 282.127 84.1411 283.023 86.6795 286.177C88.7887 288.79 90.1885 288.454 93.7162 292.131C97.7291 296.163 112.026 300.362 123.599 287.222ZM119.604 175.233C121.676 171.836 120.78 170.959 120.612 165.901C120.463 161.627 113.146 155.281 110.533 160.955C108.797 164.688 110.664 166.069 108.088 166.554C105.512 167.039 105.214 165.994 104.187 163.754C103.739 162.728 102.694 163.176 101.163 163.754C98.1771 164.912 98.681 162.504 96.2733 163.381C90.3005 165.528 93.8841 171.314 92.9136 173.441C91.2524 177.174 90.6925 176.017 89.5352 177.846C87.7912 180.329 86.7821 183.253 86.6235 186.283C86.0262 189.083 84.2344 193.749 81.36 193.506C78.8216 193.282 80.0908 191.472 78.747 189.773C78.0715 188.736 77.7452 187.51 77.8157 186.275C77.8862 185.039 78.3499 183.858 79.1389 182.905C81.6027 180.31 77.2724 176.801 77.0111 175.103C76.8539 174.167 76.9099 173.207 77.1749 172.296C77.4399 171.385 77.9071 170.545 78.5416 169.839C80.17 168.82 81.636 167.561 82.8906 166.106C83.4692 165.472 83.2265 165.136 82.6106 164.482C82.2136 164.099 81.9133 163.626 81.7344 163.104C81.5555 162.582 81.503 162.024 81.5814 161.478C81.6597 160.931 81.8666 160.411 82.185 159.96C82.5035 159.509 82.9244 159.14 83.4132 158.883C84.2433 158.443 84.9494 157.801 85.4663 157.016C87.5754 154.011 86.4742 156.102 90.3192 151.809C91.1964 150.82 90.0205 151.342 90.6365 147.348C91.719 140.311 99.5023 142.141 102.657 137.269C105.195 133.368 105.736 132.398 105.512 130.531C105.505 129.379 105.238 128.244 104.73 127.21C104.223 126.175 103.488 125.269 102.582 124.558C100.51 122.822 100.939 119.855 102.582 119.257C103.721 118.847 105.718 117.391 107.192 116.644C109.637 115.506 112.362 113.845 112.362 111.269C112.362 109.701 111.522 106.696 109.693 106.939C108.723 107.051 106.912 107.293 105.96 107.293C103.721 107.293 101.163 106.005 101.481 103.747C102.115 99.2674 105.214 100.014 104.224 97.0276C103.756 95.6741 103.704 94.2114 104.075 92.828C104.17 92.339 104.441 91.9016 104.836 91.5988C105.232 91.2961 105.725 91.149 106.222 91.1855C108.924 91.624 111.695 91.3605 114.266 90.4203C118.223 88.5538 122.348 85.3621 119.586 79.464C118.204 76.5336 122.927 71.8674 119.324 68.6384C112.138 62.1991 113.986 69.9636 107.323 67.0146C105.344 66.1373 106.539 63.9722 105.774 61.1165C105.694 60.7656 105.528 60.4402 105.29 60.1704C105.052 59.9005 104.75 59.6948 104.412 59.5721C104.074 59.4495 103.71 59.4138 103.354 59.4684C102.999 59.523 102.663 59.6661 102.377 59.8846C101.276 60.4087 100.226 61.0336 99.241 61.7511C96.9452 65.2414 97.8971 64.9801 97.5985 66.044C97.6107 66.1666 97.5987 66.2903 97.5631 66.4082C97.5275 66.5262 97.4691 66.6359 97.3911 66.7312C97.3131 66.8266 97.2171 66.9056 97.1086 66.9638C97 67.022 96.8811 67.0583 96.7585 67.0706C96.636 67.0828 96.5122 67.0708 96.3943 67.0352C96.2764 66.9997 96.1666 66.9412 96.0713 66.8632C95.976 66.7852 95.8969 66.6892 95.8387 66.5807C95.7805 66.4722 95.7442 66.3532 95.732 66.2307C93.9588 61.5458 91.999 61.4525 88.77 62.4977C87.3411 63.118 86.1704 64.213 85.4562 65.5973C84.7419 66.9817 84.5279 68.5703 84.8504 70.0943C85.9143 76.627 89.3486 77.1869 87.5568 84.2236C86.8848 86.874 82.1626 82.8237 81.9573 87.6766C81.5654 98.0542 88.546 97.7742 85.5783 104.083C82.3866 110.877 88.8633 112.65 87.1275 116.346C79.9228 131.651 86.5489 130.662 89.5912 135.888C89.8891 136.541 90.0481 137.249 90.0585 137.966C90.0688 138.684 89.9301 139.396 89.6512 140.057C89.3723 140.719 88.9592 141.315 88.438 141.808C87.9169 142.302 87.299 142.682 86.6235 142.924C81.8267 145.09 86.1382 151.118 82.5359 151.38C81.0241 151.492 75.07 147.908 75.4806 159.91C75.5739 162.112 74.566 161.776 74.3421 161.403C73.5562 158.992 73.1531 156.473 73.1475 153.937C73.1475 150.092 73.2782 149.495 71.281 146.639C70.2731 145.22 69.1906 144.772 66.0922 143.802C62.9938 142.831 62.5832 138.09 64.1137 135.496C64.543 134.749 65.4389 132.211 64.991 131.52C63.4045 129.038 62.9938 129.43 61.5753 129.448C60.1568 129.467 59.7088 128.235 59.5782 126.462C59.4662 122.729 57.2264 120.863 54.7253 120.975C54.184 120.975 53.7921 121.199 51.6456 122.841C47.0727 126.425 45.2062 121.143 45.8968 119.649C47.222 116.476 47.4834 116.57 47.5767 115.301C47.782 112.165 48.0806 111.176 49.6485 111.12C51.1861 111.246 52.7336 111.068 54.2027 110.597C56.6291 109.085 58.7196 106.957 58.3836 104.102C57.9917 100.817 60.8101 104.102 63.7404 100.518C65.5242 98.0578 66.9857 95.3794 68.0893 92.5481C69.5825 89.5244 62.8259 87.0979 61.09 87.1353C55.9199 87.2659 59.8208 79.0721 57.5437 76.7576C55.2666 74.4432 51.1977 73.5473 48.6592 75.7684C48.0433 76.3097 45.9902 77.6349 45.7475 78.9601C45.2062 81.6665 45.8409 81.4052 45.9155 83.9436C45.9522 84.1567 45.923 84.376 45.8319 84.5722C45.7408 84.7683 45.5921 84.932 45.4056 85.0415C45.219 85.151 45.0036 85.201 44.7879 85.1849C44.5722 85.1689 44.3666 85.0874 44.1983 84.9515C43.9159 84.7305 43.5677 84.6104 43.2091 84.6104C42.8505 84.6104 42.5023 84.7305 42.2199 84.9515C41.9586 85.1381 39.6815 85.7914 39.5881 87.7885C39.5881 88.7778 38.5616 88.9458 36.8631 88.9458C34.3806 88.9458 34.6979 86.7806 34.5486 83.3463C34.5486 80.8079 37.591 77.7469 39.1775 76.9629C43.8624 74.4059 37.8523 66.0627 41.7719 64.4948C44.049 63.5802 44.8889 61.6204 45.8968 59.25C46.2141 58.4847 46.0835 57.7568 45.8968 55.3864C45.7102 53.0159 44.0304 52.1387 43.0225 52.8293C38.5056 55.909 40.9507 52.288 37.7963 50.3282C35.4259 48.835 32.3462 47.1179 30.3304 47.7525C26.0375 49.1337 26.0935 49.0217 25.8135 49.507C22.9764 54.4345 28.2772 56.6183 25.4775 58.1674C23.9196 59.2213 22.1977 60.0097 20.382 60.5005C18.1982 60.7619 17.6196 59.9033 17.209 60.9485C16.0331 63.8789 15.5665 62.255 15.5851 67.4812C15.5851 69.1237 19.3181 71.0089 20.382 71.9608C20.5531 72.0914 20.6843 72.2672 20.761 72.4683C20.8376 72.6695 20.8566 72.888 20.8159 73.0993C20.7752 73.3107 20.6763 73.5065 20.5304 73.6648C20.3846 73.8231 20.1974 73.9375 19.99 73.9952C18.3102 74.3872 18.3662 75.2084 18.3662 76.1417C18.3662 77.4482 20.942 76.7763 19.3554 79.2214C18.7768 80.0986 18.3662 79.0907 15.4918 79.2214C10.6576 79.408 9.89237 79.2214 8.19387 80.5839C3.453 84.4662 2.59441 85.0075 2.22112 87.0606C2.05313 88.1618 1.67984 88.5725 2.22112 89.9537C4.34891 94.6945 5.56212 96.449 4.23692 99.0621C3.11703 101.265 4.34891 104.232 5.71144 106.304C6.23406 107.107 6.92466 107.331 8.90313 107.648C10.8816 107.965 11.7775 105.632 12.8041 104.027C13.8306 102.422 13.532 101.881 14.2786 98.4275C14.4279 97.7742 14.4466 97.6996 16.761 96.1504C17.0139 96.0389 17.2883 95.985 17.5645 95.9925C17.8408 96 18.1119 96.0687 18.3583 96.1937C18.6047 96.3187 18.8203 96.4969 18.9896 96.7153C19.1588 96.9338 19.2774 97.1871 19.3368 97.4569C20.0647 99.3234 21.8565 98.7075 23.8537 97.0276C25.0669 96.0011 27.5866 96.4117 28.0719 99.2861C29.2851 105.613 24.6563 105.725 20.382 107.872C17.9929 109.085 19.4674 111.362 20.7366 113.471C21.8565 115.338 23.5177 114.293 22.9764 115.916C22.9093 116.184 22.7719 116.429 22.5783 116.626C22.3846 116.823 22.1419 116.965 21.8752 117.036C21.351 117.205 20.8015 117.281 20.2514 117.26C19.4315 117.176 18.6031 117.266 17.8203 117.524C17.0375 117.782 16.3178 118.202 15.7084 118.757C15.0989 119.312 14.6134 119.989 14.2834 120.744C13.9534 121.499 13.7864 122.316 13.7933 123.14C13.7933 125.921 16.7424 129.747 19.3928 131.408C21.5206 132.771 21.3899 131.016 25.1789 131.11C27.2133 131.11 26.8214 133.107 26.9334 133.611C27.0632 134.017 27.2822 134.388 27.5744 134.698C27.8665 135.009 28.2243 135.249 28.6217 135.403C29.019 135.557 29.4457 135.62 29.8705 135.588C30.2954 135.555 30.7076 135.428 31.077 135.216C32.4395 133.909 32.1222 133.629 32.6821 132.528C34.9779 128.217 41.212 130.568 38.7482 134.208C38.3003 134.861 35.6498 139.509 36.3591 141.226C37.0684 142.943 39.0282 145.724 40.484 144.418C41.9399 143.111 42.4625 144.418 43.4518 142.645C43.7802 142.033 44.2802 141.53 44.8903 141.199C45.5004 140.867 46.1941 140.721 46.8861 140.778C47.726 140.778 48.118 141.413 48.7526 141.805C49.3872 142.197 49.1632 143.671 49.8911 144.436C52.9521 147.311 55.4906 145.836 58.197 145.631C60.9034 145.426 58.9622 149.364 61.9299 151.081C62.1807 151.247 62.3876 151.471 62.5332 151.734C62.6787 151.997 62.7585 152.291 62.7659 152.592C62.7732 152.893 62.7078 153.191 62.5753 153.46C62.4427 153.73 62.2469 153.964 62.0046 154.142C60.7167 155.094 59.3169 157.632 60.3621 159.256C62.0046 161.795 66.7081 162.635 67.828 162.672C69.3026 162.672 69.9372 164.538 70.2358 166.069C70.7211 168.458 69.3772 168.066 68.556 170.119C68.4396 170.499 68.4557 170.907 68.6015 171.277C68.7473 171.646 69.0142 171.955 69.3585 172.154C70.8984 172.978 72.2921 174.05 73.4835 175.327C77.7391 179.377 73.2782 182.587 74.8647 185.686C76.0219 187.944 71.1317 190.035 68.612 183.222C67.4734 180.049 67.5481 179.377 66.7455 178.836C65.6129 177.788 64.1435 177.179 62.6019 177.118C61.9139 177.164 61.2307 176.975 60.6644 176.582C60.098 176.188 59.6822 175.614 59.4849 174.953C59.0592 173.535 59.0078 172.03 59.3355 170.586C59.3355 167.45 55.4346 169.466 50.9737 165.789C49.4058 164.501 50.2831 163.269 50.3764 161.701C50.4697 160.133 50.3764 160.245 48.7526 155.747C48.3904 155.039 47.8356 154.448 47.152 154.042C46.4684 153.636 45.6839 153.431 44.8889 153.451C38.6549 155.449 39.7934 156.382 40.8947 160.917C41.2493 162.448 39.6815 164.053 38.1136 162.523C37.2269 161.347 36.1169 160.357 34.8473 159.611C29.6958 157.054 29.2478 167.973 32.6448 169.839C37.9456 172.732 32.8128 175.439 37.031 178.313C39.2522 179.806 41.268 178.481 43.0785 176.54C44.8889 174.599 48.6779 174.263 49.1259 175.943C50.1151 179.788 49.6298 179.993 50.731 180.963C51.8323 181.934 52.5975 181.673 53.2321 181.878C54.7066 182.457 55.4906 181.281 56.8531 180.87C61.0527 179.62 58.1783 186.918 61.9859 188.597C64.1511 189.568 64.9163 187.813 66.3348 187.795C69.9185 187.795 68.6679 189.941 71.9343 190.986C75.6673 192.181 75.3686 194.309 76.3952 194.365C77.1045 194.365 86.6609 194.757 87.2021 194.365C93.0629 189.176 89.4606 186.768 97.8411 188.261C99.3428 188.405 100.848 188.022 102.098 187.177C103.348 186.333 104.264 185.079 104.691 183.633C106.016 176.54 111.298 181.673 115.237 179.9C117.214 178.88 118.782 177.213 119.679 175.177L119.604 175.233ZM95.8813 278.543C95.8813 277.349 95.8813 277.349 94.9107 277.218C93.9401 277.087 94.0708 277.218 93.8282 277.89C93.3441 278.972 93.2664 280.192 93.6092 281.327C93.952 282.462 94.6924 283.435 95.6946 284.068C95.4645 282.228 95.5275 280.363 95.8813 278.543Z" fill="#000001"/>
<path d="M248.019 154.421C252.237 157.221 239.06 162.372 237.119 124.221C236.932 120.488 236.185 118.809 236.316 118.043C236.559 116.718 237.585 117.11 237.884 117.707C240.012 122.038 238.649 148.168 248.019 154.421Z" fill="#000001"/>
<path d="M235.682 171.22C235.682 173.553 235.327 178.145 234.151 179.993C232.975 181.841 233.685 182.699 233.517 185.592C233.282 190.912 233.37 196.241 233.778 201.551C233.778 201.999 235.756 209.745 228.794 210.883C228.645 210.883 217.596 211.704 216.252 211.48C206.77 210.025 206.602 212.04 201.73 210.715C201.198 210.61 200.694 210.395 200.249 210.084C199.804 209.774 199.429 209.374 199.146 208.911C198.864 208.448 198.68 207.931 198.608 207.394C198.536 206.856 198.576 206.309 198.725 205.788C199.267 202.82 199.043 202.391 198.856 188.261C198.856 186.582 197.83 185.294 198.632 181.299C198.856 180.235 197.027 180.142 196.878 176.913C196.28 164.65 198.445 166.218 207.218 165.938C236.26 165.192 235.589 165.322 235.682 171.22ZM232.658 178.481C233.532 175.766 233.856 172.904 233.61 170.063C233.405 167.543 232.826 167.525 217.54 167.935C197.251 168.477 198.632 166.815 199.005 174.412C199.005 174.412 197.811 178.854 201.208 179.657C203.597 180.217 206.807 179.396 211.81 180.179C216.364 180.926 215.71 182.718 216.793 181.934C218.375 180.797 220.217 180.072 222.15 179.825C228.123 178.686 231.856 180.833 232.658 178.537V178.481ZM229.186 208.55C232.919 207.523 232.024 203.399 231.781 199.778C231.385 193.681 231.385 187.564 231.781 181.467C228.541 181.411 225.301 181.617 222.094 182.083C220.522 182.349 219.037 182.99 217.764 183.95C216.513 184.902 215.225 184.342 214.031 183.315C212.164 181.673 207.89 181.766 205.407 181.99C204.167 182.122 202.915 182.122 201.674 181.99C200.424 181.822 200.163 182.457 200.237 184.024C200.237 184.211 201.544 199.628 200.499 206.422C200.013 209.483 203.914 209.278 206.789 209.147C209.902 208.881 213.037 209 216.121 209.502C220.499 209.777 224.894 209.456 229.186 208.55Z" fill="#000001"/>
<path d="M222.244 205.751C222.431 207.337 220.676 207.263 220.377 206.106C220.05 204.258 219.912 202.382 219.967 200.506C219.967 198.845 219.967 184.884 220.844 184.902C223.177 184.884 221.049 195.765 222.244 205.751Z" fill="#000001"/>
<path d="M218.137 177.361C218.162 177.765 218.029 178.163 217.767 178.472C217.505 178.78 217.134 178.976 216.731 179.017C216.328 179.058 215.925 178.941 215.606 178.692C215.287 178.442 215.077 178.079 215.02 177.678C214.666 175.177 218.343 175.215 218.137 177.361Z" fill="#000001"/>
<path d="M212.201 71.1947C213.937 65.2966 217.8 70.4854 216.587 70.9707C215.673 71.3067 214.721 68.8989 213.937 71.064C213.271 72.5503 213.076 74.2045 213.377 75.8049C213.788 76.7568 215.822 76.4022 216.251 78.3433C216.364 78.8578 216.298 79.3952 216.063 79.8669C215.829 80.3386 215.441 80.7163 214.963 80.9377C214.291 81.2551 213.34 81.5723 213.209 80.7884C213.022 79.6872 214.907 80.0605 214.851 78.81C214.795 77.5594 209.868 79.0713 212.201 71.1947Z" fill="#000001"/>
<path d="M213.713 30.2453C214.945 31.4212 211.846 32.9517 211.137 34.4449C210.801 35.1915 209.42 35.3781 209.42 33.7169C209.42 33.7169 209.42 33.3063 209.663 33.1757C211.324 32.0558 212.724 29.368 213.713 30.2453Z" fill="#000001"/>
<path d="M212.61 53.6313C212.63 53.7765 212.618 53.9241 212.576 54.0644C212.534 54.2047 212.463 54.3344 212.366 54.4447C212.27 54.555 212.151 54.6435 212.018 54.704C211.884 54.7646 211.739 54.796 211.593 54.796C211.446 54.796 211.302 54.7646 211.168 54.704C211.035 54.6435 210.916 54.555 210.82 54.4447C210.723 54.3344 210.652 54.2047 210.61 54.0644C210.568 53.9241 210.556 53.7765 210.576 53.6313C210.613 52.1568 212.573 52.0075 212.61 53.6313Z" fill="#000001"/>
<path d="M211.734 59.7527C211.483 59.7683 211.235 59.6875 211.041 59.5266C210.847 59.3657 210.722 59.1369 210.691 58.8869C210.66 58.637 210.726 58.3846 210.874 58.1813C211.023 57.978 211.244 57.8391 211.491 57.7929C211.743 57.7773 211.991 57.8582 212.185 58.0191C212.378 58.18 212.504 58.4087 212.535 58.6587C212.565 58.9087 212.5 59.1611 212.351 59.3644C212.202 59.5677 211.982 59.7065 211.734 59.7527Z" fill="#000001"/>
<path d="M210.13 186.769C210.13 202.933 210.839 200.488 210.485 206.293C210.485 207.413 208.898 207.45 208.842 206.461C208.228 199.554 208.109 192.611 208.488 185.687C208.488 185.09 208.861 184.642 209.458 184.735C210.056 184.828 210.112 186.004 210.13 186.769Z" fill="#000001"/>
<path d="M208.058 61.7141C208.037 61.59 208.041 61.4629 208.07 61.3405C208.1 61.218 208.153 61.1027 208.228 61.0016C208.303 60.9005 208.398 60.8155 208.507 60.7519C208.615 60.6884 208.736 60.6474 208.861 60.6316C208.985 60.6131 209.111 60.6191 209.232 60.6495C209.354 60.6798 209.468 60.7338 209.569 60.8083C209.669 60.8829 209.754 60.9765 209.818 61.0839C209.883 61.1913 209.925 61.3103 209.943 61.4342C209.991 61.5691 210.008 61.7129 209.993 61.8552C209.979 61.9976 209.933 62.1349 209.859 62.2575C209.785 62.38 209.685 62.4847 209.566 62.5641C209.447 62.6434 209.312 62.6955 209.17 62.7165C209.029 62.7375 208.884 62.727 208.747 62.6856C208.61 62.6443 208.484 62.5732 208.378 62.4774C208.272 62.3816 208.188 62.2635 208.133 62.1316C208.077 61.9996 208.052 61.8571 208.058 61.7141Z" fill="#000001"/>
<path d="M209.269 50.8156C209.269 52.3648 206.991 52.4394 207.085 50.8156C207.12 50.5506 207.249 50.3072 207.45 50.1309C207.651 49.9546 207.909 49.8574 208.177 49.8574C208.444 49.8574 208.702 49.9546 208.903 50.1309C209.104 50.3072 209.234 50.5506 209.269 50.8156Z" fill="#000001"/>
<path d="M208.376 55.2203C208.521 55.2006 208.668 55.2122 208.809 55.2542C208.949 55.2963 209.079 55.368 209.189 55.4643C209.299 55.5607 209.388 55.6795 209.448 55.8129C209.509 55.9462 209.54 56.091 209.54 56.2375C209.54 56.384 209.509 56.5288 209.448 56.6621C209.388 56.7955 209.299 56.9143 209.189 57.0107C209.079 57.107 208.949 57.1787 208.809 57.2208C208.668 57.2629 208.521 57.2744 208.376 57.2547C208.23 57.2744 208.083 57.2629 207.942 57.2208C207.802 57.1787 207.673 57.107 207.562 57.0107C207.452 56.9143 207.363 56.7955 207.303 56.6621C207.242 56.5288 207.211 56.384 207.211 56.2375C207.211 56.091 207.242 55.9462 207.303 55.8129C207.363 55.6795 207.452 55.5607 207.562 55.4643C207.673 55.368 207.802 55.2963 207.942 55.2542C208.083 55.2122 208.23 55.2006 208.376 55.2203Z" fill="#000001"/>
<path d="M205.721 64.829C205.779 64.6262 205.901 64.4478 206.07 64.3207C206.238 64.1937 206.443 64.125 206.654 64.125C206.865 64.125 207.07 64.1937 207.239 64.3207C207.407 64.4478 207.529 64.6262 207.587 64.829C207.629 64.9734 207.636 65.1255 207.608 65.2732C207.581 65.4208 207.519 65.5601 207.429 65.6801C207.339 65.8 207.221 65.8973 207.087 65.9643C206.953 66.0313 206.804 66.0661 206.654 66.0661C206.504 66.0661 206.356 66.0313 206.221 65.9643C206.087 65.8973 205.97 65.8 205.879 65.6801C205.789 65.5601 205.727 65.4208 205.7 65.2732C205.672 65.1255 205.68 64.9734 205.721 64.829Z" fill="#000001"/>
<path d="M204.38 59.1197C204.387 58.9124 204.457 58.7121 204.578 58.5443C204.7 58.3765 204.869 58.2487 205.064 58.1772C205.259 58.1058 205.47 58.0939 205.672 58.1431C205.873 58.1923 206.056 58.3003 206.196 58.4534C206.336 58.6066 206.427 58.7979 206.458 59.003C206.489 59.2081 206.458 59.4178 206.369 59.6053C206.28 59.7928 206.138 59.9497 205.96 60.056C205.782 60.1623 205.576 60.2133 205.369 60.2023C205.095 60.1878 204.838 60.0661 204.653 59.8636C204.467 59.6611 204.369 59.3939 204.38 59.1197Z" fill="#000001"/>
<path d="M204.901 138.236C204.901 139.542 203.035 140.102 202.493 138.796C201.765 136.631 204.21 135.193 204.901 138.236Z" fill="#000001"/>
<path d="M204.419 52.8105C205.987 52.8105 205.669 55.069 204.419 55.0503C204.122 55.0503 203.837 54.9323 203.627 54.7223C203.417 54.5123 203.299 54.2274 203.299 53.9304C203.299 53.6334 203.417 53.3486 203.627 53.1386C203.837 52.9285 204.122 52.8105 204.419 52.8105Z" fill="#000001"/>
<path d="M201.99 49.5806C201.99 49.2935 202.104 49.0181 202.307 48.8151C202.51 48.6121 202.786 48.498 203.073 48.498C203.36 48.498 203.635 48.6121 203.838 48.8151C204.041 49.0181 204.155 49.2935 204.155 49.5806C204.155 49.8677 204.041 50.1431 203.838 50.3461C203.635 50.5491 203.36 50.6632 203.073 50.6632C202.786 50.6632 202.51 50.5491 202.307 50.3461C202.104 50.1431 201.99 49.8677 201.99 49.5806Z" fill="#000001"/>
<path d="M196.651 59.4938C198.35 60.3711 196.913 61.7523 196.017 61.6776C195.121 61.603 192.601 59.8111 188.775 58.4486C187.852 58.0958 186.834 58.0781 185.9 58.3988C184.965 58.7194 184.173 59.358 183.661 60.2031C183.269 61.3603 181.085 61.5096 181.533 59.9978C181.989 58.8197 182.804 57.8148 183.862 57.1249C184.921 56.4349 186.169 56.0949 187.431 56.1528C190.583 57.0356 193.665 58.1523 196.651 59.4938Z" fill="#000001"/>
<path d="M192.901 75.5249C193.33 76.8128 192.117 79.2579 188.907 79.1086C187.245 78.9966 187.488 77.4101 188.085 77.4661C188.85 77.5899 189.633 77.5193 190.362 77.2608C190.643 77.1425 190.884 76.9459 191.057 76.6943C191.229 76.4427 191.325 76.1469 191.333 75.8422C191.445 74.2744 192.658 74.741 192.901 75.5249Z" fill="#000001"/>
<path d="M191.536 314.789C191.723 318.018 187.654 317.308 188.699 314.341C189.371 312.437 191.443 313.258 191.536 314.789Z" fill="#000001"/>
<path d="M190.642 97.9962C191.164 98.8361 188.925 102.214 187.021 101.878C186.349 101.692 185.304 101.636 185.584 100.609C185.619 100.456 185.714 100.324 185.846 100.24C185.979 100.156 186.14 100.128 186.293 100.161C189.41 100.535 189.205 95.7004 190.642 97.9962Z" fill="#000001"/>
<path d="M189.561 74.575C189.616 74.8348 189.58 75.1055 189.459 75.3417C189.338 75.578 189.139 75.7655 188.896 75.8727C188.653 75.9799 188.381 76.0003 188.125 75.9306C187.869 75.8608 187.644 75.7051 187.489 75.4896C186.687 74.3324 187.023 73.1565 187.62 72.9139C188.217 72.6712 189.505 73.1192 189.561 74.575Z" fill="#000001"/>
<path d="M189.225 219.131C189.237 219.317 189.213 219.504 189.153 219.681C189.093 219.858 188.998 220.021 188.875 220.161C188.752 220.302 188.603 220.417 188.435 220.499C188.268 220.582 188.086 220.631 187.9 220.643C187.713 220.655 187.527 220.631 187.35 220.571C187.173 220.511 187.01 220.416 186.869 220.293C186.729 220.17 186.614 220.021 186.532 219.853C186.449 219.686 186.4 219.504 186.388 219.318C186.376 219.131 186.4 218.945 186.46 218.768C186.52 218.591 186.614 218.428 186.737 218.287C186.86 218.147 187.01 218.032 187.177 217.949C187.345 217.867 187.527 217.818 187.713 217.806C187.899 217.794 188.086 217.818 188.263 217.878C188.44 217.938 188.603 218.032 188.743 218.155C188.884 218.278 188.999 218.428 189.081 218.595C189.164 218.763 189.213 218.945 189.225 219.131Z" fill="#000001"/>
<path d="M186.331 238.021C186.817 237.33 189.038 237.816 188.72 239.552C188.161 242.501 184.372 240.877 186.331 238.021Z" fill="#000001"/>
<path d="M186.292 291.757C186.713 291.741 187.124 291.891 187.438 292.173C187.751 292.455 187.943 292.848 187.972 293.269C187.984 293.479 187.955 293.689 187.886 293.888C187.816 294.086 187.708 294.269 187.567 294.425C187.427 294.581 187.256 294.708 187.066 294.798C186.876 294.888 186.67 294.939 186.46 294.949C184.052 295.079 184.911 291.738 186.292 291.757Z" fill="#000001"/>
<path d="M184.93 273.037C186.05 273.224 186.498 273.616 186.424 274.493C186.424 275.706 185.808 276.359 184.93 276.359C183.325 276.229 183.12 273.541 184.93 273.037Z" fill="#000001"/>
<path d="M184.877 197.35C185.941 197.462 186.389 197.91 186.333 198.899C186.203 201.269 183.272 200.915 183.422 198.992C183.534 197.592 184.149 197.35 184.877 197.35Z" fill="#000001"/>
<path d="M185.862 96.933C186.683 97.3063 186.16 98.6128 185.414 98.5568C172.479 97.5489 172.068 99.9567 169.922 99.714C168.447 99.5461 169.791 97.325 177.798 96.1864C181.27 96.2797 183.323 95.8504 185.862 96.933Z" fill="#000001"/>
<path d="M182.806 178.777C182.821 178.367 182.998 177.978 183.299 177.698C183.6 177.418 184 177.269 184.411 177.284C184.822 177.299 185.21 177.477 185.49 177.778C185.77 178.079 185.919 178.479 185.904 178.889C185.889 179.3 185.712 179.688 185.411 179.968C185.11 180.248 184.71 180.397 184.299 180.383C183.888 180.368 183.5 180.19 183.22 179.889C182.94 179.588 182.791 179.188 182.806 178.777Z" fill="#000001"/>
<path d="M184.818 159.33C184.948 161.588 181.943 161.906 181.869 159.834C181.794 157.762 184.724 157.837 184.818 159.33Z" fill="#000001"/>
<path d="M165.988 54.9219C171.289 54.9219 171.308 58.6548 167.855 57.367C162.069 55.1832 158.187 63.2091 155.984 62.7611C155.629 62.7611 155.107 62.5931 155.125 62.1452C155.16 61.7509 155.332 61.3812 155.611 61.0999C160.426 56.4337 162.797 54.9592 165.988 54.9219Z" fill="#000001"/>
<path d="M165.185 79.2943C166.267 79.2943 165.876 80.5075 165.596 80.7314C165.166 81.004 164.679 81.1714 164.173 81.2201C163.667 81.2687 163.157 81.1972 162.684 81.0114C159.921 80.1902 161.079 77.0918 162.385 78.7156C163.43 79.9848 164.494 79.3689 165.185 79.2943Z" fill="#000001"/>
<path d="M165.034 75.3573C165.706 76.4958 165.314 77.4851 164.605 77.7277C163.895 77.9704 163.223 77.2051 163.018 76.4772C162.607 75.0026 164.25 74.0134 165.034 75.3573Z" fill="#000001"/>
<path d="M163.916 139.322C164.681 141.618 161.564 141.954 161.564 139.677C161.564 138.837 161.788 138.464 162.386 138.37C163.282 138.24 163.636 138.464 163.916 139.322Z" fill="#000001"/>
<path d="M104.171 233.806C103.592 246.162 88.1189 244.893 86.2897 233.414C83.9193 218.65 103.611 218.538 104.171 233.806ZM92.5238 239.405C96.6487 242.224 101.968 239.592 102.099 233.544C101.203 224.94 93.4944 222.738 90.2653 225.799C87.0363 228.86 86.999 235.579 92.5238 239.349V239.405Z" fill="#000001"/>
</g>
<defs>
<clipPath id="clip0_439_10770">
<rect width="322" height="348" fill="white"/>
</clipPath>
</defs>
</svg>
