<svg width="63" height="63" viewBox="0 0 63 63" fill="none" xmlns="http://www.w3.org/2000/svg">
<rect x="1" y="1" width="61" height="61" rx="6.875" fill="#CCDDFF" stroke="black" stroke-width="2"/>
<g filter="url(#filter0_d_437_10573)">
<path d="M31.5 11.8125C20.6325 11.8125 11.8125 20.6325 11.8125 31.5C11.8125 42.3675 20.6325 51.1875 31.5 51.1875C42.3675 51.1875 51.1875 42.3675 51.1875 31.5C51.1875 20.6325 42.3675 11.8125 31.5 11.8125ZM24.6684 34.3941C25.2394 34.965 25.2394 35.91 24.6684 36.4809C24.3731 36.7762 23.9991 36.9141 23.625 36.9141C23.2509 36.9141 22.8769 36.7762 22.5816 36.4809L18.6441 32.5434C18.0731 31.9725 18.0731 31.0275 18.6441 30.4566L22.5816 26.5191C23.1525 25.9481 24.0975 25.9481 24.6684 26.5191C25.2394 27.09 25.2394 28.035 24.6684 28.6059L21.7744 31.5L24.6684 34.3941ZM34.8272 27.4838L30.8897 36.6778C30.6534 37.2291 30.1022 37.5637 29.5312 37.5637C29.3344 37.5637 29.1375 37.5244 28.9603 37.4456C28.2122 37.1306 27.8578 36.2644 28.1925 35.4966L32.13 26.3025C32.445 25.5544 33.3113 25.2 34.0594 25.5347C34.8075 25.8694 35.1422 26.7356 34.8272 27.4838ZM44.3559 32.5434L40.4184 36.4809C40.1231 36.7762 39.7491 36.9141 39.375 36.9141C39.0009 36.9141 38.6269 36.7762 38.3316 36.4809C37.7606 35.91 37.7606 34.965 38.3316 34.3941L41.2256 31.5L38.3316 28.6059C37.7606 28.035 37.7606 27.09 38.3316 26.5191C38.9025 25.9481 39.8475 25.9481 40.4184 26.5191L44.3559 30.4566C44.9269 31.0275 44.9269 31.9725 44.3559 32.5434Z" fill="#6698FA"/>
</g>
<defs>
<filter id="filter0_d_437_10573" x="7.875" y="7.875" width="51.25" height="51.25" filterUnits="userSpaceOnUse" color-interpolation-filters="sRGB">
<feFlood flood-opacity="0" result="BackgroundImageFix"/>
<feColorMatrix in="SourceAlpha" type="matrix" values="0 0 0 0 0 0 0 0 0 0 0 0 0 0 0 0 0 0 127 0" result="hardAlpha"/>
<feOffset dx="4" dy="4"/>
<feComposite in2="hardAlpha" operator="out"/>
<feColorMatrix type="matrix" values="0 0 0 0 0 0 0 0 0 0 0 0 0 0 0 0 0 0 1 0"/>
<feBlend mode="normal" in2="BackgroundImageFix" result="effect1_dropShadow_437_10573"/>
<feBlend mode="normal" in="SourceGraphic" in2="effect1_dropShadow_437_10573" result="shape"/>
</filter>
</defs>
</svg>
