<svg width="72" height="72" viewBox="0 0 72 72" fill="none" xmlns="http://www.w3.org/2000/svg">
<g filter="url(#filter0_d_204_1664)">
<path d="M55.6204 12.3595L39.1204 6.17953C37.4104 5.54953 34.6204 5.54953 32.9104 6.17953L16.4104 12.3595C13.2304 13.5595 10.6504 17.2795 10.6504 20.6695V44.9695C10.6504 47.3995 12.2404 50.6095 14.1904 52.0495L30.6904 64.3795C33.6004 66.5695 38.3704 66.5695 41.2804 64.3795L57.7804 52.0495C59.7304 50.5795 61.3204 47.3995 61.3204 44.9695V20.6695C61.3504 17.2795 58.7704 13.5595 55.6204 12.3595ZM46.4404 29.1595L33.5404 42.0595C33.0904 42.5095 32.5204 42.7195 31.9504 42.7195C31.3804 42.7195 30.8104 42.5095 30.3604 42.0595L25.5604 37.1995C24.6904 36.3295 24.6904 34.8895 25.5604 34.0195C26.4304 33.1495 27.8704 33.1495 28.7404 34.0195L31.9804 37.2595L43.2904 25.9495C44.1604 25.0795 45.6004 25.0795 46.4704 25.9495C47.3404 26.8195 47.3404 28.2895 46.4404 29.1595Z" fill="url(#paint0_linear_204_1664)"/>
<path d="M14.4897 51.649L14.4874 51.6473C13.5939 50.9875 12.7541 49.8962 12.1366 48.6577C11.5193 47.4195 11.1504 46.0865 11.1504 44.9695V20.6695C11.1504 19.0959 11.752 17.4159 12.7488 15.9782C13.7454 14.5407 15.1093 13.3851 16.5863 12.8276C16.5865 12.8275 16.5867 12.8274 16.5869 12.8273L33.0832 6.6487C33.0836 6.64856 33.084 6.64842 33.0844 6.64827C33.8672 6.36011 34.929 6.20703 36.0154 6.20703C37.1018 6.20703 38.1636 6.36011 38.9464 6.64827C38.9468 6.64841 38.9471 6.64856 38.9475 6.6487L55.4424 12.8268C55.4429 12.827 55.4433 12.8271 55.4438 12.8273C56.9055 13.3846 58.2619 14.5397 59.251 15.9768C60.2405 17.4143 60.8343 19.0932 60.8204 20.6651V20.6695V44.9695C60.8204 46.0861 60.4517 47.4114 59.8344 48.6459C59.2175 49.8799 58.377 50.9733 57.4802 51.6496C57.48 51.6499 57.4797 51.6501 57.4794 51.6503L40.9811 63.979L40.9797 63.98C39.6264 64.9985 37.8173 65.522 35.9854 65.522C34.1534 65.522 32.3444 64.9985 30.9911 63.98L30.9897 63.979L14.4897 51.649ZM42.9368 25.596L31.9804 36.5524L29.0939 33.666C28.0287 32.6007 26.2721 32.6007 25.2068 33.666C24.1419 34.7309 24.1416 36.4866 25.2057 37.552C25.2061 37.5524 25.2065 37.5527 25.2068 37.5531L30.0046 42.4109L30.0068 42.4131C30.5555 42.9618 31.2549 43.2195 31.9504 43.2195C32.6458 43.2195 33.3452 42.9618 33.8939 42.4131L46.7911 29.5159C47.8902 28.45 47.8891 26.6612 46.8239 25.596C45.7587 24.5307 44.0021 24.5307 42.9368 25.596Z" stroke="black"/>
</g>
<defs>
<filter id="filter0_d_204_1664" x="10.6504" y="5.70703" width="54.6699" height="64.3145" filterUnits="userSpaceOnUse" color-interpolation-filters="sRGB">
<feFlood flood-opacity="0" result="BackgroundImageFix"/>
<feColorMatrix in="SourceAlpha" type="matrix" values="0 0 0 0 0 0 0 0 0 0 0 0 0 0 0 0 0 0 127 0" result="hardAlpha"/>
<feOffset dx="4" dy="4"/>
<feComposite in2="hardAlpha" operator="out"/>
<feColorMatrix type="matrix" values="0 0 0 0 0 0 0 0 0 0 0 0 0 0 0 0 0 0 1 0"/>
<feBlend mode="normal" in2="BackgroundImageFix" result="effect1_dropShadow_204_1664"/>
<feBlend mode="normal" in="SourceGraphic" in2="effect1_dropShadow_204_1664" result="shape"/>
</filter>
<linearGradient id="paint0_linear_204_1664" x1="-5.71655" y1="25.1893" x2="35.5933" y2="78.9095" gradientUnits="userSpaceOnUse">
<stop stop-color="#C7C4FF"/>
<stop offset="1" stop-color="#926CFF"/>
</linearGradient>
</defs>
</svg>
