<svg width="24" height="25" viewBox="0 0 24 25" fill="none" xmlns="http://www.w3.org/2000/svg">
<path opacity="0.4" d="M18 3.16113H6C3.79 3.16113 2 4.94113 2 7.13113V17.1911C2 19.3811 3.79 21.1611 6 21.1611H18C20.21 21.1611 22 19.3811 22 17.1911V7.13113C22 4.94113 20.21 3.16113 18 3.16113Z" fill="#926CFF"/>
<path d="M19 8.91113H14C13.59 8.91113 13.25 8.57113 13.25 8.16113C13.25 7.75113 13.59 7.41113 14 7.41113H19C19.41 7.41113 19.75 7.75113 19.75 8.16113C19.75 8.57113 19.41 8.91113 19 8.91113Z" fill="#926CFF"/>
<path d="M19 12.9111H15C14.59 12.9111 14.25 12.5711 14.25 12.1611C14.25 11.7511 14.59 11.4111 15 11.4111H19C19.41 11.4111 19.75 11.7511 19.75 12.1611C19.75 12.5711 19.41 12.9111 19 12.9111Z" fill="#926CFF"/>
<path d="M19 16.9111H17C16.59 16.9111 16.25 16.5711 16.25 16.1611C16.25 15.7511 16.59 15.4111 17 15.4111H19C19.41 15.4111 19.75 15.7511 19.75 16.1611C19.75 16.5711 19.41 16.9111 19 16.9111Z" fill="#926CFF"/>
<path d="M8.49994 11.9511C9.77572 11.9511 10.8099 10.9168 10.8099 9.64105C10.8099 8.36528 9.77572 7.33105 8.49994 7.33105C7.22416 7.33105 6.18994 8.36528 6.18994 9.64105C6.18994 10.9168 7.22416 11.9511 8.49994 11.9511Z" fill="#926CFF"/>
<path d="M9.30003 13.2709C8.77003 13.2209 8.22003 13.2209 7.69003 13.2709C6.01003 13.4309 4.66003 14.7609 4.50003 16.4409C4.49003 16.5809 4.53003 16.7209 4.63003 16.8209C4.73003 16.9209 4.86003 16.9909 5.00003 16.9909H12C12.14 16.9909 12.28 16.9309 12.37 16.8309C12.46 16.7309 12.51 16.5909 12.5 16.4509C12.33 14.7609 10.99 13.4309 9.30003 13.2709Z" fill="#926CFF"/>
</svg>
