<svg width="50" height="50" viewBox="0 0 50 50" fill="none" xmlns="http://www.w3.org/2000/svg">
<g filter="url(#filter0_d_1849_7470)">
<circle cx="23" cy="23" r="20.5" fill="#F5F5F5" stroke="white" stroke-width="5"/>
<g clip-path="url(#clip0_1849_7470)">
<path d="M17.414 27.0001L27.556 16.8581L26.142 15.4441L16 25.5861V27.0001H17.414ZM18.243 29.0001H14V24.7571L25.435 13.3221C25.6225 13.1346 25.8768 13.0293 26.142 13.0293C26.4072 13.0293 26.6615 13.1346 26.849 13.3221L29.678 16.1511C29.8655 16.3386 29.9708 16.5929 29.9708 16.8581C29.9708 17.1232 29.8655 17.3776 29.678 17.5651L18.243 29.0001ZM14 31.0001H32V33.0001H14V31.0001Z" fill="black"/>
</g>
</g>
<defs>
<filter id="filter0_d_1849_7470" x="0" y="0" width="49.1057" height="49.1057" filterUnits="userSpaceOnUse" color-interpolation-filters="sRGB">
<feFlood flood-opacity="0" result="BackgroundImageFix"/>
<feColorMatrix in="SourceAlpha" type="matrix" values="0 0 0 0 0 0 0 0 0 0 0 0 0 0 0 0 0 0 127 0" result="hardAlpha"/>
<feOffset dx="3.10569" dy="3.10569"/>
<feComposite in2="hardAlpha" operator="out"/>
<feColorMatrix type="matrix" values="0 0 0 0 0 0 0 0 0 0 0 0 0 0 0 0 0 0 1 0"/>
<feBlend mode="normal" in2="BackgroundImageFix" result="effect1_dropShadow_1849_7470"/>
<feBlend mode="normal" in="SourceGraphic" in2="effect1_dropShadow_1849_7470" result="shape"/>
</filter>
<clipPath id="clip0_1849_7470">
<rect width="24" height="24" fill="white" transform="translate(11 11)"/>
</clipPath>
</defs>
</svg>
