<svg width="42" height="42" viewBox="0 0 42 42" fill="none" xmlns="http://www.w3.org/2000/svg">
<path fill-rule="evenodd" clip-rule="evenodd" d="M28.0658 19.6841C28.9618 20.1828 29.975 20.4646 31.0705 20.4646C34.5058 20.4646 37.2935 17.6751 37.2935 14.2398C37.2935 10.8221 34.5058 8.03257 31.0705 8.03257C30.3898 8.03257 29.7423 8.14982 29.128 8.34757C30.024 9.79307 30.5385 11.5011 30.5385 13.3106C30.5385 15.7676 29.625 17.9918 28.0658 19.6841Z" fill="#8D65FF"/>
<path fill-rule="evenodd" clip-rule="evenodd" d="M10.921 20.464C12.0165 20.464 13.028 20.1823 13.9258 19.6835C12.3648 17.9913 11.4513 15.767 11.4513 13.31C11.4513 11.5023 11.9658 9.79253 12.8635 8.34878C12.2493 8.14928 11.6018 8.03203 10.921 8.03203C7.48579 8.03203 4.69629 10.8215 4.69629 14.2393C4.69629 17.6763 7.48579 20.464 10.921 20.464Z" fill="#8D65FF"/>
<path fill-rule="evenodd" clip-rule="evenodd" d="M20.9953 21.2069C25.3458 21.2069 28.8843 17.6684 28.8843 13.3179C28.8843 8.96916 25.3458 5.43066 20.9953 5.43066C16.6448 5.43066 13.1063 8.96916 13.1063 13.3179C13.1063 17.6684 16.6448 21.2069 20.9953 21.2069Z" fill="#8D65FF"/>
<g opacity="0.4">
<path fill-rule="evenodd" clip-rule="evenodd" d="M40.4147 28.9953C39.1372 24.9948 35.751 22.7058 31.1047 22.7058H31.0715C29.178 22.6883 27.4857 23.0698 26.0577 23.7995C30.0425 25.0788 32.9965 27.9173 34.3562 31.9335C36.514 31.6343 38.39 30.971 40.049 29.9578L40.5967 29.6095L40.4147 28.9953Z" fill="#8D65FF"/>
<path fill-rule="evenodd" clip-rule="evenodd" d="M15.8513 23.7673C14.4565 23.0708 12.8133 22.7051 10.9548 22.7051H10.8883C6.24203 22.7051 2.85578 24.9958 1.59403 28.9946L1.39453 29.6088L1.94228 29.9571C3.51903 30.9213 5.37928 31.5671 7.45303 31.8996C8.83028 27.8676 11.835 25.0116 15.8513 23.7673Z" fill="#8D65FF"/>
<path fill-rule="evenodd" clip-rule="evenodd" d="M20.9362 24.6807C20.9082 24.6807 20.882 24.6807 20.8557 24.6807C14.8812 24.6807 10.5255 27.6172 8.90498 32.7429L8.70898 33.3624L9.26373 33.7019C12.4277 35.6304 16.2077 36.5684 20.819 36.5684H20.9677C25.5825 36.5684 29.3642 35.6304 32.5282 33.7019L33.0847 33.3624L32.8887 32.7429C31.2665 27.6172 26.9125 24.6807 20.9362 24.6807Z" fill="#8D65FF"/>
</g>
</svg>
