<svg width="51" height="42" viewBox="0 0 51 42" fill="none" xmlns="http://www.w3.org/2000/svg">
<path d="M25.196 16.3201L25.1952 15.3361C24.4816 15.2073 23.9395 14.5809 23.9395 13.8304V9.76899C23.9395 8.92455 24.6256 8.23828 25.47 8.23828H48.2795C49.1241 8.23828 49.8102 8.92458 49.8102 9.76899V13.8304C49.8102 14.5809 49.2681 15.2073 48.5544 15.3361L48.5536 16.3201C49.2681 16.4502 49.8102 17.0772 49.8102 17.8275V21.8889C49.8102 22.6388 49.2686 23.2646 48.5536 23.3948L48.5544 24.3787C49.2681 24.5076 49.8102 25.134 49.8102 25.8845V29.9459C49.8102 30.6964 49.2681 31.3228 48.5544 31.4516L48.5536 32.4355C49.2686 32.5658 49.8102 33.1915 49.8102 33.9414V38.0028C49.8102 38.8472 49.1241 39.5336 48.2795 39.5336H25.47C24.6256 39.5336 23.9395 38.8473 23.9395 38.0028V33.9414C23.9395 33.1915 24.4811 32.5658 25.196 32.4355L25.1952 31.4516C24.4816 31.3228 23.9395 30.6964 23.9395 29.9459V25.8845C23.9395 25.134 24.4816 24.5076 25.1952 24.3787L25.196 23.3948C24.4811 23.2646 23.9395 22.6388 23.9395 21.8889V17.8275C23.9395 17.0772 24.4815 16.4502 25.196 16.3201Z" fill="#BDA6FF" stroke="black"/>
<path d="M49.5122 14.7369C49.3116 15.0095 49.0228 15.2135 48.6885 15.3062H48.2112V15.8062V15.8156H48.5594L48.5586 15.8423H48.2112V22.2923V22.7923H48.7112H49.5133C49.3137 23.0644 49.0265 23.2682 48.694 23.3616H47.0797H46.5797V23.8616V30.3492V30.8492H47.0797H49.5137C49.3151 31.1199 49.0297 31.3237 48.6991 31.4185H44.6019H44.1019V31.9185V39.5336H43.5325V31.9185V31.4185H43.0325H41.5475H41.0475V31.9185V39.5336H40.4781V31.9185V31.4185H39.9781H29.5556H29.0556V31.9185V39.5336H28.4863V31.9185V31.4185H27.9863H25.0486C24.7178 31.3239 24.4324 31.12 24.2338 30.8492H33.3394H33.8394V30.3492V23.8616V23.3616H33.3394H25.0536C24.7209 23.2683 24.4336 23.0644 24.234 22.7923H25.7394H26.2394V22.2923V15.8062V15.3062H25.7394H25.0591C24.7252 15.2136 24.4365 15.0095 24.2358 14.7369H30.07H30.57V14.2369V8.23828H31.1393V14.2369V14.7369H31.6393H40.1687H40.6687V14.2369V8.23828H41.238V14.2369V14.7369H41.738H43.3557H43.8557V14.2369V8.23828H44.425V14.2369V14.7369H44.925H49.5122ZM34.9087 23.3616H34.4087V23.8616V30.3492V30.8492H34.9087H36.095H36.595V30.3492V23.8616V23.3616H36.095H34.9087ZM37.6643 23.3616H37.1643V23.8616V30.3492V30.8492H37.6643H45.5103H46.0103V30.3492V23.8616V23.3616H45.5103H37.6643ZM27.3088 15.3062H26.8088V15.8062V22.2923V22.7923H27.3088H39.0089H39.5089V22.2923V15.8062V15.3062H39.0089H27.3088ZM40.5783 15.3062H40.0783V15.8062V22.2923V22.7923H40.5783H47.1418H47.6418V22.2923V15.8062V15.3062H47.1418H40.5783Z" fill="#8D65FF" stroke="black"/>
<g filter="url(#filter0_d_4021_13836)">
<path d="M40.1501 20.0461C40.1501 30.8347 31.2807 39.5923 20.3251 39.5923C9.36944 39.5923 0.5 30.8347 0.5 20.0461C0.5 9.2576 9.36944 0.5 20.3251 0.5C31.2807 0.5 40.1501 9.2576 40.1501 20.0461Z" fill="#BDA6FF" stroke="black"/>
<path d="M36.8096 19.9191C36.8096 28.9137 29.4146 36.2171 20.2778 36.2171C11.1411 36.2171 3.74609 28.9137 3.74609 19.9191C3.74609 10.9245 11.1411 3.62109 20.2778 3.62109C29.4146 3.62109 36.8096 10.9245 36.8096 19.9191Z" fill="#8D65FF" stroke="black"/>
</g>
<path d="M17.8987 17.0516L19.2277 16.8511V16.2934C19.2277 16.0947 19.3888 15.9336 19.5875 15.9336H20.721C20.9197 15.9336 21.0808 16.0947 21.0808 16.2934V16.8511L22.4098 17.0516C22.5746 17.0765 22.7008 17.2113 22.7147 17.3774L22.9282 19.9245C22.9458 20.1344 22.7802 20.3144 22.5696 20.3144H17.7389C17.5283 20.3144 17.3627 20.1344 17.3803 19.9245L17.5938 17.3774C17.6077 17.2113 17.7339 17.0765 17.8987 17.0516Z" stroke="#BDA6FF" stroke-width="0.017991"/>
<path d="M20.6172 16.8584H19.6816V16.6245C19.6816 16.4953 19.7864 16.3906 19.9155 16.3906H20.3833C20.5125 16.3906 20.6172 16.4953 20.6172 16.6245V16.8584Z" stroke="#BDA6FF" stroke-width="0.017991"/>
<g filter="url(#filter1_d_4021_13836)">
<path d="M10.6211 15.0427V11.7242C10.6211 11.5874 10.732 11.4766 10.8687 11.4766H29.4422C29.579 11.4766 29.6899 11.5874 29.6899 11.7242V15.0427C29.6899 15.1794 29.579 15.2903 29.4422 15.2903H27.783V20.0451C27.783 22.8626 25.499 25.1467 22.6815 25.1467H17.6295V30.5454C14.812 30.5454 12.528 28.2613 12.528 25.4438V15.2903H10.8687C10.732 15.2903 10.6211 15.1794 10.6211 15.0427Z" fill="#BDA6FF"/>
<path d="M10.6211 15.0427V11.7242C10.6211 11.5874 10.732 11.4766 10.8687 11.4766H29.4422C29.579 11.4766 29.6899 11.5874 29.6899 11.7242V15.0427C29.6899 15.1794 29.579 15.2903 29.4422 15.2903H27.783V20.0451C27.783 22.8626 25.499 25.1467 22.6815 25.1467H17.6295V30.5454C14.812 30.5454 12.528 28.2613 12.528 25.4438V15.2903H10.8687C10.732 15.2903 10.6211 15.1794 10.6211 15.0427Z" stroke="black" stroke-width="0.619117"/>
</g>
<path d="M17.0514 16.5155L18.8809 16.2396V15.4719C18.8809 15.1983 19.1026 14.9766 19.3762 14.9766H20.9363C21.2099 14.9766 21.4316 15.1983 21.4316 15.4719V16.2396L23.2611 16.5155C23.4879 16.5497 23.6616 16.7353 23.6808 16.9639L23.9746 20.4701C23.9988 20.759 23.7709 21.0068 23.481 21.0068H16.8315C16.5416 21.0068 16.3137 20.759 16.3379 20.4701L16.6318 16.9639C16.6509 16.7353 16.8246 16.5497 17.0514 16.5155Z" fill="white" stroke="black" stroke-width="0.619117"/>
<path d="M20.8034 16.3256H19.5156V15.6694C19.5156 15.6147 19.56 15.5703 19.6147 15.5703H20.7043C20.759 15.5703 20.8034 15.6147 20.8034 15.6694V16.3256Z" fill="#28273C" stroke="#BDA6FF" stroke-width="0.0247647"/>
<path d="M23.3477 20.695C23.445 20.5652 23.5065 20.4121 23.526 20.2511L23.5953 19.6797L23.6705 20.5607C23.6767 20.633 23.6197 20.695 23.5471 20.695H23.3477Z" fill="white"/>
<path d="M16.9333 17.3724C17.0072 17.1137 17.183 16.8961 17.4204 16.7695L17.0852 16.8225C17.0059 16.835 16.9456 16.9003 16.9394 16.9804L16.9004 17.4877L16.9333 17.3724Z" fill="white"/>
<path d="M13.4512 14.3047H15.0164L13.9099 14.8084L13.4512 14.9973V14.3047Z" fill="#BDA6FF"/>
<path d="M21.8379 23.796C23.5679 23.555 24.9425 22.2212 25.2356 20.4992L25.4721 19.1094L25.5211 20.0479C25.6302 22.1356 23.9273 23.8686 21.8379 23.796Z" fill="#BDA6FF"/>
<defs>
<filter id="filter0_d_4021_13836" x="0" y="0" width="42.1504" height="41.5938" filterUnits="userSpaceOnUse" color-interpolation-filters="sRGB">
<feFlood flood-opacity="0" result="BackgroundImageFix"/>
<feColorMatrix in="SourceAlpha" type="matrix" values="0 0 0 0 0 0 0 0 0 0 0 0 0 0 0 0 0 0 127 0" result="hardAlpha"/>
<feOffset dx="1.5" dy="1.5"/>
<feComposite in2="hardAlpha" operator="out"/>
<feColorMatrix type="matrix" values="0 0 0 0 0 0 0 0 0 0 0 0 0 0 0 0 0 0 1 0"/>
<feBlend mode="normal" in2="BackgroundImageFix" result="effect1_dropShadow_4021_13836"/>
<feBlend mode="normal" in="SourceGraphic" in2="effect1_dropShadow_4021_13836" result="shape"/>
</filter>
<filter id="filter1_d_4021_13836" x="10.3125" y="11.168" width="20.2819" height="20.2819" filterUnits="userSpaceOnUse" color-interpolation-filters="sRGB">
<feFlood flood-opacity="0" result="BackgroundImageFix"/>
<feColorMatrix in="SourceAlpha" type="matrix" values="0 0 0 0 0 0 0 0 0 0 0 0 0 0 0 0 0 0 127 0" result="hardAlpha"/>
<feOffset dx="0.594352" dy="0.594352"/>
<feComposite in2="hardAlpha" operator="out"/>
<feColorMatrix type="matrix" values="0 0 0 0 0.156863 0 0 0 0 0.152941 0 0 0 0 0.235294 0 0 0 1 0"/>
<feBlend mode="normal" in2="BackgroundImageFix" result="effect1_dropShadow_4021_13836"/>
<feBlend mode="normal" in="SourceGraphic" in2="effect1_dropShadow_4021_13836" result="shape"/>
</filter>
</defs>
</svg>
