<svg width="36" height="36" viewBox="0 0 36 36" fill="none" xmlns="http://www.w3.org/2000/svg">
<path opacity="0.4" d="M16.1253 3.67449C17.1753 2.78949 18.8703 2.78949 19.8903 3.67449L22.2603 5.69949C22.7103 6.07449 23.5653 6.38949 24.1653 6.38949H26.7153C28.3053 6.38949 29.6103 7.69449 29.6103 9.28449V11.8345C29.6103 12.4345 29.9253 13.2745 30.3003 13.7245L32.3253 16.0945C33.2103 17.1445 33.2103 18.8395 32.3253 19.8595L30.3003 22.2295C29.9253 22.6795 29.6103 23.5195 29.6103 24.1195V26.6695C29.6103 28.2595 28.3053 29.5645 26.7153 29.5645H24.1653C23.5653 29.5645 22.7253 29.8795 22.2753 30.2545L19.9053 32.2795C18.8553 33.1645 17.1603 33.1645 16.1403 32.2795L13.7703 30.2545C13.3203 29.8795 12.4653 29.5645 11.8803 29.5645H9.25531C7.66531 29.5645 6.36031 28.2595 6.36031 26.6695V24.1045C6.36031 23.5195 6.06031 22.6645 5.68531 22.2295L3.66031 19.8445C2.79031 18.8095 2.79031 17.1295 3.66031 16.0945L5.68531 13.7095C6.06031 13.2595 6.36031 12.4195 6.36031 11.8345V9.29949C6.36031 7.70949 7.66531 6.40449 9.25531 6.40449H11.8503C12.4503 6.40449 13.2903 6.08949 13.7403 5.71449L16.1253 3.67449Z" fill="#FFA800"/>
<path d="M17.8909 11.0713C18.7159 11.0713 19.3909 11.7463 19.3909 12.5713C19.3909 13.3963 18.7309 14.0713 17.8909 14.0713C17.0659 14.0713 16.3909 13.3963 16.3909 12.5713C16.3909 11.7463 17.0509 11.0713 17.8909 11.0713Z" fill="#FFA800"/>
<path d="M18.0461 15.7947C18.6611 15.7947 19.1711 16.3047 19.1711 16.9197V24.1797C19.1711 24.7947 18.6611 25.3047 18.0461 25.3047C17.4311 25.3047 16.9211 24.7947 16.9211 24.1797V16.9347C16.9211 16.3047 17.4161 15.7947 18.0461 15.7947Z" fill="#FFA800"/>
</svg>
