<svg width="25" height="24" viewBox="0 0 25 24" fill="none" xmlns="http://www.w3.org/2000/svg">
<path d="M24.0346 12C24.0346 18.4582 18.7252 23.7007 12.167 23.7007C5.60872 23.7007 0.299309 18.4582 0.299309 12C0.299309 5.54178 5.60872 0.299309 12.167 0.299309C18.7252 0.299309 24.0346 5.54178 24.0346 12Z" fill="#BDA6FF" stroke="black" stroke-width="0.598619"/>
<path d="M21.8886 11.8525C21.8886 17.2368 17.4618 21.6088 11.9924 21.6088C6.52295 21.6088 2.09618 17.2368 2.09618 11.8525C2.09618 6.46811 6.52295 2.09618 11.9924 2.09618C17.4618 2.09618 21.8886 6.46811 21.8886 11.8525Z" fill="#8D65FF" stroke="black" stroke-width="0.598619"/>
<path d="M10.6228 9.8802L11.4184 9.7602V9.42633C11.4184 9.30737 11.5148 9.21094 11.6338 9.21094H12.3123C12.4313 9.21094 12.5277 9.30737 12.5277 9.42633V9.7602L13.3233 9.8802C13.4219 9.89508 13.4975 9.97577 13.5058 10.0752L13.6336 11.6C13.6441 11.7256 13.545 11.8334 13.4189 11.8334H10.5272C10.4011 11.8334 10.302 11.7256 10.3125 11.6L10.4403 10.0752C10.4486 9.97577 10.5242 9.89508 10.6228 9.8802Z" stroke="#BDA6FF" stroke-width="0.0107698"/>
<path d="M12.2495 9.76341H11.6895V9.62341C11.6895 9.54608 11.7521 9.4834 11.8295 9.4834H12.1095C12.1868 9.4834 12.2495 9.54608 12.2495 9.62341V9.76341Z" stroke="#BDA6FF" stroke-width="0.0107698"/>
<g filter="url(#filter0_d_3_6743)">
<path d="M6.26562 8.67869V6.69219C6.26562 6.61032 6.332 6.54395 6.41387 6.54395H17.5323C17.6142 6.54395 17.6806 6.61032 17.6806 6.69219V8.67869C17.6806 8.76056 17.6142 8.82693 17.5323 8.82693H16.5391V11.6733C16.5391 13.3599 15.1718 14.7271 13.4852 14.7271H10.461V17.9589C8.77438 17.9589 7.40712 16.5916 7.40712 14.905V8.82693H6.41387C6.332 8.82693 6.26562 8.76056 6.26562 8.67869Z" fill="#BDA6FF"/>
<path d="M6.26562 8.67869V6.69219C6.26562 6.61032 6.332 6.54395 6.41387 6.54395H17.5323C17.6142 6.54395 17.6806 6.61032 17.6806 6.69219V8.67869C17.6806 8.76056 17.6142 8.82693 17.5323 8.82693H16.5391V11.6733C16.5391 13.3599 15.1718 14.7271 13.4852 14.7271H10.461V17.9589C8.77438 17.9589 7.40712 16.5916 7.40712 14.905V8.82693H6.41387C6.332 8.82693 6.26562 8.76056 6.26562 8.67869Z" stroke="black" stroke-width="0.370615"/>
</g>
<path d="M10.1161 9.55698L11.2113 9.3918V8.93223C11.2113 8.76849 11.344 8.63574 11.5078 8.63574H12.4417C12.6055 8.63574 12.7382 8.76849 12.7382 8.93223V9.3918L13.8333 9.55698C13.9692 9.57747 14.0731 9.68854 14.0846 9.8254L14.2605 11.9243C14.275 12.0972 14.1385 12.2455 13.965 12.2455H9.98449C9.81097 12.2455 9.67454 12.0972 9.68903 11.9243L9.86491 9.8254C9.87638 9.68854 9.98034 9.57747 10.1161 9.55698Z" fill="white" stroke="black" stroke-width="0.370615"/>
<path d="M12.3627 9.44434H11.5918V9.05149C11.5918 9.01874 11.6183 8.99219 11.6511 8.99219H12.3034C12.3361 8.99219 12.3627 9.01874 12.3627 9.05149V9.44434Z" fill="#28273C" stroke="#BDA6FF" stroke-width="0.0148246"/>
<path d="M13.8848 12.0609C13.943 11.9832 13.9799 11.8916 13.9916 11.7952L14.033 11.4531L14.078 11.9805C14.0817 12.0238 14.0476 12.0609 14.0042 12.0609H13.8848Z" fill="white"/>
<path d="M10.0451 10.0709C10.0894 9.91601 10.1946 9.78576 10.3367 9.70996L10.136 9.74165C10.0886 9.74914 10.0524 9.78826 10.0488 9.83619L10.0254 10.1399L10.0451 10.0709Z" fill="white"/>
<path d="M7.96094 8.23633H8.89791L8.23557 8.53788L7.96094 8.65096V8.23633Z" fill="#BDA6FF"/>
<path d="M12.9805 13.9178C14.0161 13.7735 14.839 12.9751 15.0144 11.9443L15.156 11.1123L15.1853 11.6741C15.2506 12.9239 14.2312 13.9613 12.9805 13.9178Z" fill="#BDA6FF"/>
<defs>
<filter id="filter0_d_3_6743" x="6.08032" y="6.3584" width="12.1414" height="12.1419" filterUnits="userSpaceOnUse" color-interpolation-filters="sRGB">
<feFlood flood-opacity="0" result="BackgroundImageFix"/>
<feColorMatrix in="SourceAlpha" type="matrix" values="0 0 0 0 0 0 0 0 0 0 0 0 0 0 0 0 0 0 127 0" result="hardAlpha"/>
<feOffset dx="0.355791" dy="0.355791"/>
<feComposite in2="hardAlpha" operator="out"/>
<feColorMatrix type="matrix" values="0 0 0 0 0.156863 0 0 0 0 0.152941 0 0 0 0 0.235294 0 0 0 1 0"/>
<feBlend mode="normal" in2="BackgroundImageFix" result="effect1_dropShadow_3_6743"/>
<feBlend mode="normal" in="SourceGraphic" in2="effect1_dropShadow_3_6743" result="shape"/>
</filter>
</defs>
</svg>
