<svg width="32" height="32" viewBox="0 0 32 32" fill="none" xmlns="http://www.w3.org/2000/svg">
<path fill-rule="evenodd" clip-rule="evenodd" d="M21.3835 14.9984C22.0661 15.3784 22.8381 15.5931 23.6728 15.5931C26.2901 15.5931 28.4141 13.4677 28.4141 10.8504C28.4141 8.24641 26.2901 6.12107 23.6728 6.12107C23.1541 6.12107 22.6608 6.21041 22.1928 6.36107C22.8755 7.46241 23.2675 8.76374 23.2675 10.1424C23.2675 12.0144 22.5715 13.7091 21.3835 14.9984Z" fill="#8D65FF"/>
<path fill-rule="evenodd" clip-rule="evenodd" d="M8.32079 15.5927C9.15546 15.5927 9.92613 15.378 10.6101 14.998C9.42079 13.7087 8.72479 12.014 8.72479 10.142C8.72479 8.76467 9.11679 7.462 9.80079 6.362C9.33279 6.21 8.83946 6.12067 8.32079 6.12067C5.70346 6.12067 3.57812 8.246 3.57812 10.85C3.57812 13.4687 5.70346 15.5927 8.32079 15.5927Z" fill="#8D65FF"/>
<path fill-rule="evenodd" clip-rule="evenodd" d="M15.9964 16.1587C19.3111 16.1587 22.0071 13.4627 22.0071 10.148C22.0071 6.83467 19.3111 4.13867 15.9964 4.13867C12.6818 4.13867 9.98576 6.83467 9.98576 10.148C9.98576 13.4627 12.6818 16.1587 15.9964 16.1587Z" fill="#8D65FF"/>
<g opacity="0.4">
<path fill-rule="evenodd" clip-rule="evenodd" d="M30.7922 22.0923C29.8189 19.0443 27.2389 17.3003 23.6989 17.3003H23.6735C22.2308 17.287 20.9415 17.5777 19.8535 18.1337C22.8895 19.1083 25.1402 21.271 26.1762 24.331C27.8202 24.103 29.2495 23.5977 30.5135 22.8257L30.9308 22.5603L30.7922 22.0923Z" fill="#8D65FF"/>
<path fill-rule="evenodd" clip-rule="evenodd" d="M12.0772 18.1091C11.0145 17.5785 9.7625 17.2998 8.3465 17.2998H8.29583C4.75583 17.2998 2.17583 19.0451 1.2145 22.0918L1.0625 22.5598L1.47983 22.8251C2.68117 23.5598 4.0985 24.0518 5.6785 24.3051C6.72783 21.2331 9.01717 19.0571 12.0772 18.1091Z" fill="#8D65FF"/>
<path fill-rule="evenodd" clip-rule="evenodd" d="M15.9514 18.805C15.9301 18.805 15.9101 18.805 15.8901 18.805C11.3381 18.805 8.01942 21.0423 6.78475 24.9477L6.63542 25.4197L7.05808 25.6783C9.46875 27.1477 12.3488 27.8623 15.8621 27.8623H15.9754C19.4914 27.8623 22.3728 27.1477 24.7834 25.6783L25.2074 25.4197L25.0581 24.9477C23.8221 21.0423 20.5047 18.805 15.9514 18.805Z" fill="#8D65FF"/>
</g>
</svg>
