<svg width="100%" height="100%" viewBox="0 0 431 143" fill="none" xmlns="http://www.w3.org/2000/svg">
<path d="M325.182 47.9954L430.5 62.4361V136.5H1.5V62.438L110.316 47.9957L113.754 47.5393C183.933 38.225 255.044 38.3784 325.182 47.9954Z" fill="white" stroke="#A9C0FF"/>
<path d="M67 54.5V142.5H100V92.5M100 92.5H1M100 92.5H133M100 92.5V49.6557M1 92.5V142.5H133M1 92.5V62L100 49.6557M133 142.5V92.5M133 142.5H166M133 92.5H166M133 92.5V45.3131M100 49.6557L133 45.3131M430.5 92.5V62.5L397.5 57.5M430.5 92.5H397.5M430.5 92.5V142.5H397.5M397.5 57.5V92.5M397.5 57.5L364.5 53M397.5 92.5H364.5M397.5 92.5V142.5M364.5 92.5H331.5M364.5 92.5V53M364.5 92.5V142.5M331.5 92.5V48.5M331.5 92.5H298M331.5 92.5V142.5M133 45.3131L166 42.5M166 42.5L199 40M166 42.5V92.5M364.5 53L331.5 48.5M331.5 48.5L298 44.5M298 44.5V92.5M298 44.5L265 41.5M298 92.5H265M298 92.5V142.5M265 41.5V92.5M265 41.5L232 39M265 92.5H232M265 92.5V142.5M232 39V92.5M232 39L199 40M232 92.5H199M232 92.5V142.5M199 40V92.5M199 92.5H166M199 92.5V142.5M166 92.5V142.5M397.5 142.5H364.5M166 142.5H199M199 142.5H232M232 142.5H265M265 142.5H298M298 142.5H331.5M331.5 142.5H364.5" stroke="url(#paint0_radial_3928_7279)"/>
<path d="M33.5 58.5V142.5H67" stroke="#DDE6FF"/>
<defs>
<radialGradient id="paint0_radial_3928_7279" cx="0" cy="0" r="1" gradientUnits="userSpaceOnUse" gradientTransform="translate(216 143) rotate(-90) scale(115.5 95.6153)">
<stop stop-color="#DDE6FF"/>
<stop offset="1" stop-color="#DDE6FF" stop-opacity="0.93"/>
</radialGradient>
</defs>
</svg>
