<svg width="430" height="137" viewBox="0 0 430 137" fill="none" xmlns="http://www.w3.org/2000/svg">
<g clip-path="url(#clip0_11_4915)">
<path d="M0.5 136.5V62.438L109.316 47.9957L112.754 47.5393C182.933 38.225 254.044 38.3784 324.182 47.9954L429.5 62.4361V136.5H0.5Z" fill="white" stroke="#A9C0FF"/>
<path d="M66 54.5V142.5H99V92.5M99 92.5H0M99 92.5H132M99 92.5V49.6557M0 92.5V142.5H132M0 92.5V62L99 49.6557M132 142.5V92.5M132 142.5H165M132 92.5H165M132 92.5V45.3131M99 49.6557L132 45.3131M429.5 92.5V62.5L396.5 57.5M429.5 92.5H396.5M429.5 92.5V142.5H396.5M396.5 57.5V92.5M396.5 57.5L363.5 53M396.5 92.5H363.5M396.5 92.5V142.5M363.5 92.5H330.5M363.5 92.5V53M363.5 92.5V142.5M330.5 92.5V48.5M330.5 92.5H297M330.5 92.5V142.5M132 45.3131L165 42.5M165 42.5L198 40M165 42.5V92.5M363.5 53L330.5 48.5M330.5 48.5L297 44.5M297 44.5V92.5M297 44.5L264 41.5M297 92.5H264M297 92.5V142.5M264 41.5V92.5M264 41.5L231 39M264 92.5H231M264 92.5V142.5M231 39V92.5M231 39L198 40M231 92.5H198M231 92.5V142.5M198 40V92.5M198 92.5H165M198 92.5V142.5M165 92.5V142.5M396.5 142.5H363.5M165 142.5H198M198 142.5H231M231 142.5H264M264 142.5H297M297 142.5H330.5M330.5 142.5H363.5" stroke="url(#paint0_radial_11_4915)"/>
<path d="M32.5 58.5V142.5H66" stroke="#DDE6FF"/>
</g>
<defs>
<radialGradient id="paint0_radial_11_4915" cx="0" cy="0" r="1" gradientUnits="userSpaceOnUse" gradientTransform="translate(215 143) rotate(-90) scale(115.5 95.6153)">
<stop stop-color="#DDE6FF"/>
<stop offset="1" stop-color="#DDE6FF" stop-opacity="0.93"/>
</radialGradient>
<clipPath id="clip0_11_4915">
<rect width="430" height="137" fill="white"/>
</clipPath>
</defs>
</svg>
