<svg width="24" height="24" viewBox="0 0 24 24" fill="none" xmlns="http://www.w3.org/2000/svg">
<path d="M12.0001 4.64844C7.22008 4.64844 3.33008 8.53844 3.33008 13.3184C3.33008 18.0984 7.22008 21.9984 12.0001 21.9984C16.7801 21.9984 20.6701 18.1084 20.6701 13.3284C20.6701 8.54844 16.7801 4.64844 12.0001 4.64844Z" fill="#9C97FF"/>
<path d="M21.1981 7.9143L17.0196 3.9207C16.7305 3.64433 16.7202 3.1919 16.9966 2.90273C17.273 2.61356 17.7323 2.5961 18.0215 2.87247L22.1999 6.86607C22.4891 7.14245 22.4993 7.59488 22.223 7.88405C21.9466 8.17321 21.4873 8.19068 21.1981 7.9143Z" fill="#9C97FF"/>
<path d="M6.86708 3.91694L2.68833 7.91024C2.39914 8.1866 1.94671 8.17633 1.67036 7.88714C1.39401 7.59795 1.39736 7.13829 1.68655 6.86194L5.8653 2.86864C6.15449 2.59229 6.60692 2.60255 6.88327 2.89174C7.15963 3.18093 7.15627 3.64059 6.86708 3.91694Z" fill="#9C97FF"/>
<path d="M11.9685 8H14.9685L12.4685 11.9H15L9.5 18.2L11.3 13.8H9L11.9685 8Z" fill="white"/>
</svg>
