<svg width="43" height="43" viewBox="0 0 43 43" fill="none" xmlns="http://www.w3.org/2000/svg">
<rect width="43" height="43" fill="white"/>
<rect x="0.488636" y="0.488636" width="42.0227" height="42.0227" rx="3.48733" stroke="#E7E7E7" stroke-width="0.977273"/>
<path d="M13.2081 19.3581C13.4858 18.9069 13.885 18.5424 14.4057 18.2647C14.9264 17.987 15.5223 17.8481 16.1934 17.8481C16.9918 17.8481 17.715 18.0506 18.363 18.4556C19.011 18.8606 19.5201 19.4391 19.8904 20.1912C20.2722 20.9434 20.4631 21.817 20.4631 22.8121C20.4631 23.8072 20.2722 24.6866 19.8904 25.4502C19.5201 26.2024 19.011 26.7867 18.363 27.2033C17.715 27.6082 16.9918 27.8107 16.1934 27.8107C15.5107 27.8107 14.9148 27.6777 14.4057 27.4115C13.8966 27.1338 13.4974 26.7693 13.2081 26.3181V27.6719H10.2402V14.8281H13.2081V19.3581ZM17.4431 22.8121C17.4431 22.0715 17.2348 21.493 16.8183 21.0764C16.4133 20.6483 15.9099 20.4342 15.3082 20.4342C14.7181 20.4342 14.2148 20.6483 13.7982 21.0764C13.3933 21.5045 13.1908 22.0889 13.1908 22.8294C13.1908 23.57 13.3933 24.1543 13.7982 24.5824C14.2148 25.0106 14.7181 25.2246 15.3082 25.2246C15.8984 25.2246 16.4017 25.0106 16.8183 24.5824C17.2348 24.1427 17.4431 23.5526 17.4431 22.8121ZM31.5836 17.987V27.6719H28.6156V26.3528C28.3148 26.7809 27.904 27.128 27.3833 27.3942C26.8742 27.6487 26.3072 27.776 25.6824 27.776C24.9418 27.776 24.2881 27.614 23.7211 27.29C23.1541 26.9545 22.7144 26.4743 22.402 25.8494C22.0896 25.2246 21.9334 24.4899 21.9334 23.6452V17.987H24.884V23.246C24.884 23.894 25.0518 24.3973 25.3873 24.756C25.7229 25.1147 26.1742 25.294 26.7411 25.294C27.3197 25.294 27.7767 25.1147 28.1123 24.756C28.4479 24.3973 28.6156 23.894 28.6156 23.246V17.987H31.5836Z" fill="#03A800"/>
</svg>
