<svg width="18" height="18" viewBox="0 0 18 18" fill="none" xmlns="http://www.w3.org/2000/svg">
<path d="M2.60753 3.32068L8.78959 9.38321L2.65351 15.5016C2.55337 15.3707 2.47547 15.2242 2.42292 15.068C2.39532 14.8911 2.39532 14.7109 2.42292 14.534V4.12209C2.40453 3.84269 2.46889 3.5633 2.60682 3.32068M11.4527 6.73921L9.43467 8.73812L3.32618 2.73077C3.52423 2.66216 3.73643 2.64306 3.94367 2.6756C4.26905 2.76472 4.57956 2.90195 4.86462 3.0809L10.3931 6.1401C10.7524 6.3332 11.1026 6.53621 11.4527 6.73921ZM9.43538 10.0375L11.4435 12.0095L9.9878 12.8201L5.54648 15.2887C5.17867 15.4917 4.80945 15.6855 4.45012 15.9069C4.2964 16.0027 4.12399 16.0646 3.94443 16.0884C3.76487 16.1122 3.5823 16.0973 3.40893 16.0448L9.43538 10.0375ZM14.6413 9.38321C14.6469 9.63061 14.5845 9.87482 14.4611 10.0893C14.3376 10.3038 14.1578 10.4803 13.9411 10.5998L12.2817 11.5208L10.0981 9.38321L12.2909 7.20888C12.8532 7.52222 13.4063 7.83557 13.9588 8.13053C14.1792 8.25354 14.3602 8.4365 14.4809 8.65822C14.6016 8.87993 14.6577 9.13131 14.6413 9.38321Z" fill="black"/>
</svg>
