<svg width="18" height="18" viewBox="0 0 18 18" fill="none" xmlns="http://www.w3.org/2000/svg">
<g clip-path="url(#clip0_283_5818)">
<path d="M8.59047 5.99929C7.97085 5.99929 7.01171 5.29479 6.00164 5.32025C4.66903 5.33723 3.44677 6.09266 2.75924 7.28946C1.37571 9.69155 2.40275 13.2395 3.75233 15.1917C4.4144 16.1424 5.19529 17.2119 6.23082 17.1779C7.22391 17.1355 7.59738 16.5328 8.80267 16.5328C9.99947 16.5328 10.339 17.1779 11.3915 17.1525C12.461 17.1355 13.14 16.1848 13.7936 15.2257C14.549 14.1223 14.8631 13.0528 14.88 12.9934C14.8546 12.9849 12.8005 12.1955 12.775 9.81887C12.7581 7.83269 14.3962 6.88204 14.4726 6.8396C13.5389 5.47304 12.1045 5.32025 11.6037 5.2863C10.2965 5.18445 9.2016 5.99929 8.59047 5.99929ZM10.7973 3.99613C11.3491 3.33407 11.714 2.40889 11.6122 1.49219C10.8228 1.52614 9.87215 2.01844 9.30346 2.6805C8.79418 3.26617 8.35281 4.20833 8.47164 5.10806C9.3459 5.17596 10.2456 4.65819 10.7973 3.99613Z" fill="black"/>
</g>
<defs>
<clipPath id="clip0_283_5818">
<rect width="16.9759" height="16.9759" fill="white" transform="translate(0.333801 0.892578)"/>
</clipPath>
</defs>
</svg>
