<svg width="442" height="203" viewBox="0 0 442 203" fill="none" xmlns="http://www.w3.org/2000/svg">
<g filter="url(#filter0_d_593_7707)">
<rect x="94.4353" y="12.1719" width="289.323" height="185.212" rx="9.13051" fill="white" shape-rendering="crispEdges"/>
<rect x="95.5766" y="13.3132" width="287.04" height="182.93" rx="7.9892" stroke="black" stroke-width="2.28263" shape-rendering="crispEdges"/>
<g clip-path="url(#clip0_593_7707)">
<path d="M111.798 40.6237V42.2508H114.422V43.7633H111.798V45.5279H114.766V47.0977H109.839V39.0539H114.766V40.6237H111.798ZM115.374 43.8893C115.374 43.2324 115.496 42.6556 115.74 42.1591C115.992 41.6626 116.332 41.2806 116.76 41.0133C117.188 40.7459 117.665 40.6122 118.192 40.6122C118.643 40.6122 119.036 40.7039 119.373 40.8872C119.716 41.0706 119.98 41.3112 120.163 41.6091V40.7039H122.123V47.0977H120.163V46.1924C119.972 46.4904 119.705 46.731 119.361 46.9143C119.025 47.0977 118.632 47.1893 118.181 47.1893C117.661 47.1893 117.188 47.0556 116.76 46.7883C116.332 46.5133 115.992 46.1275 115.74 45.631C115.496 45.1268 115.374 44.5463 115.374 43.8893ZM120.163 43.9008C120.163 43.4119 120.026 43.0261 119.751 42.7435C119.483 42.4608 119.155 42.3195 118.765 42.3195C118.376 42.3195 118.043 42.4608 117.768 42.7435C117.501 43.0185 117.367 43.4004 117.367 43.8893C117.367 44.3782 117.501 44.7678 117.768 45.0581C118.043 45.3407 118.376 45.482 118.765 45.482C119.155 45.482 119.483 45.3407 119.751 45.0581C120.026 44.7754 120.163 44.3897 120.163 43.9008ZM125.224 41.7695C125.454 41.4181 125.74 41.1431 126.084 40.9445C126.428 40.7383 126.81 40.6352 127.23 40.6352V42.7091H126.691C126.202 42.7091 125.836 42.8161 125.591 43.0299C125.347 43.2362 125.224 43.6029 125.224 44.1299V47.0977H123.265V40.7039H125.224V41.7695ZM131.787 40.6352C132.536 40.6352 133.132 40.8796 133.575 41.3685C134.025 41.8497 134.251 42.5143 134.251 43.3622V47.0977H132.303V43.6258C132.303 43.198 132.192 42.8657 131.97 42.6289C131.749 42.3921 131.451 42.2737 131.077 42.2737C130.702 42.2737 130.404 42.3921 130.183 42.6289C129.961 42.8657 129.851 43.198 129.851 43.6258V47.0977H127.891V40.7039H129.851V41.5518C130.049 41.2692 130.317 41.0477 130.653 40.8872C130.989 40.7192 131.367 40.6352 131.787 40.6352ZM146.6 39.0539V47.0977H144.64V42.2737L142.841 47.0977H141.26L139.45 42.2622V47.0977H137.49V39.0539H139.805L142.062 44.6227L144.297 39.0539H146.6ZM150.644 47.1893C150.018 47.1893 149.453 47.0556 148.948 46.7883C148.452 46.5209 148.058 46.139 147.768 45.6424C147.486 45.1459 147.344 44.5654 147.344 43.9008C147.344 43.2438 147.489 42.6671 147.78 42.1706C148.07 41.6664 148.467 41.2806 148.971 41.0133C149.475 40.7459 150.041 40.6122 150.667 40.6122C151.294 40.6122 151.859 40.7459 152.363 41.0133C152.867 41.2806 153.264 41.6664 153.555 42.1706C153.845 42.6671 153.99 43.2438 153.99 43.9008C153.99 44.5577 153.841 45.1383 153.543 45.6424C153.253 46.139 152.852 46.5209 152.34 46.7883C151.836 47.0556 151.271 47.1893 150.644 47.1893ZM150.644 45.4935C151.019 45.4935 151.336 45.356 151.595 45.081C151.863 44.806 151.996 44.4126 151.996 43.9008C151.996 43.389 151.866 42.9956 151.607 42.7206C151.355 42.4456 151.041 42.3081 150.667 42.3081C150.285 42.3081 149.968 42.4456 149.716 42.7206C149.464 42.9879 149.338 43.3813 149.338 43.9008C149.338 44.4126 149.46 44.806 149.705 45.081C149.957 45.356 150.27 45.4935 150.644 45.4935ZM156.714 41.7695C156.943 41.4181 157.23 41.1431 157.573 40.9445C157.917 40.7383 158.299 40.6352 158.719 40.6352V42.7091H158.181C157.692 42.7091 157.325 42.8161 157.081 43.0299C156.836 43.2362 156.714 43.6029 156.714 44.1299V47.0977H154.755V40.7039H156.714V41.7695ZM165.408 43.7977C165.408 43.981 165.396 44.172 165.373 44.3706H160.939C160.97 44.7678 161.096 45.0733 161.317 45.2872C161.546 45.4935 161.825 45.5966 162.154 45.5966C162.642 45.5966 162.982 45.3904 163.173 44.9779H165.259C165.152 45.398 164.957 45.7761 164.674 46.1122C164.399 46.4484 164.052 46.7119 163.632 46.9029C163.212 47.0938 162.742 47.1893 162.222 47.1893C161.596 47.1893 161.038 47.0556 160.549 46.7883C160.061 46.5209 159.679 46.139 159.404 45.6424C159.129 45.1459 158.991 44.5654 158.991 43.9008C158.991 43.2362 159.125 42.6556 159.392 42.1591C159.667 41.6626 160.049 41.2806 160.538 41.0133C161.027 40.7459 161.588 40.6122 162.222 40.6122C162.841 40.6122 163.391 40.7421 163.872 41.0018C164.354 41.2615 164.728 41.632 164.995 42.1133C165.27 42.5945 165.408 43.156 165.408 43.7977ZM163.403 43.282C163.403 42.9459 163.288 42.6786 163.059 42.4799C162.83 42.2813 162.543 42.182 162.199 42.182C161.871 42.182 161.592 42.2775 161.363 42.4685C161.141 42.6595 161.004 42.9306 160.95 43.282H163.403ZM167.987 43.0643C167.987 42.2699 168.159 41.5633 168.503 40.9445C168.847 40.3181 169.324 39.8331 169.935 39.4893C170.554 39.1379 171.253 38.9622 172.032 38.9622C172.987 38.9622 173.804 39.2143 174.484 39.7185C175.164 40.2227 175.619 40.9102 175.848 41.781H173.694C173.533 41.4449 173.304 41.189 173.006 41.0133C172.716 40.8376 172.383 40.7497 172.009 40.7497C171.406 40.7497 170.917 40.9598 170.542 41.3799C170.168 41.8001 169.981 42.3615 169.981 43.0643C169.981 43.7671 170.168 44.3286 170.542 44.7487C170.917 45.1688 171.406 45.3789 172.009 45.3789C172.383 45.3789 172.716 45.2911 173.006 45.1154C173.304 44.9397 173.533 44.6838 173.694 44.3477H175.848C175.619 45.2185 175.164 45.906 174.484 46.4102C173.804 46.9067 172.987 47.1549 172.032 47.1549C171.253 47.1549 170.554 46.9831 169.935 46.6393C169.324 46.2879 168.847 45.8029 168.503 45.1841C168.159 44.5654 167.987 43.8588 167.987 43.0643ZM179.683 47.1893C179.057 47.1893 178.491 47.0556 177.987 46.7883C177.491 46.5209 177.097 46.139 176.807 45.6424C176.524 45.1459 176.383 44.5654 176.383 43.9008C176.383 43.2438 176.528 42.6671 176.818 42.1706C177.109 41.6664 177.506 41.2806 178.01 41.0133C178.514 40.7459 179.08 40.6122 179.706 40.6122C180.332 40.6122 180.898 40.7459 181.402 41.0133C181.906 41.2806 182.303 41.6664 182.593 42.1706C182.884 42.6671 183.029 43.2438 183.029 43.9008C183.029 44.5577 182.88 45.1383 182.582 45.6424C182.292 46.139 181.891 46.5209 181.379 46.7883C180.875 47.0556 180.309 47.1893 179.683 47.1893ZM179.683 45.4935C180.057 45.4935 180.374 45.356 180.634 45.081C180.901 44.806 181.035 44.4126 181.035 43.9008C181.035 43.389 180.905 42.9956 180.646 42.7206C180.393 42.4456 180.08 42.3081 179.706 42.3081C179.324 42.3081 179.007 42.4456 178.755 42.7206C178.503 42.9879 178.377 43.3813 178.377 43.9008C178.377 44.4126 178.499 44.806 178.743 45.081C178.996 45.356 179.309 45.4935 179.683 45.4935ZM184.779 40.0393C184.435 40.0393 184.152 39.94 183.931 39.7414C183.717 39.5352 183.61 39.2831 183.61 38.9852C183.61 38.6796 183.717 38.4275 183.931 38.2289C184.152 38.0227 184.435 37.9195 184.779 37.9195C185.115 37.9195 185.39 38.0227 185.604 38.2289C185.825 38.4275 185.936 38.6796 185.936 38.9852C185.936 39.2831 185.825 39.5352 185.604 39.7414C185.39 39.94 185.115 40.0393 184.779 40.0393ZM185.753 40.7039V47.0977H183.793V40.7039H185.753ZM190.794 40.6352C191.542 40.6352 192.138 40.8796 192.581 41.3685C193.032 41.8497 193.257 42.5143 193.257 43.3622V47.0977H191.309V43.6258C191.309 43.198 191.198 42.8657 190.977 42.6289C190.755 42.3921 190.457 42.2737 190.083 42.2737C189.709 42.2737 189.411 42.3921 189.189 42.6289C188.968 42.8657 188.857 43.198 188.857 43.6258V47.0977H186.898V40.7039H188.857V41.5518C189.056 41.2692 189.323 41.0477 189.659 40.8872C189.995 40.7192 190.373 40.6352 190.794 40.6352ZM196.945 47.1893C196.387 47.1893 195.89 47.0938 195.455 46.9029C195.02 46.7119 194.676 46.4522 194.424 46.1237C194.172 45.7876 194.03 45.4133 194 45.0008H195.936C195.959 45.2223 196.062 45.4018 196.246 45.5393C196.429 45.6768 196.654 45.7456 196.922 45.7456C197.166 45.7456 197.353 45.6997 197.483 45.6081C197.621 45.5088 197.689 45.3827 197.689 45.2299C197.689 45.0466 197.594 44.9129 197.403 44.8289C197.212 44.7372 196.903 44.6379 196.475 44.531C196.017 44.424 195.635 44.3133 195.329 44.1987C195.023 44.0765 194.76 43.8893 194.538 43.6372C194.317 43.3775 194.206 43.0299 194.206 42.5945C194.206 42.2279 194.305 41.8956 194.504 41.5977C194.71 41.2921 195.008 41.0515 195.398 40.8758C195.795 40.7001 196.265 40.6122 196.807 40.6122C197.609 40.6122 198.239 40.8108 198.698 41.2081C199.164 41.6053 199.431 42.1324 199.5 42.7893H197.689C197.659 42.5678 197.56 42.3921 197.392 42.2622C197.231 42.1324 197.017 42.0674 196.75 42.0674C196.521 42.0674 196.345 42.1133 196.223 42.2049C196.101 42.289 196.039 42.4074 196.039 42.5602C196.039 42.7435 196.135 42.881 196.326 42.9727C196.525 43.0643 196.83 43.156 197.243 43.2477C197.716 43.3699 198.102 43.4921 198.4 43.6143C198.698 43.7289 198.958 43.9199 199.179 44.1872C199.408 44.447 199.527 44.7983 199.534 45.2414C199.534 45.6157 199.427 45.9518 199.213 46.2497C199.007 46.54 198.705 46.7692 198.308 46.9372C197.919 47.1053 197.464 47.1893 196.945 47.1893Z" fill="#344055"/>
</g>
<rect x="338.617" y="28.347" width="30.1621" height="29.503" rx="14.7515" fill="white"/>
<rect x="338.617" y="28.347" width="30.1621" height="29.503" rx="14.7515" stroke="#E2E8F0" stroke-width="0.572917"/>
<path opacity="0.4" d="M352.932 37.2514C353.361 36.8902 354.053 36.8902 354.469 37.2514L355.436 38.0779C355.62 38.2309 355.969 38.3595 356.214 38.3595H357.254C357.903 38.3595 358.436 38.8921 358.436 39.5411V40.5819C358.436 40.8268 358.565 41.1696 358.718 41.3533L359.544 42.3206C359.905 42.7491 359.905 43.4409 359.544 43.8573L358.718 44.8246C358.565 45.0082 358.436 45.3511 358.436 45.596V46.6367C358.436 47.2857 357.903 47.8183 357.254 47.8183H356.214C355.969 47.8183 355.626 47.9469 355.442 48.1L354.475 48.9265C354.046 49.2877 353.355 49.2877 352.938 48.9265L351.971 48.1C351.787 47.9469 351.438 47.8183 351.2 47.8183H350.128C349.479 47.8183 348.947 47.2857 348.947 46.6367V45.5898C348.947 45.3511 348.824 45.0021 348.671 44.8246L347.845 43.8511C347.489 43.4287 347.489 42.743 347.845 42.3206L348.671 41.3471C348.824 41.1635 348.947 40.8206 348.947 40.5819V39.5472C348.947 38.8983 349.479 38.3656 350.128 38.3656H351.187C351.432 38.3656 351.775 38.2371 351.959 38.084L352.932 37.2514Z" fill="#30283D"/>
<path d="M353.653 40.2716C353.989 40.2716 354.265 40.5471 354.265 40.8839C354.265 41.2206 353.995 41.4961 353.653 41.4961C353.316 41.4961 353.04 41.2206 353.04 40.8839C353.04 40.5471 353.31 40.2716 353.653 40.2716Z" fill="#30283D"/>
<path d="M353.716 42.1986C353.967 42.1986 354.175 42.4067 354.175 42.6578V45.6209C354.175 45.8719 353.967 46.0801 353.716 46.0801C353.465 46.0801 353.257 45.8719 353.257 45.6209V42.6639C353.257 42.4067 353.459 42.1986 353.716 42.1986Z" fill="#30283D"/>
<g clip-path="url(#clip1_593_7707)">
<path d="M134.975 78.9766H123.843C123.587 78.9766 123.342 79.0781 123.161 79.259C122.98 79.4398 122.879 79.685 122.879 79.9407V91.0732C122.879 91.3289 122.98 91.5741 123.161 91.7549C123.342 91.9357 123.587 92.0373 123.843 92.0373H134.975C135.231 92.0373 135.476 91.9357 135.657 91.7549C135.838 91.5741 135.939 91.3289 135.939 91.0732V79.9407C135.939 79.685 135.838 79.4398 135.657 79.259C135.476 79.0781 135.231 78.9766 134.975 78.9766ZM126.771 90.1027H124.808V83.8653H126.771V90.1027ZM125.788 83.0009C125.565 82.9997 125.348 82.9324 125.163 82.8078C124.979 82.6831 124.835 82.5065 124.751 82.3004C124.667 82.0942 124.645 81.8677 124.69 81.6494C124.734 81.4311 124.842 81.2308 125 81.0738C125.158 80.9168 125.359 80.8101 125.577 80.7672C125.796 80.7243 126.022 80.7472 126.228 80.8328C126.434 80.9185 126.609 81.0631 126.733 81.2485C126.856 81.4339 126.922 81.6517 126.922 81.8744C126.924 82.0235 126.896 82.1716 126.84 82.3097C126.783 82.4478 126.7 82.5731 126.594 82.6782C126.488 82.7834 126.362 82.8661 126.224 82.9215C126.085 82.977 125.937 83.004 125.788 83.0009ZM134.009 90.1081H132.046V86.7005C132.046 85.6956 131.619 85.3854 131.068 85.3854C130.486 85.3854 129.914 85.8244 129.914 86.7259V90.1081H127.95V83.8698H129.839V84.7342H129.864C130.054 84.3505 130.718 83.6948 131.731 83.6948C132.826 83.6948 134.01 84.3451 134.01 86.2498L134.009 90.1081Z" fill="#0072DC"/>
</g>
<mask id="path-9-outside-1_593_7707" maskUnits="userSpaceOnUse" x="143.387" y="64.7578" width="212" height="43" fill="black">
<rect fill="white" x="143.387" y="64.7578" width="212" height="43"/>
<path d="M143.387 64.7578H355.315V106.258H143.387V64.7578Z"/>
</mask>
<path d="M355.315 105.685H143.387V106.831H355.315V105.685Z" fill="#E2E8F0" mask="url(#path-9-outside-1_593_7707)"/>
<path d="M147.943 87.2886H145.395L144.973 88.5078H143.626L145.926 82.1003H147.421L149.721 88.5078H148.365L147.943 87.2886ZM147.595 86.262L146.669 83.5853L145.743 86.262H147.595ZM150.16 85.9503C150.16 85.437 150.261 84.9817 150.462 84.5845C150.67 84.1873 150.951 83.8817 151.306 83.6678C151.66 83.4539 152.054 83.347 152.488 83.347C152.818 83.347 153.133 83.4203 153.432 83.567C153.732 83.7075 153.97 83.897 154.147 84.1353V81.7245H155.449V88.5078H154.147V87.7561C153.988 88.0067 153.765 88.2084 153.478 88.3611C153.191 88.5139 152.858 88.5903 152.479 88.5903C152.051 88.5903 151.66 88.4803 151.306 88.2603C150.951 88.0403 150.67 87.7317 150.462 87.3345C150.261 86.9311 150.16 86.4698 150.16 85.9503ZM154.156 85.9686C154.156 85.657 154.095 85.3911 153.973 85.1711C153.851 84.945 153.686 84.7739 153.478 84.6578C153.27 84.5356 153.047 84.4745 152.809 84.4745C152.571 84.4745 152.351 84.5325 152.149 84.6486C151.947 84.7648 151.782 84.9359 151.654 85.162C151.532 85.382 151.471 85.6448 151.471 85.9503C151.471 86.2559 151.532 86.5248 151.654 86.757C151.782 86.9831 151.947 87.1573 152.149 87.2795C152.357 87.4017 152.577 87.4628 152.809 87.4628C153.047 87.4628 153.27 87.4048 153.478 87.2886C153.686 87.1664 153.851 86.9953 153.973 86.7753C154.095 86.5492 154.156 86.2803 154.156 85.9686ZM156.281 85.9503C156.281 85.437 156.381 84.9817 156.583 84.5845C156.791 84.1873 157.072 83.8817 157.426 83.6678C157.781 83.4539 158.175 83.347 158.609 83.347C158.939 83.347 159.254 83.4203 159.553 83.567C159.853 83.7075 160.091 83.897 160.268 84.1353V81.7245H161.57V88.5078H160.268V87.7561C160.109 88.0067 159.886 88.2084 159.599 88.3611C159.312 88.5139 158.979 88.5903 158.6 88.5903C158.172 88.5903 157.781 88.4803 157.426 88.2603C157.072 88.0403 156.791 87.7317 156.583 87.3345C156.381 86.9311 156.281 86.4698 156.281 85.9503ZM160.277 85.9686C160.277 85.657 160.216 85.3911 160.094 85.1711C159.972 84.945 159.807 84.7739 159.599 84.6578C159.391 84.5356 159.168 84.4745 158.93 84.4745C158.691 84.4745 158.471 84.5325 158.27 84.6486C158.068 84.7648 157.903 84.9359 157.775 85.162C157.653 85.382 157.591 85.6448 157.591 85.9503C157.591 86.2559 157.653 86.5248 157.775 86.757C157.903 86.9831 158.068 87.1573 158.27 87.2795C158.478 87.4017 158.698 87.4628 158.93 87.4628C159.168 87.4628 159.391 87.4048 159.599 87.2886C159.807 87.1664 159.972 86.9953 160.094 86.7753C160.216 86.5492 160.277 86.2803 160.277 85.9686ZM166.107 84.1628C166.272 83.9306 166.499 83.7381 166.786 83.5853C167.079 83.4264 167.412 83.347 167.785 83.347C168.219 83.347 168.61 83.4539 168.958 83.6678C169.313 83.8817 169.591 84.1873 169.792 84.5845C170 84.9756 170.104 85.4309 170.104 85.9503C170.104 86.4698 170 86.9311 169.792 87.3345C169.591 87.7317 169.313 88.0403 168.958 88.2603C168.61 88.4803 168.219 88.5903 167.785 88.5903C167.412 88.5903 167.082 88.5139 166.795 88.3611C166.514 88.2084 166.285 88.0159 166.107 87.7836V90.9278H164.824V83.4295H166.107V84.1628ZM168.793 85.9503C168.793 85.6448 168.729 85.382 168.601 85.162C168.479 84.9359 168.314 84.7648 168.106 84.6486C167.904 84.5325 167.684 84.4745 167.446 84.4745C167.214 84.4745 166.994 84.5356 166.786 84.6578C166.584 84.7739 166.419 84.945 166.291 85.1711C166.169 85.3973 166.107 85.6631 166.107 85.9686C166.107 86.2742 166.169 86.54 166.291 86.7661C166.419 86.9923 166.584 87.1664 166.786 87.2886C166.994 87.4048 167.214 87.4628 167.446 87.4628C167.684 87.4628 167.904 87.4017 168.106 87.2795C168.314 87.1573 168.479 86.9831 168.601 86.757C168.729 86.5309 168.793 86.262 168.793 85.9503ZM173.2 88.5903C172.711 88.5903 172.271 88.4834 171.88 88.2695C171.489 88.0495 171.18 87.7409 170.954 87.3436C170.734 86.9464 170.624 86.4881 170.624 85.9686C170.624 85.4492 170.737 84.9909 170.963 84.5936C171.196 84.1964 171.51 83.8909 171.908 83.677C172.305 83.457 172.748 83.347 173.237 83.347C173.726 83.347 174.169 83.457 174.566 83.677C174.963 83.8909 175.275 84.1964 175.501 84.5936C175.733 84.9909 175.849 85.4492 175.849 85.9686C175.849 86.4881 175.73 86.9464 175.492 87.3436C175.259 87.7409 174.942 88.0495 174.538 88.2695C174.141 88.4834 173.695 88.5903 173.2 88.5903ZM173.2 87.472C173.432 87.472 173.649 87.417 173.851 87.307C174.059 87.1909 174.224 87.0198 174.346 86.7936C174.468 86.5675 174.529 86.2925 174.529 85.9686C174.529 85.4859 174.401 85.1161 174.144 84.8595C173.894 84.5967 173.585 84.4653 173.218 84.4653C172.852 84.4653 172.543 84.5967 172.293 84.8595C172.048 85.1161 171.926 85.4859 171.926 85.9686C171.926 86.4514 172.045 86.8242 172.283 87.087C172.528 87.3436 172.833 87.472 173.2 87.472ZM178.642 88.5903C178.227 88.5903 177.854 88.517 177.524 88.3703C177.194 88.2175 176.931 88.0128 176.736 87.7561C176.546 87.4995 176.442 87.2153 176.424 86.9036H177.716C177.741 87.0992 177.836 87.2611 178.001 87.3895C178.172 87.5178 178.382 87.582 178.633 87.582C178.877 87.582 179.067 87.5331 179.201 87.4353C179.342 87.3375 179.412 87.2123 179.412 87.0595C179.412 86.8945 179.327 86.7723 179.156 86.6928C178.991 86.6073 178.725 86.5156 178.358 86.4178C177.979 86.3261 177.667 86.2314 177.423 86.1336C177.185 86.0359 176.977 85.8861 176.8 85.6845C176.629 85.4828 176.543 85.2109 176.543 84.8686C176.543 84.5875 176.622 84.3309 176.781 84.0986C176.946 83.8664 177.179 83.6831 177.478 83.5486C177.784 83.4142 178.141 83.347 178.551 83.347C179.156 83.347 179.638 83.4998 179.999 83.8053C180.359 84.1048 180.558 84.5111 180.595 85.0245H179.366C179.348 84.8228 179.262 84.6639 179.11 84.5478C178.963 84.4256 178.764 84.3645 178.514 84.3645C178.282 84.3645 178.101 84.4073 177.973 84.4928C177.851 84.5784 177.79 84.6975 177.79 84.8503C177.79 85.0214 177.875 85.1528 178.046 85.2445C178.217 85.33 178.483 85.4186 178.844 85.5103C179.211 85.602 179.513 85.6967 179.751 85.7945C179.99 85.8923 180.194 86.045 180.366 86.2528C180.543 86.4545 180.634 86.7234 180.641 87.0595C180.641 87.3528 180.558 87.6156 180.393 87.8478C180.234 88.08 180.002 88.2634 179.696 88.3978C179.397 88.5261 179.046 88.5903 178.642 88.5903ZM183.097 84.4836V86.9403C183.097 87.1114 183.136 87.2367 183.216 87.3161C183.301 87.3895 183.442 87.4261 183.637 87.4261H184.233V88.5078H183.427C182.345 88.5078 181.804 87.9823 181.804 86.9311V84.4836H181.199V83.4295H181.804V82.1736H183.097V83.4295H184.233V84.4836H183.097ZM189.412 88.5903C188.923 88.5903 188.483 88.4834 188.092 88.2695C187.701 88.0495 187.392 87.7409 187.166 87.3436C186.946 86.9464 186.836 86.4881 186.836 85.9686C186.836 85.4492 186.949 84.9909 187.175 84.5936C187.408 84.1964 187.722 83.8909 188.12 83.677C188.517 83.457 188.96 83.347 189.449 83.347C189.938 83.347 190.381 83.457 190.778 83.677C191.175 83.8909 191.487 84.1964 191.713 84.5936C191.945 84.9909 192.061 85.4492 192.061 85.9686C192.061 86.4881 191.942 86.9464 191.704 87.3436C191.472 87.7409 191.154 88.0495 190.75 88.2695C190.353 88.4834 189.907 88.5903 189.412 88.5903ZM189.412 87.472C189.644 87.472 189.861 87.417 190.063 87.307C190.271 87.1909 190.436 87.0198 190.558 86.7936C190.68 86.5675 190.741 86.2925 190.741 85.9686C190.741 85.4859 190.613 85.1161 190.356 84.8595C190.106 84.5967 189.797 84.4653 189.43 84.4653C189.064 84.4653 188.755 84.5967 188.505 84.8595C188.26 85.1161 188.138 85.4859 188.138 85.9686C188.138 86.4514 188.257 86.8242 188.495 87.087C188.74 87.3436 189.045 87.472 189.412 87.472ZM195.725 83.3561C196.33 83.3561 196.819 83.5486 197.192 83.9336C197.565 84.3125 197.751 84.8442 197.751 85.5286V88.5078H196.468V85.7028C196.468 85.2995 196.367 84.9909 196.165 84.777C195.964 84.557 195.689 84.447 195.34 84.447C194.986 84.447 194.705 84.557 194.497 84.777C194.295 84.9909 194.194 85.2995 194.194 85.7028V88.5078H192.911V83.4295H194.194V84.062C194.365 83.842 194.582 83.6709 194.845 83.5486C195.114 83.4203 195.407 83.3561 195.725 83.3561ZM202.256 81.7245V88.5078H200.972V81.7245H202.256ZM204.083 82.8245C203.857 82.8245 203.667 82.7542 203.514 82.6136C203.368 82.467 203.294 82.2867 203.294 82.0728C203.294 81.8589 203.368 81.6817 203.514 81.5411C203.667 81.3945 203.857 81.3211 204.083 81.3211C204.309 81.3211 204.495 81.3945 204.642 81.5411C204.795 81.6817 204.871 81.8589 204.871 82.0728C204.871 82.2867 204.795 82.467 204.642 82.6136C204.495 82.7542 204.309 82.8245 204.083 82.8245ZM204.715 83.4295V88.5078H203.432V83.4295H204.715ZM208.706 83.3561C209.311 83.3561 209.8 83.5486 210.172 83.9336C210.545 84.3125 210.732 84.8442 210.732 85.5286V88.5078H209.448V85.7028C209.448 85.2995 209.347 84.9909 209.146 84.777C208.944 84.557 208.669 84.447 208.321 84.447C207.966 84.447 207.685 84.557 207.477 84.777C207.276 84.9909 207.175 85.2995 207.175 85.7028V88.5078H205.892V83.4295H207.175V84.062C207.346 83.842 207.563 83.6709 207.826 83.5486C208.095 83.4203 208.388 83.3561 208.706 83.3561ZM214.867 88.5078L213.144 86.3445V88.5078H211.86V81.7245H213.144V85.5836L214.849 83.4295H216.517L214.28 85.9778L216.535 88.5078H214.867ZM221.843 85.8586C221.843 86.042 221.83 86.207 221.806 86.3536H218.093C218.124 86.7203 218.252 87.0075 218.478 87.2153C218.705 87.4231 218.983 87.527 219.313 87.527C219.789 87.527 220.128 87.3223 220.33 86.9128H221.714C221.568 87.4017 221.286 87.805 220.871 88.1228C220.455 88.4345 219.945 88.5903 219.34 88.5903C218.851 88.5903 218.411 88.4834 218.02 88.2695C217.635 88.0495 217.333 87.7409 217.113 87.3436C216.899 86.9464 216.792 86.4881 216.792 85.9686C216.792 85.4431 216.899 84.9817 217.113 84.5845C217.326 84.1873 217.626 83.8817 218.011 83.6678C218.396 83.4539 218.839 83.347 219.34 83.347C219.823 83.347 220.254 83.4509 220.633 83.6586C221.018 83.8664 221.314 84.1628 221.522 84.5478C221.736 84.9267 221.843 85.3636 221.843 85.8586ZM220.513 85.492C220.507 85.162 220.388 84.8992 220.156 84.7036C219.924 84.502 219.64 84.4011 219.303 84.4011C218.986 84.4011 218.717 84.4989 218.497 84.6945C218.283 84.8839 218.151 85.1498 218.103 85.492H220.513ZM222.358 85.9503C222.358 85.437 222.458 84.9817 222.66 84.5845C222.868 84.1873 223.149 83.8817 223.503 83.6678C223.858 83.4539 224.252 83.347 224.686 83.347C225.016 83.347 225.331 83.4203 225.63 83.567C225.93 83.7075 226.168 83.897 226.345 84.1353V81.7245H227.647V88.5078H226.345V87.7561C226.186 88.0067 225.963 88.2084 225.676 88.3611C225.389 88.5139 225.056 88.5903 224.677 88.5903C224.249 88.5903 223.858 88.4803 223.503 88.2603C223.149 88.0403 222.868 87.7317 222.66 87.3345C222.458 86.9311 222.358 86.4698 222.358 85.9503ZM226.354 85.9686C226.354 85.657 226.293 85.3911 226.171 85.1711C226.049 84.945 225.884 84.7739 225.676 84.6578C225.468 84.5356 225.245 84.4745 225.007 84.4745C224.768 84.4745 224.548 84.5325 224.347 84.6486C224.145 84.7648 223.98 84.9359 223.852 85.162C223.73 85.382 223.668 85.6448 223.668 85.9503C223.668 86.2559 223.73 86.5248 223.852 86.757C223.98 86.9831 224.145 87.1573 224.347 87.2795C224.555 87.4017 224.775 87.4628 225.007 87.4628C225.245 87.4628 225.468 87.4048 225.676 87.2886C225.884 87.1664 226.049 86.9953 226.171 86.7753C226.293 86.5492 226.354 86.2803 226.354 85.9686ZM230.092 82.1095V88.5078H228.809V82.1095H230.092ZM234.082 83.3561C234.687 83.3561 235.176 83.5486 235.549 83.9336C235.922 84.3125 236.108 84.8442 236.108 85.5286V88.5078H234.825V85.7028C234.825 85.2995 234.724 84.9909 234.522 84.777C234.321 84.557 234.046 84.447 233.697 84.447C233.343 84.447 233.062 84.557 232.854 84.777C232.652 84.9909 232.551 85.2995 232.551 85.7028V88.5078H231.268V83.4295H232.551V84.062C232.723 83.842 232.94 83.6709 233.202 83.5486C233.471 83.4203 233.765 83.3561 234.082 83.3561ZM237.805 88.572C237.573 88.572 237.38 88.5017 237.228 88.3611C237.081 88.2145 237.008 88.0342 237.008 87.8203C237.008 87.6064 237.081 87.4292 237.228 87.2886C237.38 87.142 237.573 87.0686 237.805 87.0686C238.031 87.0686 238.218 87.142 238.364 87.2886C238.511 87.4292 238.584 87.6064 238.584 87.8203C238.584 88.0342 238.511 88.2145 238.364 88.3611C238.218 88.5017 238.031 88.572 237.805 88.572Z" fill="#344055"/>
<path fill-rule="evenodd" clip-rule="evenodd" d="M346.579 88.744C346.31 88.4755 346.31 88.0402 346.579 87.7717L348.843 85.5078L346.579 83.2439C346.31 82.9755 346.31 82.5402 346.579 82.2717C346.847 82.0032 347.283 82.0032 347.551 82.2717L350.301 85.0217C350.57 85.2902 350.57 85.7255 350.301 85.9939L347.551 88.744C347.283 89.0124 346.847 89.0124 346.579 88.744Z" fill="#64748B"/>
<path d="M109.128 71.6328H111.42V99.1328H109.128V71.6328Z" fill="#0072DC"/>
<path fill-rule="evenodd" clip-rule="evenodd" d="M131.606 126.598C131.885 126.753 132.2 126.841 132.54 126.841C133.609 126.841 134.476 125.974 134.476 124.905C134.476 123.843 133.609 122.975 132.54 122.975C132.329 122.975 132.127 123.012 131.936 123.073C132.215 123.523 132.375 124.054 132.375 124.616C132.375 125.38 132.091 126.072 131.606 126.598Z" fill="#8D65FF"/>
<path fill-rule="evenodd" clip-rule="evenodd" d="M126.275 126.841C126.615 126.841 126.93 126.753 127.209 126.598C126.724 126.072 126.439 125.38 126.439 124.616C126.439 124.054 126.599 123.522 126.879 123.073C126.688 123.011 126.486 122.975 126.275 122.975C125.206 122.975 124.339 123.842 124.339 124.905C124.339 125.974 125.206 126.841 126.275 126.841Z" fill="#8D65FF"/>
<path fill-rule="evenodd" clip-rule="evenodd" d="M129.407 127.072C130.76 127.072 131.861 125.972 131.861 124.619C131.861 123.266 130.76 122.166 129.407 122.166C128.054 122.166 126.954 123.266 126.954 124.619C126.954 125.972 128.054 127.072 129.407 127.072Z" fill="#8D65FF"/>
<g opacity="0.4">
<path fill-rule="evenodd" clip-rule="evenodd" d="M135.446 129.493C135.049 128.249 133.996 127.537 132.551 127.537H132.541C131.952 127.532 131.426 127.651 130.982 127.877C132.221 128.275 133.139 129.158 133.562 130.407C134.233 130.314 134.817 130.108 135.333 129.792L135.503 129.684L135.446 129.493Z" fill="#8D65FF"/>
<path fill-rule="evenodd" clip-rule="evenodd" d="M127.808 127.867C127.374 127.651 126.863 127.537 126.285 127.537H126.264C124.82 127.537 123.767 128.249 123.374 129.493L123.312 129.684L123.482 129.792C123.973 130.092 124.551 130.293 125.196 130.396C125.624 129.142 126.559 128.254 127.808 127.867Z" fill="#8D65FF"/>
<path fill-rule="evenodd" clip-rule="evenodd" d="M129.389 128.151C129.38 128.151 129.372 128.151 129.364 128.151C127.506 128.151 126.152 129.065 125.648 130.659L125.587 130.851L125.759 130.957C126.743 131.557 127.919 131.848 129.353 131.848H129.399C130.834 131.848 132.01 131.557 132.994 130.957L133.167 130.851L133.106 130.659C132.601 129.065 131.247 128.151 129.389 128.151Z" fill="#8D65FF"/>
</g>
<mask id="path-16-outside-2_593_7707" maskUnits="userSpaceOnUse" x="143.387" y="106.258" width="212" height="43" fill="black">
<rect fill="white" x="143.387" y="106.258" width="212" height="43"/>
<path d="M143.387 106.258H355.315V147.758H143.387V106.258Z"/>
</mask>
<path d="M355.315 147.185H143.387V148.331H355.315V147.185Z" fill="#E2E8F0" mask="url(#path-16-outside-2_593_7707)"/>
<path d="M147.32 130.008L145.908 127.514H145.303V130.008H144.02V123.609H146.421C146.916 123.609 147.338 123.698 147.686 123.875C148.035 124.046 148.294 124.282 148.466 124.581C148.643 124.874 148.731 125.204 148.731 125.571C148.731 125.993 148.609 126.375 148.365 126.717C148.12 127.053 147.757 127.285 147.274 127.414L148.805 130.008H147.32ZM145.303 126.552H146.376C146.724 126.552 146.984 126.469 147.155 126.304C147.326 126.133 147.411 125.898 147.411 125.599C147.411 125.305 147.326 125.079 147.155 124.92C146.984 124.755 146.724 124.673 146.376 124.673H145.303V126.552ZM154.521 127.359C154.521 127.542 154.509 127.707 154.485 127.854H150.772C150.803 128.22 150.931 128.508 151.157 128.715C151.383 128.923 151.661 129.027 151.991 129.027C152.468 129.027 152.807 128.822 153.009 128.413H154.393C154.246 128.902 153.965 129.305 153.55 129.623C153.134 129.934 152.624 130.09 152.019 130.09C151.53 130.09 151.09 129.983 150.699 129.769C150.314 129.549 150.011 129.241 149.791 128.844C149.577 128.446 149.47 127.988 149.47 127.469C149.47 126.943 149.577 126.482 149.791 126.084C150.005 125.687 150.305 125.382 150.69 125.168C151.075 124.954 151.518 124.847 152.019 124.847C152.502 124.847 152.932 124.951 153.311 125.159C153.696 125.366 153.993 125.663 154.2 126.048C154.414 126.427 154.521 126.864 154.521 127.359ZM153.192 126.992C153.186 126.662 153.067 126.399 152.835 126.204C152.602 126.002 152.318 125.901 151.982 125.901C151.664 125.901 151.395 125.999 151.175 126.194C150.962 126.384 150.83 126.65 150.781 126.992H153.192ZM157.695 125.984H156.805V130.008H155.504V125.984H154.926V124.929H155.504V124.673C155.504 124.049 155.681 123.591 156.035 123.298C156.39 123.004 156.925 122.867 157.64 122.885V123.967C157.328 123.961 157.111 124.013 156.989 124.123C156.867 124.233 156.805 124.431 156.805 124.719V124.929H157.695V125.984ZM163.155 127.359C163.155 127.542 163.143 127.707 163.119 127.854H159.406C159.437 128.22 159.565 128.508 159.791 128.715C160.017 128.923 160.295 129.027 160.625 129.027C161.102 129.027 161.441 128.822 161.643 128.413H163.027C162.88 128.902 162.599 129.305 162.184 129.623C161.768 129.934 161.258 130.09 160.653 130.09C160.164 130.09 159.724 129.983 159.333 129.769C158.948 129.549 158.645 129.241 158.425 128.844C158.212 128.446 158.105 127.988 158.105 127.469C158.105 126.943 158.212 126.482 158.425 126.084C158.639 125.687 158.939 125.382 159.324 125.168C159.709 124.954 160.152 124.847 160.653 124.847C161.136 124.847 161.567 124.951 161.945 125.159C162.33 125.366 162.627 125.663 162.835 126.048C163.049 126.427 163.155 126.864 163.155 127.359ZM161.826 126.992C161.82 126.662 161.701 126.399 161.469 126.204C161.237 126.002 160.952 125.901 160.616 125.901C160.299 125.901 160.03 125.999 159.81 126.194C159.596 126.384 159.464 126.65 159.415 126.992H161.826ZM165.284 125.718C165.449 125.449 165.663 125.238 165.926 125.085C166.194 124.933 166.5 124.856 166.842 124.856V126.204H166.503C166.1 126.204 165.794 126.298 165.586 126.488C165.385 126.677 165.284 127.007 165.284 127.478V130.008H164.001V124.929H165.284V125.718ZM169.378 127.45C169.378 126.937 169.478 126.482 169.68 126.084C169.888 125.687 170.166 125.382 170.514 125.168C170.869 124.954 171.263 124.847 171.697 124.847C172.076 124.847 172.406 124.923 172.687 125.076C172.974 125.229 173.203 125.421 173.374 125.654V124.929H174.667V130.008H173.374V129.265C173.209 129.504 172.98 129.702 172.687 129.861C172.399 130.014 172.066 130.09 171.688 130.09C171.26 130.09 170.869 129.98 170.514 129.76C170.166 129.54 169.888 129.232 169.68 128.834C169.478 128.431 169.378 127.97 169.378 127.45ZM173.374 127.469C173.374 127.157 173.313 126.891 173.191 126.671C173.069 126.445 172.904 126.274 172.696 126.158C172.488 126.036 172.265 125.974 172.027 125.974C171.788 125.974 171.568 126.033 171.367 126.149C171.165 126.265 171 126.436 170.872 126.662C170.749 126.882 170.688 127.145 170.688 127.45C170.688 127.756 170.749 128.025 170.872 128.257C171 128.483 171.165 128.657 171.367 128.779C171.574 128.902 171.794 128.963 172.027 128.963C172.265 128.963 172.488 128.905 172.696 128.789C172.904 128.666 173.069 128.495 173.191 128.275C173.313 128.049 173.374 127.78 173.374 127.469ZM180.249 125.984H179.36V130.008H178.058V125.984H177.481V124.929H178.058V124.673C178.058 124.049 178.236 123.591 178.59 123.298C178.945 123.004 179.479 122.867 180.194 122.885V123.967C179.883 123.961 179.666 124.013 179.543 124.123C179.421 124.233 179.36 124.431 179.36 124.719V124.929H180.249V125.984ZM182.273 125.718C182.438 125.449 182.652 125.238 182.914 125.085C183.183 124.933 183.489 124.856 183.831 124.856V126.204H183.492C183.088 126.204 182.783 126.298 182.575 126.488C182.373 126.677 182.273 127.007 182.273 127.478V130.008H180.989V124.929H182.273V125.718ZM185.255 124.324C185.028 124.324 184.839 124.254 184.686 124.114C184.54 123.967 184.466 123.787 184.466 123.573C184.466 123.359 184.54 123.182 184.686 123.041C184.839 122.894 185.028 122.821 185.255 122.821C185.481 122.821 185.667 122.894 185.814 123.041C185.966 123.182 186.043 123.359 186.043 123.573C186.043 123.787 185.966 123.967 185.814 124.114C185.667 124.254 185.481 124.324 185.255 124.324ZM185.887 124.929V130.008H184.604V124.929H185.887ZM191.784 127.359C191.784 127.542 191.772 127.707 191.747 127.854H188.035C188.066 128.22 188.194 128.508 188.42 128.715C188.646 128.923 188.924 129.027 189.254 129.027C189.731 129.027 190.07 128.822 190.272 128.413H191.656C191.509 128.902 191.228 129.305 190.812 129.623C190.397 129.934 189.887 130.09 189.282 130.09C188.793 130.09 188.353 129.983 187.962 129.769C187.577 129.549 187.274 129.241 187.054 128.844C186.84 128.446 186.733 127.988 186.733 127.469C186.733 126.943 186.84 126.482 187.054 126.084C187.268 125.687 187.567 125.382 187.952 125.168C188.337 124.954 188.781 124.847 189.282 124.847C189.764 124.847 190.195 124.951 190.574 125.159C190.959 125.366 191.256 125.663 191.463 126.048C191.677 126.427 191.784 126.864 191.784 127.359ZM190.455 126.992C190.449 126.662 190.33 126.399 190.097 126.204C189.865 126.002 189.581 125.901 189.245 125.901C188.927 125.901 188.658 125.999 188.438 126.194C188.224 126.384 188.093 126.65 188.044 126.992H190.455ZM195.443 124.856C196.048 124.856 196.537 125.049 196.91 125.434C197.283 125.813 197.469 126.344 197.469 127.029V130.008H196.186V127.203C196.186 126.799 196.085 126.491 195.883 126.277C195.682 126.057 195.407 125.947 195.058 125.947C194.704 125.947 194.423 126.057 194.215 126.277C194.013 126.491 193.913 126.799 193.913 127.203V130.008H192.629V124.929H193.913V125.562C194.084 125.342 194.301 125.171 194.563 125.049C194.832 124.92 195.126 124.856 195.443 124.856ZM198.268 127.45C198.268 126.937 198.369 126.482 198.57 126.084C198.778 125.687 199.059 125.382 199.414 125.168C199.768 124.954 200.162 124.847 200.596 124.847C200.926 124.847 201.241 124.92 201.54 125.067C201.84 125.208 202.078 125.397 202.255 125.635V123.224H203.557V130.008H202.255V129.256C202.097 129.507 201.873 129.708 201.586 129.861C201.299 130.014 200.966 130.09 200.587 130.09C200.159 130.09 199.768 129.98 199.414 129.76C199.059 129.54 198.778 129.232 198.57 128.834C198.369 128.431 198.268 127.97 198.268 127.45ZM202.265 127.469C202.265 127.157 202.203 126.891 202.081 126.671C201.959 126.445 201.794 126.274 201.586 126.158C201.378 126.036 201.155 125.974 200.917 125.974C200.679 125.974 200.459 126.033 200.257 126.149C200.055 126.265 199.89 126.436 199.762 126.662C199.64 126.882 199.579 127.145 199.579 127.45C199.579 127.756 199.64 128.025 199.762 128.257C199.89 128.483 200.055 128.657 200.257 128.779C200.465 128.902 200.685 128.963 200.917 128.963C201.155 128.963 201.378 128.905 201.586 128.789C201.794 128.666 201.959 128.495 202.081 128.275C202.203 128.049 202.265 127.78 202.265 127.469ZM205.287 130.072C205.055 130.072 204.862 130.002 204.71 129.861C204.563 129.714 204.49 129.534 204.49 129.32C204.49 129.106 204.563 128.929 204.71 128.789C204.862 128.642 205.055 128.569 205.287 128.569C205.513 128.569 205.7 128.642 205.846 128.789C205.993 128.929 206.066 129.106 206.066 129.32C206.066 129.534 205.993 129.714 205.846 129.861C205.7 130.002 205.513 130.072 205.287 130.072Z" fill="#344055"/>
<path fill-rule="evenodd" clip-rule="evenodd" d="M346.579 130.244C346.31 129.975 346.31 129.54 346.579 129.272L348.843 127.008L346.579 124.744C346.31 124.475 346.31 124.04 346.579 123.772C346.847 123.503 347.283 123.503 347.551 123.772L350.301 126.522C350.57 126.79 350.57 127.225 350.301 127.494L347.551 130.244C347.283 130.512 346.847 130.512 346.579 130.244Z" fill="#64748B"/>
<path d="M109.129 113.133H111.42V140.633H109.129V113.133Z" fill="#8D65FF"/>
<path opacity="0.4" d="M122.241 163.226C122.669 162.865 123.361 162.865 123.777 163.226L124.745 164.052C124.928 164.206 125.277 164.334 125.522 164.334H126.563C127.212 164.334 127.745 164.867 127.745 165.516V166.556C127.745 166.801 127.873 167.144 128.026 167.328L128.853 168.295C129.214 168.724 129.214 169.416 128.853 169.832L128.026 170.799C127.873 170.983 127.745 171.326 127.745 171.571V172.611C127.745 173.26 127.212 173.793 126.563 173.793H125.522C125.277 173.793 124.935 173.922 124.751 174.075L123.784 174.901C123.355 175.262 122.663 175.262 122.247 174.901L121.28 174.075C121.096 173.922 120.747 173.793 120.508 173.793H119.437C118.788 173.793 118.255 173.26 118.255 172.611V171.564C118.255 171.326 118.133 170.977 117.98 170.799L117.153 169.826C116.798 169.403 116.798 168.718 117.153 168.295L117.98 167.322C118.133 167.138 118.255 166.795 118.255 166.556V165.522C118.255 164.873 118.788 164.34 119.437 164.34H120.496C120.741 164.34 121.084 164.212 121.267 164.059L122.241 163.226Z" fill="#FFA800"/>
<path d="M122.961 166.246C123.298 166.246 123.573 166.522 123.573 166.858C123.573 167.195 123.304 167.471 122.961 167.471C122.624 167.471 122.349 167.195 122.349 166.858C122.349 166.522 122.618 166.246 122.961 166.246Z" fill="#FFA800"/>
<path d="M123.025 168.173C123.276 168.173 123.484 168.381 123.484 168.632V171.596C123.484 171.847 123.276 172.055 123.025 172.055C122.774 172.055 122.565 171.847 122.565 171.596V168.638C122.565 168.381 122.767 168.173 123.025 168.173Z" fill="#FFA800"/>
<path d="M137.973 164.956C137.973 165.421 137.812 165.809 137.492 166.119C137.176 166.424 136.692 166.576 136.04 166.576H134.965V168.91H134.235V163.32H136.04C136.671 163.32 137.149 163.472 137.476 163.777C137.807 164.082 137.973 164.475 137.973 164.956ZM136.04 165.975C136.446 165.975 136.746 165.886 136.938 165.71C137.131 165.533 137.227 165.282 137.227 164.956C137.227 164.266 136.831 163.921 136.04 163.921H134.965V165.975H136.04ZM138.607 166.696C138.607 166.247 138.698 165.854 138.88 165.517C139.062 165.175 139.31 164.91 139.626 164.723C139.947 164.536 140.302 164.443 140.693 164.443C141.078 164.443 141.412 164.525 141.695 164.691C141.979 164.857 142.19 165.066 142.329 165.317V164.515H143.067V168.91H142.329V168.092C142.185 168.349 141.968 168.563 141.679 168.734C141.396 168.899 141.064 168.982 140.685 168.982C140.294 168.982 139.941 168.886 139.626 168.694C139.31 168.501 139.062 168.231 138.88 167.883C138.698 167.536 138.607 167.14 138.607 166.696ZM142.329 166.704C142.329 166.373 142.262 166.084 142.128 165.838C141.995 165.592 141.813 165.405 141.583 165.277C141.358 165.143 141.11 165.076 140.837 165.076C140.564 165.076 140.316 165.14 140.091 165.269C139.867 165.397 139.687 165.584 139.554 165.83C139.42 166.076 139.353 166.365 139.353 166.696C139.353 167.033 139.42 167.327 139.554 167.579C139.687 167.825 139.867 168.014 140.091 168.148C140.316 168.277 140.564 168.341 140.837 168.341C141.11 168.341 141.358 168.277 141.583 168.148C141.813 168.014 141.995 167.825 142.128 167.579C142.262 167.327 142.329 167.036 142.329 166.704ZM146.113 164.443C146.493 164.443 146.824 164.525 147.108 164.691C147.396 164.857 147.61 165.066 147.749 165.317V164.515H148.487V169.006C148.487 169.407 148.402 169.763 148.231 170.073C148.059 170.389 147.813 170.635 147.493 170.811C147.177 170.988 146.808 171.076 146.386 171.076C145.808 171.076 145.327 170.939 144.942 170.667C144.557 170.394 144.33 170.022 144.26 169.552H144.982C145.062 169.819 145.228 170.033 145.479 170.193C145.731 170.359 146.033 170.442 146.386 170.442C146.787 170.442 147.113 170.316 147.364 170.065C147.621 169.814 147.749 169.461 147.749 169.006V168.084C147.605 168.341 147.391 168.555 147.108 168.726C146.824 168.897 146.493 168.982 146.113 168.982C145.723 168.982 145.367 168.886 145.046 168.694C144.731 168.501 144.482 168.231 144.3 167.883C144.119 167.536 144.028 167.14 144.028 166.696C144.028 166.247 144.119 165.854 144.3 165.517C144.482 165.175 144.731 164.91 145.046 164.723C145.367 164.536 145.723 164.443 146.113 164.443ZM147.749 166.704C147.749 166.373 147.682 166.084 147.549 165.838C147.415 165.592 147.233 165.405 147.003 165.277C146.779 165.143 146.53 165.076 146.257 165.076C145.985 165.076 145.736 165.14 145.512 165.269C145.287 165.397 145.108 165.584 144.974 165.83C144.84 166.076 144.774 166.365 144.774 166.696C144.774 167.033 144.84 167.327 144.974 167.579C145.108 167.825 145.287 168.014 145.512 168.148C145.736 168.277 145.985 168.341 146.257 168.341C146.53 168.341 146.779 168.277 147.003 168.148C147.233 168.014 147.415 167.825 147.549 167.579C147.682 167.327 147.749 167.036 147.749 166.704ZM149.448 166.696C149.448 166.247 149.539 165.854 149.721 165.517C149.903 165.175 150.151 164.91 150.467 164.723C150.787 164.536 151.143 164.443 151.533 164.443C151.918 164.443 152.253 164.525 152.536 164.691C152.819 164.857 153.031 165.066 153.17 165.317V164.515H153.908V168.91H153.17V168.092C153.025 168.349 152.809 168.563 152.52 168.734C152.237 168.899 151.905 168.982 151.525 168.982C151.135 168.982 150.782 168.886 150.467 168.694C150.151 168.501 149.903 168.231 149.721 167.883C149.539 167.536 149.448 167.14 149.448 166.696ZM153.17 166.704C153.17 166.373 153.103 166.084 152.969 165.838C152.835 165.592 152.654 165.405 152.424 165.277C152.199 165.143 151.95 165.076 151.678 165.076C151.405 165.076 151.156 165.14 150.932 165.269C150.707 165.397 150.528 165.584 150.394 165.83C150.261 166.076 150.194 166.365 150.194 166.696C150.194 167.033 150.261 167.327 150.394 167.579C150.528 167.825 150.707 168.014 150.932 168.148C151.156 168.277 151.405 168.341 151.678 168.341C151.95 168.341 152.199 168.277 152.424 168.148C152.654 168.014 152.835 167.825 152.969 167.579C153.103 167.327 153.17 167.036 153.17 166.704ZM154.868 166.696C154.868 166.247 154.959 165.854 155.141 165.517C155.323 165.175 155.571 164.91 155.887 164.723C156.208 164.536 156.563 164.443 156.954 164.443C157.339 164.443 157.673 164.525 157.956 164.691C158.24 164.857 158.451 165.066 158.59 165.317V164.515H159.328V168.91H158.59V168.092C158.446 168.349 158.229 168.563 157.94 168.734C157.657 168.899 157.325 168.982 156.946 168.982C156.555 168.982 156.202 168.886 155.887 168.694C155.571 168.501 155.323 168.231 155.141 167.883C154.959 167.536 154.868 167.14 154.868 166.696ZM158.59 166.704C158.59 166.373 158.523 166.084 158.389 165.838C158.256 165.592 158.074 165.405 157.844 165.277C157.619 165.143 157.371 165.076 157.098 165.076C156.825 165.076 156.577 165.14 156.352 165.269C156.128 165.397 155.948 165.584 155.815 165.83C155.681 166.076 155.614 166.365 155.614 166.696C155.614 167.033 155.681 167.327 155.815 167.579C155.948 167.825 156.128 168.014 156.352 168.148C156.577 168.277 156.825 168.341 157.098 168.341C157.371 168.341 157.619 168.277 157.844 168.148C158.074 168.014 158.256 167.825 158.389 167.579C158.523 167.327 158.59 167.036 158.59 166.704ZM161.291 165.229C161.42 164.977 161.601 164.782 161.837 164.643C162.077 164.504 162.369 164.435 162.711 164.435V165.188H162.518C161.7 165.188 161.291 165.632 161.291 166.52V168.91H160.561V164.515H161.291V165.229ZM166.422 165.325C166.566 165.074 166.78 164.865 167.063 164.699C167.352 164.528 167.686 164.443 168.066 164.443C168.456 164.443 168.809 164.536 169.125 164.723C169.446 164.91 169.697 165.175 169.879 165.517C170.061 165.854 170.151 166.247 170.151 166.696C170.151 167.14 170.061 167.536 169.879 167.883C169.697 168.231 169.446 168.501 169.125 168.694C168.809 168.886 168.456 168.982 168.066 168.982C167.692 168.982 167.36 168.899 167.071 168.734C166.788 168.563 166.571 168.351 166.422 168.1V170.996H165.692V164.515H166.422V165.325ZM169.406 166.696C169.406 166.365 169.339 166.076 169.205 165.83C169.071 165.584 168.89 165.397 168.66 165.269C168.435 165.14 168.186 165.076 167.914 165.076C167.646 165.076 167.398 165.143 167.168 165.277C166.943 165.405 166.761 165.595 166.622 165.846C166.489 166.092 166.422 166.378 166.422 166.704C166.422 167.036 166.489 167.327 166.622 167.579C166.761 167.825 166.943 168.014 167.168 168.148C167.398 168.277 167.646 168.341 167.914 168.341C168.186 168.341 168.435 168.277 168.66 168.148C168.89 168.014 169.071 167.825 169.205 167.579C169.339 167.327 169.406 167.033 169.406 166.696ZM171.842 165.229C171.97 164.977 172.152 164.782 172.388 164.643C172.628 164.504 172.92 164.435 173.262 164.435V165.188H173.069C172.251 165.188 171.842 165.632 171.842 166.52V168.91H171.112V164.515H171.842V165.229ZM176.021 168.982C175.61 168.982 175.235 168.889 174.898 168.702C174.567 168.514 174.305 168.25 174.112 167.908C173.925 167.56 173.832 167.159 173.832 166.704C173.832 166.255 173.928 165.86 174.12 165.517C174.318 165.17 174.586 164.905 174.922 164.723C175.259 164.536 175.636 164.443 176.053 164.443C176.471 164.443 176.847 164.536 177.184 164.723C177.521 164.905 177.786 165.167 177.978 165.509C178.176 165.852 178.275 166.25 178.275 166.704C178.275 167.159 178.174 167.56 177.97 167.908C177.773 168.25 177.503 168.514 177.16 168.702C176.818 168.889 176.438 168.982 176.021 168.982ZM176.021 168.341C176.283 168.341 176.529 168.279 176.759 168.156C176.989 168.033 177.174 167.849 177.313 167.603C177.457 167.357 177.529 167.057 177.529 166.704C177.529 166.352 177.46 166.052 177.321 165.806C177.182 165.56 177 165.378 176.775 165.261C176.551 165.138 176.307 165.076 176.045 165.076C175.778 165.076 175.532 165.138 175.307 165.261C175.088 165.378 174.912 165.56 174.778 165.806C174.644 166.052 174.578 166.352 174.578 166.704C174.578 167.063 174.642 167.365 174.77 167.611C174.904 167.857 175.08 168.041 175.299 168.164C175.519 168.282 175.759 168.341 176.021 168.341ZM180.871 168.236L182.235 164.515H183.013L181.288 168.91H180.438L178.714 164.515H179.5L180.871 168.236ZM184.108 163.801C183.969 163.801 183.851 163.753 183.755 163.657C183.659 163.56 183.611 163.443 183.611 163.304C183.611 163.165 183.659 163.047 183.755 162.951C183.851 162.854 183.969 162.806 184.108 162.806C184.242 162.806 184.354 162.854 184.445 162.951C184.541 163.047 184.589 163.165 184.589 163.304C184.589 163.443 184.541 163.56 184.445 163.657C184.354 163.753 184.242 163.801 184.108 163.801ZM184.461 164.515V168.91H183.731V164.515H184.461ZM185.432 166.696C185.432 166.247 185.523 165.854 185.705 165.517C185.887 165.175 186.135 164.91 186.451 164.723C186.772 164.536 187.13 164.443 187.526 164.443C187.868 164.443 188.186 164.523 188.48 164.683C188.774 164.838 188.999 165.044 189.154 165.301V162.975H189.892V168.91H189.154V168.084C189.009 168.346 188.796 168.563 188.512 168.734C188.229 168.899 187.897 168.982 187.518 168.982C187.127 168.982 186.772 168.886 186.451 168.694C186.135 168.501 185.887 168.231 185.705 167.883C185.523 167.536 185.432 167.14 185.432 166.696ZM189.154 166.704C189.154 166.373 189.087 166.084 188.953 165.838C188.82 165.592 188.638 165.405 188.408 165.277C188.183 165.143 187.935 165.076 187.662 165.076C187.389 165.076 187.141 165.14 186.916 165.269C186.691 165.397 186.512 165.584 186.379 165.83C186.245 166.076 186.178 166.365 186.178 166.696C186.178 167.033 186.245 167.327 186.379 167.579C186.512 167.825 186.691 168.014 186.916 168.148C187.141 168.277 187.389 168.341 187.662 168.341C187.935 168.341 188.183 168.277 188.408 168.148C188.638 168.014 188.82 167.825 188.953 167.579C189.087 167.327 189.154 167.036 189.154 166.704ZM195.136 166.544C195.136 166.683 195.128 166.83 195.111 166.985H191.598C191.625 167.418 191.772 167.758 192.04 168.004C192.312 168.244 192.641 168.365 193.026 168.365C193.342 168.365 193.604 168.293 193.812 168.148C194.026 167.998 194.176 167.801 194.261 167.555H195.047C194.93 167.977 194.694 168.322 194.341 168.589C193.989 168.851 193.55 168.982 193.026 168.982C192.609 168.982 192.235 168.889 191.903 168.702C191.577 168.514 191.32 168.25 191.133 167.908C190.946 167.56 190.852 167.159 190.852 166.704C190.852 166.25 190.943 165.852 191.125 165.509C191.307 165.167 191.561 164.905 191.887 164.723C192.219 164.536 192.598 164.443 193.026 164.443C193.443 164.443 193.812 164.533 194.133 164.715C194.454 164.897 194.7 165.148 194.871 165.469C195.047 165.785 195.136 166.143 195.136 166.544ZM194.382 166.392C194.382 166.114 194.32 165.876 194.197 165.678C194.074 165.475 193.906 165.322 193.692 165.221C193.483 165.114 193.251 165.06 192.994 165.06C192.625 165.06 192.31 165.178 192.048 165.413C191.791 165.648 191.644 165.975 191.606 166.392H194.382ZM197.655 168.982C197.318 168.982 197.016 168.926 196.749 168.814C196.481 168.696 196.27 168.536 196.115 168.333C195.96 168.124 195.874 167.886 195.858 167.619H196.612C196.634 167.838 196.735 168.017 196.917 168.156C197.104 168.295 197.348 168.365 197.647 168.365C197.925 168.365 198.144 168.303 198.305 168.18C198.465 168.057 198.545 167.902 198.545 167.715C198.545 167.523 198.46 167.381 198.289 167.29C198.118 167.194 197.853 167.1 197.495 167.009C197.168 166.924 196.901 166.838 196.693 166.753C196.489 166.662 196.313 166.531 196.163 166.36C196.019 166.183 195.947 165.953 195.947 165.67C195.947 165.445 196.013 165.239 196.147 165.052C196.281 164.865 196.471 164.718 196.717 164.611C196.963 164.499 197.243 164.443 197.559 164.443C198.045 164.443 198.438 164.566 198.738 164.812C199.037 165.057 199.198 165.394 199.219 165.822H198.489C198.473 165.592 198.38 165.408 198.208 165.269C198.043 165.13 197.818 165.06 197.535 165.06C197.273 165.06 197.064 165.116 196.909 165.229C196.754 165.341 196.676 165.488 196.676 165.67C196.676 165.814 196.722 165.934 196.813 166.031C196.909 166.122 197.027 166.196 197.166 166.255C197.31 166.309 197.508 166.37 197.759 166.44C198.075 166.525 198.331 166.611 198.529 166.696C198.727 166.777 198.896 166.9 199.035 167.065C199.179 167.231 199.254 167.448 199.259 167.715C199.259 167.956 199.192 168.172 199.059 168.365C198.925 168.557 198.735 168.71 198.489 168.822C198.249 168.929 197.971 168.982 197.655 168.982ZM206.214 164.515L203.567 170.98H202.813L203.679 168.862L201.907 164.515H202.717L204.096 168.076L205.46 164.515H206.214ZM208.864 168.982C208.453 168.982 208.078 168.889 207.742 168.702C207.41 168.514 207.148 168.25 206.956 167.908C206.768 167.56 206.675 167.159 206.675 166.704C206.675 166.255 206.771 165.86 206.964 165.517C207.161 165.17 207.429 164.905 207.766 164.723C208.102 164.536 208.479 164.443 208.897 164.443C209.314 164.443 209.691 164.536 210.027 164.723C210.364 164.905 210.629 165.167 210.822 165.509C211.019 165.852 211.118 166.25 211.118 166.704C211.118 167.159 211.017 167.56 210.814 167.908C210.616 168.25 210.346 168.514 210.003 168.702C209.661 168.889 209.282 168.982 208.864 168.982ZM208.864 168.341C209.126 168.341 209.372 168.279 209.602 168.156C209.832 168.033 210.017 167.849 210.156 167.603C210.3 167.357 210.372 167.057 210.372 166.704C210.372 166.352 210.303 166.052 210.164 165.806C210.025 165.56 209.843 165.378 209.618 165.261C209.394 165.138 209.151 165.076 208.889 165.076C208.621 165.076 208.375 165.138 208.151 165.261C207.931 165.378 207.755 165.56 207.621 165.806C207.488 166.052 207.421 166.352 207.421 166.704C207.421 167.063 207.485 167.365 207.613 167.611C207.747 167.857 207.923 168.041 208.143 168.164C208.362 168.282 208.602 168.341 208.864 168.341ZM215.976 164.515V168.91H215.246V168.26C215.107 168.485 214.912 168.662 214.661 168.79C214.415 168.913 214.142 168.974 213.843 168.974C213.5 168.974 213.193 168.905 212.92 168.766C212.647 168.621 212.431 168.408 212.271 168.124C212.115 167.841 212.038 167.496 212.038 167.089V164.515H212.76V166.993C212.76 167.426 212.869 167.761 213.089 167.996C213.308 168.226 213.607 168.341 213.987 168.341C214.377 168.341 214.685 168.22 214.909 167.98C215.134 167.739 215.246 167.389 215.246 166.929V164.515H215.976ZM225.202 164.515L223.831 168.91H223.077L222.018 165.421L220.959 168.91H220.205L218.826 164.515H219.571L220.582 168.204L221.673 164.515H222.419L223.486 168.212L224.48 164.515H225.202ZM226.303 163.801C226.164 163.801 226.047 163.753 225.951 163.657C225.854 163.56 225.806 163.443 225.806 163.304C225.806 163.165 225.854 163.047 225.951 162.951C226.047 162.854 226.164 162.806 226.303 162.806C226.437 162.806 226.549 162.854 226.64 162.951C226.737 163.047 226.785 163.165 226.785 163.304C226.785 163.443 226.737 163.56 226.64 163.657C226.549 163.753 226.437 163.801 226.303 163.801ZM226.656 164.515V168.91H225.926V164.515H226.656ZM228.791 165.116V167.707C228.791 167.921 228.836 168.073 228.927 168.164C229.018 168.25 229.176 168.293 229.4 168.293H229.938V168.91H229.28C228.874 168.91 228.569 168.817 228.366 168.629C228.162 168.442 228.061 168.135 228.061 167.707V165.116H227.491V164.515H228.061V163.408H228.791V164.515H229.938V165.116H228.791ZM233.004 164.435C233.335 164.435 233.635 164.507 233.902 164.651C234.169 164.79 234.378 165.001 234.528 165.285C234.683 165.568 234.76 165.913 234.76 166.319V168.91H234.038V166.424C234.038 165.985 233.929 165.651 233.71 165.421C233.49 165.186 233.191 165.068 232.811 165.068C232.426 165.068 232.119 165.188 231.889 165.429C231.664 165.67 231.552 166.02 231.552 166.48V168.91H230.822V162.975H231.552V165.14C231.696 164.916 231.894 164.742 232.145 164.619C232.402 164.496 232.688 164.435 233.004 164.435ZM276.394 166.544C276.394 166.683 276.386 166.83 276.369 166.985H272.856C272.883 167.418 273.03 167.758 273.297 168.004C273.57 168.244 273.899 168.365 274.284 168.365C274.6 168.365 274.862 168.293 275.07 168.148C275.284 167.998 275.434 167.801 275.519 167.555H276.305C276.188 167.977 275.952 168.322 275.599 168.589C275.247 168.851 274.808 168.982 274.284 168.982C273.867 168.982 273.493 168.889 273.161 168.702C272.835 168.514 272.578 168.25 272.391 167.908C272.204 167.56 272.11 167.159 272.11 166.704C272.11 166.25 272.201 165.852 272.383 165.509C272.565 165.167 272.819 164.905 273.145 164.723C273.477 164.536 273.856 164.443 274.284 164.443C274.701 164.443 275.07 164.533 275.391 164.715C275.712 164.897 275.958 165.148 276.129 165.469C276.305 165.785 276.394 166.143 276.394 166.544ZM275.64 166.392C275.64 166.114 275.578 165.876 275.455 165.678C275.332 165.475 275.164 165.322 274.95 165.221C274.741 165.114 274.509 165.06 274.252 165.06C273.883 165.06 273.568 165.178 273.306 165.413C273.049 165.648 272.902 165.975 272.864 166.392H275.64ZM278.993 168.236L280.357 164.515H281.135L279.41 168.91H278.56L276.836 164.515H277.622L278.993 168.236ZM285.863 166.544C285.863 166.683 285.855 166.83 285.839 166.985H282.326C282.353 167.418 282.5 167.758 282.767 168.004C283.04 168.244 283.369 168.365 283.754 168.365C284.069 168.365 284.331 168.293 284.54 168.148C284.754 167.998 284.904 167.801 284.989 167.555H285.775C285.658 167.977 285.422 168.322 285.069 168.589C284.716 168.851 284.278 168.982 283.754 168.982C283.337 168.982 282.963 168.889 282.631 168.702C282.305 168.514 282.048 168.25 281.861 167.908C281.674 167.56 281.58 167.159 281.58 166.704C281.58 166.25 281.671 165.852 281.853 165.509C282.035 165.167 282.289 164.905 282.615 164.723C282.947 164.536 283.326 164.443 283.754 164.443C284.171 164.443 284.54 164.533 284.861 164.715C285.182 164.897 285.428 165.148 285.599 165.469C285.775 165.785 285.863 166.143 285.863 166.544ZM285.109 166.392C285.109 166.114 285.048 165.876 284.925 165.678C284.802 165.475 284.634 165.322 284.42 165.221C284.211 165.114 283.979 165.06 283.722 165.06C283.353 165.06 283.037 165.178 282.775 165.413C282.519 165.648 282.372 165.975 282.334 166.392H285.109ZM287.557 165.229C287.685 164.977 287.867 164.782 288.102 164.643C288.343 164.504 288.634 164.435 288.976 164.435V165.188H288.784C287.966 165.188 287.557 165.632 287.557 166.52V168.91H286.827V164.515H287.557V165.229ZM293.605 164.515L290.958 170.98H290.204L291.07 168.862L289.298 164.515H290.108L291.487 168.076L292.851 164.515H293.605ZM301.763 164.435C302.105 164.435 302.41 164.507 302.677 164.651C302.944 164.79 303.156 165.001 303.311 165.285C303.466 165.568 303.543 165.913 303.543 166.319V168.91H302.821V166.424C302.821 165.985 302.712 165.651 302.493 165.421C302.279 165.186 301.987 165.068 301.618 165.068C301.239 165.068 300.937 165.191 300.712 165.437C300.487 165.678 300.375 166.028 300.375 166.488V168.91H299.653V166.424C299.653 165.985 299.544 165.651 299.324 165.421C299.11 165.186 298.819 165.068 298.45 165.068C298.07 165.068 297.768 165.191 297.544 165.437C297.319 165.678 297.207 166.028 297.207 166.488V168.91H296.477V164.515H297.207V165.148C297.351 164.918 297.544 164.742 297.784 164.619C298.03 164.496 298.3 164.435 298.594 164.435C298.963 164.435 299.29 164.517 299.573 164.683C299.856 164.849 300.068 165.092 300.207 165.413C300.33 165.103 300.533 164.862 300.816 164.691C301.1 164.52 301.415 164.435 301.763 164.435ZM306.658 168.982C306.246 168.982 305.872 168.889 305.535 168.702C305.203 168.514 304.941 168.25 304.749 167.908C304.561 167.56 304.468 167.159 304.468 166.704C304.468 166.255 304.564 165.86 304.757 165.517C304.954 165.17 305.222 164.905 305.559 164.723C305.896 164.536 306.273 164.443 306.69 164.443C307.107 164.443 307.484 164.536 307.821 164.723C308.157 164.905 308.422 165.167 308.615 165.509C308.813 165.852 308.911 166.25 308.911 166.704C308.911 167.159 308.81 167.56 308.607 167.908C308.409 168.25 308.139 168.514 307.797 168.702C307.454 168.889 307.075 168.982 306.658 168.982ZM306.658 168.341C306.92 168.341 307.166 168.279 307.396 168.156C307.625 168.033 307.81 167.849 307.949 167.603C308.093 167.357 308.166 167.057 308.166 166.704C308.166 166.352 308.096 166.052 307.957 165.806C307.818 165.56 307.636 165.378 307.412 165.261C307.187 165.138 306.944 165.076 306.682 165.076C306.414 165.076 306.168 165.138 305.944 165.261C305.724 165.378 305.548 165.56 305.414 165.806C305.281 166.052 305.214 166.352 305.214 166.704C305.214 167.063 305.278 167.365 305.406 167.611C305.54 167.857 305.716 168.041 305.936 168.164C306.155 168.282 306.396 168.341 306.658 168.341ZM312.013 164.435C312.547 164.435 312.981 164.598 313.312 164.924C313.644 165.245 313.809 165.71 313.809 166.319V168.91H313.087V166.424C313.087 165.985 312.978 165.651 312.759 165.421C312.539 165.186 312.24 165.068 311.86 165.068C311.475 165.068 311.168 165.188 310.938 165.429C310.713 165.67 310.601 166.02 310.601 166.48V168.91H309.871V164.515H310.601V165.14C310.745 164.916 310.941 164.742 311.187 164.619C311.438 164.496 311.713 164.435 312.013 164.435ZM315.892 165.116V167.707C315.892 167.921 315.937 168.073 316.028 168.164C316.119 168.25 316.277 168.293 316.502 168.293H317.039V168.91H316.381C315.975 168.91 315.67 168.817 315.467 168.629C315.264 168.442 315.162 168.135 315.162 167.707V165.116H314.593V164.515H315.162V163.408H315.892V164.515H317.039V165.116H315.892ZM320.105 164.435C320.436 164.435 320.736 164.507 321.003 164.651C321.271 164.79 321.479 165.001 321.629 165.285C321.784 165.568 321.862 165.913 321.862 166.319V168.91H321.14V166.424C321.14 165.985 321.03 165.651 320.811 165.421C320.592 165.186 320.292 165.068 319.912 165.068C319.527 165.068 319.22 165.188 318.99 165.429C318.765 165.67 318.653 166.02 318.653 166.48V168.91H317.923V162.975H318.653V165.14C318.798 164.916 318.995 164.742 319.247 164.619C319.503 164.496 319.789 164.435 320.105 164.435ZM326.082 165.116V167.707C326.082 167.921 326.128 168.073 326.219 168.164C326.31 168.25 326.467 168.293 326.692 168.293H327.229V168.91H326.572C326.165 168.91 325.861 168.817 325.657 168.629C325.454 168.442 325.353 168.135 325.353 167.707V165.116H324.783V164.515H325.353V163.408H326.082V164.515H327.229V165.116H326.082ZM330.031 168.982C329.619 168.982 329.245 168.889 328.908 168.702C328.576 168.514 328.314 168.25 328.122 167.908C327.935 167.56 327.841 167.159 327.841 166.704C327.841 166.255 327.937 165.86 328.13 165.517C328.328 165.17 328.595 164.905 328.932 164.723C329.269 164.536 329.646 164.443 330.063 164.443C330.48 164.443 330.857 164.536 331.194 164.723C331.531 164.905 331.795 165.167 331.988 165.509C332.186 165.852 332.285 166.25 332.285 166.704C332.285 167.159 332.183 167.56 331.98 167.908C331.782 168.25 331.512 168.514 331.17 168.702C330.828 168.889 330.448 168.982 330.031 168.982ZM330.031 168.341C330.293 168.341 330.539 168.279 330.769 168.156C330.999 168.033 331.183 167.849 331.322 167.603C331.467 167.357 331.539 167.057 331.539 166.704C331.539 166.352 331.469 166.052 331.33 165.806C331.191 165.56 331.009 165.378 330.785 165.261C330.56 165.138 330.317 165.076 330.055 165.076C329.788 165.076 329.542 165.138 329.317 165.261C329.098 165.378 328.921 165.56 328.788 165.806C328.654 166.052 328.587 166.352 328.587 166.704C328.587 167.063 328.651 167.365 328.78 167.611C328.913 167.857 329.09 168.041 329.309 168.164C329.528 168.282 329.769 168.341 330.031 168.341ZM133.962 177.704C133.962 177.25 134.053 176.854 134.235 176.517C134.417 176.175 134.668 175.91 134.989 175.723C135.315 175.536 135.687 175.443 136.104 175.443C136.644 175.443 137.088 175.574 137.435 175.836C137.788 176.098 138.021 176.461 138.133 176.926H137.347C137.272 176.659 137.125 176.448 136.906 176.293C136.692 176.138 136.425 176.06 136.104 176.06C135.687 176.06 135.35 176.205 135.093 176.493C134.837 176.777 134.708 177.18 134.708 177.704C134.708 178.234 134.837 178.643 135.093 178.932C135.35 179.22 135.687 179.365 136.104 179.365C136.425 179.365 136.692 179.29 136.906 179.14C137.12 178.99 137.267 178.777 137.347 178.498H138.133C138.016 178.948 137.78 179.309 137.427 179.581C137.075 179.849 136.633 179.982 136.104 179.982C135.687 179.982 135.315 179.889 134.989 179.702C134.668 179.514 134.417 179.25 134.235 178.908C134.053 178.565 133.962 178.164 133.962 177.704ZM141.024 179.982C140.612 179.982 140.238 179.889 139.901 179.702C139.57 179.514 139.308 179.25 139.115 178.908C138.928 178.56 138.834 178.159 138.834 177.704C138.834 177.255 138.931 176.86 139.123 176.517C139.321 176.17 139.588 175.905 139.925 175.723C140.262 175.536 140.639 175.443 141.056 175.443C141.473 175.443 141.85 175.536 142.187 175.723C142.524 175.905 142.789 176.167 142.981 176.509C143.179 176.852 143.278 177.25 143.278 177.704C143.278 178.159 143.176 178.56 142.973 178.908C142.775 179.25 142.505 179.514 142.163 179.702C141.821 179.889 141.441 179.982 141.024 179.982ZM141.024 179.341C141.286 179.341 141.532 179.279 141.762 179.156C141.992 179.033 142.176 178.849 142.316 178.603C142.46 178.357 142.532 178.057 142.532 177.704C142.532 177.352 142.463 177.052 142.324 176.806C142.185 176.56 142.003 176.378 141.778 176.261C141.554 176.138 141.31 176.076 141.048 176.076C140.781 176.076 140.535 176.138 140.31 176.261C140.091 176.378 139.915 176.56 139.781 176.806C139.647 177.052 139.58 177.352 139.58 177.704C139.58 178.063 139.645 178.365 139.773 178.611C139.907 178.857 140.083 179.041 140.302 179.164C140.522 179.282 140.762 179.341 141.024 179.341ZM146.379 175.435C146.914 175.435 147.347 175.598 147.679 175.924C148.01 176.245 148.176 176.71 148.176 177.319V179.91H147.454V177.424C147.454 176.985 147.344 176.651 147.125 176.421C146.906 176.186 146.607 176.068 146.227 176.068C145.842 176.068 145.534 176.188 145.304 176.429C145.08 176.67 144.968 177.02 144.968 177.48V179.91H144.238V175.515H144.968V176.14C145.112 175.916 145.307 175.742 145.553 175.619C145.804 175.496 146.08 175.435 146.379 175.435ZM150.259 176.116V178.707C150.259 178.921 150.304 179.073 150.395 179.164C150.486 179.25 150.644 179.293 150.868 179.293H151.406V179.91H150.748C150.341 179.91 150.037 179.817 149.833 179.629C149.63 179.442 149.529 179.135 149.529 178.707V176.116H148.959V175.515H149.529V174.408H150.259V175.515H151.406V176.116H150.259ZM152.667 174.801C152.528 174.801 152.41 174.753 152.314 174.657C152.218 174.56 152.17 174.443 152.17 174.304C152.17 174.165 152.218 174.047 152.314 173.951C152.41 173.854 152.528 173.806 152.667 173.806C152.801 173.806 152.913 173.854 153.004 173.951C153.1 174.047 153.148 174.165 153.148 174.304C153.148 174.443 153.1 174.56 153.004 174.657C152.913 174.753 152.801 174.801 152.667 174.801ZM153.02 175.515V179.91H152.29V175.515H153.02ZM156.405 175.435C156.94 175.435 157.373 175.598 157.705 175.924C158.036 176.245 158.202 176.71 158.202 177.319V179.91H157.48V177.424C157.48 176.985 157.37 176.651 157.151 176.421C156.932 176.186 156.633 176.068 156.253 176.068C155.868 176.068 155.56 176.188 155.331 176.429C155.106 176.67 154.994 177.02 154.994 177.48V179.91H154.264V175.515H154.994V176.14C155.138 175.916 155.333 175.742 155.579 175.619C155.83 175.496 156.106 175.435 156.405 175.435ZM163.292 175.515V179.91H162.562V179.26C162.423 179.485 162.228 179.662 161.977 179.79C161.731 179.913 161.458 179.974 161.159 179.974C160.817 179.974 160.509 179.905 160.236 179.766C159.964 179.621 159.747 179.408 159.587 179.124C159.432 178.841 159.354 178.496 159.354 178.089V175.515H160.076V177.993C160.076 178.426 160.186 178.761 160.405 178.996C160.624 179.226 160.924 179.341 161.303 179.341C161.694 179.341 162.001 179.22 162.226 178.98C162.45 178.739 162.562 178.389 162.562 177.929V175.515H163.292ZM168.535 177.544C168.535 177.683 168.527 177.83 168.511 177.985H164.998C165.025 178.418 165.172 178.758 165.439 179.004C165.712 179.244 166.041 179.365 166.426 179.365C166.741 179.365 167.003 179.293 167.212 179.148C167.426 178.998 167.575 178.801 167.661 178.555H168.447C168.329 178.977 168.094 179.322 167.741 179.589C167.388 179.851 166.95 179.982 166.426 179.982C166.009 179.982 165.634 179.889 165.303 179.702C164.977 179.514 164.72 179.25 164.533 178.908C164.346 178.56 164.252 178.159 164.252 177.704C164.252 177.25 164.343 176.852 164.525 176.509C164.707 176.167 164.961 175.905 165.287 175.723C165.618 175.536 165.998 175.443 166.426 175.443C166.843 175.443 167.212 175.533 167.533 175.715C167.853 175.897 168.099 176.148 168.271 176.469C168.447 176.785 168.535 177.143 168.535 177.544ZM167.781 177.392C167.781 177.114 167.72 176.876 167.597 176.678C167.474 176.475 167.305 176.322 167.091 176.221C166.883 176.114 166.65 176.06 166.394 176.06C166.025 176.06 165.709 176.178 165.447 176.413C165.191 176.648 165.043 176.975 165.006 177.392H167.781ZM175.423 175.515L172.776 181.98H172.022L172.888 179.862L171.116 175.515H171.926L173.305 179.076L174.669 175.515H175.423ZM178.074 179.982C177.662 179.982 177.288 179.889 176.951 179.702C176.619 179.514 176.357 179.25 176.165 178.908C175.977 178.56 175.884 178.159 175.884 177.704C175.884 177.255 175.98 176.86 176.173 176.517C176.37 176.17 176.638 175.905 176.975 175.723C177.312 175.536 177.689 175.443 178.106 175.443C178.523 175.443 178.9 175.536 179.237 175.723C179.573 175.905 179.838 176.167 180.031 176.509C180.228 176.852 180.327 177.25 180.327 177.704C180.327 178.159 180.226 178.56 180.023 178.908C179.825 179.25 179.555 179.514 179.213 179.702C178.87 179.889 178.491 179.982 178.074 179.982ZM178.074 179.341C178.336 179.341 178.582 179.279 178.811 179.156C179.041 179.033 179.226 178.849 179.365 178.603C179.509 178.357 179.581 178.057 179.581 177.704C179.581 177.352 179.512 177.052 179.373 176.806C179.234 176.56 179.052 176.378 178.828 176.261C178.603 176.138 178.36 176.076 178.098 176.076C177.83 176.076 177.584 176.138 177.36 176.261C177.14 176.378 176.964 176.56 176.83 176.806C176.697 177.052 176.63 177.352 176.63 177.704C176.63 178.063 176.694 178.365 176.822 178.611C176.956 178.857 177.132 179.041 177.352 179.164C177.571 179.282 177.812 179.341 178.074 179.341ZM185.185 175.515V179.91H184.455V179.26C184.316 179.485 184.121 179.662 183.87 179.79C183.624 179.913 183.351 179.974 183.052 179.974C182.709 179.974 182.402 179.905 182.129 179.766C181.857 179.621 181.64 179.408 181.48 179.124C181.325 178.841 181.247 178.496 181.247 178.089V175.515H181.969V177.993C181.969 178.426 182.078 178.761 182.298 178.996C182.517 179.226 182.816 179.341 183.196 179.341C183.586 179.341 183.894 179.22 184.118 178.98C184.343 178.739 184.455 178.389 184.455 177.929V175.515H185.185ZM187.147 176.229C187.276 175.977 187.458 175.782 187.693 175.643C187.934 175.504 188.225 175.435 188.567 175.435V176.188H188.375C187.557 176.188 187.147 176.632 187.147 177.52V179.91H186.418V175.515H187.147V176.229ZM191.941 174.801C191.802 174.801 191.684 174.753 191.588 174.657C191.497 174.56 191.452 174.443 191.452 174.304C191.452 174.165 191.497 174.047 191.588 173.951C191.684 173.854 191.802 173.806 191.941 173.806C192.08 173.806 192.195 173.854 192.286 173.951C192.382 174.047 192.43 174.165 192.43 174.304C192.43 174.443 192.382 174.56 192.286 174.657C192.195 174.753 192.08 174.801 191.941 174.801ZM192.302 180.865C192.302 181.255 192.203 181.541 192.005 181.723C191.807 181.905 191.519 181.996 191.139 181.996H190.714V181.378H191.019C191.222 181.378 191.364 181.338 191.444 181.258C191.529 181.177 191.572 181.041 191.572 180.849V175.515H192.302V180.865ZM195.455 179.982C195.043 179.982 194.669 179.889 194.332 179.702C194 179.514 193.738 179.25 193.546 178.908C193.359 178.56 193.265 178.159 193.265 177.704C193.265 177.255 193.361 176.86 193.554 176.517C193.752 176.17 194.019 175.905 194.356 175.723C194.693 175.536 195.07 175.443 195.487 175.443C195.904 175.443 196.281 175.536 196.618 175.723C196.955 175.905 197.219 176.167 197.412 176.509C197.61 176.852 197.708 177.25 197.708 177.704C197.708 178.159 197.607 178.56 197.404 178.908C197.206 179.25 196.936 179.514 196.594 179.702C196.251 179.889 195.872 179.982 195.455 179.982ZM195.455 179.341C195.717 179.341 195.963 179.279 196.193 179.156C196.422 179.033 196.607 178.849 196.746 178.603C196.89 178.357 196.963 178.057 196.963 177.704C196.963 177.352 196.893 177.052 196.754 176.806C196.615 176.56 196.433 176.378 196.209 176.261C195.984 176.138 195.741 176.076 195.479 176.076C195.211 176.076 194.965 176.138 194.741 176.261C194.522 176.378 194.345 176.56 194.211 176.806C194.078 177.052 194.011 177.352 194.011 177.704C194.011 178.063 194.075 178.365 194.203 178.611C194.337 178.857 194.514 179.041 194.733 179.164C194.952 179.282 195.193 179.341 195.455 179.341ZM199.398 176.333C199.548 176.071 199.767 175.857 200.056 175.691C200.345 175.525 200.673 175.443 201.042 175.443C201.438 175.443 201.794 175.536 202.109 175.723C202.425 175.91 202.673 176.175 202.855 176.517C203.037 176.854 203.128 177.247 203.128 177.696C203.128 178.14 203.037 178.536 202.855 178.883C202.673 179.231 202.422 179.501 202.101 179.694C201.786 179.886 201.433 179.982 201.042 179.982C200.663 179.982 200.328 179.899 200.04 179.734C199.756 179.568 199.542 179.357 199.398 179.1V179.91H198.668V173.975H199.398V176.333ZM202.382 177.696C202.382 177.365 202.315 177.076 202.181 176.83C202.048 176.584 201.866 176.397 201.636 176.269C201.411 176.14 201.163 176.076 200.89 176.076C200.623 176.076 200.374 176.143 200.144 176.277C199.919 176.405 199.738 176.595 199.599 176.846C199.465 177.092 199.398 177.378 199.398 177.704C199.398 178.036 199.465 178.327 199.599 178.579C199.738 178.825 199.919 179.014 200.144 179.148C200.374 179.277 200.623 179.341 200.89 179.341C201.163 179.341 201.411 179.277 201.636 179.148C201.866 179.014 202.048 178.825 202.181 178.579C202.315 178.327 202.382 178.033 202.382 177.696ZM208.409 175.435C208.74 175.435 209.04 175.507 209.307 175.651C209.574 175.79 209.783 176.001 209.932 176.285C210.088 176.568 210.165 176.913 210.165 177.319V179.91H209.443V177.424C209.443 176.985 209.334 176.651 209.114 176.421C208.895 176.186 208.596 176.068 208.216 176.068C207.831 176.068 207.524 176.188 207.294 176.429C207.069 176.67 206.957 177.02 206.957 177.48V179.91H206.227V173.975H206.957V176.14C207.101 175.916 207.299 175.742 207.55 175.619C207.807 175.496 208.093 175.435 208.409 175.435ZM215.256 175.515V179.91H214.526V179.26C214.387 179.485 214.191 179.662 213.94 179.79C213.694 179.913 213.421 179.974 213.122 179.974C212.78 179.974 212.472 179.905 212.2 179.766C211.927 179.621 211.71 179.408 211.55 179.124C211.395 178.841 211.317 178.496 211.317 178.089V175.515H212.039V177.993C212.039 178.426 212.149 178.761 212.368 178.996C212.587 179.226 212.887 179.341 213.266 179.341C213.657 179.341 213.964 179.22 214.189 178.98C214.413 178.739 214.526 178.389 214.526 177.929V175.515H215.256ZM218.629 175.435C219.164 175.435 219.597 175.598 219.929 175.924C220.26 176.245 220.426 176.71 220.426 177.319V179.91H219.704V177.424C219.704 176.985 219.595 176.651 219.375 176.421C219.156 176.186 218.857 176.068 218.477 176.068C218.092 176.068 217.785 176.188 217.555 176.429C217.33 176.67 217.218 177.02 217.218 177.48V179.91H216.488V175.515H217.218V176.14C217.362 175.916 217.557 175.742 217.803 175.619C218.055 175.496 218.33 175.435 218.629 175.435ZM222.509 176.116V178.707C222.509 178.921 222.554 179.073 222.645 179.164C222.736 179.25 222.894 179.293 223.118 179.293H223.656V179.91H222.998C222.592 179.91 222.287 179.817 222.084 179.629C221.88 179.442 221.779 179.135 221.779 178.707V176.116H221.209V175.515H221.779V174.408H222.509V175.515H223.656V176.116H222.509ZM224.773 179.958C224.634 179.958 224.516 179.91 224.42 179.814C224.324 179.718 224.275 179.6 224.275 179.461C224.275 179.322 224.324 179.204 224.42 179.108C224.516 179.012 224.634 178.964 224.773 178.964C224.906 178.964 225.019 179.012 225.11 179.108C225.206 179.204 225.254 179.322 225.254 179.461C225.254 179.6 225.206 179.718 225.11 179.814C225.019 179.91 224.906 179.958 224.773 179.958Z" fill="#636363"/>
<path d="M237.69 164.33V163.055H239.912V168.91H238.484V164.33H237.69ZM240.85 165.902C240.85 164.983 241.026 164.258 241.379 163.729C241.738 163.199 242.312 162.935 243.104 162.935C243.895 162.935 244.467 163.199 244.82 163.729C245.178 164.258 245.358 164.983 245.358 165.902C245.358 166.833 245.178 167.563 244.82 168.092C244.467 168.621 243.895 168.886 243.104 168.886C242.312 168.886 241.738 168.621 241.379 168.092C241.026 167.563 240.85 166.833 240.85 165.902ZM244.01 165.902C244.01 165.362 243.951 164.948 243.834 164.659C243.716 164.365 243.473 164.218 243.104 164.218C242.735 164.218 242.491 164.365 242.374 164.659C242.256 164.948 242.197 165.362 242.197 165.902C242.197 166.266 242.219 166.568 242.262 166.809C242.304 167.044 242.39 167.236 242.518 167.386C242.652 167.531 242.847 167.603 243.104 167.603C243.36 167.603 243.553 167.531 243.681 167.386C243.815 167.236 243.903 167.044 243.946 166.809C243.989 166.568 244.01 166.266 244.01 165.902ZM247.646 166.672C247.646 166.207 247.739 165.801 247.926 165.453C248.119 165.106 248.384 164.838 248.72 164.651C249.063 164.464 249.453 164.37 249.891 164.37C250.453 164.37 250.921 164.517 251.295 164.812C251.675 165.106 251.923 165.52 252.041 166.055H250.581C250.458 165.713 250.22 165.541 249.867 165.541C249.616 165.541 249.416 165.64 249.266 165.838C249.116 166.031 249.041 166.309 249.041 166.672C249.041 167.036 249.116 167.317 249.266 167.515C249.416 167.707 249.616 167.803 249.867 167.803C250.22 167.803 250.458 167.632 250.581 167.29H252.041C251.923 167.814 251.675 168.226 251.295 168.525C250.915 168.825 250.448 168.974 249.891 168.974C249.453 168.974 249.063 168.881 248.72 168.694C248.384 168.506 248.119 168.239 247.926 167.892C247.739 167.544 247.646 167.138 247.646 166.672ZM254.812 168.974C254.373 168.974 253.978 168.881 253.625 168.694C253.277 168.506 253.002 168.239 252.799 167.892C252.601 167.544 252.502 167.138 252.502 166.672C252.502 166.212 252.604 165.809 252.807 165.461C253.01 165.108 253.288 164.838 253.641 164.651C253.994 164.464 254.39 164.37 254.828 164.37C255.266 164.37 255.662 164.464 256.015 164.651C256.368 164.838 256.646 165.108 256.849 165.461C257.052 165.809 257.154 166.212 257.154 166.672C257.154 167.132 257.05 167.539 256.841 167.892C256.638 168.239 256.357 168.506 255.999 168.694C255.646 168.881 255.25 168.974 254.812 168.974ZM254.812 167.787C255.074 167.787 255.296 167.691 255.478 167.498C255.665 167.306 255.758 167.031 255.758 166.672C255.758 166.314 255.668 166.039 255.486 165.846C255.309 165.654 255.09 165.557 254.828 165.557C254.561 165.557 254.339 165.654 254.162 165.846C253.986 166.033 253.898 166.309 253.898 166.672C253.898 167.031 253.983 167.306 254.154 167.498C254.331 167.691 254.55 167.787 254.812 167.787ZM258.571 163.969C258.331 163.969 258.133 163.9 257.978 163.761C257.828 163.616 257.753 163.44 257.753 163.231C257.753 163.018 257.828 162.841 257.978 162.702C258.133 162.558 258.331 162.485 258.571 162.485C258.807 162.485 258.999 162.558 259.149 162.702C259.304 162.841 259.382 163.018 259.382 163.231C259.382 163.44 259.304 163.616 259.149 163.761C258.999 163.9 258.807 163.969 258.571 163.969ZM259.253 164.435V168.91H257.882V164.435H259.253ZM262.974 164.386C263.498 164.386 263.915 164.558 264.226 164.9C264.541 165.237 264.699 165.702 264.699 166.295V168.91H263.335V166.48C263.335 166.18 263.258 165.948 263.103 165.782C262.948 165.616 262.739 165.533 262.477 165.533C262.215 165.533 262.006 165.616 261.851 165.782C261.696 165.948 261.619 166.18 261.619 166.48V168.91H260.247V164.435H261.619V165.028C261.758 164.83 261.945 164.675 262.18 164.563C262.415 164.445 262.68 164.386 262.974 164.386ZM267.473 168.974C267.082 168.974 266.735 168.907 266.43 168.774C266.125 168.64 265.884 168.458 265.708 168.228C265.532 167.993 265.433 167.731 265.411 167.442H266.767C266.783 167.597 266.855 167.723 266.983 167.819C267.112 167.916 267.269 167.964 267.457 167.964C267.628 167.964 267.759 167.932 267.85 167.867C267.946 167.798 267.994 167.71 267.994 167.603C267.994 167.474 267.927 167.381 267.793 167.322C267.66 167.258 267.443 167.188 267.144 167.113C266.823 167.039 266.556 166.961 266.342 166.881C266.128 166.795 265.943 166.664 265.788 166.488C265.633 166.306 265.556 166.063 265.556 165.758C265.556 165.501 265.625 165.269 265.764 165.06C265.909 164.846 266.117 164.678 266.39 164.555C266.668 164.432 266.997 164.37 267.376 164.37C267.938 164.37 268.379 164.509 268.7 164.787C269.026 165.066 269.213 165.434 269.261 165.894H267.994C267.973 165.739 267.903 165.616 267.785 165.525C267.673 165.434 267.523 165.389 267.336 165.389C267.176 165.389 267.053 165.421 266.967 165.485C266.882 165.544 266.839 165.627 266.839 165.734C266.839 165.862 266.906 165.958 267.039 166.023C267.178 166.087 267.392 166.151 267.681 166.215C268.013 166.301 268.283 166.386 268.491 166.472C268.7 166.552 268.882 166.686 269.037 166.873C269.197 167.055 269.28 167.301 269.285 167.611C269.285 167.873 269.21 168.108 269.061 168.317C268.916 168.52 268.705 168.68 268.427 168.798C268.154 168.916 267.836 168.974 267.473 168.974Z" fill="#926CFF"/>
</g>
<path d="M50.1197 200.393H111.37L81.5144 95.5087L50.1197 200.393Z" fill="#BDA6FF" stroke="#10380B" stroke-width="1.14131"/>
<path d="M62.8708 155.801L80.8164 181.401V200.963H82.2402V151.148L95.0259 140.894L94.6044 139.407L82.2402 149.322V95.9728L81.5283 93.4727L80.8164 95.8504V116.999L75.9783 112.01L75.5113 113.574L80.8164 119.047V178.915L63.392 154.064L62.8708 155.801Z" fill="#59221D"/>
<path d="M125.791 175.042L125.791 175.042C122.875 175.48 120.699 174.873 118.878 173.696C117.169 172.591 115.788 170.991 114.414 169.397C114.351 169.324 114.287 169.25 114.223 169.176C112.766 167.489 111.278 165.807 109.324 164.528C107.387 163.258 104.972 162.374 101.655 162.339L101.655 162.339C97.8458 162.298 94.0528 164.582 90.4615 168.195C86.8829 171.796 83.589 176.632 80.7825 181.502C77.9787 186.368 75.6756 191.243 74.0728 194.904C73.2718 196.734 72.6463 198.258 72.2214 199.325C72.0809 199.678 71.9624 199.98 71.8667 200.227L167.72 200.192C167.743 199.874 167.763 199.419 167.754 198.873C167.735 197.771 167.594 196.321 167.117 194.895C166.641 193.472 165.839 192.096 164.513 191.098C163.192 190.104 161.296 189.443 158.554 189.541C156.075 189.629 154.288 189.646 152.95 189.515C151.604 189.383 150.651 189.096 149.877 188.531C149.115 187.976 148.588 187.192 148.014 186.217C147.85 185.938 147.68 185.641 147.499 185.323C147.035 184.509 146.493 183.557 145.755 182.416C143.729 179.283 141.411 177.061 138.302 175.805C135.182 174.544 131.198 174.228 125.791 175.042Z" fill="#C7C4FF" stroke="#10380B" stroke-width="1.14131"/>
<path d="M316.218 200.969C317.351 197.771 319.112 194.827 321.402 192.312C323.954 189.511 327.097 187.314 330.605 185.88C334.112 184.447 337.895 183.813 341.678 184.025C345.461 184.237 349.149 185.29 352.474 187.106L354.086 187.987L353.724 186.187C352.249 178.852 353.689 171.231 357.738 164.939C361.787 158.648 368.127 154.18 375.414 152.483C382.7 150.786 390.362 151.993 396.773 155.849C403.185 159.705 407.844 165.905 409.762 173.137L409.968 173.916L410.758 173.757C411.831 173.54 412.923 173.431 414.017 173.432H414.018C422.429 173.432 429.122 179.666 429.122 187.202C429.122 194.737 422.432 200.969 414.018 200.969H316.218Z" fill="#BDA6FF" stroke="#10380B" stroke-width="1.71197"/>
<path d="M380.296 201.685V169.98" stroke="#10380B" stroke-width="0.917864" stroke-miterlimit="10" stroke-linecap="round"/>
<path d="M387.092 177.998L380.296 188.744" stroke="#10380B" stroke-width="0.917864" stroke-miterlimit="10" stroke-linecap="round"/>
<path d="M371 190.742L380.296 197.74" stroke="#10380B" stroke-width="0.917864" stroke-miterlimit="10" stroke-linecap="round"/>
<path d="M343.489 201.244H428.555L431.693 198.812L435.117 201.244H441.791" stroke="#10380B" stroke-width="1.41104"/>
<path d="M31.092 201.348H40.9796L46.3353 200.207L50.8671 201.348H55.8109H172.044" stroke="#10380B" stroke-width="1.41104"/>
<defs>
<filter id="filter0_d_593_7707" x="94.4353" y="12.1719" width="291.606" height="187.496" filterUnits="userSpaceOnUse" color-interpolation-filters="sRGB">
<feFlood flood-opacity="0" result="BackgroundImageFix"/>
<feColorMatrix in="SourceAlpha" type="matrix" values="0 0 0 0 0 0 0 0 0 0 0 0 0 0 0 0 0 0 127 0" result="hardAlpha"/>
<feOffset dx="2.28263" dy="2.28263"/>
<feComposite in2="hardAlpha" operator="out"/>
<feColorMatrix type="matrix" values="0 0 0 0 0 0 0 0 0 0 0 0 0 0 0 0 0 0 1 0"/>
<feBlend mode="normal" in2="BackgroundImageFix" result="effect1_dropShadow_593_7707"/>
<feBlend mode="normal" in="SourceGraphic" in2="effect1_dropShadow_593_7707" result="shape"/>
</filter>
<clipPath id="clip0_593_7707">
<rect width="220.035" height="18" fill="white" transform="translate(109.129 34.0977)"/>
</clipPath>
<clipPath id="clip1_593_7707">
<rect width="13.0607" height="13.0607" fill="white" transform="translate(122.879 78.9766)"/>
</clipPath>
</defs>
</svg>
