<svg width="430" height="215" viewBox="0 0 430 215" fill="none" xmlns="http://www.w3.org/2000/svg">
<g filter="url(#filter0_d_512_15799)">
<rect x="68.9468" y="25.0742" width="321.904" height="186.666" rx="10.1587" fill="white"/>
<rect x="70.2166" y="26.3441" width="319.364" height="184.126" rx="8.88885" stroke="black" stroke-width="2.53967"/>
</g>
<g clip-path="url(#clip0_512_15799)">
<g filter="url(#filter1_d_512_15799)">
<rect x="84.1847" y="11.1055" width="61.5236" height="27.9364" rx="10.1587" fill="#C5C2F2" shape-rendering="crispEdges"/>
<rect x="84.8196" y="11.7404" width="60.2538" height="26.6666" rx="9.52377" stroke="black" stroke-width="1.26984" shape-rendering="crispEdges"/>
<path d="M104.361 28.3892L101.539 25.5673L102.527 24.5797L104.361 26.4139L109.017 21.7578L110.005 22.7455L104.361 28.3892Z" fill="#28273C"/>
<path d="M119.825 29.0742H118.887L121.6 21.6861H122.523L125.236 29.0742H124.298L122.09 22.8549H122.032L119.825 29.0742ZM120.171 26.1882H123.952V26.9819H120.171V26.1882ZM127.123 21.6861V29.0742H126.271V21.6861H127.123ZM129.533 21.6861V29.0742H128.682V21.6861H129.533Z" fill="black"/>
</g>
<g filter="url(#filter2_d_512_15799)">
<path d="M155.867 21.2642C155.867 15.6537 160.415 11.1055 166.026 11.1055H216.232C221.842 11.1055 226.391 15.6537 226.391 21.2642V28.8832C226.391 34.4937 221.842 39.0419 216.232 39.0419H166.026C160.415 39.0419 155.867 34.4937 155.867 28.8832V21.2642Z" fill="white" shape-rendering="crispEdges"/>
<path d="M156.502 21.2642C156.502 16.0043 160.766 11.7404 166.026 11.7404H216.232C221.492 11.7404 225.756 16.0043 225.756 21.2642V28.8832C225.756 34.143 221.492 38.407 216.232 38.407H166.026C160.766 38.407 156.502 34.143 156.502 28.8832V21.2642Z" stroke="black" stroke-width="1.26984" shape-rendering="crispEdges"/>
<path d="M172.088 29.0742V21.6861H174.584C175.162 21.6861 175.635 21.7847 176.006 21.9819C176.376 22.1767 176.65 22.4449 176.828 22.7864C177.006 23.1279 177.095 23.5163 177.095 23.9516C177.095 24.3869 177.006 24.7729 176.828 25.1096C176.65 25.4463 176.377 25.7108 176.009 25.9032C175.641 26.0932 175.171 26.1882 174.599 26.1882H172.579V25.3801H174.57C174.964 25.3801 175.282 25.3224 175.522 25.207C175.765 25.0915 175.941 24.928 176.049 24.7164C176.16 24.5023 176.215 24.2474 176.215 23.9516C176.215 23.6558 176.16 23.3972 176.049 23.176C175.938 22.9547 175.762 22.784 175.519 22.6637C175.276 22.5411 174.955 22.4797 174.555 22.4797H172.983V29.0742H172.088ZM175.566 25.7553L177.384 29.0742H176.345L174.555 25.7553H175.566ZM180.662 29.1897C180.162 29.1897 179.723 29.0706 179.345 28.8325C178.97 28.5944 178.677 28.2613 178.465 27.8332C178.256 27.4052 178.151 26.9049 178.151 26.3325C178.151 25.7553 178.256 25.2515 178.465 24.821C178.677 24.3905 178.97 24.0562 179.345 23.8181C179.723 23.58 180.162 23.461 180.662 23.461C181.162 23.461 181.6 23.58 181.975 23.8181C182.353 24.0562 182.646 24.3905 182.855 24.821C183.067 25.2515 183.173 25.7553 183.173 26.3325C183.173 26.9049 183.067 27.4052 182.855 27.8332C182.646 28.2613 182.353 28.5944 181.975 28.8325C181.6 29.0706 181.162 29.1897 180.662 29.1897ZM180.662 28.4249C181.042 28.4249 181.355 28.3275 181.6 28.1327C181.845 27.9379 182.027 27.6817 182.145 27.3643C182.263 27.0468 182.322 26.7029 182.322 26.3325C182.322 25.9622 182.263 25.617 182.145 25.2972C182.027 24.9773 181.845 24.7188 181.6 24.5216C181.355 24.3244 181.042 24.2258 180.662 24.2258C180.282 24.2258 179.969 24.3244 179.724 24.5216C179.479 24.7188 179.297 24.9773 179.179 25.2972C179.062 25.617 179.003 25.9622 179.003 26.3325C179.003 26.7029 179.062 27.0468 179.179 27.3643C179.297 27.6817 179.479 27.9379 179.724 28.1327C179.969 28.3275 180.282 28.4249 180.662 28.4249ZM185.324 21.6861V29.0742H184.472V21.6861H185.324ZM189.206 29.1897C188.673 29.1897 188.212 29.0718 187.825 28.8361C187.44 28.598 187.143 28.2661 186.934 27.8405C186.727 27.4124 186.623 26.9145 186.623 26.347C186.623 25.7794 186.727 25.2791 186.934 24.8462C187.143 24.4109 187.434 24.0718 187.807 23.8289C188.182 23.5836 188.62 23.461 189.12 23.461C189.408 23.461 189.693 23.5091 189.975 23.6053C190.256 23.7015 190.512 23.8578 190.743 24.0742C190.974 24.2883 191.158 24.5721 191.295 24.9256C191.432 25.2791 191.501 25.7144 191.501 26.2315V26.5923H187.23V25.8563H190.635C190.635 25.5437 190.572 25.2647 190.447 25.0194C190.325 24.7741 190.149 24.5805 189.921 24.4386C189.695 24.2967 189.428 24.2258 189.12 24.2258C188.781 24.2258 188.487 24.3099 188.24 24.4783C187.994 24.6442 187.806 24.8607 187.673 25.1276C187.541 25.3946 187.475 25.6808 187.475 25.9862V26.4768C187.475 26.8953 187.547 27.25 187.691 27.541C187.838 27.8296 188.041 28.0497 188.301 28.2012C188.561 28.3503 188.862 28.4249 189.206 28.4249C189.43 28.4249 189.632 28.3936 189.812 28.3311C189.995 28.2661 190.153 28.1699 190.285 28.0425C190.417 27.9126 190.52 27.7515 190.592 27.5591L191.414 27.79C191.328 28.0689 191.182 28.3142 190.978 28.5259C190.773 28.7351 190.521 28.8987 190.22 29.0165C189.919 29.1319 189.582 29.1897 189.206 29.1897Z" fill="black"/>
<path d="M207.936 23.0527H204.639H201.671C201.163 23.0527 200.909 23.6665 201.269 24.0263L204.01 26.767C204.449 27.2062 205.163 27.2062 205.602 26.767L206.645 25.7247L208.343 24.0263C208.697 23.6665 208.443 23.0527 207.936 23.0527Z" fill="#3D4754"/>
</g>
<g filter="url(#filter3_d_512_15799)">
<path d="M236.549 21.2642C236.549 15.6537 241.098 11.1055 246.708 11.1055H332.914C338.525 11.1055 343.073 15.6537 343.073 21.2642V28.8832C343.073 34.4937 338.525 39.0419 332.914 39.0419H246.708C241.098 39.0419 236.549 34.4937 236.549 28.8832V21.2642Z" fill="white" shape-rendering="crispEdges"/>
<path d="M237.184 21.2642C237.184 16.0043 241.448 11.7404 246.708 11.7404H332.914C338.174 11.7404 342.438 16.0043 342.438 21.2642V28.8832C342.438 34.143 338.174 38.407 332.914 38.407H246.708C241.448 38.407 237.184 34.143 237.184 28.8832V21.2642Z" stroke="black" stroke-width="1.26984" shape-rendering="crispEdges"/>
<path d="M255.015 29.0742H252.735V21.6861H255.116C255.832 21.6861 256.446 21.834 256.955 22.1298C257.465 22.4232 257.856 22.8453 258.128 23.396C258.4 23.9444 258.536 24.6009 258.536 25.3657C258.536 26.1353 258.398 26.7979 258.124 27.3534C257.85 27.9066 257.451 28.3323 256.927 28.6305C256.402 28.9263 255.765 29.0742 255.015 29.0742ZM253.629 28.2806H254.957C255.568 28.2806 256.074 28.1627 256.476 27.927C256.877 27.6913 257.177 27.3559 257.374 26.9205C257.571 26.4852 257.67 25.967 257.67 25.3657C257.67 24.7693 257.572 24.2558 257.378 23.8253C257.183 23.3924 256.892 23.0605 256.505 22.8297C256.117 22.5964 255.635 22.4797 255.058 22.4797H253.629V28.2806ZM262.244 29.1897C261.71 29.1897 261.25 29.0718 260.862 28.8361C260.478 28.598 260.181 28.2661 259.971 27.8405C259.764 27.4124 259.661 26.9145 259.661 26.347C259.661 25.7794 259.764 25.2791 259.971 24.8462C260.181 24.4109 260.472 24.0718 260.844 23.8289C261.22 23.5836 261.657 23.461 262.157 23.461C262.446 23.461 262.731 23.5091 263.012 23.6053C263.294 23.7015 263.55 23.8578 263.781 24.0742C264.012 24.2883 264.196 24.5721 264.333 24.9256C264.47 25.2791 264.538 25.7144 264.538 26.2315V26.5923H260.267V25.8563H263.673C263.673 25.5437 263.61 25.2647 263.485 25.0194C263.362 24.7741 263.187 24.5805 262.958 24.4386C262.732 24.2967 262.465 24.2258 262.157 24.2258C261.818 24.2258 261.525 24.3099 261.277 24.4783C261.032 24.6442 260.843 24.8607 260.711 25.1276C260.579 25.3946 260.512 25.6808 260.512 25.9862V26.4768C260.512 26.8953 260.585 27.25 260.729 27.541C260.876 27.8296 261.079 28.0497 261.339 28.2012C261.598 28.3503 261.9 28.4249 262.244 28.4249C262.468 28.4249 262.67 28.3936 262.85 28.3311C263.033 28.2661 263.19 28.1699 263.323 28.0425C263.455 27.9126 263.557 27.7515 263.629 27.5591L264.452 27.79C264.365 28.0689 264.22 28.3142 264.015 28.5259C263.811 28.7351 263.558 28.8987 263.258 29.0165C262.957 29.1319 262.619 29.1897 262.244 29.1897ZM269.758 24.7741L268.994 24.9905C268.946 24.8631 268.875 24.7392 268.781 24.619C268.689 24.4963 268.564 24.3953 268.406 24.3159C268.247 24.2366 268.044 24.1969 267.796 24.1969C267.457 24.1969 267.174 24.2751 266.948 24.4314C266.725 24.5853 266.613 24.7813 266.613 25.0194C266.613 25.231 266.69 25.3982 266.844 25.5208C266.998 25.6435 267.238 25.7457 267.565 25.8275L268.388 26.0295C268.883 26.1497 269.252 26.3337 269.495 26.5814C269.738 26.8268 269.859 27.143 269.859 27.5302C269.859 27.8477 269.768 28.1315 269.585 28.3816C269.405 28.6317 269.152 28.8289 268.828 28.9732C268.503 29.1175 268.125 29.1897 267.695 29.1897C267.13 29.1897 266.662 29.067 266.292 28.8217C265.921 28.5764 265.687 28.218 265.588 27.7467L266.396 27.5446C266.473 27.8429 266.619 28.0665 266.833 28.2156C267.049 28.3647 267.332 28.4393 267.681 28.4393C268.077 28.4393 268.392 28.3551 268.626 28.1868C268.861 28.016 268.979 27.8116 268.979 27.5735C268.979 27.3811 268.912 27.22 268.777 27.0901C268.643 26.9578 268.436 26.8592 268.157 26.7943L267.233 26.5778C266.726 26.4576 266.353 26.2712 266.115 26.0187C265.879 25.7637 265.761 25.4451 265.761 25.0627C265.761 24.75 265.849 24.4735 266.025 24.233C266.203 23.9925 266.444 23.8037 266.75 23.6666C267.058 23.5295 267.406 23.461 267.796 23.461C268.344 23.461 268.775 23.5812 269.087 23.8217C269.403 24.0622 269.626 24.3797 269.758 24.7741ZM271.141 29.0742V23.5331H271.992V29.0742H271.141ZM271.574 22.6096C271.408 22.6096 271.265 22.5531 271.145 22.44C271.027 22.327 270.968 22.1911 270.968 22.0324C270.968 21.8737 271.027 21.7378 271.145 21.6248C271.265 21.5117 271.408 21.4552 271.574 21.4552C271.74 21.4552 271.882 21.5117 272 21.6248C272.12 21.7378 272.18 21.8737 272.18 22.0324C272.18 22.1911 272.12 22.327 272 22.44C271.882 22.5531 271.74 22.6096 271.574 22.6096ZM275.788 31.2676C275.377 31.2676 275.024 31.2147 274.728 31.1088C274.432 31.0054 274.185 30.8683 273.988 30.6976C273.793 30.5292 273.638 30.3489 273.523 30.1565L274.201 29.6803C274.278 29.7813 274.375 29.8967 274.493 30.0266C274.611 30.1589 274.772 30.2731 274.977 30.3693C275.184 30.4679 275.454 30.5172 275.788 30.5172C276.236 30.5172 276.605 30.409 276.896 30.1925C277.187 29.9761 277.332 29.637 277.332 29.1752V28.0497H277.26C277.198 28.1507 277.109 28.2758 276.993 28.4249C276.88 28.5716 276.717 28.7026 276.503 28.8181C276.291 28.9311 276.005 28.9876 275.644 28.9876C275.197 28.9876 274.795 28.8818 274.439 28.6702C274.086 28.4585 273.805 28.1507 273.599 27.7467C273.394 27.3426 273.292 26.852 273.292 26.2748C273.292 25.7072 273.392 25.213 273.591 24.7921C273.791 24.3688 274.069 24.0418 274.425 23.8109C274.781 23.5776 275.192 23.461 275.658 23.461C276.019 23.461 276.305 23.5211 276.517 23.6413C276.731 23.7592 276.895 23.8939 277.008 24.0454C277.123 24.1945 277.212 24.3171 277.275 24.4133H277.361V23.5331H278.184V29.2329C278.184 29.7091 278.076 30.0963 277.859 30.3946C277.645 30.6952 277.356 30.9152 276.993 31.0547C276.633 31.1966 276.231 31.2676 275.788 31.2676ZM275.76 28.2229C276.101 28.2229 276.39 28.1447 276.625 27.9884C276.861 27.832 277.04 27.6072 277.163 27.3138C277.285 27.0204 277.347 26.6692 277.347 26.2604C277.347 25.8611 277.287 25.5088 277.166 25.2034C277.046 24.8979 276.868 24.6587 276.633 24.4855C276.397 24.3123 276.106 24.2258 275.76 24.2258C275.399 24.2258 275.098 24.3171 274.858 24.4999C274.62 24.6827 274.44 24.928 274.32 25.2358C274.202 25.5437 274.143 25.8852 274.143 26.2604C274.143 26.6452 274.203 26.9855 274.324 27.2813C274.446 27.5747 274.627 27.8056 274.865 27.9739C275.105 28.1399 275.404 28.2229 275.76 28.2229ZM280.594 25.7409V29.0742H279.742V23.5331H280.565V24.3989H280.637C280.767 24.1175 280.964 23.8915 281.228 23.7207C281.493 23.5475 281.835 23.461 282.253 23.461C282.628 23.461 282.956 23.5379 283.238 23.6918C283.519 23.8434 283.738 24.0742 283.894 24.3845C284.051 24.6923 284.129 25.0819 284.129 25.5533V29.0742H283.278V25.611C283.278 25.1757 283.164 24.8366 282.938 24.5937C282.712 24.3484 282.402 24.2258 282.008 24.2258C281.736 24.2258 281.493 24.2847 281.279 24.4025C281.067 24.5204 280.9 24.6923 280.778 24.9184C280.655 25.1445 280.594 25.4186 280.594 25.7409ZM287.315 29.2041C286.964 29.2041 286.645 29.138 286.359 29.0057C286.073 28.871 285.846 28.6774 285.677 28.4249C285.509 28.1699 285.425 27.8621 285.425 27.5014C285.425 27.1839 285.487 26.9266 285.612 26.7294C285.738 26.5297 285.905 26.3734 286.114 26.2604C286.323 26.1473 286.554 26.0632 286.807 26.0079C287.061 25.9501 287.318 25.9044 287.575 25.8708C287.912 25.8275 288.185 25.795 288.394 25.7734C288.605 25.7493 288.759 25.7096 288.856 25.6543C288.954 25.599 289.004 25.5028 289.004 25.3657V25.3369C289.004 24.9809 288.906 24.7043 288.711 24.5071C288.519 24.3099 288.227 24.2113 287.835 24.2113C287.428 24.2113 287.11 24.3003 286.879 24.4783C286.648 24.6562 286.485 24.8462 286.392 25.0483L285.584 24.7597C285.728 24.423 285.92 24.1608 286.161 23.9732C286.404 23.7832 286.668 23.651 286.954 23.5764C287.243 23.4994 287.527 23.461 287.806 23.461C287.984 23.461 288.188 23.4826 288.419 23.5259C288.652 23.5668 288.877 23.6522 289.094 23.782C289.313 23.9119 289.494 24.1079 289.638 24.3701C289.783 24.6322 289.855 24.9833 289.855 25.4234V29.0742H289.004V28.3239H288.96C288.902 28.4441 288.806 28.5728 288.672 28.7099C288.537 28.8469 288.358 28.9636 288.134 29.0598C287.91 29.156 287.637 29.2041 287.315 29.2041ZM287.445 28.4393C287.782 28.4393 288.066 28.3732 288.296 28.2409C288.53 28.1086 288.705 27.9379 288.823 27.7286C288.943 27.5194 289.004 27.2993 289.004 27.0685V26.2892C288.967 26.3325 288.888 26.3722 288.765 26.4083C288.645 26.442 288.506 26.472 288.347 26.4985C288.191 26.5225 288.038 26.5442 287.889 26.5634C287.742 26.5802 287.623 26.5947 287.532 26.6067C287.31 26.6356 287.104 26.6825 286.911 26.7474C286.721 26.8099 286.567 26.9049 286.449 27.0324C286.334 27.1574 286.276 27.3282 286.276 27.5446C286.276 27.8405 286.386 28.0641 286.605 28.2156C286.826 28.3647 287.106 28.4393 287.445 28.4393ZM293.819 23.5331V24.2546H290.947V23.5331H293.819ZM291.784 22.2056H292.635V27.4869C292.635 27.7274 292.67 27.9078 292.74 28.028C292.812 28.1459 292.903 28.2253 293.014 28.2661C293.127 28.3046 293.246 28.3239 293.371 28.3239C293.465 28.3239 293.542 28.3191 293.602 28.3094C293.662 28.2974 293.71 28.2878 293.746 28.2806L293.92 29.0454C293.862 29.067 293.781 29.0886 293.678 29.1103C293.574 29.1343 293.443 29.1464 293.285 29.1464C293.044 29.1464 292.809 29.0947 292.578 28.9912C292.349 28.8878 292.159 28.7303 292.008 28.5187C291.859 28.307 291.784 28.0401 291.784 27.7178V22.2056ZM295.099 29.0742V23.5331H295.951V29.0742H295.099ZM295.532 22.6096C295.366 22.6096 295.223 22.5531 295.103 22.44C294.985 22.327 294.926 22.1911 294.926 22.0324C294.926 21.8737 294.985 21.7378 295.103 21.6248C295.223 21.5117 295.366 21.4552 295.532 21.4552C295.698 21.4552 295.84 21.5117 295.958 21.6248C296.078 21.7378 296.138 21.8737 296.138 22.0324C296.138 22.1911 296.078 22.327 295.958 22.44C295.84 22.5531 295.698 22.6096 295.532 22.6096ZM299.761 29.1897C299.261 29.1897 298.822 29.0706 298.444 28.8325C298.069 28.5944 297.776 28.2613 297.564 27.8332C297.355 27.4052 297.25 26.9049 297.25 26.3325C297.25 25.7553 297.355 25.2515 297.564 24.821C297.776 24.3905 298.069 24.0562 298.444 23.8181C298.822 23.58 299.261 23.461 299.761 23.461C300.261 23.461 300.699 23.58 301.074 23.8181C301.452 24.0562 301.745 24.3905 301.954 24.821C302.166 25.2515 302.272 25.7553 302.272 26.3325C302.272 26.9049 302.166 27.4052 301.954 27.8332C301.745 28.2613 301.452 28.5944 301.074 28.8325C300.699 29.0706 300.261 29.1897 299.761 29.1897ZM299.761 28.4249C300.141 28.4249 300.454 28.3275 300.699 28.1327C300.944 27.9379 301.126 27.6817 301.244 27.3643C301.362 27.0468 301.42 26.7029 301.42 26.3325C301.42 25.9622 301.362 25.617 301.244 25.2972C301.126 24.9773 300.944 24.7188 300.699 24.5216C300.454 24.3244 300.141 24.2258 299.761 24.2258C299.381 24.2258 299.068 24.3244 298.823 24.5216C298.578 24.7188 298.396 24.9773 298.278 25.2972C298.161 25.617 298.102 25.9622 298.102 26.3325C298.102 26.7029 298.161 27.0468 298.278 27.3643C298.396 27.6817 298.578 27.9379 298.823 28.1327C299.068 28.3275 299.381 28.4249 299.761 28.4249ZM304.423 25.7409V29.0742H303.571V23.5331H304.394V24.3989H304.466C304.596 24.1175 304.793 23.8915 305.058 23.7207C305.322 23.5475 305.664 23.461 306.082 23.461C306.457 23.461 306.786 23.5379 307.067 23.6918C307.348 23.8434 307.567 24.0742 307.724 24.3845C307.88 24.6923 307.958 25.0819 307.958 25.5533V29.0742H307.107V25.611C307.107 25.1757 306.994 24.8366 306.768 24.5937C306.542 24.3484 306.231 24.2258 305.837 24.2258C305.565 24.2258 305.322 24.2847 305.108 24.4025C304.897 24.5204 304.729 24.6923 304.607 24.9184C304.484 25.1445 304.423 25.4186 304.423 25.7409Z" fill="black"/>
<path d="M324.618 23.0527H321.322H318.353C317.845 23.0527 317.591 23.6665 317.951 24.0263L320.692 26.767C321.131 27.2062 321.845 27.2062 322.285 26.767L323.327 25.7247L325.025 24.0263C325.38 23.6665 325.126 23.0527 324.618 23.0527Z" fill="#3D4754"/>
</g>
</g>
<g clip-path="url(#clip1_512_15799)">
<path d="M94.3281 79.5499H90.3358L89.6958 81.4395H86.9682L90.8386 70.7424H93.8558L97.7262 81.4395H94.9681L94.3281 79.5499ZM93.6577 77.5385L92.332 73.6223L91.0215 77.5385H93.6577ZM101.51 70.1633V81.4395H98.9042V70.1633H101.51ZM111.413 77.0509C111.413 77.2947 111.398 77.5487 111.368 77.8128H105.471C105.511 78.3411 105.679 78.7474 105.973 79.0318C106.278 79.3061 106.649 79.4433 107.086 79.4433C107.736 79.4433 108.188 79.169 108.442 78.6204H111.215C111.073 79.1791 110.814 79.682 110.438 80.129C110.072 80.576 109.61 80.9264 109.052 81.1804C108.493 81.4344 107.868 81.5614 107.177 81.5614C106.344 81.5614 105.603 81.3836 104.953 81.028C104.302 80.6725 103.794 80.1645 103.429 79.5042C103.063 78.8439 102.88 78.0718 102.88 77.188C102.88 76.3042 103.058 75.5322 103.413 74.8719C103.779 74.2115 104.287 73.7036 104.937 73.3481C105.587 72.9925 106.334 72.8147 107.177 72.8147C108 72.8147 108.732 72.9874 109.372 73.3328C110.012 73.6782 110.509 74.1709 110.865 74.8109C111.231 75.4509 111.413 76.1976 111.413 77.0509ZM108.747 76.3652C108.747 75.9182 108.594 75.5626 108.29 75.2985C107.985 75.0344 107.604 74.9023 107.147 74.9023C106.71 74.9023 106.339 75.0293 106.034 75.2833C105.74 75.5373 105.557 75.8979 105.486 76.3652H108.747ZM115.394 74.3538C115.699 73.8865 116.079 73.5208 116.537 73.2566C116.994 72.9823 117.502 72.8452 118.06 72.8452V75.6033H117.344C116.694 75.6033 116.206 75.7455 115.881 76.0299C115.556 76.3042 115.394 76.7919 115.394 77.4928V81.4395H112.788V72.9366H115.394V74.3538ZM124.045 79.2299V81.4395H122.719C121.774 81.4395 121.038 81.2109 120.51 80.7537C119.981 80.2864 119.717 79.5296 119.717 78.4833V75.1004H118.681V72.9366H119.717V70.8643H122.323V72.9366H124.03V75.1004H122.323V78.5137C122.323 78.7677 122.384 78.9506 122.506 79.0623C122.628 79.1741 122.831 79.2299 123.115 79.2299H124.045ZM128.955 81.5614C128.214 81.5614 127.553 81.4344 126.974 81.1804C126.395 80.9264 125.938 80.581 125.603 80.1442C125.268 79.6972 125.08 79.1995 125.039 78.6509H127.614C127.645 78.9455 127.782 79.1842 128.026 79.3671C128.27 79.5499 128.569 79.6414 128.925 79.6414C129.25 79.6414 129.499 79.5804 129.672 79.4585C129.854 79.3264 129.946 79.1588 129.946 78.9557C129.946 78.7118 129.819 78.5341 129.565 78.4223C129.311 78.3004 128.9 78.1684 128.331 78.0261C127.721 77.8839 127.213 77.7366 126.807 77.5842C126.4 77.4217 126.05 77.1728 125.755 76.8376C125.461 76.4922 125.314 76.0299 125.314 75.4509C125.314 74.9633 125.446 74.5214 125.71 74.1252C125.984 73.7188 126.38 73.3988 126.898 73.1652C127.427 72.9315 128.051 72.8147 128.773 72.8147C129.839 72.8147 130.677 73.0788 131.287 73.6071C131.906 74.1354 132.262 74.8363 132.353 75.71H129.946C129.905 75.4153 129.773 75.1817 129.55 75.009C129.336 74.8363 129.052 74.75 128.696 74.75C128.392 74.75 128.158 74.8109 127.995 74.9328C127.833 75.0446 127.752 75.202 127.752 75.4052C127.752 75.649 127.879 75.8319 128.133 75.9538C128.397 76.0757 128.803 76.1976 129.352 76.3195C129.981 76.482 130.494 76.6446 130.891 76.8071C131.287 76.9595 131.632 77.2134 131.927 77.569C132.232 77.9144 132.389 78.3817 132.399 78.9709C132.399 79.4687 132.257 79.9156 131.973 80.3118C131.698 80.6979 131.297 81.0026 130.769 81.2261C130.251 81.4496 129.646 81.5614 128.955 81.5614ZM139.425 83.5652C138.678 82.849 138.103 81.9385 137.699 80.8337C137.303 79.729 137.105 78.5442 137.105 77.2795C137.105 75.9842 137.318 74.7614 137.745 73.6109C138.179 72.4604 138.815 71.5119 139.653 70.7652H141.002V70.8909C140.126 71.6985 139.467 72.6662 139.025 73.7938C138.583 74.9214 138.362 76.0833 138.362 77.2795C138.362 78.4299 138.567 79.5423 138.979 80.6166C139.39 81.6909 139.988 82.6318 140.773 83.4394V83.5652H139.425ZM141.827 74.2966V73.1081H144.204V81.4395H142.89V74.2966H141.827ZM146.714 79.668C147.445 79.0357 148.02 78.5176 148.439 78.1138C148.866 77.7023 149.22 77.2757 149.502 76.8338C149.784 76.3919 149.925 75.95 149.925 75.508C149.925 75.0509 149.815 74.6928 149.594 74.4338C149.38 74.1747 149.041 74.0452 148.577 74.0452C148.127 74.0452 147.777 74.19 147.525 74.4795C147.281 74.7614 147.152 75.1423 147.137 75.6223H145.879C145.902 74.7538 146.161 74.0909 146.657 73.6338C147.159 73.169 147.796 72.9366 148.565 72.9366C149.396 72.9366 150.043 73.1652 150.508 73.6223C150.98 74.0795 151.217 74.689 151.217 75.4509C151.217 75.9995 151.076 76.529 150.794 77.0395C150.519 77.5423 150.188 77.9957 149.799 78.3995C149.418 78.7957 148.931 79.2566 148.337 79.7823L147.822 80.2395H151.445V81.3252H145.891V80.3766L146.714 79.668ZM152.567 75.1652C152.612 74.4566 152.883 73.9042 153.378 73.5081C153.881 73.1119 154.521 72.9138 155.298 72.9138C155.832 72.9138 156.292 73.009 156.681 73.1995C157.07 73.39 157.363 73.649 157.561 73.9766C157.759 74.3042 157.858 74.6738 157.858 75.0852C157.858 75.5576 157.732 75.9614 157.481 76.2966C157.23 76.6319 156.929 76.8566 156.578 76.9709V77.0166C157.028 77.1538 157.378 77.4052 157.63 77.7709C157.881 78.129 158.007 78.5899 158.007 79.1537C158.007 79.6033 157.904 80.0033 157.698 80.3537C157.492 80.7042 157.188 80.9823 156.784 81.188C156.38 81.3861 155.896 81.4852 155.332 81.4852C154.51 81.4852 153.832 81.2756 153.298 80.8566C152.772 80.4299 152.491 79.8204 152.452 79.028H153.71C153.74 79.4318 153.896 79.7633 154.178 80.0223C154.46 80.2737 154.841 80.3995 155.321 80.3995C155.786 80.3995 156.144 80.2737 156.395 80.0223C156.647 79.7633 156.772 79.4318 156.772 79.028C156.772 78.4947 156.601 78.1176 156.258 77.8966C155.923 77.668 155.405 77.5538 154.704 77.5538H154.407V76.4795H154.715C155.332 76.4719 155.801 76.369 156.121 76.1709C156.449 75.9728 156.612 75.6604 156.612 75.2338C156.612 74.868 156.494 74.5785 156.258 74.3652C156.022 74.1442 155.687 74.0338 155.252 74.0338C154.826 74.0338 154.494 74.1442 154.258 74.3652C154.022 74.5785 153.881 74.8452 153.835 75.1652H152.567ZM159.227 83.5652V83.4394C160.012 82.6318 160.61 81.6909 161.021 80.6166C161.432 79.5423 161.638 78.4299 161.638 77.2795C161.638 76.0833 161.417 74.9214 160.975 73.7938C160.533 72.6662 159.874 71.6985 158.998 70.8909V70.7652H160.347C161.185 71.5119 161.817 72.4604 162.244 73.6109C162.678 74.7614 162.895 75.9842 162.895 77.2795C162.895 78.5442 162.693 79.729 162.29 80.8337C161.893 81.9385 161.322 82.849 160.575 83.5652H159.227Z" fill="#28293D"/>
<path d="M87.1996 105.217C87.1996 104.077 88.1239 103.153 89.264 103.153H371.168C372.308 103.153 373.232 104.077 373.232 105.217V164.65C373.232 165.791 372.308 166.715 371.168 166.715H89.264C88.1239 166.715 87.1996 165.791 87.1996 164.65V105.217Z" fill="white"/>
<path d="M87.1996 105.217C87.1996 104.077 88.1239 103.153 89.264 103.153H371.168C372.308 103.153 373.232 104.077 373.232 105.217V164.65C373.232 165.791 372.308 166.715 371.168 166.715H89.264C88.1239 166.715 87.1996 165.791 87.1996 164.65V105.217Z" stroke="#E8E8E8" stroke-width="0.95046"/>
<rect x="100.428" y="112.725" width="25.7579" height="25.7579" rx="2.13757" stroke="#3A2A2A" stroke-width="0.599022"/>
<path d="M111.394 119.236H105.953V132.195L111.394 119.236Z" fill="#FF0000"/>
<path d="M115.222 119.236H120.656V132.195L115.222 119.236Z" fill="#FF0000"/>
<path d="M113.308 124.012L116.771 132.194H114.499L113.464 129.589H110.93L113.308 124.012Z" fill="#FF0000"/>
<path d="M141.87 124.426V115.537H145.044C145.527 115.537 145.963 115.658 146.352 115.899C146.746 116.14 147.057 116.464 147.285 116.87C147.514 117.277 147.628 117.723 147.628 118.21C147.628 118.709 147.51 119.162 147.273 119.569C147.04 119.971 146.727 120.292 146.333 120.534C145.939 120.771 145.51 120.889 145.044 120.889H143.419V124.426H141.87ZM143.419 119.34H144.879C145.099 119.34 145.3 119.285 145.482 119.175C145.664 119.065 145.808 118.917 145.914 118.731C146.024 118.544 146.079 118.337 146.079 118.108C146.079 117.876 146.024 117.666 145.914 117.48C145.808 117.294 145.664 117.145 145.482 117.035C145.3 116.925 145.099 116.87 144.879 116.87H143.419V119.34ZM148.802 124.426L148.795 118.077H150.344L150.351 118.642C150.567 118.413 150.825 118.233 151.125 118.102C151.426 117.967 151.75 117.899 152.097 117.899C152.33 117.899 152.562 117.933 152.795 118L152.186 119.562C152.025 119.499 151.864 119.467 151.703 119.467C151.453 119.467 151.225 119.528 151.017 119.651C150.814 119.77 150.651 119.933 150.529 120.14C150.41 120.343 150.351 120.57 150.351 120.819V124.426H148.802ZM156.183 124.591C155.599 124.591 155.066 124.441 154.583 124.14C154.105 123.84 153.722 123.437 153.434 122.934C153.151 122.426 153.009 121.865 153.009 121.251C153.009 120.786 153.091 120.352 153.256 119.95C153.421 119.543 153.648 119.188 153.936 118.883C154.228 118.574 154.566 118.333 154.952 118.159C155.337 117.986 155.747 117.899 156.183 117.899C156.767 117.899 157.299 118.049 157.777 118.35C158.259 118.65 158.643 119.054 158.926 119.562C159.214 120.07 159.358 120.633 159.358 121.251C159.358 121.713 159.275 122.144 159.11 122.546C158.945 122.949 158.717 123.304 158.425 123.613C158.137 123.918 157.8 124.157 157.415 124.331C157.034 124.504 156.624 124.591 156.183 124.591ZM156.183 123.042C156.492 123.042 156.77 122.959 157.015 122.794C157.261 122.629 157.453 122.411 157.593 122.14C157.737 121.869 157.809 121.573 157.809 121.251C157.809 120.921 157.735 120.621 157.586 120.35C157.443 120.074 157.246 119.856 156.996 119.696C156.75 119.531 156.48 119.448 156.183 119.448C155.879 119.448 155.603 119.531 155.358 119.696C155.112 119.861 154.918 120.081 154.774 120.356C154.63 120.631 154.558 120.929 154.558 121.251C154.558 121.586 154.632 121.888 154.78 122.159C154.928 122.43 155.125 122.646 155.371 122.807C155.62 122.963 155.891 123.042 156.183 123.042ZM165.351 114.902H166.9V124.426H165.351V123.632C165.148 123.916 164.892 124.146 164.583 124.324C164.274 124.502 163.916 124.591 163.51 124.591C163.048 124.591 162.617 124.504 162.214 124.331C161.812 124.157 161.457 123.918 161.148 123.613C160.843 123.304 160.604 122.949 160.43 122.546C160.257 122.144 160.17 121.713 160.17 121.251C160.17 120.79 160.257 120.358 160.43 119.956C160.604 119.554 160.843 119.2 161.148 118.896C161.457 118.587 161.812 118.345 162.214 118.172C162.617 117.998 163.048 117.912 163.51 117.912C163.916 117.912 164.274 118 164.583 118.178C164.892 118.352 165.148 118.582 165.351 118.87V114.902ZM163.529 123.099C163.859 123.099 164.151 123.016 164.405 122.851C164.659 122.686 164.858 122.464 165.002 122.185C165.146 121.901 165.218 121.59 165.218 121.251C165.218 120.908 165.146 120.597 165.002 120.318C164.858 120.034 164.657 119.81 164.399 119.645C164.145 119.48 163.855 119.397 163.529 119.397C163.203 119.397 162.904 119.482 162.634 119.651C162.367 119.816 162.153 120.038 161.992 120.318C161.836 120.597 161.757 120.908 161.757 121.251C161.757 121.594 161.838 121.905 161.999 122.185C162.159 122.464 162.373 122.686 162.64 122.851C162.911 123.016 163.207 123.099 163.529 123.099ZM168.351 122.077V118.077H169.9V121.67C169.9 121.92 169.962 122.149 170.085 122.356C170.207 122.559 170.37 122.722 170.573 122.845C170.781 122.963 171.007 123.023 171.253 123.023C171.507 123.023 171.735 122.963 171.938 122.845C172.142 122.722 172.305 122.559 172.427 122.356C172.55 122.149 172.611 121.92 172.611 121.67V118.077H174.161L174.167 124.426H172.618L172.611 123.848C172.391 124.077 172.131 124.259 171.831 124.394C171.53 124.525 171.208 124.591 170.865 124.591C170.404 124.591 169.983 124.479 169.602 124.254C169.221 124.026 168.916 123.723 168.688 123.346C168.463 122.965 168.351 122.542 168.351 122.077ZM179.455 122.515L180.852 123.27C180.56 123.668 180.194 123.988 179.753 124.229C179.313 124.47 178.833 124.591 178.312 124.591C177.728 124.591 177.195 124.441 176.712 124.14C176.234 123.84 175.851 123.437 175.563 122.934C175.279 122.426 175.138 121.865 175.138 121.251C175.138 120.786 175.22 120.352 175.385 119.95C175.55 119.543 175.777 119.188 176.065 118.883C176.357 118.574 176.695 118.333 177.08 118.159C177.466 117.986 177.876 117.899 178.312 117.899C178.833 117.899 179.313 118.019 179.753 118.261C180.194 118.502 180.56 118.826 180.852 119.232L179.455 119.981C179.307 119.812 179.131 119.681 178.928 119.588C178.729 119.495 178.524 119.448 178.312 119.448C178.007 119.448 177.732 119.533 177.487 119.702C177.241 119.867 177.047 120.087 176.903 120.362C176.759 120.633 176.687 120.929 176.687 121.251C176.687 121.569 176.759 121.865 176.903 122.14C177.047 122.411 177.241 122.629 177.487 122.794C177.732 122.959 178.007 123.042 178.312 123.042C178.532 123.042 178.742 122.995 178.941 122.902C179.14 122.805 179.311 122.676 179.455 122.515ZM185.575 119.626H184.343V124.426H182.794V119.626H181.854V118.077H182.794V116.083H184.343V118.077H185.575V119.626ZM190.132 124.426L191.859 115.537H193.142L195.307 121.232L197.472 115.537H198.755L200.482 124.426H198.901L197.834 118.927L195.834 124.223H194.774L192.774 118.927L191.713 124.426H190.132ZM206.297 118.077H207.847V124.426H206.297L206.227 123.638C206.054 123.922 205.823 124.153 205.535 124.331C205.252 124.504 204.915 124.591 204.526 124.591C204.056 124.591 203.616 124.502 203.205 124.324C202.795 124.146 202.433 123.901 202.12 123.588C201.811 123.274 201.567 122.913 201.389 122.502C201.216 122.091 201.129 121.651 201.129 121.181C201.129 120.728 201.212 120.303 201.377 119.905C201.546 119.507 201.781 119.158 202.081 118.858C202.382 118.557 202.729 118.322 203.123 118.153C203.516 117.983 203.94 117.899 204.393 117.899C204.812 117.899 205.186 117.992 205.516 118.178C205.851 118.364 206.134 118.601 206.367 118.889L206.297 118.077ZM204.488 123.099C204.818 123.099 205.11 123.016 205.364 122.851C205.618 122.686 205.817 122.464 205.961 122.185C206.105 121.901 206.177 121.59 206.177 121.251C206.177 120.908 206.105 120.597 205.961 120.318C205.817 120.034 205.616 119.81 205.358 119.645C205.104 119.48 204.814 119.397 204.488 119.397C204.162 119.397 203.863 119.482 203.593 119.651C203.326 119.816 203.112 120.038 202.951 120.318C202.795 120.597 202.716 120.908 202.716 121.251C202.716 121.594 202.797 121.905 202.958 122.185C203.118 122.464 203.332 122.686 203.599 122.851C203.87 123.016 204.166 123.099 204.488 123.099ZM215.107 120.413V124.426H213.558V120.819C213.558 120.57 213.497 120.343 213.374 120.14C213.251 119.933 213.086 119.77 212.879 119.651C212.675 119.528 212.449 119.467 212.199 119.467C211.95 119.467 211.721 119.528 211.514 119.651C211.31 119.77 211.147 119.933 211.025 120.14C210.906 120.343 210.847 120.57 210.847 120.819V124.426H209.298L209.291 118.077H210.841L210.847 118.642C211.063 118.413 211.321 118.233 211.622 118.102C211.922 117.967 212.246 117.899 212.593 117.899C213.054 117.899 213.475 118.013 213.856 118.242C214.237 118.466 214.54 118.769 214.764 119.15C214.993 119.526 215.107 119.947 215.107 120.413ZM221.215 118.077H222.764V124.426H221.215L221.145 123.638C220.972 123.922 220.741 124.153 220.453 124.331C220.17 124.504 219.833 124.591 219.444 124.591C218.974 124.591 218.534 124.502 218.123 124.324C217.713 124.146 217.351 123.901 217.037 123.588C216.728 123.274 216.485 122.913 216.307 122.502C216.134 122.091 216.047 121.651 216.047 121.181C216.047 120.728 216.129 120.303 216.295 119.905C216.464 119.507 216.699 119.158 216.999 118.858C217.3 118.557 217.647 118.322 218.041 118.153C218.434 117.983 218.858 117.899 219.31 117.899C219.729 117.899 220.104 117.992 220.434 118.178C220.769 118.364 221.052 118.601 221.285 118.889L221.215 118.077ZM219.406 123.099C219.736 123.099 220.028 123.016 220.282 122.851C220.536 122.686 220.735 122.464 220.879 122.185C221.023 121.901 221.095 121.59 221.095 121.251C221.095 120.908 221.023 120.597 220.879 120.318C220.735 120.034 220.534 119.81 220.276 119.645C220.022 119.48 219.732 119.397 219.406 119.397C219.08 119.397 218.781 119.482 218.51 119.651C218.244 119.816 218.03 120.038 217.869 120.318C217.713 120.597 217.634 120.908 217.634 121.251C217.634 121.594 217.715 121.905 217.876 122.185C218.036 122.464 218.25 122.686 218.517 122.851C218.788 123.016 219.084 123.099 219.406 123.099ZM228.796 118.077H230.346V124.546C230.346 125.004 230.252 125.418 230.066 125.791C229.88 126.168 229.626 126.489 229.304 126.756C228.983 127.027 228.614 127.234 228.2 127.378C227.785 127.526 227.349 127.6 226.892 127.6C226.447 127.6 226.02 127.509 225.609 127.327C225.198 127.145 224.834 126.896 224.517 126.578C224.204 126.265 223.965 125.907 223.8 125.505L225.215 124.864C225.3 125.097 225.427 125.3 225.596 125.473C225.77 125.651 225.969 125.789 226.193 125.886C226.418 125.988 226.65 126.038 226.892 126.038C227.137 126.038 227.372 126.005 227.596 125.937C227.825 125.869 228.03 125.77 228.212 125.638C228.394 125.511 228.536 125.355 228.638 125.169C228.743 124.987 228.796 124.779 228.796 124.546V123.651C228.597 123.931 228.348 124.157 228.047 124.331C227.747 124.504 227.4 124.591 227.006 124.591C226.549 124.591 226.121 124.504 225.723 124.331C225.325 124.157 224.974 123.918 224.669 123.613C224.369 123.304 224.132 122.949 223.958 122.546C223.789 122.144 223.704 121.713 223.704 121.251C223.704 120.79 223.789 120.358 223.958 119.956C224.132 119.554 224.369 119.2 224.669 118.896C224.974 118.587 225.325 118.345 225.723 118.172C226.121 117.998 226.549 117.912 227.006 117.912C227.4 117.912 227.747 117.998 228.047 118.172C228.348 118.341 228.597 118.565 228.796 118.845V118.077ZM227.025 123.099C227.351 123.099 227.639 123.016 227.888 122.851C228.142 122.682 228.341 122.458 228.485 122.178C228.629 121.895 228.701 121.586 228.701 121.251C228.701 120.913 228.627 120.604 228.479 120.324C228.335 120.045 228.136 119.821 227.882 119.651C227.632 119.482 227.347 119.397 227.025 119.397C226.707 119.397 226.418 119.482 226.155 119.651C225.893 119.816 225.683 120.038 225.527 120.318C225.37 120.597 225.292 120.908 225.292 121.251C225.292 121.594 225.37 121.905 225.527 122.185C225.683 122.464 225.893 122.686 226.155 122.851C226.418 123.016 226.707 123.099 227.025 123.099ZM234.697 124.591C234.113 124.591 233.58 124.441 233.097 124.14C232.619 123.84 232.236 123.435 231.948 122.927C231.665 122.419 231.523 121.859 231.523 121.245C231.523 120.783 231.605 120.352 231.77 119.95C231.936 119.543 232.162 119.188 232.45 118.883C232.742 118.574 233.081 118.333 233.466 118.159C233.851 117.986 234.261 117.899 234.697 117.899C235.193 117.899 235.646 118.005 236.056 118.216C236.471 118.424 236.822 118.709 237.11 119.073C237.398 119.437 237.608 119.852 237.739 120.318C237.87 120.783 237.9 121.27 237.828 121.778H233.186C233.246 122.015 233.343 122.229 233.478 122.419C233.614 122.606 233.785 122.756 233.993 122.87C234.2 122.98 234.435 123.037 234.697 123.042C234.968 123.046 235.214 122.982 235.434 122.851C235.658 122.716 235.845 122.534 235.993 122.305L237.574 122.673C237.315 123.236 236.93 123.698 236.418 124.058C235.906 124.413 235.332 124.591 234.697 124.591ZM233.136 120.616H236.259C236.213 120.362 236.113 120.134 235.961 119.931C235.813 119.723 235.629 119.558 235.409 119.435C235.188 119.313 234.951 119.251 234.697 119.251C234.444 119.251 234.209 119.313 233.993 119.435C233.777 119.554 233.593 119.717 233.44 119.924C233.292 120.127 233.191 120.358 233.136 120.616ZM239.047 124.426L239.04 118.077H240.59L240.596 118.642C240.812 118.413 241.07 118.233 241.371 118.102C241.671 117.967 241.995 117.899 242.342 117.899C242.575 117.899 242.808 117.933 243.04 118L242.431 119.562C242.27 119.499 242.109 119.467 241.948 119.467C241.699 119.467 241.47 119.528 241.263 119.651C241.059 119.77 240.896 119.933 240.774 120.14C240.655 120.343 240.596 120.57 240.596 120.819V124.426H239.047Z" fill="#3A2A2A"/>
<path d="M143.615 134.33H144.814L146.985 140.301H145.88L145.496 139.243H142.937L142.553 140.301H141.449L143.615 134.33ZM143.317 138.202H145.112L144.213 135.742L143.317 138.202ZM150.813 133.903H151.853V140.301H150.813V139.768C150.676 139.958 150.504 140.113 150.297 140.233C150.089 140.352 149.849 140.412 149.576 140.412C149.266 140.412 148.976 140.353 148.706 140.237C148.436 140.12 148.197 139.96 147.989 139.755C147.785 139.547 147.624 139.308 147.507 139.038C147.391 138.768 147.333 138.478 147.333 138.168C147.333 137.858 147.391 137.568 147.507 137.298C147.624 137.028 147.785 136.791 147.989 136.586C148.197 136.379 148.436 136.216 148.706 136.1C148.976 135.983 149.266 135.925 149.576 135.925C149.849 135.925 150.089 135.985 150.297 136.104C150.504 136.221 150.676 136.376 150.813 136.569V133.903ZM149.589 139.409C149.81 139.409 150.007 139.354 150.177 139.243C150.348 139.132 150.481 138.983 150.578 138.795C150.675 138.605 150.723 138.396 150.723 138.168C150.723 137.938 150.675 137.729 150.578 137.541C150.481 137.351 150.346 137.2 150.173 137.089C150.002 136.978 149.808 136.923 149.589 136.923C149.37 136.923 149.169 136.98 148.987 137.094C148.808 137.204 148.665 137.354 148.557 137.541C148.451 137.729 148.399 137.938 148.399 138.168C148.399 138.399 148.453 138.608 148.561 138.795C148.669 138.983 148.812 139.132 148.992 139.243C149.174 139.354 149.373 139.409 149.589 139.409ZM154.867 140.412C154.475 140.412 154.117 140.311 153.793 140.109C153.471 139.907 153.214 139.637 153.021 139.299C152.83 138.957 152.735 138.581 152.735 138.168C152.735 137.856 152.79 137.564 152.901 137.294C153.012 137.021 153.164 136.782 153.358 136.578C153.554 136.37 153.781 136.208 154.04 136.091C154.299 135.975 154.575 135.916 154.867 135.916C155.26 135.916 155.617 136.017 155.938 136.219C156.262 136.421 156.519 136.693 156.71 137.034C156.903 137.375 157 137.753 157 138.168C157 138.478 156.944 138.768 156.834 139.038C156.723 139.308 156.569 139.547 156.373 139.755C156.18 139.96 155.954 140.12 155.695 140.237C155.439 140.353 155.163 140.412 154.867 140.412ZM154.867 139.371C155.075 139.371 155.261 139.316 155.426 139.205C155.591 139.094 155.72 138.947 155.814 138.765C155.911 138.583 155.959 138.384 155.959 138.168C155.959 137.947 155.91 137.745 155.81 137.563C155.713 137.378 155.581 137.231 155.413 137.123C155.248 137.013 155.067 136.957 154.867 136.957C154.663 136.957 154.478 137.013 154.313 137.123C154.148 137.234 154.017 137.382 153.921 137.567C153.824 137.752 153.776 137.952 153.776 138.168C153.776 138.393 153.825 138.596 153.925 138.778C154.024 138.96 154.157 139.105 154.322 139.213C154.489 139.318 154.671 139.371 154.867 139.371ZM160.046 135.916C160.461 135.916 160.839 136.017 161.18 136.219C161.522 136.421 161.793 136.693 161.995 137.034C162.197 137.372 162.298 137.748 162.298 138.16C162.298 138.47 162.24 138.761 162.123 139.034C162.006 139.307 161.844 139.547 161.637 139.755C161.432 139.96 161.193 140.12 160.92 140.237C160.65 140.353 160.359 140.412 160.046 140.412C159.779 140.412 159.541 140.352 159.334 140.233C159.129 140.11 158.957 139.952 158.818 139.759V140.301H157.777V133.903H158.818V136.569C158.957 136.376 159.129 136.219 159.334 136.1C159.541 135.978 159.779 135.916 160.046 135.916ZM160.033 139.405C160.255 139.405 160.455 139.35 160.635 139.239C160.816 139.125 160.961 138.974 161.07 138.787C161.178 138.599 161.232 138.39 161.232 138.16C161.232 137.932 161.178 137.725 161.07 137.537C160.961 137.347 160.816 137.196 160.635 137.085C160.453 136.974 160.252 136.919 160.033 136.919C159.817 136.919 159.624 136.976 159.453 137.089C159.283 137.2 159.149 137.351 159.052 137.541C158.956 137.729 158.907 137.935 158.907 138.16C158.907 138.39 158.956 138.601 159.052 138.791C159.149 138.979 159.283 139.128 159.453 139.239C159.624 139.35 159.817 139.405 160.033 139.405ZM165.039 140.412C164.647 140.412 164.289 140.311 163.965 140.109C163.643 139.907 163.386 139.635 163.193 139.294C163.002 138.953 162.907 138.576 162.907 138.164C162.907 137.854 162.962 137.564 163.073 137.294C163.184 137.021 163.336 136.782 163.53 136.578C163.726 136.37 163.953 136.208 164.212 136.091C164.471 135.975 164.747 135.916 165.039 135.916C165.372 135.916 165.676 135.988 165.952 136.13C166.231 136.269 166.467 136.461 166.66 136.705C166.853 136.95 166.994 137.229 167.082 137.541C167.17 137.854 167.19 138.181 167.142 138.522H164.024C164.064 138.682 164.13 138.825 164.221 138.953C164.312 139.078 164.427 139.179 164.566 139.256C164.705 139.33 164.863 139.368 165.039 139.371C165.221 139.374 165.386 139.331 165.534 139.243C165.685 139.152 165.81 139.03 165.909 138.876L166.971 139.124C166.798 139.502 166.539 139.812 166.195 140.053C165.851 140.292 165.466 140.412 165.039 140.412ZM163.99 137.742H166.089C166.057 137.571 165.991 137.418 165.888 137.281C165.789 137.142 165.665 137.031 165.517 136.949C165.369 136.866 165.21 136.825 165.039 136.825C164.869 136.825 164.711 136.866 164.566 136.949C164.421 137.028 164.297 137.138 164.195 137.277C164.095 137.413 164.027 137.568 163.99 137.742Z" fill="#28293D"/>
<path d="M141.693 153.738V146.914H143.876C144.24 146.914 144.568 147.004 144.861 147.183C145.153 147.358 145.386 147.597 145.558 147.899C145.733 148.198 145.821 148.534 145.821 148.908C145.821 149.285 145.732 149.624 145.553 149.927C145.377 150.229 145.142 150.468 144.846 150.643C144.554 150.819 144.23 150.906 143.876 150.906H142.375V153.738H141.693ZM142.375 150.224H143.823C144.063 150.224 144.282 150.166 144.481 150.049C144.682 149.928 144.841 149.767 144.958 149.566C145.078 149.361 145.139 149.131 145.139 148.874C145.139 148.617 145.078 148.388 144.958 148.187C144.841 147.982 144.682 147.821 144.481 147.704C144.282 147.584 144.063 147.524 143.823 147.524H142.375V150.224ZM146.523 151.871V148.864H147.205V151.735C147.205 152.001 147.27 152.244 147.4 152.461C147.53 152.679 147.704 152.853 147.922 152.983C148.143 153.113 148.385 153.178 148.648 153.178C148.914 153.178 149.155 153.113 149.369 152.983C149.587 152.853 149.761 152.679 149.891 152.461C150.021 152.244 150.086 152.001 150.086 151.735V148.864H150.768L150.773 153.738H150.091L150.086 153.056C149.914 153.303 149.689 153.499 149.413 153.646C149.14 153.792 148.841 153.865 148.516 153.865C148.149 153.865 147.815 153.776 147.512 153.597C147.21 153.418 146.97 153.178 146.791 152.876C146.612 152.573 146.523 152.239 146.523 151.871ZM156.174 150.721V153.738H155.492V150.858C155.492 150.591 155.427 150.349 155.297 150.131C155.167 149.914 154.993 149.74 154.775 149.61C154.558 149.48 154.316 149.415 154.049 149.415C153.786 149.415 153.544 149.48 153.323 149.61C153.105 149.74 152.931 149.914 152.801 150.131C152.671 150.349 152.606 150.591 152.606 150.858V153.738H151.924V148.864H152.606V149.537C152.779 149.29 153.003 149.093 153.279 148.947C153.555 148.801 153.856 148.728 154.181 148.728C154.548 148.728 154.883 148.817 155.185 148.996C155.487 149.174 155.728 149.415 155.906 149.717C156.085 150.019 156.174 150.354 156.174 150.721ZM159.38 153.865C158.931 153.865 158.522 153.75 158.151 153.519C157.784 153.288 157.49 152.98 157.269 152.593C157.051 152.203 156.942 151.772 156.942 151.301C156.942 150.944 157.006 150.611 157.133 150.302C157.259 149.99 157.433 149.717 157.654 149.483C157.878 149.246 158.138 149.061 158.434 148.927C158.73 148.794 159.045 148.728 159.38 148.728C159.74 148.728 160.072 148.799 160.374 148.942C160.679 149.085 160.941 149.285 161.159 149.542C161.38 149.798 161.545 150.099 161.656 150.443C161.77 150.788 161.817 151.16 161.797 151.56H157.664C157.703 151.868 157.8 152.144 157.956 152.388C158.116 152.632 158.317 152.825 158.561 152.968C158.808 153.108 159.081 153.179 159.38 153.183C159.705 153.183 159.997 153.098 160.257 152.929C160.52 152.76 160.731 152.528 160.891 152.232L161.583 152.393C161.388 152.825 161.094 153.179 160.7 153.456C160.307 153.729 159.867 153.865 159.38 153.865ZM157.644 151.009H161.11C161.087 150.707 160.995 150.43 160.832 150.18C160.673 149.927 160.467 149.725 160.213 149.576C159.96 149.423 159.682 149.347 159.38 149.347C159.077 149.347 158.801 149.421 158.551 149.571C158.301 149.717 158.096 149.917 157.937 150.17C157.778 150.421 157.68 150.7 157.644 151.009ZM162.57 154.284L162.872 152.637H163.554L163.023 154.284H162.57ZM167.427 153.738L168.748 146.914H169.245L171.156 151.935L173.057 146.914H173.554L174.88 153.738H174.183L173.174 148.518L171.37 153.29H170.932L169.128 148.518L168.119 153.738H167.427ZM179.848 148.864H180.53V153.738H179.848L179.824 152.832C179.664 153.14 179.442 153.391 179.156 153.582C178.87 153.771 178.529 153.865 178.132 153.865C177.775 153.865 177.44 153.798 177.128 153.665C176.816 153.529 176.542 153.342 176.305 153.105C176.067 152.867 175.882 152.593 175.749 152.281C175.616 151.969 175.549 151.634 175.549 151.277C175.549 150.926 175.614 150.596 175.744 150.287C175.877 149.979 176.059 149.707 176.29 149.473C176.524 149.239 176.794 149.057 177.099 148.927C177.408 148.794 177.738 148.728 178.089 148.728C178.495 148.728 178.849 148.825 179.151 149.02C179.453 149.212 179.694 149.464 179.872 149.776L179.848 148.864ZM178.118 153.202C178.465 153.202 178.764 153.118 179.015 152.949C179.265 152.776 179.457 152.546 179.59 152.257C179.726 151.967 179.794 151.649 179.794 151.301C179.794 150.944 179.726 150.622 179.59 150.336C179.453 150.047 179.26 149.818 179.01 149.649C178.76 149.48 178.462 149.395 178.118 149.395C177.773 149.395 177.458 149.482 177.172 149.654C176.889 149.823 176.664 150.052 176.495 150.341C176.329 150.63 176.246 150.95 176.246 151.301C176.246 151.655 176.332 151.977 176.504 152.266C176.677 152.552 176.904 152.78 177.187 152.949C177.473 153.118 177.783 153.202 178.118 153.202ZM186.002 150.721V153.738H185.32V150.858C185.32 150.591 185.255 150.349 185.125 150.131C184.995 149.914 184.821 149.74 184.604 149.61C184.386 149.48 184.144 149.415 183.877 149.415C183.614 149.415 183.372 149.48 183.151 149.61C182.933 149.74 182.759 149.914 182.63 150.131C182.5 150.349 182.435 150.591 182.435 150.858V153.738H181.752V146.427H182.435V149.537C182.607 149.29 182.831 149.093 183.107 148.947C183.383 148.801 183.684 148.728 184.009 148.728C184.376 148.728 184.711 148.817 185.013 148.996C185.315 149.174 185.556 149.415 185.734 149.717C185.913 150.019 186.002 150.354 186.002 150.721ZM191.07 148.864H191.752V153.738H191.07L191.045 152.832C190.886 153.14 190.663 153.391 190.377 153.582C190.092 153.771 189.75 153.865 189.354 153.865C188.996 153.865 188.662 153.798 188.35 153.665C188.038 153.529 187.763 153.342 187.526 153.105C187.289 152.867 187.104 152.593 186.97 152.281C186.837 151.969 186.771 151.634 186.771 151.277C186.771 150.926 186.836 150.596 186.966 150.287C187.099 149.979 187.281 149.707 187.511 149.473C187.745 149.239 188.015 149.057 188.321 148.927C188.629 148.794 188.959 148.728 189.31 148.728C189.716 148.728 190.07 148.825 190.373 149.02C190.675 149.212 190.915 149.464 191.094 149.776L191.07 148.864ZM189.339 153.202C189.687 153.202 189.986 153.118 190.236 152.949C190.486 152.776 190.678 152.546 190.811 152.257C190.948 151.967 191.016 151.649 191.016 151.301C191.016 150.944 190.948 150.622 190.811 150.336C190.675 150.047 190.481 149.818 190.231 149.649C189.981 149.48 189.684 149.395 189.339 149.395C188.995 149.395 188.68 149.482 188.394 149.654C188.111 149.823 187.885 150.052 187.716 150.341C187.55 150.63 187.468 150.95 187.468 151.301C187.468 151.655 187.554 151.977 187.726 152.266C187.898 152.552 188.126 152.78 188.408 152.949C188.694 153.118 189.005 153.202 189.339 153.202ZM192.907 153.738V148.864H193.589V149.537C193.762 149.29 193.986 149.093 194.262 148.947C194.538 148.801 194.839 148.728 195.164 148.728C195.352 148.728 195.534 148.752 195.71 148.801L195.432 149.478C195.295 149.436 195.162 149.415 195.032 149.415C194.769 149.415 194.527 149.48 194.306 149.61C194.088 149.74 193.914 149.914 193.784 150.131C193.654 150.349 193.589 150.591 193.589 150.858V153.738H192.907ZM200.254 148.864H200.936V153.738H200.254L200.23 152.832C200.07 153.14 199.848 153.391 199.562 153.582C199.276 153.771 198.935 153.865 198.538 153.865C198.181 153.865 197.846 153.798 197.534 153.665C197.222 153.529 196.948 153.342 196.71 153.105C196.473 152.867 196.288 152.593 196.155 152.281C196.022 151.969 195.955 151.634 195.955 151.277C195.955 150.926 196.02 150.596 196.15 150.287C196.283 149.979 196.465 149.707 196.696 149.473C196.93 149.239 197.199 149.057 197.505 148.927C197.814 148.794 198.143 148.728 198.494 148.728C198.901 148.728 199.255 148.825 199.557 149.02C199.859 149.212 200.1 149.464 200.278 149.776L200.254 148.864ZM198.524 153.202C198.871 153.202 199.17 153.118 199.42 152.949C199.671 152.776 199.862 152.546 199.996 152.257C200.132 151.967 200.2 151.649 200.2 151.301C200.2 150.944 200.132 150.622 199.996 150.336C199.859 150.047 199.666 149.818 199.416 149.649C199.165 149.48 198.868 149.395 198.524 149.395C198.179 149.395 197.864 149.482 197.578 149.654C197.295 149.823 197.069 150.052 196.901 150.341C196.735 150.63 196.652 150.95 196.652 151.301C196.652 151.655 196.738 151.977 196.91 152.266C197.082 152.552 197.31 152.78 197.593 152.949C197.879 153.118 198.189 153.202 198.524 153.202ZM203.597 153.831C203.331 153.824 203.071 153.776 202.818 153.685C202.564 153.594 202.343 153.47 202.155 153.314C201.966 153.158 201.831 152.981 201.75 152.783L202.34 152.529C202.392 152.656 202.488 152.773 202.628 152.88C202.771 152.984 202.933 153.069 203.115 153.134C203.297 153.196 203.477 153.226 203.656 153.226C203.854 153.226 204.039 153.194 204.212 153.129C204.384 153.064 204.524 152.971 204.631 152.851C204.741 152.728 204.797 152.583 204.797 152.417C204.797 152.239 204.738 152.099 204.621 151.998C204.504 151.894 204.356 151.813 204.178 151.755C203.999 151.693 203.815 151.634 203.627 151.579C203.282 151.485 202.978 151.381 202.715 151.267C202.452 151.153 202.246 151.009 202.096 150.833C201.95 150.655 201.877 150.425 201.877 150.146C201.877 149.85 201.96 149.595 202.125 149.381C202.294 149.163 202.514 148.996 202.784 148.879C203.056 148.759 203.347 148.698 203.656 148.698C204.052 148.698 204.413 148.785 204.738 148.957C205.066 149.129 205.303 149.358 205.45 149.644L204.899 149.971C204.84 149.837 204.748 149.722 204.621 149.624C204.494 149.527 204.35 149.451 204.187 149.395C204.028 149.34 203.866 149.311 203.7 149.308C203.492 149.304 203.299 149.335 203.12 149.4C202.941 149.462 202.796 149.555 202.686 149.678C202.579 149.802 202.525 149.953 202.525 150.131C202.525 150.31 202.579 150.447 202.686 150.541C202.793 150.632 202.938 150.707 203.12 150.765C203.305 150.82 203.513 150.885 203.744 150.96C204.039 151.054 204.317 151.161 204.577 151.282C204.837 151.402 205.047 151.551 205.206 151.73C205.365 151.909 205.443 152.135 205.44 152.408C205.44 152.7 205.352 152.955 205.177 153.173C205.001 153.391 204.774 153.558 204.494 153.675C204.215 153.789 203.916 153.841 203.597 153.831ZM210.71 150.721V153.738H210.028V150.858C210.028 150.591 209.963 150.349 209.833 150.131C209.703 149.914 209.529 149.74 209.311 149.61C209.093 149.48 208.851 149.415 208.585 149.415C208.322 149.415 208.08 149.48 207.859 149.61C207.641 149.74 207.467 149.914 207.337 150.131C207.207 150.349 207.142 150.591 207.142 150.858V153.738H206.46V146.427H207.142V149.537C207.314 149.29 207.539 149.093 207.815 148.947C208.091 148.801 208.392 148.728 208.717 148.728C209.084 148.728 209.418 148.817 209.721 148.996C210.023 149.174 210.263 149.415 210.442 149.717C210.621 150.019 210.71 150.354 210.71 150.721ZM214.357 149.547H213.192L213.187 153.738H212.504L212.509 149.547H211.627V148.864H212.509L212.504 147.334H213.187L213.192 148.864H214.357V149.547ZM215.406 153.738V148.864H216.088V149.537C216.261 149.29 216.485 149.093 216.761 148.947C217.037 148.801 217.338 148.728 217.663 148.728C217.851 148.728 218.033 148.752 218.209 148.801L217.931 149.478C217.794 149.436 217.661 149.415 217.531 149.415C217.268 149.415 217.026 149.48 216.805 149.61C216.587 149.74 216.413 149.914 216.283 150.131C216.153 150.349 216.088 150.591 216.088 150.858V153.738H215.406ZM222.753 148.864H223.435V153.738H222.753L222.729 152.832C222.569 153.14 222.347 153.391 222.061 153.582C221.775 153.771 221.434 153.865 221.037 153.865C220.68 153.865 220.345 153.798 220.033 153.665C219.721 153.529 219.447 153.342 219.209 153.105C218.972 152.867 218.787 152.593 218.654 152.281C218.521 151.969 218.454 151.634 218.454 151.277C218.454 150.926 218.519 150.596 218.649 150.287C218.782 149.979 218.964 149.707 219.195 149.473C219.429 149.239 219.698 149.057 220.004 148.927C220.313 148.794 220.642 148.728 220.993 148.728C221.4 148.728 221.754 148.825 222.056 149.02C222.358 149.212 222.599 149.464 222.777 149.776L222.753 148.864ZM221.023 153.202C221.37 153.202 221.669 153.118 221.919 152.949C222.17 152.776 222.361 152.546 222.495 152.257C222.631 151.967 222.699 151.649 222.699 151.301C222.699 150.944 222.631 150.622 222.495 150.336C222.358 150.047 222.165 149.818 221.915 149.649C221.664 149.48 221.367 149.395 221.023 149.395C220.678 149.395 220.363 149.482 220.077 149.654C219.794 149.823 219.569 150.052 219.4 150.341C219.234 150.63 219.151 150.95 219.151 151.301C219.151 151.655 219.237 151.977 219.409 152.266C219.582 152.552 219.809 152.78 220.092 152.949C220.378 153.118 220.688 153.202 221.023 153.202ZM224.395 154.284L224.698 152.637H225.38L224.849 154.284H224.395ZM229.399 153.738V146.914H230.081V153.738H229.399ZM235.825 150.721V153.738H235.142V150.858C235.142 150.591 235.077 150.349 234.947 150.131C234.817 149.914 234.644 149.74 234.426 149.61C234.208 149.48 233.966 149.415 233.7 149.415C233.436 149.415 233.194 149.48 232.973 149.61C232.756 149.74 232.582 149.914 232.452 150.131C232.322 150.349 232.257 150.591 232.257 150.858V153.738H231.574V148.864H232.257V149.537C232.429 149.29 232.653 149.093 232.929 148.947C233.206 148.801 233.506 148.728 233.831 148.728C234.198 148.728 234.533 148.817 234.835 148.996C235.137 149.174 235.378 149.415 235.557 149.717C235.735 150.019 235.825 150.354 235.825 150.721ZM240.897 146.427H241.579V153.738H240.897V152.827C240.728 153.139 240.495 153.391 240.2 153.582C239.907 153.771 239.56 153.865 239.157 153.865C238.803 153.865 238.471 153.798 238.162 153.665C237.854 153.532 237.581 153.348 237.344 153.114C237.11 152.877 236.926 152.604 236.793 152.296C236.66 151.987 236.593 151.655 236.593 151.301C236.593 150.947 236.66 150.616 236.793 150.307C236.926 149.995 237.11 149.722 237.344 149.488C237.581 149.251 237.854 149.066 238.162 148.932C238.471 148.799 238.803 148.733 239.157 148.733C239.56 148.733 239.907 148.828 240.2 149.02C240.495 149.209 240.728 149.457 240.897 149.766V146.427ZM239.162 153.202C239.509 153.202 239.808 153.118 240.058 152.949C240.309 152.776 240.5 152.546 240.634 152.257C240.77 151.967 240.838 151.649 240.838 151.301C240.838 150.944 240.77 150.622 240.634 150.336C240.497 150.047 240.304 149.818 240.054 149.649C239.803 149.48 239.506 149.395 239.162 149.395C238.817 149.395 238.504 149.482 238.221 149.654C237.938 149.823 237.712 150.052 237.543 150.341C237.374 150.63 237.29 150.95 237.29 151.301C237.29 151.655 237.376 151.977 237.548 152.266C237.72 152.552 237.948 152.78 238.231 152.949C238.517 153.118 238.827 153.202 239.162 153.202ZM242.929 148.864H243.612V153.738H242.929V148.864ZM243.275 148.011C243.165 148.011 243.071 147.975 242.993 147.904C242.918 147.829 242.881 147.737 242.881 147.626C242.881 147.516 242.918 147.425 242.993 147.353C243.071 147.278 243.165 147.241 243.275 147.241C243.383 147.241 243.474 147.278 243.548 147.353C243.626 147.425 243.665 147.516 243.665 147.626C243.665 147.737 243.628 147.829 243.553 147.904C243.478 147.975 243.386 148.011 243.275 148.011ZM248.924 148.864H249.607V153.738H248.924L248.9 152.832C248.741 153.14 248.518 153.391 248.232 153.582C247.946 153.771 247.605 153.865 247.209 153.865C246.851 153.865 246.516 153.798 246.205 153.665C245.893 153.529 245.618 153.342 245.381 153.105C245.144 152.867 244.958 152.593 244.825 152.281C244.692 151.969 244.625 151.634 244.625 151.277C244.625 150.926 244.69 150.596 244.82 150.287C244.953 149.979 245.135 149.707 245.366 149.473C245.6 149.239 245.87 149.057 246.175 148.927C246.484 148.794 246.814 148.728 247.165 148.728C247.571 148.728 247.925 148.825 248.227 149.02C248.529 149.212 248.77 149.464 248.949 149.776L248.924 148.864ZM247.194 153.202C247.542 153.202 247.841 153.118 248.091 152.949C248.341 152.776 248.533 152.546 248.666 152.257C248.802 151.967 248.871 151.649 248.871 151.301C248.871 150.944 248.802 150.622 248.666 150.336C248.529 150.047 248.336 149.818 248.086 149.649C247.836 149.48 247.538 149.395 247.194 149.395C246.85 149.395 246.534 149.482 246.248 149.654C245.966 149.823 245.74 150.052 245.571 150.341C245.405 150.63 245.322 150.95 245.322 151.301C245.322 151.655 245.408 151.977 245.581 152.266C245.753 152.552 245.98 152.78 246.263 152.949C246.549 153.118 246.859 153.202 247.194 153.202ZM250.952 153.865C250.845 153.865 250.754 153.826 250.679 153.748C250.604 153.673 250.567 153.581 250.567 153.47C250.567 153.366 250.604 153.277 250.679 153.202C250.754 153.124 250.845 153.085 250.952 153.085C251.062 153.085 251.155 153.124 251.23 153.202C251.308 153.277 251.347 153.366 251.347 153.47C251.347 153.581 251.308 153.673 251.23 153.748C251.155 153.826 251.062 153.865 250.952 153.865Z" fill="#555770"/>
<g filter="url(#filter4_d_512_15799)">
<path d="M354.524 113.695H348.404C347.051 113.695 345.953 114.8 345.953 116.146V125.092C345.953 126.235 346.772 126.717 347.775 126.165L350.874 124.444C351.204 124.26 351.737 124.26 352.061 124.444L355.159 126.165C356.162 126.724 356.982 126.241 356.982 125.092V116.146C356.975 114.8 355.877 113.695 354.524 113.695Z" fill="#C7C4FF" stroke="#3D4754" stroke-width="0.952377" stroke-linecap="round" stroke-linejoin="round"/>
<path d="M350.927 120.639C350.806 120.639 350.685 120.594 350.59 120.499L349.638 119.547C349.454 119.363 349.454 119.058 349.638 118.874C349.822 118.69 350.127 118.69 350.311 118.874L350.927 119.49L353.13 117.287C353.314 117.102 353.619 117.102 353.803 117.287C353.987 117.471 353.987 117.775 353.803 117.96L351.263 120.499C351.168 120.594 351.047 120.639 350.927 120.639Z" fill="#3D4754"/>
</g>
<path d="M345.925 154.441V152.789H343.02V151.595L345.647 147.618H347.114V151.6H347.689V152.789H347.114V154.441H345.925ZM344.399 151.595L345.925 151.6L345.92 149.241L344.399 151.595ZM353.504 151.361V154.441H352.315V151.673C352.315 151.481 352.268 151.307 352.174 151.151C352.079 150.992 351.953 150.867 351.794 150.776C351.638 150.682 351.464 150.635 351.272 150.635C351.08 150.635 350.905 150.682 350.746 150.776C350.59 150.867 350.465 150.992 350.37 151.151C350.279 151.307 350.234 151.481 350.234 151.673V154.441H349.044L349.04 147.13H350.229L350.234 150.001C350.4 149.826 350.598 149.687 350.828 149.587C351.059 149.483 351.308 149.431 351.574 149.431C351.928 149.431 352.252 149.519 352.544 149.694C352.837 149.866 353.069 150.099 353.241 150.391C353.417 150.68 353.504 151.004 353.504 151.361ZM354.66 154.441L354.655 149.567H355.844L355.849 150.001C356.015 149.826 356.213 149.687 356.444 149.587C356.675 149.483 356.923 149.431 357.19 149.431C357.368 149.431 357.547 149.457 357.726 149.509L357.258 150.708C357.134 150.659 357.011 150.635 356.888 150.635C356.696 150.635 356.52 150.682 356.361 150.776C356.205 150.867 356.08 150.992 355.986 151.151C355.895 151.307 355.849 151.481 355.849 151.673V154.441H354.66Z" fill="#06C270"/>
<path d="M87.1996 184.967C87.1996 183.827 88.1239 182.903 89.264 182.903H371.168C372.308 182.903 373.232 183.827 373.232 184.967V244.4C373.232 245.541 372.308 246.465 371.168 246.465H89.264C88.1239 246.465 87.1996 245.541 87.1996 244.4V184.967Z" fill="white"/>
<path d="M87.1996 184.967C87.1996 183.827 88.1239 182.903 89.264 182.903H371.168C372.308 182.903 373.232 183.827 373.232 184.967V244.4C373.232 245.541 372.308 246.465 371.168 246.465H89.264C88.1239 246.465 87.1996 245.541 87.1996 244.4V184.967Z" stroke="#E8E8E8" stroke-width="0.95046"/>
<rect x="100.428" y="192.475" width="25.7579" height="25.7579" rx="2.13757" stroke="#3A2A2A" stroke-width="0.599022"/>
<path d="M111.394 198.986H105.953V211.945L111.394 198.986Z" fill="#FF0000"/>
<path d="M115.222 198.986H120.656V211.945L115.222 198.986Z" fill="#FF0000"/>
<path d="M113.308 203.762L116.771 211.944H114.499L113.464 209.339H110.93L113.308 203.762Z" fill="#FF0000"/>
<path d="M145.07 204.341C144.579 204.341 144.107 204.265 143.654 204.112C143.205 203.956 142.811 203.733 142.473 203.446C142.134 203.154 141.891 202.804 141.743 202.398L143.197 201.865C143.256 202.034 143.376 202.188 143.558 202.328C143.74 202.468 143.963 202.58 144.225 202.665C144.488 202.749 144.769 202.792 145.07 202.792C145.379 202.792 145.666 202.745 145.933 202.652C146.204 202.555 146.422 202.421 146.587 202.252C146.752 202.078 146.835 201.877 146.835 201.649C146.835 201.416 146.748 201.226 146.574 201.077C146.401 200.925 146.179 200.804 145.908 200.715C145.637 200.627 145.357 200.559 145.07 200.512C144.439 200.415 143.874 200.265 143.374 200.062C142.875 199.858 142.479 199.577 142.187 199.217C141.899 198.857 141.755 198.392 141.755 197.82C141.755 197.283 141.91 196.813 142.219 196.411C142.528 196.009 142.934 195.695 143.438 195.471C143.942 195.247 144.485 195.135 145.07 195.135C145.556 195.135 146.026 195.211 146.479 195.363C146.932 195.515 147.328 195.738 147.666 196.03C148.009 196.322 148.255 196.673 148.403 197.084L146.943 197.611C146.883 197.441 146.763 197.287 146.581 197.147C146.399 197.008 146.176 196.898 145.914 196.817C145.652 196.732 145.37 196.69 145.07 196.69C144.769 196.686 144.483 196.735 144.212 196.836C143.946 196.933 143.728 197.067 143.558 197.236C143.389 197.405 143.304 197.6 143.304 197.82C143.304 198.104 143.383 198.318 143.539 198.462C143.7 198.605 143.914 198.711 144.181 198.779C144.447 198.842 144.744 198.902 145.07 198.957C145.662 199.05 146.21 199.206 146.714 199.427C147.218 199.647 147.622 199.941 147.927 200.309C148.231 200.673 148.384 201.12 148.384 201.649C148.384 202.186 148.231 202.658 147.927 203.065C147.622 203.467 147.218 203.78 146.714 204.004C146.21 204.229 145.662 204.341 145.07 204.341ZM150.011 204.176V195.287H152.957C153.57 195.287 154.144 195.403 154.677 195.636C155.215 195.865 155.687 196.184 156.093 196.595C156.504 197.001 156.823 197.473 157.052 198.011C157.285 198.544 157.401 199.118 157.401 199.731C157.401 200.345 157.285 200.921 157.052 201.458C156.823 201.992 156.504 202.464 156.093 202.874C155.687 203.281 155.215 203.6 154.677 203.833C154.144 204.061 153.57 204.176 152.957 204.176H150.011ZM151.56 202.627H152.957C153.35 202.627 153.721 202.553 154.068 202.404C154.419 202.252 154.728 202.045 154.995 201.782C155.261 201.515 155.471 201.209 155.623 200.862C155.776 200.51 155.852 200.133 155.852 199.731C155.852 199.329 155.776 198.955 155.623 198.608C155.471 198.26 155.261 197.954 154.995 197.687C154.728 197.42 154.421 197.213 154.074 197.065C153.727 196.912 153.354 196.836 152.957 196.836H151.56V202.627ZM158.61 204.176V195.287H164.185V196.836H160.16V198.639H163.353V200.188H160.16V202.627H164.185V204.176H158.61ZM169.18 204.176V195.287H170.729V204.176H169.18ZM172.82 204.176V195.287H174.369V204.176H172.82Z" fill="#3A2A2A"/>
<g filter="url(#filter5_d_512_15799)">
<path d="M355.794 193.445H349.673C348.321 193.445 347.223 194.55 347.223 195.896V204.842C347.223 205.985 348.042 206.467 349.045 205.915L352.143 204.194C352.473 204.01 353.007 204.01 353.33 204.194L356.429 205.915C357.432 206.474 358.251 205.991 358.251 204.842V195.896C358.245 194.55 357.146 193.445 355.794 193.445Z" fill="#C7C4FF" stroke="#3D4754" stroke-width="0.952377" stroke-linecap="round" stroke-linejoin="round"/>
<path d="M352.196 200.389C352.076 200.389 351.955 200.344 351.86 200.249L350.907 199.297C350.723 199.113 350.723 198.808 350.907 198.624C351.091 198.44 351.396 198.44 351.58 198.624L352.196 199.24L354.399 197.037C354.583 196.852 354.888 196.852 355.072 197.037C355.256 197.221 355.256 197.525 355.072 197.71L352.533 200.249C352.437 200.344 352.317 200.389 352.196 200.389Z" fill="#3D4754"/>
</g>
</g>
<path d="M375.535 211.709L363.85 147.614L368.956 146.064L382.676 211.709H375.535Z" fill="white" stroke="#10380B" stroke-width="1.48632" stroke-miterlimit="10"/>
<path d="M369.795 178.268L345.395 171.819L339.078 162.096L348.959 156.469L366.773 161.846" fill="#BDA6FF"/>
<path d="M369.795 178.268L345.395 171.819L339.078 162.096L348.959 156.469L366.773 161.846" stroke="#10380B" stroke-width="1.48632" stroke-miterlimit="10"/>
<path d="M377.663 185.696L406.299 175.882L412.968 165.313L401.09 161.336L374.63 170.739" fill="#BDA6FF"/>
<path d="M377.663 185.696L406.299 175.882L412.968 165.313L401.09 161.336L374.63 170.739" stroke="#10380B" stroke-width="1.48632" stroke-miterlimit="10"/>
<path d="M412.969 165.348L409.676 164.531L403.306 173.671L377.027 182.549L378.354 184.898L406.422 175.906L412.969 165.348Z" fill="#10380B"/>
<path d="M386.258 182.337L377.272 169.605L374.736 171.02L377.572 185.449L386.258 182.337Z" fill="#10380B"/>
<path d="M365.116 161.152L364.639 173.631L345.518 171.235L369.879 178.157L366.736 160.432L365.116 161.152Z" fill="#10380B"/>
<path d="M368.241 146.56L374.107 176.338L380.033 211.577L383.417 211.653L369.547 146.312L368.241 146.56Z" fill="#10380B"/>
<path d="M339.573 211.71H387.383C388.059 211.71 388.815 211.414 389.377 210.631C390.339 209.291 391.559 209.057 392.621 210.008L393.461 210.761C394.23 211.451 395.095 211.525 395.889 210.972L399.637 208.361C400.547 207.728 401.541 207.92 402.38 208.894C404.669 211.552 407.493 211.71 410.112 211.71H421.073" stroke="#10380B" stroke-width="1.48632" stroke-miterlimit="10"/>
<path d="M371.443 207.751L368.523 211.254L364.255 205.264" stroke="#10380B" stroke-width="1.48632" stroke-miterlimit="10"/>
<path d="M64.2225 211.9C64.2225 211.9 57.2855 205.62 55.0332 183.551" stroke="#10380B" stroke-width="1.56993" stroke-miterlimit="10"/>
<path d="M50.7092 186.6C50.7092 186.6 53.4118 190.816 56.2046 192.341" stroke="#10380B" stroke-width="1.56993" stroke-miterlimit="10"/>
<path d="M65.1232 180.77C65.1232 180.77 64.5827 200.147 66.2044 211.81" stroke="#10380B" stroke-width="1.56993" stroke-miterlimit="10"/>
<path d="M60.3481 181.396C60.3481 181.396 61.4293 187.407 64.8523 190.816" stroke="#10380B" stroke-width="1.56993" stroke-miterlimit="10"/>
<path d="M69.4468 191.982L65.3032 198.711" stroke="#10380B" stroke-width="1.56993" stroke-miterlimit="10"/>
<path d="M60.6184 198.98L65.3491 203.01" stroke="#10380B" stroke-width="1.56993" stroke-miterlimit="10"/>
<path d="M46.7717 192.281C46.7717 192.281 50.4041 204.278 60.3778 211.905" stroke="#10380B" stroke-width="1.56993" stroke-miterlimit="10"/>
<path d="M54.3123 201.492L60.1159 205.103" stroke="#10380B" stroke-width="1.56993" stroke-miterlimit="10"/>
<path d="M46.2947 203.557L53.5916 204.992" stroke="#10380B" stroke-width="1.56993" stroke-miterlimit="10"/>
<path d="M73.5915 181.666C73.5915 181.666 70.2581 200.057 69.0874 211.36" stroke="#10380B" stroke-width="1.56993" stroke-miterlimit="10"/>
<path d="M78.5463 184.537L72.0598 190.099" stroke="#10380B" stroke-width="1.56993" stroke-miterlimit="10"/>
<path d="M70.2578 180.859L72.6902 187.229" stroke="#10380B" stroke-width="1.56993" stroke-miterlimit="10"/>
<path d="M75.3929 198.352L70.3477 201.761" stroke="#10380B" stroke-width="1.56993" stroke-miterlimit="10"/>
<path d="M83.3208 187.945C83.3208 187.945 76.8344 206.246 70.0779 211.808" stroke="#10380B" stroke-width="1.56993" stroke-miterlimit="10"/>
<path d="M76.8342 193.061L77.8249 200.955" stroke="#10380B" stroke-width="1.56993" stroke-miterlimit="10"/>
<path d="M85.0325 192.521L80.4379 194.854" stroke="#10380B" stroke-width="1.56993" stroke-miterlimit="10"/>
<path d="M73.9839 211.906C73.9839 211.906 84.0414 205.863 91.7765 194.898" stroke="#10380B" stroke-width="1.56993" stroke-miterlimit="10"/>
<path d="M80.1677 202.838L79.4785 208.243" stroke="#10380B" stroke-width="1.56993" stroke-miterlimit="10"/>
<path d="M86.3837 195.123L86.2932 201.134L94.1314 196.469" stroke="#10380B" stroke-width="1.56993" stroke-miterlimit="10"/>
<path d="M81.8336 211.907C81.8336 211.907 88.1343 209.662 92.2998 205.365" stroke="#10380B" stroke-width="1.56993" stroke-miterlimit="10"/>
<path d="M87.8252 203.646L87.9152 208.491L93.5905 208.76" stroke="#10380B" stroke-width="1.56993" stroke-miterlimit="10"/>
<path d="M41.0152 204.842C41.0152 204.842 49.2545 210.974 55.1446 211.907" stroke="#10380B" stroke-width="1.56993" stroke-miterlimit="10"/>
<path d="M41.0151 208.244L47.0332 208.767" stroke="#10380B" stroke-width="1.56993" stroke-miterlimit="10"/>
<path d="M7 211.906H116.372" stroke="#10380B" stroke-width="1.56993"/>
<defs>
<filter id="filter0_d_512_15799" x="68.9468" y="25.0742" width="324.443" height="189.206" filterUnits="userSpaceOnUse" color-interpolation-filters="sRGB">
<feFlood flood-opacity="0" result="BackgroundImageFix"/>
<feColorMatrix in="SourceAlpha" type="matrix" values="0 0 0 0 0 0 0 0 0 0 0 0 0 0 0 0 0 0 127 0" result="hardAlpha"/>
<feOffset dx="2.53967" dy="2.53967"/>
<feComposite in2="hardAlpha" operator="out"/>
<feColorMatrix type="matrix" values="0 0 0 0 0 0 0 0 0 0 0 0 0 0 0 0 0 0 1 0"/>
<feBlend mode="normal" in2="BackgroundImageFix" result="effect1_dropShadow_512_15799"/>
<feBlend mode="normal" in="SourceGraphic" in2="effect1_dropShadow_512_15799" result="shape"/>
</filter>
<filter id="filter1_d_512_15799" x="84.1847" y="11.1055" width="63.4957" height="29.9074" filterUnits="userSpaceOnUse" color-interpolation-filters="sRGB">
<feFlood flood-opacity="0" result="BackgroundImageFix"/>
<feColorMatrix in="SourceAlpha" type="matrix" values="0 0 0 0 0 0 0 0 0 0 0 0 0 0 0 0 0 0 127 0" result="hardAlpha"/>
<feOffset dx="1.97186" dy="1.97186"/>
<feComposite in2="hardAlpha" operator="out"/>
<feColorMatrix type="matrix" values="0 0 0 0 0 0 0 0 0 0 0 0 0 0 0 0 0 0 1 0"/>
<feBlend mode="normal" in2="BackgroundImageFix" result="effect1_dropShadow_512_15799"/>
<feBlend mode="normal" in="SourceGraphic" in2="effect1_dropShadow_512_15799" result="shape"/>
</filter>
<filter id="filter2_d_512_15799" x="155.867" y="11.1055" width="72.4957" height="29.9074" filterUnits="userSpaceOnUse" color-interpolation-filters="sRGB">
<feFlood flood-opacity="0" result="BackgroundImageFix"/>
<feColorMatrix in="SourceAlpha" type="matrix" values="0 0 0 0 0 0 0 0 0 0 0 0 0 0 0 0 0 0 127 0" result="hardAlpha"/>
<feOffset dx="1.97186" dy="1.97186"/>
<feComposite in2="hardAlpha" operator="out"/>
<feColorMatrix type="matrix" values="0 0 0 0 0 0 0 0 0 0 0 0 0 0 0 0 0 0 1 0"/>
<feBlend mode="normal" in2="BackgroundImageFix" result="effect1_dropShadow_512_15799"/>
<feBlend mode="normal" in="SourceGraphic" in2="effect1_dropShadow_512_15799" result="shape"/>
</filter>
<filter id="filter3_d_512_15799" x="236.549" y="11.1055" width="108.496" height="29.9074" filterUnits="userSpaceOnUse" color-interpolation-filters="sRGB">
<feFlood flood-opacity="0" result="BackgroundImageFix"/>
<feColorMatrix in="SourceAlpha" type="matrix" values="0 0 0 0 0 0 0 0 0 0 0 0 0 0 0 0 0 0 127 0" result="hardAlpha"/>
<feOffset dx="1.97186" dy="1.97186"/>
<feComposite in2="hardAlpha" operator="out"/>
<feColorMatrix type="matrix" values="0 0 0 0 0 0 0 0 0 0 0 0 0 0 0 0 0 0 1 0"/>
<feBlend mode="normal" in2="BackgroundImageFix" result="effect1_dropShadow_512_15799"/>
<feBlend mode="normal" in="SourceGraphic" in2="effect1_dropShadow_512_15799" result="shape"/>
</filter>
<filter id="filter4_d_512_15799" x="345.477" y="113.219" width="13.9528" height="15.6281" filterUnits="userSpaceOnUse" color-interpolation-filters="sRGB">
<feFlood flood-opacity="0" result="BackgroundImageFix"/>
<feColorMatrix in="SourceAlpha" type="matrix" values="0 0 0 0 0 0 0 0 0 0 0 0 0 0 0 0 0 0 127 0" result="hardAlpha"/>
<feOffset dx="1.97186" dy="1.97186"/>
<feComposite in2="hardAlpha" operator="out"/>
<feColorMatrix type="matrix" values="0 0 0 0 0 0 0 0 0 0 0 0 0 0 0 0 0 0 1 0"/>
<feBlend mode="normal" in2="BackgroundImageFix" result="effect1_dropShadow_512_15799"/>
<feBlend mode="normal" in="SourceGraphic" in2="effect1_dropShadow_512_15799" result="shape"/>
</filter>
<filter id="filter5_d_512_15799" x="346.746" y="192.969" width="13.9528" height="15.6281" filterUnits="userSpaceOnUse" color-interpolation-filters="sRGB">
<feFlood flood-opacity="0" result="BackgroundImageFix"/>
<feColorMatrix in="SourceAlpha" type="matrix" values="0 0 0 0 0 0 0 0 0 0 0 0 0 0 0 0 0 0 127 0" result="hardAlpha"/>
<feOffset dx="1.97186" dy="1.97186"/>
<feComposite in2="hardAlpha" operator="out"/>
<feColorMatrix type="matrix" values="0 0 0 0 0 0 0 0 0 0 0 0 0 0 0 0 0 0 1 0"/>
<feBlend mode="normal" in2="BackgroundImageFix" result="effect1_dropShadow_512_15799"/>
<feBlend mode="normal" in="SourceGraphic" in2="effect1_dropShadow_512_15799" result="shape"/>
</filter>
<clipPath id="clip0_512_15799">
<rect width="281.269" height="48.2538" fill="white" transform="translate(68.9468 0.947266)"/>
</clipPath>
<clipPath id="clip1_512_15799">
<rect width="317.459" height="161.904" fill="white" transform="translate(71.4863 49.2012)"/>
</clipPath>
</defs>
</svg>
