<svg width="432" height="578" viewBox="0 0 432 578" fill="none" xmlns="http://www.w3.org/2000/svg">
<g clip-path="url(#clip0_575_7138)">
<path d="M545.552 481.984L481.908 460.246L403.719 371.477L330.986 327.999L323.712 248.289L303.709 242.855V333.434H287.344L280.072 217.492L230.975 210.246L221.884 221.115H190.971L178.244 203H112.781L90.9605 233.798V347.928L60.049 387.783L18.2249 402.274L-19.9605 469.304L-92.6944 480.173L-139.971 507.347L-185.429 491.045L-234.525 503.725L-278.167 529.089L-341.808 527.276L-401.814 547.203L-440 578H778.301L772.847 489.233L545.552 481.984Z" fill="#BDA6FF"/>
<path d="M309.999 575.309H198.755" stroke="#10380B" stroke-width="5.38277"/>
<path d="M196.962 541.218V578.001H5.87354L53.4214 541.218V531.35L59.7013 522.379L74.9525 526.864L100.969 498.156H121.603L196.962 541.218Z" fill="#FEFDE6"/>
<path d="M33.8998 521.131C33.8998 521.131 32.3227 557.434 10.7503 573.218C10.7503 573.218 -6.6863 571.72 -21.9375 535.835" stroke="#4D3299" stroke-width="5.38277" stroke-miterlimit="10"/>
<path d="M12.9828 530.797C12.9828 530.797 11.4649 552.723 7.67899 572.951C7.67899 572.951 -7.73908 571.544 -35.891 560.732" stroke="#4D3299" stroke-width="5.38277" stroke-miterlimit="10"/>
<path d="M252.583 578C252.583 578 250.663 570.062 235.406 564.274C220.148 558.485 224.883 534.81 201.733 528.496C178.584 522.182 177.531 523.761 172.27 517.449C167.009 511.135 165.43 497.455 153.857 493.772C142.282 490.088 105.979 492.72 102.296 493.772C98.6137 494.823 83.8811 515.342 83.8811 515.342C83.8811 515.342 61.7848 516.921 55.4708 523.761L74.9367 533.757L103.349 500.611L119.659 501.663C119.659 501.663 122.815 527.443 134.39 530.075C145.964 532.705 144.387 538.492 144.387 538.492C144.387 538.492 133.338 543.227 113.345 547.436C113.345 547.436 92.2998 558.485 85.46 571.639C78.6203 584.793 100.717 562.167 109.663 558.485C118.607 554.802 123.868 557.958 134.917 553.224C134.917 553.224 171.218 551.118 179.111 553.224C187.003 555.329 195.166 578 195.166 578C195.166 578 226.566 578 252.583 578Z" fill="#4D3299"/>
<path d="M10.7499 573.219L53.3671 539.548C53.3671 539.548 50.7349 526.395 61.2583 522.711" stroke="#4D3299" stroke-width="5.38277" stroke-miterlimit="10"/>
<path d="M40.8614 575.309H-70.3826" stroke="#4D3299" stroke-width="5.38277"/>
<path d="M197 575H52" stroke="#4D3299" stroke-width="5.38277"/>
<path d="M513 575L310 575" stroke="#10380B" stroke-width="5.38277"/>
<g clip-path="url(#clip1_575_7138)">
<path d="M321.026 360.35C321.026 360.35 327.667 342.644 314.757 331.577C301.846 320.51 286.72 307.599 280.081 301.514C273.442 295.428 261.085 281.225 257.766 262.593C254.446 243.962 262.005 237.323 265.694 236.033C269.384 234.743 274.549 233.267 278.421 234.926C278.791 234.743 283.033 234.003 286.177 240.097C289.321 246.19 296.518 257.803 299.271 259.463C303.838 262.346 308.102 265.684 311.998 269.423C317.093 273.157 322.389 276.609 327.861 279.764C333.031 282.349 343.538 284.376 351.839 294.704C357.926 301.955 363.533 309.595 368.625 317.576C375.088 327.916 377.673 330.672 387.07 342.107C394.017 351.407 399.836 361.499 404.407 372.17C410.649 386.255 415.11 401.064 417.687 416.253C418.979 424.552 424.512 440.037 425.442 446.5C426.373 452.963 433.198 475.273 432.637 483.572C432.076 491.87 432.084 497.036 434.664 503.677C437.244 510.318 459.011 558.825 463.99 568.416C468.97 578.007 489.442 612.132 489.442 612.132C489.442 612.132 467.307 616.927 452.553 613.791C437.8 610.656 424.7 616.558 404.045 614.345C383.389 612.132 354.796 614.898 343.176 614.714C331.555 614.531 323.81 613.978 323.81 613.978C323.81 613.978 311.82 579.116 308.133 568.972C306.602 568.074 305.346 566.775 304.5 565.215C303.654 563.655 303.251 561.893 303.335 560.12C303.335 560.12 278.804 549.779 271.982 548.13C265.159 546.48 249.847 535.403 245.788 533.373C241.73 531.344 221.627 522.49 216.278 514.375L321.026 360.35Z" fill="#D6AD9E"/>
<path d="M349.005 438.078C351.59 453.754 346.743 458.679 316.289 472.957C293.099 483.831 257.778 497.799 219.012 511.635C207.976 515.574 200.241 518.615 191.464 513.811C184.621 510.071 181.405 502.015 179.363 497.499C177.964 495.096 177.224 492.366 177.22 489.585C178.027 486.854 179.177 484.236 180.643 481.793C196.513 515.468 191.888 519.222 292.797 475.02C304.405 469.935 319.145 464.705 329.765 458.904C339.998 453.31 345.215 449.142 345.235 441.048C345.248 436.431 340.132 424.017 334.067 407.554C320.539 370.844 299.684 322.896 299.475 320.365C305.966 324.613 304.231 323.121 306.478 328.183C311.946 340.509 333.959 396.011 337.955 406.556C342.224 417.835 347.435 428.6 349.005 438.078Z" fill="white"/>
<path d="M328.695 399.219C348.906 457.084 359.474 443.524 274.71 479.981C243.724 493.31 223.942 501.332 211.807 504.096C197.035 507.456 193.468 502.961 185.407 485.945C182.385 479.567 182.111 478.846 182.576 477.685C190.694 457.433 181.896 442.73 172.072 439.321C166.253 437.302 165.795 442.503 168.024 436.699C170.389 430.533 176.087 418.9 173.711 407.042C172.73 402.898 170.433 399.183 167.165 396.452C163.897 393.722 159.834 392.122 155.581 391.892C154.196 391.561 152.862 391.046 151.613 390.362C153.593 373.698 155.299 354.471 133.685 354.471C115.368 308.274 96.0956 264.845 77.9061 215.646C73.4931 203.715 72.7589 199.778 74.3411 195.119C78.9143 181.653 102.69 173.858 119.786 165.2C128.496 160.785 187.93 137.404 204.219 133.34C205.881 132.721 207.653 132.453 209.423 132.554C211.193 132.655 212.923 133.123 214.503 133.927C221.817 138.581 226.584 150.54 228.903 155.568C232.005 162.315 236.271 172.028 240.019 180.621C252.353 208.906 253.737 216.165 262.72 236.544C258.704 240.545 256.319 245.896 256.027 251.557C235.467 234.717 201.862 224.733 166.649 247.278C161.359 250.577 156.697 254.79 152.882 259.721C97.7579 322.96 165.984 408.916 236.126 379.284C238.685 378.204 253.356 370.929 256.958 367.134C261.686 362.152 277.43 350.868 281.334 322.668C282.106 317.141 282.461 311.564 282.394 305.983C284.912 308.256 287.552 310.391 290.302 312.376C295.93 316.443 294.753 314.571 320.096 376.748C321.21 379.491 327.022 394.418 328.695 399.219ZM204.134 153.027C209.685 150.653 212.764 150.413 211.807 147.282C210.967 144.376 209.792 141.578 208.307 138.942C206.973 136.66 206.011 136.874 203.493 137.833C197.68 139.916 192.009 142.375 186.516 145.193C183.988 146.566 183.339 147.761 184.352 149.948C189.114 160.219 186.211 160.687 204.134 153.027ZM152.601 161.581C154.612 160.547 153.978 159.314 153.893 158.931C153.606 157.667 152.859 156.977 151.809 157.204C148.989 158.053 146.243 159.135 143.601 160.438C135.97 163.918 131.684 165.376 130.306 166.754C129.499 167.563 130.073 168.321 130.541 169.494C131.474 171.821 132.741 170.456 144.062 165.358C149.568 162.884 151.701 162.039 152.601 161.581Z" fill="#BDA6FF"/>
<path d="M295.517 257.811C296.794 259.845 296.742 259.62 294.84 260.934C289.214 264.775 287.883 269.868 285.551 267.275C282.28 263.851 279.534 259.961 277.402 255.732C272.86 244.887 272.682 243.323 275.724 239.053C282.185 229.95 286.924 244.109 295.517 257.811Z" fill="#E2BFB5"/>
<path d="M272.362 295.407C276.584 319.648 266.031 348.97 248.984 361.291C231.862 373.664 213.621 377.433 200.124 375.678C196.763 375.241 197.753 373.659 202.091 353.445C203.071 348.877 202.181 348.791 204.537 349.683C210.945 352.144 209.076 332.903 231.485 332.758C237.027 332.722 238.299 336.804 240.556 320.171C240.957 317.218 241.536 315.848 236.852 315.215C227.31 313.794 217.582 315.993 209.58 321.38C211.509 310.305 212.036 309.858 213.231 309.488C221.821 306.891 230.873 306.193 239.76 307.441C241.81 307.539 242.588 307.531 242.948 305.89C245.383 294.709 246.378 293.176 242.754 292.188C234.18 289.829 225.195 289.366 216.423 290.831C219.009 279.614 218.272 280.283 221.785 280.338C234.367 280.532 237.441 280.232 244.615 281.863C248.258 282.69 247.901 279.952 250.396 268.831C250.848 266.817 251.122 264.953 249.15 264.366C240.807 261.576 232.063 260.179 223.266 260.23C226.692 247.844 226.11 246.906 228.569 247.717C239.464 251.287 249.309 257.493 257.228 265.783C260.037 276.649 265.204 286.763 272.362 295.407ZM241.104 353.745C241.407 346.506 237.247 341.028 229.269 340.912C213.303 340.676 212.003 363.863 226.046 365.531C236.014 366.715 240.846 360.309 241.104 353.745Z" fill="#FFCCCE"/>
<path d="M263.759 224.584C268.537 235.838 268.413 233.185 264.794 235.127C254.194 211.405 251.138 199.895 236.615 168.139C230.565 154.921 224.919 137.45 214.992 131.998C210.998 129.805 206.22 130.894 202.503 131.998C168.687 142.646 135.611 155.513 103.489 170.517C92.1662 175.925 75.6001 182.326 71.5543 195.428C69.4344 202.295 75.0857 215.195 75.838 217.054C86.6571 243.818 80.2328 233.371 131.596 354.951C125.552 357.182 125.249 358.803 124.455 356.502C118.217 338.406 81.9779 258.202 67.1517 213.956C65.205 208.145 63.4755 201.912 64.8767 196.822C66.919 189.397 74.0516 181.773 82.9938 176.6C112.339 159.62 179.058 135.273 201.575 128.81C206.386 127.429 210.427 125.845 215.494 127.776C224.332 131.137 228.802 140.257 232.9 149.768C252.369 194.945 262.115 220.706 263.759 224.584Z" fill="white"/>
<path d="M247.727 268.928C245.86 276.598 246.256 279.602 243.735 279.09C235.629 277.841 227.416 277.424 219.225 277.844C219.881 274.587 221.906 265.624 222.182 264.28C222.402 263.225 222.195 262.91 225.584 262.933C230.997 262.976 236.383 263.705 241.613 265.102C246.015 266.27 248.461 265.903 247.727 268.928Z" fill="white"/>
<path d="M240.744 294.39C242.832 294.891 242.39 294.581 240.573 303.642C240.488 304.069 240.498 304.966 238.986 304.813C230.254 303.728 221.393 304.383 212.916 306.742C215.442 294.85 215.091 293.681 218.064 293.213C225.625 292.052 233.343 292.453 240.744 294.39Z" fill="white"/>
<path d="M237.238 318.021C238.469 318.155 238.148 319.673 237.898 321.059C236.667 327.897 237.122 330.756 234.082 330.513C231.298 330.276 228.497 330.359 225.732 330.758C211.438 332.896 208.491 343.943 205.727 346.906C205.184 347.487 204.435 346.686 203.563 346.363C204.517 342.301 207.441 328.638 207.78 327.666C208.21 326.661 208.818 325.74 209.574 324.949C214.527 319.794 221.208 318.228 227.609 317.628C230.824 317.465 234.047 317.597 237.238 318.021Z" fill="white"/>
<path d="M235.452 345.526C240.24 349.032 238.691 356.534 236.31 359.585C231.331 365.962 218.4 363.698 218.646 354.256C218.938 342.905 229.907 341.465 235.452 345.526Z" fill="white"/>
<path d="M204.065 298.268C199.541 319.316 201.346 312.871 197.925 316.69C192.834 322.114 188.723 328.382 185.775 335.213C185.602 335.582 185.545 336.686 184.353 335.9C182.075 334.401 179.547 333.357 176.856 331.286C175.305 330.097 175.762 329.624 176.248 328.465C179.19 321.496 193.15 302.686 204.065 298.268Z" fill="white"/>
<path d="M179.368 449.552C184.616 457.377 182.861 464.719 181.917 469.898C180.32 478.654 174.961 483.273 174.312 489.664C174.538 493.025 175.59 496.277 177.375 499.134C159.225 504.139 143.356 482.519 145.774 471.844C147.144 473.026 148.359 474.246 149.729 475.228C152.361 477.097 154.654 475.942 154.899 472.723C156.314 454.885 163.772 444.477 166.82 442.507C171.044 439.777 176.395 445.118 179.368 449.552Z" fill="#D6AD9E"/>
<path d="M157.989 394.623C168.717 398.873 174.384 403.721 170.054 423.172C168.564 428.622 166.484 433.894 163.85 438.892C162.991 440.702 156.262 437.551 146.973 454.075C144.164 452.159 141.487 450.057 138.959 447.783C135.309 443.98 125.775 437.933 127.476 423.823C128.366 425.2 129.603 426.318 131.061 427.067C132.52 427.816 134.149 428.169 135.787 428.091C141.761 428.125 132.54 426.367 147.857 399.639C149.463 396.81 153.741 392.943 157.989 394.623Z" fill="#D6AD9E"/>
<path d="M151.914 450.294C156.854 442.355 161.479 442.342 162.908 441.959C159.354 447.809 157.149 450.516 155.383 456.736C153.733 462.175 152.676 467.776 152.229 473.442C150.735 473.064 149.373 472.287 148.286 471.194C147.2 470.101 146.432 468.733 146.063 467.237C145.251 460.125 150.833 452.046 151.914 450.294Z" fill="#E2BFB5"/>
<path d="M136.689 400.582C143.569 391.842 148.429 393.282 149.98 393.233C142.578 399.01 135.332 418.436 135.691 423.997C135.914 427.401 118.699 423.441 136.689 400.582Z" fill="#E2BFB5"/>
<path d="M145.782 361.535C152.1 367.222 150.236 379.97 148.796 389.23C148.788 389.576 148.646 389.905 148.399 390.146C148.152 390.388 147.82 390.523 147.475 390.523C136.736 392.224 129.624 406.753 128.344 407.247C126.633 407.909 117.486 405.365 115.186 397.079C116.426 397.362 117.681 397.575 118.944 397.718C124.042 398.023 118.042 384.492 124.632 363.148C125.782 359.418 132.323 355.199 141.451 358.384C143.081 359.15 144.551 360.22 145.782 361.535Z" fill="#D6AD9E"/>
<path d="M122.299 361.012C115.979 386.481 120.009 380.843 118.559 394.997C110.581 394.896 111.628 385.995 112.734 378.092C113.502 372.609 117.183 362.291 122.299 361.012Z" fill="#E2BFB5"/>
<path d="M447.246 529.774C484.845 608.067 493.487 612.656 490.359 614.311C488.893 615.086 488.033 613.171 487.316 611.896C458.313 560.89 468.419 579.462 458.949 560.13C408.842 457.823 446.457 529.418 420.778 432.113C419.599 427.648 418.002 423.29 416.844 418.817C416.844 418.76 411.74 380.634 392.214 351.741C381.987 336.61 374.18 332.611 362.024 310.551C345.2 280.043 329.259 285.772 313.306 272.241C299.881 260.853 300.638 261.797 297.795 262.787C291.492 264.984 289.473 275.131 283.651 269.309C278.16 263.502 274.069 256.516 271.689 248.886C270.817 246.586 270.692 244.068 271.333 241.693C271.974 239.317 273.348 237.204 275.259 235.655C271.382 234.536 266.457 237.191 263.758 239.463C261.56 241.887 259.936 244.774 259.006 247.911C258.076 251.047 257.864 254.353 258.386 257.583C260.019 270.622 265.424 282.901 273.936 292.912C294.359 318.697 330.673 326.853 322.685 358.908C322.204 360.836 324.996 367.79 326.628 371.952C345.006 418.851 356.081 438.728 350.437 452.352C347.687 458.999 340.735 463.373 328.722 470.041C356.44 520.842 391.951 525.483 409.858 511.453C411.567 510.114 412.857 512.042 411.221 513.446C396.728 525.873 377.719 518.834 369.49 516.941C370.048 523.053 368.991 529.204 366.427 534.779C361.378 547.511 355.613 550.032 343.979 555.479C342.26 556.286 342.291 555.906 341.037 555.399C342.909 550.875 357.149 549.916 362.696 536.32C367.045 525.659 366.921 524.41 366.608 516.225C366.528 514.157 363.304 515.287 350.949 504.106C339.515 493.765 333.225 482.305 326.868 472.458C326.459 471.822 326.576 471.274 324.833 472.062C323.463 472.683 320.18 474.422 314.601 476.816C252.039 503.607 222.002 513.193 217.943 515.196C226.554 523.818 232.678 524.762 248.169 532.82C257.856 537.858 266.361 546.408 280.81 550.076C287.924 551.886 298.002 558.967 310.23 559C326.286 559.047 323.975 559.662 331.095 557.989C333.52 557.418 334.675 559.781 331.844 560.727C323.008 563.682 308.381 561.068 305.121 561.761C305.444 564.246 306.512 565.122 309.712 565.567C317.093 566.575 320.808 567.767 340.916 566.234C342.519 566.109 344.091 565.554 345.701 565.422C346.298 565.373 346.942 565.978 347.57 566.28C347.208 566.818 346.947 567.71 346.474 567.831C330.105 572.226 309.053 567.986 308.989 567.981C311.92 575.478 309.588 569.232 313.988 583.536C317.034 593.443 318.298 594.485 320.255 600.051C321.813 604.902 323.35 609.761 324.864 614.626C324.952 614.882 324.947 615.161 324.849 615.413C324.751 615.665 324.567 615.874 324.329 616.004C324.092 616.133 323.816 616.174 323.551 616.12C323.286 616.066 323.049 615.919 322.882 615.707C321.47 613.869 321.558 612.863 317.021 599.231C314.914 595.12 313.183 590.827 311.85 586.403C309.661 579.811 312.109 584.175 306.163 568.565C305.661 567.25 301.848 565.789 302.451 560.98C297.709 559.816 293.089 558.202 288.653 556.159C277.752 551.071 274.218 552.666 263.398 545.64C237.523 528.836 226.171 527.887 216.327 516.905C212.894 513.079 193.182 531.431 178.353 501.609C162.829 508.426 138.618 486.979 143.452 468.965C143.68 465.623 144.125 462.299 144.784 459.015C146.374 453.115 129.976 449.504 125.796 434.292C124.506 430.425 124.34 426.27 125.317 422.312C126.251 420.133 124.836 422.442 127.522 409.96C124.511 409.231 117.82 408.642 114.477 401.594C113.748 400.059 113.309 398.381 112.668 396.796C111.22 393.969 110.203 390.941 109.651 387.813C109.182 381.58 110.064 375.319 112.236 369.458C118.133 354.174 124.234 362.61 120.651 353.323C117.104 344.128 103.806 315.561 72.0231 233.494C64.8905 215.077 58.7403 203.076 64.1512 192.373C70.1876 180.443 81.4721 173.501 110.057 161.279C137.465 149.48 165.34 138.795 193.613 129.25C206.389 124.931 213.747 122.123 222.457 129.475C231.797 137.363 233.679 147.228 262.509 215.534C268.504 229.753 268.835 232.876 270.854 232.597C276.211 231.86 277.015 233.68 278.059 233.564C288.917 232.343 291.464 254.687 302.174 260.09C306.858 262.456 317.217 274.051 330.283 278.748C356.812 288.28 363.441 308.17 371.308 320.054C384.278 339.648 407.201 353.101 418.374 412.827C418.878 415.524 433.57 464.423 433.689 483.367C433.787 498.992 432.016 498.067 447.246 529.774ZM349.008 438.072C347.438 428.597 342.227 417.837 337.948 406.55C333.951 396.005 311.938 340.503 306.471 328.177C304.224 323.115 305.954 324.607 299.467 320.359C299.672 322.89 320.532 370.838 334.06 407.548C340.125 424.011 345.241 436.425 345.228 441.042C345.21 449.137 339.99 453.304 329.758 458.898C319.159 464.699 304.408 469.929 292.79 475.014C191.853 519.222 196.493 515.434 180.636 481.788C179.17 484.23 178.02 486.848 177.213 489.58C177.217 492.36 177.956 495.09 179.356 497.493C181.398 502.009 184.614 510.065 191.457 513.806C200.234 518.601 207.969 515.569 219.005 511.629C257.783 497.793 293.092 483.825 316.282 472.951C323.97 469.575 331.408 465.655 338.54 461.222C348.131 454.617 351.001 450.134 349.005 438.077L349.008 438.072ZM320.423 356.565C321.348 352.465 321.3 348.206 320.283 344.128C317.808 337.681 313.844 331.911 308.715 327.288C312.693 336.429 316.592 347.098 320.436 356.565H320.423ZM294.829 260.913C296.732 259.62 296.784 259.824 295.507 257.79C286.914 244.088 282.175 229.942 275.714 239.031C272.672 243.31 272.85 244.866 277.392 255.711C279.524 259.94 282.27 263.829 285.541 267.254C287.88 269.857 289.212 264.767 294.84 260.913H294.829ZM264.789 235.133C268.409 233.191 268.538 235.846 263.755 224.59C262.108 220.713 252.365 194.951 232.896 149.759C228.798 140.248 224.328 131.114 215.489 127.767C210.422 125.846 206.382 127.43 201.571 128.801C179.059 135.271 112.339 159.619 82.9922 176.601C74.0499 181.772 66.9174 189.398 64.875 196.823C63.4739 201.913 65.2034 208.146 67.15 213.957C81.9762 258.203 118.216 338.407 124.454 356.503C125.247 358.809 125.581 357.175 131.594 354.952C80.2234 233.375 86.6554 243.822 75.8363 217.057C75.084 215.198 69.4328 202.298 71.5526 195.432C75.5985 182.33 92.1645 175.929 103.488 170.521C135.609 155.517 168.685 142.649 202.501 132.001C206.219 130.897 210.996 129.809 214.99 132.001C224.928 137.453 230.574 154.916 236.623 168.142C251.134 199.902 254.195 211.403 264.789 235.125V235.133ZM181.923 469.896C182.867 464.725 184.622 457.378 179.374 449.55C176.404 445.116 171.055 439.775 166.836 442.505C163.788 444.475 156.329 454.896 154.915 472.721C154.657 475.94 152.366 477.096 149.745 475.226C148.364 474.244 147.16 473.024 145.79 471.842C143.372 482.517 159.233 504.137 177.391 499.132C175.606 496.276 174.554 493.023 174.328 489.662C174.961 483.272 180.32 478.652 181.918 469.896H181.923ZM170.059 423.171C174.39 403.72 168.723 398.87 157.994 394.622C153.747 392.939 149.463 396.809 147.847 399.637C132.525 426.366 141.746 428.124 135.772 428.09C134.134 428.168 132.505 427.815 131.046 427.066C129.588 426.317 128.351 425.199 127.46 423.822C125.77 437.932 135.294 443.987 138.944 447.782C141.472 450.056 144.149 452.158 146.958 454.074C156.247 437.55 162.986 440.693 163.834 438.891C166.474 433.893 168.559 428.622 170.054 423.171H170.059ZM162.924 441.957C161.495 442.34 156.87 442.353 151.929 450.292C150.838 452.045 145.257 460.116 146.079 467.243C146.448 468.739 147.216 470.107 148.302 471.2C149.388 472.293 150.751 473.07 152.245 473.448C152.692 467.782 153.749 462.181 155.399 456.742C157.157 450.514 159.364 447.808 162.919 441.957H162.924ZM149.985 393.231C148.434 393.28 143.574 391.841 136.695 400.581C118.704 423.44 135.919 427.408 135.697 423.998C135.332 418.435 142.579 399.009 149.98 393.231H149.985ZM148.801 389.229C150.241 379.969 152.105 367.216 145.787 361.534C144.556 360.224 143.087 359.159 141.459 358.396C132.331 355.208 125.79 359.43 124.64 363.16C118.053 384.504 124.053 398.035 118.952 397.73C117.689 397.587 116.434 397.374 115.194 397.091C117.487 405.364 126.641 407.921 128.352 407.259C129.627 406.765 136.739 392.236 147.483 390.535C147.829 390.533 148.161 390.395 148.407 390.151C148.652 389.907 148.792 389.576 148.796 389.229H148.801ZM118.554 394.997C120.005 380.843 115.969 386.481 122.295 361.012C117.179 362.304 113.505 372.609 112.73 378.092C111.629 385.995 110.582 394.896 118.565 394.997H118.554Z" fill="#000001"/>
<path d="M229.276 340.91C237.254 341.026 241.427 346.51 241.111 353.743C240.837 360.307 236.013 366.713 226.052 365.529C212.01 363.861 213.31 340.675 229.276 340.91ZM236.31 359.583C238.691 356.532 240.24 349.03 235.452 345.525C229.907 341.463 218.938 342.903 218.648 354.255C218.4 363.696 231.331 365.961 236.31 359.583Z" fill="#000001"/>
<path d="M211.813 147.282C212.769 150.413 209.69 150.643 204.14 153.027C186.211 160.687 189.115 160.219 184.358 149.948C183.344 147.761 183.582 146.44 186.1 145.067C191.762 142.336 197.57 139.919 203.499 137.828C206.017 136.872 206.978 136.655 208.312 138.937C209.798 141.574 210.973 144.375 211.813 147.282ZM205.513 150.752C211.04 148.702 210.318 148.167 209.698 146.52C207.309 140.165 206.435 138.669 204.965 139.245C204.235 139.532 199.112 141.277 193.646 143.521C191.222 144.514 188.802 145.731 186.578 146.851C185.162 147.564 185.286 147.96 188.797 155.397C188.899 155.634 189.048 155.848 189.234 156.027C189.419 156.207 189.638 156.348 189.878 156.442C190.118 156.537 190.375 156.583 190.633 156.579C190.891 156.574 191.145 156.519 191.382 156.416C193.476 155.832 195.764 154.369 205.513 150.752Z" fill="#000001"/>
<path d="M153.891 158.934C153.979 159.317 154.612 160.558 152.599 161.584C151.699 162.042 149.566 162.877 144.067 165.366C132.747 170.459 131.48 171.829 130.547 169.502C130.079 168.329 129.513 167.571 130.311 166.762C131.689 165.384 135.976 163.918 143.607 160.446C146.249 159.143 148.994 158.061 151.815 157.212C152.867 156.987 153.604 157.67 153.891 158.934Z" fill="#000001"/>
<path d="M205.513 150.755C211.04 148.705 210.319 148.17 209.698 146.523C207.309 140.169 206.436 138.672 204.965 139.248C204.236 139.535 199.112 141.28 193.647 143.524C191.222 144.517 188.802 145.735 186.579 146.854C185.162 147.568 185.286 147.963 188.797 155.401C188.9 155.637 189.048 155.851 189.234 156.031C189.419 156.21 189.638 156.351 189.878 156.445C190.118 156.54 190.375 156.586 190.633 156.582C190.891 156.577 191.145 156.522 191.382 156.419C193.476 155.835 195.764 154.372 205.513 150.755Z" fill="white"/>
<path d="M203.223 147.459C203.345 147.762 203.343 148.102 203.219 148.405C203.094 148.707 202.856 148.949 202.556 149.079C200.842 149.819 198.107 150.889 191.985 153.49C190.871 153.966 190.434 153.888 190.023 153.162C189.356 151.984 188.822 150.736 188.43 149.441C188.058 148.26 188.5 148.301 200.322 143.392C201.374 142.953 202.344 145.269 203.223 147.459Z" fill="#000001"/>
<g filter="url(#filter0_d_575_7138)">
<circle cx="251.763" cy="425.154" r="29.3272" transform="rotate(-22.2917 251.763 425.154)" fill="white"/>
<circle cx="251.763" cy="425.154" r="28.7406" transform="rotate(-22.2917 251.763 425.154)" stroke="black" stroke-width="1.17309"/>
<circle cx="251.763" cy="425.154" r="28.7406" transform="rotate(-22.2917 251.763 425.154)" stroke="black" stroke-opacity="0.2" stroke-width="1.17309"/>
</g>
<circle cx="251.763" cy="425.155" r="52.6556" transform="rotate(-22.2917 251.763 425.155)" fill="white"/>
<circle cx="251.763" cy="425.155" r="52.0691" transform="rotate(-22.2917 251.763 425.155)" stroke="#DDD4F3" stroke-opacity="0.5" stroke-width="1.17309"/>
<g filter="url(#filter1_d_575_7138)">
<circle cx="251.763" cy="425.156" r="29.3272" transform="rotate(-22.2917 251.763 425.156)" fill="white"/>
<circle cx="251.763" cy="425.156" r="28.7406" transform="rotate(-22.2917 251.763 425.156)" stroke="black" stroke-width="1.17309"/>
<circle cx="251.763" cy="425.156" r="28.7406" transform="rotate(-22.2917 251.763 425.156)" stroke="black" stroke-opacity="0.2" stroke-width="1.17309"/>
</g>
<g filter="url(#filter2_d_575_7138)">
<path d="M234.196 423.355L232.167 418.406C232.084 418.202 232.181 417.969 232.385 417.886L260.084 406.531C260.288 406.447 260.521 406.544 260.604 406.748L262.633 411.697C262.717 411.901 262.619 412.134 262.415 412.218L259.941 413.232L262.848 420.323C264.57 424.525 262.561 429.327 258.359 431.05L250.825 434.138L254.125 442.189C249.924 443.912 245.121 441.902 243.399 437.7L237.191 422.559L234.717 423.573C234.513 423.657 234.28 423.559 234.196 423.355Z" fill="#BDA6FF"/>
<path d="M234.196 423.355L232.167 418.406C232.084 418.202 232.181 417.969 232.385 417.886L260.084 406.531C260.288 406.447 260.521 406.544 260.604 406.748L262.633 411.697C262.717 411.901 262.619 412.134 262.415 412.218L259.941 413.232L262.848 420.323C264.57 424.525 262.561 429.327 258.359 431.05L250.825 434.138L254.125 442.189C249.924 443.912 245.121 441.902 243.399 437.7L237.191 422.559L234.717 423.573C234.513 423.657 234.28 423.559 234.196 423.355Z" stroke="black" stroke-width="0.997852"/>
</g>
<g filter="url(#filter3_d_575_7138)">
<path d="M244.68 421.607L247.24 420.077L246.77 418.932C246.603 418.524 246.798 418.058 247.206 417.89L249.533 416.937C249.941 416.769 250.407 416.964 250.574 417.372L251.044 418.517L253.941 417.81C254.3 417.723 254.672 417.893 254.841 418.222L257.422 423.272C257.635 423.687 257.447 424.196 257.014 424.374L247.098 428.439C246.666 428.616 246.174 428.386 246.034 427.94L244.328 422.532C244.217 422.179 244.363 421.796 244.68 421.607Z" fill="white"/>
<path d="M244.68 421.607L247.24 420.077L246.77 418.932C246.603 418.524 246.798 418.058 247.206 417.89L249.533 416.937C249.941 416.769 250.407 416.964 250.574 417.372L251.044 418.517L253.941 417.81C254.3 417.723 254.672 417.893 254.841 418.222L257.422 423.272C257.635 423.687 257.447 424.196 257.014 424.374L247.098 428.439C246.666 428.616 246.174 428.386 246.034 427.94L244.328 422.532C244.217 422.179 244.363 421.796 244.68 421.607Z" stroke="black" stroke-width="0.997852"/>
</g>
<path d="M250.16 419.034L248.239 419.822L247.838 418.843C247.805 418.761 247.844 418.668 247.925 418.635L249.55 417.969C249.632 417.935 249.725 417.974 249.759 418.056L250.16 419.034Z" fill="#28273C" stroke="black" stroke-width="0.0399141"/>
<path d="M256.634 423.993C256.7 423.74 256.698 423.474 256.628 423.222L256.382 422.327L257.033 423.595C257.087 423.699 257.039 423.826 256.931 423.871L256.634 423.993V423.993Z" fill="#BDA6FF"/>
<path d="M245.028 422.965C244.98 422.534 245.11 422.102 245.386 421.768V421.768L244.919 422.052C244.808 422.119 244.758 422.253 244.798 422.377L245.05 423.157L245.028 422.965Z" fill="#BDA6FF"/>
<path d="M232.661 418.291L235.874 416.974L234.026 418.939L233.244 419.713L232.661 418.291Z" fill="#3100BE"/>
<path d="M257.855 430.716C261.204 428.766 262.903 424.871 262.055 421.089L261.371 418.037L262.262 419.923C264.242 424.117 262.205 429.107 257.855 430.716V430.716V430.716Z" fill="#3100BE"/>
<path d="M197.441 133.527L197.441 133.527L197.448 133.524L200.58 132.306C209 129.032 218.567 131.971 223.696 139.408C224.313 140.303 224.854 141.247 225.313 142.232L235.02 163.033L264.028 233.95C261.154 236.896 259.001 240.47 257.741 244.392L257.42 245.39C255.942 249.989 255.56 254.871 256.306 259.644L256.83 262.999C257.395 266.612 258.395 270.144 259.81 273.517L260.93 276.19C263.087 281.333 265.859 286.196 269.184 290.673L271.028 293.155C275.095 298.63 279.786 303.612 285.005 308.001L298.931 319.711L344.217 434.244C345.143 436.588 345.524 439.112 345.331 441.624C344.911 447.076 341.835 451.971 337.106 454.715L320.105 464.575L221.767 505.234C218.608 506.54 215.263 507.339 211.855 507.601L206.446 508.017C201.015 508.435 195.65 506.601 191.611 502.947C189.094 500.67 187.204 497.785 186.12 494.569L181.77 481.66L183.867 474.582C185.093 470.446 185.522 466.116 185.131 461.82L185.101 461.487C184.845 458.671 184.212 455.903 183.219 453.255L182.977 452.608C182.123 450.332 180.962 448.184 179.524 446.224C177.286 443.172 174.422 440.634 171.123 438.778L168.437 437.267L171.275 427.333C171.964 424.925 172.475 422.469 172.806 419.986L173.855 412.118C174.157 409.857 173.961 407.557 173.28 405.379C172.287 402.2 170.305 399.42 167.624 397.445L164.506 395.147C162.94 393.993 161.255 393.009 159.481 392.21L152.47 389.055L152.47 379.452L152.47 379.428L152.468 379.404L151.446 368.846C151.133 365.609 149.764 362.564 147.551 360.181C145.43 357.897 142.645 356.339 139.589 355.728L131.974 354.205L125.635 340.551L72.6872 208.801C69.4902 200.366 71.934 190.832 78.7946 184.976L85.4089 179.33C86.7146 178.215 88.176 177.297 89.7469 176.604L133.445 157.34L197.441 133.527Z" fill="white" stroke="black" stroke-width="0.992403"/>
<g filter="url(#filter4_d_575_7138)">
<circle cx="215.552" cy="324.553" r="29.5517" transform="rotate(-22.2917 215.552 324.553)" fill="white"/>
<circle cx="215.552" cy="324.553" r="28.9607" transform="rotate(-22.2917 215.552 324.553)" stroke="black" stroke-width="1.18207"/>
<circle cx="215.552" cy="324.553" r="28.9607" transform="rotate(-22.2917 215.552 324.553)" stroke="black" stroke-opacity="0.2" stroke-width="1.18207"/>
</g>
<circle cx="215.553" cy="324.553" r="53.0587" transform="rotate(-22.2917 215.553 324.553)" fill="white"/>
<circle cx="215.553" cy="324.553" r="52.4677" transform="rotate(-22.2917 215.553 324.553)" stroke="#DDD4F3" stroke-opacity="0.5" stroke-width="1.18207"/>
<g filter="url(#filter5_d_575_7138)">
<circle cx="215.553" cy="324.553" r="29.5517" transform="rotate(-22.2917 215.553 324.553)" fill="white"/>
<circle cx="215.553" cy="324.553" r="28.9607" transform="rotate(-22.2917 215.553 324.553)" stroke="black" stroke-width="1.18207"/>
<circle cx="215.553" cy="324.553" r="28.9607" transform="rotate(-22.2917 215.553 324.553)" stroke="black" stroke-opacity="0.2" stroke-width="1.18207"/>
</g>
<g filter="url(#filter6_d_575_7138)">
<path d="M197.851 322.74L195.807 317.753C195.723 317.547 195.821 317.313 196.027 317.228L223.937 305.786C224.142 305.702 224.377 305.8 224.462 306.006L226.506 310.992C226.59 311.198 226.492 311.433 226.286 311.517L223.793 312.539L226.722 319.684C228.458 323.918 226.433 328.757 222.199 330.493L214.607 333.605L217.933 341.718C213.699 343.454 208.86 341.429 207.124 337.195L200.869 321.937L198.376 322.959C198.17 323.043 197.936 322.945 197.851 322.74Z" fill="#BDA6FF"/>
<path d="M197.851 322.74L195.807 317.753C195.723 317.547 195.821 317.313 196.027 317.228L223.937 305.786C224.142 305.702 224.377 305.8 224.462 306.006L226.506 310.992C226.59 311.198 226.492 311.433 226.286 311.517L223.793 312.539L226.722 319.684C228.458 323.918 226.433 328.757 222.199 330.493L214.607 333.605L217.933 341.718C213.699 343.454 208.86 341.429 207.124 337.195L200.869 321.937L198.376 322.959C198.17 323.043 197.936 322.945 197.851 322.74Z" stroke="black" stroke-width="1.00549"/>
</g>
<g filter="url(#filter7_d_575_7138)">
<path d="M208.417 320.976L210.996 319.434L210.523 318.281C210.355 317.87 210.551 317.4 210.962 317.231L213.307 316.27C213.718 316.102 214.188 316.298 214.356 316.709L214.829 317.863L217.748 317.151C218.11 317.062 218.485 317.234 218.655 317.566L221.257 322.654C221.471 323.073 221.281 323.586 220.846 323.764L210.853 327.861C210.418 328.039 209.923 327.807 209.781 327.358L208.063 321.909C207.951 321.553 208.097 321.167 208.417 320.976Z" fill="white"/>
<path d="M208.417 320.976L210.996 319.434L210.523 318.281C210.355 317.87 210.551 317.4 210.962 317.231L213.307 316.27C213.718 316.102 214.188 316.298 214.356 316.709L214.829 317.863L217.748 317.151C218.11 317.062 218.485 317.234 218.655 317.566L221.257 322.654C221.471 323.073 221.281 323.586 220.846 323.764L210.853 327.861C210.418 328.039 209.923 327.807 209.781 327.358L208.063 321.909C207.951 321.553 208.097 321.167 208.417 320.976Z" stroke="black" stroke-width="1.00549"/>
</g>
<path d="M213.937 318.385L212.002 319.178L211.598 318.192C211.564 318.11 211.604 318.016 211.686 317.982L213.323 317.311C213.405 317.277 213.499 317.316 213.533 317.399L213.937 318.385Z" fill="#28273C" stroke="black" stroke-width="0.0402196"/>
<path d="M220.462 323.379C220.528 323.124 220.526 322.856 220.456 322.602L220.208 321.701L220.864 322.978C220.918 323.083 220.871 323.212 220.762 323.256L220.462 323.379V323.379Z" fill="#BDA6FF"/>
<path d="M208.768 322.345C208.719 321.91 208.85 321.475 209.128 321.139V321.139L208.657 321.425C208.546 321.492 208.495 321.628 208.535 321.752L208.789 322.538L208.768 322.345Z" fill="#BDA6FF"/>
<path d="M196.304 317.637L199.541 316.309L197.68 318.29L196.891 319.069L196.304 317.637Z" fill="#3100BE"/>
<path d="M221.692 330.157C225.066 328.191 226.779 324.267 225.924 320.457L225.235 317.381L226.132 319.281C228.128 323.507 226.075 328.535 221.692 330.157V330.157V330.157Z" fill="#3100BE"/>
</g>
<g clip-path="url(#clip2_575_7138)">
<g filter="url(#filter8_d_575_7138)">
<rect width="4.96119" height="4.96119" rx="2.4806" transform="matrix(0 1 1 0 235.814 127.539)" fill="white"/>
<rect x="0.413433" y="0.413433" width="4.13433" height="4.13433" rx="2.06716" transform="matrix(0 1 1 0 235.814 127.539)" stroke="black" stroke-width="0.826865"/>
</g>
<g filter="url(#filter9_d_575_7138)">
<rect width="4.96119" height="4.96119" rx="2.4806" transform="matrix(0 1 1 0 201.914 120.098)" fill="white"/>
<rect x="0.413433" y="0.413433" width="4.13433" height="4.13433" rx="2.06716" transform="matrix(0 1 1 0 201.914 120.098)" stroke="black" stroke-width="0.826865"/>
</g>
<path d="M215.145 300.535L215.145 43.1992L18.4472 43.1992L117.566 127.873C148.487 154.287 172.279 188.044 186.76 226.046L215.145 300.535Z" fill="url(#paint0_linear_575_7138)"/>
<path d="M215.145 300.535L215.145 43.1992L412.594 43.1992L313.053 127.91C282.044 154.299 258.167 188.062 243.62 226.092L215.145 300.535Z" fill="url(#paint1_linear_575_7138)"/>
<path d="M187.789 45.3359L170.694 62.9646M170.694 62.9646L155.202 45.3359M170.694 62.9646L153.066 69.375M170.694 62.9646L185.118 85.9353L127.424 84.3327M127.424 84.3327L116.206 45.3359L125.821 52.8148M127.424 84.3327L114.069 97.6877M125.821 52.8148H131.163M125.821 52.8148L129.561 59.2252M114.069 97.6877L106.59 89.1405M114.069 97.6877H108.193M114.069 97.6877L119.945 100.893" stroke="white" stroke-width="1.0684"/>
<path d="M302.642 45.3359L285.548 62.9646M285.548 62.9646L270.056 45.3359M285.548 62.9646L267.919 69.375M285.548 62.9646L299.971 85.9353L242.277 84.3327M242.277 84.3327L231.059 45.3359L240.675 52.8148M242.277 84.3327L228.922 97.6877M240.675 52.8148H246.017M240.675 52.8148L244.414 59.2252M228.922 97.6877L221.443 89.1405M228.922 97.6877H223.046M228.922 97.6877L234.799 100.893" stroke="white" stroke-width="1.0684"/>
<path d="M275.741 90.7917L270.942 114.874M270.942 114.874L248.365 108.467M270.942 114.874L259.609 129.821M270.942 114.874L295.519 126.348L246.181 156.296M246.181 156.296L215.604 129.619L227.739 130.687M246.181 156.296L242.205 174.76M227.739 130.687L232.226 127.789M227.739 130.687L234.357 134.044M242.205 174.76L237.268 177.947M242.205 174.76L248.88 174.265M242.205 174.76L231.286 171.636L214.551 202.41L214.648 217.923" stroke="white" stroke-width="1.0684"/>
<path d="M225.538 147.478L200.995 146.7M200.995 146.7L203.606 123.377M200.995 146.7L184.389 137.976M200.995 146.7L192.056 171.575M215.229 202.7L192.056 171.575M156.068 129.079L177.359 94.5355L178.3 106.681M156.068 129.079L137.202 128.191M156.068 129.079L192.056 171.575M178.3 106.681L181.895 110.632M178.3 106.681L176.075 113.761M137.202 128.191L138.49 116.907M137.202 128.191L133.247 123.845M137.202 128.191L138.786 134.694" stroke="white" stroke-width="1.0684"/>
<g filter="url(#filter10_d_575_7138)">
<rect width="6.41042" height="6.41042" rx="3.20521" transform="matrix(0 1 1 0 166.954 59.2246)" fill="white"/>
<rect x="0.534202" y="0.534202" width="5.34202" height="5.34202" rx="2.67101" transform="matrix(0 1 1 0 166.954 59.2246)" stroke="black" stroke-width="1.0684"/>
</g>
<g filter="url(#filter11_d_575_7138)">
<rect width="6.41042" height="6.41042" rx="3.20521" transform="matrix(0 1 1 0 237.737 170.73)" fill="white"/>
<rect x="0.534202" y="0.534202" width="5.34202" height="5.34202" rx="2.67101" transform="matrix(0 1 1 0 237.737 170.73)" stroke="black" stroke-width="1.0684"/>
</g>
<g filter="url(#filter12_d_575_7138)">
<rect width="6.41042" height="6.41042" rx="3.20521" transform="matrix(0 1 1 0 211.557 199.236)" fill="white"/>
<rect x="0.534202" y="0.534202" width="5.34202" height="5.34202" rx="2.67101" transform="matrix(0 1 1 0 211.557 199.236)" stroke="black" stroke-width="1.0684"/>
</g>
<g filter="url(#filter13_d_575_7138)">
<rect width="6.41042" height="6.41042" rx="3.20521" transform="matrix(0 1 1 0 266.316 111.578)" fill="white"/>
<rect x="0.534202" y="0.534202" width="5.34202" height="5.34202" rx="2.67101" transform="matrix(0 1 1 0 266.316 111.578)" stroke="black" stroke-width="1.0684"/>
</g>
<g filter="url(#filter14_d_575_7138)">
<rect width="6.41042" height="6.41042" rx="3.20521" transform="matrix(0 1 1 0 281.273 59.2246)" fill="white"/>
<rect x="0.534202" y="0.534202" width="5.34202" height="5.34202" rx="2.67101" transform="matrix(0 1 1 0 281.273 59.2246)" stroke="black" stroke-width="1.0684"/>
</g>
<g filter="url(#filter15_d_575_7138)">
<rect width="6.41042" height="6.41042" rx="3.20521" transform="matrix(0 1 1 0 237.469 80.5918)" fill="white"/>
<rect x="0.534202" y="0.534202" width="5.34202" height="5.34202" rx="2.67101" transform="matrix(0 1 1 0 237.469 80.5918)" stroke="black" stroke-width="1.0684"/>
</g>
<g filter="url(#filter16_d_575_7138)">
<rect width="6.41042" height="6.41042" rx="3.20521" transform="matrix(0 1 1 0 189.391 168.203)" fill="white"/>
<rect x="0.534202" y="0.534202" width="5.34202" height="5.34202" rx="2.67101" transform="matrix(0 1 1 0 189.391 168.203)" stroke="black" stroke-width="1.0684"/>
</g>
<g filter="url(#filter17_d_575_7138)">
<rect width="6.41042" height="6.41042" rx="3.20521" transform="matrix(0 1 1 0 153.066 125.467)" fill="white"/>
<rect x="0.534202" y="0.534202" width="5.34202" height="5.34202" rx="2.67101" transform="matrix(0 1 1 0 153.066 125.467)" stroke="black" stroke-width="1.0684"/>
</g>
<g filter="url(#filter18_d_575_7138)">
<rect width="23.5049" height="23.5049" rx="11.7524" transform="matrix(0 1 1 0 174.434 74.1836)" fill="white"/>
<rect x="1.95874" y="1.95874" width="19.5874" height="19.5874" rx="9.7937" transform="matrix(0 1 1 0 174.434 74.1836)" stroke="black" stroke-width="3.91748"/>
</g>
<g filter="url(#filter19_d_575_7138)">
<rect width="23.5049" height="23.5049" rx="11.7524" transform="matrix(0 1 1 0 287.684 72.0469)" fill="white"/>
<rect x="1.95874" y="1.95874" width="19.5874" height="19.5874" rx="9.7937" transform="matrix(0 1 1 0 287.684 72.0469)" stroke="black" stroke-width="3.91748"/>
</g>
<g filter="url(#filter20_d_575_7138)">
<rect width="23.5049" height="23.5049" rx="11.7524" transform="matrix(0 1 1 0 232.128 141.492)" fill="white"/>
<rect x="1.95874" y="1.95874" width="19.5874" height="19.5874" rx="9.7937" transform="matrix(0 1 1 0 232.128 141.492)" stroke="black" stroke-width="3.91748"/>
</g>
<g filter="url(#filter21_d_575_7138)">
<rect width="23.5049" height="23.5049" rx="11.7524" transform="matrix(0 1 1 0 188.323 134.014)" fill="white"/>
<rect x="1.95874" y="1.95874" width="19.5874" height="19.5874" rx="9.7937" transform="matrix(0 1 1 0 188.323 134.014)" stroke="black" stroke-width="3.91748"/>
</g>
<g filter="url(#filter22_d_575_7138)">
<rect width="23.5049" height="23.5049" rx="11.7524" transform="matrix(0 1 1 0 119.945 43.1992)" fill="white"/>
<rect x="1.95874" y="1.95874" width="19.5874" height="19.5874" rx="9.7937" transform="matrix(0 1 1 0 119.945 43.1992)" stroke="black" stroke-width="3.91748"/>
</g>
<g filter="url(#filter23_d_575_7138)">
<rect width="6.41042" height="6.41042" rx="3.20521" transform="matrix(0 1 1 0 124.219 80.5918)" fill="white"/>
<rect x="0.534202" y="0.534202" width="5.34202" height="5.34202" rx="2.67101" transform="matrix(0 1 1 0 124.219 80.5918)" stroke="black" stroke-width="1.0684"/>
</g>
<path d="M408.334 45.4551C263.516 166.632 266.716 167.698 224.666 270.216" stroke="#EDEDED" stroke-width="1.0684"/>
<path d="M20.7021 45.4531C150.944 150.922 164.713 163.818 204.37 270.215" stroke="#EDEDED" stroke-width="1.0684"/>
<path d="M183.98 88.4894C183.631 88.3 183.367 88.0257 183.187 87.6668C182.998 87.3178 182.903 86.9039 182.903 86.4253C182.903 85.5976 183.177 84.9345 183.726 84.4359C184.264 83.9373 184.987 83.688 185.895 83.688C186.862 83.688 187.62 83.9473 188.168 84.4658C188.707 84.9943 188.976 85.7173 188.976 86.6347C188.976 87.2629 188.816 87.7914 188.497 88.2202C188.178 88.659 187.72 88.9781 187.121 89.1775V85.9317H185.237V91.4959H187.615C188.253 91.3065 188.846 90.9824 189.395 90.5237C189.943 90.0749 190.387 89.5016 190.726 88.8035C191.065 88.1055 191.235 87.3178 191.235 86.4402C191.235 85.4032 191.01 84.4758 190.561 83.6581C190.103 82.8504 189.47 82.2172 188.662 81.7585C187.854 81.3098 186.932 81.0854 185.895 81.0854C184.858 81.0854 183.935 81.3098 183.128 81.7585C182.31 82.2172 181.677 82.8504 181.228 83.6581C180.769 84.4658 180.54 85.3882 180.54 86.4253C180.54 87.6817 180.844 88.7387 181.452 89.5963C182.061 90.4638 182.903 91.0372 183.98 91.3164V88.4894Z" fill="#FF6161"/>
<path d="M303.711 79.5254L294.629 83.2648L299.971 87.0042V81.6622" stroke="#4967D0" stroke-width="2.13681"/>
<path d="M246.715 157.472L246.45 152.69C246.33 150.517 243.856 149.336 242.09 150.609V150.609C241.337 151.152 240.908 152.039 240.95 152.967L241.143 157.227" stroke="#B549D0" stroke-width="2.13681"/>
<path d="M135.601 57.4427L135.336 52.661C135.216 50.4882 132.742 49.3069 130.977 50.5796V50.5796C130.223 51.1228 129.795 52.0093 129.837 52.9372L130.029 57.1978" stroke="#95D049" stroke-width="2.13681"/>
<path d="M246.715 147.95L246.45 152.732C246.33 154.904 243.856 156.086 242.09 154.813V154.813C241.337 154.27 240.908 153.383 240.95 152.455L241.143 148.195" stroke="#B549D0" stroke-width="2.13681"/>
<path d="M132.737 52.5258L132.971 57.309C133.077 59.4825 130.739 60.9146 128.851 59.8323V59.8323C128.045 59.3703 127.527 58.5332 127.472 57.6059L127.22 53.3484" stroke="#95D049" stroke-width="2.13681"/>
<path d="M198.615 141.679C198.355 141.838 198.146 142.068 197.986 142.367C197.827 142.666 197.747 143.008 197.747 143.394C197.747 143.853 197.863 144.268 198.096 144.641C198.329 145.013 198.661 145.305 199.093 145.518C199.525 145.737 200.027 145.847 200.599 145.847C201.171 145.847 201.676 145.737 202.115 145.518C202.547 145.305 202.883 145.013 203.122 144.641C203.355 144.268 203.471 143.853 203.471 143.394C203.471 143.002 203.394 142.659 203.242 142.367C203.082 142.074 202.873 141.845 202.613 141.679H203.391V139.974H196.012V141.679H198.615ZM200.599 144.112C200.174 144.112 199.841 143.992 199.602 143.753C199.356 143.52 199.233 143.231 199.233 142.885C199.233 142.546 199.356 142.257 199.602 142.018C199.848 141.785 200.184 141.669 200.609 141.669C201.034 141.669 201.37 141.785 201.616 142.018C201.862 142.257 201.985 142.546 201.985 142.885C201.985 143.225 201.862 143.514 201.616 143.753C201.364 143.992 201.024 144.112 200.599 144.112ZM197.827 152.236H203.391V150.531H202.633C202.879 150.358 203.079 150.122 203.232 149.823C203.378 149.53 203.451 149.205 203.451 148.846C203.451 148.42 203.358 148.045 203.172 147.719C202.979 147.393 202.703 147.141 202.344 146.961C201.985 146.782 201.563 146.692 201.078 146.692H197.827V148.387H200.848C201.221 148.387 201.51 148.483 201.716 148.676C201.922 148.869 202.025 149.128 202.025 149.454C202.025 149.786 201.922 150.049 201.716 150.242C201.51 150.435 201.221 150.531 200.848 150.531H197.827V152.236Z" fill="#03A800"/>
</g>
</g>
<defs>
<filter id="filter0_d_575_7138" x="222.428" y="395.818" width="62.313" height="62.3132" filterUnits="userSpaceOnUse" color-interpolation-filters="sRGB">
<feFlood flood-opacity="0" result="BackgroundImageFix"/>
<feColorMatrix in="SourceAlpha" type="matrix" values="0 0 0 0 0 0 0 0 0 0 0 0 0 0 0 0 0 0 127 0" result="hardAlpha"/>
<feOffset dx="3.64325" dy="3.64325"/>
<feComposite in2="hardAlpha" operator="out"/>
<feColorMatrix type="matrix" values="0 0 0 0 0 0 0 0 0 0 0 0 0 0 0 0 0 0 1 0"/>
<feBlend mode="normal" in2="BackgroundImageFix" result="effect1_dropShadow_575_7138"/>
<feBlend mode="normal" in="SourceGraphic" in2="effect1_dropShadow_575_7138" result="shape"/>
</filter>
<filter id="filter1_d_575_7138" x="222.428" y="395.82" width="62.313" height="62.3132" filterUnits="userSpaceOnUse" color-interpolation-filters="sRGB">
<feFlood flood-opacity="0" result="BackgroundImageFix"/>
<feColorMatrix in="SourceAlpha" type="matrix" values="0 0 0 0 0 0 0 0 0 0 0 0 0 0 0 0 0 0 127 0" result="hardAlpha"/>
<feOffset dx="3.64325" dy="3.64325"/>
<feComposite in2="hardAlpha" operator="out"/>
<feColorMatrix type="matrix" values="0 0 0 0 0 0 0 0 0 0 0 0 0 0 0 0 0 0 1 0"/>
<feBlend mode="normal" in2="BackgroundImageFix" result="effect1_dropShadow_575_7138"/>
<feBlend mode="normal" in="SourceGraphic" in2="effect1_dropShadow_575_7138" result="shape"/>
</filter>
<filter id="filter2_d_575_7138" x="231.638" y="406.002" width="33.283" height="38.2607" filterUnits="userSpaceOnUse" color-interpolation-filters="sRGB">
<feFlood flood-opacity="0" result="BackgroundImageFix"/>
<feColorMatrix in="SourceAlpha" type="matrix" values="0 0 0 0 0 0 0 0 0 0 0 0 0 0 0 0 0 0 127 0" result="hardAlpha"/>
<feOffset dx="0.957937" dy="0.957937"/>
<feComposite in2="hardAlpha" operator="out"/>
<feColorMatrix type="matrix" values="0 0 0 0 0.156863 0 0 0 0 0.152941 0 0 0 0 0.235294 0 0 0 1 0"/>
<feBlend mode="normal" in2="BackgroundImageFix" result="effect1_dropShadow_575_7138"/>
<feBlend mode="normal" in="SourceGraphic" in2="effect1_dropShadow_575_7138" result="shape"/>
</filter>
<filter id="filter3_d_575_7138" x="243.792" y="416.377" width="15.1746" height="13.579" filterUnits="userSpaceOnUse" color-interpolation-filters="sRGB">
<feFlood flood-opacity="0" result="BackgroundImageFix"/>
<feColorMatrix in="SourceAlpha" type="matrix" values="0 0 0 0 0 0 0 0 0 0 0 0 0 0 0 0 0 0 127 0" result="hardAlpha"/>
<feOffset dx="0.957937" dy="0.957937"/>
<feComposite in2="hardAlpha" operator="out"/>
<feColorMatrix type="matrix" values="0 0 0 0 0.156863 0 0 0 0 0.152941 0 0 0 0 0.235294 0 0 0 1 0"/>
<feBlend mode="normal" in2="BackgroundImageFix" result="effect1_dropShadow_575_7138"/>
<feBlend mode="normal" in="SourceGraphic" in2="effect1_dropShadow_575_7138" result="shape"/>
</filter>
<filter id="filter4_d_575_7138" x="185.992" y="294.994" width="62.79" height="62.7903" filterUnits="userSpaceOnUse" color-interpolation-filters="sRGB">
<feFlood flood-opacity="0" result="BackgroundImageFix"/>
<feColorMatrix in="SourceAlpha" type="matrix" values="0 0 0 0 0 0 0 0 0 0 0 0 0 0 0 0 0 0 127 0" result="hardAlpha"/>
<feOffset dx="3.67114" dy="3.67114"/>
<feComposite in2="hardAlpha" operator="out"/>
<feColorMatrix type="matrix" values="0 0 0 0 0 0 0 0 0 0 0 0 0 0 0 0 0 0 1 0"/>
<feBlend mode="normal" in2="BackgroundImageFix" result="effect1_dropShadow_575_7138"/>
<feBlend mode="normal" in="SourceGraphic" in2="effect1_dropShadow_575_7138" result="shape"/>
</filter>
<filter id="filter5_d_575_7138" x="185.993" y="294.994" width="62.79" height="62.7903" filterUnits="userSpaceOnUse" color-interpolation-filters="sRGB">
<feFlood flood-opacity="0" result="BackgroundImageFix"/>
<feColorMatrix in="SourceAlpha" type="matrix" values="0 0 0 0 0 0 0 0 0 0 0 0 0 0 0 0 0 0 127 0" result="hardAlpha"/>
<feOffset dx="3.67114" dy="3.67114"/>
<feComposite in2="hardAlpha" operator="out"/>
<feColorMatrix type="matrix" values="0 0 0 0 0 0 0 0 0 0 0 0 0 0 0 0 0 0 1 0"/>
<feBlend mode="normal" in2="BackgroundImageFix" result="effect1_dropShadow_575_7138"/>
<feBlend mode="normal" in="SourceGraphic" in2="effect1_dropShadow_575_7138" result="shape"/>
</filter>
<filter id="filter6_d_575_7138" x="195.274" y="305.254" width="33.5378" height="38.5532" filterUnits="userSpaceOnUse" color-interpolation-filters="sRGB">
<feFlood flood-opacity="0" result="BackgroundImageFix"/>
<feColorMatrix in="SourceAlpha" type="matrix" values="0 0 0 0 0 0 0 0 0 0 0 0 0 0 0 0 0 0 127 0" result="hardAlpha"/>
<feOffset dx="0.965271" dy="0.965271"/>
<feComposite in2="hardAlpha" operator="out"/>
<feColorMatrix type="matrix" values="0 0 0 0 0.156863 0 0 0 0 0.152941 0 0 0 0 0.235294 0 0 0 1 0"/>
<feBlend mode="normal" in2="BackgroundImageFix" result="effect1_dropShadow_575_7138"/>
<feBlend mode="normal" in="SourceGraphic" in2="effect1_dropShadow_575_7138" result="shape"/>
</filter>
<filter id="filter7_d_575_7138" x="207.522" y="315.707" width="15.2908" height="13.6821" filterUnits="userSpaceOnUse" color-interpolation-filters="sRGB">
<feFlood flood-opacity="0" result="BackgroundImageFix"/>
<feColorMatrix in="SourceAlpha" type="matrix" values="0 0 0 0 0 0 0 0 0 0 0 0 0 0 0 0 0 0 127 0" result="hardAlpha"/>
<feOffset dx="0.965271" dy="0.965271"/>
<feComposite in2="hardAlpha" operator="out"/>
<feColorMatrix type="matrix" values="0 0 0 0 0.156863 0 0 0 0 0.152941 0 0 0 0 0.235294 0 0 0 1 0"/>
<feBlend mode="normal" in2="BackgroundImageFix" result="effect1_dropShadow_575_7138"/>
<feBlend mode="normal" in="SourceGraphic" in2="effect1_dropShadow_575_7138" result="shape"/>
</filter>
<filter id="filter8_d_575_7138" x="235.814" y="127.539" width="5.78805" height="5.7878" filterUnits="userSpaceOnUse" color-interpolation-filters="sRGB">
<feFlood flood-opacity="0" result="BackgroundImageFix"/>
<feColorMatrix in="SourceAlpha" type="matrix" values="0 0 0 0 0 0 0 0 0 0 0 0 0 0 0 0 0 0 127 0" result="hardAlpha"/>
<feOffset dx="0.826865" dy="0.826865"/>
<feComposite in2="hardAlpha" operator="out"/>
<feColorMatrix type="matrix" values="0 0 0 0 0 0 0 0 0 0 0 0 0 0 0 0 0 0 1 0"/>
<feBlend mode="normal" in2="BackgroundImageFix" result="effect1_dropShadow_575_7138"/>
<feBlend mode="normal" in="SourceGraphic" in2="effect1_dropShadow_575_7138" result="shape"/>
</filter>
<filter id="filter9_d_575_7138" x="201.914" y="120.098" width="5.78805" height="5.7878" filterUnits="userSpaceOnUse" color-interpolation-filters="sRGB">
<feFlood flood-opacity="0" result="BackgroundImageFix"/>
<feColorMatrix in="SourceAlpha" type="matrix" values="0 0 0 0 0 0 0 0 0 0 0 0 0 0 0 0 0 0 127 0" result="hardAlpha"/>
<feOffset dx="0.826865" dy="0.826865"/>
<feComposite in2="hardAlpha" operator="out"/>
<feColorMatrix type="matrix" values="0 0 0 0 0 0 0 0 0 0 0 0 0 0 0 0 0 0 1 0"/>
<feBlend mode="normal" in2="BackgroundImageFix" result="effect1_dropShadow_575_7138"/>
<feBlend mode="normal" in="SourceGraphic" in2="effect1_dropShadow_575_7138" result="shape"/>
</filter>
<filter id="filter10_d_575_7138" x="166.954" y="59.2246" width="7.4788" height="7.47856" filterUnits="userSpaceOnUse" color-interpolation-filters="sRGB">
<feFlood flood-opacity="0" result="BackgroundImageFix"/>
<feColorMatrix in="SourceAlpha" type="matrix" values="0 0 0 0 0 0 0 0 0 0 0 0 0 0 0 0 0 0 127 0" result="hardAlpha"/>
<feOffset dx="1.0684" dy="1.0684"/>
<feComposite in2="hardAlpha" operator="out"/>
<feColorMatrix type="matrix" values="0 0 0 0 0 0 0 0 0 0 0 0 0 0 0 0 0 0 1 0"/>
<feBlend mode="normal" in2="BackgroundImageFix" result="effect1_dropShadow_575_7138"/>
<feBlend mode="normal" in="SourceGraphic" in2="effect1_dropShadow_575_7138" result="shape"/>
</filter>
<filter id="filter11_d_575_7138" x="237.737" y="170.73" width="7.4788" height="7.47856" filterUnits="userSpaceOnUse" color-interpolation-filters="sRGB">
<feFlood flood-opacity="0" result="BackgroundImageFix"/>
<feColorMatrix in="SourceAlpha" type="matrix" values="0 0 0 0 0 0 0 0 0 0 0 0 0 0 0 0 0 0 127 0" result="hardAlpha"/>
<feOffset dx="1.0684" dy="1.0684"/>
<feComposite in2="hardAlpha" operator="out"/>
<feColorMatrix type="matrix" values="0 0 0 0 0 0 0 0 0 0 0 0 0 0 0 0 0 0 1 0"/>
<feBlend mode="normal" in2="BackgroundImageFix" result="effect1_dropShadow_575_7138"/>
<feBlend mode="normal" in="SourceGraphic" in2="effect1_dropShadow_575_7138" result="shape"/>
</filter>
<filter id="filter12_d_575_7138" x="211.557" y="199.236" width="7.4788" height="7.47856" filterUnits="userSpaceOnUse" color-interpolation-filters="sRGB">
<feFlood flood-opacity="0" result="BackgroundImageFix"/>
<feColorMatrix in="SourceAlpha" type="matrix" values="0 0 0 0 0 0 0 0 0 0 0 0 0 0 0 0 0 0 127 0" result="hardAlpha"/>
<feOffset dx="1.0684" dy="1.0684"/>
<feComposite in2="hardAlpha" operator="out"/>
<feColorMatrix type="matrix" values="0 0 0 0 0 0 0 0 0 0 0 0 0 0 0 0 0 0 1 0"/>
<feBlend mode="normal" in2="BackgroundImageFix" result="effect1_dropShadow_575_7138"/>
<feBlend mode="normal" in="SourceGraphic" in2="effect1_dropShadow_575_7138" result="shape"/>
</filter>
<filter id="filter13_d_575_7138" x="266.316" y="111.578" width="7.4788" height="7.47856" filterUnits="userSpaceOnUse" color-interpolation-filters="sRGB">
<feFlood flood-opacity="0" result="BackgroundImageFix"/>
<feColorMatrix in="SourceAlpha" type="matrix" values="0 0 0 0 0 0 0 0 0 0 0 0 0 0 0 0 0 0 127 0" result="hardAlpha"/>
<feOffset dx="1.0684" dy="1.0684"/>
<feComposite in2="hardAlpha" operator="out"/>
<feColorMatrix type="matrix" values="0 0 0 0 0 0 0 0 0 0 0 0 0 0 0 0 0 0 1 0"/>
<feBlend mode="normal" in2="BackgroundImageFix" result="effect1_dropShadow_575_7138"/>
<feBlend mode="normal" in="SourceGraphic" in2="effect1_dropShadow_575_7138" result="shape"/>
</filter>
<filter id="filter14_d_575_7138" x="281.273" y="59.2246" width="7.4788" height="7.47856" filterUnits="userSpaceOnUse" color-interpolation-filters="sRGB">
<feFlood flood-opacity="0" result="BackgroundImageFix"/>
<feColorMatrix in="SourceAlpha" type="matrix" values="0 0 0 0 0 0 0 0 0 0 0 0 0 0 0 0 0 0 127 0" result="hardAlpha"/>
<feOffset dx="1.0684" dy="1.0684"/>
<feComposite in2="hardAlpha" operator="out"/>
<feColorMatrix type="matrix" values="0 0 0 0 0 0 0 0 0 0 0 0 0 0 0 0 0 0 1 0"/>
<feBlend mode="normal" in2="BackgroundImageFix" result="effect1_dropShadow_575_7138"/>
<feBlend mode="normal" in="SourceGraphic" in2="effect1_dropShadow_575_7138" result="shape"/>
</filter>
<filter id="filter15_d_575_7138" x="237.469" y="80.5918" width="7.4788" height="7.47856" filterUnits="userSpaceOnUse" color-interpolation-filters="sRGB">
<feFlood flood-opacity="0" result="BackgroundImageFix"/>
<feColorMatrix in="SourceAlpha" type="matrix" values="0 0 0 0 0 0 0 0 0 0 0 0 0 0 0 0 0 0 127 0" result="hardAlpha"/>
<feOffset dx="1.0684" dy="1.0684"/>
<feComposite in2="hardAlpha" operator="out"/>
<feColorMatrix type="matrix" values="0 0 0 0 0 0 0 0 0 0 0 0 0 0 0 0 0 0 1 0"/>
<feBlend mode="normal" in2="BackgroundImageFix" result="effect1_dropShadow_575_7138"/>
<feBlend mode="normal" in="SourceGraphic" in2="effect1_dropShadow_575_7138" result="shape"/>
</filter>
<filter id="filter16_d_575_7138" x="189.391" y="168.203" width="7.4788" height="7.47856" filterUnits="userSpaceOnUse" color-interpolation-filters="sRGB">
<feFlood flood-opacity="0" result="BackgroundImageFix"/>
<feColorMatrix in="SourceAlpha" type="matrix" values="0 0 0 0 0 0 0 0 0 0 0 0 0 0 0 0 0 0 127 0" result="hardAlpha"/>
<feOffset dx="1.0684" dy="1.0684"/>
<feComposite in2="hardAlpha" operator="out"/>
<feColorMatrix type="matrix" values="0 0 0 0 0 0 0 0 0 0 0 0 0 0 0 0 0 0 1 0"/>
<feBlend mode="normal" in2="BackgroundImageFix" result="effect1_dropShadow_575_7138"/>
<feBlend mode="normal" in="SourceGraphic" in2="effect1_dropShadow_575_7138" result="shape"/>
</filter>
<filter id="filter17_d_575_7138" x="153.066" y="125.467" width="7.4788" height="7.47856" filterUnits="userSpaceOnUse" color-interpolation-filters="sRGB">
<feFlood flood-opacity="0" result="BackgroundImageFix"/>
<feColorMatrix in="SourceAlpha" type="matrix" values="0 0 0 0 0 0 0 0 0 0 0 0 0 0 0 0 0 0 127 0" result="hardAlpha"/>
<feOffset dx="1.0684" dy="1.0684"/>
<feComposite in2="hardAlpha" operator="out"/>
<feColorMatrix type="matrix" values="0 0 0 0 0 0 0 0 0 0 0 0 0 0 0 0 0 0 1 0"/>
<feBlend mode="normal" in2="BackgroundImageFix" result="effect1_dropShadow_575_7138"/>
<feBlend mode="normal" in="SourceGraphic" in2="effect1_dropShadow_575_7138" result="shape"/>
</filter>
<filter id="filter18_d_575_7138" x="174.434" y="74.1836" width="27.4224" height="27.4214" filterUnits="userSpaceOnUse" color-interpolation-filters="sRGB">
<feFlood flood-opacity="0" result="BackgroundImageFix"/>
<feColorMatrix in="SourceAlpha" type="matrix" values="0 0 0 0 0 0 0 0 0 0 0 0 0 0 0 0 0 0 127 0" result="hardAlpha"/>
<feOffset dx="3.91748" dy="3.91748"/>
<feComposite in2="hardAlpha" operator="out"/>
<feColorMatrix type="matrix" values="0 0 0 0 0 0 0 0 0 0 0 0 0 0 0 0 0 0 1 0"/>
<feBlend mode="normal" in2="BackgroundImageFix" result="effect1_dropShadow_575_7138"/>
<feBlend mode="normal" in="SourceGraphic" in2="effect1_dropShadow_575_7138" result="shape"/>
</filter>
<filter id="filter19_d_575_7138" x="287.684" y="72.0469" width="27.4224" height="27.4214" filterUnits="userSpaceOnUse" color-interpolation-filters="sRGB">
<feFlood flood-opacity="0" result="BackgroundImageFix"/>
<feColorMatrix in="SourceAlpha" type="matrix" values="0 0 0 0 0 0 0 0 0 0 0 0 0 0 0 0 0 0 127 0" result="hardAlpha"/>
<feOffset dx="3.91748" dy="3.91748"/>
<feComposite in2="hardAlpha" operator="out"/>
<feColorMatrix type="matrix" values="0 0 0 0 0 0 0 0 0 0 0 0 0 0 0 0 0 0 1 0"/>
<feBlend mode="normal" in2="BackgroundImageFix" result="effect1_dropShadow_575_7138"/>
<feBlend mode="normal" in="SourceGraphic" in2="effect1_dropShadow_575_7138" result="shape"/>
</filter>
<filter id="filter20_d_575_7138" x="232.128" y="141.492" width="27.4224" height="27.4214" filterUnits="userSpaceOnUse" color-interpolation-filters="sRGB">
<feFlood flood-opacity="0" result="BackgroundImageFix"/>
<feColorMatrix in="SourceAlpha" type="matrix" values="0 0 0 0 0 0 0 0 0 0 0 0 0 0 0 0 0 0 127 0" result="hardAlpha"/>
<feOffset dx="3.91748" dy="3.91748"/>
<feComposite in2="hardAlpha" operator="out"/>
<feColorMatrix type="matrix" values="0 0 0 0 0 0 0 0 0 0 0 0 0 0 0 0 0 0 1 0"/>
<feBlend mode="normal" in2="BackgroundImageFix" result="effect1_dropShadow_575_7138"/>
<feBlend mode="normal" in="SourceGraphic" in2="effect1_dropShadow_575_7138" result="shape"/>
</filter>
<filter id="filter21_d_575_7138" x="188.323" y="134.014" width="27.4224" height="27.4214" filterUnits="userSpaceOnUse" color-interpolation-filters="sRGB">
<feFlood flood-opacity="0" result="BackgroundImageFix"/>
<feColorMatrix in="SourceAlpha" type="matrix" values="0 0 0 0 0 0 0 0 0 0 0 0 0 0 0 0 0 0 127 0" result="hardAlpha"/>
<feOffset dx="3.91748" dy="3.91748"/>
<feComposite in2="hardAlpha" operator="out"/>
<feColorMatrix type="matrix" values="0 0 0 0 0 0 0 0 0 0 0 0 0 0 0 0 0 0 1 0"/>
<feBlend mode="normal" in2="BackgroundImageFix" result="effect1_dropShadow_575_7138"/>
<feBlend mode="normal" in="SourceGraphic" in2="effect1_dropShadow_575_7138" result="shape"/>
</filter>
<filter id="filter22_d_575_7138" x="119.945" y="43.1992" width="27.4224" height="27.4214" filterUnits="userSpaceOnUse" color-interpolation-filters="sRGB">
<feFlood flood-opacity="0" result="BackgroundImageFix"/>
<feColorMatrix in="SourceAlpha" type="matrix" values="0 0 0 0 0 0 0 0 0 0 0 0 0 0 0 0 0 0 127 0" result="hardAlpha"/>
<feOffset dx="3.91748" dy="3.91748"/>
<feComposite in2="hardAlpha" operator="out"/>
<feColorMatrix type="matrix" values="0 0 0 0 0 0 0 0 0 0 0 0 0 0 0 0 0 0 1 0"/>
<feBlend mode="normal" in2="BackgroundImageFix" result="effect1_dropShadow_575_7138"/>
<feBlend mode="normal" in="SourceGraphic" in2="effect1_dropShadow_575_7138" result="shape"/>
</filter>
<filter id="filter23_d_575_7138" x="124.219" y="80.5918" width="7.4788" height="7.47856" filterUnits="userSpaceOnUse" color-interpolation-filters="sRGB">
<feFlood flood-opacity="0" result="BackgroundImageFix"/>
<feColorMatrix in="SourceAlpha" type="matrix" values="0 0 0 0 0 0 0 0 0 0 0 0 0 0 0 0 0 0 127 0" result="hardAlpha"/>
<feOffset dx="1.0684" dy="1.0684"/>
<feComposite in2="hardAlpha" operator="out"/>
<feColorMatrix type="matrix" values="0 0 0 0 0 0 0 0 0 0 0 0 0 0 0 0 0 0 1 0"/>
<feBlend mode="normal" in2="BackgroundImageFix" result="effect1_dropShadow_575_7138"/>
<feBlend mode="normal" in="SourceGraphic" in2="effect1_dropShadow_575_7138" result="shape"/>
</filter>
<linearGradient id="paint0_linear_575_7138" x1="176.39" y1="23.9791" x2="232.247" y2="245.213" gradientUnits="userSpaceOnUse">
<stop stop-color="#BDA6FF" stop-opacity="0"/>
<stop offset="1" stop-color="white" stop-opacity="0.84"/>
</linearGradient>
<linearGradient id="paint1_linear_575_7138" x1="254.047" y1="23.9791" x2="198.378" y2="245.314" gradientUnits="userSpaceOnUse">
<stop stop-color="#BDA6FF" stop-opacity="0"/>
<stop offset="1" stop-color="white" stop-opacity="0.84"/>
</linearGradient>
<clipPath id="clip0_575_7138">
<rect width="432" height="578" fill="white"/>
</clipPath>
<clipPath id="clip1_575_7138">
<rect width="517.042" height="498.186" fill="white" transform="translate(18 112)"/>
</clipPath>
<clipPath id="clip2_575_7138">
<rect width="270" height="395" fill="white" transform="matrix(0 1 1 0 18 0)"/>
</clipPath>
</defs>
</svg>
